<?xml version="1.0" encoding="UTF-8" standalone="no"?>
<svg
   version="1.0"
   viewBox="0 0 1920.000000 1920.000000"
   preserveAspectRatio="xMidYMid meet"
   xmlns="http://www.w3.org/2000/svg"
   xmlns:svg="http://www.w3.org/2000/svg">
  <g
     transform="translate(0.000000,1920.000000) scale(0.100000,-0.100000)"
     stroke="none"
     id="g37">
       <path
         fill="#325a79"
         d="m 10840,8459 c 10,14 28,69 39,121 11,52 32,136 47,185 14,50 29,98 32,109 5,17 13,18 101,12 135,-8 387,-15 801,-21 384,-6 517,-19 624,-60 34,-13 171,-76 306,-140 135,-65 281,-134 325,-155 44,-21 134,-63 200,-95 187,-89 764,-360 925,-435 80,-37 174,-81 210,-98 263,-122 640,-289 895,-397 118,-50 223,-85 252,-85 21,0 23,2 12,23 -7,12 -69,81 -139,152 -125,128 -156,166 -143,179 13,13 82,5 208,-25 408,-95 694,-151 853,-169 150,-17 178,4 92,66 -86,61 -304,172 -2435,1228 -872,433 -1210,605 -1202,612 2,2 118,-20 258,-50 361,-77 511,-92 555,-55 23,19 16,63 -15,106 -50,70 -478,493 -672,664 -164,145 -410,350 -533,444 -197,150 -264,199 -426,315 -102,73 -440,302 -752,511 -841,561 -1037,707 -1299,968 -238,238 -367,426 -468,676 -46,115 -72,219 -100,395 -64,399 -198,680 -438,917 -389,383 -974,497 -1482,287 -116,-48 -250,-129 -338,-203 l -73,-61 h -112 c -238,0 -488,-73 -731,-213 -104,-60 -279,-178 -273,-184 2,-2 84,-5 182,-7 146,-3 201,-8 302,-30 214,-46 480,-157 659,-276 l 78,-51 33,-91 c 19,-50 70,-166 114,-257 203,-419 228,-531 209,-910 -26,-498 39,-981 191,-1419 154,-446 378,-812 693,-1128 362,-365 785,-590 1399,-745 169,-42 151,-31 174,-107 37,-117 62,-234 73,-347 6,-60 15,-120 21,-131 8,-18 -11,-76 -107,-320 -64,-165 -135.1874,-359.062 -168,-429 -164.103,-349.7757 -227.9726,-357.8788 -86.4087,-320.8604 54.7614,2.6807 281.6553,30.2809 419.5407,61.3034 93.255,20.9813 224.141,42.6495 274.162,84.0615 140.263,116.1254 410.985,864.5449 435.706,899.4955 z m -338,399 c 35,-84 77,-245 86,-333 5,-47 12,-69 20,-67 18,3 16,-4 -31,-124 -24,-60 -75,-188 -112,-284 -38,-96 -97,-247 -131,-335 l -63,-160 -73,-23 c -97,-31 -234.8059,-63.293 -367.7757,-80.3364 C 9826.3598,7451.1683 9820,7443 9820,7446 c 0,4 226,496 398,864 19,41 43,94 53,118 15,34 23,42 44,42 36,0 43,26 66,225 17,160 28,220 44,245 14,22 50,-17 77,-82 z"
       id="bird"/>
    <path
      fill="#4a84b2"
       d="m 8630,17914 c -25,-2 -106,-9 -180,-14 -987,-77 -1980,-405 -2815,-930 -925,-582 -1666,-1365 -2192,-2315 -345,-623 -593,-1355 -703,-2071 -51,-333 -62,-498 -67,-1001 -7,-645 17,-1007 98,-1473 217,-1244 726,-2499 1537,-3790 913,-1452 2254,-2987 3757,-4300 337,-294 818,-690 893,-734 25,-15 688,530 1117,918 1754,1588 3117,3257 4009,4911 121,223 252,483 246,488 -3,2 -106,52 -230,110 -354,165 -704,330 -835,392 -66,31 -154,73 -195,92 -41,20 -216,103 -389,185 -173,82 -333,153 -355,159 -23,5 -116,12 -208,16 l -167,6 -118,-105 c -290,-257 -687.119,-535.9818 -1443.716,-857.8644 -324.627,-116.0472 -484.4298,-138.6502 -845.8199,-182.1303 C 8984.1147,7350.7079 8528.1616,7364.1089 8276,7405 c -583,94 -1154,316 -1651,642 -255,167 -454,331 -685,562 -606,606 -999,1345 -1169,2196 -89,441 -101,957 -35,1430 73,525 272,1094 532,1525 405,670 912,1182 1532,1545 728,426 1560,632 2371,587 330,-19 546,-51 849,-127 936,-234 1791,-806 2372,-1585 466,-626 740,-1336 830,-2150 20,-179 16,-682 -6,-854 -29,-226 -62,-411 -104,-576 l -40,-155 52,-45 c 255,-224 700,-666 766,-762 80,-115 103,-218 75,-333 -15,-58 -15,-70 -4,-74 8,-2 202,-98 433,-213 230,-115 424,-207 430,-205 18,7 112,319 197,647 103,402 184,868 214,1235 4,44 8,90 10,103 2,13 9,134 16,270 18,381 3,912 -36,1262 -244,2176 -1606,4070 -3592,5000 -667,312 -1292,482 -2083,566 -137,14 -809,28 -920,18 z"
       id="pin"/>
   
  </g>
</svg>
