<svg id="map" class="map svg-content-responsive" xmlns:xlink="http://www.w3.org/1999/xlink" preserveAspectRatio="xMinYMin meet" viewBox="0 0 960  540"><g><g id="states"><a id="s01" rel="nofollow " title="Bradley" class="hint   "><path d="M500.5701098757363,485.23113652970824L508.8431213266349,462.8797470633099L506.5255474821315,433.5859476396827L548.1615356870807,434.0641745348903L548.133856161407,458.6728894745902L544.4054475104485,458.7127070489041L545.3595701432937,466.63114187801057L543.5379993245188,469.1892074203133L546.2477779734786,471.7100533209741L545.0835958894409,474.68480768665086L546.8655239977179,478.6922999426233L550.0025760027256,479.8402866203578L548.6903788280147,483.839629038197L546.5679690967331,484.15526282832525L547.9632048484636,490.60796318150824L545.1515045562423,490.41697170658335L544.6874033567119,493.3773554975478L540.4388307381223,493.97753942750023L540.1476092879252,496.9902204370437L536.7029157751172,497.8477248759491L534.383817210979,501.95615373781857L531.7248234544618,501.7330923754007L529.0908116427272,506.53621685054986L529.8660729338312,509.1470439613395L526.0596690092584,510.4136507792964L524.1660845092833,502.9938755176536L522.396940588711,504.7489144261608L519.1750907147966,503.61503659935534L520.582289651355,501.5061011927519L517.8830667537113,500.35537773465694L518.9895440638861,497.5028509285512L513.8819678604204,497.2833551353833L510.41932957037534,493.62890881789644L507.0391434267208,496.16070942174883L506.90485081275574,493.82672458705747L503.2353197969155,493.4699524127591L504.1398303985761,490.75390616449477L500.9219682529392,488.879108061873Z" stroke="#FFFFFF" stroke-dasharray="1, 0" stroke-width="1"></path><text x="517.2993988361629" y="467.34332689761266" title="Sebastian" class="hint Sebastian " style="">Bradley</text></a><a id="s02" rel="nofollow " title="Carroll" class="hint   "><path d="M323.6730761651488,50.8273960288534L324.55823455606424,48.639695284824484L326.30028538159195,49.776868706677305L326.38354728928334,33.388856822116395L393.6226621845435,33.4537600097965L392.76023395652146,88.29545458998291L363.4017573934111,87.6099554137827L363.44996199108755,83.43276114622131L359.3740345495794,83.33587249925404L359.4455790862762,78.97125172146843L356.2967984686966,78.85063826167607L355.5378399490719,68.33927798193054L352.7782146966765,67.0695515147545L352.99871261305543,64.79229963568014L350.32705195496055,66.0387126059577L350.90445155194766,61.90685315837436L332.38309572053504,61.40023456900599L328.42762113015624,57.910049766793236L327.67945293409775,59.78912155311809L326.3744102130554,51.193768377578635Z" stroke="#FFFFFF" stroke-dasharray="1, 0" stroke-width="1"></path><text x="356.00965959697186" y="56.34447022483651" title="Carroll" class="hint " style="">Carroll</text></a><a id="s03" rel="nofollow " title="Clark" class="hint   "><path d="M369.14443796772684,361.16801147453225L369.22559996673453,356.3637461215603L371.7019792254814,356.4256134628504L371.9037113617446,344.0008701290417L386.31242919429405,344.3066893360283L386.1898651929023,352.5978903070818L404.7869878615402,353.0193107992209L404.652108816947,357.1735302000652L423.93265774023575,358.79094746595365L425.00359735431266,363.72399440153185L423.0052763440576,366.73666351974134L423.4740689886153,370.3089974805571L441.37943808767386,370.24663501692976L440.57825656278465,394.6838735856136L434.00694951015885,394.2475084539692L432.56726231677385,395.974488128194L435.2352871049711,396.8255814641343L435.82347702552806,401.93822813493534L437.7343025859859,401.3927093235825L440.56429951382233,405.8727520393113L438.27897935389683,407.4067522212945L439.0608086680377,411.76944624977114L442.53212613138703,414.26610364508815L440.51093432661264,415.7946593866209L440.5292309622282,419.17712752215084L436.38199355627376,417.40405818284125L434.76250673213735,421.0154239100766L424.3912464918544,424.84383966752284L420.0062701090369,422.20556598815347L414.9555776765533,423.5791713593535L411.5885275789824,418.37207902421596L407.02703557693394,420.5613805563207L402.35986877560117,416.5141785186279L394.1207530150368,414.36975502234054L392.67789909625617,406.8853610250253L384.2130075436562,399.2200014197333L383.5845884819728,394.2559954471044L377.0947952867323,385.24367622805676L375.9697867686914,373.8241560968081L374.41797403910414,373.80601964818015L374.1377774847265,371.973955127527L376.00978133756826,371.4365681617501L374.06048592786783,365.29742068847554L376.04872033131187,362.7568073495322Z" stroke="#FFFFFF" stroke-dasharray="1, 0" stroke-width="1"></path><text x="398.38124733937616" y="385.0530077287481" title="Clark" class="hint " style="">Clark</text></a><a id="s04" rel="nofollow " title="Cleveland" class="hint   "><path d="M489.7448350427385,391.43826736596384L490.0083769672615,384.2449570587023L550.7471083288865,383.24162421260644L550.835072923187,395.54609017840085L548.0917504422678,395.5306737907258L548.1615356870807,434.0641745348903L506.5255474821315,433.5859476396827L505.5525417830431,415.59345179794946L499.04632853019893,408.6014866506157L495.89625776523553,400.721767861186L489.5468560624986,396.1813978821947Z" stroke="#FFFFFF" stroke-dasharray="1, 0" stroke-width="1"></path><text x="514.549077000771" y="406.6637672831917" title="Cleveland" class="hint " style="">Cleveland</text></a><a id="s05" rel="nofollow " title="Independence" class="hint   "><path d="M560.4602761176761,133.36123596069137L562.9860328353584,125.13639021385916L574.2575813767735,114.20806871041987L608.2877989001208,115.08782295719084L608.1142154340346,121.50510157330336L639.4121353722835,122.58001683484599L638.3613689718345,124.48349155121014L636.9980350462997,123.18192536014067L638.0043500050988,125.67419679654176L636.6216638688202,127.36893307745049L638.1443896392252,127.75875502135295L633.487426730831,130.05473146822624L635.5765272024037,132.86081565472887L632.1805074317767,133.27445943567L633.6206637696637,134.9348145027734L629.6634298873987,136.0550317408024L629.6872389709215,138.6776510216314L625.9106257222866,140.04004916756185L623.6495837903853,146.70285052425243L621.1117466017545,148.00998828494357L621.1960753261565,152.47991648953212L624.9406694624658,158.0816301711011L619.3617203196764,158.0009568653386L619.2690642803473,174.39102078214728L569.4942399523375,173.27380271506172L569.9792180822478,147.64555314882364L564.4250163119877,148.62804274915743L564.5537964780438,142.2822700814795L561.2026972935714,139.20716244721007Z" stroke="#FFFFFF" stroke-dasharray="1, 0" stroke-width="1"></path><text x="586.6683833209873" y="143.3126937267803" title="Independence" class="hint " style="">Independence</text></a><a id="s06" rel="nofollow " title="Jackson" class="hint   "><path d="M594.2144021010445,180.70418616149072L594.3680469257579,173.802304126566L619.2690642803473,174.39102078214728L619.3617203196764,158.0009568653386L624.9406694624658,158.0816301711011L621.1960753261565,152.47991648953212L621.1117466017545,148.00998828494357L623.6495837903853,146.70285052425243L625.9106257222866,140.04004916756185L629.6872389709215,138.6776510216314L629.6634298873987,136.0550317408024L633.6206637696637,134.9348145027734L632.1805074317767,133.27445943567L635.5765272024037,132.86081565472887L633.487426730831,130.05473146822624L638.1443896392252,127.75875502135295L636.6216638688202,127.36893307745049L637.9783124851856,125.9112520784629L637.1026542704562,123.01444220234862L638.3613689718345,124.48349155121014L639.3266337866239,121.86312831606665L658.8028159676373,122.58030636073363L657.9485038277912,199.1672136588286L633.1105864088468,198.69192758850477L632.949669844339,185.9887549512514L594.038824770822,186.4975291899018Z" stroke="#FFFFFF" stroke-dasharray="1, 0" stroke-width="1"></path><text x="628.6407127171395" y="163.78350540270074" title="Jackson" class="hint " style="">Jackson</text></a><a id="s07" rel="nofollow " title="Randolph" class="hint   "><path d="M614.8629763948966,33.63346087811624L687.9015931269805,33.42749147535142L689.7696371729385,36.66497717190941L688.6575301287298,44.016248219753834L692.0885011648265,45.91817455763703L691.975085481241,65.1876108230017L685.3429069293602,64.07686342834495L684.9204423044671,84.22672311840233L656.5129216488062,83.74724410404906L653.9980725408191,89.26184983359417L652.9012126929538,84.02351711812389L646.0063132194282,81.78002137248404L643.6943691089587,76.17792289201134L636.1203829674328,73.3613728844939L635.0374801685311,70.78290937559268L634.2277367564639,73.1678593778679L634.3803260060427,68.51440153152726L632.2467740928159,68.48342056851652L632.2865340894386,57.86273413412255L630.2366071838592,57.86171502601974L630.367850358557,51.563624907247686L626.2404343078506,49.287482889900275L626.404400311626,44.82550599650949L621.6658062597207,44.75262852428568L620.1528152377514,37.25846458083652L615.8600257497615,36.16452157275944Z" stroke="#FFFFFF" stroke-dasharray="1, 0" stroke-width="1"></path><text x="650.4192781715717" y="56.211191797508725" title="Randolph" class="hint " style="">Randolph</text></a><a id="s08" rel="nofollow " title="Howard" class="hint   "><path d="M280.8601216884622,343.24175684723286L318.3362055858752,342.68744858690843L319.45382507799377,365.9059759798629L331.78294261515384,366.28807956449054L330.5244624860279,427.9587363883329L314.76449119889776,427.0212481598728L314.90148139375333,421.12339254116796L308.5220544428289,413.4516891559715L308.46951025849967,410.34773910341846L304.54664121107544,408.42474236821454L302.60954355845206,402.84826643501583L304.0081806078292,396.81455072938206L300.4912388415696,387.4687303842493L302.1626834194053,382.6020920031251L299.56350558701433,381.20199633638913L301.32866177931055,374.52040493063305L298.62498200889104,373.11270496861107L300.02924879230295,372.3745704869716L298.70027970161163,369.65545106789705L300.251036856067,365.90143886952774L282.16891756552695,365.0546705153838Z" stroke="#FFFFFF" stroke-dasharray="1, 0" stroke-width="1"></path><text x="302.59191635042794" y="379.93463561239065" title="Howard" class="hint " style="">Howard</text></a><a id="s09" rel="nofollow " title="Mississippi" class="hint   "><path d="M746.028390389903,106.449744826803L811.2048768909253,105.84246176151737L813.3781888007779,111.28844578518601L820.6834724282458,117.31088222597009L821.608156243532,121.17428245091469L818.6574718923171,122.83928433792516L810.2494641106964,119.44156085185023L807.382052908752,121.6785425321832L806.5870875485243,125.47114738193159L814.5761492890229,129.72126538544217L814.3727751470005,132.24784338151676L805.4932771399313,134.15347531735551L800.869506205117,141.14618325905667L794.2967917189826,143.3640568826395L790.4568439624513,140.75883885600342L785.0314223582477,144.51755208748727L785.0901827072398,150.69486826056072L787.9891438770073,155.10962245935025L791.7563742355837,156.42894145637183L796.1709067220868,153.6631057828654L797.279495182524,157.3875903775952L784.9733657260081,165.14261595484732L786.7744114727802,170.03899751495373L790.6515389311699,171.50854532046742L789.8230297389841,176.0111699403078L785.6185567036705,175.0389347530363L781.14819602132,169.53613110546394L775.2392037207142,171.26637254908565L774.2100179673976,177.5617930638482L777.6907183208054,183.25720264357005L773.4985603286946,194.08287265334639L771.2118327352591,187.69638592579304L772.0262675923564,183.2547545981579L769.9302472393633,181.23825343006501L766.4816832844053,182.15538591157474L763.4595006744198,187.336435109406L746.2513513149215,187.03564809291038Z" stroke="#FFFFFF" stroke-dasharray="1, 0" stroke-width="1"></path><text x="764.508178829301" y="140.09158769977623" title="Mississippi" class="hint " style="">Mississippi</text></a><a id="s10" rel="nofollow " title="Monroe" class="hint   "><path d="M610.2274768475113,299.60320996368955L610.1895934288987,297.50670525517125L618.6597628571581,297.73016191593524L618.3815601669166,273.8102680967031L620.4138941536366,271.96370070576086L619.8852855849523,268.8119198972963L622.2826139949566,267.80193063242314L617.3114415557202,263.953597863725L628.0397207627361,262.52841968271423L628.2366441678446,252.1344750331582L634.683627927192,252.1646804552911L634.7598639089192,249.38559884477036L645.0401101156308,249.64634025501346L644.7334068968371,262.61495073622154L648.8661008232011,262.62353229355267L648.8010070234177,269.003615066722L650.8904593533707,269.01033363265833L650.5877438628509,287.900916618697L656.8118839833028,287.9979651478334L656.1902675169135,325.5165365490211L662.5606634361552,325.7273729796325L662.2986462312665,344.63977192328093L649.9755102865188,342.21764432438613L646.6490411884511,335.37276525538346L643.1587233727323,333.8811115530016L644.660806785007,332.7110282559961L642.1193337264772,328.4236721643392L637.1045308484681,329.5965953001705L638.0117390310206,323.65412773171647L633.0474864732014,323.1277913346594L631.8855328255545,317.4858884330124L627.4037953890061,316.6958932216139L628.4275859805384,312.58020437164487L618.3014537430417,312.33537957311546L618.3897701957194,308.1514971955048L610.0943570948039,305.8240880984413Z" stroke="#FFFFFF" stroke-dasharray="1, 0" stroke-width="1"></path><text x="629.6147882971121" y="295.7814613851468" title="Monroe" class="hint " style="">Monroe</text></a><a id="s11" rel="nofollow " title="Nevada" class="hint   "><path d="M371.3816708161021,466.21367422510593L374.4766171019719,398.4240825319548L383.42801150411833,398.1452368836981L392.67789909625617,406.8853610250253L392.39183823559233,410.7133167713582L395.48830924109643,415.4622767636656L402.35986877560117,416.5141785186279L407.02703557693394,420.5613805563207L411.5885275789824,418.37207902421596L415.8104762470293,423.82483467896054L414.39471542329466,469.4706391708987L402.1183766427148,469.17037009811156L402.0879995361488,471.22276415028955L371.278810883834,470.26991489819557Z" stroke="#FFFFFF" stroke-dasharray="1, 0" stroke-width="1"></path><text x="383.14663693848587" y="439.6893546559275" title="Nevada" class="hint " style="">Nevada</text></a><a id="s12" rel="nofollow " title="Ouachita" class="hint   "><path d="M414.39471542329466,469.4706391708987L415.8104762470293,423.82483467896054L419.72173396800645,422.20570711034725L424.3912464918544,424.84383966752284L428.9064104742379,423.77135641478526L434.76250673213735,421.0154239100766L436.38199355627376,417.40405818284125L440.1819467439291,419.7108325300351L476.9442272801257,420.27034348172947L474.9992714570785,433.1226473235547L470.8254101005832,435.6938389895686L468.7618780044186,440.2155737125049L460.129971008771,441.8337033269363L459.0971493855577,445.9731542800655L461.65140663179363,448.0172137185391L461.48896534765163,454.8490915887487L459.7832732211018,453.88538868493833L457.3731606233928,456.7109738591189L454.4810020489176,455.58571613528784L454.23728147964266,457.4252530267968L456.30409758732867,458.4946233303144L454.61588109351396,461.43406312445313L456.8153478094014,462.33274790738506L455.5433797758169,463.92135454042364L461.09382839005366,464.8863723170307L459.9824250625993,467.542518694313L461.27046129540895,469.616975490645L462.7439268930061,468.6152183305894L462.6307457816715,472.5198632125321L468.5007990885333,471.9872105542963L470.8882754639758,475.0381942550175L469.64938211784784,477.23795361452903L475.9275911422633,476.4482663703084L478.80884210704653,481.5131228523105L469.5591890871583,481.354008921061L467.8617069894094,483.14163943491076L456.446013799467,478.6050693319694L452.1819594122808,480.7360710907842L414.0835553317215,479.67426854802216Z" stroke="#FFFFFF" stroke-dasharray="1, 0" stroke-width="1"></path><text x="432.76598891895804" y="449.8451104563526" title="Ouachita" class="hint " style="">Ouachita</text></a><a id="s13" rel="nofollow " title="Pike" class="hint   "><path d="M318.1697765734584,352.9308832805327L318.3362055858752,342.68744858690843L371.9037113617446,344.0008701290417L371.7019792254814,356.4256134628504L369.22559996673453,356.3637461215603L369.14021566719975,361.990802069804L376.04872033131187,362.7568073495322L374.06048592786783,365.29742068847554L375.57828568099194,367.63293038063784L374.5944896583351,369.9015095989498L376.00978133756826,371.4365681617501L374.1377774847265,371.973955127527L375.9697867686914,373.8241560968081L375.984447534408,381.1134936971366L384.60439134523085,397.98997418292765L378.8884520075826,399.5613155782885L373.03751633921456,397.43805420696754L366.08432566120064,400.3772349237861L365.7712889916156,398.7433613466028L355.80454859899055,398.0963109665372L352.20738312272806,394.7413000378492L340.15095582789945,391.3652619149034L331.50685107517666,391.06106776061006L331.78294261515384,366.28807956449054L319.45382507799377,365.9059759798629L319.6299888388462,355.0562269074844Z" stroke="#FFFFFF" stroke-dasharray="1, 0" stroke-width="1"></path><text x="342.10778952281305" y="369.12599192267083" title="Pike" class="hint " style="">Pike</text></a><a id="s14" rel="nofollow " title="Prairie" class="hint   "><path d="M568.3592621136099,260.62543343385914L568.9970640653519,243.91599376533213L580.9763170894466,241.05471169340126L586.1656417225486,242.912454137846L587.7168680215077,246.21757808922757L593.9903856008932,246.38644052512336L594.1188139085712,236.87966065931778L608.0630786832153,237.18497201729042L610.3032436847352,240.26243794445327L607.0504302736272,240.33509034948383L606.9112116423812,241.9602654527007L619.9501448124829,242.56846593203045L619.4403020239188,263.9963576875434L617.2662863973128,264.3801880650972L622.2826139949566,267.80193063242314L619.8852855849523,268.8119198972963L620.4138941536366,271.96370070576086L618.3815601669166,273.8102680967031L618.6597628571581,297.73016191593524L610.1895934288987,297.50670525517125L610.1223884788533,299.58438970288535L610.0943570948039,305.8240880984413L618.3897701957194,308.1514971955048L618.3014537430417,312.33537957311546L592.8962233339198,311.68448275279934L592.7682641707456,324.14643532513674L583.0901649335501,323.94581533158816L583.4340478542026,319.4816411492484L588.3963065478838,313.8184931276792L584.615822857098,309.9982514883468L587.3827198492909,302.17431768686856L580.4170968419471,296.8652599116285L581.2525259155518,261.50530253342095Z" stroke="#FFFFFF" stroke-dasharray="1, 0" stroke-width="1"></path><text x="588.7629418494396" y="274.2773250401621" title="Prairie" class="hint " style="">Prairie</text></a><a id="s15" rel="nofollow " title="Sevier" class="hint   "><path d="M254.77334598063953,400.6717691505464L255.59735555287762,365.4285774639766L299.20331989488477,365.2387187035001L300.02924879230295,372.3745704869716L298.62498200889104,373.11270496861107L301.32866177931055,374.52040493063305L299.56350558701433,381.20199633638913L302.1626834194053,382.6020920031251L300.4912388415696,387.4687303842493L304.0081806078292,396.81455072938206L302.60954355845206,402.84826643501583L304.54664121107544,408.42474236821454L308.46951025849967,410.34773910341846L308.5220544428289,413.4516891559715L313.93246342293924,419.2493999855842L315.5850249345317,427.4953616556122L305.85520251588923,427.1775482655621L305.96509961570246,423.1143587464285L296.6175126808266,421.74239406908146L294.4269597104926,423.3608781660023L290.6826001464342,421.18831439074347L288.927295988698,422.582074137149L288.89504230412194,418.9042668422944L285.5821783966394,420.2096510646097L284.8561772783446,418.26747383284874L283.7305823296756,420.4169920402892L277.9575246487957,416.4903176023645L275.21818989615076,417.5578003799037L275.2872714242094,413.12291392430507L272.40637231780465,412.9390331479135L271.0574645857373,408.97177941814334L267.0944836833114,409.6407075664738L268.3448710697621,408.27159015068537L264.99177802115173,406.9733915281031L265.62864168388705,404.35791888543645L263.83979369419285,402.8129291701998L265.8035152973557,400.8293528594868L261.42651437108816,400.2815217252801L262.2656966007148,402.77306861101715Z" stroke="#FFFFFF" stroke-dasharray="1, 0" stroke-width="1"></path><text x="273.43509887944737" y="392.7198383858809" title="Sevier" class="hint " style="">Sevier</text></a><a id="s16" rel="nofollow " title="Woodruff" class="hint   "><path d="M606.4943767515229,240.989514849045L610.3032436847352,240.26243794445327L607.6284163012451,237.85949550919304L608.3683744685009,235.3621592228319L609.6683738861379,237.34851815507227L609.5025313043479,235.54537078001977L612.8526921998155,234.79688042362523L610.4810494513486,234.89064146685087L609.6419845078481,230.00130425868792L612.4084123555344,230.31640464142492L608.6710899590207,226.12704009388563L613.2063098689036,224.5681064074397L611.4776296617101,223.93041164176248L614.9785032287446,219.34139617843994L616.6970968291253,222.60411297365135L618.36748583183,221.8883771346782L616.306768602682,218.2451503143766L618.2388229518983,218.1475225803415L617.0230349725398,216.0160190971219L619.0351957456328,212.02908196854605L616.7399062650188,213.87378458053627L614.308682164678,211.98526977987058L614.032356052448,206.27735755439153L611.3095586435343,207.52475670334934L612.7866601110272,202.314684069941L610.4439870356159,200.3138601025521L613.0059851661485,198.73334512111524L611.1553273881927,197.24711105697952L614.4695987291857,198.1534862213266L612.6880224792858,196.1717954327105L614.8125433608316,194.62855207895882L617.5998481389006,196.06765310202445L615.6774112519938,193.48393368823236L619.3499917071031,191.432085157463L619.7292950377268,188.1938577915198L621.5758478012835,190.97993901524478L621.569983494996,186.11472688447702L632.949669844339,185.9887549512514L633.1105864088468,198.69192758850477L657.9485038277912,199.1672136588286L657.2861890757722,249.85109193491098L634.7598639089192,249.38559884477036L634.683627927192,252.1646804552911L628.2366441678446,252.1344750331582L628.0397207627361,262.52841968271423L619.3875232673372,262.4879429544717L619.9501448124829,242.56846593203045Z" stroke="#FFFFFF" stroke-dasharray="1, 0" stroke-width="1"></path><text x="625.087872463303" y="223.18450430388756" title="Woodruff" class="hint " style="">Woodruff</text></a><a id="s17" rel="nofollow " title="Ashley" class="hint   "><path d="M528.4865535229469,519.226124481138L532.6274574781119,512.6255561082135L529.1983630200252,510.1625815758489L530.3068341943394,503.69536048220016L540.1476092879252,496.9902204370437L540.4388307381223,493.97753942750023L545.1902089777354,492.94382426295124L545.1515045562423,490.41697170658335L547.9632048484636,490.60796318150824L546.5679690967331,484.15526282832525L548.6903788280147,483.839629038197L550.0025760027256,479.8402866203578L546.4816465081917,477.1568939604822L608.9713424409006,478.4549076102412L608.6159594459541,532.1462342655259L537.2233143150002,531.8310716225624L535.632093447166,528.6007076147862L532.6051731142225,528.5005407738645L531.9116602527561,523.1556830529189L530.224382047948,523.1870338490353Z" stroke="#FFFFFF" stroke-dasharray="1, 0" stroke-width="1"></path><text x="563.477031519694" y="506.1938567089778" title="Ashley" class="hint " style="">Ashley</text></a><a id="s18" rel="nofollow " title="Benton" class="hint   "><path d="M238.29288556238953,33.29757929148309L326.38354728928334,33.388856822116395L326.30028538159195,49.776868706677305L324.55823455606424,48.639695284824484L323.59801304468056,51.013861368650396L326.3744102130554,51.193768377578635L326.2356607263123,57.13142773236905L328.02908287491164,57.42014142733842L327.37321885980555,59.40570438192117L327.67945293409775,59.78912155311809L328.42762113015624,57.910049766793236L332.38309572053504,61.40023456900599L326.1128621526682,61.271138540820175L326.0464782055042,71.83614706866047L314.0119834161883,72.75174329794481L313.8878946951604,76.3391174807557L309.6857673823629,74.58867489329623L310.3544155851723,72.43099493428599L307.81388081564774,73.62975656467097L308.6964589117956,75.69592436501443L271.6335740353438,74.75832349391021L271.2975492851165,85.28975533053563L265.0220378415902,85.23993925783998L264.8825846380928,91.51171180223628L245.9925620181375,91.0995717338501Z" stroke="#FFFFFF" stroke-dasharray="1, 0" stroke-width="1"></path><text x="271.82092041168494" y="56.69257181059624" title="Benton" class="hint " style="">Benton</text></a><a id="s19" rel="nofollow " title="Calhoun" class="hint   "><path d="M454.29850483727614,456.70900376400186L457.3731606233928,456.7109738591189L459.9827769209751,453.8420364445319L461.2988445378369,455.27159358648805L462.00467244250467,449.4750541259282L459.0971493855577,445.9731542800655L460.129971008771,441.8337033269363L468.7618780044186,440.2155737125049L470.8254101005832,435.6938389895686L474.9992714570785,433.1226473235547L476.9442272801257,420.27034348172947L506.20254149186167,421.4175139566869L505.234696382302,428.63761532083845L507.78496590026407,437.1771223585092L506.5569801638271,448.36461608842L508.8431213266349,462.8797470633099L505.2731662315441,474.880260528641L501.17213955912985,480.17540590512726L500.8772822390338,488.7731430093172L504.22756042062565,491.09532174948254L501.04687797684437,493.7952987492763L493.12091617199076,494.54865488810447L489.7570327998137,491.61675849336825L491.3752294765659,488.10898087604346L483.7909221559762,488.55756094369826L482.9095169210841,483.15104732482723L477.2796655997249,480.69267382764065L476.2151767225632,476.59550245108585L472.6259867028507,475.62003032135453L469.8436079420626,477.4117313364277L470.8882754639758,475.0381942550175L468.715784557005,472.13295450358055L462.6307457816715,472.5198632125321L462.7439268930061,468.6152183305894L461.27046129540895,469.616975490645L459.9824250625993,467.542518694313L461.09382839005366,464.8863723170307L455.5433797758169,463.92135454042364L456.8153478094014,462.33274790738506L454.61588109351396,461.43406312445313L456.30409758732867,458.4946233303144Z" stroke="#FFFFFF" stroke-dasharray="1, 0" stroke-width="1"></path><text x="477.3128325020055" y="454.67784668254046" title="Calhoun" class="hint " style="">Calhoun</text></a><a id="s20" rel="nofollow " title="Faulkner" class="hint   "><path d="M475.148224836762,249.98754334017303L481.3544201799773,242.10182353440632L480.309987230316,233.2717958525509L484.17010820047426,233.56616113804648L486.0029384873178,230.04662645773715L486.68225972756954,224.92926954921586L483.32072207790725,222.81321378814664L484.45804563914953,218.87884927742198L482.99583950962415,217.8465943003648L488.42536612823005,210.5066194358933L488.85873836281644,197.13420471983954L532.2553086011576,197.94926314644363L531.0973426817864,248.2516426942293L518.640969698205,247.9259984262062L518.365112730477,260.3676540559636L496.15311438059234,259.77868847239733L496.3195433930091,262.388967469381L492.51255303780863,264.1206320108395L494.17895431223724,272.56949021449327L490.9420918142291,269.93088380745576L492.33603741857905,264.34572392753125L489.4557247428038,257.7145721167881L479.3616116176295,255.95863562184422Z" stroke="#FFFFFF" stroke-dasharray="1, 0" stroke-width="1"></path><text x="497.4445980785409" y="228.82782427851393" title="Faulkner" class="hint " style="">Faulkner</text></a><a id="s21" rel="nofollow " title="Dallas" class="hint   "><path d="M432.6673073820248,395.8128329859901L440.57825656278465,394.6838735856136L441.37943808767386,370.24663501692976L486.6670125312248,371.8353592152007L495.31099999782145,374.5712688981084L505.8305099010322,383.8798481843369L490.0083769672615,384.2449570587023L489.5468560624986,396.1813978821947L495.89625776523553,400.721767861186L499.04632853019893,408.6014866506157L505.2178071801982,414.8478954888442L506.1256017933788,421.27708739864374L440.5292309622282,419.17712752215084L440.51093432661264,415.7946593866209L442.53212613138703,414.26610364508815L439.0608086680377,411.76944624977114L438.27897935389683,407.4067522212945L440.56429951382233,405.8727520393113L437.7343025859859,401.3927093235825L435.82347702552806,401.93822813493534L435.2352871049711,396.8255814641343Z" stroke="#FFFFFF" stroke-dasharray="1, 0" stroke-width="1"></path><text x="459.67040566434315" y="396.5304153541337" title="Dallas" class="hint " style="">Dallas</text></a><a id="s22" rel="nofollow " title="Arkansas" class="hint   "><path d="M579.330089028645,350.60002118522425L579.906081192124,323.83910118754375L592.7682641707456,324.14643532513674L592.8962233339198,311.68448275279934L628.4275859805384,312.58020437164487L627.4037953890061,316.6958932216139L631.8855328255545,317.4858884330124L633.0474864732014,323.1277913346594L638.0117390310206,323.65412773171647L637.1045308484681,329.5965953001705L641.9227621797454,328.2625230759486L644.660806785007,332.7110282559961L643.1587233727323,333.8811115530016L646.6490411884511,335.37276525538346L649.9755102865188,342.21764432438613L656.3360541712,345.02880627663035L655.6764370000719,351.50587498789537L654.4342596424235,350.05897460165943L653.4721615530266,352.3154209511331L655.5039091091171,361.6135253610146L651.582916639703,365.47494281236595L653.392524273655,371.9682866145231L649.630923649112,373.7252554419365L648.112889323736,377.2666085497658L645.8254580135458,376.7046690686466L645.0367088179846,380.2448587309573L642.8739526594491,378.97592115921L639.830143124399,382.1298894902129L639.7144990044258,387.3218215852057L647.0522708887238,398.6525840868544L644.7422033562657,401.1516779783442L642.6616647718715,398.15428674252325L637.9385524885615,398.6711072281869L635.8534397452631,395.4286988386948L632.6583311080171,398.5413032405413L629.8609397231339,396.0152197897678L621.172969959388,398.4061246144329L624.8467232757544,392.30496098175354L621.9777873541743,391.80258057426636L617.3924862686022,395.1070689833523L612.0361461924554,389.4380971505461L610.6559230648186,374.44956339041437L604.7805918822983,374.3027783856478L604.3855722108251,371.0805643570329L602.1864573533117,372.0850574406186L600.4821726602704,361.48899306588373L596.7870732690208,360.3722576635091L592.7521959715191,362.2289341318083L592.3492008434973,359.52211843304303L579.1308199010227,359.1803717996654Z" stroke="#FFFFFF" stroke-dasharray="1, 0" stroke-width="1"></path><text x="609.6386469789728" y="350.9686665498194" title="Arkansas" class="hint " style="">Arkansas</text></a><a id="s23" rel="nofollow " title="Conway" class="hint   "><path d="M423.26764540732347,234.39000039127222L430.2673986772561,233.2299274159477L436.88608932467787,225.90867279017039L445.0487345312631,225.23561092643467L445.56197861747523,183.52590848297496L489.116885125557,184.61924368428117L488.42536612823005,210.5066194358933L482.99583950962415,217.8465943003648L484.45804563914953,218.87884927742198L483.32072207790725,222.81321378814664L486.68225972756954,224.92926954921586L484.17010820047426,233.56616113804648L481.4440267800387,232.0267192819092L474.261659012338,238.30982505832162L469.7129511979947,239.05981028210317L472.4731628810209,235.96181516125762L470.66543182508076,234.11916928789378L466.11543386335643,238.76185707316927L461.4746564403122,239.79140440222454L423.2892260544586,238.9809874204093L425.0637651368147,236.9904623697612Z" stroke="#FFFFFF" stroke-dasharray="1, 0" stroke-width="1"></path><text x="454.15398499288" y="212.33909702893322" title="Conway" class="hint " style="">Conway</text></a><a id="s24" rel="nofollow " title="Hempstead" class="hint   "><path d="M314.38788544916406,428.9476329621584L330.5244624860279,427.9587363883329L331.50685107517666,391.06106776061006L340.15095582789945,391.3652619149034L352.20738312272806,394.7413000378492L355.80454859899055,398.0963109665372L365.7712889916156,398.7433613466028L366.08432566120064,400.3772349237861L374.5298650030554,397.9508046786732L371.3816708161021,466.21367422510593L343.2599764488573,465.3857270427834L339.68509533648285,460.8896717837033L340.6379278219474,458.12513837853385L338.50085732494654,460.196416761436L339.26040227520116,462.685508212533L337.4168989509153,463.05823028474697L334.66829859433756,457.54725041615984L336.2638590488232,455.2741268653108L333.495437336996,456.9631433993318L334.6473043778301,454.08455364667316L330.9946625640955,453.0435111928882L332.1012571603965,446.8914321874172L330.29376067670864,447.78570049924656L322.99844636992884,443.19268648157504L320.6843911091951,444.7418204757141L322.2358519804052,442.10971067289483L320.7343549987586,439.7008099178056L317.9147965361135,442.06673903851515L314.78642370440866,438.9522285426374L314.65717439385026,434.1053417691983L316.46009671863294,431.68385006442895L314.9057036942818,432.7195362475268Z" stroke="#FFFFFF" stroke-dasharray="1, 0" stroke-width="1"></path><text x="340.75037021588577" y="429.7682331509498" title="Hempstead" class="hint " style="">Hempstead</text></a><a id="s25" rel="nofollow " title="Desha" class="hint   "><path d="M597.2478904570298,420.9605218439201L598.2633537336346,395.6011081347424L607.9904785713852,395.74268274683254L608.0492389203791,391.6395959917518L613.095357193959,392.52891033457945L613.1531792539449,390.27168337617604L617.3924862686022,395.1070689833523L624.7294371500193,392.13406062633385L624.4426725725998,395.2207860631497L620.69256598838,397.4749627894653L621.5963728732863,398.64834214207985L629.8609397231339,396.0152197897678L632.6583311080171,398.5413032405413L635.8534397452631,395.4286988386948L637.9385524885615,398.6711072281869L642.6616647718715,398.15428674252325L644.8626562073964,401.1453163818642L647.0620056371595,398.48926813330763L639.5239090501095,385.2142325429304L640.891347990042,380.63896680749167L642.8739526594491,378.97592115921L645.0367088179846,380.2448587309573L646.0463077883037,376.5213637246634L667.89194182756,375.47600183754275L671.8480825885299,379.0194014878725L677.6361528935049,380.0541018046988L675.2321391743344,388.5186938337001L664.0280301552139,389.6255918805109L667.1243838745936,395.1561485017055L666.4108150856277,397.5067804420996L662.6018308662892,397.0678308189281L660.3989628527524,391.87346120034L652.3025843072082,395.808165744882L652.751321024265,398.5171239116371L661.4043395225449,402.30985662026796L654.0513204419026,412.46943242385805L657.1197600633559,418.41174688274714L662.601948152414,420.6442302745281L663.8525701111162,423.3217909918603L659.8834903301517,425.80294091511314L656.294417596564,423.58636777112224L646.5051311121747,423.41393492214956L645.4182405849974,430.110057860099L647.0930864604793,432.6779413012555L655.5901144115323,432.5975710002458L658.9246762522762,437.7675378624517L652.2696269058765,440.6924117760891L643.7471478655389,433.6860497613907L636.7446970147153,435.68411240407113L636.4595744430567,439.6486700170899L642.5388661982288,442.0480005404406L647.3151090964943,447.92624250560493L644.7696483096888,451.20880165416565L633.9284225635902,454.20658455862394L633.7902595074756,460.4369784774817L624.5265321524998,460.2342598261148L623.5389829738197,458.127530358337L621.469351999117,460.1094757433111L621.6183053787986,453.8939746622573L609.4325114872854,453.8859517000301L609.7976231966945,423.3445095452835L597.2101243245434,422.9255499748333Z" stroke="#FFFFFF" stroke-dasharray="1, 0" stroke-width="1"></path><text x="623.6370116791845" y="415.97100100535204" title="Desha" class="hint " style="">Desha</text></a><a id="s26" rel="nofollow " title="Pulaski" class="hint   "><path d="M456.78027925780725,267.363312368474L456.93849824142444,262.70062300229256L469.10529178056777,262.874826116401L469.30491276656585,258.704254416426L481.45270595334296,259.12330970689436L481.4847250656667,256.6818768994144L487.4666693364811,256.7816160141274L492.1969360734579,263.41443890171286L490.9420918142291,269.93088380745576L494.17895431223724,272.56949021449327L492.51255303780863,264.1206320108395L496.3195433930091,262.388967469381L496.15311438059234,259.77868847239733L518.365112730477,260.3676540559636L518.640969698205,247.9259984262062L537.0239279012521,248.31006867616907L536.1649243163756,288.1913462330058L532.0623729243266,303.86209167202014L541.8638571657925,304.10495394159443L541.8102574063319,322.88830695060733L516.4973311781637,322.29718814717035L516.6860445544698,309.85551333846706L504.4249529702365,309.6560759158501L504.67383412904337,303.48424849645926L493.1186877356022,303.29368325103223L493.3395375103596,296.86354858355844L480.5907702153222,294.38314576297944L480.83789208224334,284.0704298124074L468.5852450990633,283.6646835952197L468.94601722182097,271.21696039123253L456.72644492609743,270.9269694082068Z" stroke="#FFFFFF" stroke-dasharray="1, 0" stroke-width="1"></path><text x="499.7999420925527" y="282.88034672851427" title="Pulaski" class="hint " style="">Pulaski</text></a><a id="s27" rel="nofollow " title="Lafayette" class="hint   "><path d="M327.1631594086166,519.7999865609117L328.84269672912706,512.3067323210598L331.79807252537375,514.4213769205808L331.47870240499924,511.5819237450951L334.12197982066755,509.96054560032826L336.5220058115642,513.3330744354162L337.36294733307614,509.7746191279557L341.9449644071283,511.20003020946206L338.72510839735014,507.9802209709942L342.48928931665887,508.8876816983675L340.7044290552376,504.4967481599542L346.05349739158964,501.1137989292556L342.7928258100592,501.88619338260105L345.71184290732754,497.9432331877315L342.3488978241535,494.11572627874193L343.7940974654507,492.35565637977106L345.7015217282624,494.5643668505836L347.8519628435947,493.5997272141176L346.0359044727302,489.14534997867304L349.97929859215856,486.4304493200889L345.0185646181121,485.0435709486428L345.988638164059,480.78494549382594L349.4199610585342,479.88242282789815L342.18880226252804,474.3359074481341L345.06934951055564,471.2248724522706L340.5734204527939,472.74711189823483L342.4972647732088,471.29472731843725L341.29144611453694,468.69872466888773L343.2599764488573,465.3857270427834L371.3816708161021,466.21367422510593L371.278810883834,470.26991489819557L385.16419802335986,470.65842887967574L379.598736785028,482.1940733641104L376.77917832238154,495.83346211786284L371.53848236620934,496.5597625656319L370.5110587723548,530.3933229799995L333.6367182779836,530.2620191687338Z" stroke="#FFFFFF" stroke-dasharray="1, 0" stroke-width="1"></path><text x="347.86829261107505" y="499.1853322194572" title="Lafayette" class="hint " style="">Lafayette</text></a><a id="s28" rel="nofollow " title="Lonoke" class="hint   "><path d="M531.1502387244914,246.08022338718456L531.499399520802,240.3567283552802L543.7970843762646,239.06783585276207L556.7867573735602,246.0267992774052L568.4917954356897,245.642940596259L568.35128665706,261.2308064733925L581.2525259155518,261.50530253342095L580.4170968419471,296.8652599116285L587.3827198492909,302.17431768686856L584.615822857098,309.9982514883468L588.3963065478838,313.8184931276792L583.4340478542026,319.4816411492484L583.4020287418789,323.800968434065L541.8102574063319,322.88830695060733L541.8638571657925,304.10495394159443L532.0623729243266,303.86209167202014L536.1649243163756,288.1913462330058L537.0396442420997,249.2123407719555L531.0973426817864,248.2516426942293Z" stroke="#FFFFFF" stroke-dasharray="1, 0" stroke-width="1"></path><text x="549.2969036328292" y="284.89841006563415" title="Lonoke" class="hint " style="">Lonoke</text></a><a id="s29" rel="nofollow " title="White" class="hint   "><path d="M531.2737410148898,240.3786529163517L532.2553086011576,197.94926314644363L562.6916446597656,198.58752023616762L562.9044016918469,187.3424136317335L565.3376196563245,184.73543958134633L569.2717481718205,184.58799873989938L569.4942399523375,173.27380271506172L594.3680469257579,173.802304126566L594.038824770822,186.4975291899018L621.88606960385,186.95891945032145L621.2194152651773,191.3586953524673L619.7292950377268,188.1938577915198L619.3499917071031,191.432085157463L615.6774112519938,193.48393368823236L617.4118384793469,196.26198423762162L615.1583028594955,194.56640375293227L612.6880224792858,196.1717954327105L614.4695987291857,198.1534862213266L611.1553273881927,197.24711105697952L613.0059851661485,198.73334512111524L610.4439870356159,200.3138601025521L612.7866601110272,202.314684069941L611.3095586435343,207.52475670334934L614.032356052448,206.27735755439153L614.308682164678,211.98526977987058L617.1135798616078,213.9669958516988L619.1076785713362,212.5739194425605L617.0230349725398,216.0160190971219L618.2388229518983,218.1475225803415L616.306768602682,218.2451503143766L618.0787273902724,219.15434109212129L616.8152039577394,220.97121806158066L618.1247035515598,222.87391977391508L614.9785032287446,219.34139617843994L611.4776296617101,223.93041164176248L613.2063098689036,224.5681064074397L608.3829179480913,226.7552895889803L612.4084123555344,230.31640464142492L609.6419845078481,230.00130425868792L610.4810494513486,234.89064146685087L612.8526921998155,234.79688042362523L609.5025313043479,235.54537078001977L609.6683738861379,237.34851815507227L608.3683744685009,235.3621592228319L608.0630786832153,237.18497201729042L594.1188139085712,236.87966065931778L593.9903856008932,246.38644052512336L591.2969097234122,247.02992874059237L580.9763170894466,241.05471169340126L560.0025083689347,246.60557135317686L543.7970843762646,239.06783585276207Z" stroke="#FFFFFF" stroke-dasharray="1, 0" stroke-width="1"></path><text x="566.1593523742986" y="213.07174624479077" title="White" class="hint " style="">White</text></a><a id="s30" rel="nofollow " title="Chicot" class="hint   "><path d="M608.6139716157877,509.14886550297524L609.4325114872854,453.8859517000301L621.6183053787986,453.8939746622573L621.469351999117,460.1094757433111L623.5389829738197,458.127530358337L624.5265321524998,460.2342598261148L633.7902595074756,460.4369784774817L633.9284225635902,454.20658455862394L635.5380599473451,454.2140520407538L641.1627480849907,462.5144741895592L635.0310294316155,471.4296571141049L641.8204886781054,470.77382807926097L642.9804484616175,463.0876256155916L648.5792189596536,468.44145583321006L647.1462170754367,472.6817625243466L638.5389401661951,474.90653612130336L638.2057302829849,476.6240222117931L642.4450372976389,479.5707519072612L649.2715589598624,477.8719423596949L651.8750763789067,470.3969845091988L655.5975034374542,469.8434348629389L655.3098005710281,473.9219355450432L645.9341822521014,484.07031770325193L646.0050230720444,491.0114070876507L650.1655138102074,499.11115128981146L653.4040183139759,493.28910717974577L657.4980078188487,494.5054468873659L654.3227205368512,501.1439441158309L651.8580698906749,502.0537330457946L652.074931937158,513.4267814903205L647.1727237398527,514.9049893080019L641.0734933433064,513.1415960646491L638.9485033172573,515.4623874616473L639.1376858380668,518.0097115909784L648.400005759534,524.6956965889858L647.474266369115,528.279359433719L643.1364390088429,532.3984730791954L608.6159594459541,532.1462342655259Z" stroke="#FFFFFF" stroke-dasharray="1, 0" stroke-width="1"></path><text x="619.0767611127774" y="495.4621071445578" title="Chicot" class="hint " style="">Chicot</text></a><a id="s31" rel="nofollow " title="Grant" class="hint   "><path d="M466.0278211274317,358.407469130294L466.8978496081272,333.5721809418528L472.5484605737415,333.96299885523877L472.2405844936884,331.9317144811075L476.1978183759561,327.6843311687653L497.86502267180686,328.21416369976305L498.06980424733774,321.9597790190155L520.928049150019,322.4026354261596L520.3574521483215,359.6795824583114L518.0537180666547,359.61971800136234L517.9566051545462,383.50057055129855L505.8305099010322,383.8798481843369L501.43532962527433,381.69859023231857L497.764391175926,375.980355790407L487.6638273138374,373.4976958194302L487.4274957704847,371.89672140701987L465.7634582000278,371.13314361077664Z" stroke="#FFFFFF" stroke-dasharray="1, 0" stroke-width="1"></path><text x="486.5593437553277" y="351.2623283231674" title="Grant" class="hint " style="">Grant</text></a><a id="s32" rel="nofollow " title="Jefferson" class="hint   "><path d="M518.0689652630008,375.21732166915535L518.0537180666547,359.61971800136234L520.3574521483215,359.6795824583114L520.928049150019,322.4026354261596L579.906081192124,323.83910118754375L579.1308199010227,359.1803717996654L592.3492008434973,359.52211843304303L592.7521959715191,362.2289341318083L599.6705526701917,360.70304803680665L602.1864573533117,372.0850574406186L604.5802671795436,371.2241292670833L604.9754041371416,374.3366411091092L609.6092616787673,373.3660606640324L611.999201062848,379.8487550253358L603.5922488563615,381.9370386201108L597.8773650938442,377.31859405699106L591.9690765099926,379.85526952889995L591.226186189594,377.05597286517695L593.9084025990064,373.71604545399714L589.3085580338438,374.01628741289096L581.05595436882,368.0409207980765L577.315113388534,367.6645437559846L577.3914666563874,383.10386644710707L575.2545134455122,383.1225551575735L575.2375069572809,379.01047882742205L569.0248608771503,378.9072304163483L550.7670469702612,379.10126304678033L550.7471083288865,383.24162421260644L517.9566051545462,383.50057055129855Z" stroke="#FFFFFF" stroke-dasharray="1, 0" stroke-width="1"></path><text x="544.2626277056078" y="354.1910835166943" title="Jefferson" class="hint " style="">Jefferson</text></a><a id="s33" rel="nofollow " title="Phillips" class="hint   "><path d="M648.8360755750136,375.1878533537665L653.392524273655,371.9682866145231L651.582916639703,365.47494281236595L655.5039091091171,361.6135253610146L653.3216834537102,356.920966326541L655.2729727275469,356.1978662780248L653.4721615530266,352.3154209511331L654.4342596424235,350.05897460165943L655.7923156922975,351.19512988393853L656.0141037560616,344.6039784202021L662.2986462312665,344.63977192328093L662.5606634361552,325.7273729796325L656.1902675169135,325.5165365490211L656.5252366920095,300.61646567341086L711.4711673116121,301.2340060850074L711.0273956038532,304.8910865764601L716.4545764999425,314.1336344010633L710.8258980398423,322.63999510339L713.457446842935,331.3980662181784L702.6627836887556,339.04900031355555L702.328166372035,347.6157960151395L698.6062084579921,346.59731393808124L700.5864674048862,339.70180910554063L691.2092070801987,340.249578148434L689.8563116198584,343.1455857875317L692.7474146192003,349.4816986740607L690.1573851046173,352.56694675406743L682.7563959985478,353.5426236466219L680.464507815579,363.06526626464984L674.9811468652633,360.5335403918116L673.5124899988209,357.6803445093565L670.073426220049,358.78612391554907L670.510199752282,361.8889668986467L675.7641490406636,366.5464001925129L684.6204243948378,366.7183745534394L684.2094538102674,371.09672080998826L679.800316485549,372.84942474692707L673.1690762226731,368.8815243207446L667.9744737139117,372.7095636312224L667.8724347845241,375.4958503390235Z" stroke="#FFFFFF" stroke-dasharray="1, 0" stroke-width="1"></path><text x="671.3766627478716" y="331.31313528534173" title="Phillips" class="hint " style="">Phillips</text></a><a id="s34" rel="nofollow " title="Drew" class="hint   "><path d="M543.5555922433796,468.8273570504016L545.3595701432937,466.63114187801057L544.4054475104485,458.7127070489041L548.133856161407,458.6728894745902L548.1462884907346,421.73971264430565L609.7976231966945,423.3445095452835L608.9713424409006,478.4549076102412L546.4816465081917,477.1568939604822L545.0835958894409,474.68480768665086L546.2477779734786,471.7100533209741Z" stroke="#FFFFFF" stroke-dasharray="1, 0" stroke-width="1"></path><text x="569.2047411351178" y="450.4017010918739" title="Drew" class="hint " style="">Drew</text></a><a id="s35" rel="nofollow " title="Fulton" class="hint   "><path d="M526.6680321434396,65.89453899607634L527.7008377514112,33.41144227264522L609.8352315726934,33.567839236151485L609.3153426476779,57.193014780188605L596.2462669432612,56.91128406121061L596.2214022846056,69.63751349275935L526.6546615251068,67.9843681582015Z" stroke="#FFFFFF" stroke-dasharray="1, 0" stroke-width="1"></path><text x="557.6022547465236" y="50.51509075332152" title="Fulton" class="hint " style="">Fulton</text></a><a id="s36" rel="nofollow " title="Sharp" class="hint   "><path d="M579.2478714545041,113.30912269040073L579.4160597588079,105.79766447848942L582.5928717604384,105.85304491278202L583.5468771071587,75.65377032611013L581.4239982313725,75.56655457727447L581.5187654209672,69.14941993785305L596.2214022846056,69.63751349275935L596.2462669432612,56.91128406121061L609.3153426476779,57.193014780188605L609.8352315726934,33.567839236151485L614.8629763948966,33.63346087811624L615.8600257497615,36.16452157275944L620.1528152377514,37.25846458083652L621.6658062597207,44.75262852428568L626.404400311626,44.82550599650949L626.2404343078506,49.287482889900275L630.3277385035553,51.50375529149733L630.2366071838592,57.86171502601974L632.2865340894386,57.86273413412255L632.1991559257676,70.57960857776834L623.7732033669117,70.37717670259917L623.6481763568772,72.42648752653713L621.5838232578335,72.3972620329414L620.7163750719042,121.77669910730765L608.1142154340346,121.50510157330336L608.2877989001208,115.08782295719084Z" stroke="#FFFFFF" stroke-dasharray="1, 0" stroke-width="1"></path><text x="597.4730187754673" y="82.24501838051823" title="Sharp" class="hint " style="">Sharp</text></a><a id="s37" rel="nofollow " title="Newton" class="hint   "><path d="M366.62665670659317,123.08378081596038L368.69429381715827,123.15789594763828L368.82154926358,116.77123470804054L370.93985398046243,116.9092629155648L371.02500370774624,112.69901612822832L375.1796301396216,110.6422928919601L375.77732023636327,94.21812952903656L371.7191029998394,94.12002638840204L371.80026499884707,87.78405665291302L434.5329777840757,89.15717065110402L433.752321331192,145.77784062111095L367.1033075215764,144.36786288485382Z" stroke="#FFFFFF" stroke-dasharray="1, 0" stroke-width="1"></path><text x="393.29580231791437" y="117.49309075583292" title="Newton" class="hint " style="">Newton</text></a><a id="s38" rel="nofollow " title="Perry" class="hint   "><path d="M392.18975424095197,267.79921433761774L398.42961070225283,263.76711172841806L406.7573947738724,253.37999045079414L409.25570653813156,253.43724576433306L411.41142552912333,249.32732141537053L413.4838713708432,249.38975127953745L413.52327950909057,247.3278147161709L415.6153121338075,247.44066569318966L415.6580042835749,245.14977830361477L417.79976622560434,245.13101394899695L422.0305113530808,238.99402905784427L461.6158689356962,239.7878217805337L466.11543386335643,238.76185707316927L471.19028723774,234.02984669501893L472.4731628810209,235.96181516125762L469.61935686966035,238.70008708358455L471.3289194383583,239.0424692981187L479.25054165656,233.40413927321424L481.82016338526546,237.31325774390643L480.77702058298837,243.33307736835832L475.148224836762,249.98754334017303L476.8157989724482,254.03354323339136L481.4847250656667,256.6818768994144L481.45270595334296,259.12330970689436L469.30491276656585,258.704254416426L469.10529178056777,262.874826116401L456.93849824142444,262.70062300229256L456.72644492609743,270.9269694082068L458.5625592244628,270.9629864199851L458.46626731523475,274.5838482393174L448.0178328042193,270.69428541962134L419.37749918897816,270.3009418181009L419.22490993939937,282.6151323602289L394.289058605465,282.4293701874785L394.2305328287234,269.8862873859189L392.1661797296788,269.87199362526553Z" stroke="#FFFFFF" stroke-dasharray="1, 0" stroke-width="1"></path><text x="427.2066641242714" y="257.5393466755608" title="Perry" class="hint " style="">Perry</text></a><a id="s39" rel="nofollow " title="Pope" class="hint   "><path d="M392.99328148835593,201.59108579983058L393.33610883387564,182.52290982282375L401.813198143554,182.71329183978833L402.1020738712373,163.92713924309282L408.3616344016623,164.10643262793928L408.75430835061934,145.17567021997274L450.3544070010921,146.104629122995L449.9258434976605,171.1281299838738L445.70811713013836,171.09872259301665L445.0487345312631,225.23561092643467L426.82716203722566,226.1656341529233L424.6090468273428,227.40875368817524L424.23443494174853,232.07690920362438L420.0187024383663,232.93397637940052L417.1375687597106,230.09108793775067L418.5487554245401,223.96585598778347L413.36107279720045,224.80314352484584L406.52364352528366,212.38000446693331L399.1375497571835,210.26051861465112Z" stroke="#FFFFFF" stroke-dasharray="1, 0" stroke-width="1"></path><text x="415.0088881849688" y="185.754439934193" title="Pope" class="hint " style="">Pope</text></a><a id="s40" rel="nofollow " title="Baxter" class="hint   "><path d="M475.56869559751885,54.15140887731923L482.79434194561327,49.750935722636314L483.2689867463314,33.41506860708796L527.7008377514112,33.41144227264522L526.5760798208644,80.70896091313534L520.2408697393435,80.51746119031486L520.088045917511,86.56717998443219L522.40714448165,86.66215331531566L522.146886568647,97.33232080321795L509.56185070513357,97.07218442569774L509.29572848584303,109.69611083005111L496.73391527522745,109.42900928132622L497.33782153663105,86.38826782896285L495.2670177006703,86.36706539061197L495.31768530698946,84.25083452618765L497.4810278961527,82.94380642555461L489.13518176117213,77.84048668585001L491.5190222667161,74.40027039702818L489.44305784122207,72.84087076988635L490.051655547657,68.76588237309534L481.69912410350844,67.77127148246564L483.6756298943792,62.08920702973046L477.92028241848493,61.22485572891583L479.6237461086457,57.25649422415154L482.86553462393476,57.90102341518195L483.2406156540319,55.287883732208684L477.1820835431163,56.16812201121047Z" stroke="#FFFFFF" stroke-dasharray="1, 0" stroke-width="1"></path><text x="496.7947502989702" y="64.12255543912313" title="Baxter" class="hint " style="">Baxter</text></a><a id="s41" rel="nofollow " title="Boone" class="hint   "><path d="M392.5608475427748,35.766300033663356L393.6226621845435,33.4537600097965L445.16021888211526,33.506436551461775L445.08474137186386,38.373156541680146L441.5355459210268,34.54106086101001L440.86220627318744,89.37248060181719L392.76023395652146,88.29545458998291Z" stroke="#FFFFFF" stroke-dasharray="1, 0" stroke-width="1"></path><text x="408.12348355275805" y="60.98222896766714" title="Boone" class="hint " style="">Boone</text></a><a id="s42" rel="nofollow " title="Lee" class="hint   "><path d="M650.5999416199261,287.4416378941796L650.9795968089288,262.6222450603518L731.9845496945109,263.7199176817112L731.7351993911989,274.02560110970626L729.613727948924,272.6863858490469L728.492589873033,266.51405054955103L725.2272268464708,265.5978083592054L723.1377745165196,267.57275892065263L726.3084876396128,275.2607963004448L724.2378010897787,279.5723188603606L726.9846421544694,286.05641458004357L726.1894422219939,288.17464850791475L718.8906093314399,288.3236427577358L718.3427658381365,285.7292468940068L721.1409782258975,282.71579395904973L719.5327508698329,278.34857432269746L715.6733336164293,280.8020768659244L717.1046934948872,285.7316735638433L713.8047310612355,287.3575728225742L713.5581956249421,289.8718442256004L716.6864511705207,293.0492378110084L724.1669602698357,292.75778646329854L725.6496914713653,294.64788381859034L718.386278990783,303.07075935103967L714.9089799350199,301.30788763025157L716.7935334033155,296.6936980390901L714.7332853186713,293.1686409108079L710.8872386836001,297.01728189938694L711.4711673116121,301.2340060850074L656.5252366920095,300.61646567341086L656.8118839833028,287.9979651478334Z" stroke="#FFFFFF" stroke-dasharray="1, 0" stroke-width="1"></path><text x="679.0672915691938" y="281.1123995532918" title="Lee" class="hint " style="">Lee</text></a><a id="s43" rel="nofollow " title="Searcy" class="hint   "><path d="M433.93505311508306,134.12281646820884L434.5321567811966,89.22860231945378L447.1764221382027,89.42924741654952L447.06887076090425,95.75995049739504L497.06489672204907,96.82901756587853L496.45301500409414,136.53854084430077L471.4572304599128,136.21567353534556L471.29654846765607,146.68768229042962L433.752321331192,145.77784062111095Z" stroke="#FFFFFF" stroke-dasharray="1, 0" stroke-width="1"></path><text x="454.0968310634683" y="118.7488685813396" title="Searcy" class="hint " style="">Searcy</text></a><a id="s44" rel="nofollow " title="Yell" class="hint   "><path d="M344.93177288507013,273.88028390825275L345.1570795326038,230.66290484928777L350.25069868710716,230.82180961818267L350.28400794681465,228.75788707611082L365.89960001316877,229.157217862602L365.9672741077161,227.06832569494236L371.2811566063492,224.1326008180995L371.29546551368685,221.07255404950502L374.4399065446182,219.06346827432662L395.2069398254598,219.52715627827183L395.40233851093217,204.46580373977758L399.1375497571835,210.26051861465112L406.52364352528366,212.38000446693331L413.36107279720045,224.80314352484584L418.5487554245401,223.96585598778347L417.1375687597106,230.09108793775067L420.0187024383663,232.93397637940052L424.23443494174853,232.07690920362438L425.4845877559487,226.59403398228005L440.227219188464,225.5367789864922L436.3076341525566,226.3162788866175L430.2673986772561,233.2299274159477L423.26764540732347,234.39000039127222L425.0637651368147,236.9904623697612L422.003066399659,241.06904062147896L419.9149042170916,241.0296360270395L415.6153121338075,247.44066569318966L413.52327950909057,247.3278147161709L413.4838713708432,249.38975127953745L411.41142552912333,249.32732141537053L409.25570653813156,253.43724576433306L406.7573947738724,253.37999045079414L398.42961070225283,263.76711172841806L392.18975424095197,267.79921433761774L392.1661797296788,269.87199362526553L394.2305328287234,269.8862873859189L394.289058605465,282.4293701874785L381.7780302872916,282.54902363671954L381.7976170702891,286.68360333761393L344.73426304933355,286.4119778915883Z" stroke="#FFFFFF" stroke-dasharray="1, 0" stroke-width="1"></path><text x="370.7187229678967" y="249.69792639124225" title="Yell" class="hint " style="">Yell</text></a><a id="s45" rel="nofollow " title="Clay" class="hint   "><path d="M685.3429069293602,64.07686342834495L691.975085481241,65.1876108230017L692.0885011648265,45.91817455763703L688.6575301287298,44.016248219753834L689.7696371729385,36.66497717190941L687.9015931269805,33.42749147535142L762.0167177638391,33.510905221209214L763.6550876542155,45.75989936967653L770.4677695536029,47.68193330880331L772.3340263862815,50.40332163063067L770.2877353505996,59.13916795469231L772.3966571774235,61.913256695906966L770.9946188303988,65.04953718743127L766.4218673602804,67.3612127767301L765.0796449373806,72.62990069698208L757.5675313235042,76.70070984076119L742.2564685862967,76.8154203377162L742.3901747696323,68.29956935982409L685.2958751929414,67.17647060236413Z" stroke="#FFFFFF" stroke-dasharray="1, 0" stroke-width="1"></path><text x="721.926430617809" y="52.407091843919275" title="Clay" class="hint " style="">Clay</text></a><a id="s46" rel="nofollow " title="Cleburne" class="hint   "><path d="M515.7997133022968,191.5771365825649L517.118713072302,147.5796849253884L569.9792180822478,147.64555314882364L569.2717481718205,184.58799873989938L565.3376196563245,184.73543958134633L562.9044016918469,187.3424136317335L562.6916446597656,198.58752023616762L515.683248179445,197.8064486788835Z" stroke="#FFFFFF" stroke-dasharray="1, 0" stroke-width="1"></path><text x="533.2482467576876" y="172.3562588081086" title="Cleburne" class="hint " style="">Cleburne</text></a><a id="s47" rel="nofollow " title="Cross" class="hint   "><path d="M657.6667825537784,224.4962168194961L658.0133630553219,186.1511505139406L720.9726726354688,186.58174687935661L720.9039429657887,229.4545555132081L657.6098987827963,228.76305092346684Z" stroke="#FFFFFF" stroke-dasharray="1, 0" stroke-width="1"></path><text x="680.4107275430481" y="207.75617522764057" title="Cross" class="hint " style="">Cross</text></a><a id="s48" rel="nofollow " title="Garland" class="hint   "><path d="M380.3074968428391,334.38166730908506L381.7780302872916,282.54902363671954L431.64879466615093,282.5617313899047L430.39946285483256,301.8280668953248L442.64952954324826,302.1271346640051L442.47125463213206,308.3981181739855L450.5578984292424,308.49984248802866L450.44952604906257,312.5108449802419L452.4966380876235,312.5483019504736L452.2973689600012,320.85982409853295L438.00230138328834,320.5028754202267L438.19195304860114,328.7197939160051L434.15543374533854,328.61994965453505L434.132797523072,337.1233326124002L380.28016917554214,336.04340115191644Z" stroke="#FFFFFF" stroke-dasharray="1, 0" stroke-width="1"></path><text x="401.4539404043303" y="310.4476010499275" title="Garland" class="hint " style="">Garland</text></a><a id="s49" rel="nofollow " title="Marion" class="hint   "><path d="M440.9545104541394,82.95005286005289L441.5355459210268,34.54106086101001L445.08474137186386,38.373156541680146L445.16021888211526,33.506436551461775L483.2689867463314,33.41506860708796L482.79434194561327,49.750935722636314L475.572331467416,54.53908135005349L477.53030605041886,56.214571066188L483.2406156540319,55.287883732208684L482.86553462393476,57.90102341518195L479.6237461086457,57.25649422415154L477.92028241848493,61.22485572891583L483.6756298943792,62.08920702973046L481.69912410350844,67.77127148246564L490.051655547657,68.76588237309534L489.44305784122207,72.84087076988635L491.5190222667161,74.40027039702818L489.13518176117213,77.84048668585001L497.4810278961527,82.94380642555461L495.31768530698946,84.25083452618765L495.2670177006703,86.36706539061197L497.33782153663105,86.38826782896285L497.06489672204907,96.82901756587853L447.06887076090425,95.75995049739504L447.1764221382027,89.42924741654952L440.86220627318744,89.37248060181719Z" stroke="#FFFFFF" stroke-dasharray="1, 0" stroke-width="1"></path><text x="456.10344501697375" y="66.88997588639276" title="Marion" class="hint " style="">Marion</text></a><a id="s50" rel="nofollow " title="Polk" class="hint   "><path d="M255.78801699399173,357.01487958509733L257.44064563368966,288.74315462241975L273.5945980576157,289.09412992421585L273.5014728737833,293.2291266080356L318.9543034684948,295.7139079237695L318.3362055858752,342.68744858690843L280.8870974973802,341.92256879059823L282.16891756552695,365.0546705153838L255.59735555287762,365.4285774639766Z" stroke="#FFFFFF" stroke-dasharray="1, 0" stroke-width="1"></path><text x="274.96960977701167" y="323.49968133186616" title="Polk" class="hint " style="">Polk</text></a><a id="s51" rel="nofollow " title="Greene" class="hint   "><path d="M679.2020399581793,106.46148715115214L683.6365110860565,94.36020344014014L689.3598394496253,90.25690741540348L692.2380409751363,84.29223049884513L684.9204423044671,84.22672311840233L685.2958751929414,67.17647060236413L742.3901747696323,68.29956935982409L742.2564685862967,76.8154203377162L757.5675313235042,76.70070984076119L753.0023407121739,80.72959270927277L752.2697715708373,85.69263299960585L742.4666453236105,92.87900688406808L734.6246603847835,107.60391416109633L734.4665586872939,111.04587102219557L680.1541687268877,110.58635598479214L681.2416456846931,108.55969041488515Z" stroke="#FFFFFF" stroke-dasharray="1, 0" stroke-width="1"></path><text x="705.2908024773873" y="88.83145801329842" title="Greene" class="hint " style="">Greene</text></a><a id="s52" rel="nofollow " title="Izard" class="hint   "><path d="M520.1795290955838,83.06306915300593L520.2408697393435,80.51746119031486L526.5760798208644,80.70896091313534L526.9156231548659,67.99353195291496L581.5187654209672,69.14941993785305L581.4239982313725,75.56655457727447L583.5468771071587,75.65377032611013L582.5928717604384,105.85304491278202L579.4160597588079,105.79766447848942L579.2766065553078,114.37090005141545L574.2575813767735,114.20806871041987L562.9860328353584,125.13639021385916L557.4837888187976,122.90703166398816L548.9573220501857,114.57791270973485L543.3391993413998,118.08931446590395L540.8845180159115,113.96439684385132L533.7695897705107,116.49633202122823L532.3639155535884,113.16221327772018L535.5996051903376,109.50103890778792L533.6954649390459,104.15323624138546L538.5223754436292,100.67033256537707L532.0715212421342,96.56843444153492L528.7320333841076,89.31542313493537L523.1366641837144,90.65118984233686L522.6363215713332,86.9344348538234L520.088045917511,86.56717998443219Z" stroke="#FFFFFF" stroke-dasharray="1, 0" stroke-width="1"></path><text x="546.5596775943893" y="92.13947267787636" title="Izard" class="hint " style="">Izard</text></a><a id="s53" rel="nofollow " title="Johnson" class="hint   "><path d="M344.77191189569385,195.11651996179535L346.4133312253407,139.42138864133176L367.1468206742243,140.16262094694412L367.1033075215764,144.36786288485382L408.75430835061934,145.17567021997274L408.3616344016623,164.10643262793928L402.1020738712373,163.92713924309282L401.813198143554,182.71329183978833L393.33610883387564,182.52290982282375L392.97205269959795,203.02501159995336L389.2234708350138,200.9863513856826L378.7145166831192,202.927974880492L381.65476256914553,199.97982868636973L376.3602322812608,188.4196995176335L369.3774854995595,193.1708560010593L365.66491047557474,191.25393419879765L354.5424325999661,194.8305318399416L349.8737410789986,191.71542300808778L347.742652174411,195.3146072006948Z" stroke="#FFFFFF" stroke-dasharray="1, 0" stroke-width="1"></path><text x="365.1336986449096" y="167.8506664872176" title="Johnson" class="hint " style="">Johnson</text></a><a id="s54" rel="nofollow " title="Logan" class="hint   "><path d="M294.1208429223266,240.98249362874867L294.41734224818174,229.4555595349002L307.0925711423829,229.81470689602247L307.437392352042,216.8568931881964L320.11942384153417,217.104434036557L320.47597366376704,204.22949329859966L333.0302805623369,205.08487407060238L333.4100530374626,188.2681312730565L340.3089402392625,197.6913904283474L346.87098168795455,195.88324408623157L349.48611043344727,191.78550093142076L352.9024207038274,194.57043189526212L358.21372290769295,194.93856942856291L365.66491047557474,191.25393419879765L370.0294790725161,193.02611226593945L376.3602322812608,188.4196995176335L381.65476256914553,199.97982868636973L378.7145166831192,202.927974880492L389.405498902152,200.99382808512746L395.40233851093217,204.46580373977758L395.2069398254598,219.52715627827183L374.4399065446182,219.06346827432662L371.29546551368685,221.07255404950502L371.2811566063492,224.1326008180995L365.9672741077161,227.06832569494236L365.89960001316877,229.157217862602L350.28400794681465,228.75788707611082L350.25069868710716,230.82180961818267L345.1570795326038,230.66290484928777L345.369015561806,247.17686767366104L302.03624897586405,246.19294316219202L302.1072070819332,242.2657307524787Z" stroke="#FFFFFF" stroke-dasharray="1, 0" stroke-width="1"></path><text x="335.16036204754164" y="218.98949365138728" title="Logan" class="hint " style="">Logan</text></a><a id="s55" rel="nofollow " title="Craighead" class="hint   "><path d="M658.2991893437361,145.99598958961633L658.8028159676373,122.58030636073363L677.5350522531226,123.18829459356857L679.9653380644554,110.55548912878021L734.4665586872939,111.04587102219557L735.5793694482595,106.55644007166757L746.0111434881605,106.44987597396266L746.2704689534171,149.35279537063252L658.2787815578581,148.12453091336283Z" stroke="#FFFFFF" stroke-dasharray="1, 0" stroke-width="1"></path><text x="696.7548497287976" y="130.49190089432892" title="Craighead" class="hint " style="">Craighead</text></a><a id="s56" rel="nofollow " title="St. Francis" class="hint   "><path d="M644.7629630005222,260.66448608664996L645.0401101156308,249.64634025501346L657.2861890757722,249.85109193491098L657.6098987827963,228.76305092346684L732.9348018852079,228.7570264346632L731.9845496945109,263.7199176817112L650.9795968089288,262.6222450603518L650.8904593533707,269.01033363265833L648.8699712653506,269.01033363265833L648.8661008232011,262.62353229355267L644.7334068968371,262.61495073622154Z" stroke="#FFFFFF" stroke-dasharray="1, 0" stroke-width="1"></path><text x="683.3402239843042" y="246.65530967712368" title="St. Francis" class="hint " style="">St. Francis</text></a><a id="s57" rel="nofollow " title="Van Buren" class="hint   "><path d="M445.62871442301775,179.33001634569246L445.70811713013836,171.09872259301665L449.9258434976605,171.1281299838738L450.3544070010921,146.104629122995L471.29654846765607,146.68768229042962L471.4572304599128,136.21567353534556L496.45301500409414,136.53854084430077L496.25491873772944,147.0226789150056L517.118713072302,147.5796849253884L515.683248179445,197.8064486788835L488.85873836281644,197.13420471983954L489.06950153076104,184.59015853139135L445.56197861747523,183.52590848297496Z" stroke="#FFFFFF" stroke-dasharray="1, 0" stroke-width="1"></path><text x="475.84891422201076" y="166.56333912680387" title="Van Buren" class="hint " style="">Van Buren</text></a><a id="s58" rel="nofollow " title="Franklin" class="hint   "><path d="M301.292537652585,210.41395511415521L301.97197617896154,186.05238894468494L307.59396932989694,183.82369523925718L303.9880073942036,181.9199167736142L307.3550574917763,177.08273869377263L305.9828098206881,172.19265598914444L308.0568976681684,167.4943090209672L301.8341649812237,167.3093001776033L302.111781240837,154.76042512596996L312.60877220790553,155.00294444584142L312.7824729601184,148.75947795780212L314.88400576102003,148.84974852327014L314.9608281733754,144.70466085242333L321.1348871181408,144.897834817687L321.17605454827344,142.78155782277736L323.34350215183713,142.83256921406064L321.2429076399403,138.61230967385472L346.4133312253407,139.42138864133176L344.76018328312057,196.148924476066L339.47128272927057,197.29241711285795L333.4100530374626,188.2681312730565L333.0302805623369,205.08487407060238L320.47597366376704,204.22949329859966L320.11942384153417,217.104434036557L307.437392352042,216.8568931881964L307.4079535344813,219.3442672998808L303.14741773106743,221.3507211145925L303.2208388457775,219.22425382034908L301.0471750775491,219.18779014995016Z" stroke="#FFFFFF" stroke-dasharray="1, 0" stroke-width="1"></path><text x="314.5553935015956" y="176.32185585283557" title="Franklin" class="hint " style="">Franklin</text></a><a id="s59" rel="nofollow " title="Stone" class="hint   "><path d="M496.30312333540724,144.93366628117656L496.73391527522745,109.42900928132622L509.29572848584303,109.69611083005111L509.56185070513357,97.07218442569774L522.146886568647,97.33232080321795L522.40714448165,86.66215331531566L523.1366641837144,90.65118984233686L528.7320333841076,89.31542313493537L532.0715212421342,96.56843444153492L538.5223754436292,100.67033256537707L533.6954649390459,104.15323624138546L535.5996051903376,109.50103890778792L532.4507072866304,112.95184266990873L532.5885184843683,115.88190500579094L540.8845180159115,113.96439684385132L543.3391993413998,118.08931446590395L548.9573220501857,114.57791270973485L557.4837888187976,122.90703166398816L562.9860328353584,125.13639021385916L560.4671959990933,133.5780297805777L561.2026972935714,139.20716244721007L564.5537964780438,142.2822700814795L564.4250163119877,148.62804274915743L496.25491873772944,147.0226789150056Z" stroke="#FFFFFF" stroke-dasharray="1, 0" stroke-width="1"></path><text x="517.8106486873305" y="126.18375955834911" title="Stone" class="hint " style="">Stone</text></a><a id="s60" rel="nofollow " title="Poinsett" class="hint   "><path d="M658.0290793961713,180.07920399281193L658.2787815578581,148.12453091336283L746.2704689534171,149.35279537063252L746.2513513149215,187.03564809291038L658.346807510783,186.4056808240166Z" stroke="#FFFFFF" stroke-dasharray="1, 0" stroke-width="1"></path><text x="693.0945259100594" y="167.73200492121424" title="Poinsett" class="hint " style="">Poinsett</text></a><a id="s61" rel="nofollow " title="Columbia" class="hint   "><path d="M370.5110587723548,530.3933229799995L371.53848236620934,496.5597625656319L376.77917832238154,495.83346211786284L379.598736785028,482.1940733641104L385.16419802335986,470.65842887967574L414.39471542329466,469.4706391708987L414.0835553317215,479.67426854802216L430.5675338730084,480.0974556766596L429.3666630166608,530.5533923902012Z" stroke="#FFFFFF" stroke-dasharray="1, 0" stroke-width="1"></path><text x="392.337630072076" y="502.902124652723" title="Columbia" class="hint " style="">Columbia</text></a><a id="s62" rel="nofollow " title="Saline" class="hint   "><path d="M419.23745955485174,278.4195629789738L419.37749918897816,270.3009418181009L448.0178328042193,270.69428541962134L458.46626731523475,274.5838482393174L458.5625592244628,270.9629864199851L468.94601722182097,271.21696039123253L468.5852450990633,283.6646835952197L480.83789208224334,284.0704298124074L480.5907702153222,294.38314576297944L493.3395375103596,296.86354858355844L493.1186877356022,303.29368325103223L504.67383412904337,303.48424849645926L504.4249529702365,309.6560759158501L516.6860445544698,309.85551333846706L516.4973311781637,322.29718814717035L498.06980424733774,321.9597790190155L497.86502267180686,328.21416369976305L476.1978183759561,327.6843311687653L472.2405844936884,331.9317144811075L472.5484605737415,333.96299885523877L464.85191043082386,333.5070670691348L464.9796350217471,325.20041715286425L458.66506729835373,325.08901933840025L458.74059956332667,320.9057939809745L452.2973689600012,320.85982409853295L452.4966380876235,312.5483019504736L450.44952604906257,312.5108449802419L450.5578984292424,308.49984248802866L442.47125463213206,308.3981181739855L442.64952954324826,302.1271346640051L430.39946285483256,301.8280668953248L431.64879466615093,282.5617313899047L419.22490993939937,282.6151323602289Z" stroke="#FFFFFF" stroke-dasharray="1, 0" stroke-width="1"></path><text x="456.9757929717862" y="300.50440161451485" title="Saline" class="hint " style="">Saline</text></a><a id="s63" rel="nofollow " title="Lincoln" class="hint   "><path d="M548.0917504422678,395.5306737907258L550.835072923187,395.54609017840085L550.7670469702612,379.10126304678033L575.2375069572809,379.01047882742205L575.2545134455122,383.1225551575735L577.3914666563874,383.10386644710707L577.315113388534,367.6645437559846L581.05595436882,368.0409207980765L589.3085580338438,374.01628741289096L593.9084025990064,373.71604545399714L591.226186189594,377.05597286517695L591.9690765099926,379.85526952889995L597.8773650938442,377.31859405699106L603.5922488563615,381.9370386201108L609.8879335135102,380.58586280916825L613.1531792539449,390.27168337617604L613.095357193959,392.52891033457945L608.0492389203791,391.6395959917518L607.9904785713852,395.74268274683254L598.2633537336346,395.6011081347424L597.2101243245434,422.9255499748333L548.1462884907346,421.73971264430565Z" stroke="#FFFFFF" stroke-dasharray="1, 0" stroke-width="1"></path><text x="567.5987716745789" y="398.57395309966216" title="Lincoln" class="hint " style="">Lincoln</text></a><a id="s64" rel="nofollow " title="Scott" class="hint   "><path d="M257.5902698672221,283.44139269556035L258.22497501670796,259.45449236866534L266.6336664953019,257.36386373326786L267.6059684776378,255.42111281783764L270.5300288783119,257.53356726312177L283.7188537171023,254.50543550326802L283.9874389450324,241.76941723058462L281.344982532245,240.60520430770612L284.6166790095963,238.6668372093145L294.26909258525575,235.7194047635121L294.1290529511275,242.02431066740974L302.1072070819332,242.2657307524787L302.03624897586405,246.19294316219202L345.369015561806,247.17686767366104L344.73426304933355,286.4119778915883L336.38313903869494,288.19591312805915L336.3718795706245,290.2502657434625L325.9802115444636,291.06385944767317L325.04591026686694,297.82912605537604L308.62526623347594,293.94993819938827L273.5014728737833,293.2291266080356L273.5945980576157,289.09412992421585L257.44064563368966,288.74315462241975Z" stroke="#FFFFFF" stroke-dasharray="1, 0" stroke-width="1"></path><text x="294.3165745488413" y="269.8022031612793" title="Scott" class="hint " style="">Scott</text></a><a id="s65" rel="nofollow " title="Crittenden" class="hint   "><path d="M720.6121350849621,217.4948314484809L720.9726726354688,186.58174687935661L763.4595006744198,187.336435109406L760.0790336805849,189.44233754364723L758.9836985523557,195.16356059261125L764.0071806036703,195.94380306426774L762.7544474947044,192.66366948378982L764.5977162467411,190.60922934539485L771.1051023608416,194.86721582102473L766.9647848363043,200.81654274298126L767.105528187185,206.2501949553307L761.2623334031164,206.87534981119643L760.1034291947385,209.971742187151L762.062107494497,213.28994045939635L767.574672690123,213.53425370210698L770.6643411003329,217.33718081355255L770.8907033229993,220.06331739462985L766.1320533435919,223.06694261688517L772.2310491678872,230.2687887430311L768.1024602559237,233.28025555268232L763.1528684638242,230.64167913882375L760.5099429065331,232.05611626222344L755.3412606315615,246.1985289932154L745.2313138794129,244.25808011264144L743.6243766707321,250.61651652289856L750.5725240453412,256.98567072833066L751.197776381629,261.3013263969451L743.1342379512903,268.35589868994157L743.3880451273781,272.28296238236453L739.9787720245426,269.9770523605139L732.0489534599269,273.8869309208976L732.9348018852079,228.7570264346632L720.9065232605544,229.3332116847978Z" stroke="#FFFFFF" stroke-dasharray="1, 0" stroke-width="1"></path><text x="734.6630318363437" y="219.98018043750164" title="Crittenden" class="hint " style="">Crittenden</text></a><a id="s66" rel="nofollow " title="Montgomery" class="hint   "><path d="M318.3933239291082,339.19295099760075L318.90645072919415,297.7809274858282L325.04591026686694,297.82912605537604L325.9802115444636,291.06385944767317L336.3718795706245,290.2502657434625L336.38313903869494,288.19591312805915L340.58209962609817,288.3244990410876L340.63874882482787,286.2454025968882L381.7976170702891,286.68360333761393L380.1749635207593,344.18893637670317L318.3362055858752,342.68744858690843Z" stroke="#FFFFFF" stroke-dasharray="1, 0" stroke-width="1"></path><text x="341.84780689391044" y="315.7905823334965" title="Montgomery" class="hint " style="">Montgomery</text></a><a id="s67" rel="nofollow " title="Miller" class="hint   "><path d="M305.6600384026674,455.49747554004443L310.91539512455756,453.7903795146249L310.94201907510023,457.2941079863076L312.7327436428059,458.05380088242964L313.6862798450247,451.5697684736506L317.91397553323304,456.1219011996109L318.6745760586173,451.33691513060967L322.44579414546797,452.9629941890953L326.4384484377056,447.4356058223211L331.9912427744589,446.8056634652594L330.9946625640955,453.0435111928882L334.6473043778301,454.08455364667316L333.495437336996,456.9631433993318L336.2638590488232,455.2741268653108L334.66829859433756,457.54725041615984L337.4168989509153,463.05823028474697L339.26040227520116,462.685508212533L338.50085732494654,460.196416761436L340.6379278219474,458.12513837853385L339.68509533648285,460.8896717837033L343.2527047090616,465.3542279410012L341.29144611453694,468.69872466888773L342.4972647732088,471.29472731843725L340.5734204527939,472.74711189823483L345.06934951055564,471.2248724522706L342.18880226252804,474.3359074481341L345.29594630547444,478.2797400130421L349.3300026000943,479.50319172690797L345.988638164059,480.78494549382594L344.8899017381832,483.7615617724141L349.97929859215856,486.4304493200889L346.0359044727302,489.14534997867304L347.8519628435947,493.5997272141176L345.7015217282624,494.5643668505836L343.7940974654507,492.35565637977106L342.3488978241535,494.11572627874193L345.71184290732754,497.9432331877315L342.7928258100592,501.88619338260105L346.05349739158964,501.1137989292556L340.7044290552376,504.4967481599542L342.48928931665887,508.8876816983675L338.72510839735014,507.9802209709942L341.9449644071283,511.20003020946206L337.36294733307614,509.7746191279557L336.5220058115642,513.3330744354162L334.54221600917344,509.8404713277323L331.47870240499924,511.5819237450951L331.79807252537375,514.4213769205808L329.716947510351,512.1609055035788L328.0646205710095,513.2451096142604L327.1553012381928,520.1485747603165L333.6367182779836,530.2620191687338L305.71703945977424,530.2846757560055Z" stroke="#FFFFFF" stroke-dasharray="1, 0" stroke-width="1"></path><text x="314.38099470602015" y="489.22810307779855" title="Miller" class="hint " style="">Miller</text></a><a id="s68" rel="nofollow " title="Madison" class="hint   "><path d="M315.25885221886665,134.31848215197533L317.3033839626614,92.71543360832493L323.91855602631085,71.80415730131881L326.0464782055042,71.83614706866047L326.1128621526682,61.271138540820175L350.90445155194766,61.90685315837436L350.32705195496055,66.0387126059577L352.99871261305543,64.79229963568014L352.7782146966765,67.0695515147545L355.5378399490719,68.33927798193054L355.3278977840073,76.72341709795819L356.2967984686966,78.85063826167607L359.4455790862762,78.97125172146843L359.3740345495794,83.33587249925404L363.44996199108755,83.43276114622131L363.4017573934111,87.6099554137827L371.8007341433504,87.76735815061329L371.7191029998394,94.12002638840204L375.77732023636327,94.21812952903656L375.1796301396216,110.6422928919601L371.02500370774624,112.69901612822832L370.93985398046243,116.9092629155648L368.82154926358,116.77123470804054L368.69429381715827,123.15789594763828L366.62665670659317,123.08378081596038L367.1468206742243,140.16262094694412L321.2429076399403,138.61230967385472L321.21382068075854,140.7073846625699L315.10837411955026,140.537121673201Z" stroke="#FFFFFF" stroke-dasharray="1, 0" stroke-width="1"></path><text x="333.92974191672107" y="104.36629381613045" title="Madison" class="hint " style="">Madison</text></a><a id="s69" rel="nofollow " title="Crawford" class="hint   "><path d="M252.94205330374962,140.79210448695721L296.1104847592792,142.05523511564388L296.18238115435315,140.0014561316475L323.39416975815493,140.7568153808379L321.1348871181408,144.897834817687L314.9608281733754,144.70466085242333L314.88400576102003,148.84974852327014L312.7824729601184,148.75947795780212L312.60877220790553,155.00294444584142L302.111781240837,154.76042512596996L301.8341649812237,167.3093001776033L308.0568976681684,167.4943090209672L305.9828098206881,172.19265598914444L307.3550574917763,177.08273869377263L303.9880073942036,181.9199167736142L307.59396932989694,183.82369523925718L300.5971482131072,186.47233574506663L294.05023667463456,185.35599521047425L291.82391143595214,187.8270895138985L294.6766618721799,191.92277760758498L294.1708068118901,195.11925321467515L288.563005282168,194.29910461202326L286.116299413231,198.70443915038413L276.04060020979796,199.6913719596032L270.4752562575936,196.5129844795365L270.5830422071426,190.3114729738245L264.6064930981156,185.31150636537677L261.0489703323515,187.04658872101663L260.19681444760954,193.34269444141955Z" stroke="#FFFFFF" stroke-dasharray="1, 0" stroke-width="1"></path><text x="273.28350335906254" y="165.3370516307859" title="Crawford" class="hint " style="">Crawford</text></a><a id="s70" rel="nofollow " title="Little River" class="hint   "><path d="M253.80467549026298,441.26687528293496L254.7733275306764,400.6727937479536L262.2656966007148,402.77306861101715L261.22548595157923,400.65560473027017L262.824564989839,400.05799945962644L266.15725025257007,401.2018637882484L263.83979369419285,402.8129291701998L265.62864168388705,404.35791888543645L264.99177802115173,406.9733915281031L268.3448710697621,408.27159015068537L267.0944836833114,409.6407075664738L271.0574645857373,408.97177941814334L272.40637231780465,412.9390331479135L275.2872714242094,413.12291392430507L275.21818989615076,417.5578003799037L277.9575246487957,416.4903176023645L283.7305823296756,420.4169920402892L284.8561772783446,418.26747383284874L285.5821783966394,420.2096510646097L288.89504230412194,418.9042668422944L288.927295988698,422.582074137149L290.6826001464342,421.18831439074347L294.4269597104926,423.3608781660023L296.6175126808266,421.74239406908146L305.96509961570246,423.1143587464285L305.85520251588923,427.1775482655621L315.7624788427679,427.50297891801256L316.2913219837028,429.19784158936545L314.30426044151636,429.06596790143885L314.9057036942818,432.7195362475268L316.46009671863294,431.68385006442895L314.65717439385026,434.1053417691983L314.78642370440866,438.9522285426374L317.9147965361135,442.06673903851515L320.7343549987586,439.7008099178056L322.2358519804052,442.10971067289483L320.6843911091951,444.7418204757141L322.99844636992884,443.19268648157504L331.34699008580174,447.64543851818416L326.4384484377056,447.4356058223211L322.44579414546797,452.9629941890953L318.6745760586173,451.33691513060967L317.57384576860386,456.202397283535L313.6862798450247,451.5697684736506L314.10182458849886,455.5906418274735L312.36704550276727,458.1120528336578L310.91539512455756,453.7903795146249L303.496578527378,455.84776018894263L302.1069725096809,454.64853170367223L304.11796042151764,453.30575081314964L300.32434068465,452.25042360685165L295.87274578241613,455.7234940297394L294.9058389618649,452.8541827752024L292.9924331066395,453.2266431608614L294.08272493146296,451.3961847543933L289.18567732368956,449.52475814627087L285.28180862863474,451.4881154515351L287.955815009243,452.48185174377977L287.72171190227846,455.09355905830034L286.6381053866212,453.3896437750591L281.41148376553656,454.8624621301087L282.28174681848304,450.2249577565326L278.4319470273904,454.6937107454587L276.6374693036578,454.5659141431606L276.8453003184595,451.2900342020057L274.4464471888209,455.5791016312123L270.40699573241545,453.3058915736383L269.00871054141544,456.7742981750407L265.9918768152861,456.653981692868L263.6521358930163,454.49469651091476L266.2285602170159,451.5064170386886L262.41371169139165,453.18385161833794L260.31851234128044,450.0257295208776L255.85612711547674,448.8553560459086L258.3443522729235,443.1170348798996L253.76972422479503,443.4426010820889Z" stroke="#FFFFFF" stroke-dasharray="1, 0" stroke-width="1"></path><text x="274.19634336004094" y="434.54884592224977" title="Little River" class="hint " style="">Little River</text></a><a id="s71" rel="nofollow " title="Union" class="hint   "><path d="M429.39256146540447,529.2215559960541L430.5675338730084,480.0974556766596L452.1819594122808,480.7360710907842L456.446013799467,478.6050693319694L467.8617069894094,483.14163943491076L469.5591890871583,481.354008921061L475.0970880859413,482.3808401252727L475.6598269172132,480.59773299918743L481.1394347115056,481.67349861027105L484.40937189697024,486.5278716480598L483.7909221559762,488.55756094369826L491.3752294765659,488.10898087604346L489.8126264234106,491.78359672238093L494.767261518919,495.1852538044441L501.04687797684437,493.7952987492763L503.55633192304913,490.7070362038876L503.2353197969155,493.4699524127591L506.90485081275574,493.82672458705747L507.0391434267208,496.16070942174883L510.41932957037534,493.62890881789644L513.8819678604204,497.2833551353833L518.9266787004931,497.4482929164378L517.8830667537113,500.35537773465694L520.582289651355,501.5061011927519L519.1750907147966,503.61503659935534L522.396940588711,504.7489144261608L524.1660845092833,502.9938755176536L523.9900380345557,506.61497999479616L526.2584689923774,508.91682694758856L525.2527404642096,510.15613665151886L532.3391681810581,510.94743599715275L531.4621025328188,515.9658447303545L528.4865535229469,519.226124481138L530.224382047948,523.1870338490353L531.9116602527561,523.1556830529189L532.6051731142225,528.5005407738645L535.632093447166,528.6007076147862L537.2233143150002,531.8310716225624Z" stroke="#FFFFFF" stroke-dasharray="1, 0" stroke-width="1"></path><text x="466.3507520290105" y="508.5770378340598" title="Union" class="hint " style="">Union</text></a><a id="s72" rel="nofollow " title="Hot Spring" class="hint   "><path d="M380.28016917554214,336.04340115191644L434.132797523072,337.1233326124002L434.15543374533854,328.61994965453505L438.19195304860114,328.7197939160051L438.00230138328834,320.5028754202267L458.74059956332667,320.9057939809745L458.66506729835373,325.08901933840025L464.9796350217471,325.20041715286425L464.85191043082386,333.5070670691348L466.8978496081272,333.5721809418528L465.7634582000278,371.13314361077664L423.4740689886153,370.3089974805571L423.0052763440576,366.73666351974134L425.00359735431266,363.72399440153185L424.00279484342445,358.84386452336184L404.652108816947,357.1735302000652L404.7869878615402,353.0193107992209L386.1898651929023,352.5978903070818L386.31242919429405,344.3066893360283L380.1749635207593,344.18893637670317Z" stroke="#FFFFFF" stroke-dasharray="1, 0" stroke-width="1"></path><text x="425.3557720541261" y="347.37414141792846" title="Hot Spring" class="hint " style="">Hot Spring</text></a><a id="s73" rel="nofollow " title="Washington" class="hint   "><path d="M245.9925620181375,91.0995717338501L264.8825846380928,91.51171180223628L265.0220378415902,85.23993925783998L271.2975492851165,85.28975533053563L271.6335740353438,74.75832349391021L308.6964589117956,75.69592436501443L307.81388081564774,73.62975656467097L310.3544155851723,72.43099493428599L309.6857673823629,74.58867489329623L313.73237329243693,76.37952478340412L314.0119834161883,72.75174329794481L323.91855602631085,71.80415730131881L317.3033839626614,92.71543360832493L315.10837411955026,140.537121673201L252.94205330374962,140.79210448695721Z" stroke="#FFFFFF" stroke-dasharray="1, 0" stroke-width="1"></path><text x="276.37179515406655" y="108.74697122238814" title="Washington" class="hint " style="">Washington</text></a><a id="s74" rel="nofollow " title="Lawrence" class="hint   "><path d="M620.709337904359,121.24406653525057L621.5838232578335,72.3972620329414L623.6481763568772,72.42648752653713L623.7732033669117,70.37717670259917L632.1991559257676,70.57960857776834L632.2467740928159,68.48342056851652L634.3803260060427,68.51440153152726L634.2277367564639,73.1678593778679L635.0374801685311,70.78290937559268L636.1203829674328,73.3613728844939L643.6943691089587,76.17792289201134L646.0063132194282,81.78002137248404L652.9012126929538,84.02351711812389L654.0502648667698,89.2752068862128L656.5129216488062,83.74724410404906L692.2380409751363,84.29223049884513L689.3598394496253,90.25690741540348L683.4951813045477,94.62098210369095L679.0510927143596,106.53788444842849L681.2416456846931,108.55969041488515L678.4756869815074,113.57265664579609L678.9644182674424,116.83641087900196L677.6065967898194,116.8853651812833L677.5350522531226,123.18829459356857Z" stroke="#FFFFFF" stroke-dasharray="1, 0" stroke-width="1"></path><text x="640.99436647468" y="99.82594303078791" title="Lawrence" class="hint " style="">Lawrence</text></a><a id="s75" rel="nofollow " title="Sebastian" class="hint   "><path d="M258.2585107952059,258.3127894622512L259.6674570573291,194.5838110722525L261.224313090323,186.74283849829317L264.6064930981156,185.31150636537677L268.755372509831,188.37320728484792L270.95706766211015,191.17809689408386L270.4752562575936,196.5129844795365L276.04060020979796,199.6913719596032L286.116299413231,198.70443915038413L288.563005282168,194.29910461202326L293.62788933586626,195.49873754980945L294.9092402595097,192.69561209744006L292.3231984732006,186.58491402838354L301.97197617896154,186.05238894468494L301.0471750775491,219.18779014995016L305.1152443486335,221.40339699916785L305.30864916996825,219.2631578468263L307.4079535344813,219.3442672998808L307.0925711423829,229.81470689602247L294.41734224818174,229.4555595349002L294.26909258525575,235.7194047635121L281.344982532245,240.60520430770612L283.9874389450324,241.76941723058462L283.7188537171023,254.50543550326802L270.5300288783119,257.53356726312177L267.6059684776378,255.42111281783764L260.27875234465455,259.8623786067574Z" stroke="#FFFFFF" stroke-dasharray="1, 0" stroke-width="1"></path><text x="269.4909793586445" y="221.33987136968773" title="Sebastian" class="hint " style="">Sebastian</text></a></g></g></svg>