<svg id="map" class="map svg-content-responsive" xmlns:xlink="http://www.w3.org/1999/xlink" preserveAspectRatio="xMinYMin meet" viewBox="0 0 960  540"><g><g id="states"><a id="s01" rel="nofollow " title="Tulare" class="hint   "><path d="M461.16159313700336,329.724595983301L458.7389759882426,329.1094876089885L458.81098890149906,324.2121104833416L456.73802644232,324.21496914391764L461.5541491366098,319.3691903757913L468.81943191201844,319.45409124402704L468.84092763143235,314.57612998444233L483.2545961253122,314.7704417689238L483.3599566955204,310.02114849165287L511.8006411202414,310.05556492880055L512.5487552459981,312.0627158021041L511.13373304560264,312.9001022286625L515.2573060209215,318.12910017976105L514.4732305029379,320.0987897639411L516.8707467801828,322.2639159255302L516.3705769903031,324.57368808418573L518.1777045462932,327.4927269057389L521.3772770376345,328.1311926700105L520.2912249666301,329.7829279514822L523.1123466159661,332.2061488063807L521.8828094912656,335.88544113809826L524.9600771975156,342.04195410632815L524.5996521160264,346.3214006949461L528.3862334985247,355.6181915315051L527.2706191802763,363.2581060545974L458.31879551064776,363.2355508652324L458.71346953711463,336.47226152551457L461.18079057195155,336.51837428175713Z" stroke="#FFFFFF" stroke-dasharray="1, 0" stroke-width="1"></path><text x="480.5964463497832" y="342.2172165495729" title="San Bernardino" class="hint San Bernardino " style="">Tulare</text></a><a id="s03" rel="nofollow " title="Merced" class="hint   "><path d="M382.4127235632891,287.6523941294495L394.0521373851693,275.9117630651092L393.14332360442495,272.873239002201L420.03415314010226,259.5786484960504L429.46058940800685,280.63456562722854L435.15844217786844,285.1230685697742L416.02243000877525,290.0253087246456L410.530341295188,295.5450395359617L410.8907663766772,298.1392181546587L407.9442755629607,298.128447338177L396.10220712849514,310.0922867396789L386.0622190370741,304.6748318261418L384.13463433644574,300.6010228171349L381.8798370180766,299.6329984907668L382.89824742275005,297.871969864706L381.3284290039346,296.30119050180974L381.2347401136599,293.566861717969L383.05755008129836,292.0080016486693L381.3772788149299,290.4344509331647Z" stroke="#FFFFFF" stroke-dasharray="1, 0" stroke-width="1"></path><text x="393.17162744020027" y="285.6580294947641" title="Merced" class="hint " style="">Merced</text></a><a id="s04" rel="nofollow " title="San Luis Obispo" class="hint   "><path d="M405.10111742139543,400.8384994348587L401.43422708871367,400.46680857070055L396.1445226013029,396.56453753608025L394.1859786569912,393.1116057970603L395.4460243813628,385.22606970525067L390.56361195277987,383.71987467007875L383.35691289904344,374.65824105823935L377.86099371134696,372.3703153337933L372.69372920223304,362.84176091281574L428.75519633466865,363.2557172099482L428.7654710181623,372.95849684861696L433.63224609949884,372.9493504195211L433.59835766973083,377.8231102976322L437.6222481894051,381.0253450251571L437.6217975453915,382.64114117338454L442.90996984315825,382.6611641389841L442.90424666419494,387.5216484115049L446.0959779497116,387.540765444729L446.09133631637906,392.36056302992256L452.52590191847275,392.4189004302159L452.508191608767,397.2575390797979L457.6191706806753,396.97272064238064L457.28866836163934,402.0589076797048L461.26587216157986,402.652991038389L461.2642949075357,412.3181757791135L458.42510243328206,412.5158714581871L433.80520327163595,400.57142720847924L431.0523992546496,401.6146705422377L428.04493630599336,405.7522619711274L422.9113799690408,405.9320876612255L424.33699230373895,410.62779330390276L423.44584376829835,412.17294800452623L417.76164551202646,407.5582814037184L408.9269498974145,409.10877739410057L405.8332336846952,406.88606712078104L406.42758807326345,401.44453139233224Z" stroke="#FFFFFF" stroke-dasharray="1, 0" stroke-width="1"></path><text x="381.08119312641054" y="398.50179682604625" title="San Luis Obispo" class="hint " style="">San Luis Obispo</text></a><a id="s05" rel="nofollow " title="Sonoma" class="hint   "><path d="M290.2018104576623,192.17686093372618L296.1709058588676,192.13250451386557L296.1536461931746,190.37914697495626L301.0639534861539,189.59986870707576L310.52851423754737,189.77792145061494L313.659318452525,192.43946197578407L316.03538407475617,197.68323760039743L319.18930632759384,199.91700396653846L318.90233622020196,205.9754312283526L325.6097667720842,212.69384545247294L324.96985227381674,214.35649311581506L329.5230692510013,220.96087293192886L331.62257464253753,227.55623079643965L330.81155061258505,229.5729487881688L329.01118271678797,229.62905672516035L331.71766052925204,234.47207609556904L324.75750881495424,232.2295409643939L321.6621252193877,227.94927482995058L314.0323165019727,226.80811217064206L306.45225888357845,220.28038328524622L296.2488672730933,221.68678595344204L296.2583758617643,218.84219012966742L292.3869832760447,213.31274872445465L286.04601643542355,209.38417369964645L279.3020837184981,199.54248434830288L273.8079671068531,195.08183181629647Z" stroke="#FFFFFF" stroke-dasharray="1, 0" stroke-width="1"></path><text x="281.7535202184978" y="203.37965105474117" title="Sonoma" class="hint " style="">Sonoma</text></a><a id="s06" rel="nofollow " title="Marin" class="hint   "><path d="M330.4321534181536,235.89116267829604L327.47574843615484,240.15474550395948L328.5082189340287,247.09014635535232L323.6085468397541,249.23314647396137L313.46603723540693,246.7936990217279L307.30010052938223,240.1441123867994L304.41899816193245,242.03112600032523L300.05406025332286,241.63551553631987L298.47473324583643,238.18144058135067L301.6433464934944,230.1265447162407L296.2488672730933,221.68678595344204L306.46924816286264,220.28664420490963L314.0323165019727,226.80811217064206L321.6621252193877,227.94927482995058L324.75750881495424,232.2295409643939L331.71766052925204,234.47207609556904Z" stroke="#FFFFFF" stroke-dasharray="1, 0" stroke-width="1"></path><text x="301.49323851837784" y="238.1976251096385" title="Marin" class="hint " style="">Marin</text></a><a id="s07" rel="nofollow " title="Humboldt" class="hint   "><path d="M277.7782760533969,80.12822282975844L277.77539193171333,122.56289230541415L251.1679724157284,122.53071268357371L250.31747197024833,118.93614960292143L238.2616180160785,108.70361261437802L237.95662214817185,101.33642435060824L235.65369604922898,95.95969476143773L248.34108252302667,66.3634121343805L249.01366871222763,63.33215978734552L245.86907479045567,55.39665885154841L248.4351319285115,52.37351973781642L250.00463489651793,46.098516730735355L247.33105409699237,45.27671407567232L246.3221522809904,42.858109479219365L247.94018960918265,40.37121808583424L250.93886499958762,40.54521628631392L251.09262473677745,35.579226640813886L267.5866462516469,35.594802001776316L267.6007063448478,40.60797866411349L280.94670904344866,41.48372393581485L281.79292837080675,49.26127542203585L283.91167626169135,52.65122831766166L281.4009131440157,58.84910816337242L284.0131162289881,62.6403939438253L280.6144942771639,68.48528523382424L277.0676555095097,66.3796412953493L274.2061110922191,67.59866590566776L276.9371490033841,72.9279036514065Z" stroke="#FFFFFF" stroke-dasharray="1, 0" stroke-width="1"></path><text x="235.1333964448482" y="97.83933599728833" title="Humboldt" class="hint " style="">Humboldt</text></a><a id="s08" rel="nofollow " title="Mono" class="hint   "><path d="M468.6480970583275,238.25487719297234L466.8031154052569,233.76756257306943L463.16637315703565,232.00931102220852L461.84783383979357,233.1542656237541L460.1946462786,229.69553706462398L457.926600026251,230.46256346163796L454.05773104700256,227.27606041642662L455.3415707752547,225.2052786232341L453.20880785556847,222.24952413116966L453.9268640256673,218.37547773418942L455.23170376491726,217.6126045793119L454.6831798724588,215.90094699207157L457.196151145798,215.20841480737727L458.12880399482356,211.05286790617106L454.6054437802395,203.59418688942355L456.1863029773699,197.6761916572607L535.1711748206212,269.152479005681L489.3069705400944,268.5354517719227L486.30631231603184,264.30065650546885L481.64651802980507,262.41875202344704L477.41123040369666,254.17891548694433L470.848411515542,254.26802659293844L473.4214987001983,250.33497640665337L473.54303739046827,245.18793157563073L468.67130522498974,241.70363428008545Z" stroke="#FFFFFF" stroke-dasharray="1, 0" stroke-width="1"></path><text x="478.39781232301704" y="246.93276926409783" title="Mono" class="hint " style="">Mono</text></a><a id="s09" rel="nofollow " class="hint  inverse " title="Del Norte"><path d="M243.00122135698484,19.67443147727272L237.39967121267273,13.461229444607852L239.1649339398673,10.17068852549437L244.40191307777195,11.750296518624964L244.2420696464087,5.084156641368736L242.4279120438182,3.3399798436785204L278.97189685027206,3.1871676826854127L277.0978937227733,8.936861373422744L273.37111280078125,9.919232834348804L270.59618216276294,13.587449073856988L272.5593226760061,20.539926327359808L269.9057504706525,27.70504032879353L271.5627234415556,27.728119214130402L271.0414635118741,30.319374775656343L273.10726073124897,31.33295080786138L274.7484611617024,35.75247647760125L272.5071380993172,40.52906006603234L267.6007063448478,40.60797866411349L267.5866462516469,35.594802001776316L251.09262473677745,35.579226640813886L247.7062603021036,22.523285510105325Z" stroke="#FFFFFF" stroke-dasharray="1, 0" stroke-width="1"></path><text x="175.30782258136884" y="21.578797505295345" title="Del Norte" class="hint " style="">Del Norte</text><line x1="259.30782258136884" y1="18.578797505295345" x2="259.30782258136884" y2="18.578797505295345"></line></a><a id="s10" rel="nofollow " title="Colusa" class="hint   "><path d="M335.7947270424438,158.70281356607188L341.2464380524789,158.66479820697396L341.71416147343143,156.96779692618793L352.38018422752384,158.8056048521712L349.831071304352,170.5730073850532L352.14657037125426,176.55408458653437L354.6513399235605,177.35934836302386L356.59429158502735,181.28907282054524L354.84218766300864,182.89271539351262L354.78910179829336,185.45653481905765L330.57694533948734,184.57643981547926L328.5977618993861,182.35288500910065L328.8311504336484,179.97279676475864L325.2027450996652,177.9760897472172L325.86667892381956,170.98046247939237L324.15238403447984,168.92998555310123L316.7438865917825,168.0391770524459L313.2115134969399,164.49786900885442L312.4293757482128,162.76234958661553L313.9281276061988,159.8424680671185L311.9958562078368,158.8116684657682Z" stroke="#FFFFFF" stroke-dasharray="1, 0" stroke-width="1"></path><text x="319.7597218749085" y="167.60167352577238" title="Colusa" class="hint " style="">Colusa</text></a><a id="s12" rel="nofollow " title="El Dorado" class="hint   "><path d="M429.1929068643649,179.28128828112608L431.03018250481455,177.1762290441602L437.3933660952707,177.16438840077217L437.4585742839322,181.1044473207087L442.5675705221838,185.81484494252732L443.0342574619058,188.5999800118409L439.8509081550278,193.72221343514207L432.4566510631371,198.14951369855362L431.1914679970191,201.99610196889648L427.84678813353594,202.53215364416337L423.9073933662744,207.14289483240373L410.18816729621994,209.836407141795L400.84194566260476,206.38890473122296L391.2060500575203,209.49641604145063L387.0944642129434,197.45059961349898L386.48478792793776,198.11584702471077L386.0853821393366,197.74734357977923L390.5938051016419,186.00279177173843L395.20817447137233,184.81444092080824L395.2668032574461,183.1850624899471L398.7550583034281,183.88228773356695L400.87705083120727,181.0856015998263L403.8684257886039,180.47941905539187L412.0763206457227,186.084223076155L415.29946181893683,184.3633394925114L417.8904395709037,179.43275607334635Z" stroke="#FFFFFF" stroke-dasharray="1, 0" stroke-width="1"></path><text x="391.85506979438946" y="195.7560682987076" title="El Dorado" class="hint " style="">El Dorado</text></a><a id="s14" rel="nofollow " title="Kings" class="hint   "><path d="M461.14667682017716,333.24332455944364L461.18079057195155,336.51837428175713L458.71346953711463,336.47226152551457L458.31879551064776,363.2355508652324L427.8614340639547,363.251717281129L425.8189802044458,360.1519604331654L426.5412273638649,358.3383453741967L423.3059188023035,356.6964066623643L439.3556954492906,341.41255642145325L439.3416804204917,329.13692216415916L452.5219362511589,328.1413849597677L456.73802644232,324.21496914391764L458.81098890149906,324.2121104833416L458.7389759882426,329.1094876089885L461.1679472175847,329.13815391563867Z" stroke="#FFFFFF" stroke-dasharray="1, 0" stroke-width="1"></path><text x="431.79747207279087" y="357.30212249181994" title="Kings" class="hint " style="">Kings</text></a><a id="s15" rel="nofollow " title="Sierra" class="hint   "><path d="M407.96072406943085,140.6628416874753L437.45641119266975,138.97240777751335L437.3342416007831,155.19049055640517L414.72669327858557,155.12857450281194L412.4228208272143,151.1590759668452L408.00687001634833,150.41043363779295L403.4247667579384,154.75758362806278L391.4406102662165,158.30631689533425L389.83762444805507,149.67462577092215L391.34106300377425,148.53287478041852L392.01279296935127,143.83004817014353L395.14521950277503,141.0584902052001L395.91577570037316,137.30424309375735L398.26223401095876,135.7803989791987L401.79469723460306,139.71719261487215Z" stroke="#FFFFFF" stroke-dasharray="1, 0" stroke-width="1"></path><text x="402.15776271567097" y="149.3586513860587" title="Sierra" class="hint " style="">Sierra</text></a><a id="s16" rel="nofollow " title="Lassen" class="hint   "><path d="M397.728581370925,52.40777032837309L437.51030821660925,52.40992594994077L436.7952262969957,139.7748340465837L430.8730880019302,139.8371022711035L432.5189300657162,136.43109151915382L433.017838052358,127.9470845262349L426.3829161221456,116.32440236401885L420.40688080314203,115.05004187216059L414.48460731487376,108.00442498283223L408.11515977263934,104.53643382181917L403.0569060502371,104.04272777574079L398.21793570449563,108.43571239600169L398.2190623145266,110.92640927591742L395.6582777114222,111.36929836930562L389.66872307203266,107.56322972500448L389.67214796653025,96.32093144390319L377.6665858841966,96.39015486122412L377.48813085510255,52.41519524211412Z" stroke="#FFFFFF" stroke-dasharray="1, 0" stroke-width="1"></path><text x="389.2978851260683" y="82.35553183317043" title="Lassen" class="hint " style="">Lassen</text></a><a id="s18" rel="nofollow " title="Tehama" class="hint   "><path d="M338.39985501641513,100.38069448965348L354.0742902650868,96.55423738266427L370.01424496613845,96.37689058707974L371.1505438445779,101.93755675308194L377.0127915503326,104.53950673500185L375.45960189559264,105.10765954670705L376.69585361608506,106.55919903711242L375.86811069325404,110.14222133112617L372.42627198059745,111.43926410785139L372.48224196699493,115.04196717478499L366.01378793513504,116.75821123356286L363.32682300842725,123.70377863192789L360.74873367522787,123.60361994993082L358.50006511543324,128.3024495551108L345.3536526501316,129.50766060937895L344.2466005681267,132.04629858479666L345.2812792216646,134.56228178255424L304.8526078311115,134.32742454696358L304.5208437088404,128.19564947695153L306.3764605606152,126.41658250410319L302.7791045991171,114.12953942006652L303.4323130957655,108.97125876302789L299.3626822087854,105.75861658820259L313.6321446185484,101.10623731370652L318.05697311646827,103.30891124032883L323.7362142885986,99.40248729931159Z" stroke="#FFFFFF" stroke-dasharray="1, 0" stroke-width="1"></path><text x="320.7122900010508" y="115.16342809108123" title="Tehama" class="hint " style="">Tehama</text></a><a id="s19" rel="nofollow " class="hint  inverse " title="San Francisco"><path d="M302.2610442419282,251.67927720246053L305.2082560860649,255.92074210568853L302.2610442419282,259.2106897792687L294.4777461737308,251.4698143490425L296.9804427635777,248.7704379791851ZM326.1357584639013,255.3120361218796L321.4549191022729,255.4022625172115L319.78321007214845,249.21734528396019L328.5082189340287,247.09014635535232L327.89489243252,242.67500619664156L330.53120497218106,245.30795146565947L334.6772200193418,255.31630824848526Z" stroke="#FFFFFF" stroke-dasharray="1, 0" stroke-width="1"></path><text x="222.1691357644059" y="271.0317140112048" title="San Francisco" class="hint " style="">San Francisco</text><line x1="318.1691357644059" y1="252.0317140112048" x2="318.1691357644059" y2="252.03171401120483"></line></a><a id="s20" rel="nofollow " title="Alpine" class="hint   "><path d="M434.242418092917,198.3588414889557L442.89834322762636,188.91350949043726L441.8162568239345,184.94426969441338L456.454931873438,198.05498067748522L454.582370806781,203.42987882163993L458.1049198621413,209.98929039657583L457.2427026723276,215.1086341985863L454.5344222838107,216.0781012286193L455.23170376491726,217.6126045793119L453.7632802489975,219.92837808998001L451.02228310514784,217.7256593249358L450.6671305586092,214.7307689104889L442.69798689950676,218.24462567416276L434.23412624308094,213.01775120451202Z" stroke="#FFFFFF" stroke-dasharray="1, 0" stroke-width="1"></path><text x="435.54189296088" y="210.48640837564827" title="Alpine" class="hint " style="">Alpine</text></a><a id="s23" rel="nofollow " title="Santa Barbara" class="hint   "><path d="M482.52667085133135,486.72666463538576L484.24691424164075,489.46635999040654L483.4468859256008,492.52423327993165L478.3268489090351,492.6171611142479L477.66935929426563,487.62571458472826ZM459.99356892005926,463.117273056808L445.4712952190789,467.0331485917857L441.7961130365602,464.8454816130193L440.24463582906856,467.0737054848398L431.8277773431846,470.12911020562683L427.53926865915764,467.8584955679855L424.03123034100963,463.281755053139L415.5060370344336,462.421732585746L411.2648910361577,455.71941546672633L413.2543040953515,453.3879024338489L416.2494644624562,454.27226019461L418.6318841652701,452.8310760068441L421.4991517615249,453.6777522399527L426.10991597915154,458.41197693123354L435.46943161114723,456.6397296180628L437.88087278838793,458.04006551649013L440.7130802804422,454.50091758676945L448.7261617307986,455.44373711906405L453.054597474365,457.6946185001227L457.8620678036091,455.7049380016649L461.4756469495692,458.13412054286573ZM414.3445922200767,407.4746176474282L417.76164551202646,407.5582814037184L423.9026165397386,412.0765664925268L422.9113799690408,405.9320876612255L428.04493630599336,405.7522619711274L431.0523992546496,401.6146705422377L433.80520327163595,400.57142720847924L458.42510243328206,412.5158714581871L462.63434283544666,412.312681056218L462.48617108401686,439.54044045556407L459.9935238556577,443.76243424622976L454.7431155261693,441.4804701682094L450.4087312816314,443.2654529301394L442.73741825063235,442.1675588998544L431.41516768500605,438.56790416713466L414.92704960670517,439.60166769976126L412.29348599552213,434.93872960023873L407.9394086076218,433.8379023565001L405.600881631663,431.30518694062494L407.550367631316,423.55902205435336L405.86486889439857,420.7087845342794L407.16326442426544,415.7538153865826L404.4097844412595,412.3003179052421L405.8332336846952,406.88606712078104L408.9269498974145,409.10877739410057Z" stroke="#FFFFFF" stroke-dasharray="1, 0" stroke-width="1"></path><text x="403.02068285257513" y="431.6577153980279" title="Santa Barbara" class="hint " style="">Santa Barbara</text></a><a id="s24" rel="nofollow " title="Plumas" class="hint   "><path d="M377.07561132572573,132.91312358407777L373.064113516406,128.53607218942625L373.5362532486856,121.74843912679216L375.9094347492346,117.61049155324235L374.210912400345,113.74503025128274L372.33177193109987,113.49586368826817L372.61833645888055,111.20092723479365L375.91186822690315,110.06532841213061L376.69585361608506,106.55919903711242L375.45960189559264,105.10765954670705L377.01594605842274,104.41262890950566L371.1505438445779,101.93755675308194L370.01424496613845,96.37689058707974L389.67214796653025,96.32093144390319L389.66872307203266,107.56322972500448L395.6582777114222,111.36929836930562L398.2190623145266,110.92640927591742L398.21793570449563,108.43571239600169L403.0569060502371,104.04272777574079L411.5099963147554,105.84965231160845L420.40688080314203,115.05004187216059L428.05692343673445,117.61320103034768L428.4344279263123,121.88330040249252L433.017838052358,127.9470845262349L432.5189300657162,136.43109151915382L430.8730880019302,139.8371022711035L408.02192152637826,139.89737793585732L406.8646677013403,141.6565744851389L403.727599534584,139.13692488575907L401.79469723460306,139.71719261487215L398.26223401095876,135.7803989791987L395.39762521438115,138.01294271750294L394.6869145416922,141.934448049921L388.98365404367496,146.29852859793345Z" stroke="#FFFFFF" stroke-dasharray="1, 0" stroke-width="1"></path><text x="385.6230969070157" y="127.33634256263535" title="Plumas" class="hint " style="">Plumas</text></a><a id="s25" rel="nofollow " title="Modoc" class="hint   "><path d="M381.1615555259714,3.404862542161027L437.5417631687069,3.570035628595633L437.51030821660925,52.40992594994077L372.3188384479299,52.43926623676202L372.27183627738896,3.390127595164813Z" stroke="#FFFFFF" stroke-dasharray="1, 0" stroke-width="1"></path><text x="388.88666788078984" y="27.944963058845605" title="Modoc" class="hint " style="">Modoc</text></a><a id="s27" rel="nofollow " title="Ventura" class="hint   "><path d="M465.00464021431435,457.9765813687716L468.50465706903196,458.6101324850745L468.86521734372536,462.2991231429198L465.23392788805995,464.10429454902146L460.3839167640026,462.47977528271736L461.4756469495692,458.13412054286573ZM454.39494796183044,503.10235214514364L454.36087927445715,499.1911959121567L458.4959887365062,497.5612794434444L463.36325952625657,499.5198288015265L466.33949284482196,502.97288745136893L465.62729504689014,505.272174714657L461.0961145619344,506.81706111376957L456.69305216983594,505.57922165904006ZM467.7327489393956,449.16610158167055L459.9935238556577,443.76243424622976L462.72167764514006,437.4871321548683L462.63434283544666,412.312681056218L470.0882651946413,413.499330971528L471.5889548218829,417.0958338571868L487.9149311843544,418.3882330105389L498.9365571289991,445.67836623592643L497.52320231144995,452.41574033675556L492.0822616933233,452.4147054908244L485.6608098320039,457.1730260462091L484.74433510304016,461.9556798103231L472.744946843683,458.1693702839334Z" stroke="#FFFFFF" stroke-dasharray="1, 0" stroke-width="1"></path><text x="464.080801480286" y="446.6171937992146" title="Ventura" class="hint " style="">Ventura</text></a><a id="s28" rel="nofollow " class="hint  inverse " title="Santa Cruz"><path d="M348.04246521729146,287.44181547813537L358.39461441642334,292.70023961337574L360.04928910286026,295.0412974974529L359.1509302632144,296.0324737048595L366.2414983548347,301.1544922941514L360.89677023345484,299.9973718830413L355.93860454630885,303.87808437911167L345.03761600390817,305.6350800957189L343.9325918199629,300.5319257083022L336.0606070100339,296.2670588161013L333.22979651442074,292.37646754115553L334.33464044076163,289.0600934143522L333.0593178843528,284.9060298662614L340.4907981717074,283.2936475872009L340.51315011474435,279.2960765805974Z" stroke="#FFFFFF" stroke-dasharray="1, 0" stroke-width="1"></path><text x="266.8125596672845" y="337.1950190722495" title="Santa Cruz" class="hint " style="">Santa Cruz</text><line x1="346.8125596672845" y1="294.1950190722495" x2="346.8125596672845" y2="294.1950190722495"></line></a><a id="s30" rel="nofollow " title="Tuolumne" class="hint   "><path d="M414.9648135749826,238.4278828178583L416.60569855462654,238.0695101875242L430.38576156641875,216.54374915117796L436.6051897167699,213.79792142453311L442.69798689950676,218.24462567416276L450.4425746469983,214.66473960745475L455.3248518823766,224.98318630619997L454.05773104700256,227.27606041642662L457.926600026251,230.46256346163796L460.1946462786,229.69553706462398L461.84783383979357,233.1542656237541L463.16637315703565,232.00931102220852L466.97990305150324,233.90800529244234L468.8425048854765,237.29724058831493L468.45950253894307,241.3493133019797L473.52050518982423,245.0965725598694L473.4845888619989,250.05552513372663L470.3210678916871,253.55012730617614L465.6464924818374,247.75396652286645L457.1974129490345,244.2345596105563L452.5015671417782,250.01588717654295L446.1652419344887,252.64994521413337L440.2796058044664,252.19388221014242L433.9212891693501,248.44238672927304L431.7709060687612,251.13689864554863L429.6526989506915,250.1214544925424L425.78121623616744,253.86433367624454L421.9804846316656,254.28956339372826L423.54160562103243,258.2916774384803L419.84213372622025,256.72137552891104L420.03672181097545,259.5593010159057L408.0665352836513,248.2134773942828L413.06354648470597,243.2107645285962L414.37032399321197,241.06806402475627L413.03055934296344,239.98552710858598Z" stroke="#FFFFFF" stroke-dasharray="1, 0" stroke-width="1"></path><text x="421.78578437861387" y="241.1738262883702" title="Tuolumne" class="hint " style="">Tuolumne</text></a><a id="s32" rel="nofollow " title="Siskiyou" class="hint   "><path d="M338.9815463082209,2.786795378266561L372.27183627738896,3.390127595164813L372.3188384479299,52.43926623676202L324.916450958292,52.48770716864351L324.21371668463007,46.646709059016075L325.7999385455141,44.251333027179044L321.5680307495022,41.37624057115681L320.83019130723824,43.846170121136765L318.43835314455646,43.85991226413216L317.9540009595289,46.07200772706847L311.2289051623411,51.26763971721243L304.052940030283,52.55656531261343L303.61928529670286,58.02333704778607L306.9363406821981,61.667810561468514L304.9910006074624,63.87042762045644L300.6383652804034,63.161200312403935L297.3955760282297,58.904045798249626L291.5190429072668,58.8840794343746L289.0141381617573,55.00323853178725L285.13287647215566,54.36650216043881L281.81095413132016,49.31329126707965L280.31319369016364,40.827368793556616L272.5071380993172,40.52906006603234L274.7484611617024,35.75247647760125L273.10726073124897,31.33295080786138L271.0414635118741,30.319374775656343L271.5627234415556,27.728119214130402L269.9057504706525,27.70504032879353L272.5593226760061,20.539926327359808L270.59618216276294,13.587449073856988L273.37111280078125,9.919232834348804L277.0978937227733,8.936861373422744L278.97189685027206,3.1871676826854127Z" stroke="#FFFFFF" stroke-dasharray="1, 0" stroke-width="1"></path><text x="311.01211286839015" y="27.827507597347342" title="Siskiyou" class="hint " style="">Siskiyou</text></a><a id="s33" rel="nofollow " title="Placer" class="hint   "><path d="M389.4910341377604,180.7008980268272L395.52299437875945,172.02806751389608L407.2465434378428,163.04256818363228L437.21932737750194,162.68581178709928L437.3933660952707,177.16438840077217L431.03018250481455,177.1762290441602L426.67033687355115,179.7070777891745L417.8904395709037,179.43275607334635L415.29946181893683,184.3633394925114L412.0763206457227,186.084223076155L406.60599803795594,181.6799829420254L401.0297740871665,181.03184732959403L398.7550583034281,183.88228773356695L395.3145264584082,183.17097883863357L395.20817447137233,184.81444092080824L390.6189961019609,185.96798316152217L386.37839087650036,197.74434043900487L370.6108525747709,196.44088659921363L371.28862117011977,185.36900879825703L373.76522547162176,185.35614909345895L373.83192078552565,180.87371175211342L378.650522021886,178.00858695402712L382.4812665176464,180.3967745845398L386.2219272752345,178.88080856032116Z" stroke="#FFFFFF" stroke-dasharray="1, 0" stroke-width="1"></path><text x="405.9118053582516" y="174.4916754510735" title="Placer" class="hint " style="">Placer</text></a><a id="s34" rel="nofollow " title="Glenn" class="hint   "><path d="M307.2259245248647,143.51309378452538L305.12065088996405,134.53248546807754L346.1176745095422,134.39945514295823L350.007994143803,140.3961846028633L347.4949778060609,142.13121970013185L348.87958153558884,143.07010024465512L347.7887526380473,144.00092169868344L347.644907069141,150.001090154924L353.84342533729614,150.076114233L352.331965318147,158.75983593882438L341.71416147343143,156.96779692618793L341.2464380524789,158.66479820697396L314.070080470251,158.79470198576405L314.2243359158547,147.2690111942395L307.4776092060497,147.3017542033399Z" stroke="#FFFFFF" stroke-dasharray="1, 0" stroke-width="1"></path><text x="315.7331769714846" y="146.20719790934723" title="Glenn" class="hint " style="">Glenn</text></a><a id="s35" rel="nofollow " title="Trinity" class="hint   "><path d="M277.79801426116046,79.32491605221867L276.9371490033841,72.9279036514065L274.1987205304076,67.6226441093097L277.0676555095097,66.3796412953493L280.6009749567784,68.491248633238L282.1241967846627,66.76739096305914L283.96570847883413,61.63537303487806L281.39117923333697,57.76932909897482L282.4914716551484,57.88096785463608L283.91167626169135,52.65122831766166L289.0141381617573,55.00323853178725L291.5190429072668,58.8840794343746L297.3955760282297,58.904045798249626L300.6383652804034,63.161200312403935L306.0275719658539,63.769407255753094L306.9363406821981,61.667810561468514L303.61928529670286,58.02333704778607L304.052940030283,52.55656531261343L311.2289051623411,51.26763971721243L317.9540009595289,46.07200772706847L318.43835314455646,43.85991226413216L320.83019130723824,43.846170121136765L321.5680307495022,41.37624057115681L325.7999385455141,44.251333027179044L323.82318858308145,50.640061078076315L327.27570755884426,53.8906178817856L327.0124863909291,56.94243381138608L323.0508298094319,59.072859143351025L323.59259404169825,62.55092846468142L320.4031610406464,64.85249464924937L320.3362404047366,69.35668078143954L317.35996202176966,73.79403089486527L317.71889997801736,76.07851149040016L313.4750501156641,81.89891794474784L316.14245709221314,88.68641140011573L312.7905669245233,89.8826264492252L306.76626763174227,96.37570627473838L302.37046060825105,98.0019680756086L299.3600684735111,102.32314449977594L299.5512767281698,106.30249613575825L303.32276153623843,108.45667042056903L302.7791045991171,114.12953942006652L305.28473037504773,123.96230941034219L277.77066016957906,124.02793923570084Z" stroke="#FFFFFF" stroke-dasharray="1, 0" stroke-width="1"></path><text x="283.2445248083662" y="81.0792315908462" title="Trinity" class="hint " style="">Trinity</text></a><a id="s36" rel="nofollow " title="Inyo" class="hint   "><path d="M512.4202766379303,314.90222501855374L511.1202137252171,312.85514298870976L512.3549332560656,310.79781346304117L509.8901358277003,305.06828025583195L511.31214301029604,304.2611880075822L511.3724391792175,301.79787231294335L507.9337549746492,292.09107159200084L497.5666894586925,286.73300785915967L496.6997855711438,282.60712960242154L497.65028392307795,280.66304678131064L495.36623980827426,276.9078386363881L492.1792853492925,276.0479196140748L492.7075302611738,269.2590458044692L535.1711748206212,269.152479005681L633.6084559943977,362.1440975435662L527.2706191802763,363.2581060545974L528.3862334985247,355.6181915315051L524.5996521160264,346.3214006949461L524.9600771975156,342.04195410632815L521.8828094912656,335.88544113809826L523.1123466159661,332.2061488063807L520.2912249666301,329.7829279514822L521.2691224745458,328.0191879123481L517.9703632359742,327.2686816105636L516.3705769903031,324.57368808418573L516.8707467801828,322.2639159255302L514.5092820239674,320.2614922506532L515.2573060209215,318.12910017976105Z" stroke="#FFFFFF" stroke-dasharray="1, 0" stroke-width="1"></path><text x="544.6739435176152" y="319.5947140334791" title="Inyo" class="hint " style="">Inyo</text></a><a id="s38" rel="nofollow " class="hint  inverse " title="Monterey"><path d="M369.86048522895,360.28026867722883L359.6414562712175,344.3374220586725L349.22071905332814,335.50752683397036L345.39038013717936,319.20022540355217L347.32481462680335,315.30086456474623L345.03761600390817,305.6350800957189L355.7272525042754,303.95061932993394L358.85391079433475,300.580282529163L362.9124558385979,300.38177938571516L364.40579996842916,304.13724478988456L371.7049711736054,310.049041572903L371.3036276157477,313.18114307686506L377.01369283835857,315.760346975173L378.49870005395223,323.5968380878153L381.6561823944917,323.32101347951016L390.6013759210582,333.446255427933L391.2086187283935,337.02597366285613L396.08747106927467,334.1792561071802L405.1404135793168,340.55077000741835L405.62440524913336,338.5993691254855L403.33013151523755,334.30558644146186L405.8710877817766,335.56069397582223L409.2529457763212,340.19453693189985L407.21941466826775,342.3695690605575L408.38779940042286,345.69100041009074L410.49419964535537,345.9066841449196L417.93005117963367,353.23117839109227L421.26296923438167,353.5110226758568L422.95225338100727,356.66124377675897L425.0773102880735,356.7690126814937L427.8614340639547,363.251717281129L372.69372920223304,362.84176091281574Z" stroke="#FFFFFF" stroke-dasharray="1, 0" stroke-width="1"></path><text x="369.52505736839163" y="354.0029121814132" title="Monterey" class="hint " style="">Monterey</text><line x1="378.52505736839163" y1="338.0029121814132" x2="378.52505736839163" y2="338.0029121814132"></line></a><a id="s39" rel="nofollow " title="San Diego" class="hint   "><path d="M555.7590268059598,511.56684429791403L553.0690876287681,506.06231434204415L545.1594740437654,497.6296196904191L546.6286185901063,491.15607476526225L549.7770880503886,490.3087005278776L549.7271566937638,488.395643090616L556.2817738608842,488.395318823086L561.8265879239761,492.340802042155L613.9239649972471,492.6679169686158L612.9769366042119,536.0604429107373L563.4630115278937,540.8604711495307L562.6345025102405,535.9188717963602L560.2184196996668,535.7992339869552L558.2345495618315,532.2465654488442L558.1290988628216,520.8160333314092Z" stroke="#FFFFFF" stroke-dasharray="1, 0" stroke-width="1"></path><text x="563.0115387339591" y="509.9886021506726" title="San Diego" class="hint " style="">San Diego</text></a><a id="s41" rel="nofollow " title="Nevada" class="hint   "><path d="M405.33982355500893,152.98800986145648L407.9859150697498,150.41487390587008L411.4633997238243,150.62361944550844L414.72669327858557,155.12857450281194L437.3342416007831,155.19049055640517L437.21932737750194,162.68581178709928L407.2465434378428,163.04256818363228L392.9289973119062,174.6071684050769L390.5648286916148,180.27996755920185L379.842881015526,179.0718578729668L379.8430162087302,167.68972230947702L383.6244151850806,161.92350071971077L388.6543684634753,158.13242925541226L401.44468202981125,155.62387652204052Z" stroke="#FFFFFF" stroke-dasharray="1, 0" stroke-width="1"></path><text x="401.0424172677298" y="161.4775336375399" title="Nevada" class="hint " style="">Nevada</text></a><a id="s42" rel="nofollow " title="Mendocino" class="hint   "><path d="M300.2796977105645,151.7741854255121L298.92609828912236,157.37083978684655L302.54364310239544,167.37631036798757L298.8045145344513,170.98970517559997L298.11949057049515,176.90289880304977L301.04768523728944,181.27730203316491L302.91312612854335,181.23729270045828L304.6154338871406,186.86161969602108L310.3509154320768,189.76050421628588L298.66098441635404,189.62752901461954L296.1536461931746,190.37914697495626L296.1709058588676,192.13250451386557L285.7096106798199,192.27684907773892L285.7167308552225,193.98673921930185L273.8079671068531,195.08183181629647L265.9664007677925,184.5310164213456L267.97356920109314,178.6963066949013L261.9085316895489,159.57666077753788L262.99169963887107,151.84356994928112L264.69810825798595,149.108875036085L263.6826270393949,141.76764423291252L262.0588214678396,140.00545012766838L261.27862148836584,134.44925404563014L251.1679724157284,122.53071268357371L305.28473037504773,123.96230941034219L306.3764605606152,126.41658250410319L304.5390947913611,128.14553823243568L304.10701731182644,131.77437606178296L305.0864470093875,137.46671813729245L307.14755753102827,139.7644656789596L307.25417990447204,150.28809065566702Z" stroke="#FFFFFF" stroke-dasharray="1, 0" stroke-width="1"></path><text x="261.9113547680197" y="146.52015952471757" title="Mendocino" class="hint " style="">Mendocino</text></a><a id="s43" rel="nofollow " title="Yolo" class="hint   "><path d="M361.1757639418197,214.39963404592595L360.3524823947155,207.7851534371157L350.0310220528595,208.05621235537524L346.76520489162795,210.62172380988977L342.7211705845789,209.20299006657683L334.397009572142,190.35120243545202L330.6316985870503,190.07811123708166L328.36261585347347,186.65605011297384L329.1680068332648,185.4097309312956L356.13936645404056,186.00192300801496L355.7032331783903,188.20121841823243L359.5622330537567,189.280951608539L362.08115282806557,195.9458174655124L364.14100154646985,193.53427188765818L365.40852796145464,194.11333099989474L363.9981924587937,199.6508953369687L369.57410095877367,204.67070758078057L367.24134222617795,210.0864302374066L369.7211461001716,211.89660397689136L368.4385681751569,213.91648756529958L368.93242894885543,218.0194033788523L365.70437575590086,220.72052024004324L361.17882832110627,220.68359026978078Z" stroke="#FFFFFF" stroke-dasharray="1, 0" stroke-width="1"></path><text x="339.7857109630596" y="201.3402877935905" title="Yolo" class="hint " style="">Yolo</text></a><a id="s44" rel="nofollow " title="Imperial" class="hint   "><path d="M620.834275483722,492.6373015350016L679.6296646490061,492.2563467417931L675.1948769184025,493.8490232962363L676.4341479537804,496.6343537459152L674.9385506038852,499.3315484200964L677.6034339739613,501.69981700799235L675.9932378515941,510.71248721924553L678.043758238932,513.8544278828545L684.8473111587591,514.3497363512374L686.7834580956314,517.1819171457903L686.7567799700705,523.9232397483656L684.0230832592283,526.5871824695864L684.1482271016016,528.6444208363941L680.145877365743,530.1788797345496L676.2743045224172,529.2585850607381L675.4312847675517,530.701308318115L612.9769366042119,536.0604429107373L613.9239649972471,492.6679169686158Z" stroke="#FFFFFF" stroke-dasharray="1, 0" stroke-width="1"></path><text x="624.2926378598327" y="510.43900590633666" title="Imperial" class="hint " style="">Imperial</text></a><a id="s46" rel="nofollow " title="Kern" class="hint   "><path d="M441.39517505831463,382.6540288936126L437.6217975453915,382.64114117338454L437.6222481894051,381.0253450251571L433.59835766973083,377.8231102976322L433.63224609949884,372.9493504195211L428.7654710181623,372.95849684861696L428.75519633466865,363.2557172099482L544.1718876895725,362.80864717691793L544.2162761248396,416.6516493151796L487.32413688348834,416.88757975538556L487.89023589244925,418.388946365171L471.5889548218829,417.0958338571868L470.0882651946413,413.499330971528L461.2642949075357,412.3181757791135L461.26587216157986,402.652991038389L457.28866836163934,402.0589076797048L457.6191706806753,396.97272064238064L452.508191608767,397.2575390797979L452.52590191847275,392.4189004302159L446.09133631637906,392.36056302992256L446.0959779497116,387.540765444729L442.90424666419494,387.5216484115049L442.90996984315825,382.6611641389841Z" stroke="#FFFFFF" stroke-dasharray="1, 0" stroke-width="1"></path><text x="488.7036057844659" y="387.858894471745" title="Kern" class="hint " style="">Kern</text></a><a id="s48" rel="nofollow " title="Fresno" class="hint   "><path d="M446.59695889881414,329.0776297145849L439.3416804204917,329.13692216415916L439.3556954492906,341.41255642145325L422.95225338100727,356.66124377675897L421.26296923438167,353.5110226758568L417.93005117963367,353.23117839109227L410.49419964535537,345.9066841449196L408.2672070625804,345.510000823557L407.21941466826775,342.3695690605575L409.2529457763212,340.19453693189985L406.8721483919535,337.7679842388675L406.73276419877493,335.1074386823766L410.6205602265636,333.1934853513894L410.5938370366007,324.24860030349396L396.10220712849514,310.0922867396789L407.9442755629607,298.128447338177L410.8907663766772,298.1392181546587L410.530341295188,295.5450395359617L413.09306366754845,292.9557278614211L417.2071280541959,300.38380842502715L417.0413361218634,303.34862106257697L420.7982200639144,307.5709150932312L424.4088249593892,308.8174690281196L433.92354238941425,305.31166202877944L445.700853279232,304.0223646552149L451.110338945261,294.9740860384213L453.30132507140934,293.0126389704401L454.57845020386867,293.96623931281556L455.30885401991964,291.4586603970579L457.2680739302514,291.77103733771264L458.3424092569212,289.5350436167221L456.9465844914739,288.87829305121L457.2947971202143,287.3967022465706L459.7639207311022,286.9758486201397L461.1717776916944,289.25838658888665L463.09521646740404,286.2845501630336L466.2591430173279,285.98608004097173L467.6937682322837,283.74717219143304L468.50019569330516,275.51817699058665L481.57441498774597,262.28227133170776L486.30631231603184,264.30065650546885L489.0557365029217,268.38786750323766L491.71237308756463,267.801965808256L493.23600049505967,269.6289146029885L492.1792853492925,276.0479196140748L495.36623980827426,276.9078386363881L497.65028392307795,280.66304678131064L496.6997855711438,282.60712960242154L497.5666894586925,286.73300785915967L507.74678277371186,291.86309128422045L511.0749690663256,300.71030219296904L511.34129967792796,304.1898408482357L509.8901358277003,305.06828025583195L511.3834799575329,309.8452942098429L483.3599566955204,310.02114849165287L483.2545961253122,314.7704417689238L468.84092763143235,314.57612998444233L468.81943191201844,319.45409124402704L461.5541491366098,319.3691903757913L452.53676243918244,328.13511278428246Z" stroke="#FFFFFF" stroke-dasharray="1, 0" stroke-width="1"></path><text x="427.48931181061266" y="318.88876489788277" title="Fresno" class="hint " style="">Fresno</text></a><a id="s50" rel="nofollow " class="hint  inverse " title="San Mateo"><path d="M320.9177965033391,262.184912415918L321.4549191022729,255.4022625172115L334.6772200193418,255.31630824848526L343.7039350478344,268.4194971918764L338.78952689433936,271.0621570007038L338.2514128785774,275.09030995897615L340.4941329374019,279.1496582656864L340.4907981717074,283.2936475872009L333.0593178843528,284.9060298662614L334.33464044076163,289.0600934143522L333.22979651442074,292.37646754115553L330.42737659161685,291.76183183426565L326.4603122819658,285.4205809061257L326.3301662910503,275.6789490830472L324.3976245062804,270.4794054466256L321.6455865841158,268.04276489889094Z" stroke="#FFFFFF" stroke-dasharray="1, 0" stroke-width="1"></path><text x="250.46616241332185" y="304.65635277348366" title="San Mateo" class="hint " style="">San Mateo</text><line x1="331.46616241332185" y1="270.65635277348366" x2="331.46616241332185" y2="270.65635277348366"></line></a><a id="s51" rel="nofollow " title="Butte" class="hint   "><path d="M364.0425358296593,163.3164776567828L351.50733183900593,163.41851194688957L353.8407665376203,149.82708037062457L347.644907069141,150.001090154924L347.7887526380473,144.00092169868344L348.87958153558884,143.07010024465512L347.4949778060609,142.13121970013185L349.8578395587165,140.817509964098L349.76671933931493,138.4898910832469L346.2686853182531,136.30427978476928L344.2466005681267,132.04629858479666L345.3536526501316,129.50766060937895L357.45979847613535,129.20890245885084L360.74873367522787,123.60361994993082L363.32682300842725,123.70377863192789L366.01378793513504,116.75821123356286L369.43183264391246,116.75862363307579L374.210912400345,113.74503025128274L375.8948338832174,118.44480618313241L373.5362532486856,121.74843912679216L373.064113516406,128.53607218942625L388.8553106288118,147.0003331181697L385.68480467630025,148.75264708940267L385.26128943300955,150.83837135054705L378.6897280510052,150.83895553500565L377.3851586981632,156.31391927650066L374.0876612628267,161.32385093859284Z" stroke="#FFFFFF" stroke-dasharray="1, 0" stroke-width="1"></path><text x="355.28555952352747" y="145.19288383517332" title="Butte" class="hint " style="">Butte</text></a><a id="s54" rel="nofollow " title="Shasta" class="hint   "><path d="M344.0938773121675,52.462438920371596L377.48813085510255,52.41519524211412L377.6665858841966,96.39015486122412L354.0742902650868,96.55423738266427L333.3869360817066,100.78760860759053L323.7362142885986,99.40248729931159L318.05697311646827,103.30891124032883L313.6321446185484,101.10623731370652L299.3626822087854,105.75861658820259L299.3600684735111,102.32314449977594L302.37046060825105,98.0019680756086L306.76626763174227,96.37570627473838L312.7905669245233,89.8826264492252L316.14245709221314,88.68641140011573L313.4750501156641,81.89891794474784L317.71889997801736,76.07851149040016L317.35996202176966,73.79403089486527L320.3362404047366,69.35668078143954L320.4031610406464,64.85249464924937L323.59259404169825,62.55092846468142L323.0508298094319,59.072859143351025L326.7745463521369,57.637594874261595L327.27570755884426,53.8906178817856L324.916450958292,52.48770716864351Z" stroke="#FFFFFF" stroke-dasharray="1, 0" stroke-width="1"></path><text x="329.4545793028888" y="77.4000637838279" title="Shasta" class="hint " style="">Shasta</text></a><a id="s55" rel="nofollow " title="Riverside" class="hint   "><path d="M542.3905820355203,468.65753537960336L543.1628957447683,465.63629781898067L545.1655126735386,465.63629781898067L545.1907938026593,463.11020894830676L547.5345482491698,462.19689177092346L547.5374774352526,459.7488043291369L575.8809579463991,461.30035450665264L575.8719000017404,459.7128053481026L648.5763715597006,459.71296848611337L648.5829960266897,457.33418357933647L688.2683301180218,457.2316789000422L688.1404824115716,460.3383428404095L683.7507590822545,465.17801023019956L685.0015666043628,466.793329018077L684.0944202064654,471.61470009917343L685.6199853832168,477.4169371314174L683.9379115407971,479.1941953309813L684.267242185399,485.7981333508328L679.6296646490061,492.2563467417931L561.8247402835241,492.34064004495326L556.2817738608842,488.395318823086L549.7271566937638,488.395643090616L554.0864615522123,480.0639455768494L548.6331282237311,477.28513496735195L548.5227655049812,474.7214820052827Z" stroke="#FFFFFF" stroke-dasharray="1, 0" stroke-width="1"></path><text x="607.1097725657457" y="478.3454738348489" title="Riverside" class="hint " style="">Riverside</text></a><a id="s56" rel="nofollow " title="Los Angeles" class="hint   "><path d="M512.8114807054994,522.3201233904178L514.5691726132768,524.7691619638056L513.9854083590117,526.9426518672719L506.6911041091744,528.4792656541683L502.7040762697534,524.800588844093L497.1873373286626,512.9577958731002L499.12343920113335,511.0654895911116L503.20352502921196,511.6436939113446ZM513.7227730283144,493.16669898881787L516.3048280288263,496.58283152932313L516.7702531653131,498.76019101153975L516.3262786838386,500.515885617237L513.2745624931181,502.2401569063077L507.1255249375763,501.1328434130437L504.28804491057235,499.6433500086084L502.94097982731637,495.3201177447954L499.7574051984334,493.73371697374864L497.5877795984943,489.01868163621384L499.42654236418684,487.10060954525215L504.0537550882841,487.03708913480796ZM505.8576380073814,472.18515736480344L507.47783842683475,469.7812012844927L502.51615771638853,462.23749110339827L491.13870325918697,464.4526846507367L484.74433510304016,461.9556798103231L485.2364383650897,457.4906566015029L492.0822616933233,452.4147054908244L497.52320231144995,452.41574033675556L497.54298558361506,448.48115181642765L499.1300636681226,448.47995254686157L487.32413688348834,416.88757975538556L542.6263589830501,416.6375962992977L543.5690161291618,445.8220370230713L539.7948274570158,460.4056548429728L538.1019832226893,460.28957092948167L536.5315339022568,462.8962700230636L537.3991137558241,464.4795204104005L528.6921757188588,464.4991310593507L528.6878946007369,466.8474618934556L524.9779677648262,469.9243940348297L521.9594640378546,478.000386370388L515.2746558154176,479.8265847947539L512.0671519894495,479.82669308253867L506.5897092062801,476.46330514105944Z" stroke="#FFFFFF" stroke-dasharray="1, 0" stroke-width="1"></path><text x="488.8246239728994" y="460.242106517842" title="Los Angeles" class="hint " style="">Los Angeles</text></a><a id="s57" rel="nofollow " class="hint  inverse " title="Orange"><path d="M523.2436192169143,473.8256854517483L524.9779677648262,469.9243940348297L528.6878946007369,466.8474618934556L528.6921757188588,464.4991310593507L537.3991137558241,464.4795204104005L548.5227655049812,474.7214820052827L548.6331282237311,477.28513496735195L554.0864615522123,480.0639455768494L549.7051652659352,486.82916863090213L549.7770880503886,490.3087005278776L546.6286185901063,491.15607476526225L545.1594740437654,497.6296196904191L523.285574174512,480.3559737051485L521.9594640378546,478.0010363519573Z" stroke="#FFFFFF" stroke-dasharray="1, 0" stroke-width="1"></path><text x="491.66692886454916" y="487.1431852053839" title="Orange" class="hint " style="">Orange</text><line x1="537.6669288645492" y1="479.1431852053839" x2="537.6669288645492" y2="479.1431852053839"></line></a><a id="s29" rel="nofollow " title="Yuba" class="hint   "><path d="M383.1745372670375,162.92235204749386L379.8430162087302,167.68972230947702L379.842881015526,179.0718578729668L378.5075777410061,178.03087060404687L367.95610869498296,182.6796436099578L366.4275242033459,185.7262260446489L364.93900196445065,177.78423491400645L365.9739059399958,175.17717126667958L363.7623253824595,166.78560860263474L364.86698905119556,162.54100346350765L374.0876612628267,161.32385093859284L377.3851586981632,156.31391927650066L378.6897280510052,150.83895553500565L385.26128943300955,150.83837135054705L386.0761890014742,148.34412995596404L392.01279296935127,143.83004817014353L391.34106300377425,148.53287478041852L389.81698495226465,149.81895817349232L391.444620997931,158.31121503109011L386.69501335993937,158.97130150451972Z" stroke="#FFFFFF" stroke-dasharray="1, 0" stroke-width="1"></path><text x="365.48485456680123" y="169.36715334271594" title="Yuba" class="hint " style="">Yuba</text></a><a id="s17" rel="nofollow " title="Lake" class="hint   "><path d="M328.92749812359943,180.42345298169244L328.93880928832095,183.23670213148307L332.04581949942076,185.47014723585812L328.36261585347347,186.65605011297384L330.27857393856857,192.539328095952L326.4705419010579,198.1387149840166L319.1022419043079,200.31503816087957L310.3601085699388,189.31029231938192L304.6154338871406,186.86161969602108L302.91312612854335,181.23729270045828L301.04768523728944,181.27730203316491L298.11949057049515,176.90289880304977L298.8045145344513,170.98970517559997L302.54364310239544,167.37631036798757L298.92609828912236,157.37083978684655L299.46385178967375,151.77622959931318L307.25417990447204,150.28809065566702L307.4776092060497,147.3017542033399L314.2243359158547,147.2690111942395L314.070080470251,158.79470198576405L311.9958562078368,158.8116684657682L313.9593572362901,160.14795014120295L312.44861824756254,162.96061890578858L317.3913268450651,168.44531443754886L324.15238403447984,168.92998555310123L325.9526167370723,171.20146764134324L325.2027450996652,177.9760897472172Z" stroke="#FFFFFF" stroke-dasharray="1, 0" stroke-width="1"></path><text x="301.40043752080885" y="177.25918318233508" title="Lake" class="hint " style="">Lake</text></a><a id="s21" rel="nofollow " title="Madera" class="hint   "><path d="M419.4443502560648,288.81754050855693L434.8534463099609,285.29818480304516L448.23820439366773,271.86634544743515L453.22313833517774,271.82560628333704L453.2239945588012,269.35561788093696L456.2411463537346,267.4620977956838L456.2697622485525,263.7322674761299L468.64399619781034,251.34101860258102L472.55581155148457,254.92775488861116L476.96662502060417,253.8513419288729L481.16139974995576,259.9173288697268L481.56089566736046,262.28795811504824L467.91868465910375,276.43873614029144L467.72319528632397,283.6018684925846L466.2660829351257,285.97765381040745L463.09521646740404,286.2845501630336L461.1717776916944,289.25838658888665L459.7639207311022,286.9758486201397L457.2947971202143,287.3967022465706L456.9465844914739,288.87829305121L458.3424092569212,289.5350436167221L457.2680739302514,291.77103733771264L455.30885401991964,291.4586603970579L454.57845020386867,293.96623931281556L453.30132507140934,293.0126389704401L451.110338945261,294.9740860384213L445.700853279232,304.0223646552149L433.92354238941425,305.31166202877944L426.95897436379164,308.52208007533204L420.81890462410547,307.585769867718L416.943816757479,303.19896730127607L417.2071280541959,300.38380842502715L412.9200163666087,293.91109072669155L416.02243000877525,290.0253087246456Z" stroke="#FFFFFF" stroke-dasharray="1, 0" stroke-width="1"></path><text x="417.20150133377155" y="298.14933344396337" title="Madera" class="hint " style="">Madera</text></a><a id="s40" rel="nofollow " title="Mariposa" class="hint   "><path d="M423.01489289879555,265.7746224332286L419.84213372622025,256.72137552891104L423.4183995479143,258.4231072517732L421.9804846316656,254.28956339372826L425.78121623616744,253.86433367624454L429.6526989506915,250.1214544925424L431.7709060687612,251.13689864554863L433.9001539651472,248.44769280503897L440.2796058044664,252.19388221014242L446.1336968535884,252.65564497708488L452.5015671417782,250.01588717654295L453.3397650057077,247.5171444852915L458.4277161685577,244.1431798727499L468.72110138841117,251.06494115306327L456.2697622485525,263.7322674761299L456.2411463537346,267.4620977956838L453.2239945588012,269.35561788093696L453.22313833517774,271.82560628333704L448.23820439366773,271.86634544743515L435.15875762867745,285.12301200652405L429.46058940800685,280.63456562722854Z" stroke="#FFFFFF" stroke-dasharray="1, 0" stroke-width="1"></path><text x="423.73718913296204" y="260.6045619696715" title="Mariposa" class="hint " style="">Mariposa</text></a><a id="s02" rel="nofollow " title="Calaveras" class="hint   "><path d="M399.08641684608847,238.12933641102427L395.1955564390114,233.60982369279282L392.6427932993356,225.7534879411694L397.2678879965724,225.973244810398L401.10395009168496,222.1197123848499L409.0333469488519,219.17768274785067L410.10191403215686,215.84120389037957L418.43233899637335,211.50756729334012L434.237821523986,209.4033512877602L434.23412624308094,213.01775120451202L436.6051897167699,213.79792142453311L429.55188988501277,217.23306991400455L416.60569855462654,238.0695101875242L413.4031968772015,239.1684378028708L414.3664484547012,241.1538524809946L413.06354648470597,243.2107645285962L408.091951605978,248.29324332626993Z" stroke="#FFFFFF" stroke-dasharray="1, 0" stroke-width="1"></path><text x="396.6892969939234" y="231.86106892181556" title="Calaveras" class="hint " style="">Calaveras</text></a><a id="s52" rel="nofollow " class="hint  inverse " title="San Joaquin"><path d="M367.33728433651686,249.17376335517224L368.37088144442396,247.26410110438496L366.3282473273116,246.65323025583984L367.365674909327,243.028358427968L366.30657135029287,238.21861659688602L367.315202779886,237.71345214540543L366.10477296133104,236.60304322154843L367.0219687207159,232.85963812858927L366.11892318333594,231.7825393894234L370.97925405528804,223.89590504503963L376.92117562251724,225.59257796082602L391.2193440558999,221.4577301533634L395.7544000793655,234.2338737947348L396.01505257640747,253.59788088860296L392.73580622359214,252.3127335271788L387.4805760031654,253.3849800816697L371.17285072321465,268.1954721462005L367.35454400221033,264.7328517064816Z" stroke="#FFFFFF" stroke-dasharray="1, 0" stroke-width="1"></path><text x="556.2025444243216" y="262.38651000583343" title="San Joaquin" class="hint " style="">San Joaquin</text><line x1="380.2025444243215" y1="242.38651000583346" x2="380.20254442432156" y2="242.38651000583343"></line></a><a id="s13" rel="nofollow " title="Sutter" class="hint   "><path d="M350.60514252525036,169.5397995985145L349.7719468098644,166.56645931517755L351.5092696082611,163.42072499109372L364.0425358296593,163.3164776567828L366.3511851075664,185.61820107835024L367.95610869498296,182.6796436099578L373.75504091693074,181.31087478088102L373.76522547162176,185.35614909345895L371.28862117011977,185.36900879825703L370.6108525747709,196.44088659921363L365.2708111511233,196.36924997553456L365.70703455557714,194.72369161131633L364.22950803059666,193.5117252635523L362.0956185008781,195.95691080764595L359.5622330537567,189.280951608539L355.72076323048987,188.23016162604017L356.7890148629858,186.61157624237285L354.5602647685605,183.69853218237404L356.59429158502735,181.28907282054524L350.1715779204728,173.36014465609537Z" stroke="#FFFFFF" stroke-dasharray="1, 0" stroke-width="1"></path><text x="353.061456897041" y="178.8587297509203" title="Sutter" class="hint " style="">Sutter</text></a><a id="s53" rel="nofollow " class="hint  inverse " title="Amador"><path d="M391.2100157248333,211.04457820309244L392.10012777904467,208.8694555640643L395.78743228550957,209.10220108410726L400.84194566260476,206.38890473122296L410.18816729621994,209.836407141795L423.2124552340347,207.3733173497012L427.84678813353594,202.53215364416337L431.1914679970191,201.99610196889648L432.4566510631371,198.14951369855362L434.2419674489047,198.27938479649583L434.237821523986,209.4033512877602L415.18098750795434,212.87240241465884L410.0719462053021,215.867481760803L409.0333469488519,219.17768274785067L401.10395009168496,222.1197123848499L397.24828498201305,225.98374191236508L392.6427932993356,225.7534879411694L391.2193440558999,221.4577301533634Z" stroke="#FFFFFF" stroke-dasharray="1, 0" stroke-width="1"></path><text x="510.31079469888783" y="217.99077267279714" title="Amador" class="hint " style="">Amador</text><line x1="408.31079469888783" y1="212.99077267279714" x2="408.3107946988878" y2="212.99077267279714"></line></a><a id="s37" rel="nofollow " class="hint  inverse " title="San Benito"><path d="M370.67367235016354,308.70479495794257L364.40579996842916,304.13724478988456L364.07232339890925,300.44839900934016L367.19154606275697,301.26950536847426L372.07202072208474,296.09741184817676L373.591862719873,297.69324992277393L382.7719319059447,297.65382789298815L381.8798370180766,299.6329984907668L384.13463433644574,300.6010228171349L386.0622190370741,304.6748318261418L395.4284492648603,309.44474485474984L410.5938370366007,324.24860030349396L410.6205602265636,333.1934853513894L407.6206680973223,333.98228756666776L406.92437803304483,336.6137283269152L403.33013151523755,334.30558644146186L405.62440524913336,338.5993691254855L405.1404135793168,340.55077000741835L396.08747106927467,334.1792561071802L391.212314009299,337.0287680347308L390.6013759210582,333.446255427933L381.6561823944917,323.32101347951016L378.4430455183633,323.52250171750256L378.09257966955875,317.4166285581068L375.9351214579674,314.80060734285485L371.3036276157477,313.18114307686506L370.6228847699149,311.5579798622168L372.10050142369664,310.96879369628437Z" stroke="#FFFFFF" stroke-dasharray="1, 0" stroke-width="1"></path><text x="283.23156070936733" y="377.61483467598794" title="San Benito" class="hint " style="">San Benito</text><line x1="389.23156070936733" y1="317.61483467598794" x2="389.23156070936733" y2="317.61483467598794"></line></a><a id="s22" rel="nofollow " class="hint  inverse " title="Sacramento"><path d="M391.212314009299,215.85897165902657L390.3224272770949,221.97341813989806L376.8998150963066,225.5950447203711L371.18375630832634,223.7790576595703L366.11892318333594,231.7825393894234L366.88006092106434,233.09448282995504L362.1085970484496,233.31225071637004L360.9053775340999,236.07691216275816L357.402972266113,237.58177450810354L353.57353463799154,234.8859353937778L360.4041261985899,233.71471641616426L361.54168688026584,229.52383223314837L364.85585814407887,227.20667434388065L366.08728797363256,219.70192559734937L368.96127016567834,217.95503549172622L368.4385681751569,213.91648756529958L369.7211461001716,211.89660397689136L367.24134222617795,210.0864302374066L369.57410095877367,204.67070758078057L364.0407332536074,199.74135110413772L365.2708111511233,196.36924997553456L387.0944642129434,197.45059961349898L391.2040221594625,209.50263564112856Z" stroke="#FFFFFF" stroke-dasharray="1, 0" stroke-width="1"></path><text x="485.99466443396744" y="186.65929921224205" title="Sacramento" class="hint " style="">Sacramento</text><line x1="376.99466443396744" y1="212.65929921224205" x2="376.99466443396744" y2="212.65929921224205"></line></a><a id="s49" rel="nofollow " class="hint  inverse " title="Santa Clara"><path d="M354.3023161355968,289.9897145544494L347.7769908293121,287.31930763668106L340.59151710858214,279.8721852349224L338.67524357267666,277.47061409249295L338.795114880098,271.05160144082674L343.7039350478344,268.4194971918764L350.73060181843175,269.7508535382601L353.4471289923822,268.0333944351278L371.12656958309253,268.1642383106555L371.8611643884651,273.0905510253217L374.0051483440702,273.93354394937273L374.15485228514444,277.88351058209037L371.7980742266632,279.4045984766633L371.9017674140241,281.3694657553167L374.45831596340804,286.9877217378844L376.2366023025734,285.0469903210669L381.77632408832187,286.61794345055205L382.645616389138,288.5192471369228L381.3772788149299,290.4344509331647L383.05755008129836,292.0080016486693L381.2347401136599,293.566861717969L381.3284290039346,296.30119050180974L382.73272587682504,297.65382789298815L370.40567435571256,296.4185337306935L366.4989963437856,301.5025087101899L365.83591874325566,299.6327730026187L359.1509302632144,296.0324737048595L359.68796273334556,294.2210876911738Z" stroke="#FFFFFF" stroke-dasharray="1, 0" stroke-width="1"></path><text x="254.87976533499148" y="320.16083384816307" title="Santa Clara" class="hint " style="">Santa Clara</text><line x1="360.8797653349915" y1="282.16083384816307" x2="360.8797653349915" y2="282.16083384816307"></line></a><a id="s11" rel="nofollow " class="hint  inverse " title="Alameda"><path d="M332.04090747967984,250.04987888634605L330.53120497218106,245.30795146565947L335.1594091131069,244.04597249578273L338.9945248557915,248.90347687084227L345.32625349414866,250.19257263543705L349.1433434763194,254.72392238850443L367.24165767698696,249.00610563093733L367.35454400221033,264.7328517064816L371.2056125429499,268.1360708727075L345.03522759064117,269.47483963645595Z" stroke="#FFFFFF" stroke-dasharray="1, 0" stroke-width="1"></path><text x="250.52946067095485" y="287.6784970318354" title="Alameda" class="hint " style="">Alameda</text><line x1="351.52946067095485" y1="258.6784970318354" x2="351.52946067095485" y2="258.6784970318354"></line></a><a id="s45" rel="nofollow " title="Stanislaus" class="hint   "><path d="M417.61072483211774,257.25933598108827L420.04952010094075,259.57096641894236L393.14332360442495,272.873239002201L394.0521373851693,275.9117630651092L382.2190818309614,287.856122639314L379.7719496479003,285.09506966925005L376.1742331711939,285.05445679651075L374.45831596340804,286.9877217378844L371.9017674140241,281.3694657553167L371.7980742266632,279.4045984766633L374.15485228514444,277.88351058209037L374.0051483440702,273.93354394937273L371.8611643884651,273.0905510253217L370.50364436411064,268.54362866483234L387.4805760031654,253.3849800816697L392.73580622359214,252.3127335271788L396.01505257640747,253.59788088860296L395.7544000793655,234.2338737947348Z" stroke="#FFFFFF" stroke-dasharray="1, 0" stroke-width="1"></path><text x="377.77096327707125" y="264.57818519323826" title="Stanislaus" class="hint " style="">Stanislaus</text></a><a id="s31" rel="nofollow " title="Napa" class="hint   "><path d="M321.7125072200256,208.2634841326012L318.2497135607705,204.313858937983L319.1022419043079,200.31503816087957L326.4705419010579,198.1387149840166L330.27857393856857,192.539328095952L329.5725048992131,188.94424184944774L334.397009572142,190.35120243545202L337.27175785901045,198.44008668590686L341.5627450851089,204.9593813309075L342.7211705845789,209.20299006657683L341.686176480232,214.09729297642957L344.4562401629114,220.55838202355653L338.0930115080555,220.56981173977852L338.570784290494,229.78929547009193L329.04389947212167,229.75405035046037L331.62257464253753,227.55623079643965L330.8464304591798,224.51366109498258L324.9517814489004,214.3162853656395L325.74658229439,212.92309669152405Z" stroke="#FFFFFF" stroke-dasharray="1, 0" stroke-width="1"></path><text x="321.40000328945644" y="209.61607432685489" title="Napa" class="hint " style="">Napa</text></a><a id="s47" rel="nofollow " class="hint  inverse " title="Contra Costa"><path d="M347.93575271504506,234.84134588084976L351.4248189202499,236.09201896757054L353.9312558554034,234.9397970605953L357.2269957790895,237.59922117472343L360.9053775340999,236.07691216275816L362.1085970484496,233.31225071637004L366.3015241373482,233.26094486684747L367.365674909327,243.028358427968L366.3282473273116,246.65323025583984L368.2063963797291,247.9211605630303L349.1433434763194,254.72392238850443L345.32625349414866,250.19257263543705L338.9945248557915,248.90347687084227L335.47724833538086,244.1629980221037L330.53120497218106,245.30795146565947L327.50278707692587,241.09789871669955L331.71766052925204,234.47207609556904L340.67993346390585,236.84929220359618Z" stroke="#FFFFFF" stroke-dasharray="1, 0" stroke-width="1"></path><text x="220.6965036972761" y="253.92566167569606" title="Contra Costa" class="hint " style="">Contra Costa</text><line x1="349.6965036972761" y1="242.92566167569606" x2="349.6965036972761" y2="242.92566167569606"></line></a><a id="s26" rel="nofollow " title="Solano" class="hint   "><path d="M349.7433309150465,208.4111258285102L361.1346652078455,208.4135451960442L361.17882832110627,220.68359026978078L365.70437575590086,220.72052024004324L364.85585814407887,227.20667434388065L361.54168688026584,229.52383223314837L360.4041261985899,233.71471641616426L340.92584990172645,236.8470037108948L331.71766052925204,234.47207609556904L329.0347063342597,229.75141411818254L338.570784290494,229.78929547009193L338.0930115080555,220.56981173977852L344.4562401629114,220.55838202355653L341.6798223996507,214.06272023079532L342.7211705845789,209.20299006657683L346.7726405178396,210.62109050345998Z" stroke="#FFFFFF" stroke-dasharray="1, 0" stroke-width="1"></path><text x="336.9622244251435" y="227.52210588607375" title="Solano" class="hint " style="">Solano</text></a><a id="s58" rel="nofollow " title="San Bernardino" class="hint   "><path d="M543.1706918861896,439.9393586261299L544.1718876895725,362.80864717691793L633.6084559943977,362.1440975435662L679.3429649280206,406.78253059999724L679.3026322888702,413.8720347688434L686.6889129817323,422.7354691380731L688.206096179845,429.0515815987485L690.7284408486526,432.682436742592L690.4643183927126,436.6089838442847L699.918379138606,442.5408123822085L701.9777321485967,447.2639499670256L688.2683301180218,457.2316789000422L648.5829960266897,457.33418357933647L648.5763715597006,459.71296848611337L575.8719000017404,459.7128053481026L575.8809579463991,461.30035450665264L547.5374774352526,459.7488043291369L547.5345482491698,462.19689177092346L545.1907938026593,463.11020894830676L545.1655126735386,465.63629781898067L543.1628957447683,465.63629781898067L542.3353781439441,468.58345046671366L536.5315339022568,462.8962700230636L538.1019832226893,460.28957092948167L539.7948274570158,460.4056548429728L542.1629166802195,452.6241753450747Z" stroke="#FFFFFF" stroke-dasharray="1, 0" stroke-width="1"></path><text x="578.5856407296395" y="415.1505985672928" title="San Bernardino" class="hint " style="">San Bernardino</text></a></g></g></svg>