<svg id="map" class="map svg-content-responsive" xmlns:xlink="http://www.w3.org/1999/xlink" preserveAspectRatio="xMinYMin meet" viewBox="0 0 960  540"><g><g id="states"><a id="s01" rel="nofollow " title="Custer" class="hint   "><path d="M448.2832043923049,374.47607365265367L508.8961111982421,375.45309287019563L508.8035959022627,416.26644019705327L506.22893087015063,411.7922092207036L501.71641755420933,412.05399277829747L499.62966280514956,405.45786967021513L497.7043875940003,403.97078332426327L490.0969279921892,411.8962096271862L487.1147640448271,417.9969884896286L483.65519865127544,413.4703438638812L474.70607959996914,419.2005119654523L469.0487598679633,418.57510943468696L463.6732083244201,411.7048669622973L458.6644339532736,410.0687637464803L456.8544744609462,402.4808229093301L451.4338850451222,394.20166096216553L450.2854193019357,387.2092144723788L438.68403871773035,374.9102250470519Z" stroke="#FFFFFF" stroke-dasharray="1, 0" stroke-width="1"></path><text x="470.1400129717608" y="393.19877096367134" title="Yuma" class="hint Yuma " style="">Custer</text></a><a id="s02" rel="nofollow " title="Delta" class="hint   "><path d="M278.8587981533851,259.961351850719L278.8633019406143,326.23760063612553L196.4742085707935,326.28122371522795L196.44878093873376,306.88944256959985L218.79844974300659,297.51959569535757L218.78991131305247,295.3585849301012L223.82139227814287,290.7191302884603L223.12977945191324,288.7024501524047L233.66554521214903,279.0750840345254L240.67690980852876,279.0014937252654L245.24572046482263,276.6217315421359L253.99395183997285,281.0598495596846L261.2857710202079,275.70776796674636L266.8744079969829,268.3284045963346L274.89246286776233,264.28505174006114Z" stroke="#FFFFFF" stroke-dasharray="1, 0" stroke-width="1"></path><text x="235.77957089400078" y="303.11072265648187" title="Delta" class="hint " style="">Delta</text></a><a id="s03" rel="nofollow " title="Denver" class="hint   "><path d="M547.2448273283421,176.11046533948593L551.0718266965932,177.04859208687867L550.5389723701587,180.21934372825217L549.2353136253996,180.20638436117315L549.1799545740528,185.87419661673403L545.8231318266444,187.55724263400316L535.7819382014027,186.29166063400316L535.7641107102922,189.35939045468376L538.4205007148171,189.36280995416973L538.3994830410861,192.91479602729987L529.6201942998405,192.47886084078164L526.9703723183579,192.9938991762133L527.86550002996,194.6838186917903L524.7624844586398,194.68137773852322L524.311542762417,198.2383151888921L526.0734618576448,201.77972556639816L522.5505619561973,201.54071049763752L523.8829323445348,203.5481042540714L522.1203564470038,203.82229588590735L527.8294697321339,206.58992447033233L524.747847150149,207.0827729157363L524.2633147075153,210.6076756098305L521.6218434981834,210.6131573728294L519.9042116440346,207.08143236807382L515.9874180179222,205.30111867871892L512.4750269533401,206.16725105514251L512.6808875612292,203.96712983573343L510.24903011580864,207.05620565863L511.1113177122065,210.07190743900628L509.48338628701686,210.1873964995625L508.49189629451257,208.82372057614975L507.88594925452026,208.83541747508343L508.02931981461734,211.80322463862967L504.3772175170611,211.78617266040965L507.3770212977356,211.2984714848285L505.90128034929967,209.73066944005768L503.1788347987617,210.24757688079626L508.47237988318966,207.3144407218074L505.86130923764904,205.994299849252L508.50212364467643,205.2878322506258L508.5010915267694,191.13270259824958L507.46259325507026,190.24548276031555L516.4400486343552,189.36427545352262L522.5503742983965,191.13160370512514L524.3430692730149,187.59095630242564L526.0455008452691,187.58716962902554L526.0500046324973,189.3502310742051L533.1240469344702,189.36293207912286L533.1235777899665,184.04759318752122L538.7427091594341,183.6335615697344L538.7968484350718,177.40510163862564L541.3381103785755,177.4277269475101L542.3949991147897,175.19645520272388ZM519.0622849190659,200.0092676776594L519.0612528011588,201.92044861093154L520.2326127960896,201.7741161068493L520.3477408571107,200.54299317523328ZM520.4642763516413,204.19656707107288L520.0586540144018,204.42977715264078L521.6516810885714,206.70217068011334L521.232265902946,204.65420375676604ZM520.0247817812883,205.3140394052034L520.3275676434846,205.14399618274683L519.7004152719592,204.60983091018534L519.7010720742633,204.87252938493384ZM521.8551959739452,203.81193309197124L522.11012909684,203.81303032958158L522.1103167546407,203.5456658713597L521.8551959739452,203.5457877905087ZM522.6291905748885,203.10235615861302L522.9939973403721,203.3839995218177L522.9937158536704,203.10333156314346ZM522.5130303959618,210.60061022115178L522.6174619623157,210.58623579142068L522.5244775218334,210.27876330609797L522.5122797647568,210.2786414843481ZM524.0250831289245,205.91592826046144L524.1934121765785,205.87217148852778L524.2151804815148,205.74150924564174ZM507.40638974361946,206.99527126624935L507.40657740142024,207.0593742349788L507.4946827390718,207.05913049837818L507.4934629633649,206.9950275277929ZM520.1295886632456,201.11168581220545L520.1294010054448,201.20498042014015L520.2245435106406,201.2047365140179L520.1565175577148,201.1249788325954ZM522.9531817686166,210.54713234583187L522.9529002819149,210.6002447698511L523.0207385770391,210.59987931853357L523.0067580708524,210.54749779943177ZM522.9300060301707,210.60000113564092L522.9302875168737,210.5520050592222L522.8660147199703,210.5522486948198L522.8656394043687,210.60097567243474Z" stroke="#FFFFFF" stroke-dasharray="1, 0" stroke-width="1"></path><text x="516.5822392756638" y="193.42424832833177" title="Denver" class="hint " style="">Denver</text></a><a id="s04" rel="nofollow " title="Adams" class="hint   "><path d="M634.9358165547442,164.70584347654858L634.8614102365777,196.4979832450863L524.3200811923721,196.46686775241096L524.7624844586398,194.68137773852322L527.86550002996,194.6838186917903L526.9703723183579,192.9938991762133L538.3994830410861,192.91479602729987L538.4205007148171,189.36280995416973L535.7641107102922,189.35939045468376L535.7819382014027,186.29166063400316L545.8231318266444,187.55724263400316L549.1799545740528,185.87419661673403L549.2353136253996,180.20638436117315L550.5389723701587,180.21934372825217L551.0718266965932,177.04859208687867L543.5656084785164,175.2091776554562L538.7968484350718,177.40510163862564L538.7427091594341,183.6335615697344L533.1235777899665,184.04759318752122L533.1240469344702,189.36293207912286L526.0500046324973,189.3502310742051L526.0455008452691,187.58716962902554L524.3430692730149,187.59095630242564L522.5503742983965,191.13160370512514L516.4400486343552,189.36427545352262L508.49771368634947,190.2474365540702L508.52886488134345,175.1916842779642L512.047354824464,174.3333629379731L512.0262433218318,171.65103127099064L513.7765276333853,171.64919552337733L511.9158067058397,170.46946086801972L512.021364219001,166.97713764666332L513.7567297353621,166.98142344872667L513.7663941121223,168.53861616410086L514.6153580046357,168.54645159539723L515.4049282030774,164.66579086048296Z" stroke="#FFFFFF" stroke-dasharray="1, 0" stroke-width="1"></path><text x="566.7890726478746" y="180.13483365307232" title="Adams" class="hint " style="">Adams</text></a><a id="s05" rel="nofollow " title="Arapahoe" class="hint   "><path d="M634.8614102365777,196.4979832450863L634.8105549724601,217.65111566331962L508.430907509131,217.6628003254591L508.48532827147164,209.70886190084912L511.1113177122065,210.07190743900628L510.24903011580864,207.05620565863L512.012075157842,206.1750514486689L512.0233346259142,203.95993696267305L512.4750269533401,206.16725105514251L515.9874180179222,205.30111867871892L519.9042116440346,207.08143236807382L521.6218434981834,210.6131573728294L524.2633147075153,210.6076756098305L524.747847150149,207.0827729157363L527.8291882454323,206.5939463473328L525.6365006676101,204.4352629367122L522.5475594313775,205.31001691700703L522.3953689546247,203.10211230746518L522.5484977203832,203.98468529672346L523.8829323445348,203.5481042540714L522.5505619561973,201.54071049763752L526.0734618576448,201.77972556639816L524.3200811923721,196.46686775241096ZM520.1025659398774,200.7388629171478L519.6846520166605,201.2001022963318L520.1794118094563,201.33242040285768L520.2326127960896,201.7741161068493L519.0612528011588,201.92044861093154L519.0622849190659,200.0092676776594ZM520.5071561592081,204.19595752240775L521.232265902946,204.65420375676604L521.6516810885714,206.70217068011334L520.0586540144018,204.42977715264078ZM519.9129377317904,204.60800235380248L520.0976868370453,204.72746720326313L520.3275676434846,205.14399618274683L519.9153772832046,205.31416129875106ZM522.1103167546407,203.76584898329247L521.8551959739452,203.81193309197124L521.8551959739452,203.5457877905087L522.1103167546407,203.5456658713597ZM522.9937158536704,203.10333156314346L522.9939973403721,203.3839995218177L522.6291905748885,203.10235615861302ZM522.6174619623157,210.58623579142068L522.5130303959618,210.60061022115178L522.5122797647568,210.2786414843481L522.5715796299282,210.38523484182952ZM524.1934121765785,205.87217148852778L524.0813804692771,205.96711973853553L524.0250831289245,205.91592826046144L524.2151804815148,205.74150924564174ZM520.2245435106406,201.2047365140179L520.1294010054448,201.20498042014015L520.1295886632456,201.11168581220545L520.1565175577148,201.1249788325954ZM523.0207385770391,210.59987931853357L522.9529002819149,210.6002447698511L522.9531817686166,210.54713234583187L523.0067580708524,210.54749779943177ZM522.9300060301707,210.60000113564092L522.8656394043687,210.60097567243474L522.8660147199703,210.5522486948198L522.9302875168737,210.5520050592222Z" stroke="#FFFFFF" stroke-dasharray="1, 0" stroke-width="1"></path><text x="566.5781911950227" y="207.414677657189" title="Arapahoe" class="hint " style="">Arapahoe</text></a><a id="s06" rel="nofollow " title="Boulder" class="hint   "><path d="M489.9946544905506,132.44995734760778L508.3187819729287,132.57672748826553L508.5390922315073,167.4297062208525L507.13325381400955,168.23878297713145L506.0029908775359,169.40610077028032L505.23265560371556,169.6219173654099L506.7547480290409,169.87530808081465L506.31759918120497,171.6203130412341L503.2315666408913,173.81424137860085L503.2201195150201,170.74693805193374L502.1610727140919,170.6578330156085L503.22321586873977,169.95891309289254L501.4807193559336,170.3059322920035L499.6790168068578,175.2407390413332L476.1512323268121,175.35095829744523L476.1520767869183,172.6760498910162L448.41278210401606,171.8380306529407L448.78809770636553,163.00521449340795L453.36347638569896,160.46495784445688L452.40820434882016,157.53839268473894L454.7230571552068,150.1443005128358L453.8315887707281,146.7816846266851L450.8335677391656,145.2653640504932L449.9120741064994,141.4931303144649L451.57575434281125,134.14502542635728L453.07429571408784,134.0298351749516L452.19690166469763,132.7979250761582ZM503.42438503159883,169.84176791449408L503.2546485504354,170.05488033511392L504.9582060694979,169.87261507972016L504.12022015835237,169.71629712249705ZM508.0843035503617,167.79629820862738L508.53693416679334,169.85253995336188L505.7519047395649,169.68043049191874L506.31487814308775,169.29004961422834L507.18729926074775,168.3225267695634Z" stroke="#FFFFFF" stroke-dasharray="1, 0" stroke-width="1"></path><text x="471.07283642955537" y="153.18581668677191" title="Boulder" class="hint " style="">Boulder</text></a><a id="s07" rel="nofollow " title="Broomfield" class="hint   "><path d="M517.1432962442555,160.57586206853284L517.1179624410975,164.66493346293373L515.4049282030774,164.66579086048296L514.6153580046357,168.54645159539723L512.021364219001,166.97713764666332L511.9158067058397,170.46946086801972L513.7765276333853,171.64919552337733L512.0262433218318,171.65103127099064L512.047354824464,174.3333629379731L505.87857375535714,177.0600886864081L499.6823008183783,175.20819900593142L501.3975869500141,178.11379514794635L498.0061413382882,177.94858136139283L501.4807193559336,170.3059322920035L503.22321586873977,169.95891309289254L502.1610727140919,170.6578330156085L503.2201195150201,170.74693805193374L502.33587595588597,172.83255733340184L503.2315666408913,173.81424137860085L506.31759918120497,171.6203130412341L506.7547480290409,169.87530808081465L505.22036401773767,169.8458074306909L505.1769212367658,169.78472484123358L506.09681977812306,169.34048554639867L507.13325381400955,168.23878297713145L508.5390922315073,167.4297062208525L508.5222030294017,164.6585642212558L514.4717059578365,163.75996258578562L513.6005984447847,161.53558168515883L515.3653324070297,161.09813378009858L515.3540729389588,159.80403618754372L515.4476203528438,159.3343860642026ZM507.9208536055394,167.8979224028053L507.18729926074775,168.3225267695634L505.7519047395649,169.68043049191874L508.53693416679334,169.85253995336188ZM515.3848488183512,161.0798756527438L516.0217593955381,161.08453209169693L516.0276706162745,160.64669294651685L515.3858809362582,160.64485478253118ZM504.1201263294529,169.73392435218648L504.9582060694979,169.87261507972016L503.2546485504354,170.05488033511392L503.42494800500253,169.8241409118964Z" stroke="#FFFFFF" stroke-dasharray="1, 0" stroke-width="1"></path><text x="499.5676770947579" y="170.38753200724398" title="Broomfield" class="hint " style="">Broomfield</text></a><a id="s08" rel="nofollow " title="Chaffee" class="hint   "><path d="M378.27839995318936,279.44483854284454L401.75279578880145,279.52555406285273L401.5585699645858,284.0948857705057L403.9212755102726,287.5467781413299L405.906882704498,286.37972153802775L409.3881225740847,287.84144468666636L409.4594325385315,293.74832533138806L417.13229088405114,293.2608454117162L422.87020964166004,297.6689891650726L422.07172569766317,300.4812959356118L426.5945601926692,301.55170209867856L425.1204143355435,305.5772133450141L428.43567087999054,309.5958983883438L424.84737223483535,314.19542018174343L424.94176410882574,320.5015823771828L422.3007620439971,323.8733315365871L426.9446358207606,325.2007964112795L428.2836680610412,328.30831133167703L427.39876769960165,330.55209025970953L431.0818335343524,333.87463931878256L430.48311131970513,338.965439694236L426.6714998911516,341.4812823796783L425.4329584033999,346.0791472130586L418.6036218741601,352.86497315583074L414.1192572283944,351.63450215189096L412.21058973264917,355.6051671650971L397.20265708372426,355.7790652024537L390.42511410760835,347.0680073900803L387.4093594138344,346.0263920337811L386.3893454355498,341.4034269165668L387.37370443161126,338.3317141331536L385.52048981611233,332.69441471743494L383.5462359188573,331.51042537997364L384.03893147584085,329.8182834537033L379.3828599420008,328.2070283627868L377.2894433410006,322.5395302279917L380.6693479979526,318.93645094228805L380.6440141947942,307.45045744357367L383.6700900676319,307.46358508935964L386.90925137370505,303.79428818909673L389.5845009872469,299.05524586534557L389.03738466792265,297.03208942451965L384.7266973171454,297.57361397404975L383.9122624600486,295.24967580324983L381.83198190512894,297.08056396004395L380.1664250908052,294.97383884503324L376.03391882224196,297.1145683211271L370.30444466568633,291.7505790522446L370.0633043911762,288.6229076513864L367.6442076762364,286.4629069119037L363.4189046249935,286.54790245146023L363.6318962293258,280.89675541672295L365.3969116782723,279.3035845454192Z" stroke="#FFFFFF" stroke-dasharray="1, 0" stroke-width="1"></path><text x="392.37183557697796" y="316.5824765967668" title="Chaffee" class="hint " style="">Chaffee</text></a><a id="s09" rel="nofollow " title="Clear Creek" class="hint   "><path d="M449.557588520081,183.36530999031856L459.26568954823733,186.4420501053687L462.3857819794639,192.3956020948708L476.14569642167817,195.61499065649014L476.1576126920522,217.69493306293407L434.94833486975085,217.31651363001856L440.65360116995635,212.29053124119446L439.8803572002166,209.76417253282534L433.8336475307733,208.14953749614688L432.3247849804302,205.35901800598822L430.43394497579766,206.60576821709446L426.56050030175584,204.62372792574342L427.04278085077476,200.14892261478235L430.67048763417733,196.55643125143706L430.22198548937104,189.52010542554217L441.7674440488263,189.7960981243723Z" stroke="#FFFFFF" stroke-dasharray="1, 0" stroke-width="1"></path><text x="444.1256502343788" y="202.62674499032852" title="Clear Creek" class="hint " style="">Clear Creek</text></a><a id="s10" rel="nofollow " title="Conejos" class="hint   "><path d="M393.78353194632564,477.22660823114893L415.97716328892193,477.2562543801673L416.017509716175,482.4334769835323L443.7546463343633,482.44622560943935L443.05655931399406,485.14061382856426L445.9540895930277,490.77093966965504L443.4750362106133,495.1709524501857L444.87430660507016,505.9975239048449L441.1154270186462,519.1271113684734L445.950148779204,524.9521476009741L374.9570445302029,525.1926261614499L364.36348016720467,507.94185961280164L363.5753174022725,501.5035731758494L355.96748248485983,497.5567461884398L356.0290342436451,477.62664570449715Z" stroke="#FFFFFF" stroke-dasharray="1, 0" stroke-width="1"></path><text x="392.7706177143605" y="500.88976313211015" title="Conejos" class="hint " style="">Conejos</text></a><a id="s11" rel="nofollow " title="Costilla" class="hint   "><path d="M485.8157029161971,447.3734072917118L491.36042796749825,451.226354894673L496.12346444800687,451.7487510417686L495.36710968037187,454.59118034013864L493.00055714976133,455.76341535759275L496.73419676192907,459.96643169024765L497.00892778284697,470.66362436770805L498.8518212192821,470.62119046107637L501.3392253738498,476.23121952483416L497.6420852040101,480.342217924308L497.9505946291406,490.1776040573859L499.01095503467695,489.9426647404666L498.91168405785584,524.8443002037211L445.950148779204,524.9521476009741L441.1154270186462,519.1271113684734L443.99700638458125,512.472326194184L443.21250294677066,508.551782871893L445.03372190716937,503.29779869816L443.4750362106133,495.1709524501857L445.9540895930277,490.77093966965504L443.1231778334118,483.07312846314244L472.01741245364246,452.29646375105085Z" stroke="#FFFFFF" stroke-dasharray="1, 0" stroke-width="1"></path><text x="464.3491290361997" y="491.59214056131674" title="Costilla" class="hint " style="">Costilla</text></a><a id="s12" rel="nofollow " title="Dolores" class="hint   "><path d="M188.6482214595162,418.9391799930313L207.94732504789636,418.75464971496103L212.3416139490978,427.4761114307771L218.80961538217616,426.13971983701276L221.36391954286182,423.4437463572908L223.40573024854166,425.23679773989033L233.00133042489324,423.2738092640393L234.5458479574595,426.0708159028227L236.62143706734787,425.7548012655343L242.0712072712554,429.624364580724L244.98196742527261,432.7039001591802L244.91713165496594,435.23824164267216L243.48624092101136,439.93976752442995L234.95381601721283,442.2632030945233L236.01792957877205,447.8451930900346L234.9909722618445,449.00778056321724L145.9722102632336,449.90648544713713L134.09853820952276,467.3924246856509L134.2120711792336,420.3466898556667Z" stroke="#FFFFFF" stroke-dasharray="1, 0" stroke-width="1"></path><text x="174.4962235109011" y="435.75052773865883" title="Dolores" class="hint " style="">Dolores</text></a><a id="s13" rel="nofollow " title="Douglas" class="hint   "><path d="M509.3261290496339,217.72536167882572L545.3473254717665,217.69091647744017L545.1659542069319,270.6495210548155L482.6742174956371,270.5919453712304L486.9905345804491,262.02394972227603L489.1074084065981,260.8713154963448L489.7224568499464,256.88038853807393L493.10198619129596,254.80636274994413L497.8828501629173,242.4605374565881L497.42215026103395,237.06089829940356L501.900885172764,233.73580826428497L500.84624833016323,229.23387543428862L505.38784860528676,226.4973746230994L506.2924530358473,220.88532394583763ZM541.9747394690594,196.47077244800494L541.8431913504364,196.47040638287217L541.9103728432574,196.47052840458628Z" stroke="#FFFFFF" stroke-dasharray="1, 0" stroke-width="1"></path><text x="511.2075037672014" y="246.36148837964365" title="Douglas" class="hint " style="">Douglas</text></a><a id="s14" rel="nofollow " title="Eagle" class="hint   "><path d="M342.5432878489455,174.6474140285054L378.94411600285594,173.88655083511003L378.89532497455,180.26457909787996L383.49791403505515,192.9708275013586L385.7152786137317,195.13330815363543L387.6650431679345,194.0157033301566L392.36896744107344,200.86509037869246L397.23615400123526,203.78669658751141L397.383465375156,205.7210321432558L402.84083572000964,208.38958356184185L402.9957472348792,212.4085475243187L400.3251890663664,213.08336432929264L399.57831101769216,215.7522648538975L401.1397177523636,219.57667572657374L399.8429085173475,222.0535059608701L396.34759431267275,220.3903611876758L395.30609351615476,226.3591280448327L398.7132085542771,233.83068665579685L398.0873697873608,235.93462415202248L400.56839357668787,239.1702251566212L393.0495084570325,243.99146214739403L390.34338913519605,242.44500351277065L386.11527121693507,243.33221307756412L382.13476776732386,240.17819883693937L379.3628743861768,242.94753643128251L315.1739605210596,242.00033229994278L315.16335785529327,174.62294611554898Z" stroke="#FFFFFF" stroke-dasharray="1, 0" stroke-width="1"></path><text x="345.4022646806427" y="210.19054555483598" title="Eagle" class="hint " style="">Eagle</text></a><a id="s15" rel="nofollow " title="Routt" class="hint   "><path d="M339.36755487967184,43.2856315728377L337.7235787124828,44.613982101236616L339.77758717523693,50.67868262451884L342.2632085806931,49.846494319383055L343.7073291896304,53.7393317188662L347.49266852602204,53.20652235397665L350.1425843364045,55.00033337993591L350.28698701440953,57.23363969796628L355.2987639103749,55.5003856469566L358.24611733562006,60.04761482228696L357.41000800248685,62.67041119138321L360.02886644677756,64.73564037888809L359.89938256396727,67.39325393620766L356.80565605380616,70.90567370132703L356.9894668700563,78.96724764091596L355.1625243467229,80.6548598548543L355.8146352058029,84.95956546936759L353.3974150688746,88.89108975717409L354.6791178508961,96.31161038496248L358.13877707334905,102.12192450327075L357.05880642758984,106.54867835346067L358.6652510345434,109.31345857603446L358.3969003788643,122.76532628834048L360.3412228568318,122.77677483376556L359.8854958866791,164.4122423267363L360.92277438267274,164.7076807479125L360.94313525409825,174.61401530951753L322.8333075048954,174.60948873296184L322.28797393468085,137.07501779235008L284.61004061487847,137.296464508775L285.59599470224884,98.02840183363514L290.98393166066944,97.99901575277363L290.97726980872676,90.85695341866085L296.35582387708837,90.85781846376995L296.0274227250334,40.916611539910264L339.1119649544712,40.960127028654824Z" stroke="#FFFFFF" stroke-dasharray="1, 0" stroke-width="1"></path><text x="317.65371919919227" y="104.81845167843437" title="Routt" class="hint " style="">Routt</text></a><a id="s16" rel="nofollow " title="Saguache" class="hint   "><path d="M416.5241857793453,351.7852352770192L450.2854193019357,387.2092144723788L451.4338850451222,394.20166096216553L456.8544744609462,402.4808229093301L458.6644339532736,410.0687637464803L463.750148022903,411.7693622837178L469.07324921101554,418.46357858487545L468.6734442656143,420.42871529616514L471.18815263025317,420.68429688611604L473.2280867579184,423.7338201711964L470.50808075879604,435.7415332747187L364.64158902854524,436.1794126891605L364.5797557830588,425.9000981322515L354.53499665959407,425.7668005256637L354.2929180960805,420.9912226853039L348.90319838854975,420.54414399853295L344.63285746502333,416.31282411635084L340.46760491015584,415.87632981050865L335.5779932427549,410.05852821181315L331.1293774081132,411.77804888658784L328.8848024482663,409.19667698955527L325.79876990795356,411.42010609967656L325.7695891198705,355.3644347738282L411.50968784526276,355.76349596142563L414.1192572283944,351.63450215189096Z" stroke="#FFFFFF" stroke-dasharray="1, 0" stroke-width="1"></path><text x="384.30770010329513" y="396.48369200238045" title="Saguache" class="hint " style="">Saguache</text></a><a id="s17" rel="nofollow " title="San Juan" class="hint   "><path d="M265.8214600745937,410.38225094343215L272.44418536474086,410.3302418866574L275.83150250484005,412.88010648284853L276.98465969305744,417.92421531487525L275.47955029873765,420.54331187121124L277.33088833622287,426.8435781372382L280.30732872065073,427.335354448624L282.7263316066892,430.6177893431368L282.0423189214089,433.96309120933256L280.5991366014773,433.9121715467395L280.58890925131254,449.09724046745623L234.9909722618445,449.00778056321724L236.01792957877205,447.8451930900346L234.95381601721283,442.2632030945233L243.48624092101136,439.93976752442995L244.30067577810905,433.9386403126432L246.91587489527546,433.04126902266944L248.65649483006973,430.59202299321123L248.11134891765687,428.5555295275826L251.07371496699716,427.298769141461L252.39210484914793,421.94949419679597L256.5582956930216,417.43191029731224L260.0780054118486,419.03608061087834L264.7724529660286,416.9608650034511L265.99785840769664,415.52688079696236Z" stroke="#FFFFFF" stroke-dasharray="1, 0" stroke-width="1"></path><text x="253.48866469258542" y="434.1973449835989" title="San Juan" class="hint " style="">San Juan</text></a><a id="s18" rel="nofollow " title="San Miguel" class="hint   "><path d="M144.75159009549452,387.90500105130195L235.21222080943016,388.03517891663614L236.51841293450434,388.9166621165741L236.53530213660997,392.384219832461L242.17000910357274,392.398292416598L242.31638218849093,404.72168224144616L251.20516925671882,407.6067722554694L252.6183263284629,410.7516610575376L255.59279630597757,411.862772560517L256.86230133092386,416.8160143696591L252.39210484914793,421.94949419679597L251.07371496699716,427.298769141461L248.05223671028625,428.63735939371327L248.65649483006973,430.59202299321123L246.6447093725783,433.12543115495373L242.6764975089436,431.6794871374964L239.34726045830848,427.15408938560176L234.5458479574595,426.0708159028227L233.00133042489324,423.2738092640393L223.40573024854166,425.23679773989033L221.36391954286182,423.4437463572908L218.80961538217616,426.13971983701276L212.3416139490978,427.4761114307771L207.94732504789636,418.75464971496103L155.36607830332377,418.6243347521554L155.0206941202623,420.3466898556667L134.2120711792336,420.3466898556667L134.20372040708162,387.6102740325837Z" stroke="#FFFFFF" stroke-dasharray="1, 0" stroke-width="1"></path><text x="184.9485438162456" y="405.74763324056676" title="San Miguel" class="hint " style="">San Miguel</text></a><a id="s19" rel="nofollow " title="Fremont" class="hint   "><path d="M430.2081926409851,323.038332419409L491.18571855460414,322.811356364341L490.9547118013593,328.7518758470874L518.9145044006405,328.4667813438109L519.0957818365755,375.38964253886843L436.5765477816399,373.5915708899074L418.4497424771962,353.63371897705656L425.4329584033999,346.0791472130586L426.6714998911516,341.4812823796783L430.48311131970513,338.965439694236L431.0808952453467,333.7404027729417L427.39876769960165,330.55209025970953L428.2836680610412,328.30831133167703L426.9446358207606,325.2007964112795L422.4846666891485,323.2209428096221Z" stroke="#FFFFFF" stroke-dasharray="1, 0" stroke-width="1"></path><text x="463.09246026910574" y="349.39290372109235" title="Fremont" class="hint " style="">Fremont</text></a><a id="s20" rel="nofollow " title="Sedgwick" class="hint   "><path d="M790.1686015798468,72.35577626806025L733.8402038614245,72.45213518796027L733.5807669512992,40.98325230863338L790.1412035408757,41.05337372635586Z" stroke="#FFFFFF" stroke-dasharray="1, 0" stroke-width="1"></path><text x="752.9076868927762" y="56.70042342834076" title="Sedgwick" class="hint " style="">Sedgwick</text></a><a id="s21" rel="nofollow " title="Summit" class="hint   "><path d="M383.7005844603236,175.23584581099976L396.5539240650646,175.4414813523531L402.7948595587227,182.98399913553703L407.93236718147546,184.11614839958747L411.06644011888875,187.35471347226803L414.16767294109786,198.28747946037856L417.2398188041234,202.6868235498482L426.73408376784346,201.46241939218498L426.56050030175584,204.62372792574342L428.0121272227402,205.9498121783804L432.3247849804302,205.35901800598822L433.8336475307733,208.14953749614688L439.8803572002166,209.76417253282534L440.6939475972081,212.90300439624116L434.84606136810953,216.83047111279348L436.94426324304095,219.40253904159908L436.2695396189197,222.0803909807687L432.86054800278407,221.85423785153716L432.03757471573454,223.37077131759997L433.3128033036146,225.08951261646962L428.495252231864,230.61467588588857L422.78914147155456,233.2148692831579L424.1497543589685,236.14072627437145L418.2870431635779,239.52108110124072L417.683629503902,242.49233340906994L398.4730065687745,240.28575103402363L400.7945212271029,238.47587604470527L398.0873697873608,235.93462415202248L398.67849186106105,233.72499619057453L396.0923797030764,229.96532302798596L395.65316661942643,221.88209674047084L397.4370416773918,219.82102079828974L399.8429085173475,222.0535059608701L401.25043585505773,218.7621816419737L399.7941174890425,214.5041880567478L402.9075480683273,212.55847088490873L403.1167865166367,209.2317621736429L402.4186056673666,207.16491152015715L395.3848159637473,203.79608408834247L394.89212040676375,201.2476638828689L392.36896744107344,200.86509037869246L387.6650431679345,194.0157033301566L385.7152786137317,195.13330815363543L383.28023098569247,192.5898305261344L378.26197989558614,174.65377567416863Z" stroke="#FFFFFF" stroke-dasharray="1, 0" stroke-width="1"></path><text x="399.943353096136" y="209.66801805873612" title="Summit" class="hint " style="">Summit</text></a><a id="s22" rel="nofollow " title="Grand" class="hint   "><path d="M434.07000253135357,105.35302188568312L437.77174031731965,106.43840838125016L436.8015494852484,112.52794802494736L439.64935044697086,117.94556386442127L447.61870811834524,124.86482407306994L449.4484655086976,131.2544604780469L453.07429571408784,134.0298351749516L451.57575434281125,134.14502542635728L449.88767859234713,140.9615230122654L450.8335677391656,145.2653640504932L454.7380697793019,149.0707424860302L452.40820434882016,157.53839268473894L453.57074442709563,159.91850327642805L452.2383740387577,162.20482042414278L448.78809770636553,163.00521449340795L448.3940163238972,171.70708257112892L450.1160581363756,172.9374242491158L447.83761094341617,177.97805348940528L448.6933305167713,182.79113723846967L444.40985354716304,188.50899098169884L438.5611228579605,188.75570485185108L436.15703876711495,190.85821904992963L430.22198548937104,189.52010542554217L430.48564470002157,197.06511918883962L425.63994495809584,202.27700149447264L419.9300810417599,203.29243598153607L417.2398188041234,202.6868235498482L414.3816028344363,198.72079579844012L411.06644011888875,187.35471347226803L407.93236718147546,184.11614839958747L402.7948595587227,182.98399913553703L396.4488356964066,175.38508805056972L360.9412586760877,173.91310085113764L360.92277438267274,164.7076807479125L359.8854958866791,164.4122423267363L360.3412228568318,122.77677483376556L358.3969003788643,122.76532628834048L358.44071847543864,110.10970792291937L361.25980779358133,111.81858689151522L362.4862453531564,118.25632659641269L369.4750910133944,119.8717850683488L373.80463797319044,114.14649398308393L378.0872704826934,122.14388048675846L386.1917417709137,120.73782312910225L390.9884628267341,124.36083053435686L392.2403280183685,120.84999633992811L394.7231345568066,120.37568170493432L398.0364206943418,125.01509315221665L401.9174655093316,124.60809272365714L403.6365047969898,122.45153151690556L406.89490102768104,124.15491668345294L410.12514858819804,121.2409284511632L417.8796380772292,118.84838176742142L423.4450054866584,121.95145430050798L425.440840031049,119.73743209523491L424.7097252376725,117.43449829758447L428.733577639357,115.5227428129856L429.8333461831385,106.1067262036795Z" stroke="#FFFFFF" stroke-dasharray="1, 0" stroke-width="1"></path><text x="399.4422916434117" y="152.10923381401952" title="Grand" class="hint " style="">Grand</text></a><a id="s23" rel="nofollow " title="Gunnison" class="hint   "><path d="M286.3344281498703,255.39831809853968L290.4959275487149,256.58767830269653L290.4227410062563,262.20496170620436L292.6991239634044,265.3948626348706L298.03639331550676,267.62506138721074L299.3780527650024,271.96252808193594L319.5907683584014,271.97438002416857L326.8468387275125,277.7832341517078L326.1769003773197,282.14380277190503L334.4859186688209,287.2201101103219L338.7873169584391,285.14754141868434L340.3158835779068,287.9544317032319L344.4052285521989,288.9162094119679L349.7640785514368,283.01709858216054L349.36708847305226,281.2179874970225L354.44173073241154,279.58766099406967L358.16326641640126,280.9574026398118L362.17463957430573,286.8386194383079L367.6442076762364,286.4629069119037L370.0633043911762,288.6229076513864L370.30444466568633,291.7505790522446L376.03391882224196,297.1145683211271L380.1664250908052,294.97383884503324L381.83198190512894,297.08056396004395L383.9122624600486,295.24967580324983L384.7266973171454,297.57361397404975L389.03738466792265,297.03208942451965L389.5845009872469,299.05524586534557L386.90925137370505,303.79428818909673L383.6700900676319,307.46358508935964L380.6440141947942,307.45045744357367L380.6693479979526,318.93645094228805L377.3007028090701,322.6486945209508L379.3828599420008,328.2070283627868L384.03893147584085,329.8182834537033L383.5462359188573,331.51042537997364L385.52048981611233,332.69441471743494L387.37370443161126,338.3317141331536L386.3893454355498,341.4034269165668L387.4093594138344,346.0263920337811L390.42511410760835,347.0680073900803L394.40270886130065,353.13824095387554L396.63874539119433,353.7309903420314L396.42012405282685,355.71690783434997L325.7695891198705,355.3644347738282L325.71132137260565,388.65346735887897L272.50329757211057,388.6581204631402L270.6519595346249,376.500255092918L266.22595646502486,370.1680385291106L278.9212882011775,370.1692341741068L278.8587981533851,259.961351850719Z" stroke="#FFFFFF" stroke-dasharray="1, 0" stroke-width="1"></path><text x="313.9621622733996" y="326.23517118076524" title="Gunnison" class="hint " style="">Gunnison</text></a><a id="s24" rel="nofollow " title="Hinsdale" class="hint   "><path d="M325.71132137260565,388.65346735887897L325.79876990795356,411.42010609967656L322.00780083752716,412.33694818922595L319.501443245043,410.82746912740595L312.93088682362077,413.4640383737287L312.21356487863113,444.75590545709065L314.04322844008266,444.7995309426037L313.77806796702407,474.6445319304944L280.57793126994466,474.61995735873234L280.5991366014773,433.9121715467395L282.0423189214089,433.96309120933256L282.73946765277196,430.69366308608187L280.30732872065073,427.335354448624L277.33088833622287,426.8435781372382L275.47955029873765,420.54331187121124L276.98465969305744,417.92421531487525L275.83150250484005,412.88010648284853L270.6313171764955,409.7634778201759L270.8433704918216,406.3860537633673L274.41928372210214,406.4253461023818L277.89761489576995,398.98331786756034L273.83660624945514,396.71630938494127L272.20576612834884,389.09156411316053Z" stroke="#FFFFFF" stroke-dasharray="1, 0" stroke-width="1"></path><text x="288.6625809002347" y="427.4780324988987" title="Hinsdale" class="hint " style="">Hinsdale</text></a><a id="s25" rel="nofollow " title="Huerfano" class="hint   "><path d="M499.364971476592,407.34914139903367L501.71641755420933,412.05399277829747L507.27981455672716,412.80265048465935L507.5641161255062,416.1095655809736L512.2529339456519,420.2993762810984L546.6666536429248,418.03087775173844L574.390841872832,427.9062080042386L564.4622429282954,436.18676982614124L555.8724885662382,452.5678200396569L555.8424633180498,456.68250434275205L546.38479162556,466.05605069525063L542.5018702325597,466.2829919172673L541.9932237624753,472.7314099678565L533.8971970753087,477.3175542697745L518.0428339141858,478.5329524820595L504.2272789339231,488.7432214458104L498.0284726166292,490.3685466407642L497.84297288016796,478.7482368967803L501.3392253738498,476.23121952483416L498.8518212192821,470.62119046107637L497.00892778284697,470.66362436770805L496.73419676192907,459.96643169024765L493.00055714976133,455.76341535759275L495.36710968037187,454.59118034013864L495.8944281016725,451.3791678582634L491.36042796749825,451.226354894673L485.5989581558406,446.7820098171692L478.7556411204123,449.0159564067835L475.95559906908875,452.08787735100395L472.01741245364246,452.29646375105085L469.2004812002124,455.95557598229607L466.4934235893711,453.90718614147727L468.6909902700231,440.9756703688772L470.8848976235545,438.98073097996075L470.8277558230966,430.5294472568844L472.62373480923634,429.4549035343698L473.2956435663409,424.72113996682447L471.18815263025317,420.68429688611604L468.6734442656143,420.42871529616514L469.0487598679633,418.57510943468696L474.70607959996914,419.2005119654523L483.65519865127544,413.4703438638812L486.82764760903,418.1254102629873L495.253858197364,405.29961009238605L498.30367278205085,404.2311340232759Z" stroke="#FFFFFF" stroke-dasharray="1, 0" stroke-width="1"></path><text x="508.2197623431938" y="443.7223771351187" title="Hinsdale" class="hint " style="">Hinsdale</text></a><a id="s26" rel="nofollow " title="Jackson" class="hint   "><path d="M376.6847160767161,41.053622382799404L401.7565489448243,41.60313468548247L402.3054480132587,49.49414562077982L407.3491267354243,54.135440412274875L407.4043919578703,56.963878211981864L414.1848436299051,63.98273551747934L420.5008422440328,75.04138998014605L424.635975721812,88.7248362713417L428.07489875723377,94.96711986544415L428.3385579678843,101.267268663295L431.01024208320405,100.33883344503374L433.51997751611134,102.38996588649206L432.996506079734,105.33180368462308L429.1277528507235,107.45841127825679L428.733577639357,115.5227428129856L424.7097252376725,117.43449829758447L425.440840031049,119.73743209523491L423.4450054866584,121.95145430050798L417.8796380772292,118.84838176742142L410.12514858819804,121.2409284511632L406.89490102768104,124.15491668345294L403.6365047969898,122.45153151690556L401.9174655093316,124.60809272365714L398.0364206943418,125.01509315221665L394.7231345568066,120.37568170493432L392.2403280183685,120.84999633992811L390.9884628267341,124.36083053435686L386.1917417709137,120.73782312910225L378.0872704826934,122.14388048675846L373.80463797319044,114.14649398308393L369.4750910133944,119.8717850683488L362.18693116028226,118.07144695997431L361.25980779358133,111.81858689151522L358.63147263033215,110.65747023088079L357.05880642758984,106.54867835346067L358.13877707334905,102.12192450327075L354.6791178508961,96.31161038496248L353.3974150688746,88.89108975717409L355.8146352058029,84.95956546936759L355.1625243467229,80.6548598548543L356.9894668700563,78.96724764091596L356.80565605380616,70.90567370132703L359.89938256396727,67.39325393620766L360.01103895566575,64.65394367876252L357.41000800248685,62.67041119138321L358.24611733562006,60.04761482228696L355.2987639103749,55.5003856469566L350.28698701440953,57.23363969796628L350.1425843364045,55.00033337993591L347.49266852602204,53.20652235397665L344.17093778743265,54.07411991540448L342.2632085806931,49.846494319383055L341.6580121719062,50.75803478013768L339.95398550834125,50.72798288032391L339.7017734235633,50.571760900943445L337.7245170014885,44.52437989530608L339.8554651627255,42.433922344687744L339.1119649544712,40.960127028654824Z" stroke="#FFFFFF" stroke-dasharray="1, 0" stroke-width="1"></path><text x="378.4813094061747" y="82.54668750608843" title="Jackson" class="hint " style="">Jackson</text></a><a id="s27" rel="nofollow " title="Jefferson" class="hint   "><path d="M493.5149271827813,175.21957579959462L499.6790168068578,175.2407390413332L497.9764914057023,175.64160722975066L497.96617022663895,177.844510901964L500.82776403674734,178.28096226027446L501.4074389845764,176.93643826204334L499.66644373417967,176.9303229612724L499.6823008183783,175.20819900593142L505.5885486236425,177.06143403213036L508.5280204212381,175.25505172365456L508.49771368634947,190.2474365540702L507.40695271702316,190.57786538522714L508.5010915267694,191.13270259824958L508.50212364467643,205.2878322506258L505.8593388307372,204.99906057528642L506.85233008565183,207.50223199063066L508.0492115415418,207.1084870159907L508.47237988318966,207.3144407218074L503.1788347987617,210.24757688079626L507.37777192893964,211.13792831250748L504.3772175170611,211.78617266040965L508.47547623690934,211.0049114714402L508.9189116210855,217.70479194649624L506.2924530358473,220.88532394583763L505.38784860528676,226.4973746230994L500.84624833016323,229.23387543428862L501.900885172764,233.73580826428497L497.42215026103395,237.06089829940356L497.8828501629173,242.4605374565881L493.0969194306658,254.81557260656155L489.7224568499464,256.88038853807393L489.1074084065981,260.8713154963448L486.9905345804491,262.02394972227603L482.7558486391472,270.51912850823055L476.1649313462981,270.6448037340315L476.1512323268121,175.35095829744523ZM507.984469600136,208.7995956708255L508.49189629451257,208.82372057614975L508.483264035659,209.9778582164713L507.8821960984974,209.32082446411823ZM508.478572590629,210.59232665446825L508.2604203967644,210.59269210611228L508.4818566021495,210.1719249556063L508.4835455223597,210.51192690787002ZM507.4946827390718,207.05913049837818L507.40657740142024,207.0593742349788L507.40638974361946,206.99527126624935L507.4934629633649,206.9950275277929Z" stroke="#FFFFFF" stroke-dasharray="1, 0" stroke-width="1"></path><text x="481.0425485202134" y="215.16096534286882" title="Jefferson" class="hint " style="">Jefferson</text></a><a id="s28" rel="nofollow " title="La Plata" class="hint   "><path d="M273.36652345751327,449.0914344880107L280.58890925131254,449.09724046745623L280.66190813596904,524.4677639519896L196.29602748857906,524.3533313817506L197.07302461434165,521.0923268575011L198.65225884012352,521.4579580084924L200.5917960441625,518.0700957178419L202.86817900130927,509.23168860347414L204.74203597493624,507.2566759954643L204.08983128695445,499.35954428111654L211.40332494322456,490.6087817196344L213.4554568279682,482.707332319575L221.9887261918716,479.5139126059721L224.6685734215439,472.7631982790408L228.41168975266874,471.1984632483973L229.84821022065944,454.7962735173496L234.5287710975531,449.1000842110925Z" stroke="#FFFFFF" stroke-dasharray="1, 0" stroke-width="1"></path><text x="237.7344811761562" y="490.6422217623456" title="La Plata" class="hint " style="">La Plata</text></a><a id="s29" rel="nofollow " title="Lake" class="hint   "><path d="M383.51977616889235,240.72432165014152L386.11527121693507,243.33221307756412L390.34338913519605,242.44500351277065L393.0495084570325,243.99146214739403L398.4730065687745,240.28575103402363L406.8936812519746,240.40604764156978L405.31641743310274,242.38808592850864L406.5202422276375,245.28809057983472L405.43182698082546,247.5184779809697L402.40481281898064,248.80571486053714L402.2912798492698,256.95804713585494L403.8780203871015,258.49495984550276L402.3335028545339,261.0163872057551L403.46892638054123,269.5839449918699L399.94555733459083,273.79164403954564L402.9378548032173,273.85076995695L403.7758407143615,275.6728320891193L401.75279578880145,279.52555406285273L365.3969116782723,279.3035845454192L364.64618664467434,274.79539898493204L366.80059203105657,273.3781138876375L367.0042007453326,267.4815543288646L371.70155699542966,266.5413175536405L373.3492863186416,262.3241006022872L372.8416719664651,257.8437410982074L374.51651784194564,254.85810747269215L372.5103621184903,250.19496937146687L379.0533328431402,248.0293211882331L379.4117592433827,242.72703724669873Z" stroke="#FFFFFF" stroke-dasharray="1, 0" stroke-width="1"></path><text x="378.38851395028036" y="261.88144987279964" title="Lake" class="hint " style="">Lake</text></a><a id="s30" rel="nofollow " title="Larimer" class="hint   "><path d="M417.0306741847148,41.63110661119117L518.8138259903121,41.510888813852944L518.5555150269934,121.81885861362753L508.18216709367425,121.80285341999752L508.3187819729287,132.57672748826553L449.8323195410003,131.77832617404874L447.61870811834524,124.86482407306994L440.87766458455735,119.8299154474671L436.9497991481762,112.85579903869439L437.77174031731965,106.43840838125016L433.24327608828025,104.88263121717046L433.51997751611134,102.38996588649206L431.9003968630759,100.62470681102059L428.3385579678843,101.267268663295L428.07489875723377,94.96711986544415L424.635975721812,88.7248362713417L420.5008422440328,75.04138998014605L414.1848436299051,63.98273551747934L407.4043919578703,56.963878211981864L407.3491267354243,54.135440412274875L402.1496920382838,49.156810659505936L401.7565489448243,41.60313468548247Z" stroke="#FFFFFF" stroke-dasharray="1, 0" stroke-width="1"></path><text x="461.1648417530238" y="82.38202797959724" title="Larimer" class="hint " style="">Larimer</text></a><a id="s31" rel="nofollow " title="Las Animas" class="hint   "><path d="M601.8587833752358,446.7481128858508L601.8671341473878,448.47491247039216L694.0351693653097,448.5543055810349L693.0673242557527,524.456837702116L498.91168405785584,524.8443002037211L499.01095503467695,489.9426647404666L504.2272789339231,488.7432214458104L518.0428339141858,478.5329524820595L533.8971970753087,477.3175542697745L541.9932237624753,472.7314099678565L542.5018702325597,466.2829919172673L546.38479162556,466.05605069525063L555.8424633180498,456.68250434275205L555.8724885662382,452.5678200396569L564.4622429282954,436.18676982614124L574.390841872832,427.9062080042386L601.774431193609,437.7826482260507Z" stroke="#FFFFFF" stroke-dasharray="1, 0" stroke-width="1"></path><text x="594.9003787167504" y="487.05894645157537" title="Las Animas" class="hint " style="">Las Animas</text></a><a id="s32" rel="nofollow " title="Montezuma" class="hint   "><path d="M167.92010371519063,449.9491375845655L234.64418064527445,449.0051737709214L229.84821022065944,454.7962735173496L227.8795860574396,472.23719929448725L224.6685734215439,472.7631982790408L221.9887261918716,479.5139126059721L213.88050174762793,482.13742040023453L211.40332494322456,490.6087817196344L207.3890430894021,496.86522305292965L204.58158855493184,498.33941757285584L204.74203597493624,507.2566759954643L196.3974565301137,524.4692912761757L133.9377154739168,524.6182628726929L134.09853820952276,467.3924246856509L145.9722102632336,449.90648544713713Z" stroke="#FFFFFF" stroke-dasharray="1, 0" stroke-width="1"></path><text x="167.09375923385596" y="484.4825591661792" title="Montezuma" class="hint " style="">Montezuma</text></a><a id="s33" rel="nofollow " title="Ouray" class="hint   "><path d="M267.6146241937163,373.3096249056857L271.456073212657,378.9048808154571L273.3064729611374,395.7605113521099L277.89761489576995,398.98331786756034L274.41928372210214,406.4253461023818L271.99099177490416,405.43250546139143L270.3939300580091,407.0804305098836L270.68479964983044,409.86440783683656L272.44418536474086,410.3302418866574L265.6216045163428,410.37665730687377L265.9631417144792,415.6195372902248L260.0780054118486,419.03608061087834L256.61459303337324,417.5165792192206L257.0735101861451,414.53876135816336L251.20516925671882,407.6067722554694L242.31638218849093,404.72168224144616L242.17000910357274,392.398292416598L236.53530213660997,392.384219832461L236.51841293450434,388.9166621165741L235.22441856650585,388.9253715078721L237.7983329674148,385.42623859553214L237.82179019256137,380.1029432893233L230.9211436988744,375.72636611663074L223.87224754226054,375.7595837037152L223.8985196344247,372.2711623935493L222.2169180780993,372.2937545785935L222.16062073774765,368.7620850911426L220.42093909196092,368.7838493323279L219.57826173578678,366.621508358975L266.17998030373656,366.55428535510373Z" stroke="#FFFFFF" stroke-dasharray="1, 0" stroke-width="1"></path><text x="244.70146395318784" y="387.60578691488223" title="Ouray" class="hint " style="">Ouray</text></a><a id="s34" rel="nofollow " title="Park" class="hint   "><path d="M466.5284217692897,217.67521526125756L476.1576126920522,217.69493306293407L476.1649313462981,270.6448037340315L482.48834244357295,270.64758574403913L482.50776502599365,322.7392228888939L422.4846666891485,323.2209428096221L424.94176410882574,320.5015823771828L424.84737223483535,314.19542018174343L428.43567087999054,309.5958983883438L425.1204143355435,305.5772133450141L426.67806791419116,301.6984943602747L422.07172569766317,300.4812959356118L422.87020964166004,297.6689891650726L417.13229088405114,293.2608454117162L409.4594325385315,293.74832533138806L409.3881225740847,287.84144468666636L405.906882704498,286.37972153802775L403.97109865648326,287.5962722080485L401.5585699645858,284.0948857705057L401.68430069137185,278.1125596469692L403.7758407143615,275.6728320891193L402.9378548032173,273.85076995695L399.94555733459083,273.79164403954564L403.46892638054123,269.5839449918699L402.3335028545339,261.0163872057551L403.8780203871015,258.49495984550276L402.2912798492698,256.95804713585494L402.40481281898064,248.80571486053714L405.43182698082546,247.5184779809697L406.5202422276375,245.28809057983472L405.31641743310274,242.38808592850864L406.8936812519746,240.40604764156978L417.683629503902,242.49233340906994L418.2870431635779,239.52108110124072L424.1497543589685,236.14072627437145L422.78914147155456,233.2148692831579L428.495252231864,230.61467588588857L433.3128033036146,225.08951261646962L432.03757471573454,223.37077131759997L432.86054800278407,221.85423785153716L436.2695396189197,222.0803909807687L436.94426324304095,219.40253904159908L435.62774993890343,217.81409089642693Z" stroke="#FFFFFF" stroke-dasharray="1, 0" stroke-width="1"></path><text x="437.16262846413906" y="271.75012816017136" title="Park" class="hint " style="">Park</text></a><a id="s35" rel="nofollow " title="Weld" class="hint   "><path d="M647.28501347663,41.31595072591608L646.5589654438872,100.36253316691545L593.4571559588567,100.2199635033212L593.2191120380662,164.60381303984195L517.1179624410975,164.66493346293373L517.1503334118001,159.2853605214632L513.6005984447847,161.53558168515883L514.4717059578365,163.75996258578562L508.30470763784115,164.6653009190386L508.18216709367425,121.80285341999752L518.5555150269934,121.81885861362753L518.8138259903121,41.510888813852944ZM516.0276706162745,160.64669294651685L516.0217593955381,161.08453209169693L515.3848488183512,161.0798756527438L515.3858809362582,160.64485478253118Z" stroke="#FFFFFF" stroke-dasharray="1, 0" stroke-width="1"></path><text x="561.4160578528375" y="96.40544570073331" title="Weld" class="hint " style="">Weld</text></a><a id="s36" rel="nofollow " title="Pitkin" class="hint   "><path d="M358.9220607354505,242.60446780093434L379.3628743861768,242.94753643128251L379.60420231848775,247.1926962836369L372.5103621184903,250.19496937146687L374.51651784194564,254.85810747269215L372.8416719664651,257.8437410982074L373.3492863186416,262.3241006022872L371.70155699542966,266.5413175536405L366.9554097170253,267.5929963605836L367.28568744709355,271.6998461101157L364.65838440175,274.7091982187558L365.45414730763105,279.9705631976017L363.6318962293258,280.89675541672295L363.6318962293258,286.30583196349517L362.17463957430573,286.8386194383079L358.81443898647603,283.628956367344L358.16326641640126,280.9574026398118L353.7126801748477,279.5435578696006L349.36708847305226,281.2179874970225L349.7640785514368,283.01709858216054L344.4052285521989,288.9162094119679L340.3158835779068,287.9544317032319L338.7873169584391,285.14754141868434L334.4859186688209,287.2201101103219L326.1769003773197,282.14380277190503L326.8468387275125,277.7832341517078L319.5907683584014,271.97438002416857L299.3780527650024,271.96252808193594L298.03639331550676,267.62506138721074L292.6991239634044,265.3948626348706L290.4227410062563,262.20496170620436L290.9547508725859,257.41768427490024L288.7896489915365,255.29556197097872L290.33454183970434,253.0764291717869L282.12704641863957,247.3634724639296L285.4111517680931,244.1779549294797L285.40280099593974,241.98394795321065Z" stroke="#FFFFFF" stroke-dasharray="1, 0" stroke-width="1"></path><text x="324.66421803370457" y="260.10369969847557" title="Pitkin" class="hint " style="">Pitkin</text></a><a id="s37" rel="nofollow " title="Mesa" class="hint   "><path d="M207.9774441249847,241.95397058497383L285.40280099593974,241.98394795321065L285.4111517680931,244.1779549294797L282.1748991579384,248.26205270773517L288.5075993163714,250.64951676471492L290.396468914093,253.4444058752565L288.25613786279746,255.6913116476535L285.51624013675064,255.18129278942297L285.49559777862123,257.19138211647714L283.4406510268609,258.4486881361472L280.38736477285283,257.8638501617179L274.89246286776233,264.28505174006114L267.7274065322208,267.6217943900224L261.2857710202079,275.70776796674636L253.99395183997285,281.0598495596846L245.24572046482263,276.6217315421359L240.67690980852876,279.0014937252654L233.66554521214903,279.0750840345254L223.12977945191324,288.7024501524047L223.82139227814287,290.7191302884603L218.78991131305247,295.3585849301012L218.79844974300659,297.51959569535757L196.44878093873376,306.88944256959985L196.4563810796817,346.45214111536416L132.54454395799848,346.4417104537397L133.40016970245324,241.92472130972283Z" stroke="#FFFFFF" stroke-dasharray="1, 0" stroke-width="1"></path><text x="179.3941738785954" y="283.875895707934" title="Mesa" class="hint " style="">Mesa</text></a><a id="s38" rel="nofollow " title="Mineral" class="hint   "><path d="M329.41127640946206,409.83929446286584L331.1293774081132,411.77804888658784L335.806935760188,410.1557653070872L340.46760491015584,415.87632981050865L344.63285746502333,416.31282411635084L348.90319838854975,420.54414399853295L350.55280428977267,419.4910830328722L354.5659601967882,421.24310301695414L354.37830239561436,446.07714010860855L352.87694615731834,446.0804589481413L352.97574798963706,477.87466694510476L313.7528279927651,478.248339159084L314.04322844008266,444.7995309426037L312.21356487863113,444.75590545709065L312.93088682362077,413.4640383737287L319.501443245043,410.82746912740595L325.0160492192558,412.6133503723304L327.07474912703856,409.85738562105234Z" stroke="#FFFFFF" stroke-dasharray="1, 0" stroke-width="1"></path><text x="323.9161182494305" y="445.36832884158497" title="Mineral" class="hint " style="">Mineral</text></a><a id="s39" rel="nofollow " title="Alamosa" class="hint   "><path d="M457.2770798291908,435.6539547715306L470.65492298821437,435.80335984922294L470.8529957973542,439.078952520656L468.416071591304,442.1140264062665L466.4934235893711,453.90718614147727L467.9449566814551,456.33207079229305L466.66325389943313,458.2815357940067L443.7546463343633,482.44622560943935L416.017509716175,482.4334769835323L416.0532585272972,436.11331684339984Z" stroke="#FFFFFF" stroke-dasharray="1, 0" stroke-width="1"></path><text x="430.5201615673482" y="456.874557576169" title="Alamosa" class="hint " style="">Alamosa</text></a><a id="s40" rel="nofollow " title="Baca" class="hint   "><path d="M791.0835271894721,450.1096736383606L791.0311706629454,525.2803810148203L693.0673242557527,524.456837702116L694.0351693653097,448.5543055810349L791.0826827293686,448.45808577885464Z" stroke="#FFFFFF" stroke-dasharray="1, 0" stroke-width="1"></path><text x="733.4016778330342" y="486.74784600383873" title="Baca" class="hint " style="">Baca</text></a><a id="s41" rel="nofollow " title="Bent" class="hint   "><path d="M725.3551625524206,374.3735376186487L724.8492371204543,448.53060621999794L663.2135014692171,448.5279992863889L663.6568430244911,374.56295347017067Z" stroke="#FFFFFF" stroke-dasharray="1, 0" stroke-width="1"></path><text x="685.2820429454582" y="411.49261356491377" title="Bent" class="hint " style="">Bent</text></a><a id="s42" rel="nofollow " title="Logan" class="hint   "><path d="M732.5396414703841,101.8433842735576L732.5647876157418,110.81551690605829L657.4887187576887,111.08475640785491L657.3095055575677,100.37142054511969L646.5589654438872,100.36253316691545L647.2681242745243,41.074385169078596L733.5807669512992,40.98325230863338Z" stroke="#FFFFFF" stroke-dasharray="1, 0" stroke-width="1"></path><text x="681.6522484299255" y="75.38924234943481" title="Logan" class="hint " style="">Logan</text></a><a id="s43" rel="nofollow " title="Prowers" class="hint   "><path d="M790.8156456782967,374.2273798494516L791.0826827293686,448.45808577885464L724.8492371204543,448.53060621999794L725.3551625524206,374.3735376186487Z" stroke="#FFFFFF" stroke-dasharray="1, 0" stroke-width="1"></path><text x="749.0311061834798" y="411.46998324999106" title="Prowers" class="hint " style="">Prowers</text></a><a id="s44" rel="nofollow " title="Archuleta" class="hint   "><path d="M313.77806796702407,474.6445319304944L313.7528279927651,478.248339159084L356.0290342436451,477.62664570449715L355.96748248485983,497.5567461884398L363.5753174022725,501.5035731758494L364.36348016720467,507.94185961280164L374.9570445302029,525.1926261614499L280.66190813596904,524.4677639519896L280.57793126994466,474.61995735873234Z" stroke="#FFFFFF" stroke-dasharray="1, 0" stroke-width="1"></path><text x="312.1779439083336" y="501.6547460076743" title="Archuleta" class="hint " style="">Archuleta</text></a><a id="s45" rel="nofollow " title="Cheyenne" class="hint   "><path d="M790.623953234397,282.5236913882177L790.7542815773122,332.63521311136765L684.9286992477168,332.9605167093091L685.8477533289692,281.71932216949153L790.6070640322914,280.626253888845Z" stroke="#FFFFFF" stroke-dasharray="1, 0" stroke-width="1"></path><text x="729.1687339065642" y="307.0277775439927" title="Cheyenne" class="hint " style="">Cheyenne</text></a><a id="s46" rel="nofollow " title="Phillips" class="hint   "><path d="M790.1686015798468,72.35577626806025L790.1466456171097,110.64514197037988L732.5647876157418,110.81551690605829L732.5775483462221,77.87700856527863L733.8770786193545,77.85708118298317L733.8402038614245,72.45213518796027Z" stroke="#FFFFFF" stroke-dasharray="1, 0" stroke-width="1"></path><text x="752.4445546599528" y="91.61894646077812" title="Phillips" class="hint " style="">Phillips</text></a><a id="s47" rel="nofollow " title="Crowley" class="hint   "><path d="M643.6445459627471,343.8890566313157L653.793736652563,344.48256082429407L653.3592150139443,385.639403404728L643.0477941550116,385.7693764722744L643.0645895282173,392.5549974527444L641.3464885295648,392.6848672982146L622.6986513401598,392.6717492199259L616.2232374239343,390.14937188581007L613.4812754620739,391.36485107757153L607.8455363772036,388.69999828957543L601.8658205427805,388.76967491038977L602.2496745750823,343.7946726322789Z" stroke="#FFFFFF" stroke-dasharray="1, 0" stroke-width="1"></path><text x="618.5386023151904" y="367.16034631672414" title="Crowley" class="hint " style="">Crowley</text></a><a id="s48" rel="nofollow " title="El Paso" class="hint   "><path d="M602.4803998416264,270.79986916683674L602.2496745750823,343.7946726322789L518.9845007604795,344.1337066654273L519.2018084942392,310.8078305086947L506.71158673477066,310.5032382044483L507.26968103546415,302.0550998936369L510.7846993092612,302.10908956932326L510.34783194812735,270.63294994206944Z" stroke="#FFFFFF" stroke-dasharray="1, 0" stroke-width="1"></path><text x="549.0191442513834" y="306.4412714091391" title="El Paso" class="hint " style="">El Paso</text></a><a id="s49" rel="nofollow " title="Rio Grande" class="hint   "><path d="M373.13526259640184,436.1368123715947L416.0532585272972,436.11331684339984L415.97716328892193,477.2562543801673L352.97574798963706,477.87466694510476L352.87694615731834,446.0804589481413L354.37830239561436,446.07714010860855L354.53499665959407,425.7668005256637L364.5797557830588,425.9000981322515L364.64158902854524,436.1794126891605Z" stroke="#FFFFFF" stroke-dasharray="1, 0" stroke-width="1"></path><text x="374.60686076784623" y="455.9317811736872" title="Rio Grande" class="hint " style="">Rio Grande</text></a><a id="s50" rel="nofollow " title="Elbert" class="hint   "><path d="M634.1302954432026,217.64515161078089L633.6229625777269,302.39084266819873L602.1240376771957,302.11234340051396L602.4803998416264,270.79986916683674L545.1659542069319,270.6495210548155L545.3473254717665,217.69091647744017Z" stroke="#FFFFFF" stroke-dasharray="1, 0" stroke-width="1"></path><text x="585.5670063881781" y="251.5454776258179" title="Elbert" class="hint " style="">Elbert</text></a><a id="s51" rel="nofollow " title="Garfield" class="hint   "><path d="M322.3209078787868,163.57596762611774L322.8333075048954,174.60948873296184L315.16335785529327,174.62294611554898L315.1739605210596,242.00033229994278L133.40016970245324,241.92472130972283L133.35897881509482,206.19564932810044L179.93808461800336,207.44215386355472L179.9315165949638,202.15286817562628L237.75808036906255,202.05775496374872L237.78050547630346,186.11011459587917L285.3319601759972,185.71231224095845L285.3328046361021,174.74699769695144L295.90966745479636,175.09810020461418L296.0916016930346,153.58209431943578L322.31143115982695,153.5242042906475Z" stroke="#FFFFFF" stroke-dasharray="1, 0" stroke-width="1"></path><text x="231.9651391935233" y="213.58757879572815" title="Garfield" class="hint " style="">Garfield</text></a><a id="s52" rel="nofollow " title="Teller" class="hint   "><path d="M484.2328093632909,270.64855339948235L510.34783194812735,270.63294994206944L510.7846993092612,302.10908956932326L507.26968103546415,302.0550998936369L506.71158673477066,310.5032382044483L519.2018084942392,310.8078305086947L518.9145044006405,328.4667813438109L490.9547118013593,328.7518758470874L491.18571855460414,322.811356364341L482.50776502599365,322.7392228888939L482.48834244357295,270.64758574403913Z" stroke="#FFFFFF" stroke-dasharray="1, 0" stroke-width="1"></path><text x="489.2263743234693" y="300.543639307229" title="Teller" class="hint " style="">Teller</text></a><a id="s53" rel="nofollow " title="Gilpin" class="hint   "><path d="M472.9486642919701,172.93191785096542L476.1520767869183,172.6760498910162L476.14569642167817,195.61499065649014L462.3857819794639,192.3956020948708L459.26568954823733,186.4420501053687L456.99868948114954,186.9710184746491L454.1348437774277,183.86990915739625L449.0311145588862,183.1027939911105L447.7352436128758,179.52733441084274L450.1152136762694,172.86473950202435Z" stroke="#FFFFFF" stroke-dasharray="1, 0" stroke-width="1"></path><text x="455.473144392079" y="182.02621268848318" title="Gilpin" class="hint " style="">Gilpin</text></a><a id="s54" rel="nofollow " title="Kiowa" class="hint   "><path d="M784.6463954646874,374.1817274498517L654.0903298073194,374.5603243825358L653.8003046756048,343.60949950088025L684.9448378186185,343.44063349300313L684.9286992477168,332.9605167093091L790.7542815773122,332.63521311136765L790.8149888759922,374.1493403925051Z" stroke="#FFFFFF" stroke-dasharray="1, 0" stroke-width="1"></path><text x="716.5934640447549" y="354.53443024942095" title="Kiowa" class="hint " style="">Kiowa</text></a><a id="s55" rel="nofollow " title="Kit Carson" class="hint   "><path d="M790.2735022907027,218.96931129995573L790.6070640322914,280.626253888845L685.8477533289692,281.71932216949153L686.6762625211545,217.7094170977789L790.2776307623294,216.71860311945738Z" stroke="#FFFFFF" stroke-dasharray="1, 0" stroke-width="1"></path><text x="729.335711589728" y="249.25353552477844" title="Kit Carson" class="hint " style="">Kit Carson</text></a><a id="s56" rel="nofollow " title="Lincoln" class="hint   "><path d="M686.6762625211545,217.7094170977789L684.9448378186185,343.44063349300313L602.2496745750823,343.7946726322789L602.1240376771957,302.11234340051396L633.6229625777269,302.39084266819873L634.1302954432026,217.64515161078089Z" stroke="#FFFFFF" stroke-dasharray="1, 0" stroke-width="1"></path><text x="643.8335774681815" y="287.452210713463" title="Lincoln" class="hint " style="">Lincoln</text></a><a id="s57" rel="nofollow " title="Moffat" class="hint   "><path d="M296.3342432299537,89.08552174400938L296.35582387708837,90.85781846376995L290.97726980872676,90.85695341866085L290.98393166066944,97.99901575277363L285.59599470224884,98.02840183363514L284.6204556228445,137.66536543686925L133.38712748527132,137.39735476097303L133.4879935534027,41.21251230627695L296.0274227250334,40.916611539910264Z" stroke="#FFFFFF" stroke-dasharray="1, 0" stroke-width="1"></path><text x="203.51561593354907" y="88.46785141952952" title="Moffat" class="hint " style="">Moffat</text></a><a id="s58" rel="nofollow " title="Montrose" class="hint   "><path d="M252.75550418112198,326.2944427864436L278.8633019406143,326.23760063612553L278.9212882011775,370.1692341741068L266.22595646502486,370.1680385291106L266.17998030373656,366.55428535510373L219.57826173578678,366.621508358975L220.42093909196092,368.7838493323279L222.16062073774765,368.7620850911426L222.2169180780993,372.2937545785935L223.8985196344247,372.2711623935493L223.87224754226054,375.7595837037152L230.9211436988744,375.72636611663074L237.82179019256137,380.1029432893233L236.9547173222336,388.0411448582977L134.20372040708162,387.6102740325837L132.5495168897287,373.0386660643412L132.54454395799848,346.4417104537397L196.4563810796817,346.45214111536416L196.4742085707935,326.28122371522795Z" stroke="#FFFFFF" stroke-dasharray="1, 0" stroke-width="1"></path><text x="197.840742861161" y="358.08456523638597" title="Montrose" class="hint " style="">Montrose</text></a><a id="s59" rel="nofollow " title="Morgan" class="hint   "><path d="M657.3095055575677,100.37142054511969L656.8627861618711,164.54232470858642L593.2191120380662,164.60381303984195L593.4571559588567,100.2199635033212Z" stroke="#FFFFFF" stroke-dasharray="1, 0" stroke-width="1"></path><text x="616.1946467671006" y="132.41673876994625" title="Morgan" class="hint " style="">Morgan</text></a><a id="s60" rel="nofollow " title="Otero" class="hint   "><path d="M663.6568430244911,374.56295347017067L663.2135014692171,448.5279992863889L601.8671341473878,448.47491247039216L601.8658205427805,388.76967491038977L607.8455363772036,388.69999828957543L613.4812754620739,391.36485107757153L616.2232374239343,390.14937188581007L622.6986513401598,392.6717492199259L643.0645895282173,392.5549974527444L643.0477941550116,385.7693764722744L653.3592150139443,385.639403404728L653.3021670423873,374.5604438865389Z" stroke="#FFFFFF" stroke-dasharray="1, 0" stroke-width="1"></path><text x="624.8916612765216" y="417.70924248868613" title="Otero" class="hint " style="">Otero</text></a><a id="s61" rel="nofollow " title="Pueblo" class="hint   "><path d="M602.2496745750823,343.7946726322789L601.774431193609,437.7826482260507L546.6666536429248,418.03087775173844L512.2529339456519,420.2993762810984L508.8035959022627,416.26644019705327L508.8961111982421,375.45309287019563L519.0957818365755,375.38964253886843L518.9845007604795,344.1337066654273Z" stroke="#FFFFFF" stroke-dasharray="1, 0" stroke-width="1"></path><text x="550.289488210956" y="385.45522023628" title="Pueblo" class="hint " style="">Pueblo</text></a><a id="s62" rel="nofollow " title="Rio Blanco" class="hint   "><path d="M250.63459571224803,137.39735476097303L322.28797393468085,137.07501779235008L322.31143115982695,153.5242042906475L296.0916016930346,153.58209431943578L295.90966745479636,175.09810020461418L285.3328046361021,174.74699769695144L285.3319601759972,185.71231224095845L237.78050547630346,186.11011459587917L237.75808036906255,202.05775496374872L179.9315165949638,202.15286817562628L179.93808461800336,207.44215386355472L133.35897881509482,206.19564932810044L133.38712748527132,137.39735476097303Z" stroke="#FFFFFF" stroke-dasharray="1, 0" stroke-width="1"></path><text x="202.75780306983663" y="167.0644811444574" title="Rio Blanco" class="hint " style="">Rio Blanco</text></a><a id="s63" rel="nofollow " title="Washington" class="hint   "><path d="M721.7994225357684,110.82155763181709L721.7784048620365,121.56338741609761L720.5172506092445,121.55329152539252L720.5506536978528,164.4014632815306L719.5757714207516,164.4066078275673L719.6613433780876,217.46817556238693L634.8105549724601,217.65111566331962L634.9347844368372,164.56461734307322L656.8627861618711,164.54232470858642L657.4887187576887,111.08475640785491Z" stroke="#FFFFFF" stroke-dasharray="1, 0" stroke-width="1"></path><text x="673.3063486417501" y="168.04686526220218" title="Washington" class="hint " style="">Washington</text></a><a id="s64" rel="nofollow " title="Yuma" class="hint   "><path d="M790.1466456171097,110.64514197037988L790.2776307623294,216.71860311945738L719.6613433780876,217.46817556238693L719.5757714207516,164.4066078275673L720.5506536978528,164.4014632815306L720.5172506092445,121.55329152539252L721.7784048620365,121.56338741609761L721.7994225357684,110.82155763181709Z" stroke="#FFFFFF" stroke-dasharray="1, 0" stroke-width="1"></path><text x="746.1742857900914" y="164.18796259792748" title="Yuma" class="hint " style="">Yuma</text></a></g></g></svg>