<svg id="map" class="map svg-content-responsive" xmlns:xlink="http://www.w3.org/1999/xlink" preserveAspectRatio="xMinYMin meet" viewBox="0 0 960  540"><g><g id="states"><a id="s01" rel="nofollow " title="New Haven" class="hint   "><path d="M443.2564852439227,417.8280292153704L444.15970569819956,412.4415474369216L445.6382145991979,411.46523377889207L450.69054903744995,411.2195123432921L450.4234885291495,412.9807063339522L444.76666139886913,416.9052345319433L443.63860344156205,418.3418247342033ZM442.26283718670106,409.9286232934828L442.93383111202843,409.39315513288057L443.3409312544494,410.02972462081016L442.6625483032028,410.47859175407575ZM244.3104808982207,303.60816687318584L245.00293818455725,301.91721115063046L244.3104808982207,300.4441242527464L247.1088105721076,294.5783139009418L274.07594031762744,290.9307561445203L287.46415157016907,293.00995995319863L304.60141383179655,290.29545467891694L301.36994649556686,270.1844996084783L308.28044502381533,269.8393610336734L326.817399909954,263.8792246110297L330.1241649388983,256.76729060784237L331.929198413942,255.89041307110165L338.9012721582071,255.3414108681718L338.06525665397305,252.51109295320202L338.318946543936,247.27317991234304L346.5907851335769,242.84857558426302L352.75041788487965,243.36627160204443L351.7578254027892,237.24418636378505L358.2056301650183,236.31260993210708L365.20620443782855,231.36239491089145L380.95151495924245,229.14336306971927L382.6604910973151,246.332499570648L378.189778556586,270.321331391664L400.1686120885116,267.0226204105111L401.79736451657845,267.3329919431071L403.6622139157504,269.2130232547697L404.38000500524265,271.2260043806855L405.2251688272844,271.3868114174784L405.8261429355448,273.99675052166094L414.1039631175993,275.9971916468403L412.60469457234,265.368662889754L419.95747908072997,263.64265728085775L419.25376232632766,267.6880342786135L420.6263618557948,266.7940720734332L420.4863222216652,270.7445185745473L422.94792342857227,271.49636660144097L426.4320250796293,267.87613449715354L429.24689209724284,262.6554508660611L446.50976779953567,259.9292964689557L449.6240662961459,304.948182552238L452.94701681044285,303.8895139999822L451.10539006416855,325.99179488404116L448.63499239783255,333.0298492874608L481.1709846793291,326.0711152180156L480.85747886524246,326.9464412824382L481.4011000580159,327.5781623224557L483.03900080389485,327.4683395459906L482.60691871669223,329.4117687400885L485.15437336763136,330.20205802613964L482.2934129026056,334.99028467453536L482.73956932489375,335.82265734366956L486.75532898390577,338.18029756580654L488.6821054574639,338.1826433856568L489.20813373137935,342.27629309500844L491.24996789428076,344.38576704612933L490.9396288055925,345.2896486125046L492.15389206531484,346.9645964905867L493.7189581271115,347.8735607690851L495.7182174263687,350.44224676031627L495.1277990694259,352.97413937322926L496.9454994460498,356.3817096661478L497.1946151771135,359.24598746261836L496.4880835556869,359.36601025652453L496.62671575630657,361.13816686037717L495.75164397220533,361.4635198770411L495.97261103308904,366.31386876234865L495.54017708750337,367.30193847181727L496.11053951694703,370.5762140583065L494.98740757692224,373.4963315512923L494.98670386016954,376.79337124235644L496.00322271190134,377.94603277314854L497.01094510420853,377.6325693726285L499.7800705327885,378.73881373624863L501.0435939653214,377.4648253041287L502.9397587600672,380.16126981456364L504.83521983805576,379.48706388112623L505.2219121945989,382.1102456323697L503.7803484232006,383.7428856269762L505.26132033284466,384.16496859529434L505.37426687192544,384.77302015143323L504.07626131842926,385.3510795108232L505.10263220472575,386.21674275657097L505.1230399906036,387.3896585692528L510.36467423578233,391.7661480751103L509.9997970986269,391.9717489732793L510.61977155925524,392.402148195255L510.5603074935102,393.44510353012265L512.1500036417054,394.3938950101001L512.501862018911,395.73976090731776L513.7319589056074,396.6852032706647L515.102799143186,399.2642999460277L515.8797024400492,399.91231761307245L518.038001725804,399.32844681638744L519.061205886711,400.0401402844982L518.3363776296737,401.4072943893498L519.6407166339623,403.1479863400782L518.692106449026,404.1297153450869L518.6217347735849,408.39006322230307L522.4587495916626,411.98845551732484L522.3078031331531,413.8203150597092L519.7807562680873,414.84662818843935L510.21196770007714,405.76913716296986L505.9192954982134,404.0838364850515L500.7469773533445,405.4882601698937L498.62034532153325,404.5178102934333L493.99094465268524,403.9433905670576L479.4989536708654,407.2132722836359L478.5827144566299,405.56550160029474L476.9504434447905,404.8136767142969L475.8413858398512,406.7938481738038L474.2942645552913,405.992900653544L472.0339263401429,408.8572095137515L472.9445358203433,410.37140718777664L472.79499601003647,412.00909019996834L470.1229834935633,410.4828042402678L469.9583137730307,413.6331133277108L468.23420772474105,415.7858640503109L466.7194574108863,416.59404241925586L461.14215027385467,416.8233421777459L460.05877833044985,414.7048277415197L463.8345705762057,411.4844233697604L462.60201068086826,409.6215727681156L458.5475466003676,411.4844233697604L458.04051867882004,411.19657824185924L459.456044930301,410.0465748095321L459.66645623987165,408.9218043309156L458.7530318926558,408.1972111683608L453.3245608491827,412.02781141914056L451.6008066592673,410.7360203999997L452.4470260564358,409.0786100221212L450.52341630827607,408.5768289789321L446.75993910572174,410.33302659666697L446.5150456751877,406.92445071789734L444.64632583386924,406.32386164152194L439.4117287562311,408.1869132089396L437.5556758164927,407.02041280503545L434.5603054513725,407.31485069453447L432.9611091269867,410.1659300470328L429.58749100637374,410.62462427018L427.2785963351764,412.16166780229105L425.72936390035375,414.14604334116484L423.1600940300269,414.9327377098707L422.86805157694937,412.3395180341013L421.39341311809767,411.636067517893L422.00564669442826,409.24571251519774L420.1657792400381,407.90793080612457L417.071536670918,415.01650706594955L415.39880194570617,413.7618146415807L414.8974037581893,411.10062926364844L412.8770329562924,411.1090540640398L412.01744294079106,411.64542824312775L411.7194188952998,414.1802071696129L408.0998517690216,416.4410189707396L401.0271465288862,417.70449239348454L396.10112924805685,417.189750263673L393.05333198473215,415.34737037990635L393.51954433452397,412.84451344758236L396.3752269238977,411.18862150877794L396.6641026515813,409.60799881699495L395.3794677164134,406.86546899289715L392.6128052964747,404.5852231476074L393.408005228953,401.4204037901891L392.3190035515131,398.7155343543436L391.8169016472435,392.6105547797779L389.8936437574579,392.35953004443036L384.0651097391044,399.7671703415308L382.88743975061254,400.1230140385087L382.9817377956996,399.2937981586165L381.2273719269673,399.267109300843L380.9307553149904,400.1843498360031L381.6323609191302,401.61470317885505L381.68619525084,403.4499521246835L384.26707644761564,406.46476473689836L383.48348784159055,408.486488793018L375.7957341581048,411.70299664030244L374.36754100503936,413.10192217271833L372.66137973398634,413.33312016207856L372.1617408383579,415.17655737631685L370.25502029229915,417.0830571744882L368.06118331044513,421.8071453813045L363.9324771123613,421.19795866571076L363.6946208493722,423.08490083588003L362.11266558547027,426.5347143192066L358.4160414745845,426.9898884827835L356.36154041010286,432.88689258482555L354.1930372314047,435.41663823242925L352.1983520910467,435.61306009376676L352.1775924467903,434.50092158297775L348.8817350275376,434.1085300153645L347.03447854722833,434.7894828506651L345.9627179302722,436.7826794069679L342.92653199339634,432.69840436576305L339.80132588708557,433.36301894522876L337.90692038423276,434.9316579041915L336.1082203599723,438.37592736280567L333.6399338438988,438.7397393031406L330.44435606215586,440.9211173747335L321.30889891479,452.24043023562444L317.1412945368936,448.9939035074276L316.2264627561724,445.62796891936887L316.82462199741747,443.00976394119425L318.72465723430537,440.67189169040466L320.8709933352418,435.71501189622177L320.37839160715396,433.98459122792156L321.18766587472237,429.0738728080778L320.448763282595,425.79931071285864L320.6246924711934,423.8811901265144L323.57326567214864,418.87853997835555L327.2178147432086,415.91970398208286L328.5777473710955,413.4014495975189L328.1196277639799,404.08477278901046L329.8437338122651,399.4965390714642L335.12196132867416,395.8910149204312L336.4238373243261,391.95723050424385L331.9900699132014,387.22665219779446L331.53265402283864,385.3997971416502L329.3134832378289,384.414186876078L326.5053015293772,380.9910052563264L318.5835620250491,375.7484412686026L315.4520224679459,369.60934100106715L311.44083696784674,366.8439993253887L310.7015825173453,365.57842039550087L310.202647338474,362.14937517214275L304.0514591882262,354.88921541511263L303.42620685193697,353.48808931384883L303.4881339263276,351.7473771316563L298.31581578145426,351.65358593873134L295.56709813875216,348.8326809992541L293.1783316159274,345.228202401202L294.09316339665304,342.9297437047535L294.26909258525586,341.00641039094444L293.67093334401534,339.92741417468824L289.0264027649414,337.7693071426256L282.52476367100246,330.3207873649899L279.6240432093523,329.7393376894088L275.4256690525755,331.64273455903276L274.0611622657848,329.95896647391237L274.04181005503824,327.0346765089798L273.01614288549433,325.24035354433363L268.90256659762736,328.07658379374516L266.2375912486991,327.5040085253513L265.19292372678285,323.5102313666757L263.01034621299914,319.72483567161544L261.406927588088,319.2600783250509L259.66804348795563,319.74032746101693L255.8845103579065,321.7387022190542L254.31698128747325,321.0059330901713L253.47603976595667,317.72585927585715L254.3486485414212,313.56411213938554L253.89826981859892,311.05476947617535L252.78358247962012,310.431158223897L250.07005067463854,311.66334163500323L249.25936897356917,311.13741579188354L246.39911222529167,307.81635991662733Z" stroke="#FFFFFF" stroke-dasharray="1, 0" stroke-width="1"></path><text x="374.1756261959253" y="338.93610608668104" title="Hartford" class="hint Hartford " style="">New Haven</text></a><a id="s02" rel="nofollow " title="Fairfield" class="hint   "><path d="M282.9001965594798,463.85148601680703L283.66759968015674,463.5865606249772L283.56837561778286,464.44113536809346L282.73798984758844,464.57663163471625ZM231.15027387410782,489.52063161254773L232.52604012896882,491.0303792048853L234.84126825095848,490.1914841036087L234.37153731738965,492.0704465645649L232.5939487957687,492.75338005509L229.20414518980317,489.58739072935714ZM220.61387476879327,499.58701264848787L221.28522055249482,497.976408245946L222.7278398990244,496.83525949573414L224.94243652513035,497.3388637056305L225.1440513752675,498.0436156833912L222.09027251953353,501.02999759449085L223.5666702702738,503.14395070307L223.432612228558,503.78137465798136L220.24477533110826,500.9627966971202ZM212.62774518143772,505.86200977447515L216.88945384611054,502.0365934262827L218.6343195386521,501.90219589257504L218.86900907624727,502.573244377998L218.03017870499787,505.96232837913703L215.2117931036073,506.2978100755681L210.770284808185,508.8341010343247ZM143.49355565364613,536.1988136947402L144.77502386341564,535.3117396923717L145.53433424142088,535.4930721930159L143.78946854887477,536.8555955543325ZM137.4401841322624,540.0097242530828L137.82476533854287,538.6398830816543L140.2043835435644,538.2143296574177L140.5041668809397,539.1880133126488ZM132.09404794905333,532.8806621027306L132.61409463055952,531.8140039877562L134.67387357069765,533.7706033268078L135.01799106360556,534.6544586791606L134.2959776735836,535.0586182430616L134.42335040613295,535.89162701428L133.83504319945268,536.0342664313375ZM103.23884615146846,484.034216228476L189.46737121886906,431.6633354614205L165.4523332580726,392.9753799620339L175.9799359039581,240.69486538386445L176.96633442863106,218.58367890709997L180.94747247329587,219.02265150235507L180.94536132303324,219.85773449950466L183.81687753938104,222.2013076708481L185.50579774995003,221.22876562638157L186.78937710998218,224.92096310131637L188.77174720713867,227.6747483960662L185.57687314214832,228.96302723213194L184.15395786473937,232.0464812707869L202.40837047398236,285.1495876470817L203.52165037944678,290.3941340314832L202.64200443644165,292.55560144815354L203.97906626980966,301.105988763451L207.74430276425244,297.95859817530254L223.15605154407592,290.06520161126537L223.85976829848266,291.85079199280153L222.59307814055592,293.96517136981856L225.97091856169402,296.1263850723426L226.7450069915419,297.4888104623551L227.2731464157199,302.0924173152125L236.9844376264964,307.30539608193794L240.85523163409653,308.4325107799832L244.33440726787114,311.33463904778546L249.22559056935847,312.32073616249545L251.98416024662106,310.5664003031725L253.89826981859892,311.05476947617535L254.3486485414212,313.56411213938554L253.47603976595667,317.72585927585715L254.31698128747325,321.0059330901713L255.8845103579065,321.7387022190542L259.66804348795563,319.74032746101693L261.406927588088,319.2600783250509L263.01034621299914,319.72483567161544L265.19292372678285,323.5102313666757L265.79284225991637,326.69159023019347L267.03243932279895,328.02589723693745L268.90256659762736,328.07658379374516L273.01614288549433,325.24035354433363L274.04181005503824,327.0346765089798L274.0611622657848,329.95896647391237L275.4256690525755,331.64273455903276L279.6240432093523,329.7393376894088L282.52476367100246,330.3207873649899L289.0264027649414,337.7693071426256L293.67093334401534,339.92741417468824L294.26909258525586,341.00641039094444L294.09316339665304,342.9297437047535L293.1783316159274,345.228202401202L298.31581578145426,351.65358593873134L303.4881339263276,351.7473771316563L303.42620685193697,353.48808931384883L304.0514591882262,354.88921541511263L310.202647338474,362.14937517214275L310.7015825173453,365.57842039550087L311.44083696784674,366.8439993253887L315.4520224679459,369.60934100106715L318.5835620250491,375.7484412686026L326.5053015293772,380.9910052563264L329.3134832378289,384.414186876078L331.53265402283864,385.3997971416502L331.9900699132014,387.22665219779446L336.4238373243261,391.95723050424385L335.12196132867416,395.8910149204312L329.8437338122651,399.4965390714642L328.7529728429456,401.7907420402262L328.1196277639799,404.08477278901046L328.5777473710955,413.4014495975189L327.2178147432086,415.91970398208286L323.57326567214864,418.87853997835555L320.6246924711934,423.8811901265144L320.448763282595,425.79931071285864L321.18766587472237,429.0738728080778L320.37839160715396,433.98459122792156L320.8709933352418,435.71501189622177L318.72465723430537,440.67189169040466L316.60893281219035,443.5020970780133L316.2264627561724,445.62796891936887L316.5783211333735,448.10570670611196L321.30889891479,452.24043023562444L320.4843009786897,456.4724338305259L321.6500077823631,458.4202912191249L323.74321326833774,459.0689264101402L323.06412660033857,460.3441928752436L313.48196741399545,462.5006696503133L298.723971499011,456.7635921726105L299.24999977292646,454.01967713453814L296.76130547097523,453.20080151575166L294.44431805710155,454.2645877352734L293.80147280194967,456.66404717599835L288.0063653294327,457.2206537790116L285.6327287168293,458.78386508552285L283.4835777488821,461.7282805730174L282.9357342555745,459.70352881698454L281.9948649549359,459.4525867267257L280.57335711104133,460.9371807096795L280.97025336052775,461.7946329703045L279.2405175781986,464.27199780828596L276.6054501913344,463.80943452024985L273.964049353678,471.19232570356326L270.42646522928965,472.6898970623424L266.9891607424021,475.86323600089054L262.51070731737514,474.50874528670465L261.23135025786826,472.3760017031109L258.414020231609,471.3310619957683L254.1058662611498,472.8150806244703L254.24414660339085,474.92257190233795L250.55280036816157,477.44604604406777L249.7906751231411,476.6656267550152L248.31533294753217,476.604911076176L242.967085614065,479.6914504635952L240.94425180352698,478.8671894500749L236.0386423085754,481.38146650104864L235.2223308734665,483.6069713902998L229.74108107341476,480.999948501023L229.82482336718874,483.5924963243233L230.74493302357087,485.59979589862814L229.4068156150762,486.436015223655L224.6257639856542,486.50698309501604L225.71441380471117,488.8156838192117L225.2446828711512,489.58739072935714L222.88582431038617,488.40391211586757L221.32709169938175,490.1037185715104L221.04384570573325,492.70810058815186L219.20397825134307,492.7916574904739L217.69872811367452,490.8683906748811L215.80713747783705,493.1758295932559L215.6079856363366,497.8933321823424L214.01899320489406,497.8933321823424L206.8699346969039,504.9866577124285L204.19897775556205,504.9609940290502L203.19512580540584,504.1350785794548L200.84823042946812,504.38565527616265L197.8394894460106,508.0946044330358L194.55876193698373,507.0681442957575L191.77345102304673,510.35409552517376L191.34805424501496,514.2293210852349L186.98676965958964,512.3783052950166L185.73133896973752,508.549035369193L181.31973863637484,512.0265623592477L181.31973863637484,515.0372395696431L177.4359258688205,512.9506953312375L175.29838622731768,513.6154380941225L175.96726900237798,516.2080305987492L177.48413046649534,517.2612379364909L175.4081660410045,522.0184118481884L173.2266441023521,523.370807179208L172.41631425965238,520.7956086752547L172.76113546931742,517.5975290401439L171.84735926371866,516.2476781191308L170.94941668510273,516.1310676189187L166.69263403770788,520.3469554871663L165.26479274302096,519.6683667474808L163.52450120938317,521.3286673020157L163.26834831077895,523.015925752703L161.57942810020995,523.1842734319926L159.57383535016027,525.9355313523356L158.72937524487122,530.271759744257L153.8385438017624,530.5981177639587L153.434962243114,528.4688023296858L149.7108931788099,523.5582724539636L146.8070059917568,523.9970859498735L143.01749126929394,526.9128680762733L139.42114679590895,527.999745639896L138.66711429356474,530.1729192030161L134.16367892375627,529.5626184414141L130.19119784514555,533.240557623838L128.0233983832045,537.9290703946426L127.20180907243457,536.6528290540828L128.06139908794046,535.2520722088666L127.21306854050931,533.6554578519663L126.99174962124698,530.7906673697908L128.75561566616102,525.3064942773253Z" stroke="#FFFFFF" stroke-dasharray="1, 0" stroke-width="1"></path><text x="213.38635255742722" y="404.33472802196394" title="Fairfield" class="hint " style="">Fairfield</text></a><a id="s03" rel="nofollow " title="Middlesex" class="hint   "><path d="M446.2423554328567,253.53015070262882L453.72638311594267,251.98602491903875L454.33544996688386,249.29514400557673L459.75477269254486,247.97196560135308L459.26709698174386,246.977191091466L460.90323843573435,241.67384350936845L459.31107927889343,238.8347199505879L459.98031391233235,236.96128012224108L490.2615977127201,231.07943382742633L489.31580239480354,234.33591620974767L533.3308223741374,227.87769361195387L559.6019762495526,285.47246353650735L597.3820657848736,280.921336014806L597.5449762135131,288.50272403388044L600.2490078423131,307.3072746411508L601.2021921861487,307.15698953719766L603.6673119768282,326.9361158668744L569.3618239163825,332.3367690705945L558.5664570454439,332.70231571295153L561.4626033481993,338.4918208606596L561.1600051438043,344.5307088627196L562.1540050594,347.7647491356911L564.7229230713527,348.9564967666156L574.938427336657,350.500868618341L578.8707965602691,355.0960026717494L579.2560814833068,356.47923737979L577.6769410864247,367.5236404207535L578.2786189114423,369.0614482938927L582.3703799799216,371.5857037007845L585.2640632740313,374.3712345264248L588.3298053145925,379.3582181062193L588.9216311050498,382.023575072104L588.3590578634039,385.418754409724L587.8431851789228,385.32765754526736L585.8361849953633,391.0144519193327L585.7524427015849,394.9450796877936L588.2611929310355,398.0393966429983L590.6207552085577,405.4189767814005L588.6887008593387,404.81274043266785L584.8316293284456,405.7616471433139L581.8218327698658,407.90793080612457L577.9668723892352,407.41830117159043L575.1323013024964,408.71818977034127L570.8892411318174,401.0528702426891L568.4156767400918,401.6947635314282L564.2000615228312,400.9297338108154L562.7996651815672,402.50331451791135L561.2226359349477,402.9462059900179L557.0689477920732,400.7883369918618L552.1573567047124,400.7190429476668L548.5223078098387,402.7795372251876L546.4653437367159,405.3412668479814L540.2758030233537,404.4663142629852L535.4057312245013,406.81397691768325L532.731959416144,409.4909817470889L532.7879048981165,411.01263676524104L530.1296148583548,410.24830829209714L528.901277263538,410.60730634799984L527.7429594857971,406.9384939689735L523.5435297538845,408.3006586592619L522.4587495916626,411.98845551732484L519.113632784911,409.41749479820646L518.4739542551577,407.53626237430944L518.929610853632,406.096823725984L518.692106449026,404.1297153450869L519.6407166339623,403.1479863400782L518.3363776296737,401.4072943893498L519.061205886711,400.0401402844982L518.038001725804,399.32844681638744L515.8797024400492,399.91231761307245L515.102799143186,399.2642999460277L513.7319589056074,396.6852032706647L512.501862018911,395.73976090731776L512.1500036417054,394.3938950101001L510.5603074935102,393.44510353012265L510.61977155925524,392.402148195255L509.9997970986269,391.9717489732793L510.36467423578233,391.7661480751103L505.1230399906036,387.3896585692528L505.10263220472575,386.21674275657097L504.07626131842926,385.3510795108232L505.37426687192544,384.77302015143323L505.26132033284466,384.16496859529434L503.7803484232006,383.7428856269762L505.2219121945989,382.1102456323697L504.83521983805576,379.48706388112623L502.9397587600672,380.16126981456364L501.0435939653214,377.4648253041287L499.7800705327885,378.73881373624863L497.01094510420853,377.6325693726285L496.00322271190134,377.94603277314854L494.98670386016954,376.79337124235644L494.98740757692224,373.4963315512923L496.11053951694703,370.5762140583065L495.54017708750337,367.30193847181727L495.97261103308904,366.31386876234865L495.75164397220533,361.4635198770411L496.62671575630657,361.13816686037717L496.4880835556869,359.36601025652453L497.1946151771135,359.24598746261836L496.9454994460498,356.3817096661478L495.1277990694259,352.97413937322926L495.7182174263687,350.44224676031627L493.7189581271115,347.8735607690851L492.15389206531484,346.9645964905867L490.9396288055925,345.2896486125046L491.24996789428076,344.38576704612933L489.20813373137935,342.27629309500844L488.6821054574639,338.1826433856568L486.75532898390577,338.18029756580654L482.73956932489375,335.82265734366956L482.2934129026056,334.99028467453536L485.15437336763136,330.20205802613964L482.60691871669223,329.4117687400885L483.03900080389485,327.4683395459906L481.4011000580159,327.5781623224557L480.85747886524246,326.9464412824382L481.1709846793291,326.0711152180156L448.63499239783255,333.0298492874608L451.10539006416855,325.99179488404116L452.94701681044285,303.8895139999822L449.6240662961459,304.948182552238Z" stroke="#FFFFFF" stroke-dasharray="1, 0" stroke-width="1"></path><text x="513.8927780397934" y="314.21461406474805" title="Middlesex" class="hint " style="">Middlesex</text></a><a id="s04" rel="nofollow " title="New London" class="hint   "><path d="M546.9480934302345,257.57499284987534L564.365434960112,254.4235623988061L566.7798871444755,248.7855483393887L569.9793353683741,252.05565811956149L576.0045582195779,255.33905865229826L576.7487386873618,252.91382715693908L578.3046564313507,251.77053738148425L579.0667816763712,249.377017304103L580.5027157137345,250.24279039903558L583.9421313508801,249.6278117240072L585.9617984360243,251.12453610239572L590.2935269177552,250.35289238206678L595.727979553642,247.42564361619043L596.9893918359123,241.26107629379658L593.5707358430185,229.47907679990567L604.3316205929892,224.58943720485513L613.1189317052324,216.11498908380418L616.7258319299306,216.50972779631957L617.5270134548182,213.61925473707015L616.383121870537,209.64534657664626L614.4936423849622,207.30174504274328L614.6899793594383,206.5784619000333L616.5826255704071,206.49647301491677L617.6610714965341,207.20326646372268L619.237748884775,205.1040417021286L619.4316228506145,203.54943789840218L621.7665550417248,202.67573346535573L623.190525894265,203.07441725354693L622.7668884081129,201.34439321655555L624.6204783392145,201.1582365562117L625.3101207585268,199.83389920637092L624.1556734229281,199.64584803574144L624.0237265314793,198.77957218376832L624.4128818966636,199.01428919696082L624.7189986848311,197.74971801503125L625.57647755007,197.1360308317744L625.2717681954123,196.13298845905956L627.4677163275334,196.72878454934653L646.0380977594997,214.54304898471855L655.7370739270791,222.8728850880343L657.7775006564707,218.21533564377387L659.5473482937984,218.37877880419364L728.0826748635922,233.8434880712848L761.1640476297507,229.18291438946653L785.8927789762614,231.21213570151122L782.357885122137,336.1210672624129L781.036305057369,336.6672061498575L780.2463830005515,335.78371369532215L779.1457699966627,336.13795830250274L775.5948152539415,334.6111581323403L774.3893484536438,334.86688137970486L772.8964133591769,336.8126538595625L769.5417955909319,338.5265386210049L767.5917964644807,338.27459938118045L766.5664811533109,339.3367648512176L766.2466418884319,341.2250197536432L767.0636570402982,344.32103552677836L766.7184839722634,346.136749407091L768.1121950043565,348.3711814368544L770.0526939546305,349.9840544352119L769.7444660162048,352.22945931139657L770.7627441598252,353.9157490856578L770.0460086454641,355.39328620306514L770.4193303836744,357.6073477863865L768.3011429529181,360.13911451374406L768.216696942387,362.6491069141557L768.9802296209218,365.73216759990646L770.5284064806041,366.79759569165253L771.2036227064567,370.96051767265635L768.8208377760457,373.95979425840596L764.755817944232,376.9629932718053L761.3255506248895,381.09313939863205L760.250623282535,381.34659925746564L760.582425732237,380.33883790661275L757.3604585721935,377.80124962939044L754.2662160030825,373.9541708905872L751.1765475928707,373.7737539565114L748.937672738736,375.2451752367706L747.0738789146909,375.1247462874999L744.7188907960813,378.01772126005017L738.8952827950102,377.74877142717014L736.6349445798662,375.7043941073807L734.8640413674027,375.20862486658734L733.5899621835568,373.04785790467577L730.2937529059301,373.1228382834488L727.3106975840069,377.75533120738146L724.3867544694591,380.7436330738419L721.9849691866802,380.97882409728663L718.4026990483896,376.7835312614425L717.4361440862077,376.8425710993124L715.339420016465,381.1924621818125L714.9601166858411,383.40418441987276L713.3792169970704,381.6801698391646L710.9323938420105,382.2887393625424L709.3613461878002,387.69927459752216L707.3575127296347,387.5372066897944L703.4659590777826,382.94414439848697L701.4959040238276,383.32079682437325L700.5230156108669,385.15386599965314L698.7359269130508,384.8259547294201L698.346771547871,383.3976258531984L696.5593309916808,382.1711491221449L693.8866147584548,381.87178387652057L691.7948167059856,384.74257101632975L689.8712069578258,385.1604241891473L688.2832701015102,383.6936968881673L687.6119243178086,381.9814109268027L685.0968406375703,381.9345618081825L677.9403931036566,384.19682367688256L678.4139944793719,386.414886249695L676.534718886736,387.2519463469398L675.5072924253036,389.06510753986004L673.2469542101596,389.49133233924476L671.8261500830179,391.2537789954331L667.8768916573048,390.0112248666028L663.944170575314,391.11327408997386L660.4889213111898,389.468381924642L658.5100697978057,385.74597114554854L656.168452297529,384.6587186258039L654.3176772334427,386.02468755285736L654.4960694306823,387.58592083338954L653.3250847513568,389.0913369300415L650.3997342032992,386.33665953955824L649.9750411420157,382.58856900178216L648.6731651463683,380.2929233010618L646.3860856945541,379.5901401095325L643.9582628918579,379.96495982481974L639.7359623654352,384.64981807921504L639.3841039882341,391.2542473440353L640.3066766532529,396.23098250787734L639.0016339322162,397.7682818208086L637.2835094763358,397.3571566542232L636.2518607143827,394.8753040973861L631.999652225896,393.9415134093306L631.9057060391831,391.2776647650844L629.6049041106576,392.43586800871526L628.2973983809752,390.63789436735715L626.3122134167988,390.75966721790246L624.8073151375045,392.0181143604532L623.8534270769117,391.0711224923052L622.5395878964368,391.4776488095449L623.0251524569798,393.4605579215913L622.7408508881999,395.51592232500843L619.1645623423185,398.8269738982581L613.3613621271253,398.2950571212077L611.0014479912288,399.8200789429411L606.0342632802652,400.7026558196412L595.9039087422448,400.91802880097384L593.6875528242459,398.8316562231321L590.9374277480339,392.52016737952L589.265044881196,385.5787400801728L588.3590578634039,385.418754409724L588.9216311050498,382.023575072104L588.3298053145925,379.3582181062193L583.6261625281568,372.5871931604215L577.8972044305513,368.34293935655114L578.3915654505231,360.6177823438629L579.2560814833068,356.47923737979L578.8707965602691,355.0960026717494L574.938427336657,350.500868618341L564.7229230713527,348.9564967666156L562.1540050594,347.7647491356911L561.1600051438043,344.5307088627196L561.4626033481993,338.4918208606596L558.5664570454439,332.70231571295153L569.3618239163825,332.3367690705945L603.6673119768282,326.9361158668744L601.2021921861487,307.15698953719766L600.2490078423131,307.3072746411508L597.5449762135131,288.50272403388044L597.3820657848736,280.921336014806L559.6019762495526,285.47246353650735Z" stroke="#FFFFFF" stroke-dasharray="1, 0" stroke-width="1"></path><text x="666.4863443226353" y="303.1661245842774" title="New London" class="hint " style="">New London</text></a><a id="s05" rel="nofollow " title="Litchfield" class="hint   "><path d="M177.06751225821438,216.63983494146305L183.98013982639918,112.05394098811485L187.03743726591017,61.158821631330284L187.84706339185266,37.69099628841286L207.02404866611903,37.241316916568394L356.22878190145957,42.79749797316799L348.919735732278,77.00936363544133L399.0514617408917,73.92615235189987L389.09879568335805,110.02657189860838L380.1964268817669,110.78336514055991L375.62226797813867,130.30453310908524L375.5511925859448,132.87044113135562L376.48783958605827,135.5891589435687L379.6341571949996,135.23587170658357L381.65487985527056,136.73873080749036L377.2489092559474,152.7129709769597L353.3535031434026,156.6060975002274L365.20620443782855,231.36239491089145L358.2056301650183,236.31260993210708L351.7578254027892,237.24418636378505L352.75041788487965,243.36627160204443L346.5907851335769,242.84857558426302L338.318946543936,247.27317991234304L338.06525665397305,252.51109295320202L338.9012721582071,255.3414108681718L331.929198413942,255.89041307110165L330.1241649388983,256.76729060784237L326.817399909954,263.8792246110297L308.28044502381533,269.8393610336734L301.36994649556686,270.1844996084783L304.60141383179655,290.29545467891694L287.46415157016907,293.00995995319863L274.07594031762744,290.9307561445203L247.1088105721076,294.5783139009418L244.3104808982207,300.4441242527464L245.00293818455725,301.91721115063046L244.23729435576433,304.11919278115965L246.39911222529167,307.81635991662733L250.07005067463854,311.66334163500323L249.22559056935847,312.32073616249545L244.33440726787114,311.33463904778546L240.85523163409653,308.4325107799832L236.9844376264964,307.30539608193794L227.2731464157199,302.0924173152125L226.7450069915419,297.4888104623551L225.97091856169402,296.1263850723426L222.59307814055592,293.96517136981856L223.85976829848266,291.85079199280153L223.15605154407592,290.06520161126537L207.74430276425244,297.95859817530254L203.97906626980966,301.105988763451L202.64200443644165,292.55560144815354L203.52165037944678,290.3941340314832L202.40837047398236,285.1495876470817L184.15395786473937,232.0464812707869L185.57687314214832,228.96302723213194L188.77174720713867,227.6747483960662L186.78937710998218,224.92096310131637L185.50579774995003,221.22876562638157L183.81687753938104,222.2013076708481L180.94536132303324,219.85773449950466L180.94747247329587,219.02265150235507L176.96633442863106,218.58367890709997Z" stroke="#FFFFFF" stroke-dasharray="1, 0" stroke-width="1"></path><text x="264.0167203690506" y="159.0818211699871" title="Litchfield" class="hint " style="">Litchfield</text></a><a id="s06" rel="nofollow " title="Tolland" class="hint   "><path d="M529.1440595438094,122.73969362370735L530.5514930526228,87.04240675115943L537.8001274813611,86.05084314953092L532.0032426892112,44.99741990731491L675.2220136787132,47.51618258689996L676.2563989103699,80.63309438339638L642.4600499217343,80.45612940068168L634.8247231364485,81.00547452437058L635.0618756826804,111.90741153107047L634.5646997956976,139.13738847763125L653.2909544887675,139.2653682096916L656.168100439146,177.69239649490737L654.5917749092836,179.28087000113192L653.1639336145968,179.33793653047906L651.8884469972364,178.2866689064631L650.775167091772,180.06187035469884L649.9032620330647,178.78047210790646L649.2597130611646,179.40632189918506L648.5859042688219,176.80615429962018L645.1426181895206,176.89529851468615L645.0268567834244,177.57448391519938L645.7654075171731,178.23054367753866L644.5275697461747,179.29313223965073L644.7502960989423,180.45849385934707L642.3319734724322,184.23818251538614L642.3161398454581,185.4552220133137L643.8643167051495,187.34834974272962L643.5775521277285,188.57516534169008L641.1803410038533,188.0881226681813L641.458660980215,189.6298475596668L622.2763978302921,189.61758950611693L622.1528955398937,191.1644223860858L624.4040854372347,192.11671544346973L625.2080818291421,194.83011504460956L626.8801128376058,196.2225471638867L624.9779664504508,196.37008276876622L625.57647755007,197.1360308317744L624.7189986848311,197.74971801503125L624.4128818966636,199.01428919696082L624.0237265314793,198.77957218376832L624.1556734229281,199.64584803574144L625.3101207585268,199.83389920637092L624.6204783392145,201.1582365562117L622.7668884081129,201.34439321655555L623.190525894265,203.07441725354693L621.7665550417248,202.67573346535573L619.4316228506145,203.54943789840218L619.237748884775,205.1040417021286L617.6610714965341,207.20326646372268L616.5826255704071,206.49647301491677L614.6899793594383,206.5784619000333L614.4936423849622,207.30174504274328L616.383121870537,209.64534657664626L617.5270134548182,213.61925473707015L616.7258319299306,216.50972779631957L613.1189317052324,216.11498908380418L604.3316205929892,224.58943720485513L593.5707358430185,229.47907679990567L596.9893918359123,241.26107629379658L595.727979553642,247.42564361619043L590.2935269177552,250.35289238206678L585.9617984360243,251.12453610239572L583.9421313508801,249.6278117240072L580.5027157137345,250.24279039903558L579.0667816763712,249.377017304103L578.3046564313507,251.77053738148425L576.7487386873618,252.91382715693908L576.0045582195779,255.33905865229826L569.9793353683741,252.05565811956149L566.7798871444755,248.7855483393887L567.082133490492,240.56637216080708L567.6546070701983,238.18938476508083L567.1845242782598,235.5283500985097L565.5811056533487,233.58879695987707L560.0727627582482,220.6725423320313L553.4930111045749,216.1512600390888L547.5114186921331,179.2454981314204L543.6761623806367,149.61340451474825L532.5919197820144,151.1707804671678L536.3641934439979,127.12471551436101L528.7922011666083,128.88071915594628Z" stroke="#FFFFFF" stroke-dasharray="1, 0" stroke-width="1"></path><text x="583.7590815466687" y="129.78382866974744" title="Tolland" class="hint " style="">Tolland</text></a><a id="s07" rel="nofollow " title="Windham" class="hint   "><path d="M622.4734385215254,190.1550533480313L622.2763978302921,189.61758950611693L641.458660980215,189.6298475596668L641.1803410038533,188.0881226681813L643.5775521277285,188.57516534169008L643.8643167051495,187.34834974272962L642.3161398454581,185.4552220133137L642.3319734724322,184.23818251538614L644.7502960989423,180.45849385934707L644.5275697461747,179.29313223965073L645.7654075171731,178.23054367753866L645.0268567834244,177.57448391519938L645.1426181895206,176.89529851468615L648.5859042688219,176.80615429962018L649.2597130611646,179.40632189918506L649.9032620330647,178.78047210790646L650.775167091772,180.06187035469884L651.8884469972364,178.2866689064631L653.1639336145968,179.33793653047906L654.5917749092836,179.28087000113192L656.168100439146,177.69239649490737L653.2909544887675,139.2653682096916L634.5646997956976,139.13738847763125L635.0618756826804,111.90741153107047L634.8247231364485,81.00547452437058L642.4600499217343,80.45612940068168L676.2563989103699,80.63309438339638L675.2220136787132,47.51618258689996L781.3139213169823,50.041048581591895L786.1188993160501,223.6428731550477L785.8927789762614,231.21213570151122L761.1640476297507,229.18291438946653L728.0826748635922,233.8434880712848L659.5473482937984,218.37877880419364L657.7775006564707,218.21533564377387L655.7370739270791,222.8728850880343L646.0380977594997,214.54304898471855L625.2080818291421,194.83011504460956L624.4040854372347,192.11671544346973L622.1528955398937,191.1644223860858Z" stroke="#FFFFFF" stroke-dasharray="1, 0" stroke-width="1"></path><text x="706.6343449353388" y="141.34530712556327" title="Windham" class="hint " style="">Windham</text></a><a id="s08" rel="nofollow " title="Hartford" class="hint   "><path d="M352.08575741033997,61.157874685646675L356.22878190145957,42.79749797316799L424.91973777441126,43.918530692000786L423.79379096737114,62.34106010025425L441.38741354422564,59.78429864260397L441.59852857054454,57.5587925978125L442.6097695466242,56.58946228911009L442.61926972280594,55.14369576813078L443.8507740430167,53.154647088969796L443.0017397788239,51.00822149409032L444.64984441763727,51.28292703929037L446.66564106063026,46.90249589047198L444.62486247286006,45.43399941066309L445.22302171410513,44.060179796419106L466.3032089506578,43.77924965190141L497.2646349941715,46.61827635474219L497.61649337137715,49.36561949872521L503.49252827065277,49.50771663699743L506.2725613089244,49.50771663699743L509.4748243998383,46.928075517103935L525.3436372116504,44.96027559023787L532.0032426892112,44.99741990731491L537.8001274813611,86.05084314953092L530.5514930526228,87.04240675115943L528.7922011666083,128.88071915594628L536.3641934439979,127.12471551436101L532.5919197820144,151.1707804671678L543.6761623806367,149.61340451474825L547.5114186921331,179.2454981314204L553.4930111045749,216.1512600390888L560.0727627582482,220.6725423320313L565.5811056533487,233.58879695987707L567.1845242782598,235.5283500985097L567.6546070701983,238.18938476508083L567.082133490492,240.56637216080708L566.7798871444755,248.7855483393887L564.365434960112,254.4235623988061L546.9480934302345,257.57499284987534L533.3308223741374,227.87769361195387L489.31580239480354,234.33591620974767L490.2615977127201,231.07943382742633L459.98031391233235,236.96128012224108L459.31107927889343,238.8347199505879L460.90323843573435,241.67384350936845L459.26709698174386,246.977191091466L459.75477269254486,247.97196560135308L454.33544996688386,249.29514400557673L453.72638311594267,251.98602491903875L446.2423554328567,253.53015070262882L446.50976779953567,259.9292964689557L429.24689209724284,262.6554508660611L426.4320250796293,267.87613449715354L422.94792342857227,271.49636660144097L420.4863222216652,270.7445185745473L420.6263618557948,266.7940720734332L419.25376232632766,267.6880342786135L419.95747908072997,263.64265728085775L412.60469457234,265.368662889754L414.1039631175993,275.9971916468403L405.8261429355448,273.99675052166094L405.2251688272844,271.3868114174784L404.38000500524265,271.2260043806855L403.6622139157504,269.2130232547697L401.79736451657845,267.3329919431071L400.1686120885116,267.0226204105111L378.189778556586,270.321331391664L382.6604910973151,246.332499570648L380.95151495924245,229.14336306971927L365.20620443782855,231.36239491089145L353.3535031434026,156.6060975002274L377.2489092559474,152.7129709769597L381.65487985527056,136.73873080749036L379.6341571949996,135.23587170658357L376.48783958605827,135.5891589435687L375.5511925859448,132.87044113135562L375.62226797813867,130.30453310908524L380.1964268817669,110.78336514055991L389.09879568335805,110.02657189860838L399.0514617408917,73.92615235189987L348.919735732278,77.00936363544133Z" stroke="#FFFFFF" stroke-dasharray="1, 0" stroke-width="1"></path><text x="444.2654993988734" y="152.5181699120451" title="Hartford" class="hint " style="">Hartford</text></a></g></g></svg>