<svg id="map" class="map svg-content-responsive" xmlns:xlink="http://www.w3.org/1999/xlink" preserveAspectRatio="xMinYMin meet" viewBox="0 0 960  540"><g><g id="states"><a id="s01" rel="nofollow " title="Sussex" class="hint   "><path d="M408.7975120413712,377.71036816406377L453.7244227621279,375.71789189381343L472.72826020448815,352.0285840202505L494.9019059912605,347.2372496221724L497.1004511733049,334.3524574077601L517.6157381628395,335.3270243576644L520.9957232445659,349.0271762647899L551.4300654390361,385.6235615296973L566.5847732967343,394.0915442710102L576.4821138132477,391.8694934951345L577.8463860277845,386.6414976274191L589.3940428643414,507.65312697486297L416.55289742292734,504.63471859935817Z" stroke="#FFFFFF" stroke-dasharray="1, 0" stroke-width="1"></path><text x="488.2854789522903" y="435.2083258973826" title="Kent" class="hint Kent " style="">Sussex</text></a><a id="s02" rel="nofollow " title="New Castle" class="hint   "><path d="M450.9007090196003,140.8361353989185L451.9202270451235,138.86086216761396L450.3910840481258,143.00235585952578ZM449.3584035456463,102.49105794760908L452.5360127155518,100.85367252323522L453.494675996978,109.20190027633726L451.8690232736624,109.41345692199502ZM446.92852953388365,111.4179335521494L449.49917332740097,113.28412850877066L451.1532428034657,114.93797692997032L449.13887034914364,116.14750351632574ZM391.0888309178979,90.57571972303413L391.1048910882341,68.6743647285839L395.07519399593843,68.6740161855505L407.6045692152111,47.08043876033662L424.82270863810936,34.160897904755984L457.92447243498896,28.20511181833899L489.0032851352039,39.233721924056226L476.9165142441302,46.26130967761492L451.7853815108499,91.48857609880179L445.10985735792883,93.47330595678795L437.66198731189047,105.67753870132947L440.4202889065807,114.73516569618732L451.57413244324243,124.36246873720484L443.7206534640934,157.25759076728718L458.1480533009569,174.9879550224523L465.1557096733468,192.6255315451508L454.16515051231454,197.010270269604L448.46812775123635,210.72715349216014L427.0641470318533,218.43550726486683L398.74300529614925,216.48439164538104Z" stroke="#FFFFFF" stroke-dasharray="1, 0" stroke-width="1"></path><text x="418.2238794926277" y="120.6336433192211" title="New Castle" class="hint " style="">New Castle</text></a><a id="s03" rel="nofollow " title="Kent" class="hint   "><path d="M398.74300529614925,216.48439164538104L427.0641470318533,218.43550726486683L445.7484300470692,212.38682181334661L454.16515051231454,197.010270269604L465.1557096733468,192.6255315451508L484.8182480864416,210.74447838292508L494.0239355643412,229.98444522299178L496.7337142132949,248.8836331552884L491.69992773807803,266.1513114998306L494.7351586307907,296.00597537533395L511.1270675633757,312.2030668365969L518.0808614271832,325.7203096508965L518.8927329825726,337.738690560509L500.4683725392415,332.2380615869861L495.08875954471773,337.1181680683767L494.60862365628213,347.51151829728224L472.72826020448815,352.0285840202505L453.7244227621279,375.71789189381343L408.7975120413712,377.71036816406377Z" stroke="#FFFFFF" stroke-dasharray="1, 0" stroke-width="1"></path><text x="441.25437226826864" y="288.87377761644893" title="Kent" class="hint " style="">Kent</text></a></g></g></svg>