<svg id="map" class="map svg-content-responsive" xmlns:xlink="http://www.w3.org/1999/xlink" preserveAspectRatio="xMinYMin meet" viewBox="0 0 960  540"><g><g id="states"><a id="s01" rel="nofollow " title="Boise" class="hint   "><path d="M368.56031955124945,403.98382497355124L368.60822255603034,379.9636250243939L376.679803463564,380.200968108315L376.283259072457,378.66864631883664L377.1532037773486,373.99179780365193L407.15496122978857,373.5093674351515L407.74120755168997,374.2422520714608L411.1785120385762,371.8822576639027L412.4226832603622,372.36284288529305L413.1884778856015,370.26826927967477L414.9376161441551,369.0761002210302L415.0454858695093,366.06538377217976L417.79073519392205,366.75672136207413L420.36161355969034,370.0726999318613L420.6972361860594,368.9710183076372L421.88737201420327,369.2112417396197L422.4851793970697,370.76399778603945L423.6039382401259,369.7723407241647L424.72742203853113,373.25234289656646L423.8116854791215,374.0580960002694L424.1709328822453,376.3462396863033L427.1744462555239,378.644048868196L431.2673131646211,379.47320359186415L431.6701910065167,380.83489037180925L430.250995374814,382.15271740752405L432.7553222418078,384.21216314844924L430.8253790428548,385.6894746604594L430.1801210445492,387.9020419052149L431.7135701178777,389.66942812307116L433.4763805876596,389.76259310524847L433.23163795357505,391.08666538530315L434.24116990325,391.7959057430744L433.06324858734297,394.05618436282157L430.6667914457016,393.5009536288767L429.20763475544436,394.6829639946859L427.9502939772551,393.449350822264L428.2917473995881,392.18945666252193L425.69211717785447,391.6161619543486L424.2420585399227,385.0958285403276L421.01204890268946,383.63720350635094L422.6939822111972,385.7514580219686L418.609057248329,394.60366184503573L407.4481095234805,398.2306736946289L405.6028133969844,400.72968840770363L405.975682745855,403.3468829888111L405.07738830885773,405.0070884863044L402.802473103799,404.6155856767509L401.6587825814454,405.84296507963745L400.73409876615733,408.2796613858227L401.7022622237705,409.45260911922514L400.1381009406605,411.4368242952755L397.53907390471613,413.86170571959155L395.872622364805,413.8140376875763L395.1194946411447,415.22953225770834L393.29083638934253,415.0430179153659L390.9136811929652,418.0099345748622L388.5707567901427,419.0080389217096L385.1071131904482,417.79272157221203L383.32555369570855,419.37716605407013Z" stroke="#FFFFFF" stroke-dasharray="1, 0" stroke-width="1"></path><text x="386.92901038754377" y="391.1731655169198" title="Bannock" class="hint Bannock " style="">Boise</text></a><a id="s02" rel="nofollow " title="Butte" class="hint   "><path d="M493.0118735853803,420.3467761501852L494.9289488208242,416.8271705613697L508.6568542038094,408.7056757929972L510.5951414728511,406.2172970324832L510.8709984405773,403.88986405198466L512.3838386660987,403.33232357285215L514.9961860548942,404.7063964396584L512.7415781047489,400.5692917756701L510.06187496945995,398.63261165871745L510.82274357741835,394.72052029387714L510.11827284077754,386.3827120138353L512.2065020439886,386.3960020099953L512.1937848769276,374.20542151437303L533.377368210894,374.1519640069814L533.4159721014221,392.4752710890875L548.4494228602753,392.5046756104821L548.2660041147874,422.56075688388364L542.3654899255566,422.8452571557991L542.3440768300293,428.8583636869116L536.305634156935,428.8429929007807L535.7938812800357,440.2216714093115L514.9366214581819,440.2315455928192L514.9390342013407,434.5322842962769L501.200472536073,434.5055946370744L501.2459627976973,425.5121559874906L499.31049039567324,425.31224085343956L499.6760712495866,424.5217029379046L498.2093244714788,419.8203669889108L496.5546350544628,419.0861142163094L494.06780057536344,420.7019104915512Z" stroke="#FFFFFF" stroke-dasharray="1, 0" stroke-width="1"></path><text x="515.4896018196358" y="409.75959830825167" title="Butte" class="hint " style="">Butte</text></a><a id="s03" rel="nofollow " title="Camas" class="hint   "><path d="M428.2479661643674,434.3131613160176L428.424046149416,418.09642788238716L429.3271158072462,418.3999038729571L430.9660721282535,416.8723044756366L430.7856190462312,413.16664353518536L432.15530317771345,411.66959402423754L432.11212512828297,410.3711875812369L430.4714095153895,408.28453195843895L432.5744670359268,400.926115313418L435.01817373107724,400.71484100026964L440.13354108432395,403.25534590945153L439.91885720874734,405.0775578659418L441.19962170176314,405.33192011654137L442.62892069544023,404.3061595844829L444.65195556790513,405.07853273041474L446.8582081239265,403.4243465843483L447.9782738695253,405.28241365357235L448.1393747408015,407.88234263663344L449.38490313061493,408.7454710920874L448.29273472777913,412.08184543184825L449.6327622246117,414.54935722645405L448.56622921782946,419.0716096719543L450.10968112216824,418.88790421800604L453.37221252655036,421.2587286828957L452.92208513114383,423.17210001194144L454.30458696065307,425.0263144282503L456.92256408348476,425.80040501506073L457.1071892005498,428.07659766836423L455.3708183745407,429.76735535851276L455.4009273985321,432.37139327296427L456.39980306592724,432.37409127721185L455.998835312364,436.8671104653463L463.02992073302767,437.36284408697475L463.01785701723793,442.1035614633947L464.02774082529004,442.106805373704L464.017486666869,446.0993343824921L428.2690274015172,446.2080042304092Z" stroke="#FFFFFF" stroke-dasharray="1, 0" stroke-width="1"></path><text x="433.3522798226281" y="427.80578051606017" title="Camas" class="hint " style="">Camas</text></a><a id="s04" rel="nofollow " title="Canyon" class="hint   "><path d="M330.46586968864403,402.1170248116946L331.6161952546827,401.54788678041814L331.0093400849737,400.38797548346247L334.35968528720923,398.9105210360203L334.35475926992785,401.9545911305845L336.39337644195484,401.9745908152254L337.4095937007978,403.98236229199756L339.4510760053231,403.9819443828874L339.4499701647087,405.0040942075798L344.50396336387485,403.9952478022956L356.57300729479994,403.9976855970526L356.54179243019416,416.0284278557442L358.5338637654645,416.0339838884697L358.528585889806,428.1621905053021L356.5299800418161,428.1595590363859L356.6034179116864,439.8281352267486L353.22205890677515,438.74670486018704L351.04043643715704,434.33528848562764L348.68660442464034,433.0939812852612L343.24310400191234,427.1918973423676L343.1137206500671,423.47000812362603L341.3247218639244,419.96732695130277L336.6964773011732,418.37227819702184L334.3150998042697,415.92473703793075L333.6030892452595,413.6559510293182L330.73039200852963,412.7893549154546Z" stroke="#FFFFFF" stroke-dasharray="1, 0" stroke-width="1"></path><text x="337.62452709722567" y="416.6334379414754" title="Canyon" class="hint " style="">Canyon</text></a><a id="s05" rel="nofollow " title="Custer" class="hint   "><path d="M417.26656674285687,349.8443473212469L418.5483365455211,347.5510210516659L422.59877938742375,346.6964135636945L424.15514952075273,345.0409257603965L425.59420001802664,340.2862631944063L424.9624634345014,339.3158761667296L428.1293396257679,336.3088823230278L430.6566378182447,337.7547942958172L430.9501379703138,338.8643134348663L431.7373456910809,338.26649282155586L432.1160961013975,340.3929301857793L432.8025717953178,339.3069614335586L435.2429609686269,339.70881265252L436.94123055893306,337.26653318099216L442.0291026932764,333.6692435888458L442.76765342702265,334.66215001735054L441.77294979467206,338.54467992218224L444.9681254525617,341.9644607492796L445.6121268138063,344.6793787468355L451.24045341553074,344.6705463413109L452.89846035438904,346.8743125819328L452.52257507657214,348.6508312815354L454.2513558147307,350.0839967969596L456.835001613043,348.1443819370902L458.86844144037605,348.81509268058016L460.1987174336123,347.5224946387184L460.9861262163081,344.78126800047767L463.42887786729216,343.38074009994943L464.12399922419627,340.6510980698049L462.48464077932977,340.05007221258575L462.55013670297103,338.5407170741573L464.7462356315368,337.6577554470741L465.55998352704046,334.7010367776402L468.8836880235731,332.6221659040084L471.745503001805,328.6627829143945L473.0414979360048,329.9663155223311L473.3361039286888,332.5252886226658L471.9684806819869,338.02183389041556L475.0825278511893,338.1347878792458L476.0504902468724,339.1919171821678L478.5995533932537,337.3800035238437L482.6683431362535,345.9534481223609L492.1031741935144,355.8827617127499L505.85309585781624,360.71892257221543L507.9165944436595,360.9358393947873L510.41906148780254,358.63193908671883L512.8492970336542,363.8710453331096L514.9840218081395,366.337546777168L516.0596026017633,368.3821307274525L517.0150488923146,374.2194522415307L512.1937848769276,374.20542151437303L512.2065020439886,386.3960020099953L510.11827284077754,386.3827120138353L510.82274357741835,394.72052029387714L510.06187496945995,398.63261165871745L512.7415781047489,400.5692917756701L514.9961860548942,404.7063964396584L512.3838386660987,403.33232357285215L510.8709984405773,403.88986405198466L510.5951414728511,406.2172970324832L508.6568542038094,408.7056757929972L494.9289488208242,416.8271705613697L492.9965928787128,420.5379100261207L489.7664324450334,415.25981834363165L487.64447510309265,414.94930607294737L487.293320442644,413.42037341948935L484.16087610686236,410.91081973358996L482.6564804823938,406.9336343073305L481.37134289240385,406.35123244448823L479.3455936838868,409.0419062779197L476.9842721144837,408.6487650718077L475.70697593975774,406.2811326909509L469.0056823494979,402.32732205749153L468.85041227418697,399.00152621464076L468.1632831289935,398.4287531368791L465.5973307805066,398.2043786360309L464.8050965114944,399.32731538744156L458.4830559863749,397.21208932120726L456.9729803623891,397.8932891828131L456.5512529645712,401.1133326037211L454.59833844013474,401.40536359162707L452.39666004301716,397.9713427394813L449.68684788373594,395.9993956741132L441.95958553103674,395.5884787340997L441.9554134959926,391.0376875536317L438.22380460931845,391.3053467910768L434.13475787688776,394.9211405669348L433.06324858734297,394.05618436282157L434.24116990325,391.7959057430744L433.23163795357505,391.08666538530315L433.4763805876596,389.76259310524847L431.7135701178777,389.66942812307116L430.1801210445492,387.9020419052149L430.8253790428548,385.6894746604594L432.7553222418078,384.21216314844924L430.250995374814,382.15271740752405L431.6701910065167,380.83489037180925L431.3841804113349,379.66580603147895L428.45973464196004,378.2165484255943L427.1744462555239,378.644048868196L424.1709328822453,376.3462396863033L423.8116854791215,374.0580960002694L424.72742203853113,373.25234289656646L423.79067450745424,370.021014705741L422.4851793970697,370.76399778603945L421.88737201420327,369.2112417396197L420.6972361860594,368.9710183076372L420.36161355969034,370.0726999318613L420.0466500466123,368.7492557741789L418.0762431342814,367.7117235203932L418.31012842415566,365.43685189226153L420.9701777558016,361.4188288645214L421.35802621844323,358.0324149270309L420.17729003551904,354.06756599255095L417.7963146624752,353.19280834479423Z" stroke="#FFFFFF" stroke-dasharray="1, 0" stroke-width="1"></path><text x="459.6235138847778" y="373.5290676734606" title="Custer" class="hint " style="">Custer</text></a><a id="s06" rel="nofollow " title="Elmore" class="hint   "><path d="M368.8715131531435,452.405608555594L383.4041186447903,452.039513758697L383.5546637647499,418.99603254693966L384.5206155411347,419.12726798423637L385.1071131904482,417.79272157221203L388.5707567901427,419.0080389217096L390.9136811929652,418.0099345748622L393.29083638934253,415.0430179153659L394.7352150277575,415.4099257220796L396.0874570368269,413.67999448543515L397.53907390471613,413.86170571959155L401.6178162132419,409.66177097172977L400.73409876615733,408.2796613858227L401.7649935458785,405.69195573558636L402.802473103799,404.6155856767509L405.07738830885773,405.0070884863044L405.975682745855,403.3468829888111L405.6028133969844,400.72968840770363L407.0284932759255,398.5826766611958L418.19688029217787,395.0226336988185L422.6939822111972,385.7514580219686L421.01204890268946,383.63720350635094L424.2420585399227,385.0958285403276L425.69211717785447,391.6161619543486L428.2917473995881,392.18945666252193L427.9502939772551,393.449350822264L428.8558266437253,394.45322094481844L430.6667914457016,393.5009536288767L434.0067819585515,394.7199618383861L432.766179586019,396.5211485414743L433.91223258604896,399.80277390621495L431.6066051712087,402.89739847733927L430.68011179855284,406.7247530367558L430.47321907275864,408.35104949442166L431.8284267452932,409.5991000318536L432.15530317771345,411.66959402423754L430.7856190462312,413.16664353518536L430.9660721282535,416.8723044756366L429.3271158072462,418.3999038729571L428.424046149416,418.09642788238716L428.234092891209,465.70344563699064L430.7009217082905,465.8960286287961L430.70479215043997,475.72971731480266L409.7678615388909,475.7624467340588L410.40633369706484,464.5737828580254L402.286296864444,464.15196104867255L401.13883643090503,462.84963649135716L393.8195789993133,464.0563175362954L392.57274370695586,463.36635679698884L392.8463387279712,461.7720398216443L387.0229820543136,461.0603373882618L385.9040221493283,459.71506472695955L384.1194969911244,460.8419040328913L384.0951684976144,463.71238124003094L381.68946250720137,463.2637594658386L379.74790798180084,460.7814360559528L375.00460572970496,458.9206605875438L374.9387579476861,457.25561817199105L372.1936091542375,456.478566104121L371.8744233406328,455.1910737914227L372.69968203161943,454.1707072433546L372.0562838561641,453.483740651126Z" stroke="#FFFFFF" stroke-dasharray="1, 0" stroke-width="1"></path><text x="400.05279254136036" y="435.29628723263284" title="Elmore" class="hint " style="">Elmore</text></a><a id="s07" rel="nofollow " title="Fremont" class="hint   "><path d="M575.557949407947,386.5049783698769L581.6711368534561,386.53449522158826L581.7039602135005,380.4664567727773L587.738984833788,380.4462830346838L587.7317968697967,377.401371752404L590.5412854807896,377.40354483606734L590.82151554549,368.33414775166557L593.874389622543,368.33239140959904L593.8702175874985,362.38541168757183L602.6258111803122,362.4104580612816L602.6327113671778,351.9123367516577L604.1805225527207,351.0392800368272L607.7612847265407,352.8478458279005L610.3548328248971,352.5252105432128L610.0710841764251,351.3994203349821L608.0274404561533,350.8627609504456L608.461482897173,350.34550643276816L607.2622490167034,348.0367869302486L608.4037278578294,346.5101021483306L607.7161965887772,345.29237184039494L608.9342800251679,345.3577212742316L609.9234544544472,343.6786520750925L609.0926162949088,340.9392366403349L611.4073920275557,339.90731825471903L612.8379476582952,340.57881270344933L613.9336346449015,337.63326533736745L615.8096429811783,339.41471520073674L617.4232152335444,339.3184939815119L620.2505480908108,343.63511516420476L619.6637991140851,344.7832464075136L620.9352142273631,344.789746881052L622.5958852367919,346.78017325320707L621.5811759424241,347.43754971403087L622.2259815513883,350.0151237047817L624.5620195831143,350.57546025639294L624.9277009679922,351.97917630928805L627.0576002561613,353.1713019212316L627.2586119205093,355.62505756032033L631.1998781345139,357.284172349292L631.1706738892065,391.7689411785609L624.2490666893343,395.28542934783036L621.796714331201,394.10128661499584L618.1382919869841,396.1885796614456L615.8403049254771,394.1692183389746L612.2876914218334,396.8036646273413L608.4669115692782,395.48839531717886L605.6163057936353,397.3352925746135L605.5715695142471,398.6907754103204L598.5850193110412,398.6813604697927L598.5739609049003,397.67272241079536L591.5596138898954,397.6224968407132L591.5738892869135,395.6313310075152L584.5597935993196,395.6154882804444L584.5513992637489,392.57675422064085L575.5360839230789,392.55314721686864Z" stroke="#FFFFFF" stroke-dasharray="1, 0" stroke-width="1"></path><text x="600.47588626786" y="374.48189444468125" title="Fremont" class="hint " style="">Fremont</text></a><a id="s08" rel="nofollow " title="Lewis" class="hint   "><path d="M346.4537614283986,225.9587917411036L346.46994691374994,224.72571144666472L357.72061852478555,224.72141686829718L357.5779650855711,223.761498776405L358.7659897634526,222.87220689218384L363.7962073894155,223.43785826320754L363.83913411143385,218.1075108856462L361.31103167123774,214.343031521988L363.4581217544069,214.2733353020967L366.25021850846997,216.56376672947817L366.8211841237039,218.353649447085L372.6255404449944,218.51054024663017L375.9452739684134,226.68704896960435L381.6996161346583,231.98820402542697L379.5702697667962,233.12730150433208L374.87683087329833,233.08735142070282L372.4357882487179,237.3309379623097L361.2000957514542,233.74262753211042L359.706507205713,234.11924275301226L358.3289816589677,239.44563829982962L356.47524093141965,238.80312051037345L355.8753223982908,248.055227000973L350.9209051198727,245.62395402132506L349.73619796383355,246.13592753312378L350.0019013041042,248.11275703423462L349.02851023631547,248.95643589484507L347.0568969524047,248.61240135919024L347.02050474310636,231.10677847661236L347.98298820120044,230.73155034858473Z" stroke="#FFFFFF" stroke-dasharray="1, 0" stroke-width="1"></path><text x="351.9284958133346" y="231.12206696430246" title="Lewis" class="hint " style="">Lewis</text></a><a id="s09" rel="nofollow " title="Lincoln" class="hint   "><path d="M452.97033999430323,458.38366402999645L452.9770253034699,446.18862865729943L497.20879004316384,446.08947397186284L497.23884880167316,470.1579261680836L494.73683414687184,470.15182415172785L494.70149751270446,476.01386598474164L480.35381873101824,475.9630629694175L480.3594484650539,472.98790279246623L465.49041609931965,472.946039219486L465.49076795769633,471.9519490572138L464.5017945903469,471.9485909437808L464.49983423653066,470.08552414882115L452.98858636443583,470.077913637399Z" stroke="#FFFFFF" stroke-dasharray="1, 0" stroke-width="1"></path><text x="466.91155061822866" y="459.6815545289585" title="Lincoln" class="hint " style="">Lincoln</text></a><a id="s10" rel="nofollow " title="Valley" class="hint   "><path d="M371.6321437151878,367.81585386314964L374.6789859343462,367.80559552514615L374.6728032800038,355.5396458914329L373.0764720881202,349.4166694866035L374.42172719512837,341.12898398105335L371.71754476988326,335.6153002914739L372.43131462077827,329.70896127284595L374.25213145731686,327.1143724205144L374.54517922004334,324.03347043904705L375.76527327573285,324.1950308766668L376.5342346263669,322.7721557227055L375.5852223175707,319.489188635946L377.8546083195588,315.5432134731709L375.22698022409713,314.3410558477699L375.0207912150563,312.03325565823434L376.2187684584637,308.78174133735L378.52962348347955,309.05524751664507L383.61679190106724,304.4238295442601L384.08994088743884,305.57506336437746L383.551245711943,306.162434238523L447.98083740913034,306.02690563204624L446.8726343173912,306.70443209917266L446.0572276609669,309.3087784960353L446.5994916857185,311.4558515315762L446.01093315162325,313.3455370726233L446.69987185418495,313.80997195901045L445.87018980074254,321.8540868529285L446.50951647211923,324.7295194989533L445.8745126322342,325.3928639631513L446.50841063150574,327.79648615657607L444.215450118244,329.12540413428405L444.33920373605497,331.23157603087475L443.00008101790536,331.7016326368648L441.99090092660754,333.770698860164L436.94123055893306,337.26653318099216L435.2429609686269,339.70881265252L432.8025717953178,339.3069614335586L432.1160961013975,340.3929301857793L431.7373456910809,338.26649282155586L430.9501379703138,338.8643134348663L430.6566378182447,337.7547942958172L428.1293396257679,336.3088823230278L424.9624634345014,339.3158761667296L425.59420001802664,340.2862631944063L424.15514952075273,345.0409257603965L422.59877938742375,346.6964135636945L418.4986239833711,347.59423395270096L417.26656674285687,349.8443473212469L417.7963146624752,353.19280834479423L420.62284327202224,354.68359887141605L421.1279611052364,360.8435702037077L417.79073519392205,366.75672136207413L414.63054431182354,366.29888835487736L414.9376161441551,369.0761002210302L413.1884778856015,370.26826927967477L412.3773940606693,372.4078312757824L411.1785120385762,371.8822576639027L407.74120755168997,374.2422520714608L407.15496122978857,373.5093674351515L377.1532037773486,373.99179780365193L376.283259072457,378.66864631883664L376.679803463564,380.200968108315L371.5838385865459,379.9524160412602Z" stroke="#FFFFFF" stroke-dasharray="1, 0" stroke-width="1"></path><text x="395.14890469341583" y="336.38717956487426" title="Valley" class="hint " style="">Valley</text></a><a id="s11" rel="nofollow " title="Lemhi" class="hint   "><path d="M441.71378732181984,337.88481283562396L442.76765342702265,334.66215001735054L442.22327825200864,333.05238100129145L444.33920373605497,331.23157603087475L444.215450118244,329.12540413428405L446.50841063150574,327.79648615657607L445.87018980074254,321.8540868529285L446.5970286770771,319.4847095709406L446.69987185418495,313.80997195901045L446.01093315162325,313.3455370726233L446.5705890333047,307.24835430496023L453.0413651210165,298.8707734400032L449.51549285403917,296.06350171949543L448.9256274174004,294.0240931166186L446.86323467217153,291.857173060032L444.5030692088658,290.5248141562847L444.2045927740337,289.05899867497874L442.99419995645894,288.9317075533304L442.9654983659748,283.77257809417824L448.15550996066986,285.0299413485145L449.5026751560117,286.4473312983105L451.0975486489042,282.9929926593454L454.46644181416605,280.2207586341019L456.3470745748291,279.286180519357L457.81985321083175,280.38723254294746L459.142539116217,279.6883405816361L461.51823661360277,283.65767258635924L464.461029284073,285.01517051737346L466.2987353227172,287.2380031460407L469.2708830349434,285.4854443914651L470.38149886983956,281.11076505971414L473.20279986921105,281.70837110552657L478.51294596697926,277.8242518474394L479.49925526375955,275.18093486813814L481.9209959430764,273.7050765780318L481.487908546223,271.74469691938157L482.086922300668,270.29499735332183L485.9260490543202,270.3037051681231L488.131095238763,274.072132626683L487.706502708445,275.639204337926L489.8403729697279,275.49560542819563L492.5460130939646,276.9907095018498L493.06234012976665,278.47534813271295L491.86903757622713,279.6282452953824L491.18613073156075,282.85560991358216L494.59935805235045,282.8689538213316L494.92955200661345,285.7498463297479L493.74554856732857,287.8109142101903L494.9215095294203,289.5690541755066L494.1224391547944,290.9267158687817L496.2155441098048,292.0810035228419L496.03187403690526,296.65804342311867L498.9081654740844,300.16474298202684L498.3225223379727,301.2978326933462L503.37792297064743,306.9537596229352L503.4384426115266,308.9715652774721L504.7101593176999,309.480688729554L504.48828747813195,311.22247321973555L507.48204934781506,311.85098260805853L506.86679984253533,313.541627196902L510.4084052055214,315.859388115256L511.1202649680836,319.5459941281938L510.7932377392158,322.9996161322438L508.07965566875055,324.2112930891458L509.40792104268894,326.49935761130337L509.1043175286459,327.50947726413597L511.9062663172708,331.58006534842025L515.2329867427516,332.8577941798221L515.9487672129449,335.326928142988L520.6847307046023,332.64073319670115L526.5040661396642,336.1700337156476L526.3809659731264,337.6404849803248L529.7245756007123,342.83822314433974L530.6269918072712,346.3514694556402L528.7302740922219,348.4384887929782L531.2309818444796,350.8681229529616L530.9078753232434,352.3997461733834L532.7309038410094,353.5414082363759L531.7985796723892,355.8383675639175L533.0311898332106,358.98958372970264L536.1676554075893,361.619031542672L538.702342625988,362.1324769852122L540.4147870823481,365.3139602767769L542.4898373563524,364.17369803517795L542.4904499149447,374.42169987601665L517.0150488923146,374.2194522415307L516.0596026017633,368.3821307274525L510.41906148780254,358.63193908671883L507.9165944436595,360.9358393947873L505.85309585781624,360.71892257221543L492.1031741935144,355.8827617127499L482.6683431362535,345.9534481223609L478.5995533932537,337.3800035238437L476.0504902468724,339.1919171821678L475.0825278511893,338.1347878792458L472.0504134183916,338.1198549180126L473.3361039286888,332.5252886226658L473.0414979360048,329.9663155223311L471.745503001805,328.6627829143945L468.8836880235731,332.6221659040084L465.55998352704046,334.7010367776402L464.7462356315368,337.6577554470741L462.55013670297103,338.5407170741573L462.48464077932977,340.05007221258575L464.12399922419627,340.6510980698049L463.42887786729216,343.38074009994943L460.9861262163081,344.78126800047767L460.1987174336123,347.5224946387184L458.86844144037605,348.81509268058016L456.835001613043,348.1443819370902L454.2513558147307,350.0839967969596L452.52257507657214,348.6508312815354L452.89846035438904,346.8743125819328L451.24045341553074,344.6705463413109L445.6121268138063,344.6793787468355L444.9681254525617,341.9644607492796L442.5069263695159,339.9328558745019Z" stroke="#FFFFFF" stroke-dasharray="1, 0" stroke-width="1"></path><text x="477.21666721312397" y="323.92854801083257" title="Lemhi" class="hint " style="">Lemhi</text></a><a id="s12" rel="nofollow " title="Owyhee" class="hint   "><path d="M330.71146683593133,416.94167087871847L330.73039200852963,412.7893549154546L333.6030892452595,413.6559510293182L334.3150998042697,415.92473703793075L336.6964773011732,418.37227819702184L341.3247218639244,419.96732695130277L343.1137206500671,423.47000812362603L343.24310400191234,427.1918973423676L348.68660442464034,433.0939812852612L351.04043643715704,434.33528848562764L353.22205890677515,438.74670486018704L357.1428670694195,440.4075507458783L360.5671025308675,439.432628395989L361.7129042034853,440.24929144469525L363.37478158449267,443.36283872069043L362.93395330334124,446.5173807431229L366.8523487228281,451.39166078679955L372.0562838561641,453.483740651126L372.69968203161943,454.1707072433546L371.8744233406328,455.1910737914227L372.1936091542375,456.478566104121L374.9387579476861,457.25561817199105L375.00460572970496,458.9206605875438L379.74790798180084,460.7814360559528L381.68946250720137,463.2637594658386L384.0951684976144,463.71238124003094L384.1194969911244,460.8419040328913L385.9040221493283,459.71506472695955L387.0229820543136,461.0603373882618L392.8463387279712,461.7720398216443L392.57274370695586,463.36635679698884L393.8195789993133,464.0563175362954L401.13883643090503,462.84963649135716L402.286296864444,464.15196104867255L410.40633369706484,464.5737828580254L409.7678615388909,475.7624467340588L430.70479215043997,475.72971731480266L430.68166096961386,528.2920379978477L330.7518802838272,528.0297636660284Z" stroke="#FFFFFF" stroke-dasharray="1, 0" stroke-width="1"></path><text x="364.74878723757445" y="488.27345575299137" title="Owyhee" class="hint " style="">Owyhee</text></a><a id="s13" rel="nofollow " title="Twin Falls" class="hint   "><path d="M430.6808155153076,466.63134596372447L431.4223821780015,465.4506585725685L434.5940838555839,465.6859438969641L436.6540638576539,467.9804564355413L437.5180772356148,470.26892648147805L435.782560922808,472.6583958289648L435.721237034209,475.4745835182807L439.9016664137466,476.7387354557568L440.1194164837525,479.47662237047643L441.3570531928194,480.00212637935283L442.0411664090652,482.844754134032L445.3800008158182,482.2343488938345L450.10138731756206,483.0817419240052L456.7028536596631,485.12604174658554L459.4560449303035,487.2680338464156L464.004668968842,487.3732614658552L466.13089887679234,489.11866342265284L472.83048344064855,491.145260797995L475.3268683614151,494.21709690734315L480.5803652604536,492.11181646293744L482.84562949288056,492.2704664458897L479.49367579520685,493.0834037654904L479.3886712023527,499.7153942219734L468.51695106356374,499.7011640159908L468.7003535148415,528.4136695306356L430.68166096961386,528.2920379978477Z" stroke="#FFFFFF" stroke-dasharray="1, 0" stroke-width="1"></path><text x="440.2742679804673" y="503.839681536382" title="Twin Falls" class="hint " style="">Twin Falls</text></a><a id="s14" rel="nofollow " title="Washington" class="hint   "><path d="M319.87050917240595,362.7415342861168L321.2579872846777,360.587302961781L320.75513139817394,356.70128978306275L324.5669639948519,352.9088439666116L324.61657602603646,350.9183561099944L325.7978651292701,349.5449775179868L328.9385027386925,339.41839420245014L335.3510211322341,335.4022099657941L337.1132847976123,331.3828912461813L350.91653202289945,331.50024719020166L350.94669131237424,343.9639628795171L352.2119237713109,345.80079827749023L352.01342538108565,347.3312778168006L355.7353330296469,347.333961127832L355.7488544444277,356.0531462313593L361.8435441923921,359.3712764539314L367.270306209462,359.4794902112667L366.26715797605857,361.04295633324136L364.8414278316359,367.9609433754317L365.0768713514667,375.2968696716148L364.3880331798691,376.03820247690555L364.3143942480692,379.9684588889909L337.2034877807496,379.8635248484625L336.95690276578534,377.9847686337721L333.49245491837064,376.73775667606105L333.27983192757665,373.540310342004L330.46712632570507,373.13396448678895L329.4031065930453,374.50622985723567L326.8306197318402,370.9366461769305L324.8609165362627,372.4583636724501L322.1087305752699,371.36574337256206L320.87722625506376,369.69810782685863L322.5298547872994,366.9577188640278Z" stroke="#FFFFFF" stroke-dasharray="1, 0" stroke-width="1"></path><text x="333.8635536352353" y="358.7833430496613" title="Washington" class="hint " style="">Washington</text></a><a id="s15" rel="nofollow " title="Clearwater" class="hint   "><path d="M359.407327054128,206.26413848872198L359.40818156732894,202.56738339280946L365.769680496177,202.65082668377408L365.774908106353,180.13705848369045L434.64669621667827,180.26953084099523L436.5172412144061,181.7696099262339L435.2114947766081,185.656324371992L437.7148665994364,188.42221082051583L437.8680255244835,189.91835781413192L439.3463333635568,188.971057269006L441.1642348021128,191.28856368131574L443.303885593878,191.3632898547603L444.40248797846834,193.10221958642478L443.2485935631753,196.48556458597568L445.0373410219054,197.5825574801861L447.13813659573134,196.10617146317918L447.74996804820375,194.4082439015442L449.4601002923705,194.5085089024019L451.6238282502336,196.79660314998182L450.61158196450515,198.89897263169087L450.9073943287681,200.3431183106468L452.9827585493631,202.22492249705147L400.98482299265515,213.93162367907325L400.70072248580664,216.58163672434011L395.81979334274183,221.74466933742906L394.96578279578944,226.82658790754658L392.68780139630144,229.04109605708982L383.4046212996145,226.9915838488123L379.66486940478035,222.54179376579168L375.71807398770534,222.64113178380785L373.469749222867,221.18817543328578L372.4630321402092,218.35758637372555L366.8211841237039,218.353649447085L366.25021850846997,216.56376672947817L363.7800721695471,214.42024328866182L363.751471110028,211.9757406315357L359.63638685768547,212.67494931970987Z" stroke="#FFFFFF" stroke-dasharray="1, 0" stroke-width="1"></path><text x="390.5654631070616" y="199.2949254039726" title="Clearwater" class="hint " style="">Clearwater</text></a><a id="s16" rel="nofollow " title="Nez Perce" class="hint   "><path d="M328.91276681167346,221.83055143648244L330.28199855381536,218.57134105752084L330.0753169205277,208.95871873297665L346.18901313229435,208.87359816227035L347.2463978212704,205.67606939826192L351.1185489968966,202.523977547477L359.40818156732894,202.56738339280946L359.63638685768547,212.67494931970987L363.751471110028,211.9757406315357L363.7800721695471,214.42024328866182L361.31103167123774,214.343031521988L363.83913411143385,218.1075108856462L363.7962073894155,223.43785826320754L358.7659897634526,222.87220689218384L357.5779650855711,223.761498776405L357.72061852478555,224.72141686829718L346.46994691374994,224.72571144666472L347.98298820120044,230.73155034858473L347.02050474310636,231.10677847661236L347.0568969524047,248.61240135919024L344.28108621465844,252.53777655845897L345.6231243307893,256.0057827568239L342.6140817544406,258.8134376279627L339.24388168663427,255.27959800370354L334.95110895380367,243.93414305272154L332.97537390033176,242.20136729088927L334.31741201646264,240.9458221878922L335.99592727216395,236.18948337369693L333.7857037430281,233.6041293473795L334.3173617509801,231.60906231856143L332.5143388952315,228.30425123069745L332.73781923023716,226.82622415233163L331.0300494637463,225.50695649022737L330.67411958246475,223.76302772425925L329.01741954615045,223.01566625115902Z" stroke="#FFFFFF" stroke-dasharray="1, 0" stroke-width="1"></path><text x="335.62545963405586" y="224.54539304585913" title="Nez Perce" class="hint " style="">Nez Perce</text></a><a id="s17" rel="nofollow " title="Franklin" class="hint   "><path d="M577.0528951217143,508.6863056855709L584.2079854876006,508.66449551904043L584.2045674347933,510.6387825822808L588.5871143192921,510.65304435043754L588.6578881185919,499.7787827451857L596.5457486877428,499.78102958212276L596.7796842430994,498.7953716884722L597.9206604294013,499.7994127490124L603.541145615862,499.83311501608205L603.5455689783184,501.5104709838547L604.2975405958814,501.27396155111273L605.9074434680283,504.188953776184L604.0532503511386,506.000169355696L604.1827844994314,508.5037355361187L605.4025769622253,509.25951312003554L602.7741948845264,511.37238707717324L602.2114225429332,515.105894941395L604.1454372459655,518.4084871852019L603.7162705567437,521.6453400260357L607.7601788859267,523.384532172347L608.1364674066135,528.0533831822459L577.8948708297416,528.1748577128524L577.903537881341,516.5143461735961L579.864143024593,516.5323185066695L579.8293090452503,511.87618780001367Z" stroke="#FFFFFF" stroke-dasharray="1, 0" stroke-width="1"></path><text x="583.794904783262" y="515.7440613074248" title="Franklin" class="hint " style="">Franklin</text></a><a id="s18" rel="nofollow " title="Shoshone" class="hint   "><path d="M365.7666143017477,99.58785806360993L368.14743887834356,96.45569232501293L370.61663017309957,95.74085712405986L374.19804579819356,99.29815785013398L376.2941164166673,98.40592545380059L380.8067503697662,102.97570496426351L386.417132194254,111.89726939433967L389.7577761583748,113.82934903847217L390.7815835050683,119.20691286058445L392.5213723838842,119.1213030005556L393.6963280363275,122.05294777204062L396.2683122427088,123.78433427782011L395.57927300918345,126.76940875531591L397.693087342966,129.08030563732746L397.98935209656975,131.27437843332518L394.61588477240366,134.7040023105401L397.4779510780477,135.94352194446628L396.84088635338185,137.05128832253286L398.1042589894678,139.4196274365445L400.9337029969961,139.814347423051L400.4230559607113,141.29551201512777L396.5573387668396,141.82622705985295L394.43286815077636,143.96003139581444L396.33637170595694,143.82243528489607L399.5599473614343,145.7170023748222L400.28291579561983,147.41283691154194L403.56434702140587,148.15231170347852L405.0001805278025,149.65109539234663L406.03378964357535,153.20235957469458L408.2894029033705,154.47552512483662L416.50730663033664,156.35961447327827L417.9432909331813,159.81660892023774L417.49467150224746,161.43394470944713L419.40888160519125,161.91113193377578L420.27128648771395,164.1244276005591L425.3442800392486,167.8016729670171L426.0081362660644,170.2393294990634L428.9942075169306,173.41883482399817L430.1676552048989,177.5487024131544L432.53561181798705,177.39533591230793L434.64669621667827,180.26953084099523L365.774908106353,180.13705848369045Z" stroke="#FFFFFF" stroke-dasharray="1, 0" stroke-width="1"></path><text x="378.69142959590613" y="148.99531399699492" title="Shoshone" class="hint " style="">Shoshone</text></a><a id="s19" rel="nofollow " title="Bear Lake" class="hint   "><path d="M601.7671762089744,489.27046303821317L603.3453615616907,487.90980674784714L615.1676019737497,487.34239678813583L616.5601066342681,488.1915034918279L616.7761476778699,489.52770461477576L619.6180072595664,490.4634441678513L621.3089883549173,487.01680177061735L622.491684891658,489.17347299094126L621.1271781048679,494.1217874717213L621.8578874233524,495.5460938317069L625.0574361782155,495.8956390859894L625.650619136695,494.7088815481552L630.0393486755361,494.6075161088638L631.3136539738327,493.1194826885235L631.313478124868,527.9072004852469L608.1364674066135,528.0533831822459L607.7601788859267,523.384532172347L603.7162705567437,521.6453400260357L604.1454372459655,518.4084871852019L602.2114225429332,515.105894941395L602.7741948845264,511.37238707717324L605.4025769622253,509.25951312003554L604.1827844994314,508.5037355361187L604.0532503511386,506.000169355696L605.9074434680283,504.188953776184L604.2975405958814,501.27396155111273L603.5455689783184,501.5104709838547L603.3214351920401,500.08624798634355L604.5194627009312,498.8448813163336L604.3697720941732,497.7243385393449Z" stroke="#FFFFFF" stroke-dasharray="1, 0" stroke-width="1"></path><text x="608.1078835091043" y="508.64079702264377" title="Bear Lake" class="hint " style="">Bear Lake</text></a><a id="s20" rel="nofollow " title="Blaine" class="hint   "><path d="M432.766179586019,396.5211485414743L437.3859292822349,391.7806770727466L441.9554134959926,391.0376875536317L441.95958553103674,395.5884787340997L449.68684788373594,395.9993956741132L452.39666004301716,397.9713427394813L454.59833844013474,401.40536359162707L456.5512529645712,401.1133326037211L456.9729803623891,397.8932891828131L458.4830559863749,397.21208932120726L464.8050965114944,399.32731538744156L465.5973307805066,398.2043786360309L468.1632831289935,398.4287531368791L468.85041227418697,399.00152621464076L469.0056823494979,402.32732205749153L475.70697593975774,406.2811326909509L476.9842721144837,408.6487650718077L479.3455936838868,409.0419062779197L481.37134289240385,406.35123244448823L482.6564804823938,406.9336343073305L484.16087610686236,410.91081973358996L487.293320442644,413.42037341948935L487.64447510309265,414.94930607294737L489.7664324450334,415.25981834363165L491.1284259576996,418.0610255413044L492.2469334733423,418.3976827198394L492.79879820524275,420.4844905490818L496.5546350544628,419.0861142163094L498.2093244714788,419.8203669889108L499.6760712495866,424.5217029379046L499.31049039567324,425.31224085343956L501.2459627976973,425.5121559874906L501.200472536073,434.5055946370744L514.9390342013407,434.5322842962769L514.9366214581819,440.2315455928192L532.7627721568874,440.22464057182697L532.7429675567992,452.21158296292697L520.8920758197391,452.2106878631994L521.2205607475985,476.1543584870683L524.1392762519718,476.14456798106903L524.1515410296911,482.0896818252522L521.2256878268095,482.1000739527999L521.219304110537,485.52084771497175L520.5200107185897,486.16315743924724L517.5204180529422,485.117706634745L514.3757089394398,481.2569983597441L509.3964102472055,482.5072612568897L509.3975160878199,470.194469520241L512.3640340660099,470.19666348256897L512.327390529299,446.0842334644999L464.017486666869,446.0993343824921L464.02774082529004,442.106805373704L463.01785701723793,442.1035614633947L463.02992073302767,437.36284408697475L455.998835312364,436.8671104653463L456.39980306592724,432.37409127721185L455.4009273985321,432.37139327296427L455.3708183745407,429.76735535851276L457.1071892005498,428.07659766836423L456.92256408348476,425.80040501506073L454.30458696065307,425.0263144282503L452.92208513114383,423.17210001194144L453.37221252655036,421.2587286828957L450.10968112216824,418.88790421800604L448.56622921782946,419.0716096719543L449.6327622246117,414.54935722645405L448.29273472777913,412.08184543184825L449.38490313061493,408.7454710920874L448.1393747408015,407.88234263663344L447.57625054083064,404.11943421525893L446.8582081239265,403.4243465843483L444.65195556790513,405.07853273041474L442.62892069544023,404.3061595844829L439.91885720874734,405.0775578659418L440.13354108432395,403.25534590945153L433.13960185519454,400.4159297989195L433.96501134262917,399.5058191707217Z" stroke="#FFFFFF" stroke-dasharray="1, 0" stroke-width="1"></path><text x="474.8567612733518" y="431.3234004997933" title="Blaine" class="hint " style="">Blaine</text></a><a id="s21" rel="nofollow " title="Cassia" class="hint   "><path d="M468.45638115720294,505.48377739183024L468.5228321250115,499.6979639152896L479.3886712023527,499.7153942219734L479.49367579520685,493.0834037654904L488.40504211815596,490.7013043356328L491.3102864732309,491.678397702251L493.75238467294275,490.18080589353303L495.84237316804047,492.4559825790243L497.99283103853486,492.7603615894027L500.7512499193517,490.96637381117125L504.9988842489347,483.4442044629218L514.3757089394398,481.2569983597441L517.6794077739551,485.23733442037974L520.5200107185897,486.16315743924724L523.0276551074262,484.9354915416534L524.3250072096521,485.382919150165L524.3000755303533,487.9651098093691L532.9902737304897,488.0648583291372L533.128562109327,528.1452134390934L468.7003535148415,528.4136695306356Z" stroke="#FFFFFF" stroke-dasharray="1, 0" stroke-width="1"></path><text x="493.9275379183402" y="508.6476978376765" title="Cassia" class="hint " style="">Cassia</text></a><a id="s22" rel="nofollow " title="Caribou" class="hint   "><path d="M575.8739182306749,466.8412465200695L576.9910685782911,463.6557310326971L579.2716637828676,463.24871988873883L578.9372475280779,461.6653504942451L580.7379079061511,460.458329990583L580.2282159140323,458.30549099506334L631.4427158969686,458.50872412455783L631.3136539738327,493.1194826885235L630.0393486755361,494.6075161088638L625.650619136695,494.7088815481552L625.0574361782155,495.8956390859894L621.8578874233524,495.5460938317069L621.1271781048679,494.1217874717213L622.491684891658,489.17347299094126L621.4744623231659,487.03879114485244L619.6180072595664,490.4634441678513L616.7761476778699,489.52770461477576L616.5601066342681,488.1915034918279L615.1676019737497,487.34239678813583L603.3453615616907,487.90980674784714L601.7740123145882,489.8026062645454L604.3697720941732,497.7243385393449L604.5194627009312,498.8448813163336L603.541145615862,499.83311501608205L597.9206604294013,499.7994127490124L597.6711928399654,498.7998663964072L596.7796842430994,498.7953716884722L596.5457486877428,499.78102958212276L589.6473138752845,499.78116575401873L588.5872148502567,492.42379065276464L587.6034188275999,492.41342370948496L587.571801839134,486.0666429852554L587.0718110851303,484.8170167972885L586.0870097528241,484.81811000494463L586.0912823188332,482.1426677363065L585.1010523144214,482.1423942623319L585.5663598855303,481.10409178790724L584.9317581695045,479.17758552147006L580.5171921726801,479.17799601888464L578.0739881323543,480.46607826989566L576.3069553620458,476.09404039505534L576.3091167777916,472.9968098823001L577.3847981023805,472.05488422268354Z" stroke="#FFFFFF" stroke-dasharray="1, 0" stroke-width="1"></path><text x="596.3607770067696" y="475.52863700532333" title="Caribou" class="hint " style="">Caribou</text></a><a id="s23" rel="nofollow " title="Jefferson" class="hint   "><path d="M548.3653287081233,404.6433723092614L548.4744550705382,386.457135443035L575.557949407947,386.5049783698769L575.5360839230789,392.55314721686864L584.5513992637489,392.57675422064085L584.2241207074694,407.7122702773563L588.0087596781368,407.2592204020898L595.3210302076677,413.712376493429L602.1985043139409,414.56665648471017L602.1932264382838,416.54420451726946L548.3549237532548,416.79529878025414Z" stroke="#FFFFFF" stroke-dasharray="1, 0" stroke-width="1"></path><text x="558.7561581507322" y="403.1449932727837" title="Jefferson" class="hint " style="">Jefferson</text></a><a id="s24" rel="nofollow " title="Madison" class="hint   "><path d="M584.2292980521624,405.87673082711854L584.5597935993196,395.6154882804444L591.5738892869135,395.6313310075152L591.5596138898954,397.6224968407132L598.5739609049003,397.67272241079536L598.7704486758269,398.6847777469684L605.5715695142471,398.6907754103204L605.6163057936353,397.3352925746135L608.7746871183656,395.4234165768444L612.2876914218334,396.8036646273413L613.6166605125252,395.9291909391336L613.567199277787,416.8761234767585L602.1932264382838,416.54420451726946L602.1985043139409,414.56665648471017L595.3210302076677,413.712376493429L588.0087596781368,407.2592204020898L584.2241207074694,407.7122702773563Z" stroke="#FFFFFF" stroke-dasharray="1, 0" stroke-width="1"></path><text x="591.5204849676074" y="405.5285104106258" title="Madison" class="hint " style="">Madison</text></a><a id="s25" rel="nofollow " title="Benewah" class="hint   "><path d="M330.0545805078218,148.25444086214065L341.5789144087116,148.2336505977787L341.5782106919569,147.1685412781303L343.7216816603891,146.78384309995317L345.37823090025677,146.77812653544015L345.36918311341424,147.8516548254097L350.71421345600857,147.85291657865582L350.71175044736765,145.7077197028898L352.8541658406689,145.71195260402237L352.8509991152732,144.64103115657872L365.77641607082614,144.69183951964533L365.7758128850369,173.70935545277052L359.30146794807206,173.69600967039878L359.30654476180007,172.62672537096205L340.34896831846027,172.93234909758667L340.27377115670424,171.8518658122789L337.2866945961878,169.57951531158596L334.32847042260346,170.24921848950544L333.20247335007434,168.75090055852615L333.5179897834605,166.4731374118919L330.0670606310118,165.9335621344935Z" stroke="#FFFFFF" stroke-dasharray="1, 0" stroke-width="1"></path><text x="340.2048848658416" y="159.2603638111591" title="Benewah" class="hint " style="">Benewah</text></a><a id="s26" rel="nofollow " title="Bonneville" class="hint   "><path d="M557.2566893690541,421.7169190818331L557.2650334391419,416.5534402762505L621.404894895446,416.88466413935384L623.2284260680362,422.29690250204385L626.4484328742601,422.10272832541705L628.4391470415042,423.6861636742465L630.2543844094894,423.5251226109722L631.3893416354654,425.26422856604995L631.4427158969686,458.50872412455783L604.0306308840322,458.46444818708915L604.1030131787713,440.4274363097061L592.3185221440372,440.3967103120631L592.3194771882045,434.6100705466265L581.1934137081807,434.56353725645386L581.2009032650662,431.5592150498428L578.1988475907783,431.55111945807994L578.2037736080597,430.52714318748394L557.2568401655017,430.5193224423051Z" stroke="#FFFFFF" stroke-dasharray="1, 0" stroke-width="1"></path><text x="593.7702514248556" y="433.11220765844433" title="Bonneville" class="hint " style="">Bonneville</text></a><a id="s27" rel="nofollow " title="Boundary" class="hint   "><path d="M330.45481128250276,34.62809990519645L330.4425465047834,25.119482894494467L379.866836113295,24.99245133988188L379.86411408064123,63.02020934863094L342.88189624497227,63.1395929683722L342.8670176621663,36.731059166000705L330.44085647471184,36.787331052169066Z" stroke="#FFFFFF" stroke-dasharray="1, 0" stroke-width="1"></path><text x="350.0621354899128" y="42.83395146078961" title="Boundary" class="hint " style="">Boundary</text></a><a id="s28" rel="nofollow " title="Gem" class="hint   "><path d="M346.50734443269766,398.93116299844405L346.5199610687946,391.84913579360364L353.5710521514761,391.9078836520712L353.57517392103864,389.90055450632644L355.58438578582764,389.9264829095596L355.58704985639724,385.928308382106L359.58647323360583,385.97098079518173L359.61075146163284,379.9469516509671L364.3143942480692,379.9684588889909L364.3880331798691,376.03820247690555L365.0768713514667,375.2968696716148L364.8414278316359,367.9609433754317L366.26715797605857,361.04295633324136L367.68238263464764,358.78854887761736L370.4646776196314,357.9433908473361L371.6118364602753,354.6952292250103L372.6189556667923,355.903690216574L374.6728032800038,355.5396458914329L374.6789859343462,367.80559552514615L371.6321437151878,367.81585386314964L371.5838385865459,379.9524160412602L368.60822255603034,379.9636250243939L368.56031955124945,403.98382497355124L346.5113656712947,403.9976855970526Z" stroke="#FFFFFF" stroke-dasharray="1, 0" stroke-width="1"></path><text x="353.3629816564741" y="386.16325805270577" title="Gem" class="hint " style="">Gem</text></a><a id="s29" rel="nofollow " title="Payette" class="hint   "><path d="M332.88097532427673,398.8622630750956L332.97753531607714,396.65574553733677L334.1420357481684,395.9043468320301L333.4594807618787,393.4533310345205L334.11921521913337,392.8944578961373L333.26600891989983,392.3106438255595L335.3065864457426,391.46156069536573L335.36182821096327,389.0593658967741L333.41655403986033,387.08933092507823L333.20714803994224,384.575154965215L335.40108555276174,383.5481003601021L337.2034877807496,379.8635248484625L359.61075146163284,379.9469516509671L359.58647323360583,385.97098079518173L355.58704985639724,385.928308382106L355.58438578582764,389.9264829095596L353.57517392103864,389.90055450632644L353.5710521514761,391.9078836520712L346.5199610687946,391.84913579360364L346.5113656712947,403.9976855970526L339.4499701647087,405.0040942075798L339.4510760053231,403.9819443828874L337.4095937007978,403.98236229199756L336.39337644195484,401.9745908152254L334.35475926992785,401.9545911305845L334.35968528720923,398.9105210360203Z" stroke="#FFFFFF" stroke-dasharray="1, 0" stroke-width="1"></path><text x="335.08751381812465" y="390.043061906269" title="Payette" class="hint " style="">Payette</text></a><a id="s30" rel="nofollow " title="Clark" class="hint   "><path d="M533.377368210894,374.1519640069814L542.4904499149447,374.42169987601665L542.6339578673615,362.61884361007833L541.2018942721488,360.7310989330199L544.1968625134105,356.54157088666443L547.2496863249803,355.15118362487374L550.0414312206663,356.4263045188659L556.1666823819642,356.60089375973575L558.2538560100447,358.06664360919376L559.6687288102567,356.9299722015717L563.926315705367,359.14871468295314L565.3767764671579,356.46244890508706L565.5915608736991,352.9450193133239L567.3514559454984,352.7001772175645L569.0181085473405,350.6196291075644L571.1923922565193,350.65589518906927L572.252340485099,352.38923774131126L576.5059564070948,352.6538445676497L578.0300058352041,353.9891718435442L579.8984743491123,352.8559554592607L581.7681995000808,353.43247394887294L581.7520642802119,352.16897763619454L584.5293327169502,352.9309864193933L586.0578055075166,351.4399120965945L589.9931403945911,350.81513759436984L592.3669780691266,354.8271785672573L597.6891878826848,352.39981669968256L598.2670398690159,351.2515585238525L602.6327113671778,351.9123367516577L602.6258111803122,362.4104580612816L593.8702175874985,362.38541168757183L593.874389622543,368.33239140959904L590.82151554549,368.33414775166557L590.5412854807896,377.40354483606734L587.7317968697967,377.401371752404L587.738984833788,380.4462830346838L581.7039602135005,380.4664567727773L581.6711368534561,386.53449522158826L548.4744550705382,386.457135443035L548.4494228602753,392.5046756104821L533.4159721014221,392.4752710890875Z" stroke="#FFFFFF" stroke-dasharray="1, 0" stroke-width="1"></path><text x="556.7584625210534" y="370.61765890960595" title="Clark" class="hint " style="">Clark</text></a><a id="s31" rel="nofollow " title="Jerome" class="hint   "><path d="M451.83117336537043,470.07880495926383L464.49983423653066,470.08552414882115L464.5017945903469,471.9485909437808L465.49076795769633,471.9519490572138L465.49041609931965,472.946039219486L480.3594484650539,472.98790279246623L480.35381873101824,475.9630629694175L486.29891840318896,475.96169360748263L486.29328866915375,491.6654367518472L480.5803652604536,492.11181646293744L475.3268683614151,494.21709690734315L473.84398636343803,491.8640760417875L470.9335646636705,490.1633365676362L466.13089887679234,489.11866342265284L464.004668968842,487.3732614658552L459.4560449303035,487.2680338464156L456.7028536596631,485.12604174658554L452.437073490913,484.30187974349155L451.8771160163369,483.87798425895744Z" stroke="#FFFFFF" stroke-dasharray="1, 0" stroke-width="1"></path><text x="460.566025053527" y="481.0493932613321" title="Jerome" class="hint " style="">Jerome</text></a><a id="s32" rel="nofollow " title="Oneida" class="hint   "><path d="M533.1265434534321,515.4876957665642L533.1323742493969,505.8182324410618L550.5210644542753,505.7199860087517L550.5230248080911,499.780416808529L558.3714772389949,499.7920594917523L558.3569002490831,493.86659585254847L564.0691199410285,493.86059597264193L566.1585052503369,497.6353063868328L568.4549843473692,497.2124634506281L568.7793475056674,501.06643500663085L566.8653887301357,504.47318210723506L566.954157572155,506.06237695128493L569.3268391405932,506.5564702904144L570.3632128579006,504.23418400434275L573.8126815915425,504.22615822434364L575.5540287003155,508.058182758919L576.8407747857432,508.2513723107618L579.8293090452503,511.87618780001367L579.864143024593,516.5323185066695L577.903537881341,516.5143461735961L577.8948708297416,528.1748577128524L533.128562109327,528.1452134390934Z" stroke="#FFFFFF" stroke-dasharray="1, 0" stroke-width="1"></path><text x="547.304042848389" y="514.8593875216571" title="Oneida" class="hint " style="">Oneida</text></a><a id="s33" rel="nofollow " title="Ada" class="hint   "><path d="M356.52515455550065,429.6965400163308L356.5299800418161,428.1595590363859L358.5287869517365,428.1182170576285L358.5338637654645,416.0339838884697L356.54179243019416,416.0284278557442L356.57300729479994,403.9976855970526L368.1583464880364,403.9834767160851L383.5546637647499,418.99603254693966L383.4041186447903,452.039513758697L366.9982191529193,451.54729782337154L362.93395330334124,446.5173807431229L363.37478158449267,443.36283872069043L361.81790879633854,440.358941193555L360.5671025308675,439.432628395989L356.6034179116864,439.8281352267486Z" stroke="#FFFFFF" stroke-dasharray="1, 0" stroke-width="1"></path><text x="361.2090940573687" y="428.52662861620934" title="Ada" class="hint " style="">Ada</text></a><a id="s34" rel="nofollow " title="Kootenai" class="hint   "><path d="M329.92621946898043,118.81511083378746L329.94426058298086,102.61285940558037L350.4991777220548,102.62949219430811L350.51511187999404,101.55814661245677L356.98382708292456,101.56640850617669L356.94487133401935,109.1632016747485L365.76978102714247,109.14438639424498L365.77641607082614,144.69183951964533L352.8509991152732,144.64103115657872L352.8541658406689,145.71195260402237L350.71175044736765,145.7077197028898L350.71421345600857,147.85291657865582L345.36918311341424,147.8516548254097L345.37823090025677,146.77812653544015L343.7216816603891,146.78384309995317L341.5782106919569,147.1685412781303L341.5789144087116,148.2336505977787L330.0545805078218,148.25444086214065Z" stroke="#FFFFFF" stroke-dasharray="1, 0" stroke-width="1"></path><text x="338.04183572608156" y="125.23187839814528" title="Kootenai" class="hint " style="">Kootenai</text></a><a id="s35" rel="nofollow " title="Teton" class="hint   "><path d="M613.5148729105485,400.687655468932L613.6166605125252,395.9291909391336L615.8403049254771,394.1692183389746L618.1382919869841,396.1885796614456L621.796714331201,394.10128661499584L624.2490666893343,395.28542934783036L631.2958895035047,391.70001922083884L631.3893416354654,425.26422856604995L630.2543844094894,423.5251226109722L628.4391470415042,423.6861636742465L626.4484328742601,422.10272832541705L623.2284260680362,422.29690250204385L621.404894895446,416.88466413935384L613.567199277787,416.8761234767585Z" stroke="#FFFFFF" stroke-dasharray="1, 0" stroke-width="1"></path><text x="614.1805905501685" y="407.34586285517" title="Teton" class="hint " style="">Teton</text></a><a id="s36" rel="nofollow " title="Bingham" class="hint   "><path d="M532.7407056100888,459.186830462907L532.7627721568874,440.22464057182697L535.7938812800357,440.2216714093115L536.305634156935,428.8429929007807L542.3440768300293,428.8583636869116L542.3654899255566,422.8452571557991L548.2660041147874,422.56075688388364L548.2579113721122,416.79599315716405L557.2650334391419,416.5534402762505L557.2568401655017,430.5193224423051L578.2037736080597,430.52714318748394L578.1988475907783,431.55111945807994L581.2009032650662,431.5592150498428L581.1934137081807,434.56353725645386L592.3194771882045,434.6100705466265L592.3185221440372,440.3967103120631L604.1030131787713,440.4274363097061L604.0306308840322,458.46444818708915L549.2978036731906,458.3490810629378L547.871118484602,460.4831376061866L546.1209246509161,460.60854783715604L546.4909791327677,461.5262312586765L545.1333084515927,465.08953740194784L542.3504102808183,469.2324446407629L532.7405548136412,469.24478846824377Z" stroke="#FFFFFF" stroke-dasharray="1, 0" stroke-width="1"></path><text x="554.3988110429067" y="444.92614098531425" title="Bingham" class="hint " style="">Bingham</text></a><a id="s37" rel="nofollow " title="Bonner" class="hint   "><path d="M329.9737793330287,97.50256498358158L330.44085647471184,36.787331052169066L342.8670176621663,36.731059166000705L342.88189624497227,63.1395929683722L379.86411408064123,63.02020934863094L379.86568193156154,102.6215873675651L376.2941164166673,98.40592545380059L374.19804579819356,99.29815785013398L370.171680122387,95.74928187650721L368.14743887834356,96.45569232501293L365.7666143017477,99.58785806360993L365.76978102714247,109.14438639424498L356.94487133401935,109.1632016747485L356.98382708292456,101.56640850617669L350.51511187999404,101.55814661245677L350.4991777220548,102.62949219430811L329.94426058298086,102.61285940558037Z" stroke="#FFFFFF" stroke-dasharray="1, 0" stroke-width="1"></path><text x="343.0626953987613" y="78.19388666825907" title="Bonner" class="hint " style="">Bonner</text></a><a id="s38" rel="nofollow " title="Minidoka" class="hint   "><path d="M486.2821297320479,486.16349895855L486.29891840318896,475.96169360748263L494.7347229966085,475.9971599390333L494.73683414687184,470.15182415172785L497.23884880167316,470.1579261680836L497.20879004316384,446.08947397186284L512.327390529299,446.0842334644999L512.3640340660099,470.19666348256897L509.3975160878199,470.194469520241L509.3964102472055,482.5072612568897L507.6180174778615,482.345375477169L504.2148432535637,484.13240862560815L500.7512499193517,490.96637381117125L497.99283103853486,492.7603615894027L495.84237316804047,492.4559825790243L493.75238467294275,490.18080589353303L491.3102864732309,491.678397702251L488.9971695015047,490.6780374756895L486.29328866915375,491.6654367518472Z" stroke="#FFFFFF" stroke-dasharray="1, 0" stroke-width="1"></path><text x="492.0944896044516" y="469.7968051384243" title="Minidoka" class="hint " style="">Minidoka</text></a><a id="s39" rel="nofollow " title="Power" class="hint   "><path d="M520.8920758197391,452.2106878631994L532.7429675567992,452.21158296292697L532.7405548136412,469.24478846824377L542.3504102808183,469.2324446407629L544.0068589897214,467.5656974100252L545.6687363707288,463.1729717987978L546.59759222106,463.95861198689045L545.7786167153813,465.41970261536926L546.3255051645183,466.339087210722L548.3090816332528,464.1183178487954L550.7736987691064,463.95964192364136L553.4955243786944,461.7127530392586L555.3632891758475,462.5536819628028L557.4832861639725,466.025670615702L557.421962275374,474.19498541817575L558.4027423690836,474.2016295869648L558.4186765270224,478.15299711699345L560.3869220236088,478.15628188797336L560.3986841465039,480.6330967503927L562.383768579713,482.1125171247163L562.3830145974762,484.08737464000114L564.3118016903322,484.08470948781496L563.9847241959819,489.1723809018267L562.2923859326052,490.16047049951385L562.2933912422545,493.8617550410081L558.3569002490831,493.86659585254847L558.3714772389949,499.7920594917523L550.5230248080911,499.780416808529L550.5210644542753,505.7199860087517L533.0465208053602,505.8179604817333L532.9902737304897,488.0648583291372L524.3000755303533,487.9651098093691L524.3250072096521,485.382919150165L521.219304110537,485.52084771497175L521.2256878268095,482.1000739527999L524.1515410296911,482.0896818252522L524.1392762519718,476.14456798106903L521.2205607475985,476.1543584870683Z" stroke="#FFFFFF" stroke-dasharray="1, 0" stroke-width="1"></path><text x="532.1686534811973" y="480.82591983102117" title="Power" class="hint " style="">Power</text></a><a id="s40" rel="nofollow " title="Gooding" class="hint   "><path d="M428.2690274015172,446.2080042304092L452.9770253034699,446.18862865729943L452.98858636443583,470.077913637399L451.83117336537043,470.07880495926383L451.8771160163369,483.87798425895744L445.3800008158182,482.2343488938345L442.0411664090652,482.844754134032L441.3570531928194,480.00212637935283L440.1194164837525,479.47662237047643L439.9016664137466,476.7387354557568L435.721237034209,475.4745835182807L435.782560922808,472.6583958289648L437.5180772356148,470.26892648147805L436.6540638576539,467.9804564355413L434.5940838555839,465.6859438969641L428.234092891209,465.70344563699064Z" stroke="#FFFFFF" stroke-dasharray="1, 0" stroke-width="1"></path><text x="433.0671860464151" y="461.81698295783644" title="Gooding" class="hint " style="">Gooding</text></a><a id="s41" rel="nofollow " title="Adams" class="hint   "><path d="M337.17626133122985,331.2643279202225L339.2547390308441,328.5348825157912L340.5044394557003,324.9435225356683L339.5714618358088,323.044510003549L340.8012571296126,321.3123277632685L339.190650540711,321.57753153317617L339.7118533283124,318.4610073413537L345.6601197258774,309.9547583641029L347.791068572149,300.9949314108153L365.0993400221241,300.9813079916389L368.1046629527732,310.30186597621423L367.0157618062972,312.32698369615764L375.0765356351021,312.40831782456416L375.29121951067737,314.49652358501635L377.8546083195588,315.5432134731709L375.5852223175707,319.489188635946L376.5342346263669,322.7721557227055L375.76527327573285,324.1950308766668L374.54517922004334,324.03347043904705L374.25213145731686,327.1143724205144L372.43131462077827,329.70896127284595L371.71754476988326,335.6153002914739L374.42172719512837,341.12898398105335L373.0764720881202,349.4166694866035L374.4413809987691,355.5328805348454L372.6189556667923,355.903690216574L371.6118364602753,354.6952292250103L370.4646776196314,357.9433908473361L367.2607557677943,359.36141949656076L361.8435441923921,359.3712764539314L355.7488544444277,356.0531462313593L355.7353330296469,347.333961127832L352.01342538108565,347.3312778168006L352.2119237713109,345.80079827749023L350.94669131237424,343.9639628795171L350.91653202289945,331.50024719020166Z" stroke="#FFFFFF" stroke-dasharray="1, 0" stroke-width="1"></path><text x="350.5089073983261" y="327.8744939718851" title="Adams" class="hint " style="">Adams</text></a><a id="s42" rel="nofollow " title="Idaho" class="hint   "><path d="M342.6140817544406,258.8134376279627L345.6231243307893,256.0057827568239L344.2754564806228,252.67713846386823L344.7006521967305,251.13412906835674L347.19452384337364,248.4074136275558L349.78002946453717,248.66109616082986L349.8552768917757,246.02247504495926L352.19523563113444,245.90076525767836L355.17899466980816,248.46833942185685L355.8753223982908,248.055227000973L356.47524093141965,238.80312051037345L358.3289816589677,239.44563829982962L359.706507205713,234.11924275301226L361.2000957514542,233.74262753211042L372.4357882487179,237.3309379623097L374.87683087329833,233.08735142070282L379.5702697667962,233.12730150433208L381.6996161346583,231.98820402542697L376.5897779844822,227.58123571705346L373.7753633562079,221.3715450935806L375.71807398770534,222.64113178380785L379.66486940478035,222.54179376579168L383.4046212996145,226.9915838488123L393.45133407482945,228.9580596634887L395.77958095677513,224.42464300460506L395.81979334274183,221.74466933742906L400.70072248580664,216.58163672434011L400.98482299265515,213.93162367907325L455.6051560537571,201.06290679138374L459.38637697161766,202.37216314407533L461.5312553735589,200.25728273093728L464.8435496055745,199.52123216533892L466.723981304307,201.21909145395603L466.6526545847005,203.87102066332773L465.58722741853217,205.39476586575165L466.2881795714011,206.36278747635197L465.4119014157204,208.1758391121225L465.6344267065597,210.67220839956371L462.6307625368331,211.99049129250625L464.34024132972854,216.5334240235502L461.642442620755,220.22448978838702L462.2315038096731,221.84104072614218L461.1104327544258,226.13954059576736L461.48013537789984,227.46681836262678L459.2041645977097,229.05331142262276L460.3178466270365,231.45762807622305L460.5426841300691,236.08315161086057L456.97956514059115,236.21800738532284L456.37039775868925,237.75618769855237L456.701295429707,239.30182598939018L459.71913446548615,241.26819032463573L459.2686049462204,243.87401747677313L457.3594716570042,246.04441282224388L458.7123168518642,246.14845272234197L458.7381030443644,248.86411743649796L462.1680687708126,249.95154584475858L462.6320694393771,251.39255570412388L461.18080442986593,252.97601293141497L463.33412743286,256.8662866450668L462.2207972619103,259.05823548602484L460.83135879582187,258.283736909304L457.26477148805407,259.51235659486747L454.39149597982305,264.72035980310784L457.9643664728974,269.7801233055252L456.9787608928709,271.0771142572421L457.78019374517316,271.52980767562667L457.27673467287923,273.10750536108026L454.51605384535196,274.486962764227L455.798627895736,276.77653104116234L454.13654945279814,280.809667836666L451.0975486489042,282.9929926593454L449.5026751560117,286.4473312983105L443.9406487256497,283.39234456532904L442.7511663487767,284.5984817548597L442.99419995645894,288.9317075533304L444.2045927740337,289.05899867497874L444.5030692088658,290.5248141562847L446.86323467217153,291.857173060032L448.9256274174004,294.0240931166186L449.51549285403917,296.06350171949543L453.0413651210165,298.8707734400032L448.89999202134777,303.49047323867853L447.98083740913034,306.02690563204624L383.551245711943,306.162434238523L384.08994088743884,305.57506336437746L383.61679190106724,304.4238295442601L378.52962348347955,309.05524751664507L376.2187684584637,308.78174133735L375.0765356351021,312.40831782456416L367.0157618062972,312.32698369615764L368.1046629527732,310.30186597621423L365.0993400221241,300.9813079916389L347.791068572149,300.9949314108153L348.518918775163,299.88763634971156L348.4656373637572,297.14855505295145L352.7682621311483,288.4599003190988L354.4454202188231,287.02608788066163L354.30678801820613,284.1377866193434L355.76594470846294,280.70379398578143L358.1090701732164,278.7781995675459L359.0359154042494,276.0564602186123L355.4222293394182,270.5948663756694L354.85689345821993,266.3298324921143L352.5265354260114,264.34336847110535L348.8903304250398,264.09420759018985L346.5540913313839,260.9021833992765L343.9614982771941,261.6008831136037L342.70843006501264,260.49381296877164Z" stroke="#FFFFFF" stroke-dasharray="1, 0" stroke-width="1"></path><text x="400.16788646168663" y="259.2905701224295" title="Idaho" class="hint " style="">Idaho</text></a><a id="s43" rel="nofollow " title="Latah" class="hint   "><path d="M330.06723473641796,188.85762451131586L330.0670606310118,165.9335621344935L332.82221497528326,165.99347509043537L333.6905009192533,166.82274503101007L333.20247335007434,168.75090055852615L334.32847042260346,170.24921848950544L337.2866945961878,169.57951531158596L340.27377115670424,171.8518658122789L340.34896831846027,172.93234909758667L359.30654476180007,172.62672537096205L359.30146794807206,173.69600967039878L365.7758128850369,173.70935545277052L365.769680496177,202.65082668377408L351.1185489968966,202.523977547477L347.2463978212704,205.67606939826192L346.18901313229435,208.87359816227035L330.0753169205277,208.95871873297665Z" stroke="#FFFFFF" stroke-dasharray="1, 0" stroke-width="1"></path><text x="337.5607945838873" y="188.84484389000087" title="Latah" class="hint " style="">Latah</text></a><a id="s44" rel="nofollow " title="Bannock" class="hint   "><path d="M545.5793140774372,462.72848239714494L546.4909791327677,461.5262312586765L546.1209246509161,460.60854783715604L547.871118484602,460.4831376061866L549.4089909203872,458.3296924763422L580.2282159140323,458.30549099506334L580.7379079061511,460.458329990583L578.9372475280779,461.6653504942451L579.2716637828676,463.24871988873883L576.9910685782911,463.6557310326971L575.8739182306749,466.8412465200695L577.3847981023805,472.05488422268354L576.3091167777916,472.9968098823001L576.3069553620458,476.09404039505534L578.5114486261809,480.6463649311854L580.5171921726801,479.17799601888464L584.9317581695045,479.17758552147006L585.5663598855303,481.10409178790724L585.1010523144214,482.1423942623319L586.0912823188332,482.1426677363065L586.0870097528241,484.81811000494463L587.320625223294,485.0594287159861L587.6034188275999,492.41342370948496L588.5872148502567,492.42379065276464L589.6554066179601,497.7965438176511L589.6473138752845,499.78116575401873L588.6578881185919,499.7787827451857L588.5871143192921,510.65304435043754L584.2045674347933,510.6387825822808L584.2079854876006,508.66449551904043L575.5540287003155,508.058182758919L573.8126815915425,504.22615822434364L570.3632128579006,504.23418400434275L569.3268391405932,506.5564702904144L566.954157572155,506.06237695128493L566.8653887301357,504.47318210723506L568.759291578167,501.1755425446295L568.5953255743902,497.7327171390157L567.8993999697677,497.0182291364058L566.1585052503369,497.6353063868328L564.0691199410285,493.86059597264193L562.2933912422545,493.8617550410081L562.2923859326052,490.16047049951385L563.9847241959819,489.1723809018267L564.3118016903322,484.08470948781496L562.3830145974762,484.08737464000114L562.383768579713,482.1125171247163L560.3986841465039,480.6330967503927L560.3869220236088,478.15628188797336L558.4186765270224,478.15299711699345L558.4027423690836,474.2016295869648L557.421962275374,474.19498541817575L557.2580968025636,465.47310321580426L553.7872149733944,461.65669431990455L550.7736987691064,463.95964192364136L548.3090816332528,464.1183178487954L546.3255051645183,466.339087210722L545.7786167153813,465.41970261536926L546.59759222106,463.95861198689045Z" stroke="#FFFFFF" stroke-dasharray="1, 0" stroke-width="1"></path><text x="563.0845083854958" y="482.4239195859317" title="Bannock" class="hint " style="">Bannock</text></a></g></g></svg>