<svg id="map" class="map svg-content-responsive" xmlns:xlink="http://www.w3.org/1999/xlink" preserveAspectRatio="xMinYMin meet" viewBox="0 0 960  540"><g><g id="states"><a id="s01" rel="nofollow " title="McHenry" class="hint   "><path d="M505.30435261237676,34.97360273524828L541.0433609617171,34.82323805809301L541.0231994767032,67.26454455707471L505.43335093062615,67.33215916831205Z" stroke="#FFFFFF" stroke-dasharray="1, 0" stroke-width="1"></path><text x="514.2085957977433" y="51.08706037554468" title="Pope" class="hint Pope " style="">McHenry</text></a><a id="s02" rel="nofollow " title="Boone" class="hint   "><path d="M505.30435261237676,34.97360273524828L505.43335093062615,67.33215916831205L488.9556120112279,67.45307190236736L488.9145219899376,34.82749470467206Z" stroke="#FFFFFF" stroke-dasharray="1, 0" stroke-width="1"></path><text x="488.1407402907602" y="51.161172674132715" title="Boone" class="hint " style="">Boone</text></a><a id="s03" rel="nofollow " title="Ogle" class="hint   "><path d="M436.29365130064684,62.96849300368967L472.54076425816993,62.511037684141684L472.5530722642043,67.64502939600379L488.9556120112279,67.45307190236736L488.85352382166593,92.12535013246452L459.3553500999153,92.47790392069555L459.36562436453005,91.08793137097018L456.6922536747222,91.08955763277254L455.6827438418586,92.68024792570577L454.56063932829124,91.82265453696027L454.92275789577207,90.68729031876092L451.9901872138146,90.1679075326033L440.486606838414,91.20196719078149L440.4845027253177,88.46231820593948L436.4322553525951,88.44099729857862Z" stroke="#FFFFFF" stroke-dasharray="1, 0" stroke-width="1"></path><text x="453.17852520841143" y="77.78177472798316" title="Ogle" class="hint " style="">Ogle</text></a><a id="s04" rel="nofollow " title="Will" class="hint   "><path d="M536.6874316607984,107.93199987106254L552.9550548316674,107.51345423176735L553.1318003317031,115.75603355845897L561.2694049504441,115.52145323286732L561.4457563690976,123.71612597259718L569.6682362655861,123.55486026487824L569.860730946586,131.87816467667835L588.4746865199897,131.84894730477163L588.3886078865903,147.99437987028568L554.1098399513089,148.5235732885335L554.2724125959119,156.65154058905182L537.9388019049816,157.02351161018487Z" stroke="#FFFFFF" stroke-dasharray="1, 0" stroke-width="1"></path><text x="547.5960427514393" y="134.194982643777" title="Will" class="hint " style="">Will</text></a><a id="s05" rel="nofollow " title="LaSalle" class="hint   "><path d="M489.01830613687775,116.97942200639909L512.7074880545465,116.68709929635224L513.8526815148257,165.75685321614446L489.5610476837119,165.96429342687316L489.53571388055343,182.59537420780362L481.36185377462584,182.77944641743397L481.33175580903935,166.0744689613739L473.3034384022578,166.13349242267304L472.94806144128415,116.95349398693725Z" stroke="#FFFFFF" stroke-dasharray="1, 0" stroke-width="1"></path><text x="483.6951229991544" y="143.62615240737057" title="LaSalle" class="hint " style="">LaSalle</text></a><a id="s06" rel="nofollow " title="Bureau" class="hint   "><path d="M440.27214915750915,121.06900445952715L472.99526676117057,121.0423694530673L473.20725439626585,146.88727051689375L465.83280948617426,145.76308465787497L460.78851853043216,147.99241283637593L459.6445917603105,154.07064438658472L451.8987462587472,154.00867856803234L451.89909107995663,161.98706661832375L439.74577606238245,161.99468313848956L439.77989225063607,154.01721270776807L424.357784760183,153.94851815966285L424.0203033162734,121.15430907928794Z" stroke="#FFFFFF" stroke-dasharray="1, 0" stroke-width="1"></path><text x="438.42006979917346" y="138.00228514632025" title="Bureau" class="hint " style="">Bureau</text></a><a id="s07" rel="nofollow " title="Henry" class="hint   "><path d="M424.0203033162734,121.15430907928794L423.5866237920377,161.8895836696438L383.54756828924565,161.7268843421689L383.9396159302921,133.1234213039579L387.8243364924615,131.08689820822883L389.48626212833256,128.23238608012343L400.5864298371039,125.22877585067181L401.2901325171731,121.09761508698921Z" stroke="#FFFFFF" stroke-dasharray="1, 0" stroke-width="1"></path><text x="395.85241971125066" y="142.77798212341762" title="Henry" class="hint " style="">Henry</text></a><a id="s08" rel="nofollow " title="Grundy" class="hint   "><path d="M537.3414519380065,132.550031632406L538.1413526984027,165.1847148494012L513.8526815148257,165.75685321614446L513.1391056886921,133.08216286357992Z" stroke="#FFFFFF" stroke-dasharray="1, 0" stroke-width="1"></path><text x="516.6165222738737" y="149.15328188781498" title="Grundy" class="hint " style="">Grundy</text></a><a id="s09" rel="nofollow " title="Mercer" class="hint   "><path d="M383.81501584175726,145.28767593382145L383.3870645719019,169.89825851126898L347.6540941123144,169.27274074124807L347.65486820074466,166.55827648443255L344.65704186415064,161.2567338652011L341.0292553261811,160.33541319837423L335.9550634455452,153.18721188742484L338.884038134888,144.72311396479427Z" stroke="#FFFFFF" stroke-dasharray="1, 0" stroke-width="1"></path><text x="353.0891779773941" y="156.6341008243191" title="Mercer" class="hint " style="">Mercer</text></a><a id="s10" rel="nofollow " title="Putnam" class="hint   "><path d="M473.20725439626585,146.88727051689375L473.3034384022578,166.13349242267304L459.4884229381737,166.17919785831373L461.0627217637866,164.93408394582912L461.5672374165222,162.06554903116012L451.89909107995663,161.98706661832375L451.8987462587472,154.00867856803234L459.6445917603105,154.07064438658472L460.78851853043216,147.99241283637593L465.83280948617426,145.76308465787497Z" stroke="#FFFFFF" stroke-dasharray="1, 0" stroke-width="1"></path><text x="455.6113249545803" y="156.67002516377244" title="Putnam" class="hint " style="">Putnam</text></a><a id="s11" rel="nofollow " title="McLean" class="hint   "><path d="M489.6811439850178,198.81257855736567L513.9900048022798,198.4458492967724L514.6659106705495,211.49750921816667L522.7378796276068,211.41917197526527L522.6829967579313,242.4598910377931L466.23709476158,242.5316945155455L465.76203669218467,213.54695081238833L475.305969984428,213.34289443555417L475.2718467590071,211.97820934579386L477.5998543772571,211.89586426293226L477.5617129291679,210.7151491804434L481.59108247020504,210.4616346482485L481.5172133224953,207.11154572401665L485.78570581667896,207.00045035935636L485.63064886701363,198.90224164496567Z" stroke="#FFFFFF" stroke-dasharray="1, 0" stroke-width="1"></path><text x="486.43403898194356" y="223.14708111621403" title="McLean" class="hint " style="">McLean</text></a><a id="s12" rel="nofollow " title="Tazewell" class="hint   "><path d="M465.76203669218467,213.54695081238833L466.15782810636347,238.4522707849419L434.41324272403745,239.0091300995491L434.25691908421345,228.26816126063932L419.6078796343122,228.24065554360823L423.72667750049845,220.7865579440504L430.181392761255,217.40988148382394L437.8019977920371,216.72878825724047L438.35120649584496,212.94464170140736L441.5637649628766,208.88437642180816L441.56464460882034,206.88929733481245L445.83560011164445,203.13118521864453L445.6420428183458,199.33096593344226L461.48268584847915,199.2762635111162L461.67959283353025,211.6013393031153L465.72445118033215,211.54297217671774Z" stroke="#FFFFFF" stroke-dasharray="1, 0" stroke-width="1"></path><text x="439.55494692396957" y="221.54431881472397" title="Tazewell" class="hint " style="">Tazewell</text></a><a id="s13" rel="nofollow " title="Fulton" class="hint   "><path d="M415.3244894564375,202.62554774487262L415.11878601195826,210.63743253037728L423.22940309316687,210.74780434654303L423.3179799210445,221.07107589184034L420.8829088357795,227.215303511829L415.4346070541674,232.27538236164355L411.6965481007828,233.81527407636577L409.45675137769786,241.22582865687582L405.8641366031143,246.93782605864453L400.2866394625603,251.4816173605641L382.55137277737595,251.03034303402137L383.0790125626611,202.38215562622327Z" stroke="#FFFFFF" stroke-dasharray="1, 0" stroke-width="1"></path><text x="390.77847734550085" y="224.8579398135585" title="Fulton" class="hint " style="">Fulton</text></a><a id="s14" rel="nofollow " title="Adams" class="hint   "><path d="M308.40972482876873,249.97423003330232L350.1715282065138,250.65093971425085L349.88574883255023,290.65742428981184L318.27737486520687,290.52048941641306L318.09835636005414,286.766909167241L313.62714418042947,283.13851095018026L312.5072704489728,280.07046323018585L314.4428011589564,275.11658599942666L309.1587609421565,265.07748808308406Z" stroke="#FFFFFF" stroke-dasharray="1, 0" stroke-width="1"></path><text x="321.8145915191309" y="269.51963503903585" title="Adams" class="hint " style="">Adams</text></a><a id="s15" rel="nofollow " title="Champaign" class="hint   "><path d="M522.7137491800977,231.685384670473L559.8917175488446,231.60814268634886L559.4772424548348,279.41794999306285L522.5736673229665,279.48966107882825Z" stroke="#FFFFFF" stroke-dasharray="1, 0" stroke-width="1"></path><text x="532.1645867710245" y="255.5207747026702" title="Champaign" class="hint " style="">Champaign</text></a><a id="s16" rel="nofollow " title="Logan" class="hint   "><path d="M442.28168975855215,238.9246227875733L466.15782810636347,238.4522707849419L466.23709476158,242.5316945155455L474.2437447294926,242.4059179667488L474.6176364782759,275.9755804220749L456.2190463803897,275.88524903134703L456.2039868418458,274.56369314464655L450.7078323209339,274.5337657239352L450.6554335714018,270.55205542095837L444.02127757543985,270.5999273592024L443.9776330623313,259.91268730332695L442.43928712570187,259.9680363555717Z" stroke="#FFFFFF" stroke-dasharray="1, 0" stroke-width="1"></path><text x="449.8405791882282" y="256.90956009077695" title="Logan" class="hint " style="">Logan</text></a><a id="s17" rel="nofollow " title="Piatt" class="hint   "><path d="M514.6403376036951,242.4802219111334L522.6829967579313,242.4598910377931L522.5873616510073,287.48224898939543L502.6244162452499,287.47606698121126L502.6371324070019,259.3161522340947L506.6668608435832,259.3409361662925L506.67207538473394,255.31802136144734Z" stroke="#FFFFFF" stroke-dasharray="1, 0" stroke-width="1"></path><text x="504.5461402831678" y="267.37791631233495" title="Piatt" class="hint " style="">Piatt</text></a><a id="s18" rel="nofollow " title="Stark" class="hint   "><path d="M424.357784760183,153.94851815966285L439.77989225063607,154.01721270776807L439.7915739487589,178.30178074724608L415.33379259193134,178.21637528260908L415.3793371402753,161.8973591856061L423.5866237920377,161.8895836696438Z" stroke="#FFFFFF" stroke-dasharray="1, 0" stroke-width="1"></path><text x="419.6028714013878" y="167.19389192664397" title="Stark" class="hint " style="">Stark</text></a><a id="s19" rel="nofollow " title="Knox" class="hint   "><path d="M415.37859120051644,161.90238709812638L415.3244894564375,202.62554774487262L383.0790125626611,202.38215562622327L383.54756828924565,161.7268843421689Z" stroke="#FFFFFF" stroke-dasharray="1, 0" stroke-width="1"></path><text x="390.33641002530044" y="182.2031796989366" title="Knox" class="hint " style="">Knox</text></a><a id="s20" rel="nofollow " title="Marshall" class="hint   "><path d="M439.74577606238245,161.99468313848956L461.5672374165222,162.06554903116012L461.0627217637866,164.93408394582912L459.4884229381737,166.17919785831373L481.33175580903935,166.0744689613739L481.36185377462584,182.77944641743397L451.43188648954015,183.2017028966702L453.2035849019305,178.35651120384455L439.7869434925151,178.28944955022416Z" stroke="#FFFFFF" stroke-dasharray="1, 0" stroke-width="1"></path><text x="451.4718000207909" y="172.8171273546562" title="Marshall" class="hint " style="">Marshall</text></a><a id="s21" rel="nofollow " title="Livingston" class="hint   "><path d="M537.3715569407593,165.19285046772166L538.5232105208449,211.37250290302336L514.6659106705495,211.49750921816667L513.9900048022798,198.4458492967724L489.6811439850178,198.81257855736567L489.5610476837119,165.96429342687316Z" stroke="#FFFFFF" stroke-dasharray="1, 0" stroke-width="1"></path><text x="506.81961840491374" y="185.84875296553184" title="Livingston" class="hint " style="">Livingston</text></a><a id="s22" rel="nofollow " title="Henderson" class="hint   "><path d="M359.08298199140336,169.39481393159986L358.77735076779754,209.72951631416845L330.9842968163043,209.5270497381457L335.44204689441653,206.39871949244207L337.4834025299274,192.38624759234108L346.60394463688453,182.6074452960529L347.6449880175121,169.27262872925303Z" stroke="#FFFFFF" stroke-dasharray="1, 0" stroke-width="1"></path><text x="340.26632822194" y="192.679003764642" title="Henderson" class="hint " style="">Henderson</text></a><a id="s23" rel="nofollow " title="Warren" class="hint   "><path d="M383.3870645719019,169.89825851126898L382.98828939868304,210.46921000798693L358.77735076779754,209.72951631416845L359.08298199140336,169.39481393159986Z" stroke="#FFFFFF" stroke-dasharray="1, 0" stroke-width="1"></path><text x="362.0709540256629" y="189.86059962904002" title="Warren" class="hint " style="">Warren</text></a><a id="s24" rel="nofollow " title="Iroquois" class="hint   "><path d="M588.4318723926515,174.88777913619015L588.4214925705242,223.14040647903175L546.7989125154695,223.41711823073274L545.8050955662293,176.0490114784966Z" stroke="#FFFFFF" stroke-dasharray="1, 0" stroke-width="1"></path><text x="558.4270324826574" y="199.27667044943732" title="Iroquois" class="hint " style="">Iroquois</text></a><a id="s25" rel="nofollow " title="Peoria" class="hint   "><path d="M415.33379259193134,178.21637528260908L424.88061112286755,178.18439569664997L453.2035849019305,178.35651120384455L452.6696890746998,181.87741855716922L445.1693140514067,195.00341685804642L445.83560011164445,203.13118521864453L441.56464460882034,206.88929733481245L441.5637649628766,208.88437642180816L438.35120649584496,212.94464170140736L438.5271286472778,215.89201393589155L436.88689156177884,217.42051399963657L430.08183091484193,217.4398247504646L423.3179799210445,221.07107589184034L423.22940309316687,210.74780434654303L415.11878601195826,210.63743253037728Z" stroke="#FFFFFF" stroke-dasharray="1, 0" stroke-width="1"></path><text x="422.2081642304766" y="195.56523920524867" title="Peoria" class="hint " style="">Peoria</text></a><a id="s26" rel="nofollow " title="Woodford" class="hint   "><path d="M481.36185377462584,182.77944641743397L489.53571388055343,182.59537420780362L489.6811439850178,198.81257855736567L485.63064886701363,198.90224164496567L485.78570581667896,207.00045035935636L481.5172133224953,207.11154572401665L481.59108247020504,210.4616346482485L477.5617129291679,210.7151491804434L477.5998543772571,211.89586426293226L475.2718467590071,211.97820934579386L475.305969984428,213.34289443555417L465.76203669218467,213.54695081238833L465.72445118033215,211.54297217671774L461.67959283353025,211.6013393031153L461.48268584847915,199.2762635111162L445.5587931263001,199.06605084972716L445.4333415404926,194.25072346245952L451.43188648954015,183.2017028966702Z" stroke="#FFFFFF" stroke-dasharray="1, 0" stroke-width="1"></path><text x="460.8717559944239" y="195.5600596262461" title="Woodford" class="hint " style="">Woodford</text></a><a id="s27" rel="nofollow " title="Carroll" class="hint   "><path d="M419.9880555737109,63.22701037574234L436.29365130064684,62.96849300368967L436.4322553525951,88.44099729857862L403.6491951557937,88.60577360343359L402.82429837628183,85.88570754732928L404.5651036231545,81.75877091989378L402.7095151364713,77.6100155783588L402.73349076629347,70.65342269322764L400.23015915585165,69.57853836304275L399.2486220639762,67.1087423319832L392.0203320866067,63.52342486163161Z" stroke="#FFFFFF" stroke-dasharray="1, 0" stroke-width="1"></path><text x="409.94873380168764" y="75.4089228633942" title="Carroll" class="hint " style="">Carroll</text></a><a id="s28" rel="nofollow " title="Kane" class="hint   "><path d="M513.6670973323533,67.32200231192246L538.2979085647551,67.26575010292527L538.3324962432337,75.54622516269728L536.5341551145211,75.52611927363978L536.6874316607984,107.93199987106254L512.7221957347126,108.38548517912841L512.7260380281923,75.59168830206818L513.6868154758122,75.59476909036994Z" stroke="#FFFFFF" stroke-dasharray="1, 0" stroke-width="1"></path><text x="515.9238321073989" y="87.63874259296934" title="Kane" class="hint " style="">Kane</text></a><a id="s29" rel="nofollow " title="Dekalb" class="hint   "><path d="M505.43335093062615,67.33215916831205L513.6670973323533,67.32200231192246L513.6868154758122,75.59476909036994L512.7260380281923,75.59168830206818L512.7074880545465,116.68709929635224L489.01830613687775,116.97942200639909L488.9556120112279,67.45307190236736Z" stroke="#FFFFFF" stroke-dasharray="1, 0" stroke-width="1"></path><text x="491.9288150132063" y="91.9513447650478" title="Dekalb" class="hint " style="">Dekalb</text></a><a id="s30" rel="nofollow " title="Cook" class="hint   "><path d="M538.2979085647551,67.26575010292527L572.0525975215289,67.44169075567152L577.6147114138319,74.44722273818525L579.3909628736221,82.95123197802423L581.0005390201336,85.18656608956326L580.2713336448849,85.51537405909221L580.9058539308276,87.35046578371339L580.2722414394982,86.82420089826519L581.5426894448942,90.97592626266533L583.3356964006077,92.08338640033116L582.2468776895225,92.24588907109819L582.0951633944412,94.28848382384149L584.9977557426619,101.15143942273153L584.3746778911452,102.47720153692899L588.0991339996667,105.70879148197719L587.3096412100683,107.65732577982862L588.5283871455183,108.10388288699642L588.4746865199897,131.84894730477163L569.860730946586,131.87816467667835L569.6682362655861,123.55486026487824L561.4457563690976,123.71612597259718L561.2694049504441,115.52145323286732L553.1318003317031,115.75603355845897L553.0301414093619,111.62103021078383L557.4378150032317,111.4946762040795L561.1184717809595,108.64905827028724L560.679261043033,82.45760935101544L536.598031484318,83.17989332511115L536.5341551145211,75.52611927363978L538.3324962432337,75.54622516269728Z" stroke="#FFFFFF" stroke-dasharray="1, 0" stroke-width="1"></path><text x="558.9858652913499" y="96.86467170123211" title="Cook" class="hint " style="">Cook</text></a><a id="s31" rel="nofollow " title="Rock Island" class="hint   "><path d="M392.83873356047616,105.75785745987696L397.2781166312993,102.39509723397123L396.88694159902843,105.82346678524709L397.8731021099802,107.87274011441059L397.0399366586039,109.90569277289569L398.42352824377303,111.4664537360045L397.7078623788791,112.15587360407335L402.98307095041037,115.5348346594883L402.0865006194622,115.87734581857194L403.08848772021975,116.7868703967797L402.74272353011156,119.98177602767055L401.26411610876244,120.76555040193716L400.5864298371039,125.22877585067181L389.48626212833256,128.23238608012343L387.8243364924615,131.08689820822883L383.9396159302921,133.1234213039579L383.81501584175726,145.28767593382145L338.884038134888,144.72311396479427L340.5917335084657,137.47866180134042L341.95557880150545,136.2640827653795L345.36890062140264,135.22329834914717L348.89704086694746,136.4344435890025L354.9043119037508,133.25041554564996L367.93498578487925,132.7018471622091L375.19800418407885,126.7606663059446L382.32766825831914,126.51527768695678L385.21156988954317,122.92921452272094L390.2373390203081,120.71567421232521L390.1925967090631,115.15353248422161L392.2588920663502,110.550551551024Z" stroke="#FFFFFF" stroke-dasharray="1, 0" stroke-width="1"></path><text x="365.0890774280201" y="132.2752151100657" title="Rock Island" class="hint " style="">Rock Island</text></a><a id="s32" rel="nofollow " title="Kendall" class="hint   "><path d="M512.7221957347126,108.38548517912841L536.6874316607984,107.93199987106254L537.3414519380065,132.550031632406L513.1391056886921,133.08216286357992Z" stroke="#FFFFFF" stroke-dasharray="1, 0" stroke-width="1"></path><text x="515.9669847421183" y="120.50790916704825" title="Kendall" class="hint " style="">Kendall</text></a><a id="s33" rel="nofollow " title="Kankakee" class="hint   "><path d="M588.3886078865903,147.99437987028568L588.4318723926515,174.88777913619015L537.6647746008166,176.3550188369154L537.9388019049816,157.02351161018487L554.2724125959119,156.65154058905182L554.1098399513089,148.5235732885335Z" stroke="#FFFFFF" stroke-dasharray="1, 0" stroke-width="1"></path><text x="555.8375207410177" y="163.01200152547028" title="Kankakee" class="hint " style="">Kankakee</text></a><a id="s34" rel="nofollow " title="Ford" class="hint   "><path d="M545.8050955662293,176.0490114784966L546.7989125154695,223.41711823073274L559.6557331724223,223.59775841117198L559.8917175488446,231.60814268634886L522.7137491800977,231.685384670473L522.7378796276068,211.41917197526527L538.5232105208449,211.37250290302336L537.6647746008166,176.3550188369154Z" stroke="#FFFFFF" stroke-dasharray="1, 0" stroke-width="1"></path><text x="530.3585019606352" y="213.24601467564943" title="Ford" class="hint " style="">Ford</text></a><a id="s35" rel="nofollow " title="Menard" class="hint   "><path d="M435.68084067657674,255.34425719925048L437.6406003544148,253.61450916177137L440.0695491039155,254.27806377724528L442.3798300971225,257.000353540031L442.43928712570187,259.9680363555717L443.9776330623313,259.91268730332695L444.02127757543985,270.5999273592024L435.58536742450815,270.66147252192286L435.33398572549936,276.0114740585577L430.57499561632835,276.0394309488129L430.5828279838047,277.36544662073857L414.729138045044,277.39546146292787L414.6948600019375,258.406153348526L416.4154052434494,255.32392213315688L426.7641301275337,257.25132627372795Z" stroke="#FFFFFF" stroke-dasharray="1, 0" stroke-width="1"></path><text x="419.28282468770857" y="265.8539087914275" title="Menard" class="hint " style="">Menard</text></a><a id="s36" rel="nofollow " title="Mason" class="hint   "><path d="M418.8592516766421,228.61270743999467L434.25691908421345,228.26816126063932L434.41324272403745,239.0091300995491L442.28168975855215,238.9246227875733L442.36003454482034,257.1649488363678L440.0695491039155,254.27806377724528L437.71551804008936,253.61145207691743L435.82683375444594,255.4568583241744L427.7442527487319,257.25063606880167L416.7081443761142,255.2428942009633L414.33516222009075,258.9983406650217L411.377018471278,258.32694114816513L404.8774483045954,262.6854714056626L401.47119883808114,262.27338604323404L398.3415522790524,263.7226726068657L394.1711579004327,263.33312514402724L392.2319186031534,257.7579989721298L389.39978941355093,257.3624666791852L395.40206406139896,254.20818144113855L399.77054766921583,254.1514831826753L400.5843820213488,250.84824889771062L405.5266058990312,247.35845374073915L409.35236907151693,241.42481993867568L411.352008377826,234.26222604590748L415.47748451601296,232.243413112933Z" stroke="#FFFFFF" stroke-dasharray="1, 0" stroke-width="1"></path><text x="411.2757314092598" y="246.40519772466263" title="Mason" class="hint " style="">Mason</text></a><a id="s37" rel="nofollow " title="Dewitt" class="hint   "><path d="M474.24402621619447,242.4316269549372L487.63967575482707,242.3362716284596L514.6403376036951,242.4802219111334L506.67207538473394,255.31802136144734L506.6668608435832,259.3409361662925L502.6371324070019,259.3161522340947L502.6478148273334,263.3399929067282L474.5355197702047,263.9112412125005Z" stroke="#FFFFFF" stroke-dasharray="1, 0" stroke-width="1"></path><text x="482.4748995709976" y="252.34092955873703" title="Dewitt" class="hint " style="">Dewitt</text></a><a id="s38" rel="nofollow " title="Schuyler" class="hint   "><path d="M382.66128629724676,242.9677279177654L382.55137277737595,251.03034303402137L400.2866394625603,251.4816173605641L400.016679641235,253.75698423228005L388.17411890523886,257.0817544388465L386.61251512987565,261.21153627499507L384.16529789342917,262.87197488993525L383.6319298537637,266.5351041582667L376.15604417352483,270.1998323538246L371.6129121416002,270.0926848089557L371.9770714876681,268.0619447791846L370.78227303337053,266.94373018917986L371.6289498464332,265.7434314572006L369.9765595725844,266.22699520196466L366.830467153005,264.16031002083764L367.03228608100017,260.986115915387L364.43159525758665,260.0706474390063L365.38049396639235,258.86382363366056L350.0687996347058,258.79261243515293L350.3236436201455,242.21758509606389Z" stroke="#FFFFFF" stroke-dasharray="1, 0" stroke-width="1"></path><text x="362.09845754938243" y="253.84272929141758" title="Schuyler" class="hint " style="">Schuyler</text></a><a id="s39" rel="nofollow " title="Hancock" class="hint   "><path d="M330.9842968163043,209.5270497381457L350.7196039263472,209.40474866908198L350.1715282065138,250.65093971425085L308.40972482876873,249.97423003330232L308.32310433346925,246.58295327516544L311.44349701717783,236.88724910366318L317.6750496207776,231.7099551639758L317.1264320390442,227.3421085905161L318.3506599280104,222.3901090598647L315.495983653597,217.15832640195913L319.068605835188,212.40678841771978L322.20283359028895,210.6994520163198Z" stroke="#FFFFFF" stroke-dasharray="1, 0" stroke-width="1"></path><text x="323.43006846277456" y="231.1442486608821" title="Hancock" class="hint " style="">Hancock</text></a><a id="s40" rel="nofollow " title="Brown" class="hint   "><path d="M370.36489158916675,266.00466840101535L371.7044023568394,265.9442814151512L370.78227303337053,266.94373018917986L371.9770714876681,268.0619447791846L371.6285698393849,270.1036503655714L378.28520958564945,269.77541007964055L376.4411198307339,275.9881413831131L373.1439746098215,279.9769905239118L374.09832008630656,283.15705140658383L349.83439862098203,282.64594534984644L350.0687996347058,258.79261243515293L365.38049396639235,258.86382363366056L364.43159525758665,260.0706474390063L367.03228608100017,260.986115915387L366.8194328742959,264.1475139314716Z" stroke="#FFFFFF" stroke-dasharray="1, 0" stroke-width="1"></path><text x="352.6028935564217" y="271.8546274034997" title="Brown" class="hint " style="">Brown</text></a><a id="s41" rel="nofollow " title="Douglas" class="hint   "><path d="M522.5736673229665,279.48966107882825L559.4772424548348,279.41794999306285L559.536713557749,287.433928420121L557.2794224361505,287.46310764066357L557.4556682972914,297.1923942807466L550.6805930212606,297.6343020083118L550.6244293870909,300.2585476111535L521.8381988686037,300.3227009363536Z" stroke="#FFFFFF" stroke-dasharray="1, 0" stroke-width="1"></path><text x="530.8505229722764" y="289.5233727844681" title="Douglas" class="hint " style="">Douglas</text></a><a id="s42" rel="nofollow " title="Pike" class="hint   "><path d="M374.09832008630656,283.15705140658383L374.4870461842718,284.25204206337776L368.8756510076589,295.62095589030605L374.07978418699554,310.4222887621672L371.4090876208543,317.91570756739884L371.15560180875013,323.66663932169877L348.42197576038575,323.32482547048403L344.37024913806,321.1715444737579L339.7346135387686,316.88378430865623L338.8246374036487,311.5786630586008L333.16263091805877,309.7550554488557L331.12401977789045,304.75174562596885L327.81852143910373,303.1222646102615L317.9364592835352,292.8978675342091L318.27737486520687,290.52048941641306L349.88574883255023,290.65742428981184L349.83439862098203,282.64594534984644Z" stroke="#FFFFFF" stroke-dasharray="1, 0" stroke-width="1"></path><text x="342.97674546518687" y="302.85979630244327" title="Pike" class="hint " style="">Pike</text></a><a id="s43" rel="nofollow " title="Cass" class="hint   "><path d="M391.19136078708584,257.27500485796963L394.1711579004327,263.33312514402724L398.3415522790524,263.7226726068657L401.47119883808114,262.27338604323404L404.86338804384377,262.6907124096051L411.3127339457633,258.3518302098337L413.45726149463667,259.2087080613883L414.5477832002666,257.9531792681664L414.7392082317997,280.0647874207548L373.4827720040614,279.73109767319283L376.4411198307339,275.9881413831131L378.35644683269766,269.0157260337078L383.72697383861396,266.4300167122401L384.16529789342917,262.87197488993525L386.6376941153478,261.17511639928216L388.06618986661465,257.17099511174183Z" stroke="#FFFFFF" stroke-dasharray="1, 0" stroke-width="1"></path><text x="387.9078999272736" y="270.8457780864028" title="Cass" class="hint " style="">Cass</text></a><a id="s44" rel="nofollow " title="Cumberland" class="hint   "><path d="M521.9650297392498,325.62159594236664L554.2314703551406,325.19528339534236L554.5422316738859,343.837352044432L521.9613070776193,344.0537104112773Z" stroke="#FFFFFF" stroke-dasharray="1, 0" stroke-width="1"></path><text x="529.2061878438194" y="334.6915765388398" title="Cumberland" class="hint " style="">Cumberland</text></a><a id="s45" rel="nofollow " title="Calhoun" class="hint   "><path d="M348.42197576038575,323.32482547048403L371.15560180875013,323.66663932169877L370.55209432017364,326.46548810244576L372.75016767688953,341.59504445870607L371.0726336034063,346.54357773530137L373.41937416165797,353.64249256293533L372.8167463190234,355.1209171431319L373.95950491933286,359.46671471511854L377.4235858287259,363.7382221482171L382.5979025291772,362.49281781840864L378.63144526598467,368.41167817426685L375.7241943128497,371.08525975381144L373.2081535778227,371.4138442778749L367.6795717888681,366.2376589073965L366.5849122287227,360.26237558586354L364.1593976169829,354.9429109288262L366.4198554639772,350.52304644779133L364.5039725257777,345.8366925259047L363.1172494010507,336.6431968356901Z" stroke="#FFFFFF" stroke-dasharray="1, 0" stroke-width="1"></path><text x="358.34734815200807" y="344.10058424583787" title="Calhoun" class="hint " style="">Calhoun</text></a><a id="s46" rel="nofollow " title="Clay" class="hint   "><path d="M506.2813225825157,367.33790185654425L529.6258803312171,367.66039275270805L529.6104407856251,372.98164070858365L536.8730932521132,373.3904381546163L536.9443093876575,383.9241764807748L534.8857901005078,384.183676391679L535.924574550354,389.9951646407221L534.1491323648299,392.60714519477006L537.5548399694442,395.58470431237174L505.94640970475916,395.17572733874385Z" stroke="#FFFFFF" stroke-dasharray="1, 0" stroke-width="1"></path><text x="511.6111624800544" y="381.8734781581131" title="Clay" class="hint " style="">Clay</text></a><a id="s47" rel="nofollow " title="Jersey" class="hint   "><path d="M377.6026254453798,342.6214785899315L379.43341495363825,345.0366121613997L380.26817784204763,343.7216765093858L392.2700600512426,343.8225829470539L392.2466966549962,339.19172503846994L400.0688813500767,339.15204554342154L400.03145769307866,336.17837843548614L403.94997777096114,335.8708831461813L404.0687792334397,359.68533390501307L395.0642729821168,359.6889106387507L394.9411436615992,366.5389847309598L383.38553750654455,362.5501922249632L376.55065334355663,363.2069880608069L374.04900361615773,359.75189704542527L371.8692268950563,348.9322220857571L373.3482072862853,346.56118058415495L373.4982608098269,342.85223192516514Z" stroke="#FFFFFF" stroke-dasharray="1, 0" stroke-width="1"></path><text x="380.2294735814287" y="351.8411151230148" title="Jersey" class="hint " style="">Jersey</text></a><a id="s48" rel="nofollow " title="Effingham" class="hint   "><path d="M498.4154933743257,339.99905103156607L521.9638404579343,340.1101436887375L521.9613070776193,344.0537104112773L529.7296644781563,344.0951930111155L529.6258803312171,367.66039275270805L498.32494613953713,367.60003433958354Z" stroke="#FFFFFF" stroke-dasharray="1, 0" stroke-width="1"></path><text x="504.58392556211834" y="354.2823910255957" title="Effingham" class="hint " style="">Effingham</text></a><a id="s49" rel="nofollow " title="Greene" class="hint   "><path d="M393.0948301617386,312.2826328920805L403.5387468111901,312.29257656830805L403.94997777096114,335.8708831461813L400.03145769307866,336.17837843548614L400.0688813500767,339.15204554342154L392.2466966549962,339.19172503846994L392.2700600512426,343.8225829470539L380.26817784204763,343.7216765093858L379.43341495363825,345.0366121613997L378.632219354414,342.7978037250982L374.52529318987354,342.03329039823757L371.8692268950563,348.9322220857571L371.09667256773673,345.5806370599298L372.68354681175015,339.90906555974016L370.54868833108117,326.35119882354275L371.4090876208543,317.91570756739884L373.4553763108131,312.1846366720083Z" stroke="#FFFFFF" stroke-dasharray="1, 0" stroke-width="1"></path><text x="377.8848948797687" y="327.1924227958963" title="Greene" class="hint " style="">Greene</text></a><a id="s50" rel="nofollow " title="Clinton" class="hint   "><path d="M442.68563724991577,382.81342367019533L474.9731260339306,383.4341047651819L474.5925560131491,404.4518914053383L459.4767130913806,403.11321126066423L458.8789901545247,404.8947297061318L455.8416712336734,405.8619124778402L454.56098414950065,404.81363307063793L450.81064533875247,407.549946584541L444.8986575504962,406.23685341634246L441.53135880633704,407.1356128425373L440.476290350794,409.2112849764908L437.9578710531382,409.64974590646716L435.34915082155567,412.2824489278014L434.96051620676917,390.7644750345312L442.8262187459434,390.68018213596224Z" stroke="#FFFFFF" stroke-dasharray="1, 0" stroke-width="1"></path><text x="445.9447680494715" y="395.10741256087175" title="Clinton" class="hint " style="">Clinton</text></a><a id="s51" rel="nofollow " title="Wabash" class="hint   "><path d="M558.2561953655991,398.413912314094L579.6127321716049,398.5934469182921L578.2956418197273,400.69527009722697L580.048642477954,403.72686355530277L572.6777231888016,407.3013423272514L572.2632480947918,408.6575348429237L574.0517231146075,409.60910615495095L572.9554801917648,413.0115316992287L567.5470721129591,418.50615687783056L566.2316847556265,424.521090331657L564.832477695677,424.64831411651994L564.4145755010745,421.6078170300775L561.4420759304724,425.5320438033509L561.4479660397055,423.01564117212774L559.7759631799122,423.03647062878554L557.5924708343468,428.3837680056067L555.6317681760593,426.0363637686082L558.8950786954192,421.8312562561209L556.6909815232852,415.6944161612555L559.090367131934,409.2726660798676L558.1149383014872,404.97165322912133L559.5132797898277,402.18342589164104Z" stroke="#FFFFFF" stroke-dasharray="1, 0" stroke-width="1"></path><text x="557.0397777566775" y="409.5472118135442" title="Wabash" class="hint " style="">Wabash</text></a><a id="s52" rel="nofollow " title="Edwards" class="hint   "><path d="M544.6882759654884,398.51543048799886L558.2561953655991,398.413912314094L559.5132797898277,402.18342589164104L558.1149383014872,404.97165322912133L559.090367131934,409.2726660798676L556.6909815232852,415.6944161612555L558.8950786954192,421.8312562561209L555.7601472235647,426.2904897324911L544.4754016472803,426.6126790544404Z" stroke="#FFFFFF" stroke-dasharray="1, 0" stroke-width="1"></path><text x="542.3633117592244" y="412.1601365327146" title="Edwards" class="hint " style="">Edwards</text></a><a id="s53" rel="nofollow " title="Washington" class="hint   "><path d="M463.51957991976724,403.9894631747825L474.5925560131491,404.4518914053383L474.3350308668746,430.49171613014096L435.21853395477115,429.897184706655L435.69146679956907,411.450479077012L444.0833524303457,406.21175374629684L450.81064533875247,407.549946584541L454.56098414950065,404.81363307063793L455.8416712336734,405.8619124778402L458.8789901545247,404.8947297061318L459.4767130913806,403.11321126066423Z" stroke="#FFFFFF" stroke-dasharray="1, 0" stroke-width="1"></path><text x="446.8860123856001" y="417.9886486841863" title="Washington" class="hint " style="">Washington</text></a><a id="s54" rel="nofollow " title="Richland" class="hint   "><path d="M558.8955501856444,373.15781868941394L561.5571054711463,373.1594271033696L561.2366961956986,398.43091462667235L544.6882759654884,398.51543048799886L544.6519360322905,395.9143019900848L537.2122213932269,395.77986807495927L534.1535798547179,392.6269735282963L535.924574550354,389.9951646407221L534.8857901005078,384.183676391679L536.9443093876575,383.9241764807748L536.8730932521132,373.3904381546163Z" stroke="#FFFFFF" stroke-dasharray="1, 0" stroke-width="1"></path><text x="540.0693326554806" y="385.56927845714523" title="Richland" class="hint " style="">Richland</text></a><a id="s55" rel="nofollow " title="Randolph" class="hint   "><path d="M435.21853395477115,429.897184706655L442.9936611104861,429.9142301648544L442.84474057091893,453.5123402264644L437.95720252222054,464.76533171955134L436.80133367877716,465.35583178186425L437.263197059028,467.0858306705891L432.63206524696466,463.1926928507278L429.37962715145954,462.7542935744855L428.5038446134363,460.11867387964367L425.38798386562644,457.9593569160111L421.29855913676806,461.1203319856136L418.1121296728263,460.32176551252724L416.11677600155076,456.06831443265855L419.6411654367955,453.0897702113002L414.3472379995965,452.7047602743414L405.1910244903588,443.9294863923242L399.7828978982552,441.66925616256276L411.8085446222458,437.40626211404333L411.7846112154291,429.56689887945686Z" stroke="#FFFFFF" stroke-dasharray="1, 0" stroke-width="1"></path><text x="417.7469953851711" y="444.83504254542436" title="Randolph" class="hint " style="">Randolph</text></a><a id="s56" rel="nofollow " title="Perry" class="hint   "><path d="M442.9936611104861,429.9142301648544L474.3350308668746,430.49171613014096L474.1800302145491,438.3550969014718L475.59655574382487,438.3739451645424L475.039092442488,440.17754476478467L476.59168160622676,441.8517666817256L476.3908689931902,444.19365947955976L474.3870284978582,446.70408072121563L475.1432002991346,447.92329872243727L473.79746163818413,452.43077223357295L472.22779326881687,453.9832613711901L442.84474057091893,453.5123402264644Z" stroke="#FFFFFF" stroke-dasharray="1, 0" stroke-width="1"></path><text x="449.85264886837444" y="441.98202455328516" title="Perry" class="hint " style="">Perry</text></a><a id="s57" rel="nofollow " title="Franklin" class="hint   "><path d="M475.59655574382487,438.3739451645424L505.49551726871096,438.3316326612289L505.3452385558071,461.7130493556697L474.0873577551613,461.85354580346984L474.09590791372784,453.98921382215985L472.1603209064033,453.80987936363044L473.79746163818413,452.43077223357295L475.1432002991346,447.92329872243727L474.3870284978582,446.70408072121563L476.3962102033561,444.179868794743L476.59477795994667,441.1187074728059L475.039092442488,440.17754476478467Z" stroke="#FFFFFF" stroke-dasharray="1, 0" stroke-width="1"></path><text x="481.05562513869415" y="450.2261061350702" title="Franklin" class="hint " style="">Franklin</text></a><a id="s58" rel="nofollow " title="Jackson" class="hint   "><path d="M472.22779326881687,453.9832613711901L474.09590791372784,453.98921382215985L473.89843795527463,485.11190834040326L452.82233931306587,485.1403221592027L451.694450247777,488.47909457554033L448.02586924955494,487.6197767778499L451.22407189479736,485.8084069473175L448.3204169342782,481.65551589894676L448.482236601953,477.0824214825311L437.86549415478703,471.62629426836065L438.22883015225375,468.6212537666165L436.80133367877716,465.35583178186425L437.95720252222054,464.76533171955134L442.84474057091893,453.5123402264644Z" stroke="#FFFFFF" stroke-dasharray="1, 0" stroke-width="1"></path><text x="448.8213208552781" y="468.6662659398333" title="Jackson" class="hint " style="">Jackson</text></a><a id="s59" rel="nofollow " title="Saline" class="hint   "><path d="M505.35775767686846,457.8482632700893L528.7193946311993,457.70341773458176L528.6705707627777,485.1841728176569L505.22151811321623,485.2146025343927Z" stroke="#FFFFFF" stroke-dasharray="1, 0" stroke-width="1"></path><text x="508.0004423499108" y="471.4961565947118" title="Saline" class="hint " style="">Saline</text></a><a id="s60" rel="nofollow " title="White" class="hint   "><path d="M555.9559001131374,426.53756182090183L556.680749481676,431.705268600761L559.7094267607833,435.5281002202655L560.5970458146155,433.975439604053L561.393350582397,434.72145593901905L558.9343531274826,438.19727746401213L557.4499400429102,437.6823384123227L556.7368920043427,439.7849683026784L554.0085328873447,440.48593005184557L554.6408083168426,442.02710180246186L557.8869974075678,440.58820622912845L557.2701052263228,443.6649004105002L552.0886809866497,445.45664853469134L554.5072147281862,446.7478310635347L553.2843661240577,448.7864138760956L554.2282191837353,452.3923978189614L552.5063861405608,453.3803937764419L552.6902532541528,456.12524152110154L550.2035012104441,456.17458506847834L553.6514529318254,457.2499698887582L554.0151267133342,459.2708975188598L548.7297635090356,457.8786322642145L548.1702805406142,459.35661635704673L545.5254033421922,457.0160892243307L528.7149119554742,457.69918113292806L529.0212539330009,426.6898386605876Z" stroke="#FFFFFF" stroke-dasharray="1, 0" stroke-width="1"></path><text x="533.4555888367768" y="441.60718461931873" title="White" class="hint " style="">White</text></a><a id="s61" rel="nofollow " title="Pulaski" class="hint   "><path d="M467.2139943600432,508.61874676770867L481.5779511155688,509.1266937666355L481.5501472666019,512.2688314115067L484.4161744922633,510.7442932684089L489.6478300338649,511.4379100490528L489.7893122873377,518.239712791577L485.9477084507107,518.0407336739108L482.5891146828037,519.628865905408L472.07426338450887,532.1273859499543L470.9170011818903,530.3900143685632L466.8823045050224,529.4651067633381L465.49546878561614,527.0679791205148L466.5809096562791,525.3715623091175L465.9337365430913,522.2477437291705L467.00112707900325,521.5557639398316L465.91114019810675,518.2765666709643L467.41852259754273,514.9477596276311L470.4506903117524,512.6721705501982L470.1442005537067,509.79828575092733Z" stroke="#FFFFFF" stroke-dasharray="1, 0" stroke-width="1"></path><text x="466.8665490608769" y="518.4070717055963" title="Pulaski" class="hint " style="">Pulaski</text></a><a id="s62" rel="nofollow " title="Alexander" class="hint   "><path d="M450.5123679552305,508.6852149540159L467.2139943600432,508.61874676770867L470.1442005537067,509.79828575092733L470.4506903117524,512.6721705501982L467.41852259754273,514.9477596276311L465.91114019810675,518.2765666709643L467.00112707900325,521.5557639398316L465.9337365430913,522.2477437291705L466.5809096562791,525.3715623091175L465.49546878561614,527.0679791205148L466.8823045050224,529.4651067633381L472.5093081192483,532.0636381423315L472.10300317675797,536.3482946667805L475.381401383333,539.744510541519L471.3658106163473,540.4646215911512L470.63804786044557,536.8847437525187L466.77223616746596,531.8685015155615L462.91810617261103,532.6185535471254L466.54041779423073,536.5171504097907L464.9599192240123,539.3154480053522L458.032109263605,534.6786957904951L458.0893706959114,529.885475823256L452.29072352811795,520.8681737340094L452.4813040995459,516.3605841754493L449.54857859990125,515.9960058514775L448.257173909559,513.1666650509501Z" stroke="#FFFFFF" stroke-dasharray="1, 0" stroke-width="1"></path><text x="451.9859702449493" y="521.2587873668843" title="Alexander" class="hint " style="">Alexander</text></a><a id="s63" rel="nofollow " title="Dupage" class="hint   "><path d="M536.598031484318,83.17989332511115L560.679261043033,82.45760935101544L561.1184717809595,108.64905827028724L557.4378150032317,111.4946762040795L553.0301414093619,111.62103021078383L552.9550548316674,107.51345423176735L536.6869249847355,107.91250125935176Z" stroke="#FFFFFF" stroke-dasharray="1, 0" stroke-width="1"></path><text x="540.1239242963524" y="95.87174444951545" title="Dupage" class="hint " style="">Dupage</text></a><a id="s64" rel="nofollow " title="Whiteside" class="hint   "><path d="M403.6491951557937,88.60577360343359L440.4845027253177,88.46231820593948L440.2782081587643,121.06329360785867L401.2901325171731,121.09761508698921L402.7249265333919,120.05817535439337L403.08848772021975,116.7868703967797L402.0865006194622,115.87734581857194L402.98307095041037,115.5348346594883L397.71876998857147,112.17695090620236L398.37680848844775,110.93105004242489L397.0399366586039,109.90569277289569L397.8731021099802,107.87274011441059L396.9302131422569,104.13520582993942L397.2781166312993,102.39509723397123L401.5801060429924,100.02447317524093Z" stroke="#FFFFFF" stroke-dasharray="1, 0" stroke-width="1"></path><text x="411.4351059682591" y="104.93003089816436" title="Whiteside" class="hint " style="">Whiteside</text></a><a id="s65" rel="nofollow " title="Lee" class="hint   "><path d="M440.486606838414,91.20196719078149L451.9901872138146,90.1679075326033L454.92275789577207,90.68729031876092L454.56063932829124,91.82265453696027L455.6827438418586,92.68024792570577L456.6922536747222,91.08955763277254L459.36562436453005,91.08793137097018L459.3553500999153,92.47790392069555L488.85352382166593,92.12535013246452L489.01830613687775,116.97942200639909L472.95272708336597,116.95039655091614L472.99526676117057,121.0423694530673L440.27214915750915,121.06900445952715Z" stroke="#FFFFFF" stroke-dasharray="1, 0" stroke-width="1"></path><text x="454.5845727813066" y="105.79535957207169" title="Lee" class="hint " style="">Lee</text></a><a id="s66" rel="nofollow " title="Jo Daviess" class="hint   "><path d="M419.5055803297241,33.80643291597744L419.9880555737109,63.22701037574234L392.0203320866067,63.52342486163161L389.31282409704227,62.405947706135066L384.73352102394074,57.533944715695725L383.9975951536876,55.23229875406105L385.06035523335663,51.17300547886134L383.025227491122,48.06595617805942L368.13306797690893,35.6070779226975L369.218691813928,33.59050572271508Z" stroke="#FFFFFF" stroke-dasharray="1, 0" stroke-width="1"></path><text x="390.42863177543626" y="47.21211008541645" title="Jo Daviess" class="hint " style="">Jo Daviess</text></a><a id="s67" rel="nofollow " title="Stephenson" class="hint   "><path d="M456.47173699256246,34.301394091604834L456.8458046705323,62.70977450354803L419.9880555737109,63.22701037574234L419.5055803297241,33.80643291597744Z" stroke="#FFFFFF" stroke-dasharray="1, 0" stroke-width="1"></path><text x="429.0950209670026" y="48.5050875257853" title="Stephenson" class="hint " style="">Stephenson</text></a><a id="s68" rel="nofollow " title="Winnebago" class="hint   "><path d="M488.9145219899376,34.82749470467206L488.9556120112279,67.45307190236736L472.55645714179263,67.64582671444577L472.54076425816993,62.511037684141684L456.8458046705323,62.70977450354803L456.47173699256246,34.301394091604834Z" stroke="#FFFFFF" stroke-dasharray="1, 0" stroke-width="1"></path><text x="464.3939532763729" y="49.91992014232443" title="Winnebago" class="hint " style="">Winnebago</text></a><a id="s69" rel="nofollow " title="Lake" class="hint   "><path d="M541.0231994767032,67.26454455707471L541.0433609617171,34.82323805809301L568.9769330747306,35.07327749219394L568.8030868877217,45.38465068916685L568.1180397388127,47.574343291284094L567.3743026125846,47.190325361812484L566.6325570047734,52.54027028066412L568.4246843145438,60.3696394879762L572.0525975215289,67.44169075567152Z" stroke="#FFFFFF" stroke-dasharray="1, 0" stroke-width="1"></path><text x="545.8031297261606" y="51.2612866395887" title="Lake" class="hint " style="">Lake</text></a><a id="s70" rel="nofollow " title="Gallatin" class="hint   "><path d="M528.7149823271491,457.7033017855183L545.5254033421922,457.0160892243307L553.1132081350518,463.96253006122924L552.0885824663046,465.4250971355059L548.7404318550332,465.0576661703735L550.1342836304814,467.2228814015857L552.4125595856965,466.4842004693123L553.052034037591,467.4600593456471L550.9375411197957,472.4091616516057L546.4903397558307,475.37418982369354L543.8666514688834,479.63439236030126L545.6919027262845,487.4179864838261L542.4726167270785,485.2140518519145L528.6705707627777,485.1841728176569Z" stroke="#FFFFFF" stroke-dasharray="1, 0" stroke-width="1"></path><text x="529.8694569010414" y="470.52423811889764" title="Gallatin" class="hint " style="">Gallatin</text></a><a id="s71" rel="nofollow " title="Williamson" class="hint   "><path d="M474.0873577551613,461.85354580346984L505.3452385558071,461.7130493556697L505.22151811321623,485.2146025343927L473.89843795527463,485.11190834040326Z" stroke="#FFFFFF" stroke-dasharray="1, 0" stroke-width="1"></path><text x="480.66523755137405" y="473.4774210791601" title="Williamson" class="hint " style="">Williamson</text></a><a id="s72" rel="nofollow " title="Johnson" class="hint   "><path d="M481.7996289303735,485.460122411112L505.22151811321623,485.2146025343927L505.0708734676009,508.46000813749515L491.39507428903994,508.57819288208657L491.9237555751215,510.19345704337593L489.86698854268843,511.4661581960522L484.4161744922633,510.7442932684089L481.5501472666019,512.2688314115067Z" stroke="#FFFFFF" stroke-dasharray="1, 0" stroke-width="1"></path><text x="484.10615082234995" y="497.5438307741864" title="Johnson" class="hint " style="">Johnson</text></a><a id="s73" rel="nofollow " title="Hamilton" class="hint   "><path d="M505.6564995134481,426.5617496288419L529.0179464642547,426.668151616273L528.7149823271491,457.7033017855183L505.35775767686846,457.8482632700893Z" stroke="#FFFFFF" stroke-dasharray="1, 0" stroke-width="1"></path><text x="508.17110066018233" y="442.1946403754928" title="Hamilton" class="hint " style="">Hamilton</text></a><a id="s74" rel="nofollow " title="Hardin" class="hint   "><path d="M528.6705707627777,485.1841728176569L542.4726167270785,485.2140518519145L549.992358035453,491.4506621052378L550.6530354731578,494.45656968013645L549.1009529854812,496.5392889932168L535.1837437743225,498.2487273733218L529.0132456363353,502.68714363325853L525.8541977913071,500.76652170346233L526.0417805293614,485.160626551306Z" stroke="#FFFFFF" stroke-dasharray="1, 0" stroke-width="1"></path><text x="527.2601307687037" y="492.4780258495131" title="Hardin" class="hint " style="">Hardin</text></a><a id="s75" rel="nofollow " title="Hassac" class="hint   "><path d="M489.72780744300326,511.4813925055314L491.9237555751215,510.19345704337593L491.39507428903994,508.57819288208657L505.0708734676009,508.46000813749515L520.581205927552,524.162123981419L520.5976095650974,532.1865646797137L515.2380957263881,531.5788332958441L511.2848753753444,527.7839573730193L503.6510897297526,525.5871052375478L498.6379100917229,521.6638054925411L489.79667316458904,518.2467123929787Z" stroke="#FFFFFF" stroke-dasharray="1, 0" stroke-width="1"></path><text x="496.2817395289257" y="518.8734194180234" title="Hassac" class="hint " style="">Hassac</text></a><a id="s76" rel="nofollow " title="McDonough" class="hint   "><path d="M358.77735076779754,209.72951631416845L382.98828939868304,210.46921000798693L382.66128629724676,242.9677279177654L350.3236436201455,242.21758509606389L350.7196039263472,209.40474866908198Z" stroke="#FFFFFF" stroke-dasharray="1, 0" stroke-width="1"></path><text x="357.6493254512765" y="226.28440072672686" title="McDonough" class="hint " style="">McDonough</text></a><a id="s77" rel="nofollow " title="Vermilion" class="hint   "><path d="M559.6557331724223,223.59775841117198L588.4214925705242,223.14040647903175L587.933380555334,279.1673124073436L584.5195309478718,279.23001171514716L586.2024203058561,280.45072162582665L584.7232428739358,280.47649496324357L582.024059853577,280.4688940860283L582.1680684501976,279.27074713048296L559.4772424548348,279.41794999306285Z" stroke="#FFFFFF" stroke-dasharray="1, 0" stroke-width="1"></path><text x="564.9069190780923" y="251.36525200604308" title="Vermilion" class="hint " style="">Vermilion</text></a><a id="s78" rel="nofollow " title="Macon" class="hint   "><path d="M474.5355197702047,263.9112412125005L502.6478148273334,263.3399929067282L502.6244162452499,287.47606698121126L501.70696663819785,287.4751694447036L501.78238396276697,292.2553760183541L497.9104428968585,292.1985352138231L498.04236867680515,300.16907553038845L474.9144712424509,299.9792047958854L474.7388939122268,286.6509296721365L469.39737411092756,285.5374471579389L469.3759107499186,276.0151808539167L474.6176364782759,275.9755804220749Z" stroke="#FFFFFF" stroke-dasharray="1, 0" stroke-width="1"></path><text x="478.3841909510293" y="281.2265185772611" title="Macon" class="hint " style="">Macon</text></a><a id="s79" rel="nofollow " title="Sangamon" class="hint   "><path d="M469.3759107499186,276.0151808539167L469.39737411092756,285.5374471579389L467.2461119927143,284.4021613881173L463.42229107847106,288.95714857142593L461.4760920224917,290.1126605380382L459.7208676193213,289.3092565860843L456.9564922788327,292.01902253102617L454.7890939354411,290.24248206106313L454.84275937513166,297.3743933810333L451.0360176665181,297.35492540647556L451.0758621091529,301.2920141482896L447.0645851258703,301.2727958450678L447.15710276757295,311.921073873797L419.5736719628808,312.12298457753377L419.7445766138551,308.8127692284379L415.5021216395842,294.34407361272815L414.729138045044,277.39546146292787L430.5828279838047,277.36544662073857L430.57499561632835,276.0394309488129L435.33398572549936,276.0114740585577L435.58536742450815,270.66147252192286L450.6554335714018,270.55205542095837L450.7078323209339,274.5337657239352Z" stroke="#FFFFFF" stroke-dasharray="1, 0" stroke-width="1"></path><text x="429.4628749722814" y="290.4925046067843" title="Sangamon" class="hint " style="">Sangamon</text></a><a id="s80" rel="nofollow " title="Edgar" class="hint   "><path d="M559.4772424548348,279.41794999306285L582.1680684501976,279.27074713048296L582.024059853577,280.4688940860283L584.7232428739358,280.47649496324357L586.2024203058561,280.45072162582665L584.5195309478718,279.23001171514716L587.933380555334,279.1673124073436L588.0399373462853,316.25213980199806L557.8784894720072,315.86565203175905L557.2794224361505,287.46310764066357L559.536713557749,287.433928420121Z" stroke="#FFFFFF" stroke-dasharray="1, 0" stroke-width="1"></path><text x="563.9864401907367" y="297.931178252261" title="Edgar" class="hint " style="">Edgar</text></a><a id="s81" rel="nofollow " title="Morgan" class="hint   "><path d="M414.7392082317997,280.0647874207548L415.5021216395842,294.34407361272815L419.7445766138551,308.8127692284379L419.5736719628808,312.12298457753377L393.0948301617386,312.2826328920805L393.20583444257863,301.66141823993667L390.57406045012317,301.6479671338784L390.6161567863712,298.9812682080001L388.1085676895657,298.95423570915136L388.15616709083383,290.99562484655735L380.3280922865174,290.9978399743145L380.3621240287605,287.6858214196359L372.19432292408874,287.64850152095414L374.5348355890642,284.0726602157424L373.21592261079263,281.1835564260855L373.47686782049254,279.3608648165382Z" stroke="#FFFFFF" stroke-dasharray="1, 0" stroke-width="1"></path><text x="391.1164676019952" y="294.2900773138594" title="Morgan" class="hint " style="">Morgan</text></a><a id="s82" rel="nofollow " title="Christian" class="hint   "><path d="M469.39737411092756,285.5374471579389L474.7388939122268,286.6509296721365L474.9144712424509,299.9792047958854L482.91915784061894,300.061020011673L482.9265257550385,328.2044505763042L447.3682740912336,327.9376936548633L447.0645851258703,301.2727958450678L451.0758621091529,301.2920141482896L451.0360176665181,297.35492540647556L454.84275937513166,297.3743933810333L454.7890939354411,290.24248206106313L456.9564922788327,292.01902253102617L459.7208676193213,289.3092565860843L461.4760920224917,290.1126605380382L463.42229107847106,288.95714857142593L467.2461119927143,284.4021613881173Z" stroke="#FFFFFF" stroke-dasharray="1, 0" stroke-width="1"></path><text x="456.1941180029168" y="310.0243575893611" title="Christian" class="hint " style="">Christian</text></a><a id="s83" rel="nofollow " title="Moultrie" class="hint   "><path d="M502.6244162452499,287.47606698121126L521.8207255815914,287.4910686439039L521.9772603364415,318.9939212311906L513.9670565989186,318.94697090388854L513.9513355666247,316.26317128381015L512.6394667930647,316.25919630579847L509.9531125291378,312.2294932568816L504.637580987579,312.1902380607489L504.63117716511374,306.9129573128257L498.09077735234155,306.8511899553632L497.9104428968585,292.1985352138231L501.78238396276697,292.2553760183541L501.70696663819785,287.4751694447036Z" stroke="#FFFFFF" stroke-dasharray="1, 0" stroke-width="1"></path><text x="502.5105974052638" y="301.2430435979234" title="Moultrie" class="hint " style="">Moultrie</text></a><a id="s84" rel="nofollow " title="Scott" class="hint   "><path d="M373.4553763108131,312.1846366720083L373.7627034917964,308.71437244887557L368.873983198951,295.7885031597998L372.19432292408874,287.64850152095414L380.3621240287605,287.6858214196359L380.3280922865174,290.9978399743145L388.15616709083383,290.99562484655735L388.1085676895657,298.95423570915136L390.6161567863712,298.9812682080001L390.57406045012317,301.6479671338784L393.20583444257863,301.66141823993667L393.0948301617386,312.2826328920805Z" stroke="#FFFFFF" stroke-dasharray="1, 0" stroke-width="1"></path><text x="371.8816829322711" y="300.98533623931894" title="Scott" class="hint " style="">Scott</text></a><a id="s85" rel="nofollow " title="Coles" class="hint   "><path d="M521.8381988686037,300.3227009363536L550.6244293870909,300.2585476111535L550.6805930212606,297.6343020083118L557.4556682972914,297.1923942807466L557.8784894720072,315.86565203175905L554.0911421971443,315.9256721889251L554.2314703551406,325.19528339534236L521.9650297392498,325.62159594236664Z" stroke="#FFFFFF" stroke-dasharray="1, 0" stroke-width="1"></path><text x="530.4705386483209" y="312.24374830319283" title="Coles" class="hint " style="">Coles</text></a><a id="s86" rel="nofollow " title="Shelby" class="hint   "><path d="M482.91915784061894,300.061020011673L498.04236867680515,300.16907553038845L498.09077735234155,306.8511899553632L504.63117716511374,306.9129573128257L504.637580987579,312.1902380607489L509.9531125291378,312.2294932568816L512.6394667930647,316.25919630579847L513.9513355666247,316.26317128381015L513.9670565989186,318.94697090388854L521.9772603364415,318.9939212311906L521.9638404579343,340.1101436887375L474.89392975039004,339.9049509216584L474.8826069478114,327.9289028801836L482.9265257550385,328.2044505763042Z" stroke="#FFFFFF" stroke-dasharray="1, 0" stroke-width="1"></path><text x="489.39927869012814" y="324.03208903796974" title="Shelby" class="hint " style="">Shelby</text></a><a id="s87" rel="nofollow " title="Montgomery" class="hint   "><path d="M435.3298760196533,312.03886198162627L447.1747871696107,311.9221412841889L447.3682740912336,327.9376936548633L474.8826069478114,327.9289028801836L474.89353566900786,339.8455199920513L467.0853971603433,339.89005463796275L467.1036656472879,357.0461923558355L443.46425057849115,357.0375684138712L443.47085847881453,359.66243370675784L435.55180717248936,359.6961274852997Z" stroke="#FFFFFF" stroke-dasharray="1, 0" stroke-width="1"></path><text x="442.03532299205835" y="338.6057900353956" title="Montgomery" class="hint " style="">Montgomery</text></a><a id="s88" rel="nofollow " title="Macoupin" class="hint   "><path d="M419.5736719628808,312.12298457753377L435.3298760196533,312.03886198162627L435.55180717248936,359.6961274852997L404.0687792334397,359.68533390501307L403.5387468111901,312.29257656830805Z" stroke="#FFFFFF" stroke-dasharray="1, 0" stroke-width="1"></path><text x="410.63653395566666" y="335.8788986122865" title="Macoupin" class="hint " style="">Macoupin</text></a><a id="s89" rel="nofollow " title="Clark" class="hint   "><path d="M557.8784894720072,315.86565203175905L588.0399373462853,316.25213980199806L588.0645955813598,328.017392484031L584.5387072294279,328.8192847575424L581.7376400973662,331.9411746866358L583.3904244525979,332.4915651915462L582.5278788267244,334.11049525394856L583.6572808830349,337.168555487754L585.2124386129276,336.53844161887173L584.8430717628762,340.5091112311543L580.3785026694127,344.5071904571996L581.2103592076262,345.3233733760585L572.9742412804367,343.36889085332496L554.5422316738859,343.837352044432L554.0911421971443,315.9256721889251Z" stroke="#FFFFFF" stroke-dasharray="1, 0" stroke-width="1"></path><text x="561.0303213832563" y="329.40630783254346" title="Clark" class="hint " style="">Clark</text></a><a id="s90" rel="nofollow " title="Crawford" class="hint   "><path d="M558.5792646903774,343.73176177835285L572.9742412804367,343.36889085332496L581.2552000392175,345.35474688693466L579.0906095256746,347.14486902211684L580.9605397598125,348.8125661725958L579.3986333862451,349.69711619738746L582.2051543231544,350.27680024587244L581.8149926430106,351.7596202967534L585.1692444785431,354.4221391099827L584.7119482200276,359.60376572377436L585.9891800549362,360.3416899676863L584.8368931297719,360.75285954420724L589.3954717444567,363.6882517117574L588.3076523111629,366.935846302702L589.0472234342051,368.323646760085L587.1465478150674,369.10489129811185L587.806430052839,370.50446292484867L586.5006554663728,371.9548111116651L588.1029974046476,372.95247152323464L558.8955501856444,373.15781868941394Z" stroke="#FFFFFF" stroke-dasharray="1, 0" stroke-width="1"></path><text x="562.9217566452651" y="359.31457926120487" title="Crawford" class="hint " style="">Crawford</text></a><a id="s91" rel="nofollow " title="Jasper" class="hint   "><path d="M554.5422316738859,343.837352044432L558.5792646903774,343.73176177835285L558.8955501856444,373.15781868941394L529.6104407856251,372.98164070858365L529.7296644781563,344.0951930111155Z" stroke="#FFFFFF" stroke-dasharray="1, 0" stroke-width="1"></path><text x="535.2456581641796" y="358.5413602050818" title="Jasper" class="hint " style="">Jasper</text></a><a id="s92" rel="nofollow " title="Bond" class="hint   "><path d="M467.1036656472879,357.0461923558355L466.83039132005,382.91643257695796L442.68563724991577,382.81342367019533L442.5222271823759,370.95969848098366L439.8924447083348,370.9808500011013L439.7269305276991,359.6835953400455L443.47085847881453,359.66243370675784L443.46425057849115,357.0375684138712Z" stroke="#FFFFFF" stroke-dasharray="1, 0" stroke-width="1"></path><text x="445.18230942403164" y="369.7426752855974" title="Bond" class="hint " style="">Bond</text></a><a id="s93" rel="nofollow " title="Madison" class="hint   "><path d="M439.7309135645294,359.68058907034174L439.8924447083348,370.9808500011013L442.5222271823759,370.95969848098366L442.8262187459434,390.68018213596224L401.51104328071506,390.3110971242663L399.5633875310532,386.38345366792737L400.004934608605,383.5793692135262L405.8876759285481,377.5605736613775L406.65207417868487,373.8335881937692L394.9411436615992,366.5389847309598L395.0642729821168,359.6889106387507Z" stroke="#FFFFFF" stroke-dasharray="1, 0" stroke-width="1"></path><text x="411.9264797082705" y="374.9106518290504" title="Madison" class="hint " style="">Madison</text></a><a id="s94" rel="nofollow " title="Fayette" class="hint   "><path d="M474.89353566900786,339.8455199920513L498.4154863371584,339.9672061111992L498.32494613953713,367.60003433958354L506.2813225825157,367.33790185654425L506.1771584285291,375.3060118986773L474.99187304826796,375.50225117606897L474.9731260339306,383.4341047651819L466.83039132005,382.91643257695796L467.0853971603433,339.89005463796275Z" stroke="#FFFFFF" stroke-dasharray="1, 0" stroke-width="1"></path><text x="474.04620271950705" y="359.45908156592384" title="Fayette" class="hint " style="">Fayette</text></a><a id="s95" rel="nofollow " title="St. Clair" class="hint   "><path d="M434.96051620676917,390.7644750345312L435.21853395477115,429.897184706655L421.4478385718794,429.77941486825966L419.6043047531998,425.1179233381472L419.998618362195,423.9643763417307L421.2043596120236,424.33945685735534L420.50021359039965,421.9976872139059L411.81257691924884,421.8799268555599L404.11174817846427,411.3092799004253L395.7593692062794,402.8555950501659L401.12351350123254,395.1474689077304L401.5467217201631,390.310520356094Z" stroke="#FFFFFF" stroke-dasharray="1, 0" stroke-width="1"></path><text x="410.3916020781459" y="407.3889603506348" title="St. Clair" class="hint " style="">St. Clair</text></a><a id="s96" rel="nofollow " title="Wayne" class="hint   "><path d="M505.94640970475916,395.17572733874385L544.6565946372048,395.91766955527237L544.4754016472803,426.6126790544404L505.6564995134481,426.5617496288419Z" stroke="#FFFFFF" stroke-dasharray="1, 0" stroke-width="1"></path><text x="516.1116503395979" y="411.07312394316074" title="Wayne" class="hint " style="">Wayne</text></a><a id="s97" rel="nofollow " title="Monroe" class="hint   "><path d="M421.4478385718794,429.77941486825966L411.7846112154291,429.56689887945686L411.8085446222458,437.40626211404333L399.7828978982552,441.66925616256276L389.43622786709443,430.40784837031515L388.07086254586466,420.28851353363007L389.52205316246227,416.0317622094112L394.52512742789827,409.36110201025076L395.76748306045783,402.86428376057665L404.11174817846427,411.3092799004253L411.81257691924884,421.8799268555599L420.50021359039965,421.9976872139059L421.2043596120236,424.33945685735534L419.998618362195,423.9643763417307L419.6043047531998,425.1179233381472Z" stroke="#FFFFFF" stroke-dasharray="1, 0" stroke-width="1"></path><text x="392.853702274891" y="424.56214898311737" title="Monroe" class="hint " style="">Monroe</text></a><a id="s98" rel="nofollow " title="Jefferson" class="hint   "><path d="M474.54981225748566,407.06871941805866L505.9007736732365,406.9777263537171L505.49551726871096,438.3316326612289L474.1800302145491,438.3550969014718Z" stroke="#FFFFFF" stroke-dasharray="1, 0" stroke-width="1"></path><text x="481.0371935325215" y="422.68039813094464" title="Jefferson" class="hint " style="">Jefferson</text></a><a id="s99" rel="nofollow " title="Lawrence" class="hint   "><path d="M561.5571054711463,373.1594271033696L588.1765217311479,372.9598090135464L588.3435700143086,376.0605496555504L590.5902139014133,379.1257711113012L589.2127798378463,380.325154834607L590.4594492541098,380.64946793031277L590.5671671777068,383.0503859022001L587.8376398908977,388.3497333301643L583.2929737564482,390.00073432834915L581.3104488416054,395.13052999930824L582.3995068163856,396.66638700512885L580.6184067481568,396.3731480934871L579.6127321716049,398.5934469182921L561.2366961956986,398.43091462667235Z" stroke="#FFFFFF" stroke-dasharray="1, 0" stroke-width="1"></path><text x="565.2657743854567" y="384.90685089563726" title="Lawrence" class="hint " style="">Lawrence</text></a><a id="s100" rel="nofollow " title="Marion" class="hint   "><path d="M474.9731260339306,383.4341047651819L474.99187304826796,375.50225117606897L506.1771584285291,375.3060118986773L505.9007736732365,406.9777263537171L474.54981225748566,407.06871941805866Z" stroke="#FFFFFF" stroke-dasharray="1, 0" stroke-width="1"></path><text x="481.4364737600185" y="391.23147810159696" title="Marion" class="hint " style="">Marion</text></a><a id="s101" rel="nofollow " title="Union" class="hint   "><path d="M481.7996289303735,485.460122411112L481.5779511155688,509.1266937666355L450.5123679552305,508.6852149540159L454.18626905211613,507.66751509816413L455.05191806887615,503.6230126331384L448.3592128389482,490.82368565539355L448.68400626977655,487.111129485123L451.694450247777,488.47909457554033L452.82233931306587,485.1403221592027Z" stroke="#FFFFFF" stroke-dasharray="1, 0" stroke-width="1"></path><text x="457.7195817505832" y="496.72945602617807" title="Union" class="hint " style="">Union</text></a><a id="s102" rel="nofollow " title="Pope" class="hint   "><path d="M505.22151811321623,485.2146025343927L526.0417805293614,485.160626551306L525.8541977913071,500.76652170346233L521.6375973705935,503.76959975681166L518.7699164105591,513.1150388078181L519.0952376289524,515.1653550874466L523.5481461357956,520.2417764089919L525.2010712343779,524.8188171725778L522.5473764650219,531.7595223980552L520.5976095650974,532.1865646797137L520.581205927552,524.162123981419L505.0708734676009,508.46000813749515Z" stroke="#FFFFFF" stroke-dasharray="1, 0" stroke-width="1"></path><text x="506.5567437225352" y="501.6029316488733" title="Pope" class="hint " style="">Pope</text></a></g></g></svg>