<svg id="map" class="map svg-content-responsive" xmlns:xlink="http://www.w3.org/1999/xlink" preserveAspectRatio="xMinYMin meet" viewBox="0 0 960  540"><g><g id="states"><a id="s01" rel="nofollow " title="Union" class="hint   "><path d="M384.5275689328746,430.90493627872L384.5756562444262,413.70323648767044L438.1066860351916,413.82848173814L438.0346723539915,454.2087135203319L384.55501388629773,453.8252973775634Z" stroke="#FFFFFF" stroke-dasharray="1, 0" stroke-width="1"></path><text x="402.3368470374774" y="433.8879729504202" title="Pottawattamie" class="hint Pottawattamie " style="">Union</text></a><a id="s02" rel="nofollow " title="Adair" class="hint   "><path d="M357.586711279519,365.34605728169663L357.5967978863314,359.56959206764895L411.43535189877457,359.6430416933681L411.43019130924085,413.77053263411017L357.60148933136134,413.6223870585627Z" stroke="#FFFFFF" stroke-dasharray="1, 0" stroke-width="1"></path><text x="375.5195085140987" y="386.64987484437717" title="Adair" class="hint " style="">Adair</text></a><a id="s03" rel="nofollow " title="Clinton" class="hint   "><path d="M803.482054655844,294.4646034750094L803.548673175259,276.318504883051L890.8273782124802,276.39351058285956L892.4881497528754,281.1013256626038L889.6646035619542,288.52836839648717L890.902089474574,296.3423414824056L887.5724536511111,312.01756775215745L876.2355767376616,318.26423142007934L871.8109873090211,324.3123465437793L869.0441779382782,322.48316495096606L860.9418178003216,324.19743305591874L857.7837715788064,319.3704276474973L854.3560845542315,319.5723130613387L853.3666587975381,317.3038572463438L845.8922485767612,316.83676814902356L840.9913305268396,319.55816234621943L839.43271520196,317.7482795194919L836.7224674084987,319.9623932944405L830.5857054517178,318.71757426442673L825.1845620755403,323.4175848235427L816.7036023237124,317.63348017096905L803.548673175259,317.6298631839609Z" stroke="#FFFFFF" stroke-dasharray="1, 0" stroke-width="1"></path><text x="837.5758185352953" y="297.6400350516856" title="Clinton" class="hint " style="">Clinton</text></a><a id="s04" rel="nofollow " title="Hardin" class="hint   "><path d="M498.47432409499334,193.2067277610895L553.8902592124332,193.34843885041937L553.8767713079737,207.03775664372188L556.7166202703706,207.05969941557214L556.8606476327732,248.53271666377623L502.7484650889942,248.5271745576274L502.79631782829165,207.0336224928842L498.51971382565307,207.00611444550123Z" stroke="#FFFFFF" stroke-dasharray="1, 0" stroke-width="1"></path><text x="519.8583121129196" y="220.7828688216657" title="Hardin" class="hint " style="">Hardin</text></a><a id="s05" rel="nofollow " title="Lee" class="hint   "><path d="M707.3254936173098,467.15468468722884L743.6060800351179,467.25370880934315L762.5102577809266,476.93518231571215L767.0519284277266,482.5703565615677L770.5132765703879,483.45076751507077L772.5906484293901,481.24186123966683L778.4423365375837,485.31103564149L777.0942010853232,489.50654453498464L769.6990762855412,494.4311720377391L761.9471670912776,494.3283903064048L749.4211261490104,499.91529525350325L743.9112585342773,508.2919189580216L748.9123389355759,515.6231497394101L746.8883322637835,523.9493070126337L747.5594434752329,532.2931082198093L737.2207887779073,534.7905827270097L734.8032871542773,533.5217499004766L734.3371920906102,530.3775596360374L730.0995270817125,529.3843782561753L730.0434643136123,522.1297893864448L724.219504454164,520.9244623117029L718.7531499920783,514.07614550578L718.9035108052699,509.332191905095L711.6736421566475,507.4463499624235L711.1290826748641,503.1479746371497L707.5621770190414,500.4211921847618Z" stroke="#FFFFFF" stroke-dasharray="1, 0" stroke-width="1"></path><text x="726.4647485943002" y="493.57279759230613" title="Lee" class="hint " style="">Lee</text></a><a id="s06" rel="nofollow " title="Audubon" class="hint   "><path d="M311.54146846372623,316.7565587542831L311.593426217426,303.15435603973856L352.40723868097894,303.308691491583L352.48605495747324,344.2044167138165L357.5831926957476,344.20457356109546L357.5967978863314,359.56959206764895L317.7029777930379,359.48470932154214L317.70555808780364,344.20959267275794L311.63342078630285,344.224806839773Z" stroke="#FFFFFF" stroke-dasharray="1, 0" stroke-width="1"></path><text x="324.51494917225904" y="331.2463114998159" title="Audubon" class="hint " style="">Audubon</text></a><a id="s07" rel="nofollow " title="Carroll" class="hint   "><path d="M311.5672714113871,300.1416637061975L311.829171330151,248.3525174677452L366.02063929492624,248.51229002877608L366.03025675723575,303.2505797470603L311.593426217426,303.15435603973856Z" stroke="#FFFFFF" stroke-dasharray="1, 0" stroke-width="1"></path><text x="329.85323529523873" y="275.84092810936477" title="Carroll" class="hint " style="">Carroll</text></a><a id="s08" rel="nofollow " title="Grundy" class="hint   "><path d="M553.9152411572145,197.80859849131684L553.8902592124332,193.34843885041937L609.3314108469035,193.5006566005386L609.3278922631325,207.22458666799503L611.7105599074189,207.2260176929467L611.7697894009129,234.63074029572908L584.2568100262279,234.6816399370009L584.3303484270614,248.39447978490898L556.8606476327732,248.53271666377623L556.7166202703706,207.05969941557214L553.8767713079737,207.03775664372188Z" stroke="#FFFFFF" stroke-dasharray="1, 0" stroke-width="1"></path><text x="572.5205878875931" y="217.9430894025014" title="Grundy" class="hint " style="">Grundy</text></a><a id="s09" rel="nofollow " title="Linn" class="hint   "><path d="M693.7075188444601,271.17256489602823L694.1540271251283,234.30377130450688L749.0235261827715,234.7189027497634L748.6765938228514,303.67483501428524L694.1200141486665,303.3942049122961Z" stroke="#FFFFFF" stroke-dasharray="1, 0" stroke-width="1"></path><text x="712.3775795803355" y="268.99241034192374" title="Linn" class="hint " style="">Linn</text></a><a id="s10" rel="nofollow " title="Palo Alto" class="hint   "><path d="M332.5920995965953,130.02685314203518L332.6038282091672,81.54120355410669L387.7970369738373,81.54764509697452L387.8185003348449,137.26029647824544L332.5842414261697,136.99976288212292Z" stroke="#FFFFFF" stroke-dasharray="1, 0" stroke-width="1"></path><text x="351.22327317077713" y="109.34038748637617" title="Palo Alto" class="hint " style="">Palo Alto</text></a><a id="s11" rel="nofollow " title="Worth" class="hint   "><path d="M498.69493929750024,56.681399543361294L498.72473585881926,42.103767559270636L554.201344451038,42.08494822765533L554.2253456736548,81.46326055001737L498.6913034276031,81.47453333686008Z" stroke="#FFFFFF" stroke-dasharray="1, 0" stroke-width="1"></path><text x="517.4572161446978" y="61.784756014234304" title="Worth" class="hint " style="">Worth</text></a><a id="s12" rel="nofollow " title="Henry" class="hint   "><path d="M707.3340555044879,464.32566321819195L707.64744403245,412.88661225276246L748.198418288232,413.1297992479613L747.9876551202888,467.2961695648646L707.3254936173098,467.15468468722884Z" stroke="#FFFFFF" stroke-dasharray="1, 0" stroke-width="1"></path><text x="718.7812504133705" y="440.1299114654851" class="hint " style=""></text></a><a id="s13" rel="nofollow " title="Cherokee" class="hint   "><path d="M221.5236632461124,167.20531184279844L221.6917342642896,137.09632284735926L276.95637027952944,136.9682165527738L276.97654349315644,192.56311106386238L221.62464660036858,192.74177381290428Z" stroke="#FFFFFF" stroke-dasharray="1, 0" stroke-width="1"></path><text x="240.27518432053878" y="164.85066833887177" title="Henry" class="hint " style="">Henry</text></a><a id="s14" rel="nofollow " title="Adams" class="hint   "><path d="M330.85849337211766,453.4733674045747L330.9777733619908,413.5564919636381L384.5756562444262,413.70323648767044L384.55501388629773,453.8252973775634Z" stroke="#FFFFFF" stroke-dasharray="1, 0" stroke-width="1"></path><text x="348.76459345591064" y="433.64585861702176" title="Adams" class="hint " style="">Adams</text></a><a id="s15" rel="nofollow " title="Scott" class="hint   "><path d="M803.3808367293336,344.7671691123305L803.548673175259,317.6298631839609L816.7036023237124,317.63348017096905L825.1845620755403,323.4175848235427L830.5857054517178,318.71757426442673L836.7224674084987,319.9623932944405L839.43271520196,317.7482795194919L840.9913305268396,319.55816234621943L845.8922485767612,316.83676814902356L853.3666587975381,317.3038572463438L854.3560845542315,319.5723130613387L857.7837715788064,319.3704276474973L860.9418178003216,324.19743305591874L869.0441779382782,322.48316495096606L871.8109873090211,324.3123465437793L872.1537849898655,329.15203847624616L868.6332073537073,337.1792983422238L868.6594794458729,346.45523861500897L860.496130522532,349.9829032316911L854.795790239607,356.5332608323106L839.5949219138502,358.20950328939216L831.9945463940339,366.14756672901603L816.695392294911,367.5942241753246L816.9850890254752,345.0911923917256Z" stroke="#FFFFFF" stroke-dasharray="1, 0" stroke-width="1"></path><text x="826.9862886108638" y="338.50977189891563" title="Scott" class="hint " style="">Scott</text></a><a id="s16" rel="nofollow " title="Appanoose" class="hint   "><path d="M545.6077475853485,454.0447044020284L599.3866029597907,453.9208812123079L599.5265253077896,501.6069792510589L545.6455137178332,502.6632144436844Z" stroke="#FFFFFF" stroke-dasharray="1, 0" stroke-width="1"></path><text x="563.4548550362449" y="478.0676389720989" title="Appanoose" class="hint " style="">Appanoose</text></a><a id="s17" rel="nofollow " title="Bremer" class="hint   "><path d="M609.2728850701619,170.09366616610077L609.3418493120948,137.41417940993688L664.7763156373976,137.4300319377744L664.7654080277043,179.76587650874262L609.3088919107631,179.72474018319917Z" stroke="#FFFFFF" stroke-dasharray="1, 0" stroke-width="1"></path><text x="628.0399968653642" y="158.58661188972837" title="Bremer" class="hint " style="">Bremer</text></a><a id="s18" rel="nofollow " title="Calhoun" class="hint   "><path d="M332.4927582480964,193.30911024510715L387.81029030604395,193.02472954346104L387.8092347309125,206.62401503422734L393.1295679664581,206.6364179920547L393.1465744546899,248.54950130937505L339.0910411096406,248.46541945280478L339.293125104281,206.5257448988723L332.51422160910715,206.49489614493268Z" stroke="#FFFFFF" stroke-dasharray="1, 0" stroke-width="1"></path><text x="355.71424370268204" y="220.723860030406" title="Calhoun" class="hint " style="">Calhoun</text></a><a id="s19" rel="nofollow " title="Johnson" class="hint   "><path d="M693.7950142942573,330.8317224139546L694.1200141486665,303.3942049122961L748.6932484527056,303.67499249250704L748.4068357336619,372.24235194938865L734.8633376506536,372.13755393341853L731.1250769651315,365.2424402310062L732.8250220715213,362.14001251686204L730.6606239072253,358.49488019933597L694.3719447467429,358.4248680566443Z" stroke="#FFFFFF" stroke-dasharray="1, 0" stroke-width="1"></path><text x="713.5857274050667" y="333.28990500639543" title="Johnson" class="hint " style="">Johnson</text></a><a id="s20" rel="nofollow " title="Lucas" class="hint   "><path d="M491.66340148749305,413.12606035017507L545.4202070703,413.1889982804523L545.6104451662391,453.98837900092894L491.78256419124,454.01258499629967Z" stroke="#FFFFFF" stroke-dasharray="1, 0" stroke-width="1"></path><text x="509.60960433770276" y="433.58352022559626" title="Lucas" class="hint " style="">Lucas</text></a><a id="s21" rel="nofollow " title="Marshall" class="hint   "><path d="M529.8653692170747,302.67983845097297L529.8792089799122,248.5930462491915L584.3303484270614,248.39447978490898L584.5020553151376,303.3119986539514Z" stroke="#FFFFFF" stroke-dasharray="1, 0" stroke-width="1"></path><text x="548.2134868706589" y="275.7604662008663" title="Marshall" class="hint " style="">Marshall</text></a><a id="s22" rel="nofollow " title="Mitchell" class="hint   "><path d="M554.201344451038,42.08494822765533L609.468865303641,41.967260406560854L609.3219106707174,88.34127854148574L554.2313272660672,88.341439468526Z" stroke="#FFFFFF" stroke-dasharray="1, 0" stroke-width="1"></path><text x="572.8175270574714" y="65.17135335607927" title="Mitchell" class="hint " style="">Mitchell</text></a><a id="s23" rel="nofollow " title="Monroe" class="hint   "><path d="M545.4202070703,413.1889982804523L599.2376495801077,413.12185408852747L599.3866029597907,453.9208812123079L545.6104451662391,453.98837900092894Z" stroke="#FFFFFF" stroke-dasharray="1, 0" stroke-width="1"></path><text x="563.4136708183783" y="433.55241913218003" title="Monroe" class="hint " style="">Monroe</text></a><a id="s24" rel="nofollow " title="Clay" class="hint   "><path d="M276.9041779535787,120.83434853713061L276.96856803660785,81.51431006690473L332.6038282091672,81.54120355410669L332.5842414261697,136.99976288212292L276.95637027952944,136.9682165527738Z" stroke="#FFFFFF" stroke-dasharray="1, 0" stroke-width="1"></path><text x="295.7647037994516" y="109.25718769620009" title="Clay" class="hint " style="">Clay</text></a><a id="s25" rel="nofollow " title="Dallas" class="hint   "><path d="M406.84911252419533,314.5491346137642L406.8908663849579,303.2134132522342L461.3842288373726,303.1472691509607L461.5530035723027,344.4756020292125L464.3268204459123,344.48046416347097L464.3291661684275,358.3529758902632L411.43535189877457,359.6430416933681L411.463148710573,344.39482752155345L406.9240583585406,344.34134346369865Z" stroke="#FFFFFF" stroke-dasharray="1, 0" stroke-width="1"></path><text x="426.0290719842553" y="330.92412662218806" title="Dallas" class="hint " style="">Dallas</text></a><a id="s26" rel="nofollow " title="Ringgold" class="hint   "><path d="M384.4548515349202,469.5506768361993L384.55501388629773,453.8252973775634L438.0346723539915,454.2087135203319L437.95386221336184,504.2228905285265L384.5041117077276,504.6998573175306Z" stroke="#FFFFFF" stroke-dasharray="1, 0" stroke-width="1"></path><text x="402.16469477780015" y="479.23426098635747" title="Ringgold" class="hint " style="">Ringgold</text></a><a id="s27" rel="nofollow " title="Shelby" class="hint   "><path d="M257.0451738581687,341.9014797783957L257.1238728485355,303.1425445556715L311.593426217426,303.15435603973856L311.63342078630285,344.224806839773L317.70555808780364,344.20959267275794L317.7029777930379,359.48470932154214L264.07659438204973,359.2679575358634L264.1005207516987,344.1812032896423L257.0223030636498,344.1733609045805Z" stroke="#FFFFFF" stroke-dasharray="1, 0" stroke-width="1"></path><text x="277.1097953314686" y="331.1737662200924" title="Shelby" class="hint " style="">Shelby</text></a><a id="s28" rel="nofollow " title="Story" class="hint   "><path d="M475.1076438372579,275.0183696519007L475.1455272558687,248.52131575636122L529.8451960034508,248.5735698086355L529.8632580668123,303.2587689562888L475.1875156888823,303.1549859851648Z" stroke="#FFFFFF" stroke-dasharray="1, 0" stroke-width="1"></path><text x="493.50011227370845" y="275.87500599378654" title="Story" class="hint " style="">Story</text></a><a id="s29" rel="nofollow " title="Winnebago" class="hint   "><path d="M443.2003051896954,42.079637902382274L498.72473585881926,42.103767559270636L498.6913034276031,81.47453333686008L443.2407689030724,81.49224769000739Z" stroke="#FFFFFF" stroke-dasharray="1, 0" stroke-width="1"></path><text x="461.95936663560406" y="61.78317486164154" title="Winnebago" class="hint " style="">Winnebago</text></a><a id="s30" rel="nofollow " title="Jackson" class="hint   "><path d="M803.5440990163565,254.5518481263971L803.5900751776439,234.9106058312027L830.8554635409059,234.995753165952L830.916686898538,221.11904621015947L853.3437683396492,221.22968272814796L860.0615854266885,230.172764576565L858.37864680853,237.60674418988856L863.0438197457265,245.9662346130035L881.3626224379968,255.47155848802777L885.7698831847038,261.3669649876638L889.2660653067101,262.2664417529413L890.8273782124802,276.39351058285956L803.548673175259,276.318504883051Z" stroke="#FFFFFF" stroke-dasharray="1, 0" stroke-width="1"></path><text x="832.6815731377866" y="254.4422351413012" title="Jackson" class="hint " style="">Jackson</text></a><a id="s31" rel="nofollow " title="O'Brien" class="hint   "><path d="M221.35219093028854,88.01201629258685L221.39417936330165,81.13666618506795L276.96856803660785,81.51431006690473L276.95637027952944,136.9682165527738L221.6917342642896,137.09632284735926Z" stroke="#FFFFFF" stroke-dasharray="1, 0" stroke-width="1"></path><text x="240.19104854624624" y="109.14791617692372" title="O'Brien" class="hint " style="">O'Brien</text></a><a id="s32" rel="nofollow " title="Delaware" class="hint   "><path d="M720.1963557692361,193.4065557352351L720.4296378733197,179.46021996815125L776.0576263060861,179.16188882675397L776.3727741259336,234.82736052831024L721.6116474484688,234.724769648039Z" stroke="#FFFFFF" stroke-dasharray="1, 0" stroke-width="1"></path><text x="739.5168125995508" y="206.9492565343166" title="Delaware" class="hint " style="">Delaware</text></a><a id="s33" rel="nofollow " title="Greene" class="hint   "><path d="M365.9574220731565,289.42304851269273L366.04644224258845,248.48489610395063L420.45336482033554,248.42931629183568L420.5197487675023,303.1748292459624L366.03025675723575,303.2505797470603Z" stroke="#FFFFFF" stroke-dasharray="1, 0" stroke-width="1"></path><text x="384.2415549717253" y="275.8450360743057" title="Greene" class="hint " style="">Greene</text></a><a id="s34" rel="nofollow " title="Hamilton" class="hint   "><path d="M443.1038959943412,205.77882835045693L443.1037787082164,193.13682682772378L498.47432409499334,193.2067277610895L498.51971382565307,207.00611444550123L502.79631782829165,207.0336224928842L502.7484650889942,248.5271745576274L447.79557559595423,248.43121646145028L447.7833778388772,206.8413825823618Z" stroke="#FFFFFF" stroke-dasharray="1, 0" stroke-width="1"></path><text x="465.1868698318275" y="220.79973670785688" title="Hamilton" class="hint " style="">Hamilton</text></a><a id="s35" rel="nofollow " title="Winneshiek" class="hint   "><path d="M664.8199460761698,96.39993212083846L664.9834467056658,41.91118669287698L719.9871655753241,41.93007094333643L720.6351231656081,109.42582310729995L664.8258103824573,109.24259721647377Z" stroke="#FFFFFF" stroke-dasharray="1, 0" stroke-width="1"></path><text x="683.6103566730582" y="75.71126526703536" title="Winneshiek" class="hint " style="">Winneshiek</text></a><a id="s36" rel="nofollow " title="Wright" class="hint   "><path d="M443.08841422574415,179.34318466257446L443.1442424215934,137.31009652411922L498.5761284521318,137.18999952281047L498.47432409499334,193.2067277610895L443.1037787082164,193.13682682772378Z" stroke="#FFFFFF" stroke-dasharray="1, 0" stroke-width="1"></path><text x="461.83397381847504" y="165.20684541739936" title="Wright" class="hint " style="">Wright</text></a><a id="s37" rel="nofollow " title="Warren" class="hint   "><path d="M464.32517844015183,365.6960309185042L464.3291661684275,358.3529758902632L507.8065465473983,358.3653495238459L507.7219832507458,361.3001368466439L510.54963445606563,360.19742042793587L509.5491838035555,362.2464794847656L518.5393999133198,361.6408554198324L518.6005059848258,413.22140181603754L464.4952433224653,413.00703805508965Z" stroke="#FFFFFF" stroke-dasharray="1, 0" stroke-width="1"></path><text x="482.23240059917583" y="386.0416212741751" title="Warren" class="hint " style="">Warren</text></a><a id="s38" rel="nofollow " title="Wayne" class="hint   "><path d="M491.7342423074374,467.3380102838073L491.78256419124,454.01258499629967L545.6104451662391,453.98837900092894L545.6455137178332,502.6632144436844L491.7404584721021,503.24680794720916Z" stroke="#FFFFFF" stroke-dasharray="1, 0" stroke-width="1"></path><text x="509.6342255119015" y="478.48263069260753" title="Wayne" class="hint " style="">Wayne</text></a><a id="s39" rel="nofollow " title="Webster" class="hint   "><path d="M387.76173384999083,183.8367318288938L387.8033704246254,179.27031593420543L443.08841422574415,179.34318466257446L443.10190213020496,206.83009294364092L447.7833778388772,206.8413825823618L447.79557559595423,248.43121646145028L393.1424694402908,248.55520174864705L393.1295679664581,206.6364179920547L387.8092347309125,206.62401503422734Z" stroke="#FFFFFF" stroke-dasharray="1, 0" stroke-width="1"></path><text x="409.4449473348152" y="213.8025533221397" title="Webster" class="hint " style="">Webster</text></a><a id="s40" rel="nofollow " title="Tama" class="hint   "><path d="M584.2568100262279,234.6816399370009L639.2989542609507,234.5473340921044L639.3726099479118,303.2480599890314L584.5020553151376,303.3119986539514Z" stroke="#FFFFFF" stroke-dasharray="1, 0" stroke-width="1"></path><text x="602.8622383872604" y="268.9293666630722" title="Tama" class="hint " style="">Tama</text></a><a id="s41" rel="nofollow " title="Guthrie" class="hint   "><path d="M352.40723868097894,303.308691491583L406.8908663849579,303.2134132522342L406.9240583585406,344.34134346369865L411.463148710573,344.39482752155345L411.43535189877457,359.6430416933681L357.5967978863314,359.56959206764895L357.5831926957476,344.20457356109546L352.48605495747324,344.2044167138165Z" stroke="#FFFFFF" stroke-dasharray="1, 0" stroke-width="1"></path><text x="371.99673040404946" y="331.36620250524004" title="Guthrie" class="hint " style="">Guthrie</text></a><a id="s42" rel="nofollow " title="Hancock" class="hint   "><path d="M443.1380262569305,125.87030182694707L443.2407689030724,81.49224769000739L498.6913034276031,81.47453333686008L498.5761284521318,137.18999952281047L443.1442424215934,137.31009652411922Z" stroke="#FFFFFF" stroke-dasharray="1, 0" stroke-width="1"></path><text x="461.8981232511705" y="109.36644688943677" title="Hancock" class="hint " style="">Hancock</text></a><a id="s43" rel="nofollow " title="Howard" class="hint   "><path d="M609.3167500811869,74.29371974831247L609.468865303641,41.967260406560854L664.9834467056658,41.91118669287698L664.8457490238306,88.31971429431451L609.3219106707174,88.34127854148574Z" stroke="#FFFFFF" stroke-dasharray="1, 0" stroke-width="1"></path><text x="628.1460111186577" y="65.13687973070559" title="Howard" class="hint " style="">Howard</text></a><a id="s44" rel="nofollow " title="Sioux" class="hint   "><path d="M138.20547610267568,84.13245579730301L140.10891263721442,80.74483521971706L221.39417936330165,81.13666618506795L221.6917342642896,137.09632284735926L142.17445338905645,137.14527554926644L141.73531934276798,134.63014470712278L146.5194204114573,129.03936408544723L144.11915984831148,125.67423563378452L147.53253796554873,120.97228824203012L144.39384395478055,115.7804136858058L151.1472963606725,112.2548730966837L150.9121376785738,107.85745323472202L153.99277505710415,103.13075689079233L150.48029016362216,98.39921472708374L149.42072730374002,87.01498918119978L139.46677109882148,86.50557303400728Z" stroke="#FFFFFF" stroke-dasharray="1, 0" stroke-width="1"></path><text x="175.21597925856668" y="109.19245024095937" title="Sioux" class="hint " style="">Sioux</text></a><a id="s45" rel="nofollow " title="Taylor" class="hint   "><path d="M330.8514562045757,467.1466263442462L330.8754998603508,453.646695976091L384.55501388629773,453.8252973775634L384.5041117077276,504.6998573175306L332.4662515836817,504.0446978686223L332.6740825984821,480.51339858753545L330.8672898315499,480.49575513092714Z" stroke="#FFFFFF" stroke-dasharray="1, 0" stroke-width="1"></path><text x="349.13030212114927" y="478.8505709731122" title="Taylor" class="hint " style="">Taylor</text></a><a id="s46" rel="nofollow " title="Iowa" class="hint   "><path d="M639.1632542134771,329.6199717602567L639.3726099479118,303.2480599890314L694.1200141486665,303.3942049122961L694.3719447467429,358.4248680566443L639.4511916521542,358.6859623343471Z" stroke="#FFFFFF" stroke-dasharray="1, 0" stroke-width="1"></path><text x="657.7334254168695" y="330.951982525959" title="Iowa" class="hint " style="">Iowa</text></a><a id="s47" rel="nofollow " title="Jasper" class="hint   "><path d="M516.1723313237553,341.538916719348L516.2492710222364,303.19687726765187L584.5020553151376,303.3119986539514L585.6152179344786,358.8419578664907L518.5151216852923,358.9938789193884L518.5072635148667,344.3670660370617L516.1615410001882,344.39043587935794Z" stroke="#FFFFFF" stroke-dasharray="1, 0" stroke-width="1"></path><text x="541.9005837177011" y="330.98381867532606" title="Jasper" class="hint " style="">Jasper</text></a><a id="s48" rel="nofollow " title="Jefferson" class="hint   "><path d="M653.2346571484154,412.90935772656303L707.64744403245,412.88661225276246L707.3966862956299,453.57935111338884L653.3404492338263,453.7914704175946Z" stroke="#FFFFFF" stroke-dasharray="1, 0" stroke-width="1"></path><text x="671.3837793036242" y="433.26937684961274" title="Jefferson" class="hint " style="">Jefferson</text></a><a id="s49" rel="nofollow " title="Jones" class="hint   "><path d="M748.7169402501036,289.9111226391424L749.0235261827715,234.7189027497634L803.5900751776439,234.9106058312027L803.5356544153046,290.09483422534686Z" stroke="#FFFFFF" stroke-dasharray="1, 0" stroke-width="1"></path><text x="767.2157482203677" y="262.4300655937624" title="Jones" class="hint " style="">Jones</text></a><a id="s50" rel="nofollow " title="Kossuth" class="hint   "><path d="M387.7970369738373,81.54764509697452L387.83094935568806,41.921476738533784L443.2003051896954,42.079637902382274L443.1442424215934,137.31009652411922L387.8185003348449,137.26029647824544Z" stroke="#FFFFFF" stroke-dasharray="1, 0" stroke-width="1"></path><text x="406.48607249558717" y="89.6358963356996" title="Kossuth" class="hint " style="">Kossuth</text></a><a id="s51" rel="nofollow " title="Des Moines" class="hint   "><path d="M743.6060800351179,467.25370880934315L747.9876551202888,467.2961695648646L748.1500964044308,426.69532182782314L797.5659079015686,426.9132880783818L798.402157978052,432.82492091724725L795.9786747620087,449.8747028747157L790.5107955802896,453.6603511017447L780.7224473849042,465.9869339372217L778.4423365375837,485.31103564149L772.5906484293901,481.24186123966683L770.5132765703879,483.45076751507077L767.0519284277266,482.5703565615677L762.5102577809266,476.93518231571215Z" stroke="#FFFFFF" stroke-dasharray="1, 0" stroke-width="1"></path><text x="761.316358740383" y="450.11231507436855" title="Des Moines" class="hint " style="">Des Moines</text></a><a id="s52" rel="nofollow " title="Sac" class="hint   "><path d="M276.97654349315644,192.56311106386238L332.5144561813581,192.79129562831167L332.51422160910715,206.49489614493268L339.293125104281,206.5257448988723L339.0910411096406,248.46541945280478L284.5430233226343,248.26906735534067L284.67672950597307,206.40791486502803L277.04281015419565,206.3950345743142Z" stroke="#FFFFFF" stroke-dasharray="1, 0" stroke-width="1"></path><text x="301.11003694707733" y="220.43503802626626" title="Sac" class="hint " style="">Sac</text></a><a id="s53" rel="nofollow " title="Montgomery" class="hint   "><path d="M277.35971726593016,452.39081225767404L277.40592799946853,413.3223506330369L330.9777733619908,413.5564919636381L330.8754998603508,453.646695976091Z" stroke="#FFFFFF" stroke-dasharray="1, 0" stroke-width="1"></path><text x="295.270007155331" y="433.22735630286223" title="Montgomery" class="hint " style="">Montgomery</text></a><a id="s54" rel="nofollow " title="Crawford" class="hint   "><path d="M243.59855411501485,302.53683307995925L243.8066197020662,248.19369246182032L311.829171330151,248.3525174677452L311.593426217426,303.15435603973856Z" stroke="#FFFFFF" stroke-dasharray="1, 0" stroke-width="1"></path><text x="268.75460127667117" y="275.5578955908728" title="Crawford" class="hint " style="">Crawford</text></a><a id="s55" rel="nofollow " title="Clayton" class="hint   "><path d="M720.26965959782,152.5077095099159L720.6351231656081,109.42582310729995L770.8435543004548,109.65159895985016L774.5570676134448,137.2751884797135L779.8343568408472,141.26191390968324L784.0431694628137,162.394040874864L794.2406116647567,171.03094333559784L803.7216861125935,174.4699775724348L803.6610332837131,179.1826176301065L720.4296378733197,179.46021996815125Z" stroke="#FFFFFF" stroke-dasharray="1, 0" stroke-width="1"></path><text x="742.5225113049867" y="147.38502983870063" title="Clayton" class="hint " style="">Clayton</text></a><a id="s56" rel="nofollow " title="Decatur" class="hint   "><path d="M437.9639488201733,496.51193418005914L438.0346723539915,454.2087135203319L491.78256419124,454.01258499629967L491.7404584721021,503.24680794720916L437.95386221336184,504.2228905285265Z" stroke="#FFFFFF" stroke-dasharray="1, 0" stroke-width="1"></path><text x="455.80690386292446" y="478.926553711859" title="Decatur" class="hint " style="">Decatur</text></a><a id="s57" rel="nofollow " title="Monona" class="hint   "><path d="M162.99084933729227,248.33034862533805L243.8066197020662,248.19369246182032L243.57802904301252,303.1901053804131L188.8947210969868,302.6933816438677L186.19966246979266,296.5095462463023L189.16055071394794,294.1023806786279L188.24102748819223,290.8361118545854L190.00946769200982,286.08426983231493L183.35230719534593,285.178090896331L182.37988792688566,280.24741761123096L176.9663122213815,281.7170098728884L179.17269881868924,276.9485353407799L172.88065003143583,273.4081666920547L173.6603681953161,263.67131729487846L165.0404243844946,256.2532142213822Z" stroke="#FFFFFF" stroke-dasharray="1, 0" stroke-width="1"></path><text x="201.05560258655856" y="273.52657094809985" title="Monona" class="hint " style="">Monona</text></a><a id="s58" rel="nofollow " title="Fremont" class="hint   "><path d="M218.2529050577691,479.1193175935032L224.52360777013655,472.4831209810445L222.95689970258172,459.7884277251778L227.23866429475402,456.19337300292955L227.0774256613381,453.4853006389276L277.33379703214314,453.5075057611639L278.6287507853099,503.20567317886616L232.6851974015899,502.4788173685538L234.68128997545773,499.67585447665624L231.4412607520544,492.85981347369216L223.63586908445632,488.21621412549666Z" stroke="#FFFFFF" stroke-dasharray="1, 0" stroke-width="1"></path><text x="242.57010255032972" y="477.6044015270618" title="Fremont" class="hint " style="">Fremont</text></a><a id="s59" rel="nofollow " title="Butler" class="hint   "><path d="M553.8989383857356,192.45339589396917L554.107942261795,137.34420380606298L609.3418493120948,137.41417940993688L609.3314108469035,193.5006566005386Z" stroke="#FFFFFF" stroke-dasharray="1, 0" stroke-width="1"></path><text x="572.7508869736707" y="165.19571291751765" title="Butler" class="hint " style="">Butler</text></a><a id="s60" rel="nofollow " title="Cass" class="hint   "><path d="M304.2379441281428,405.1043737534601L304.3379891933937,359.40311472055237L357.5967978863314,359.56959206764895L357.60148933136134,413.6223870585627L304.2055731574401,413.44308286123396Z" stroke="#FFFFFF" stroke-dasharray="1, 0" stroke-width="1"></path><text x="321.93945276587743" y="386.5204423440404" title="Cass" class="hint " style="">Cass</text></a><a id="s61" rel="nofollow " title="Louisa" class="hint   "><path d="M734.6492904711872,403.8688685156494L734.8633376506536,372.13755393341853L748.4068357336619,372.24235194938865L748.3117166856928,385.8592434043567L783.1916059512359,386.24517085742264L778.2999024578689,400.6351714340317L786.7576395568021,412.36781474183863L792.8416227570024,413.9914228864991L797.8891484640894,423.1910439180356L797.5659079015686,426.9132880783818L748.1500964044308,426.69532182782314L748.198418288232,413.1297992479613L734.6613709421395,412.94939586898363Z" stroke="#FFFFFF" stroke-dasharray="1, 0" stroke-width="1"></path><text x="752.0315947876369" y="404.1986285522369" title="Louisa" class="hint " style="">Louisa</text></a><a id="s62" rel="nofollow " title="Marion" class="hint   "><path d="M518.5151216852923,358.9938789193884L572.1375173680062,358.8845586388052L572.3310394754672,413.157996724668L518.6005059848258,413.22140181603754Z" stroke="#FFFFFF" stroke-dasharray="1, 0" stroke-width="1"></path><text x="536.39986962541" y="386.07355078491975" title="Marion" class="hint " style="">Marion</text></a><a id="s63" rel="nofollow " title="Dubuque" class="hint   "><path d="M775.8614066177333,193.05418704890326L776.0576263060861,179.16188882675397L803.6610332837131,179.1826176301065L803.7216861125935,174.4699775724348L824.4448384805369,179.97283109356886L833.3916587237777,195.96081530453466L834.2126616039168,200.2894899677267L832.2070688538643,205.80904322266542L853.3437683396492,221.22968272814796L830.916686898538,221.11904621015947L830.8554635409059,234.995753165952L776.3727741259336,234.82736052831024Z" stroke="#FFFFFF" stroke-dasharray="1, 0" stroke-width="1"></path><text x="796.4593555044191" y="207.35989078870296" title="Dubuque" class="hint " style="">Dubuque</text></a><a id="s64" rel="nofollow " title="Floyd" class="hint   "><path d="M554.1154485738421,135.61771491736272L554.2313272660672,88.341439468526L609.3219106707174,88.34127854148574L609.3418493120948,137.41417940993688L554.107942261795,137.34420380606298Z" stroke="#FFFFFF" stroke-dasharray="1, 0" stroke-width="1"></path><text x="572.7581022823834" y="112.87068609028215" title="Floyd" class="hint " style="">Floyd</text></a><a id="s65" rel="nofollow " title="Muscatine" class="hint   "><path d="M748.3866625200362,375.6136121441323L748.6499698723087,344.8023008888831L816.9850890254752,345.0911923917256L816.695392294911,367.5942241753246L808.7994557382449,367.43445095751304L799.8373882986593,372.5198268476779L793.9966565232294,370.49927959209435L787.2742849406591,372.7367650198512L783.1916059512359,386.24517085742264L748.3117166856928,385.8592434043567Z" stroke="#FFFFFF" stroke-dasharray="1, 0" stroke-width="1"></path><text x="769.4129524350074" y="362.7741568513331" title="Muscatine" class="hint " style="">Muscatine</text></a><a id="s66" rel="nofollow " title="Osceola" class="hint   "><path d="M221.46935976989744,75.30009810123283L221.50774708445715,42.021267848707794L277.00268743970855,41.97693825474107L276.96856803660785,81.51431006690473L221.39417936330165,81.13666618506795Z" stroke="#FFFFFF" stroke-dasharray="1, 0" stroke-width="1"></path><text x="240.28242634232845" y="61.6648392693031" title="Osceola" class="hint " style="">Osceola</text></a><a id="s67" rel="nofollow " title="Polk" class="hint   "><path d="M461.3842288373726,303.1472691509607L516.2492710222364,303.19687726765187L516.1615410001882,344.39043587935794L518.5072635148667,344.3670660370617L518.5393999133198,361.6408554198324L509.5491838035555,362.2464794847656L510.54963445606563,360.19742042793587L507.7219832507458,361.3001368466439L507.8065465473983,358.3653495238459L464.3291661684275,358.3529758902632L464.3268204459123,344.48046416347097L461.5530035723027,344.4756020292125Z" stroke="#FFFFFF" stroke-dasharray="1, 0" stroke-width="1"></path><text x="480.7630040641295" y="331.0494907549784" title="Polk" class="hint " style="">Polk</text></a><a id="s68" rel="nofollow " title="Poweshiek" class="hint   "><path d="M584.4398936684975,340.8887494701203L584.5020553151376,303.3119986539514L639.3726099479118,303.2480599890314L639.4511916521542,358.6859623343471L585.6152179344786,358.8419578664907Z" stroke="#FFFFFF" stroke-dasharray="1, 0" stroke-width="1"></path><text x="603.0226638916338" y="330.95952273469055" title="Poweshiek" class="hint " style="">Poweshiek</text></a><a id="s69" rel="nofollow " title="Allamakee" class="hint   "><path d="M719.9647156709116,62.29817543186073L719.9871655753241,41.93007094333643L766.0953427862373,41.926840208502654L764.2585247711177,49.261988491515694L768.1299052093459,56.12099762208163L767.3955767761254,65.83218605271759L779.0518238099503,72.10124583334618L784.8371965340316,81.71608994110011L771.074490682025,100.90935818602884L770.8435543004548,109.65159895985016L720.6351231656081,109.42582310729995Z" stroke="#FFFFFF" stroke-dasharray="1, 0" stroke-width="1"></path><text x="738.0683474260984" y="76.8480419295034" title="Allamakee" class="hint " style="">Allamakee</text></a><a id="s70" rel="nofollow " title="Black Hawk" class="hint   "><path d="M609.308774624637,181.3828135253152L609.3088919107631,179.72474018319917L664.7654080277043,179.76587650874262L666.7469571219804,234.58983011560576L611.7697894009129,234.63074029572908L611.7105599074189,207.2260176929467L609.3278922631325,207.22458666799503Z" stroke="#FFFFFF" stroke-dasharray="1, 0" stroke-width="1"></path><text x="629.1243262248861" y="207.03952136214733" title="Black Hawk" class="hint " style="">Black Hawk</text></a><a id="s71" rel="nofollow " title="Buchanan" class="hint   "><path d="M664.681079303301,193.64968761971068L664.7654080277043,179.76587650874262L720.4296378733197,179.46021996815125L721.6116474484688,234.724769648039L666.7469571219804,234.58983011560576L666.8148657887805,207.44400809057606L664.790624544737,207.44861906857295Z" stroke="#FFFFFF" stroke-dasharray="1, 0" stroke-width="1"></path><text x="684.4112080709108" y="206.97841853711324" title="Buchanan" class="hint " style="">Buchanan</text></a><a id="s72" rel="nofollow " title="Buena Vista" class="hint   "><path d="M276.95601842115366,178.8504732056681L276.95637027952944,136.9682165527738L332.5842414261697,136.99976288212292L332.5144561813581,192.79129562831167L276.97654349315644,192.56311106386238Z" stroke="#FFFFFF" stroke-dasharray="1, 0" stroke-width="1"></path><text x="295.7703950241789" y="164.8237781150757" title="Buena Vista" class="hint " style="">Buena Vista</text></a><a id="s73" rel="nofollow " title="Chickasaw" class="hint   "><path d="M609.3189785175759,91.84049603118274L609.3219106707174,88.34127854148574L664.8457490238306,88.31971429431451L664.7763156373976,137.4300319377744L609.3418493120948,137.41417940993688Z" stroke="#FFFFFF" stroke-dasharray="1, 0" stroke-width="1"></path><text x="628.0738944935272" y="112.8694373361216" title="Chickasaw" class="hint " style="">Chickasaw</text></a><a id="s74" rel="nofollow " title="Plymouth" class="hint   "><path d="M130.17020362864014,164.604833121095L132.54055622972328,161.77461749168924L131.05712131143991,159.2072230065287L135.38017061987057,155.67255121602375L136.9845275337857,148.55127197974525L140.74835659471546,148.2918358071829L140.73123282035795,143.3100440842809L143.46423412221202,139.85741005195632L142.17445338905645,137.14527554926644L221.6917342642896,137.09632284735926L221.62464660036858,192.74177381290428L146.6990694471183,192.67437013993458L148.22147666811134,190.45155807366518L145.44507949973558,184.44059439269495L142.8488338204861,184.0552358266059L144.63932381594122,181.618588182424L141.58660053533686,176.7870379024489L137.33908349188005,174.97777000416863L137.72401655653948,173.2889496651651L131.23598265318424,169.5843745314196L131.92949551465017,166.45287659789847Z" stroke="#FFFFFF" stroke-dasharray="1, 0" stroke-width="1"></path><text x="171.09472871805258" y="164.53254656141124" title="Plymouth" class="hint " style="">Plymouth</text></a><a id="s75" rel="nofollow " title="Davis" class="hint   "><path d="M599.3866029597907,453.9208812123079L653.3404492338263,453.7914704175946L653.2574106568081,500.1124049134005L599.5265253077896,501.6069792510589Z" stroke="#FFFFFF" stroke-dasharray="1, 0" stroke-width="1"></path><text x="617.2471016355141" y="477.34374418937284" title="Davis" class="hint " style="">Davis</text></a><a id="s76" rel="nofollow " title="Benton" class="hint   "><path d="M639.2488730852629,254.6762323422854L639.2989542609507,234.5473340921044L694.1540271251283,234.30377130450688L694.1200141486665,303.3942049122961L639.3726099479118,303.2480599890314Z" stroke="#FFFFFF" stroke-dasharray="1, 0" stroke-width="1"></path><text x="657.744334848512" y="268.858962405569" title="Benton" class="hint " style="">Benton</text></a><a id="s77" rel="nofollow " title="Mahaska" class="hint   "><path d="M572.1375173680062,358.8845586388052L626.0218129694827,358.723865083959L626.2284711230254,413.0215264452863L572.3310394754672,413.157996724668Z" stroke="#FFFFFF" stroke-dasharray="1, 0" stroke-width="1"></path><text x="590.1817211763686" y="385.94807637165263" title="Mahaska" class="hint " style="">Mahaska</text></a><a id="s78" rel="nofollow " title="Boone" class="hint   "><path d="M420.42908659230943,257.6587751643674L420.45336482033554,248.42931629183568L475.1455272558687,248.52131575636122L475.1875156888823,303.1549859851648L420.5197487675023,303.1748292459624Z" stroke="#FFFFFF" stroke-dasharray="1, 0" stroke-width="1"></path><text x="438.80834304337367" y="275.8161134919808" title="Boone" class="hint " style="">Boone</text></a><a id="s79" rel="nofollow " title="Fayette" class="hint   "><path d="M664.7476978227187,148.11636864121192L664.8258103824573,109.24259721647377L720.6351231656081,109.42582310729995L720.4296378733197,179.46021996815125L664.7654080277043,179.76587650874262Z" stroke="#FFFFFF" stroke-dasharray="1, 0" stroke-width="1"></path><text x="683.6204707419728" y="144.45882691589458" title="Fayette" class="hint " style="">Fayette</text></a><a id="s80" rel="nofollow " title="Ida" class="hint   "><path d="M235.521645066342,198.7042733055432L235.5040521474807,192.63588228617027L276.97654349315644,192.56311106386238L277.04281015419565,206.3950345743142L284.67672950597307,206.40791486502803L284.5430233226343,248.26906735534067L243.8066197020662,248.19369246182032L243.9892341998352,206.422544310808L235.4794220610779,206.387560817735Z" stroke="#FFFFFF" stroke-dasharray="1, 0" stroke-width="1"></path><text x="253.25018378921254" y="220.31863335210085" title="Ida" class="hint " style="">Ida</text></a><a id="s81" rel="nofollow " title="Lyon" class="hint   "><path d="M134.4914936451828,49.950416359843985L137.0557202121072,45.025336343715026L134.952662691569,41.94187754796985L221.50774708445715,42.021267848707794L221.39417936330165,81.13666618506795L139.02988028046093,80.70618273475975L136.56042090312985,79.31475286393925L136.17666069972984,74.89046865690489L142.9909846048754,74.29500901008214L144.0254482338496,60.48921551605508Z" stroke="#FFFFFF" stroke-dasharray="1, 0" stroke-width="1"></path><text x="171.56114108637107" y="61.259373886882244" title="Lyon" class="hint " style="">Lyon</text></a><a id="s82" rel="nofollow " title="Madison" class="hint   "><path d="M411.42069113305615,372.35528233230616L411.43535189877457,359.6430416933681L464.3291661684275,358.3529758902632L464.4952433224653,413.00703805508965L411.43019130924085,413.77053263411017Z" stroke="#FFFFFF" stroke-dasharray="1, 0" stroke-width="1"></path><text x="428.96216885999655" y="386.2066053347732" title="Madison" class="hint " style="">Madison</text></a><a id="s83" rel="nofollow " title="Pocahontas" class="hint   "><path d="M332.4115962490887,176.06116922630554L332.5842414261697,136.99976288212292L387.8185003348449,137.26029647824544L387.81029030604395,193.02472954346104L332.5144561813581,192.79129562831167Z" stroke="#FFFFFF" stroke-dasharray="1, 0" stroke-width="1"></path><text x="351.14863997456507" y="165.02820894422322" title="Pocahontas" class="hint " style="">Pocahontas</text></a><a id="s84" rel="nofollow " title="Wapello" class="hint   "><path d="M599.2376495801077,413.12185408852747L653.2346571484154,412.90935772656303L653.3404492338263,453.7914704175946L599.3866029597907,453.9208812123079Z" stroke="#FFFFFF" stroke-dasharray="1, 0" stroke-width="1"></path><text x="617.3089666262792" y="433.43312411148247" title="Wapello" class="hint " style="">Wapello</text></a><a id="s85" rel="nofollow " title="Keokuk" class="hint   "><path d="M626.0218129694827,358.723865083959L680.6715178274994,358.5357595490368L680.7268768788472,412.7666524087281L626.2284711230254,413.0215264452863Z" stroke="#FFFFFF" stroke-dasharray="1, 0" stroke-width="1"></path><text x="644.4064922524565" y="385.7494505802453" title="Keokuk" class="hint " style="">Keokuk</text></a><a id="s86" rel="nofollow " title="Cerro Gordo" class="hint   "><path d="M498.6333640814896,127.92723878513698L498.6913034276031,81.47453333686008L554.2253456736548,81.46326055001737L554.107942261795,137.34420380606298L498.5761284521318,137.18999952281047Z" stroke="#FFFFFF" stroke-dasharray="1, 0" stroke-width="1"></path><text x="517.4234204473829" y="109.36574829270536" title="Cerro Gordo" class="hint " style="">Cerro Gordo</text></a><a id="s87" rel="nofollow " title="Dickinson" class="hint   "><path d="M276.9784200711679,74.51498681551948L277.00268743970855,41.97693825474107L332.4970095020999,41.94300938978813L332.6038282091672,81.54120355410669L276.96856803660785,81.51431006690473Z" stroke="#FFFFFF" stroke-dasharray="1, 0" stroke-width="1"></path><text x="295.7761023161714" y="61.7520794047316" title="Dickinson" class="hint " style="">Dickinson</text></a><a id="s88" rel="nofollow " title="Washington" class="hint   "><path d="M680.5809729384332,383.3573164361742L680.6715178274994,358.5357595490368L730.6606239072253,358.49488019933597L732.8250220715213,362.14001251686204L731.1250769651315,365.2424402310062L734.8788194192489,371.4577483070125L734.6613709421395,412.94939586898363L680.7268768788472,412.7666524087281Z" stroke="#FFFFFF" stroke-dasharray="1, 0" stroke-width="1"></path><text x="698.4541921229014" y="385.9013867246585" title="Washington" class="hint " style="">Washington</text></a><a id="s89" rel="nofollow " title="Emmet" class="hint   "><path d="M332.4893569504502,41.979551640826685L387.83094935568806,41.921476738533784L387.7970369738373,81.54764509697452L332.6038282091672,81.54120355410669Z" stroke="#FFFFFF" stroke-dasharray="1, 0" stroke-width="1"></path><text x="351.1877804295594" y="61.73860326125963" title="Emmet" class="hint " style="">Emmet</text></a><a id="s90" rel="nofollow " title="Van Buren" class="hint   "><path d="M653.2574106568081,498.8369955667731L653.3404492338263,453.7914704175946L707.3966862956299,453.57935111338884L707.5621770190414,500.4211921847618L706.1141625107307,498.086908381425Z" stroke="#FFFFFF" stroke-dasharray="1, 0" stroke-width="1"></path><text x="671.3497006617982" y="476.1015601498629" title="Van Buren" class="hint " style="">Van Buren</text></a><a id="s91" rel="nofollow " title="Woodbury" class="hint   "><path d="M146.6990694471183,192.67437013993458L235.5040521474807,192.63588228617027L235.4794220610779,206.387560817735L243.9892341998352,206.422544310808L243.8066197020662,248.19369246182032L163.37906641347126,247.62456200884026L167.2303909242005,245.26709221680267L166.62261422064557,241.33061304807597L156.1533027792525,225.48092155068207L156.68801022647358,217.03134023119492L160.54695833537244,210.91388049856596L159.99571354442287,206.6691744473792L149.4392585116061,204.0408417063045L147.38006600209474,199.64028503072768L149.2587551641027,193.46483150306813Z" stroke="#FFFFFF" stroke-dasharray="1, 0" stroke-width="1"></path><text x="190.74298948390907" y="219.7996279968964" title="Woodbury" class="hint " style="">Woodbury</text></a><a id="s92" rel="nofollow " title="Clarke" class="hint   "><path d="M438.02482031942964,438.5322101280526L438.1066860351916,413.82848173814L491.66340148749305,413.12606035017507L491.78256419124,454.01258499629967L438.0346723539915,454.2087135203319Z" stroke="#FFFFFF" stroke-dasharray="1, 0" stroke-width="1"></path><text x="455.9433079372413" y="433.8061403655282" title="Clarke" class="hint " style="">Clarke</text></a><a id="s93" rel="nofollow " title="Humboldt" class="hint   "><path d="M387.7958641125797,164.68323906771093L387.8185003348449,137.26029647824544L443.1442424215934,137.31009652411922L443.08841422574415,179.34318466257446L387.8033704246254,179.27031593420543Z" stroke="#FFFFFF" stroke-dasharray="1, 0" stroke-width="1"></path><text x="406.4629794821307" y="158.2936439861376" title="Humboldt" class="hint " style="">Humboldt</text></a><a id="s94" rel="nofollow " title="Page" class="hint   "><path d="M277.2896974488658,478.10726403166154L277.33379703214314,453.5075057611639L330.8754998603508,453.646695976091L332.4662515836817,504.0446978686223L278.6287507853099,503.20567317886616L279.0163837919231,480.36544024347404L277.29978405567863,480.3442368338465Z" stroke="#FFFFFF" stroke-dasharray="1, 0" stroke-width="1"></path><text x="295.8971655943419" y="478.55703281077217" title="Page" class="hint " style="">Page</text></a><a id="s95" rel="nofollow " title="Cedar" class="hint   "><path d="M748.652667453201,341.9148148227787L748.7169402501036,289.9111226391424L803.5356544153046,290.09483422534686L803.3750897091741,344.9967781604437L748.6499698723087,344.8023008888831Z" stroke="#FFFFFF" stroke-dasharray="1, 0" stroke-width="1"></path><text x="767.0701453306147" y="317.44350781840313" title="Cedar" class="hint " style="">Cedar</text></a><a id="s96" rel="nofollow " title="Harrison" class="hint   "><path d="M189.07129597226367,302.69228045219097L257.1238728485355,303.1425445556715L257.0223030636498,344.1733609045805L264.1005207516987,344.1812032896423L264.07659438204973,359.2679575358634L205.64728540179294,359.1293174460334L205.202595133469,354.0347519430288L203.5711451245088,353.1203947345175L200.90558334495245,358.80233272275564L198.90151531453466,358.83177750837604L193.8704096650481,353.10754456800714L195.6806037296269,348.10853365931234L191.41068503615452,342.97873784597414L194.0510302986795,337.1155739102787L190.92183646409603,331.5616868844518L196.6293312006892,328.0646656852714L192.71643147395116,322.89702381811367L197.58920085369573,313.72307449649634L192.5795585652204,309.87504868184715L192.26828118752064,305.441428235843Z" stroke="#FFFFFF" stroke-dasharray="1, 0" stroke-width="1"></path><text x="217.6400783443309" y="331.3795865464409" title="Harrison" class="hint " style="">Harrison</text></a><a id="s97" rel="nofollow " title="Franklin" class="hint   "><path d="M498.46799064420566,185.11246585302524L498.5761284521318,137.18999952281047L554.107942261795,137.34420380606298L553.8902592124332,193.34843885041937L498.47432409499334,193.2067277610895Z" stroke="#FFFFFF" stroke-dasharray="1, 0" stroke-width="1"></path><text x="517.2559217558199" y="165.2638336859138" title="Franklin" class="hint " style="">Franklin</text></a><a id="s98" rel="nofollow " title="Mills" class="hint   "><path d="M218.86537927999052,414.1138706890033L277.40592799946853,413.3223506330369L277.33379703214314,453.5075057611639L227.0774256613381,453.4853006389276L223.9945300569516,448.66027422297793L225.10241480063496,441.5860040738926L220.53986722345553,437.2943672286301L221.65924600745984,432.67052063288247L218.9896964996292,428.8267110422039L221.31524580068253,424.47229864586734Z" stroke="#FFFFFF" stroke-dasharray="1, 0" stroke-width="1"></path><text x="240.73096335412507" y="433.1796012527062" title="Mills" class="hint " style="">Mills</text></a><a id="s99" rel="nofollow " title="Pottawattamie" class="hint   "><path d="M202.8743482515224,362.0935111523313L205.64728540179294,359.1293174460334L304.3379891933937,359.40311472055237L304.2055731574401,413.44308286123396L219.21183642176902,413.3436930791886L223.8133229926907,410.9873422047285L214.20735472282377,408.4939164068419L215.64985678322546,401.7898133681556L213.45660623200092,392.6934061608754L216.2364046980233,391.3508582967497L216.63517752551843,395.64311146997716L220.1069641333711,393.1304765742534L219.8958491070489,390.3828651258018L210.27815222460822,384.38565712306445L213.5505524187124,380.5417369457191L212.53016312482805,376.9466692092428L214.54854006258392,367.80109624138186Z" stroke="#FFFFFF" stroke-dasharray="1, 0" stroke-width="1"></path><text x="249.94036391711495" y="385.7980531208402" title="Pottawattamie" class="hint " style="">Pottawattamie</text></a></g></g></svg>