<svg id="map" class="map svg-content-responsive" xmlns:xlink="http://www.w3.org/1999/xlink" preserveAspectRatio="xMinYMin meet" viewBox="0 0 960  540"><g><g id="states"><a id="s01" rel="nofollow " title="Ellsworth" class="hint   "><path d="M464.92404139814926,257.3761009267455L465.003678677524,244.30212718555413L530.2463145534607,244.2557286324518L530.7533424750081,296.60415851642665L465.5295896653133,296.7411782003428Z" stroke="#FFFFFF" stroke-dasharray="1, 0" stroke-width="1"></path><text x="488.8209966046013" y="270.46761017979674" title="Rush" class="hint Rush " style="">Ellsworth</text></a><a id="s02" rel="nofollow " title="Kingman" class="hint   "><path d="M467.3454134639287,427.3563996500343L467.3560865013692,414.40579358923605L544.4108426722314,414.2307990694135L544.5006838445438,465.65452154011564L467.33884544088687,465.98029517826853Z" stroke="#FFFFFF" stroke-dasharray="1, 0" stroke-width="1"></path><text x="496.8812616677191" y="440.07370768340047" title="Kingman" class="hint " style="">Kingman</text></a><a id="s03" rel="nofollow " title="Ness" class="hint   "><path d="M258.2418441990326,276.8495612503157L258.30576513755705,270.27576741973826L335.9624337056862,270.52042054812864L336.0656454963314,335.59749764404205L258.63498729249295,335.5809171379715Z" stroke="#FFFFFF" stroke-dasharray="1, 0" stroke-width="1"></path><text x="288.195259577857" y="302.9723540251302" title="Ness" class="hint " style="">Ness</text></a><a id="s04" rel="nofollow " title="Wallace" class="hint   "><path d="M47.1920747910317,204.7064946987639L113.92713078960924,204.46238249630005L113.20136424356679,269.9750528435543L47.42390363428149,270.365634510782Z" stroke="#FFFFFF" stroke-dasharray="1, 0" stroke-width="1"></path><text x="71.42369909731197" y="237.2984128884611" title="Wallace" class="hint " style="">Wallace</text></a><a id="s05" rel="nofollow " title="Gray" class="hint   "><path d="M209.30936882604465,394.30559367553633L209.40143843474743,374.31324594158286L260.7206864664222,374.5387413102362L261.938233737666,452.5245173209023L210.75304374770576,452.5750603029974L210.85789754411144,400.1543268272362L209.28344859225808,400.13665625744125Z" stroke="#FFFFFF" stroke-dasharray="1, 0" stroke-width="1"></path><text x="226.8075846528876" y="413.40365312912746" title="Gray" class="hint " style="">Gray</text></a><a id="s06" rel="nofollow " title="Ottawa" class="hint   "><path d="M529.8918758814921,182.91876856352246L530.1870850599648,178.47801942188926L595.7802891657207,178.5365282159746L595.5721062925431,231.1788380473654L530.2500677094827,231.096937457919Z" stroke="#FFFFFF" stroke-dasharray="1, 0" stroke-width="1"></path><text x="553.8746692789873" y="204.78768616809887" title="Ottawa" class="hint " style="">Ottawa</text></a><a id="s07" rel="nofollow " title="Sherman" class="hint   "><path d="M46.89003710313182,138.7230422579969L124.38049131790558,138.69428631992014L124.06980037083576,204.40855250567802L47.1920747910317,204.7064946987639Z" stroke="#FFFFFF" stroke-dasharray="1, 0" stroke-width="1"></path><text x="76.60668342232148" y="171.58958663818026" title="Sherman" class="hint " style="">Sherman</text></a><a id="s08" rel="nofollow " title="Comanche" class="hint   "><path d="M340.7029043356033,483.0651807503473L340.87648780168956,466.4174987385959L404.4332529063263,465.9492976463289L404.54949365701077,522.6017409990991L341.11963348461313,522.5926032528114Z" stroke="#FFFFFF" stroke-dasharray="1, 0" stroke-width="1"></path><text x="363.72810613320246" y="494.37352303767824" title="Comanche" class="hint " style="">Comanche</text></a><a id="s09" rel="nofollow " title="Pottawatomie" class="hint   "><path d="M671.0207462576036,160.16147995099618L673.2424973373822,155.2320644495885L675.7344756508519,155.01741250163832L676.5156012482407,151.68161992530804L678.1205445927849,152.84147989248777L680.8662127962175,146.2142954556257L687.3847410922649,142.0676448392942L688.3749878518374,139.00420870723974L752.2267275626946,139.03950611394157L752.2329437273579,205.21491541416708L745.7640274624982,201.4455175162193L749.7792006908762,200.4653703354361L743.8975360575669,194.43699247960467L742.0457054183521,196.54175996097L735.7141312067256,196.3159880554258L735.1481083639346,193.6346558534333L728.886319397121,192.75687472333357L724.8486272326027,197.77661117240223L719.9302335499447,195.21429766840902L715.7874530167696,201.56712207541386L714.4989476394549,198.67546122639214L712.1342247724051,200.0195852623283L704.1714351240703,196.0084947483665L700.960141001472,199.93805010515916L699.5883624748872,197.72531950822577L695.8416571883149,198.96169747983095L695.7966193160337,196.46564570529426L691.2418126231523,197.661923274748L690.6939691298489,194.93779783654736L695.6048565004571,193.7460572769769L692.2700600874632,193.23278367990133L690.5368057213645,188.34416578112268L687.5915165319338,188.76954322042366L689.2410286042559,186.64990724890595L687.1270634740263,187.0808049158477L681.8961022662884,181.23379708186076L679.425704599952,176.84009695145232L680.6108809004968,175.47863246874658L677.7516797273506,174.47849663660054L678.8327059482417,172.9464197640018L671.2154412263203,163.73382130086065L672.5664601086505,161.19986198092556Z" stroke="#FFFFFF" stroke-dasharray="1, 0" stroke-width="1"></path><text x="707.2552500368064" y="167.5155135063225" title="Pottawatomie" class="hint " style="">Pottawatomie</text></a><a id="s10" rel="nofollow " title="Hodgeman" class="hint   "><path d="M260.65887667815923,335.58883395934663L337.6741074246479,335.6037713424357L337.7461211058485,387.6286907418089L260.6643891260683,387.4797303321011Z" stroke="#FFFFFF" stroke-dasharray="1, 0" stroke-width="1"></path><text x="290.2024295570734" y="361.5790056952185" title="Hodgeman" class="hint " style="">Hodgeman</text></a><a id="s11" rel="nofollow " title="Wichita" class="hint   "><path d="M103.50051149798037,270.04974385597507L154.9556941493811,269.90937842591666L155.3006326451632,335.24945107488384L103.45500448119628,335.453201579925Z" stroke="#FFFFFF" stroke-dasharray="1, 0" stroke-width="1"></path><text x="120.29896731669729" y="302.70665323197545" title="Wichita" class="hint " style="">Wichita</text></a><a id="s12" rel="nofollow " title="Graham" class="hint   "><path d="M268.11393468819097,187.35932665421478L268.33759932996645,138.8604314122922L333.95813110301697,138.85267194699463L333.6049825784321,204.8071299160847L268.11698412745864,204.89376863097732Z" stroke="#FFFFFF" stroke-dasharray="1, 0" stroke-width="1"></path><text x="291.98251076214177" y="171.84480047947935" title="Graham" class="hint " style="">Graham</text></a><a id="s13" rel="nofollow " title="Grant" class="hint   "><path d="M108.19559239723958,413.86611932446067L159.49607464879546,413.8627082733328L159.49771665455637,465.44373040634673L108.34255191278316,465.3446808050139Z" stroke="#FFFFFF" stroke-dasharray="1, 0" stroke-width="1"></path><text x="124.89146592281321" y="439.6171240608247" title="Grant" class="hint " style="">Grant</text></a><a id="s14" rel="nofollow " title="Trego" class="hint   "><path d="M269.49955297761335,248.589510335647L269.94758597791633,204.8527929915499L335.17790681065117,204.82587901712395L334.41003454547126,270.5238769099278L269.25759170022275,270.3995974632626Z" stroke="#FFFFFF" stroke-dasharray="1, 0" stroke-width="1"></path><text x="293.2139663501797" y="237.64380943781987" title="Trego" class="hint " style="">Trego</text></a><a id="s15" rel="nofollow " title="Lincoln" class="hint   "><path d="M464.3834696446402,191.5991039166911L530.1109663643642,191.6758585781754L530.2463145534607,244.2557286324518L465.003678677524,244.30212718555413Z" stroke="#FFFFFF" stroke-dasharray="1, 0" stroke-width="1"></path><text x="488.4231195602196" y="217.9257803699446" title="Lincoln" class="hint " style="">Lincoln</text></a><a id="s16" rel="nofollow " title="Logan" class="hint   "><path d="M113.3381198661732,261.2031381276711L113.92713078960924,204.46238249630005L192.07921595283733,204.67422203559636L191.27697885281668,270.0208894418811L113.20136424356679,269.9750528435543Z" stroke="#FFFFFF" stroke-dasharray="1, 0" stroke-width="1"></path><text x="143.61465821952655" y="237.27562305658697" title="Logan" class="hint " style="">Logan</text></a><a id="s17" rel="nofollow " title="Lyon" class="hint   "><path d="M714.5689674565174,348.54854711107873L715.0867857016319,264.1341710605766L762.7857628902757,264.12048774785126L761.2683149955287,349.21781895854474Z" stroke="#FFFFFF" stroke-dasharray="1, 0" stroke-width="1"></path><text x="729.4612523074996" y="306.3571311780084" title="Lyon" class="hint " style="">Lyon</text></a><a id="s18" rel="nofollow " title="McPherson" class="hint   "><path d="M530.6930574063799,327.15399423465533L530.6916499728713,283.53506456430205L595.5372723131995,283.6141643115043L595.5561553794414,348.80993504476373L531.0035137811988,348.80396735381964Z" stroke="#FFFFFF" stroke-dasharray="1, 0" stroke-width="1"></path><text x="554.1392855010241" y="316.1720349921995" title="McPherson" class="hint " style="">McPherson</text></a><a id="s19" rel="nofollow " title="Elk" class="hint   "><path d="M694.7125436558749,448.8537690260355L694.8329965070025,433.02529843184675L761.0173226864595,433.5070372743139L760.6189017173397,478.49827000569167L694.8830776826921,477.98251149310636Z" stroke="#FFFFFF" stroke-dasharray="1, 0" stroke-width="1"></path><text x="718.8082186990997" y="455.7252872129143" title="Elk" class="hint " style="">Elk</text></a><a id="s20" rel="nofollow " title="Ford" class="hint   "><path d="M260.6371787448975,396.11638050558577L260.6643891260683,387.4797303321011L337.7461211058485,387.6286907418089L339.3599781959492,453.6281342731518L261.938233737666,452.5245173209023L262.12495324983456,400.4370520684497L260.6261538490785,400.4320034673965Z" stroke="#FFFFFF" stroke-dasharray="1, 0" stroke-width="1"></path><text x="291.24602594961056" y="420.34528796917687" title="Ford" class="hint " style="">Ford</text></a><a id="s21" rel="nofollow " title="Johnson" class="hint   "><path d="M867.1198644733622,227.71689717487698L869.8268282553022,228.51591777643353L872.0808330196596,224.69030610762275L878.8261926828723,227.54021744423608L882.7196229127389,224.42241819520495L883.4064504650391,227.1906213554057L889.2407315035507,215.73165739950855L896.7966555817143,218.24977722721087L919.7622829325974,218.16434194945032L919.5287073953277,264.27238102686806L867.1131791641942,264.1994296967814Z" stroke="#FFFFFF" stroke-dasharray="1, 0" stroke-width="1"></path><text x="885.5471132964881" y="242.3854394183684" title="Johnson" class="hint " style="">Johnson</text></a><a id="s22" rel="nofollow " title="Kiowa" class="hint   "><path d="M338.95405091478415,414.0776024249526L402.99579414932987,414.3620452207324L403.236347993211,465.9541686928105L339.40044190932804,466.4192699535488Z" stroke="#FFFFFF" stroke-dasharray="1, 0" stroke-width="1"></path><text x="362.0696879620174" y="440.18977450829635" title="Kiowa" class="hint " style="">Kiowa</text></a><a id="s23" rel="nofollow " title="Lane" class="hint   "><path d="M206.605337197248,269.99684403762876L258.30576513755705,270.27576741973826L258.63498729249295,335.5809171379715L206.99320241504984,335.30501977385575Z" stroke="#FFFFFF" stroke-dasharray="1, 0" stroke-width="1"></path><text x="223.63461034520972" y="302.7834611621685" title="Lane" class="hint " style="">Lane</text></a><a id="s24" rel="nofollow " title="Gove" class="hint   "><path d="M191.2656020986219,267.2962028039501L192.07921595283733,204.67422203559636L269.94758597791633,204.8527929915499L269.25759170022275,270.3995974632626L191.27697885281668,270.0208894418811Z" stroke="#FFFFFF" stroke-dasharray="1, 0" stroke-width="1"></path><text x="221.64883794796785" y="237.49778524478185" title="Gove" class="hint " style="">Gove</text></a><a id="s25" rel="nofollow " title="Greenwood" class="hint   "><path d="M694.7698965713589,416.9636579051639L695.1283229716,361.82707438614034L714.4433540158566,361.9094787606746L714.5397632112108,348.96106572620374L761.2683149955287,349.21781895854474L761.0173226864595,433.5070372743139L694.8329965070025,433.02529843184675Z" stroke="#FFFFFF" stroke-dasharray="1, 0" stroke-width="1"></path><text x="720.1489795976499" y="392.85665013581337" title="Greenwood" class="hint " style="">Greenwood</text></a><a id="s26" rel="nofollow " title="Harper" class="hint   "><path d="M480.84399096078187,465.9847233900282L544.7928435837475,465.6537834829269L545.0570901073929,522.7188335262763L481.15538849721406,522.8291361778874Z" stroke="#FFFFFF" stroke-dasharray="1, 0" stroke-width="1"></path><text x="503.9829313054423" y="494.2929644565604" title="Harper" class="hint " style="">Harper</text></a><a id="s27" rel="nofollow " title="Jackson" class="hint   "><path d="M752.2434994786736,140.82749997961946L752.2267275626946,139.03950611394157L781.1792768446403,139.06339265406314L781.1976907663802,125.8097662827322L807.5653711232726,125.82941745669541L806.8352649905787,161.38857875696067L804.6133966246725,161.38311315348892L804.5926369804174,192.1590822966109L752.2711790043459,192.0926251997107Z" stroke="#FFFFFF" stroke-dasharray="1, 0" stroke-width="1"></path><text x="771.6410800806767" y="161.69363252820267" title="Jackson" class="hint " style="">Jackson</text></a><a id="s28" rel="nofollow " title="Allen" class="hint   "><path d="M812.1282705588292,412.2310661966885L812.8615434169183,368.9982435569764L864.5957497614395,369.07627520606184L863.398727562198,414.435305102088L812.0957823020008,414.39333644443195Z" stroke="#FFFFFF" stroke-dasharray="1, 0" stroke-width="1"></path><text x="829.2342707796846" y="391.6943404971119" title="Allen" class="hint " style="">Allen</text></a><a id="s29" rel="nofollow " title="Barton" class="hint   "><path d="M400.7498821276499,309.74997533382793L400.71798030144964,270.4870590858027L465.57873255199775,270.4634655566915L465.5924550287077,335.80497588886556L400.795623716685,335.7397005836583Z" stroke="#FFFFFF" stroke-dasharray="1, 0" stroke-width="1"></path><text x="424.17484613559196" y="303.1186842236407" title="Barton" class="hint " style="">Barton</text></a><a id="s30" rel="nofollow " title="Butler" class="hint   "><path d="M621.1597166271786,400.6808670328828L621.2226992766978,361.62828803110824L695.1283229716,361.82707438614034L694.7872549179674,452.34495485616844L621.1736736761422,452.47220065723195Z" stroke="#FFFFFF" stroke-dasharray="1, 0" stroke-width="1"></path><text x="649.0454723494063" y="407.0375263279283" title="Butler" class="hint " style="">Butler</text></a><a id="s31" rel="nofollow " title="Clark" class="hint   "><path d="M274.7201930062847,452.57683373676446L339.3599781959492,453.6281342731518L339.40044190932804,466.4192699535488L340.87648780168956,466.4174987385959L341.11963348461313,522.5926032528114L276.80369430495284,522.2226640833042L276.56381361669855,465.56610193851975L274.6997852204072,465.5365793766696Z" stroke="#FFFFFF" stroke-dasharray="1, 0" stroke-width="1"></path><text x="299.45330396061354" y="487.7329003522927" title="Clark" class="hint " style="">Clark</text></a><a id="s32" rel="nofollow " title="Cloud" class="hint   "><path d="M529.851646740366,134.82945732868302L529.9073576500873,125.69307716101957L595.9173966467038,125.65103219975845L595.7802891657207,178.5365282159746L530.1870850599648,178.47801942188926Z" stroke="#FFFFFF" stroke-dasharray="1, 0" stroke-width="1"></path><text x="553.9323893809942" y="152.05724065174456" title="Cloud" class="hint " style="">Cloud</text></a><a id="s33" rel="nofollow " title="Doniphan" class="hint   "><path d="M833.8644390966124,72.81644806169061L837.5713843865606,72.81660116785133L844.3782019796604,80.67626072500934L849.7529559775485,82.15940491723086L850.0453502890014,87.49606766223678L856.1768343701256,87.20633418222405L857.6505345399737,91.42494934927254L863.155241565174,93.74945299371666L869.2999789785049,93.38242015578544L872.1869769634482,88.12290423236482L881.4125863275599,89.12989216856022L880.7940193004388,95.46220489313146L886.9907144674708,98.33887634189341L888.2795717031609,101.36317442473137L887.3248626396858,104.27303241484333L881.3177018518422,107.11554824452378L884.0163383188547,109.59845704023883L889.0184742952865,107.53001753204717L889.8044086238297,112.09176167080204L885.5383603725054,114.98218074284614L878.4108825116491,112.08093178076342L877.0936420335311,120.719181647396L870.8448718266732,123.45074963211391L867.4676224091477,131.54779232706915L862.2347800504131,130.70314733252235L860.2194525519249,125.87862139808567L833.8827357322248,125.81296531355201Z" stroke="#FFFFFF" stroke-dasharray="1, 0" stroke-width="1"></path><text x="847.5182170914695" y="105.2122537769274" title="Doniphan" class="hint " style="">Doniphan</text></a><a id="s34" rel="nofollow " title="Jefferson" class="hint   "><path d="M803.5516053284032,213.71936207972885L804.6133966246725,161.38311315348892L852.5135195189487,161.36307258326906L851.7849381058909,218.1608308042787L840.9383171980071,217.69434073083357L840.2531316514692,219.9648333616842L838.784122926651,218.43401024354898L833.7665051816239,220.03277761070785L823.2180256053589,214.3559779143843L815.8111721930036,216.67400192007426L810.0611025927674,214.38573809481022L805.4285351985241,216.66735640955812Z" stroke="#FFFFFF" stroke-dasharray="1, 0" stroke-width="1"></path><text x="819.4102937611531" y="189.23016742004643" title="Jefferson" class="hint " style="">Jefferson</text></a><a id="s35" rel="nofollow " title="Jewell" class="hint   "><path d="M462.62206660836773,138.6542711310385L462.70557609116486,72.45977116626273L529.8670644694448,72.50241907839063L529.8649000725727,138.91459536403Z" stroke="#FFFFFF" stroke-dasharray="1, 0" stroke-width="1"></path><text x="487.28326756656617" y="105.6395052394902" title="Jewell" class="hint " style="">Jewell</text></a><a id="s36" rel="nofollow " title="Cheyenne" class="hint   "><path d="M46.65779066098821,72.34502356219673L121.80318148916967,72.4542674651193L121.46651752404432,138.6955035095998L46.89003710313182,138.7230422579969Z" stroke="#FFFFFF" stroke-dasharray="1, 0" stroke-width="1"></path><text x="75.19157546293889" y="105.51245057738507" title="Cheyenne" class="hint " style="">Cheyenne</text></a><a id="s37" rel="nofollow " title="Brown" class="hint   "><path d="M781.1934684658518,108.03755227129204L781.2949902005003,72.74708819142961L833.8644390966124,72.81644806169061L833.8827357322248,125.81296531355201L781.1976907663802,125.8097662827322Z" stroke="#FFFFFF" stroke-dasharray="1, 0" stroke-width="1"></path><text x="798.5452691330697" y="99.30727734613995" title="Brown" class="hint " style="">Brown</text></a><a id="s38" rel="nofollow " title="Douglas" class="hint   "><path d="M814.9220260738139,220.365094249506L815.056670546156,216.26589948012133L823.2180256053589,214.3559779143843L833.7665051816239,220.03277761070785L838.784122926651,218.43401024354898L840.2531316514692,219.9648333616842L840.9383171980071,217.69434073083357L851.7849381058909,218.1608308042787L851.8921376248104,230.16974281487273L854.4801732752576,227.59181848747266L863.7329930205397,231.78455109925926L864.997220169827,230.19583870490078L863.5622244214719,227.80455699850154L866.6090833957901,226.9890363640743L867.1131791641942,264.1994296967814L814.9999040613002,264.16619896615066Z" stroke="#FFFFFF" stroke-dasharray="1, 0" stroke-width="1"></path><text x="830.2676261461983" y="242.15610399026372" title="Douglas" class="hint " style="">Douglas</text></a><a id="s39" rel="nofollow " title="Ellis" class="hint   "><path d="M334.4820482266714,266.1777509945641L335.17790681065117,204.82587901712395L400.1867914380009,204.71035983739603L399.5855827574883,270.47984578303294L334.41003454547126,270.5238769099278Z" stroke="#FFFFFF" stroke-dasharray="1, 0" stroke-width="1"></path><text x="358.351168366712" y="237.6475194454791" title="Ellis" class="hint " style="">Ellis</text></a><a id="s40" rel="nofollow " title="Finney" class="hint   "><path d="M157.93288516501207,378.046492173381L157.90086605268698,335.2422808994497L260.65887667815923,335.58883395934663L260.7206864664222,374.5387413102362L209.40143843474743,374.31324594158286L210.798902622867,413.87190327830103L159.49607464879546,413.8627082733328Z" stroke="#FFFFFF" stroke-dasharray="1, 0" stroke-width="1"></path><text x="191.88150575001123" y="368.09875155504704" title="Finney" class="hint " style="">Finney</text></a><a id="s41" rel="nofollow " title="Sedgwick" class="hint   "><path d="M544.3492674562222,427.135395479846L544.4108426722314,414.2307990694135L557.2103948597114,414.0526873765375L556.8410608497738,387.7117925238208L621.2739533136446,387.6707620270072L621.1736736761422,452.47220065723195L544.4369974782708,452.673189876803Z" stroke="#FFFFFF" stroke-dasharray="1, 0" stroke-width="1"></path><text x="576.0955314567366" y="421.4995632254934" title="Sedgwick" class="hint " style="">Sedgwick</text></a><a id="s42" rel="nofollow " title="Shawnee" class="hint   "><path d="M751.8697085959589,205.21869533275822L752.2711790043459,192.0926251997107L804.5926369804174,192.1590822966109L803.7379729821942,215.05509360981887L815.056670546156,216.26589948012133L815.0015460670611,244.44915503888114L762.7080021889142,244.4253535356429L762.6884154059167,209.9159461588688L755.3662425763405,207.2759815264062L757.2586542150598,204.6701395147138L754.4498860759818,206.64423375676506Z" stroke="#FFFFFF" stroke-dasharray="1, 0" stroke-width="1"></path><text x="775.8995492206216" y="218.5127102390368" title="Shawnee" class="hint " style="">Shawnee</text></a><a id="s43" rel="nofollow " title="Stafford" class="hint   "><path d="M401.9654355347575,389.7870510399889L401.98877547377697,374.65468728030373L414.7729631787861,374.6226869109769L414.8378224063167,335.7604632519269L466.4608415036423,335.8122950633642L466.4819530062746,400.7802029995464L401.931187986042,400.65235788959944Z" stroke="#FFFFFF" stroke-dasharray="1, 0" stroke-width="1"></path><text x="428.72022851073797" y="370.0194618825138" title="Stafford" class="hint " style="">Stafford</text></a><a id="s44" rel="nofollow " title="Franklin" class="hint   "><path d="M814.0292440847265,276.1651318377453L814.9999040613002,264.16619896615066L867.1131791641942,264.1994296967814L866.0084611459051,316.49578491975535L814.109702366979,316.4459555658359Z" stroke="#FFFFFF" stroke-dasharray="1, 0" stroke-width="1"></path><text x="831.3680977472243" y="290.27440672768773" title="Franklin" class="hint " style="">Franklin</text></a><a id="s45" rel="nofollow " title="Seward" class="hint   "><path d="M162.02488080574676,465.43147841726386L212.95931305888735,465.46498683714253L213.01842526625842,522.539224318416L162.21898932202066,522.8349898454517Z" stroke="#FFFFFF" stroke-dasharray="1, 0" stroke-width="1"></path><text x="178.53096375193184" y="494.05514224598954" title="Seward" class="hint " style="">Seward</text></a><a id="s46" rel="nofollow " title="Chase" class="hint   "><path d="M657.7877045494097,336.8196053787433L658.1982059894785,322.67539011648023L660.3303504691985,322.69543006119693L660.3263627409228,296.6500318209928L714.9499127929021,296.7687618212749L714.4433540158566,361.9094787606746L657.8325078494399,361.9385362124485Z" stroke="#FFFFFF" stroke-dasharray="1, 0" stroke-width="1"></path><text x="677.7517612220746" y="329.6206006036515" title="Chase" class="hint " style="">Chase</text></a><a id="s47" rel="nofollow " title="Smith" class="hint   "><path d="M396.7135973966383,83.46369442624018L396.724273926392,72.48400531960579L462.70557609116486,72.45977116626273L462.6104552819188,138.8108315945883L396.81833390691963,138.73141054193184Z" stroke="#FFFFFF" stroke-dasharray="1, 0" stroke-width="1"></path><text x="420.7166851237379" y="105.60417511565042" title="Smith" class="hint " style="">Smith</text></a><a id="s48" rel="nofollow " title="Stevens" class="hint   "><path d="M104.73060838467791,465.33095254889395L162.02488080574676,465.43147841726386L162.21898932202066,522.8349898454517L104.88843986513757,523.2033146052299Z" stroke="#FFFFFF" stroke-dasharray="1, 0" stroke-width="1"></path><text x="124.42689632027339" y="494.20343479955403" title="Stevens" class="hint " style="">Stevens</text></a><a id="s49" rel="nofollow " title="Crawford" class="hint   "><path d="M863.3521649702811,440.2413286329038L863.4069375909994,423.0269016278162L918.5640428338047,423.23637596010303L918.5755162692635,472.7193119843623L864.9135951621793,472.49508343697835L864.9363486705706,466.01911577439296L863.3861779467443,466.0170492822126Z" stroke="#FFFFFF" stroke-dasharray="1, 0" stroke-width="1"></path><text x="882.0725456084272" y="447.7903609848476" title="Crawford" class="hint " style="">Crawford</text></a><a id="s50" rel="nofollow " title="Clay" class="hint   "><path d="M595.6474039852637,201.10731643638883L595.9286561147742,138.8998372362039L643.9989611774904,138.9937107488422L643.6868627969106,204.83071748944803L595.6260579103791,204.88575495743953Z" stroke="#FFFFFF" stroke-dasharray="1, 0" stroke-width="1"></path><text x="610.8020981472583" y="171.90092924794754" title="Clay" class="hint " style="">Clay</text></a><a id="s51" rel="nofollow " title="Coffey" class="hint   "><path d="M761.2619815447397,357.8906080286433L762.2746299543264,309.8857802380071L814.116856820649,309.9115335665383L812.8615434169183,368.9982435569764L761.2467343483936,368.7056199001818Z" stroke="#FFFFFF" stroke-dasharray="1, 0" stroke-width="1"></path><text x="778.601338389487" y="339.3645183166916" title="Coffey" class="hint " style="">Coffey</text></a><a id="s52" rel="nofollow " title="Rice" class="hint   "><path d="M465.4987434142472,309.8005841965478L465.5295896653133,296.7411782003428L530.7533424750081,296.60415851642665L531.0035137811988,348.80396735381964L505.1850843511179,348.77338288630654L505.1952882440564,350.91856279622607L496.5462574740527,351.03610284682236L496.53359057247417,348.83604365414885L466.4189703567554,348.9465942711431Z" stroke="#FFFFFF" stroke-dasharray="1, 0" stroke-width="1"></path><text x="489.3720335367031" y="322.85447970908206" title="Rice" class="hint " style="">Rice</text></a><a id="s53" rel="nofollow " title="Saline" class="hint   "><path d="M530.2391600997908,242.3758155546193L530.2500677094827,231.096937457919L595.5721062925431,231.1788380473654L595.5372723131995,283.6141643115043L530.6916499728713,283.53506456430205Z" stroke="#FFFFFF" stroke-dasharray="1, 0" stroke-width="1"></path><text x="553.985907655545" y="257.32021013801324" title="Saline" class="hint " style="">Saline</text></a><a id="s54" rel="nofollow " title="Montgomery" class="hint   "><path d="M760.5987285037131,512.6008837691634L760.5875863217689,465.60093846020663L812.6082053853324,465.9944654496676L812.4574941101141,522.6354073479661L760.6340394203776,522.662935762447Z" stroke="#FFFFFF" stroke-dasharray="1, 0" stroke-width="1"></path><text x="777.5330593818832" y="494.20689264347635" title="Montgomery" class="hint " style="">Montgomery</text></a><a id="s55" rel="nofollow " title="Wyandotte" class="hint   "><path d="M884.4227347445244,218.26533144909172L885.4357350124883,194.1526020252859L899.8564160298633,194.44168432858623L903.996616268274,199.10193833009635L911.2216761857421,196.96862524533117L914.1009332863846,201.2988036986162L922.0029687215892,202.1776951099846L919.6716724003745,207.00493472781363L919.7622829325974,218.16434194945032L896.7966555817143,218.24977722721087L889.2407315035507,215.73165739950855L884.4301237704449,226.1174694453848Z" stroke="#FFFFFF" stroke-dasharray="1, 0" stroke-width="1"></path><text x="892.0999465327121" y="207.55522458490415" title="Wyandotte" class="hint " style="">Wyandotte</text></a><a id="s56" rel="nofollow " title="Nemaha" class="hint   "><path d="M728.3293275860105,125.75964800636848L728.3876326768368,72.71050329812897L781.2949902005003,72.74708819142961L781.1792768446403,139.06339265406314L728.4156501745501,139.02124884935984Z" stroke="#FFFFFF" stroke-dasharray="1, 0" stroke-width="1"></path><text x="745.7995913483004" y="105.8755837544269" title="Nemaha" class="hint " style="">Nemaha</text></a><a id="s57" rel="nofollow " title="Osborne" class="hint   "><path d="M398.880223997322,178.3969250933851L399.3777517426861,138.74510386952988L464.7077657822956,138.82771990225956L464.40129713575243,204.77447011284858L398.99199767514847,204.72653864615313Z" stroke="#FFFFFF" stroke-dasharray="1, 0" stroke-width="1"></path><text x="422.80028807934355" y="171.7795319827926" title="Osborne" class="hint " style="">Osborne</text></a><a id="s58" rel="nofollow " title="Thomas" class="hint   "><path d="M124.0646397813025,204.24509516400394L124.38049131790558,138.69428631992014L202.8279029457326,138.7452560175143L202.70088207156323,204.67104674171242Z" stroke="#FFFFFF" stroke-dasharray="1, 0" stroke-width="1"></path><text x="154.53071151162118" y="171.6022928987903" title="Thomas" class="hint " style="">Thomas</text></a><a id="s59" rel="nofollow " title="Cherokee" class="hint   "><path d="M864.9135951621793,472.49508343697835L918.5755162692635,472.7193119843623L918.5370464200228,522.6906339070301L865.1079382725202,522.601932515432Z" stroke="#FFFFFF" stroke-dasharray="1, 0" stroke-width="1"></path><text x="882.7714710891499" y="497.60859107984226" title="Cherokee" class="hint " style="">Cherokee</text></a><a id="s60" rel="nofollow " title="Phillips" class="hint   "><path d="M330.91725372111114,119.55898413248997L331.2431908228973,72.53061784969486L396.724273926392,72.48400531960579L396.81833390691963,138.73141054193184L330.9348466399706,138.83608797261968Z" stroke="#FFFFFF" stroke-dasharray="1, 0" stroke-width="1"></path><text x="354.89850724630696" y="105.68314267477965" title="Phillips" class="hint " style="">Phillips</text></a><a id="s61" rel="nofollow " title="Pratt" class="hint   "><path d="M402.78491369526046,427.5689564433951L403.0230045305002,400.6556245660322L467.3449443194254,400.7779757455928L467.37262384509904,453.1418056834036L403.10745054102836,453.22929025429585Z" stroke="#FFFFFF" stroke-dasharray="1, 0" stroke-width="1"></path><text x="426.1201020327849" y="426.9477691453698" title="Pratt" class="hint " style="">Pratt</text></a><a id="s62" rel="nofollow " title="Rawlins" class="hint   "><path d="M121.93237801545774,101.11321878067065L121.80318148916967,72.4542674651193L200.64487443723647,72.47510387481088L200.4047715880679,138.74388668557367L121.46651752404432,138.6955035095998Z" stroke="#FFFFFF" stroke-dasharray="1, 0" stroke-width="1"></path><text x="152.15118619512978" y="105.60159467005003" title="Rawlins" class="hint " style="">Rawlins</text></a><a id="s63" rel="nofollow " title="Geary" class="hint   "><path d="M643.4427903692599,225.6576650948009L643.650152239557,191.55429226040633L656.7643831023811,191.7153711167757L656.7888959026591,203.77905407219896L658.9803871619997,203.78691736170094L656.5849353300073,211.50405359104388L697.6875062351173,213.84520775915007L697.6178382764319,244.46587631648072L647.7531727761093,244.36856112748046L647.8119331251032,227.9975267778609L643.4417347941271,230.11558986866203Z" stroke="#FFFFFF" stroke-dasharray="1, 0" stroke-width="1"></path><text x="659.2837727598437" y="224.39712217595172" title="Geary" class="hint " style="">Geary</text></a><a id="s64" rel="nofollow " title="Scott" class="hint   "><path d="M154.9556941493811,269.90937842591666L206.605337197248,269.99684403762876L206.99320241504984,335.30501977385575L155.3006326451632,335.24945107488384Z" stroke="#FFFFFF" stroke-dasharray="1, 0" stroke-width="1"></path><text x="171.96163561422733" y="302.619711731137" title="Scott" class="hint " style="">Scott</text></a><a id="s65" rel="nofollow " title="Greeley" class="hint   "><path d="M47.41792204186913,299.20633578621255L47.42390363428149,270.365634510782L103.50051149798037,270.04974385597507L103.45500448119628,335.453201579925L47.506229942043774,335.56275570807156Z" stroke="#FFFFFF" stroke-dasharray="1, 0" stroke-width="1"></path><text x="66.4755326568128" y="302.8449249802126" title="Greeley" class="hint " style="">Greeley</text></a><a id="s66" rel="nofollow " title="Mitchell" class="hint   "><path d="M464.3929698208267,188.28525670469844L464.7077657822956,138.82771990225956L530.261561749805,138.9155082372381L530.1109663643642,191.6758585781754L464.3834696446402,191.5991039166911Z" stroke="#FFFFFF" stroke-dasharray="1, 0" stroke-width="1"></path><text x="488.3620018952546" y="165.26681081789147" title="Mitchell" class="hint " style="">Mitchell</text></a><a id="s67" rel="nofollow " title="Osage" class="hint   "><path d="M762.2828399831287,308.78596601656045L762.7080021889142,244.4253535356429L815.0015460670611,244.44915503888114L814.116856820649,309.9115335665383Z" stroke="#FFFFFF" stroke-dasharray="1, 0" stroke-width="1"></path><text x="779.6017534932896" y="276.84723502897725" title="Osage" class="hint " style="">Osage</text></a><a id="s68" rel="nofollow " title="Sumner" class="hint   "><path d="M544.4369974782708,452.673189876803L621.1736736761422,452.47220065723195L621.831648841508,522.6603815248318L545.0570901073929,522.7188335262763Z" stroke="#FFFFFF" stroke-dasharray="1, 0" stroke-width="1"></path><text x="574.1378862732531" y="487.63391431176996" title="Sumner" class="hint " style="">Sumner</text></a><a id="s69" rel="nofollow " title="Pawnee" class="hint   "><path d="M335.996798540526,322.56322556224677L400.7840123902379,322.7205547156227L400.795623716685,335.7397005836583L414.8378224063167,335.7604632519269L414.7729631787861,374.6226869109769L363.5009814557825,374.5789281145526L363.4927714269811,361.6446798467823L337.78670210535165,361.67776143601986Z" stroke="#FFFFFF" stroke-dasharray="1, 0" stroke-width="1"></path><text x="367.6756356444317" y="347.6606533593963" title="Pawnee" class="hint " style="">Pawnee</text></a><a id="s70" rel="nofollow " title="Haskell" class="hint   "><path d="M159.40377046784351,431.07547688606974L159.49607464879546,413.8627082733328L210.798902622867,413.87190327830103L210.74295714089294,465.4576061366324L159.49771665455637,465.44373040634673Z" stroke="#FFFFFF" stroke-dasharray="1, 0" stroke-width="1"></path><text x="176.11108469063313" y="439.6515721138017" title="Haskell" class="hint " style="">Haskell</text></a><a id="s71" rel="nofollow " title="Kearny" class="hint   "><path d="M106.45307242720855,387.3969241171244L106.4070962659207,335.44394027632916L157.90086605268698,335.2422808994497L157.84105012856207,400.1063637857742L159.47038898725987,400.0944843622592L159.49607464879546,413.8627082733328L108.19559239723958,413.86611932446067Z" stroke="#FFFFFF" stroke-dasharray="1, 0" stroke-width="1"></path><text x="123.45444118245189" y="374.59629979262445" title="Kearny" class="hint " style="">Kearny</text></a><a id="s72" rel="nofollow " title="Rooks" class="hint   "><path d="M333.57085231584324,191.5518700033299L333.95813110301697,138.85267194699463L399.3777517426861,138.74510386952988L398.99199767514847,204.72653864615313L333.6049825784321,204.8071299160847Z" stroke="#FFFFFF" stroke-dasharray="1, 0" stroke-width="1"></path><text x="357.4591479378832" y="171.78544693592545" title="Rooks" class="hint " style="">Rooks</text></a><a id="s73" rel="nofollow " title="Washington" class="hint   "><path d="M595.8554695723165,84.71169550415289L595.8553383844419,72.50091008201798L661.9379913946336,72.60638879185353L661.8469773610636,138.99036357150362L595.9286561147742,138.8998372362039Z" stroke="#FFFFFF" stroke-dasharray="1, 0" stroke-width="1"></path><text x="619.8876850328212" y="105.73488626994819" title="Washington" class="hint " style="">Washington</text></a><a id="s74" rel="nofollow " title="Wilson" class="hint   "><path d="M760.8303686020372,461.00658993716115L761.0321007383009,414.1642114391216L812.0957823020008,414.39333644443195L812.0886278483308,465.99608912543954L760.9465991526399,465.6038907027678Z" stroke="#FFFFFF" stroke-dasharray="1, 0" stroke-width="1"></path><text x="777.5232494908649" y="440.05437205884436" title="Wilson" class="hint " style="">Wilson</text></a><a id="s75" rel="nofollow " title="Russell" class="hint   "><path d="M399.6194784478248,268.22635333804374L400.1867914380009,204.71035983739603L465.1342181354644,204.77840139076216L464.8574228787329,270.4691760971482L399.5855827574883,270.47984578303294Z" stroke="#FFFFFF" stroke-dasharray="1, 0" stroke-width="1"></path><text x="423.43764745467666" y="237.63565167029387" title="Russell" class="hint " style="">Russell</text></a><a id="s76" rel="nofollow " title="Morris" class="hint   "><path d="M647.0128627504782,276.33139947144537L647.6917148462253,253.1309155621675L652.0386905243067,253.1295608798291L652.030011351002,244.41119312253522L697.6178382764319,244.46587631648072L697.6364867704228,251.01920952887212L710.6551294407727,251.06889088190746L710.7312481363751,264.1397346003241L715.0867857016319,264.1341710605766L714.9499127929021,296.7687618212749L647.3709372923427,296.6555785798955Z" stroke="#FFFFFF" stroke-dasharray="1, 0" stroke-width="1"></path><text x="671.1404192115523" y="271.86863699937766" title="Morris" class="hint " style="">Morris</text></a><a id="s77" rel="nofollow " title="Morton" class="hint   "><path d="M47.78637342597358,503.9051199448122L47.84921120531453,465.2268193627351L104.73060838467791,465.33095254889395L104.88843986513757,523.2033146052299L47.79018820494957,523.5554355531085Z" stroke="#FFFFFF" stroke-dasharray="1, 0" stroke-width="1"></path><text x="67.27143057570747" y="494.348338808165" title="Morton" class="hint " style="">Morton</text></a><a id="s78" rel="nofollow " title="Neosho" class="hint   "><path d="M812.0482814210786,427.31077716887194L812.0957823020008,414.39333644443195L863.398727562198,414.435305102088L863.3861779467443,466.0170492822126L812.0886278483308,465.99608912543954Z" stroke="#FFFFFF" stroke-dasharray="1, 0" stroke-width="1"></path><text x="828.7291580091435" y="440.20807176272837" title="Neosho" class="hint " style="">Neosho</text></a><a id="s79" rel="nofollow " title="Stanton" class="hint   "><path d="M47.81247256883944,442.766866278811L47.80180353519427,413.53589079116045L108.19559239723958,413.86611932446067L108.34255191278316,465.3446808050139L47.84921120531453,465.2268193627351Z" stroke="#FFFFFF" stroke-dasharray="1, 0" stroke-width="1"></path><text x="69.02248996980065" y="439.50054420867" title="Stanton" class="hint " style="">Stanton</text></a><a id="s80" rel="nofollow " title="Anderson" class="hint   "><path d="M812.8899266593462,359.2416744641023L814.109702366979,316.4459555658359L866.0084611459051,316.49578491975535L864.5957497614395,369.07627520606184L812.8615434169183,368.9982435569764Z" stroke="#FFFFFF" stroke-dasharray="1, 0" stroke-width="1"></path><text x="830.3454329426017" y="342.75096206791324" title="Anderson" class="hint " style="">Anderson</text></a><a id="s81" rel="nofollow " title="Edwards" class="hint   "><path d="M337.7461211058485,387.6286907418089L337.78670210535165,361.67776143601986L363.4927714269811,361.6446798467823L363.5009814557825,374.5789281145526L401.98877547377697,374.65468728030373L402.99579414932987,414.3620452207324L338.95405091478415,414.0776024249526Z" stroke="#FFFFFF" stroke-dasharray="1, 0" stroke-width="1"></path><text x="359.07716109604195" y="391.3639865516566" title="Edwards" class="hint " style="">Edwards</text></a><a id="s82" rel="nofollow " title="Meade" class="hint   "><path d="M210.75327831995673,461.1665191378279L210.75304374770576,452.5750603029974L274.7201930062847,452.57683373676446L274.6997852204072,465.5365793766696L276.56381361669855,465.56610193851975L276.80369430495284,522.2226640833042L213.01842526625842,522.539224318416L212.95931305888735,465.46498683714253L210.74295714089294,465.4576061366324Z" stroke="#FFFFFF" stroke-dasharray="1, 0" stroke-width="1"></path><text x="235.42094268148003" y="487.468624861461" title="Meade" class="hint " style="">Meade</text></a><a id="s83" rel="nofollow " title="Republic" class="hint   "><path d="M529.6804089967932,99.20361770830186L529.8670644694448,72.50241907839063L595.8553383844419,72.50091008201798L595.9173966467038,125.65103219975845L529.9073576500873,125.69307716101957Z" stroke="#FFFFFF" stroke-dasharray="1, 0" stroke-width="1"></path><text x="553.8308377926297" y="99.0883948315785" title="Republic" class="hint " style="">Republic</text></a><a id="s84" rel="nofollow " title="Miami" class="hint   "><path d="M865.9950905275723,314.50138409300325L867.1131791641942,264.1994296967814L919.5287073953277,264.27238102686806L919.0869537107246,316.6793333510923L866.0084611459051,316.49578491975535Z" stroke="#FFFFFF" stroke-dasharray="1, 0" stroke-width="1"></path><text x="883.9287076837253" y="290.470886940274" title="Miami" class="hint " style="">Miami</text></a><a id="s85" rel="nofollow " title="Dickinson" class="hint   "><path d="M594.4469804883761,237.3045205321405L595.6260579103791,204.88575495743953L643.4760996289674,204.8344975444288L643.4417347941271,230.11558986866203L647.8119331251032,227.9975267778609L647.7531727761093,244.36856112748046L652.030011351002,244.41119312253522L652.0386905243067,253.1295608798291L647.6917148462253,253.1309155621675L647.3337575904857,283.6128134668061L595.5372723131995,283.6141643115043Z" stroke="#FFFFFF" stroke-dasharray="1, 0" stroke-width="1"></path><text x="611.9842792730386" y="244.90694532848778" title="Dickinson" class="hint " style="">Dickinson</text></a><a id="s86" rel="nofollow " title="Norton" class="hint   "><path d="M266.13824990020066,137.81939490926652L266.44602238892367,72.57239606507028L331.2431908228973,72.53061784969486L330.9348466399706,138.83608797261968Z" stroke="#FFFFFF" stroke-dasharray="1, 0" stroke-width="1"></path><text x="289.77746562111" y="105.44064883498874" title="Norton" class="hint " style="">Norton</text></a><a id="s87" rel="nofollow " title="Sheridan" class="hint   "><path d="M202.68082614406103,195.9128552535376L202.8279029457326,138.7452560175143L268.33759932996645,138.8604314122922L268.0405135734818,204.86912278556974L202.70088207156323,204.67104674171242Z" stroke="#FFFFFF" stroke-dasharray="1, 0" stroke-width="1"></path><text x="226.47442153050173" y="171.7744706207688" title="Sheridan" class="hint " style="">Sheridan</text></a><a id="s88" rel="nofollow " title="Barber" class="hint   "><path d="M403.10745054102836,453.22929025429585L467.37262384509904,453.1418056834036L467.33884544088687,465.98029517826853L480.84399096078187,465.9847233900282L481.15538849721406,522.8291361778874L404.54949365701077,522.6017409990991Z" stroke="#FFFFFF" stroke-dasharray="1, 0" stroke-width="1"></path><text x="432.37203220411135" y="488.8084149854007" title="Barber" class="hint " style="">Barber</text></a><a id="s89" rel="nofollow " title="Marshall" class="hint   "><path d="M661.8373598987541,116.92870900498838L661.9379913946336,72.60638879185353L728.3876326768368,72.71050329812897L728.4156501745501,139.02124884935984L661.8469773610636,138.99036357150362Z" stroke="#FFFFFF" stroke-dasharray="1, 0" stroke-width="1"></path><text x="686.130958492594" y="105.84311126727415" title="Marshall" class="hint " style="">Marshall</text></a><a id="s90" rel="nofollow " title="Woodson" class="hint   "><path d="M760.9697045194098,401.15318741011197L761.2467343483936,368.7056199001818L812.8615434169183,368.9982435569764L812.0957823020008,414.39333644443195L761.0321007383009,414.1642114391216Z" stroke="#FFFFFF" stroke-dasharray="1, 0" stroke-width="1"></path><text x="777.7727616154309" y="391.52843368436027" title="Woodson" class="hint " style="">Woodson</text></a><a id="s91" rel="nofollow " title="Hamilton" class="hint   "><path d="M47.4905221536992,367.9108054853559L47.506229942043774,335.56275570807156L106.4070962659207,335.44394027632916L106.35490393997043,400.3203396965082L108.20720372368532,400.315588021439L108.19559239723958,413.86611932446067L47.80180353519427,413.53589079116045Z" stroke="#FFFFFF" stroke-dasharray="1, 0" stroke-width="1"></path><text x="68.17193789146805" y="374.7337437488971" title="Hamilton" class="hint " style="">Hamilton</text></a><a id="s92" rel="nofollow " title="Decatur" class="hint   "><path d="M200.37849949590372,125.46974946620958L200.64487443723647,72.47510387481088L266.44602238892367,72.57239606507028L266.1462253567506,138.9193118747553L200.4047715880679,138.74388668557367Z" stroke="#FFFFFF" stroke-dasharray="1, 0" stroke-width="1"></path><text x="224.39836109332117" y="105.67640227554418" title="Decatur" class="hint " style="">Decatur</text></a><a id="s93" rel="nofollow " title="Bourbon" class="hint   "><path d="M863.398727562198,414.435305102088L864.5957497614395,369.07627520606184L919.0041564201297,369.17286923292704L918.5640428338047,423.23637596010303L863.4069375909994,423.0269016278162Z" stroke="#FFFFFF" stroke-dasharray="1, 0" stroke-width="1"></path><text x="882.3515408438174" y="396.20054432682707" title="Bourbon" class="hint " style="">Bourbon</text></a><a id="s94" rel="nofollow " title="Atchison" class="hint   "><path d="M806.8458207418948,152.58590528054083L807.5653711232726,125.82941745669541L860.2194525519249,125.87862139808567L862.1581922103092,130.6343237447145L867.4676224091477,131.54779232706915L868.2821699793849,133.6361066423824L866.7487711715394,137.05658253995443L861.2495765942467,137.64699470456435L861.2272922303587,143.36604340945723L867.6098859066783,149.09202734531482L868.946595881669,154.19932531666473L874.8822121328158,157.26701581454745L877.3831485525989,161.38510160788883L806.8352649905787,161.38857875696067Z" stroke="#FFFFFF" stroke-dasharray="1, 0" stroke-width="1"></path><text x="828.0220755617285" y="144.30050914579994" title="Atchison" class="hint " style="">Atchison</text></a><a id="s95" rel="nofollow " title="Labette" class="hint   "><path d="M812.4298131880914,513.1994064473938L812.6082053853324,465.9944654496676L864.9363486705706,466.01911577439296L865.1079382725202,522.601932515432L812.4574941101141,522.6354073479661Z" stroke="#FFFFFF" stroke-dasharray="1, 0" stroke-width="1"></path><text x="829.7598007602163" y="494.3448514388636" title="Labette" class="hint " style="">Labette</text></a><a id="s96" rel="nofollow " title="Leavenworth" class="hint   "><path d="M851.6840720377595,205.34721176647963L852.5135195189487,161.36307258326906L877.3831485525989,161.38510160788883L881.10001880248,166.32453646128124L886.7515680570991,165.4290129421197L887.6443500461864,168.77473639586333L884.2100949985679,172.11925187540783L885.4523896423425,179.4185167691985L893.4956375729312,186.07297681290584L893.4712420587789,192.180729962829L900.0558024436118,194.50207278062408L885.4357350124883,194.1526020252859L883.840057271876,226.8594224477838L882.7196229127389,224.42241819520495L878.8261926828723,227.54021744423608L871.251033680092,224.81934267556335L869.8268282553022,228.51591777643353L863.7874137828808,227.48092120079855L864.997220169827,230.19583870490078L863.7329930205397,231.78455109925926L854.4801732752576,227.59181848747266L851.8921376248104,230.16974281487273Z" stroke="#FFFFFF" stroke-dasharray="1, 0" stroke-width="1"></path><text x="860.1135958190102" y="194.57525856959379" title="Leavenworth" class="hint " style="">Leavenworth</text></a><a id="s97" rel="nofollow " title="Wabaunsee" class="hint   "><path d="M697.6034120829663,237.89345664712528L697.6635798654684,218.22772945635916L710.608449562731,218.2894933021962L710.8137002827671,198.69724692025557L714.4989476394549,198.67546122639214L715.7874530167696,201.56712207541386L719.9302335499447,195.21429766840902L724.8486272326027,197.77661117240223L729.0370320686884,192.7346227335347L735.1481083639346,193.6346558534333L735.7141312067256,196.3159880554258L742.0457054183521,196.54175996097L743.8975360575669,194.43699247960467L749.7308788070736,200.24467351061412L746.0958299121999,201.8041259733982L754.0582677021562,206.65859551258654L757.2586542150598,204.6701395147138L755.3662425763405,207.2759815264062L762.6884154059167,209.9159461588688L762.7857628902757,264.12048774785126L710.7312481363751,264.1397346003241L710.6551294407727,251.06889088190746L697.6364867704228,251.01920952887212Z" stroke="#FFFFFF" stroke-dasharray="1, 0" stroke-width="1"></path><text x="723.3638541556808" y="231.84950094644626" title="Wabaunsee" class="hint " style="">Wabaunsee</text></a><a id="s98" rel="nofollow " title="Riley" class="hint   "><path d="M643.7376476893542,181.46352656912404L643.9989611774904,138.9937107488422L688.3749878518374,139.00420870723974L687.3847410922649,142.0676448392942L680.8662127962175,146.2142954556257L678.1205445927849,152.84147989248777L676.5156012482407,151.68161992530804L675.7344756508519,155.01741250163832L673.2424973373822,155.2320644495885L671.2154412263203,163.73382130086065L678.8327059482417,172.9464197640018L677.7516797273506,174.47849663660054L680.6108809004968,175.47863246874658L679.425704599952,176.84009695145232L681.8961022662884,181.23379708186076L687.1270634740263,187.0808049158477L689.4738415638376,186.99886754915588L687.5915165319338,188.76954322042366L690.5368057213645,188.34416578112268L692.2700600874632,193.23278367990133L695.6048565004571,193.7460572769769L690.6939691298489,194.93779783654736L691.2418126231523,197.661923274748L695.7966193160337,196.46564570529426L695.8416571883149,198.96169747983095L699.5883624748872,197.72531950822577L700.960141001472,199.93805010515916L703.4245570753974,195.9282907998322L710.7284332693571,198.5642627189727L710.608449562731,218.2894933021962L697.6635798654684,218.22772945635916L697.6875062351173,213.84520775915007L656.5849353300073,211.50405359104388L658.9803871619997,203.78691736170094L656.7888959026591,203.77905407219896L656.7643831023811,191.7153711167757L643.650152239557,191.55429226040633Z" stroke="#FFFFFF" stroke-dasharray="1, 0" stroke-width="1"></path><text x="661.1130385255651" y="179.76646012521448" title="Riley" class="hint " style="">Riley</text></a><a id="s99" rel="nofollow " title="Chautauqua" class="hint   "><path d="M694.805199695204,512.16505320324L694.8830776826921,477.98251149310636L760.6189017173397,478.49827000569167L760.6340394203776,522.662935762447L694.8004292157111,522.7189718220507Z" stroke="#FFFFFF" stroke-dasharray="1, 0" stroke-width="1"></path><text x="718.6598483100104" y="500.47133747579625" title="Chautauqua" class="hint " style="">Chautauqua</text></a><a id="s100" rel="nofollow " title="Harvey" class="hint   "><path d="M556.7974304110012,363.722366322314L556.8410608497738,348.788898919599L621.2015877740655,348.6665603638039L621.2739533136446,387.6707620270072L556.8260482256801,387.8800754148624Z" stroke="#FFFFFF" stroke-dasharray="1, 0" stroke-width="1"></path><text x="580.0142606144724" y="368.25559325487905" title="Harvey" class="hint " style="">Harvey</text></a><a id="s101" rel="nofollow " title="Linn" class="hint   "><path d="M864.6906342371576,360.4082206541343L866.0084611459051,316.49578491975535L919.0869537107246,316.6793333510923L919.0041564201297,369.17286923292704L864.5957497614395,369.07627520606184Z" stroke="#FFFFFF" stroke-dasharray="1, 0" stroke-width="1"></path><text x="883.129848004366" y="342.97158849295045" title="Linn" class="hint " style="">Linn</text></a><a id="s102" rel="nofollow " title="Cowley" class="hint   "><path d="M621.1736736761422,452.47220065723195L694.7872549179674,452.34495485616844L694.8004292157111,522.7189718220507L621.831648841508,522.6603815248318Z" stroke="#FFFFFF" stroke-dasharray="1, 0" stroke-width="1"></path><text x="649.164128625824" y="487.4975223070828" title="Cowley" class="hint " style="">Cowley</text></a><a id="s103" rel="nofollow " title="Reno" class="hint   "><path d="M466.4189703567554,348.9465942711431L496.53359057247417,348.83604365414885L496.5462574740527,351.03610284682236L505.1952882440564,350.91856279622607L505.1850843511179,348.77338288630654L556.8410608497738,348.788898919599L557.2103948597114,414.0526873765375L467.3560865013692,414.40579358923605Z" stroke="#FFFFFF" stroke-dasharray="1, 0" stroke-width="1"></path><text x="502.96889310455157" y="381.5915339606931" title="Reno" class="hint " style="">Reno</text></a><a id="s104" rel="nofollow " title="Marion" class="hint   "><path d="M595.5348093045582,296.69320651771795L595.5372723131995,283.6141643115043L621.476858311164,283.58309484061647L647.3337575904857,283.6128134668061L647.3709372923427,296.6555785798955L660.3263627409228,296.6500318209928L657.8325078494399,361.9385362124485L621.2226992766978,361.62828803110824L621.2015877740655,348.6665603638039L595.5561553794414,348.80993504476373Z" stroke="#FFFFFF" stroke-dasharray="1, 0" stroke-width="1"></path><text x="618.8526500364733" y="321.1714859275078" title="Marion" class="hint " style="">Marion</text></a><a id="s105" rel="nofollow " title="Rush" class="hint   "><path d="M335.80374557756886,292.0750833227903L335.9624337056862,270.52042054812864L400.71798030144964,270.4870590858027L400.7840123902379,322.7205547156227L335.996798540526,322.56322556224677Z" stroke="#FFFFFF" stroke-dasharray="1, 0" stroke-width="1"></path><text x="359.34184833419005" y="296.5729204949632" title="Rush" class="hint " style="">Rush</text></a></g></g></svg>