<svg id="map" class="map svg-content-responsive" xmlns:xlink="http://www.w3.org/1999/xlink" preserveAspectRatio="xMinYMin meet" viewBox="0 0 960  540"><g><g id="states"><a id="s01" rel="nofollow " title="Knox" class="hint   "><path d="M519.1967333560276,422.6572160607684L519.5287402186905,422.1954147136821L519.4567633988436,423.2652317767888L519.2021670546808,423.13957986472724ZM517.8388599374053,416.6155937763133L518.106607407295,416.44956701666933L518.2506397962451,416.6343455407373L517.8388599374053,417.1583860738483ZM516.6035203608872,420.19060770678334L516.921746103777,419.666483312576L517.2404443422016,419.745729429515L516.7322753942021,421.16278908266077ZM511.3584261749985,415.5110081955513L512.7414993554922,415.69000068606874L513.0609850864755,416.695864106367L511.9511718237817,416.4750086453673ZM510.3894165817651,419.273417031392L515.3120325649475,417.25202685631984L515.8548511855207,426.2175160305678L513.795951891323,425.22550289795254L511.497261113062,427.169088612241L512.7665416188524,422.0435554183341L511.198486436367,422.3425592557337L511.9991301205936,420.4526540252082ZM504.08475115841514,440.12238321265386L504.6728506011028,440.09572286307684L505.61453420255646,439.2373979286722L504.81893047070406,440.38242515751654ZM501.0309337658083,412.24517264272936L501.3115961136583,411.7912986983597L501.72345472175317,411.70240766947654L500.85114921470324,412.59038525779033ZM499.96403884755205,412.07672942276804L500.16988940234535,411.79601757073715L500.918637326966,411.47776033682885L500.0389293898659,412.5259747638456ZM498.1484747539313,412.63822636869054L498.35432530872356,412.2825916821207L499.7955941892891,411.92704721236487L499.60840720813394,412.54462863545314ZM498.1484747539313,444.2420617926173L498.99077679450295,442.72593958856623L499.3599533059287,442.87272936674754L499.4773684463994,443.23138927979744ZM492.9043255591135,423.5806106476357L493.22585877074994,423.2696136653126L493.5992877419894,424.2173466415825L493.03867178959376,424.31767642989644ZM492.433877504666,447.0531015937695L493.06521028881497,445.56885690636955L494.23597547553726,445.4514957847309L493.40902953985596,447.02363175987466ZM491.8969650782808,443.56829754469163L492.6643765765386,441.4719753596323L493.8060832878526,441.95862517149453L494.0306761655351,443.0816588130806ZM491.7097780971246,420.87381294541683L492.81407891191026,420.4807102182858L492.7391883695964,422.1840199115213L491.69103577423334,421.22941505036715ZM491.43069073439284,417.02581736095635L492.43978369885406,414.06078936472977L495.2286098455259,414.5100068764132L495.0414228643707,416.5501266647916L497.11906448146055,413.1248469565194L497.30617271335956,414.8094679210503L499.7581095435056,414.79071087717057L502.24753101943514,420.5368222404559L499.72070364697623,423.71874154841635L496.76343284204245,423.1572172894648L495.2895617695543,424.84613471074863L493.95586437247937,419.35771016151875L492.7205247959603,418.06622799776005L492.70178247306694,420.1063253990437ZM491.09214768349364,422.3898902235087L491.5413334388617,421.77215012098395L491.8648353818942,422.6740878958344L491.4102946771282,423.0449285181912ZM488.87748236122405,415.2384519265247L491.11081125713076,411.2532149639619L496.6065643243892,407.3656779574935L498.29250714288037,407.17876795297525L500.0763352863953,411.08474594962036L495.3409062843672,412.24517264272936L495.6591320272579,413.7612937242611L492.08415205943595,413.63030117037806L494.3114960118975,411.983123577525L493.30074931306285,411.70240766947654ZM487.2686350642093,406.2440271335986L487.29257483798824,405.5725690611657L488.0372747668332,405.3417982387641L487.51716771567175,406.8078970487709ZM485.78476283622774,408.38908478168514L485.9636023962629,408.1929809389485L486.05723526146903,408.66083140875526L485.7411357484877,408.7202298596585ZM483.343220907856,437.57877813605865L483.8743058893083,437.73038409839364L484.1106324061137,438.3836593615024L483.4742596695895,438.4210373576366ZM481.5276568142342,436.75521294032296L481.99558489249455,436.6803282685514L482.14536597712134,436.84879023818166L481.6961014724971,437.2792721962228ZM480.8538781811816,419.23603832272556L481.4888334310999,418.1837557278682L481.96589642303894,418.89611237875306L481.63995325307644,419.44189258443794ZM480.46084064523416,420.2467222381524L480.55439476118414,420.04089351564744L481.11587695539447,420.1157510431085L480.70409709655473,420.9767149112404ZM479.7682409400331,427.4154170976085L480.6265290795434,426.3693872118979L481.1346192782868,426.8164394395044L480.18002079887276,428.3699885791548ZM478.7762365640907,426.25496404903515L479.555145453704,425.95285531097625L480.06772436003155,426.25496404903515L478.85112710640465,427.0598252530358ZM478.7200883446711,423.11043966667376L478.8698694292969,422.8858585627886L479.22550106871597,423.1479056115718L478.7963176243337,423.57787209886965ZM477.94259694166374,429.61017464133374L478.3831990281443,429.3245292569736L478.7762365640907,429.92349458075296L478.3083084858314,430.54111632926197ZM476.9232665739416,429.34324433900974L479.2441646423521,427.92074442979856L479.33779750755724,428.2015256640102L479.0050031523348,429.12971409061265ZM474.05679366100225,441.6657657488181L474.41518152437493,439.07610106681886L475.1224285911639,438.71579140108497L474.99540604147757,441.62163360824934ZM466.7037393945218,436.4744729696572L466.9657381687347,435.7444704674899L467.71991979200845,436.1861771424906L467.14851519156184,436.89317339246827ZM461.1353795133691,441.6591022517173L462.16486853509593,441.3970357030603L462.24196405657335,442.3958689389938L461.2290123785742,442.61366064970116ZM460.83770732625635,434.47483408217795L461.41612061047425,433.89149023441223L461.9776815539408,435.0893992246147L460.9162203343386,434.9275620802928ZM459.7089942421579,436.6364902723417L460.281107585908,436.54629895198195L460.0872269180051,437.8407798726548L459.64174237766156,437.0379084715728ZM459.05781664553444,438.3461718573262L459.7534875717137,438.27753528413496L460.2370080026319,439.50665424360477L459.7877434980087,439.48796838991075ZM459.01269332193226,442.83341100062717L459.40195089359804,440.74286107704893L460.40072770554417,440.9933735897225L460.01115513685477,442.952129898978ZM456.79306679654553,435.5573920879533L457.4668454295972,434.7150900390088L457.6686010230851,434.8257557049333L457.20484665538527,436.0627428268126ZM454.19253012061114,437.52215726712757L454.59856128377413,437.00948642915955L455.28021484241185,437.13279346776926L454.2849029977227,439.0012431026389ZM448.9530271318879,393.1267234512661L453.4330722971936,389.93600361852396L457.192955517751,393.744451521472L463.31445017199303,387.54402131821143L474.91106558846235,399.54060194591284L482.2547486934967,400.2702935001912L480.8995527495748,404.639463885851L479.8243891594547,404.7864583007481L480.1932506738558,408.78094527314533L478.6452765516134,407.46297444922993L477.1666017745174,412.7599123730665L478.47683189335044,413.90160860652577L476.5489713608854,414.78138718019454L476.04355863684054,417.6637451660886L476.34304205683895,419.048812692899L481.07075363179234,417.49017975563356L478.42060492467266,422.9606832767381L474.40470787334755,425.6924545511033L475.8377080820493,427.770989475388L474.0782922078481,427.22820830075307L473.3108807095903,429.0625124478156L474.7630169874641,429.8845356064021L473.1424360513274,429.8299269879394L471.68730730173155,427.69676753851263L467.7892978864131,435.1267961540402L462.9154276926013,436.97210032273324L463.42210040474083,433.7517161636397L462.12407642056564,432.1216717782995L459.4882600780102,434.09742730672133L460.5252302790434,431.7388769585227L458.8688971807507,430.7680589708666L458.68344268322306,433.5172214586246L454.94001805713924,435.8380623071462L458.49625570206786,430.6722056685762L457.2609948748049,430.9716878354502L456.88662091249455,429.39938926166315L455.44543078118414,431.27115620225186L455.8242934510787,426.17820632856865L458.6721815396371,426.91048839025416L459.39824967857345,423.5128038403741L462.27929120384556,420.5201640345276L459.9581568876676,417.12549086442914L460.57562980278624,413.046617070278L457.897288862074,404.6263902298542L452.5149347232391,404.48312759653845L450.40311592910945,402.71779250143527Z" stroke="#FFFFFF" stroke-dasharray="1, 0" stroke-width="1"></path><text x="461.9384646140901" y="411.9474087475837" title="Oxford" class="hint Oxford " style="">Knox</text></a><a id="s02" rel="nofollow " title="Lincoln" class="hint   "><path d="M459.0078896173255,453.91823323976223L459.7904997219623,452.41690210022534L460.8343211082544,452.484299299324L459.73584773840275,454.1675856233637ZM453.33117076012354,431.90330973314803L453.3962963947115,431.4326467519768L453.9854983269814,431.1774985978964L453.6605001480879,432.2208949930791ZM450.7848135722147,436.1001341600072L451.25274165047506,436.00654609134745L450.8409617916354,437.1857010904755L450.710001779157,436.71782537253785ZM449.68988391887626,436.740782676467L449.8864420614786,434.247145916258L450.3917760362673,432.8246252176682L451.4025227351019,434.60278214631035ZM438.1133495626499,452.1968203117549L438.58387636635257,451.72609518445006L438.6935740797525,452.51505312964355L438.16949778207055,452.6647851324865ZM437.06519696728594,450.025704801958L437.27049627728707,449.08968999444915L437.72031202670246,448.9961793245743L437.27112627133437,450.45618939915494ZM435.75504559770906,454.0872313048367L436.3914183342333,451.7475817563054L436.82186176670916,451.59793776518336L436.14012945881626,454.7806226970133ZM434.4243406723562,448.41577212998254L434.9762942066091,447.8759110361475L435.28562128358766,448.6462389285475L434.55167821906616,449.0648121408999ZM420.424849212137,424.65074706523865L422.25269818967183,422.9370199172781L424.78039180394455,412.31616987367033L432.7707637980192,414.1749890024389L432.0857240213795,402.62591947796636L433.28822515820866,396.9033727180449L441.7419577737043,398.7892755209423L443.4269556011275,396.80052746307047L444.6115019076219,389.94305083161225L452.23025616334183,391.5804384210901L448.9530271318879,393.1267234512661L450.40311592910945,402.71779250143527L452.5149347232391,404.48312759653845L457.897288862074,404.6263902298542L460.57562980278624,413.046617070278L459.9581568876676,417.12549086442914L462.27929120384556,420.5201640345276L459.39824967857345,423.5128038403741L458.6721815396371,426.91048839025416L455.8242934510787,426.17820632856865L453.8357172423547,430.7844720657872L452.5068235498865,429.1373754715469L450.76614999857765,432.26312183341724L450.87844643741994,429.9609212406185L450.0174808232121,430.24172374816044L448.2926358723296,438.1634308436114L444.5707885423478,445.6458228196125L443.5974477400416,441.6777818738901L441.6560423355719,440.53483987173195L441.04250688324527,445.6664560800964L439.3892450059309,444.64191938235444L437.79701380190005,448.20373984276057L436.7421675197894,446.8883962574464L437.83977464782737,446.073976876085L437.6561313831844,443.01853290192184L435.57864726460593,446.51945866079313L434.1827379554089,444.22338952481095L432.859829206386,451.5141705334422L430.1211663356906,446.6753318861829L431.61850468642166,435.95034887034444L430.0276122197406,436.64294027036976L429.1404624215553,443.47950135898236L427.56063428172786,443.6531498122081L425.936037133543,439.23215256515914L428.779830260798,435.5468954209582L427.39841081467665,434.7157461651036L429.3522586015707,426.86669393769444Z" stroke="#FFFFFF" stroke-dasharray="1, 0" stroke-width="1"></path><text x="432.7425630810682" y="420.18625086329956" title="Lincoln" class="hint " style="">Lincoln</text></a><a id="s03" rel="nofollow " title="Sagadahoc" class="hint   "><path d="M424.61493961740274,459.21026513961397L425.08625391366604,459.25318895439887L424.86166103598146,459.98317743211373L424.6370681582969,459.7398206949215ZM401.74292699907886,428.23513102579636L403.1928582977881,427.2325875155325L405.3086145547098,413.94165099853035L413.7889644186828,415.79068179014394L415.22062589003576,410.9601748379573L417.1594325690621,409.184968245675L424.3584532911001,410.7925762674754L422.25269818967183,422.9370199172781L420.4223292359509,424.7394607945512L429.3522586015707,426.86669393769444L427.39841081467665,434.7157461651036L428.779830260798,435.5468954209582L425.936037133543,439.23215256515914L427.56063428172786,443.6531498122081L429.22271607569826,443.9051883813718L427.6664732815909,451.4093509061986L425.10460249027847,455.5674672537175L419.3962264322259,457.8868965958368L418.5914090374387,460.376189217332L417.15171514198937,459.83034523167044L417.65555288091804,455.75309989905327L415.9148793296082,457.4376137595559L416.64488493133763,453.88138017705296L416.02717576845146,451.9160907407704L414.6073827654975,451.9489928296457L415.9695313131688,447.62708189237173L415.5926373746703,443.834972377128L413.933075556888,442.2146615575025L416.9980753438257,433.6341417507024L415.6101197094699,432.6663415241069L411.1502343536614,437.22253940838755L407.6116365420428,436.8561145726808L404.16438786720965,433.5165652115784Z" stroke="#FFFFFF" stroke-dasharray="1, 0" stroke-width="1"></path><text x="408.2268013781433" y="432.06525425503276" title="Sagadahoc" class="hint " style="">Sagadahoc</text></a><a id="s04" rel="nofollow " title="York" class="hint   "><path d="M357.1315523093186,537.0142851592545L357.51104497325935,537.0364635019482L358.38366547733295,538.1916801192297L357.8729765531463,538.5489372104721ZM327.85354272816846,450.30175836664694L330.33325929282455,451.06870275083384L336.388368324386,448.2609226725913L343.70189046442977,447.8903166430132L347.04574136633175,450.7521447086151L350.99667028158024,448.8780069793238L354.3172901530078,450.8046145576277L355.1031289771342,454.65361547840894L353.9719746661058,460.1791416417427L360.2695526564283,461.74304992086263L362.43011723992845,458.62651682342084L369.69253111292585,466.6214450934085L366.99410911197054,470.49463559355763L377.9100995933678,478.25127459091345L375.4300443956439,482.5260283826551L375.5841566893415,485.3876040676555L376.8098101073919,487.27647580216126L379.96458404599787,486.5976946194173L379.52886441337927,487.9090882723631L376.56174995146444,489.2429934363977L374.3606295012015,493.71094003597364L372.0605999855906,494.10810991307244L372.9552702813032,497.16275189848966L369.04426723876827,499.41671852468517L364.97135572620675,499.00622559326894L362.12386138392816,501.404393490207L358.9697174393685,509.25730355488076L360.3966539553698,512.2228984119715L357.7982435093437,517.2200767669142L359.24659982293775,518.3464815966049L356.9957885922334,518.5130721150344L356.7172524742907,521.6488961130776L352.73222513125864,528.5796172512764L350.3142292303849,529.7102291175379L350.10286622768336,528.0389808095888L346.1737508563044,527.5366829022969L340.6295669966981,522.456788835681L340.5113643636678,516.0229527686961L341.98090422708407,511.8394653829114L334.3922321871006,504.6730072342707L332.287264578231,499.79416315844173L329.57088774694006,499.0343794487003L328.22380297637073,495.53035543537317L328.0287410696305,491.39734088614205L330.04960447325243,488.7888085118502L329.018382967898,484.5470385772919L330.8616667995774,476.554221304792L329.13879058009184,474.4645517850463Z" stroke="#FFFFFF" stroke-dasharray="1, 0" stroke-width="1"></path><text x="340.4503309827382" y="484.30702741532417" title="York" class="hint " style="">York</text></a><a id="s05" rel="nofollow " title="Franklin" class="hint   "><path d="M339.9416134975925,284.3697656853519L342.2344768309208,281.36963554231306L341.17860680848406,279.18409170803625L342.5238803461697,276.2204023432346L340.7231211126471,272.43642720400067L343.13308458942544,269.31327405612365L346.36432405546157,269.35322064867887L349.64745928110256,273.5235604516879L355.76037026645906,274.3087956113809L356.32752240709,270.0439426722546L352.09892361571264,266.616184102184L348.8159458885829,259.8101591842469L352.41313314655514,255.3815704467047L351.5820135003143,253.4482473555372L362.204429025118,242.36111661918585L372.7813919243852,301.11674054817286L381.1314905191833,298.8078622387111L382.6008728840883,304.92306457011136L393.1887890823742,302.85923490782716L397.04829011158097,323.03971952641086L393.7609024261243,323.6476479787216L395.50756092087636,333.7729872752225L403.11946399133626,332.24268660696134L403.6047956551391,338.40365233580224L405.4910765805143,340.70890810429864L405.6874772246043,343.9533049950078L404.67405305107025,344.1023566873332L406.0394076489978,352.9906157799983L408.87768832834263,352.5776281983576L408.29171511556325,355.0946788587594L409.9067836037907,356.2540437605021L411.436094152397,361.1114028564839L409.40168587676845,364.36628640736853L402.5725504094577,362.8146307603497L400.05170798044395,369.3793534146562L402.94023068502133,371.7253033170109L402.4044207482184,374.2477832417385L390.27994906978734,374.96444740462994L386.9259395138796,377.14937797144466L385.9816571869837,372.24217867152765L383.61815577115823,372.0552426433037L382.91098745362444,368.172525445877L381.5115344279142,368.43459118628016L383.63075565209397,364.9266434374149L362.4285422548112,360.3809147476327L365.53023919497485,358.5566546660648L357.3062969080493,339.893973167681L345.1633191544935,346.9264750791226L344.79532388190717,334.997408539582L340.87888714071914,315.6385792979172L344.327474552902,315.1273667948981Z" stroke="#FFFFFF" stroke-dasharray="1, 0" stroke-width="1"></path><text x="361.7387248287658" y="319.82527519962514" title="Franklin" class="hint " style="">Franklin</text></a><a id="s06" rel="nofollow " title="Aroostook" class="hint   "><path d="M404.1843901781955,137.32382163502552L406.1924174531142,125.118984679817L466.81579958559655,37.10087559210842L474.84420747024586,39.112404697249985L475.99654533109856,40.824007464956594L481.12595686014305,40.94739389208007L482.0483468939133,42.99524572228711L480.1966368918577,46.611647554220326L480.5313999784762,60.79364700782389L492.3569394816999,69.8551459411774L506.7064713841728,62.528790939835744L515.0110529090889,62.078259775053084L517.6775027121689,57.117448916340436L533.4173527266734,57.11628796957757L533.2869439589851,50.997255197664344L535.2685114839388,49.0413535143507L544.7630730140035,49.277912687504795L551.020016388308,52.719485194025765L552.4446691758907,56.12859103459414L566.996744164409,67.72039154765753L572.5853426043141,78.39995441131668L579.7347512951678,82.56259152359598L580.4765692852743,211.27195608647435L582.8920452099609,214.11767287636349L578.6800625115675,218.07862895391463L582.5261761672818,224.77487877898466L578.4682270133329,228.04516743693057L578.4910642975285,232.48440087489553L580.4138061283622,235.2169734129984L578.2134731706578,235.43301454526818L578.7399119460147,239.17132737667862L577.5788329177622,239.4443932177769L578.5560212300195,240.96219359929182L573.1933656087325,242.19570035110746L570.9346007031868,240.97636417094736L571.3526805024944,242.64577746250188L529.137330671227,252.42145268860577L528.8684019624989,161.34778833440578L498.52521119391747,159.78561079141127L498.5522221886746,139.57592349190418L403.8996591430216,139.46116750689725Z" stroke="#FFFFFF" stroke-dasharray="1, 0" stroke-width="1"></path><text x="506.9545354247913" y="129.0739142207" title="Aroostook" class="hint " style="">Aroostook</text></a><a id="s07" rel="nofollow " title="Somerset" class="hint   "><path d="M362.20741434438474,242.36022900814123L374.20793469410876,236.4978819183284L375.5350171536922,234.80179263484615L372.8479350455781,228.06244810487487L378.77255656019713,221.55094094373044L385.3341808053848,217.18940499743758L385.00374892783816,213.44593097317193L386.8256917111829,211.1930221093039L383.9850485541623,208.57144257314167L380.78097758139467,208.95856372416074L383.32969724697926,205.34042312254314L380.72900307253354,202.6070761294568L383.8208563557151,198.349920449431L381.4085304012629,197.73198589465665L382.0299407791756,195.37203865260926L383.25882291671456,193.4643608170618L385.8621158166026,193.39951226874018L387.0984003841917,188.364942404678L382.68670957296354,183.05899148638127L387.5272688315513,171.71903711010873L389.539233569262,170.73065214121834L389.3018833121305,167.41331221151722L390.6591267367055,165.0179298869989L395.5229957750229,162.80160997649L398.1570008846926,158.229551586659L401.254681612808,157.5756532174073L403.8996591430216,139.46116750689725L427.7019104467233,139.39916256573633L427.1138110040356,207.43735851384417L430.6585512576107,206.6724243712556L433.57211622554826,220.2171160156031L430.64799885732623,221.66795938570385L429.53369688705016,217.76164522718364L426.35474692689786,218.06380958561294L429.0156842820686,222.26319340145346L427.3354901592532,223.57443140545365L428.68320492386977,226.12592743607593L426.37766296034965,229.44790963227115L427.26949828285046,231.73424814980854L423.9578558265912,231.78459222204356L422.7405498296629,229.1797176577188L421.33227688729767,229.00874636823755L422.7384235997545,229.45366857673798L422.4150004059782,233.45802140600426L420.1076472095744,233.44831641475594L418.8823087885477,234.38161988587217L422.161191554374,235.55259548603271L420.33381507237516,236.30714401075784L422.8771797885618,239.82240415646993L426.3334058785613,241.0983196688744L425.9187910465117,244.14396255841802L427.6661582845673,243.55451080787816L430.00934239238427,244.93972519578074L428.0285623599892,244.8639157812845L429.23397721928427,246.87858221067927L427.84539159088223,248.35290870948438L428.2256717473816,251.62381945671495L423.0699579668824,256.438580061586L435.58801842605305,315.9542651424522L443.881732553661,314.38492728661686L445.49270608058407,313.01334826999437L445.1250258050204,311.18255658675525L456.4801960030528,308.9871648324847L463.47958736151116,348.06814298593645L458.7056499733744,348.8977752473352L457.43479448246575,344.97619121147955L454.3771971255792,344.4887215699805L451.6625527779188,350.38931399168496L447.34173860794215,351.2846689778776L447.446475118222,348.48563232110246L446.42171105184576,348.2517884445092L434.6311362182194,350.45667491297627L434.99637526685115,353.60279411232113L438.88548601625837,358.58376402675094L436.78666084934525,364.08150152035387L423.35613276264166,360.65646143193544L422.05527380525575,364.0742048473958L420.034961646425,363.6339569209358L419.72232710069966,360.7284710825825L417.2940937965661,359.1884390063892L411.21638372857547,360.36708732442185L408.29171511556325,355.0946788587594L408.87768832834263,352.5776281983576L406.0394076489978,352.9906157799983L404.67405305107025,344.1023566873332L405.6874772246043,343.9533049950078L405.4910765805143,340.70890810429864L403.6047956551391,338.40365233580224L403.11946399133626,332.24268660696134L395.50756092087636,333.7729872752225L393.7609024261243,323.6476479787216L397.04829011158097,323.03971952641086L393.1887890823742,302.85923490782716L382.6008728840883,304.92306457011136L381.1314905191833,298.8078622387111L372.7813919243852,301.11674054817286Z" stroke="#FFFFFF" stroke-dasharray="1, 0" stroke-width="1"></path><text x="399.8817254058725" y="258.729620614497" title="Somerset" class="hint " style="">Somerset</text></a><a id="s08" rel="nofollow " title="Waldo" class="hint   "><path d="M489.0332483892961,396.3824199009082L492.1589638524937,391.9651730625028L490.94236659886684,391.9651730625028L491.44746432588806,387.5028237472811L493.9319245987005,384.4108232578815L495.478953729873,387.51604224789344L492.5772011503126,391.73059223600194L493.4317880747964,394.17384392573194L489.98194067452096,402.25445782624365L490.66162550176267,397.7113385027724L490.21243974639356,395.7648340126375ZM488.2732393210874,403.4998692262229L489.1829507246677,400.72486609111957L489.8568081069755,400.31305876466195L489.23909894408735,402.7462552906177ZM487.8914629287269,404.82381060954776L488.23921964255993,405.03210070759496L488.0372747668332,405.3417982387641L487.78408696548695,405.34282070742165ZM487.19894197278205,399.5643509259212L488.57610895908675,397.1177475657664L489.7445116681322,397.6552483062919L488.7525072921899,400.3504369132829ZM446.92192632500604,383.5002279737978L449.4060716007928,376.6090628628576L453.30502600718114,377.35503225999673L455.1609884690544,367.6933329485564L451.66286777494247,366.9756375708048L453.5305638759356,357.1004372180196L448.21632784341176,356.36119114292796L449.60782719428073,353.55717067886917L447.0356402504522,353.08131665293513L446.90027027964686,351.3774986849735L451.6625527779188,350.38931399168496L454.03101539686236,344.5822041768224L457.43479448246575,344.97619121147955L458.7056499733744,348.8977752473352L468.32936028303175,347.21933782491124L470.01994930761936,356.6966792853359L497.2831779306516,350.26256718259083L498.93628230945467,352.07057732776684L499.2845902680798,353.8959058632445L496.4953703751292,359.1891028451687L500.3746374675553,365.094995261019L499.62714953102625,372.7988691700466L497.4746173716235,374.67063909331137L499.3650720075582,376.3551642082748L493.9172772371126,380.5499948640595L490.66162550176267,377.40335565206624L488.9196919623602,380.5218751609773L484.6159663809025,380.82853870838744L488.43538403888243,390.25983713669984L487.36754412955725,393.746652477922L484.1987528234097,395.25798225612834L482.2547486934967,400.2702935001912L474.91106558846235,399.54060194591284L463.31445017199303,387.54402131821143L457.192955517751,393.744451521472L453.4330722971936,389.93600361852396L452.23025616334183,391.5804384210901L444.6115019076219,389.94305083161225Z" stroke="#FFFFFF" stroke-dasharray="1, 0" stroke-width="1"></path><text x="464.12776442372774" y="372.2137697094308" title="Waldo" class="hint " style="">Waldo</text></a><a id="s09" rel="nofollow " title="Kennebec" class="hint   "><path d="M395.2976941540369,386.8027552933813L397.82586026384354,385.42861566160263L395.5500855190352,374.02900431826356L402.4044207482184,374.2477832417385L402.94023068502133,371.7253033170109L400.05170798044395,369.3793534146562L402.5725504094577,362.8146307603497L409.40168587676845,364.36628640736853L411.21638372857547,360.36708732442185L417.2940937965661,359.1884390063892L419.72232710069966,360.7284710825825L420.034961646425,363.6339569209358L422.05527380525575,364.0742048473958L423.35613276264166,360.65646143193544L436.78666084934525,364.08150152035387L438.88548601625837,358.58376402675094L434.99637526685115,353.60279411232113L434.6311362182194,350.45667491297627L446.42171105184576,348.2517884445092L447.6709892466504,349.613172083089L447.0356402504522,353.08131665293513L449.60782719428073,353.55717067886917L448.21632784341176,356.36119114292796L453.5305638759356,357.1004372180196L451.66286777494247,366.9756375708048L455.1609884690544,367.6933329485564L453.30502600718114,377.35503225999673L449.4060716007928,376.6090628628576L442.370691832412,398.2519790478091L433.28822515820866,396.9033727180449L432.0857240213795,402.62591947796636L432.7707637980192,414.1749890024389L417.1594325690621,409.184968245675L415.22062589003576,410.9601748379573L413.7889644186828,415.79068179014394L403.5828246127573,413.27702496935626L406.2283271137815,407.7870293066235L399.7744318505959,404.97816124637393L399.87546714585113,394.8300922900344Z" stroke="#FFFFFF" stroke-dasharray="1, 0" stroke-width="1"></path><text x="415.10778373405935" y="382.46071317830524" title="Kennebec" class="hint " style="">Kennebec</text></a><a id="s10" rel="nofollow " title="Penobscot" class="hint   "><path d="M456.4801960030528,308.9871648324847L495.78237461266247,301.2531744484959L493.86593272229777,292.0732036984041L502.1237371892394,290.3544809438599L495.72646264100933,258.1772012855763L487.27225752997873,259.8556723092038L488.29080040514225,252.0501590159979L487.7245145063251,242.9958778369205L498.1092576245182,240.4453455985199L498.71074444070024,159.78812282877607L528.8684019624989,161.34778833440578L529.137330671227,252.42145268860577L559.4570541615635,245.50787256100648L567.9818186058362,287.27504910897187L539.320711942211,292.45512866651416L541.9365259737797,306.0144711162234L531.9821475388071,307.89124860762877L533.6367481534712,317.4670902679377L523.7771050732853,319.3215742231482L528.1772984931599,343.51289465669515L514.6754235806557,345.9548996687017L512.2766424982102,350.09515562668275L508.8277400890047,348.096959157147L505.9956806008706,350.9271845165549L504.6522182960697,354.863954323052L497.2831779306516,350.26256718259083L470.01994930761936,356.6966792853359L468.32936028303175,347.21933782491124L463.47958736151116,348.06814298593645Z" stroke="#FFFFFF" stroke-dasharray="1, 0" stroke-width="1"></path><text x="503.0656960290339" y="271.72900990769676" title="Penobscot" class="hint " style="">Penobscot</text></a><a id="s11" rel="nofollow " title="Piscataquis" class="hint   "><path d="M419.0336648582917,234.38060439684432L420.1076472095744,233.44831641475594L422.4150004059782,233.45802140600426L421.91620261942484,232.25877751414055L422.8886771799163,230.88917523774398L422.33136869626645,229.96890340645905L422.7384235997545,229.45366857673798L421.50962021147177,229.30224046150488L421.33227688729767,229.00874636823755L422.7405498296629,229.1797176577188L423.9578558265912,231.78459222204356L427.26949828285046,231.73424814980854L426.37766296034965,229.44790963227115L428.68320492386977,226.12592743607593L427.3354901592532,223.57443140545365L429.0156842820686,222.26319340145346L428.4630220045132,220.5976400208633L427.4776325660624,220.03809779664562L427.4249493138988,219.14179916913645L426.74841445689157,218.76921801080562L426.4032564685009,218.38813082824845L426.35474692689786,218.06380958561294L429.53369688705016,217.76164522718364L430.64799885732623,221.66795938570385L433.57211622554826,220.2171160156031L430.6585512576107,206.6724243712556L427.1138110040356,207.43735851384417L427.7019104467233,139.39916256573633L498.5522221886746,139.57592349190418L498.1092576245182,240.4453455985199L487.7245145063251,242.9958778369205L488.29080040514225,252.0501590159979L487.27225752997873,259.8556723092038L495.72646264100933,258.1772012855763L497.7811094753922,267.7101529905817L502.1237371892394,290.3544809438599L493.86593272229777,292.0732036984041L495.78237461266247,301.2531744484959L445.1250258050204,311.18255658675525L445.49270608058407,313.01334826999437L443.881732553661,314.38492728661686L435.58801842605305,315.9542651424522L423.0699579668824,256.438580061586L428.2256717473816,251.62381945671495L427.84539159088223,248.35290870948438L429.23397721928427,246.87858221067927L428.0285623599892,244.8639157812845L430.00934239238427,244.93972519578074L425.9187910465117,244.14396255841802L426.3334058785613,241.0983196688744L422.8771797885618,239.82240415646993L420.33381507237516,236.30714401075784L422.161191554374,235.55259548603271Z" stroke="#FFFFFF" stroke-dasharray="1, 0" stroke-width="1"></path><text x="453.0605998302253" y="222.7081394428364" title="Piscataquis" class="hint " style="">Piscataquis</text></a><a id="s12" rel="nofollow " title="Hancock" class="hint   "><path d="M560.4644146423973,391.0583955665238L560.9443126075461,390.70179247446276L560.757204375647,391.89967622326094L560.5325327487063,391.60025364063813ZM555.0671768942059,387.57607593076455L555.591253191888,387.8381246781905L555.7784401730441,388.9985455839501L555.1045827907363,388.2498468653521ZM552.3531625405928,381.73631402784576L553.3077610200069,381.605332355683L553.9628760794224,382.59733099834966L553.1580586846352,382.91547027669776ZM552.0537578698516,379.6962039388841L552.6339823869541,378.12386077253814L553.4013151359559,378.6479442549239L552.6901306063749,380.63203753194557ZM551.4921969263851,385.0866879467667L551.600870899458,384.482788088108L553.0457622457939,383.12138158050584L552.6901306063749,385.9289677040065ZM550.612488989285,376.252211576078L551.0991593904375,376.47676316123443L551.7729380234903,377.3190652990984L551.2863463715928,377.22550612898385ZM550.1445609110236,382.91547027669776L550.6873795315979,382.3165484700153L551.0617534939092,382.1668368864307L550.1820455568092,383.6080248293547ZM548.9296961410273,383.18255845784097L549.1900411808668,382.84062187243035L549.3958917356581,383.0277963694343L549.3397435162375,383.3646526830639ZM548.7412491717765,384.9667940790655L549.1631089353658,384.92899619366926L549.2274470773953,385.14277723553687L548.9092213345045,385.27379726912886ZM548.2728485979823,376.08370998753435L549.5455940710287,376.2334526126965L550.1445609110236,376.7014172575796L548.1418098362477,376.2148039420081ZM547.7487723002993,383.62676234025093L547.8985533849261,383.47697095166495L548.2078017126494,383.5137853461042L548.1418098362477,383.7764400316578ZM547.2060324289821,400.95780154885733L547.6695505489155,400.56238891685416L548.0340021049885,401.36923806728464L547.5680427581253,401.62336371122365ZM547.1685477831966,373.16386065014194L547.4118829837735,373.27613608156844L547.5054370997234,373.53821486722563L546.9813608020424,373.3885199507763ZM546.4760268272528,375.2040535004735L547.1311418866683,375.1104636037335L547.1872901060899,375.3724677425412L546.7193620278296,375.5034658149025ZM546.3824727113027,383.7764400316578L547.2808442220398,383.6080248293547L547.3167538827072,383.9318454461895L546.6257291626234,384.0010602694124ZM544.3235734171051,398.5442756276602L546.3351444085371,398.71461091774745L546.6632138084079,399.4052530843719L544.301917371746,400.00676967818526ZM543.6335724373474,408.31782488978206L544.1790685326201,408.2194432263168L544.398463959418,408.44563097911805L543.9067536058901,408.92521071720967ZM543.3136929600844,410.58710569820414L544.1551287588422,410.33607591637156L544.0540147143308,411.93714318868933L543.5660055758285,411.80951572158665ZM541.9651907029091,397.3276058444635L543.6872006805809,397.1966102024144L543.8930512353722,397.4961034716134L542.5080093234834,397.926566366878ZM542.0213389223308,396.2420546541621L542.3208223423272,396.3169678337308L542.2834164457988,396.56029216997376L541.9277848063807,396.5040819820356ZM541.6040466155807,399.2073373817352L543.5000136994257,399.3303756893629L544.4171275330551,401.2582198380305L541.6270413982897,401.57928813663784ZM539.2886609950806,396.4479813069652L540.1309630356523,397.00951610454695L540.3180712675512,397.3089080563186L539.3822151110305,397.1966102024144ZM536.2752419707242,406.3492485043703L536.9864265003062,404.7021950946669L538.4838436002934,405.9187966125437L536.7431700489856,406.7236601570653ZM536.0505703437846,379.63995695941003L536.6869430803088,379.7148425355599L536.8928723843571,380.05176171991843L536.3313901901458,380.5010334195367ZM535.3580493878405,407.82798798314934L535.8073138924639,407.15416834957705L536.8741300614639,408.2023141231889L535.7698292466794,409.23173666839784ZM533.9542651530585,411.66498527891554L534.2163426765267,412.33877470199286L533.9542651530585,412.46979336725053L533.8981169336369,411.8895163798102ZM533.5817024236319,415.12163858861504L535.6762751307303,413.48054513247007L537.2672463466665,415.48325952996765L534.2350062501628,416.9244975098327ZM533.6301332159798,407.03973503705356L534.861614078962,405.785778002582L535.6949387043665,406.1620894744351L534.0665615918998,407.82798798314934ZM533.1494477582714,411.79601757073715L533.5424852942189,411.72106391247144L533.2430018742214,412.33877470199286L533.0462074838516,412.05006341704075ZM532.1948492788574,382.57859049585295L532.587965564061,382.18557858578015L532.9810031000085,382.9529492690276L532.4756691252187,383.28980949255674ZM531.169533967691,415.4112001875137L531.3794794837877,415.3787348338865L531.6333670846481,415.38970287694974L531.4461801034919,415.7826756157833ZM528.9380950539262,395.3810957699802L529.3686172356572,395.9613150133723L529.2141111956807,396.2129031821564L528.8565108248656,395.54777386714613ZM527.3141278997876,393.36004297375575L527.9460906779839,393.3408934813815L527.8899424585622,394.9318686356446L527.347123837989,394.6885929984028ZM527.2590821699482,389.7869092134961L527.7933958708902,388.3513965606703L530.0985440881315,386.37816064698063L529.2375784739237,391.9932429331052ZM526.9166804055131,399.0496602024423L527.4032720574096,399.18061829770113L527.5343108191441,399.48012961220775L527.1412732831967,399.7047539929854ZM526.2428230232044,403.9909127848273L526.3926041078312,403.87862103541147L526.6171969855158,404.57112902237577L526.2428230232044,404.2156003070313ZM526.2145520403546,405.47480475575776L526.6358605591519,404.8893963477585L527.4981649107084,405.470850213449L527.077722633726,405.91044870420865ZM525.6111752420318,416.4148039401912L526.010985213982,416.3067849894469L526.2428230232044,416.4752279693198L525.9886991745766,416.8283299095465ZM525.2320763243698,402.6059182400936L525.7562313713079,402.2314880474669L526.4112676814673,402.9427440250033L525.4754115249466,403.48558456396177ZM524.5957035878455,405.35726593905656L525.3257091895749,403.8037954119782L526.1305265843621,404.8519345585951L525.5690443901517,405.8626677059101ZM524.3898530330542,396.5789921241162L526.2803076689889,397.9078703113555L526.3177135655174,398.67524396091085L524.9210955130179,398.0612863446472ZM523.5662933153749,411.62756267217765L524.0342213936362,411.9082818232637L523.7885237153836,412.07190101834385ZM523.7721438701672,410.7103668699974L527.684091903771,406.573854162953L527.9460906779839,408.63283379840186L530.0237322950737,408.4081897657643L529.8135505312096,406.67138221277946L533.0558936423214,410.50445464058885L528.7049972566103,414.8564151379478L527.347123837989,410.0178567128655L525.1212761213885,411.95448189392937ZM522.3904881762792,415.1808681497964L523.3137444518642,413.6434663708569L524.5775912590005,414.06013114772895L523.5789719455668,417.0073956876049ZM521.4698306261366,390.96558597545936L522.4007255795391,385.7406653566936L523.755921523462,385.6019417379748L525.5340009712982,392.50893629443226L524.5387678758663,393.36521552805016ZM519.6918299275565,402.62460071693386L519.9351651281323,402.5309679964407L521.6359915559808,402.88658929670055L520.3282026640787,403.4294345474268ZM518.157085680295,403.8037954119782L518.512638570458,403.7101797570126L519.1677536298735,404.2156003070313L518.774716093927,404.3465637133222ZM516.8875689267381,411.481930705128L517.3703018650976,411.1957055128505L517.6686827955139,411.3438681383418L517.1650813043527,411.97379584006785ZM516.8281132385707,402.2128044351907L517.4458224014589,402.100481816874L517.8762658339347,402.43744382054183L516.9965578968347,402.75559633313287ZM516.102360096658,411.5901398492597L516.3601851603104,411.5432787075115L516.5099662449372,411.67431346101057L516.3789274832036,411.9925610394057ZM515.5553677655242,407.98709845307485L516.2478887214681,408.1180953736575L516.238517560023,408.33945547916255L515.443071326681,408.2865317772539ZM515.1809938032129,411.89895397805003L515.798702966101,412.0112164468578L515.8735935084139,412.38552035893326L515.5553677655242,412.7411493960758ZM514.3200281890051,411.07541691851657L514.9377373518922,410.3079757812984L515.235409539006,411.3437583895002L514.6007692861103,411.6555473398289ZM514.2826222924757,411.97379584006785L514.6007692861103,411.9925610394057L514.6382539318959,412.61013621794746L514.132841207849,412.1796613700926ZM513.8334365371086,413.864198915383L514.5072151701603,413.3026984850926L515.349517210732,413.4898707010775L514.493827796666,414.4867514471098ZM513.2718755936421,412.497884126441L513.870842433637,412.7599123730665L513.870842433637,412.9283378330688L513.2718755936421,412.6663163976509ZM513.2344696971138,411.00045492204436L513.5526166907463,410.83208909126006L514.1141776342129,411.3748172366868L513.3280238130637,411.6930795278349ZM512.8414321611663,413.5460432539812L513.3280238130637,413.3401114177909L513.6462495559534,413.4711098376356L512.8521420599611,414.0422495602911ZM512.2424653211704,412.9096850661058L512.4670581988549,412.6850795913424L512.7477992959612,412.7411493960758L512.4858005217473,413.227871971671ZM512.0740206629075,411.2813109987046L512.2237229982782,410.92560181398494L512.7852051924885,410.85074784092785L512.5232064182766,411.2999684544475ZM511.6247561582833,411.5994681391271L512.1675747788586,411.63689090815797L512.1301688823281,411.91760965504955L511.8493490359678,412.12347697041423ZM511.4297730007992,413.4620036679639L511.942981901174,413.37752413448516L512.0178724434869,413.5460432539812L511.9242395782817,413.73320844156433ZM505.6235903669799,403.16285267301237L508.4990406950856,401.74492720567696L510.4269012275487,396.87840402048687L514.0392870919,399.1994206276072L518.8682702098771,406.29312333052394L515.9109994049423,406.5365119530438L516.8842614579924,405.9001236447989L515.798702966101,404.5149884257553L514.3761764084257,405.63803736590535L514.8441044866871,407.7530981960417L510.6327517823419,410.8975042363586L510.772374212963,412.79688954294124L506.487627202166,409.30101040156114L507.09966641863156,406.0367645870174L505.6198104026982,405.40900525130337L506.7597058811275,404.2498795755246ZM504.67859929677957,394.5053875230424L505.5230275672596,393.6216369631388L509.5284509675563,395.9800167009239L509.4723027481357,397.60839612201335L507.22464148766574,397.5028124898563ZM504.18531395813545,394.5213425607617L504.3850220709712,394.5817512775693L504.39431448316117,394.7647345264818L504.26422071249755,394.7622038253694ZM503.5888670943277,397.89632272063864L505.0176148432147,398.0763528124926L505.7102145484148,398.76882256370254L503.8639382450123,398.77662988297425ZM503.01494251769395,400.6405499615289L503.38923773074816,400.4159580877799L504.19405512553533,400.94010358538526L503.3330895113265,401.2770161276894ZM501.2367843206006,404.40270577123783L502.25296471808826,403.5243728426444L502.7887746548912,403.75830628403355L501.81700883770316,405.5444482437251ZM500.38865483509596,396.27516616661796L500.7314503458108,396.09233569743947L501.4052289788634,396.4104705839063L500.61419270385045,396.8085571515053ZM500.28218584118656,401.70744720372795L501.18677854313546,401.8301082205626L501.71991100523996,402.7703221845263L500.47016031490034,403.0387883600192ZM499.3838143304494,395.1939490990276L499.89237702472974,395.37196410642673L500.2073740481288,395.9052096259543L499.177885026403,395.2500606628437ZM498.2233652962442,395.4934251778636L498.44063449313575,395.4198226816211L498.8597380327684,395.39979913696925L498.72869927103386,395.71796812100683ZM497.92246438964287,398.95377652274146L498.31833689880006,398.822923793663L498.95329214871845,399.2368052146785L498.3562152908634,399.37677558698897ZM497.84733759956146,403.8055534394898L498.1893456177177,403.4381153059021L498.2795135156658,402.79307026220795L498.4853640704571,403.65403168968714ZM497.76276089877774,401.9481507660562L498.3943299306952,401.0039699212516L499.0094403681401,401.50157810018163L498.7661051675633,402.75559633313287ZM496.4953703751292,359.1891028451687L498.9948717558073,352.2976365161071L501.34238707269515,351.97676077093274L502.88957370237995,353.18895998146536L502.45133409357527,354.43558625260175L504.6522182960697,354.863954323052L505.9956806008706,350.9271845165549L508.8277400890047,348.096959157147L512.2766424982102,350.09515562668275L514.6754235806557,345.9548996687017L528.1772984931599,343.51289465669515L523.7771050732853,319.3215742231482L533.6367481534712,317.4670902679377L531.9821475388071,307.89124860762877L541.9365259737797,306.0144711162234L539.320711942211,292.45512866651416L558.9079356005215,288.9831950039261L564.6671836778539,322.08565364384094L554.9679528318354,323.9545942605919L560.510325458557,353.36216006584164L561.9730928859705,353.0815381431198L563.7458173844097,362.4342333173636L561.8819799969524,362.7742698900497L563.9156007800225,372.3075442709951L565.3667133175701,373.87269756800833L563.8080292965308,376.9447101308906L561.3374288927497,374.5488956583281L561.0753513692816,376.1398776735077L564.6877372336319,378.23627039775874L566.4846377536165,383.7764400316578L564.5192925753689,385.3674600857921L562.6475802623256,382.2042099858377L561.4122406858074,382.74703258637874L562.1235039646446,385.198976230211L561.23324362726,388.4301460378142L559.8213482191263,388.08143826264995L559.7090517802841,390.85152633521284L558.4849733473519,391.1411854400817L557.2478225379491,389.3864074146891L557.1260761884046,384.9181967571585L555.8907366118854,384.73107711904095L555.9156213767342,386.85045709747874L554.395209494038,383.4742153747652L553.6821349823161,374.94204250967323L550.5001925504428,372.4900565270118L550.0696703687107,374.399224237678L551.0804170675453,374.9606948660812L547.9169807107957,375.72064967146116L549.0215177733478,375.3724677425412L546.588323266094,370.3937799066016L545.6150612130439,376.4207087566815L542.4143764582773,374.0249200799867L542.1328478686135,375.76699893648356L540.0748148162306,375.74680394058396L542.133635361173,376.8885494624924L541.1431272210907,377.96235813320754L535.2832375947828,377.24426220358146L534.3098967924766,380.2202698469091L536.6307948608871,381.23100558360784L538.1282119608753,378.76034473758364L543.752405064425,379.980519393529L543.5541144381951,382.0167910822852L548.706205752924,387.04919245826295L549.5664626238294,391.5365144676357L545.0535002695794,395.9987183343469L538.2592507226088,395.28746810132634L540.3180712675512,400.58448517294937L538.2281447665483,402.8979081950547L535.5452363689948,401.5764303583396L534.5292922192746,402.75856348499156L534.1197173395993,400.8964630585515L531.1654390063867,399.42394480983603L529.3086103027007,393.27431003438915L531.0273915608818,391.84221458360935L530.9782520252315,390.19641505429263L530.0474358210852,390.50636254247L531.8930033811852,386.2729441091524L535.3393858142035,383.589287264012L532.3071457176997,379.7523401407075L532.3242343062186,381.6572622764206L529.3124690162376,383.9823238460058L529.7429124487134,372.80825366269346L528.8070562921907,374.53024210909143L526.4674159008889,373.68790630325384L526.8438373438514,385.9198226614044L525.1771093437866,384.9544519367587L525.4567479513105,377.6747542702219L523.8880627747787,382.0862469584217L518.6328099348854,384.26060924086505L520.2854418181535,388.60724624661316L518.6498985234042,393.23050765694325L519.91642280524,395.54953414093916L521.4325822281195,394.613660936408L522.3683596353851,398.48808269137453L519.5046429464003,397.5334979107438L522.0876185382799,401.5951158089597L521.1390050023111,402.4330478213069L505.0176148432147,391.0106147574311L500.6273438295773,393.7969441284313L498.0968152420938,393.32372492270724L499.4773684463994,386.51852014233145L498.52442370135986,382.66380422382053L500.4392118573512,378.0261212709029L501.5550100634903,378.4514868875294L501.9854534959661,373.192012490917L499.95907764443393,369.42475418609456L500.3746374675553,365.094995261019ZM496.19990316717895,402.01915111058634L496.3651191059532,401.6856845222824L496.44520709915275,402.43744382054183L496.11753144555973,402.50668041446716ZM495.2738906676393,399.171162134508L495.49682981095054,398.9598242739189L495.60290505858006,398.99347165897234L495.50935094263104,399.51751257616024Z" stroke="#FFFFFF" stroke-dasharray="1, 0" stroke-width="1"></path><text x="526.0491659599211" y="354.1022133152985" title="Hancock" class="hint " style="">Hancock</text></a><a id="s13" rel="nofollow " title="Cumberland" class="hint   "><path d="M410.34376322450186,457.0713430957144L410.67411635279234,456.9884089789416L411.16070800468975,457.718432777011L410.54244759701146,457.7516682213395ZM406.2006861249791,445.3651384835907L406.5001695449755,444.8036243423512L406.799652964974,444.6912720307514L406.5001695449755,445.96404811389175ZM404.32897381193567,447.59248515823265L405.75150036960997,446.22604012027614L405.9948355701868,446.7502108352314L405.00283119424444,448.2100692646486ZM402.775487241783,458.72915048791583L403.4680081977279,457.47510058242506L404.08563861135985,457.6622045580257L403.2808212165727,458.7477812667353ZM401.89577930468295,450.2128043621774L403.07497066178144,448.43475975949104L403.6119618374218,448.4497097506983L402.40111327947164,451.3545953425146ZM401.87703698179064,457.8681543936664L402.3637073829433,457.2691383453871L402.5883002606278,457.2130152334703L402.06422396294585,458.148845929486ZM400.9171623022359,455.3037791568122L401.8022251887329,453.69416776476874L402.21392629831644,453.28243420509443L400.9101536184646,455.7599670066079ZM400.94118082526995,453.5444593897505L400.99732904469056,453.02039849470657L401.4091089035293,452.6460279249791L401.54014766526484,453.245032331979ZM399.91177055279826,451.0738295120291L400.09895753395443,450.811814129745L400.77273616700705,450.79305159182877L399.8743646562699,451.63534908489146ZM399.5373965904879,449.8010691404879L400.1551057533751,449.08979910763264L400.4919950699009,448.977520675649L400.22991754643283,449.8010691404879ZM399.3128037128034,458.9724359462193L399.5373965904879,458.69167086538664L400.06178788519355,458.2822137651506L399.495816983399,459.5860023588125ZM398.67643097628013,458.7104107035452L399.1443590545405,458.111471937787L399.46258479743017,458.0739887691143L399.10695315801206,458.80400013670624ZM398.17109700149035,457.718432777011L398.62028275685947,456.93228345316265L398.9385084997492,456.81992196977444L398.6951732991724,457.47510058242506ZM397.7679008115392,463.018927811449L398.4275833277941,461.6721544587781L398.86802791576326,461.32441795444856L398.17645195088835,463.3664652598354ZM396.7111645472887,451.56041715900983L398.17645195088835,450.71341928936454L398.67934469874604,451.06172162272424L397.7054526516497,451.9754223176369ZM396.4333371726495,461.8312597902154L397.8107404067207,459.69788050221587L398.40687227350577,459.2008959445534L398.3603314632977,461.2404487390618ZM396.09345538440056,459.8708684443973L396.61753168208156,459.29066535383527L396.93575742497126,459.25318895439887L396.1121977072928,460.338827972374ZM393.41810691540843,459.20547159963553L395.69167668105325,455.3503259491981L398.2829209447977,453.8181407085658L395.959975395735,459.3748775248432L395.7193176698577,458.0985054008793ZM393.11744225657355,454.9295396002203L394.27789129077877,452.0845953712892L395.775308390766,451.6727601899802L395.1950838736634,453.37599247039407L396.6550163278671,453.301189582598ZM392.0708646463278,462.1188592518847L394.6710075759824,459.51519241677715L395.2137474473005,460.09548448837677L393.7912996388823,462.3415468432963ZM390.96498884642597,456.0525208771828L391.22698762063885,455.7157121867026L391.82595446063374,455.397417448105L391.58261926005696,456.07126829357776ZM390.2537255675888,458.69167086538664L390.7403959687424,457.92427187324165L391.03987938873985,457.81192746429224L390.21631967106043,459.12212880797824ZM389.89809392817074,465.5796230222195L389.93557857395524,464.38164345303494L391.32062048584504,463.05278957239443L391.5967153768547,465.20531881043416ZM389.22337030404816,466.71883875411095L389.71980561292673,466.0975620082563L390.72165364585015,466.27212181715777L389.52230247925445,467.5723586647173ZM388.89120594287203,464.0322004489544L389.8405282221442,461.92839816947935L391.39551102815796,460.90031336509537L390.534466664694,463.2399515741313ZM386.9969713426576,476.95960233087044L388.0680399714724,476.97003260239626L386.40658817155025,477.79179886863903ZM337.4966853512178,418.85599095324324L338.129593120484,417.1497236848895L341.0230770281805,419.1428646508484L356.57400757790026,408.83649992667097L359.4952899729115,413.9879462776162L357.3967010537649,420.813649059191L359.86084401856783,425.5408960631835L361.33660507319587,424.8510631347431L362.8924541210234,426.9693914632362L366.17810932285255,422.92584552309563L374.08587334754054,428.6704525245859L374.6079809138255,427.2492285047624L377.084645010308,429.07137785091663L380.9039839190318,423.4474062970726L389.7024020273832,433.2856715132184L396.6155629506865,437.79246828907344L403.0432347116737,430.25157240774115L404.16438786720965,433.5165652115784L407.6116365420428,436.8561145726808L411.1502343536614,437.22253940838755L415.6101197094699,432.6663415241069L416.9980753438257,433.6341417507024L413.933075556888,442.2146615575025L415.5926373746703,443.834972377128L415.9695313131688,447.62708189237173L414.6073827654975,451.9489928296457L411.1045597852681,451.22359460817734L410.15004005511133,453.4509035406527L409.2328474722257,452.51505312964355L407.323729262655,454.4803801875005L405.63920393076774,459.2157123398624L406.1632802284497,455.6033297558715L403.65519517888407,457.1942710963617L404.08563861135985,455.28513854497123L402.19526272468033,456.35203711007216L402.3263014864149,455.11671656773933L409.6259637574293,442.5388433558487L406.31298256382036,444.16715400892144L403.67677247498614,446.98084568974264L406.706098849024,442.5763067213975L404.22770226891294,443.0343690444033L400.1737693270112,448.5282784839037L400.6416974052725,446.46946491777226L399.4438424745389,446.52557140654653L391.8777714709836,453.7224080708752L391.9236822871443,451.9423755684411L391.0211370658466,452.34655962053057L390.4783184452733,455.8092355663648L388.5722714566808,458.1706382457196L388.8311990099155,460.6382565488698L387.4704118688272,459.8220662647991L387.9328274991783,461.5741410320161L386.6389772255627,461.0734872866169L385.8189612243975,463.06879490957454L389.39968988789514,468.676633301262L388.64401202875933,471.58776071734064L390.2328570147892,475.01982625061964L386.49856730238207,476.46479723918037L384.2805157621115,475.29478325271884L381.082350983533,479.16816763472707L379.84701140701384,477.67077842302297L377.9100995933678,478.25127459091345L366.99410911197054,470.49463559355763L369.69253111292585,466.6214450934085L362.43011723992845,458.62651682342084L360.2695526564283,461.74304992086263L353.9719746661058,460.1791416417427L355.1031289771342,454.65361547840894L354.3172901530078,450.8046145576277L350.99667028158024,448.8780069793238L347.04574136633175,450.7521447086151L344.2886511697677,449.06208430030574L342.61357574858175,443.3434391493356L347.15961279029125,440.07223107109803L346.0527132500623,437.7756356621062L348.2698197992629,435.428916092299L346.8738317408108,433.5073777459311L349.400816611781,431.7665562197503L343.32822524542183,423.1918347042565L338.9540190799782,422.16396939376Z" stroke="#FFFFFF" stroke-dasharray="1, 0" stroke-width="1"></path><text x="365.32267690768725" y="444.3540757575136" title="Cumberland" class="hint " style="">Cumberland</text></a><a id="s14" rel="nofollow " title="Washington" class="hint   "><path d="M616.5831030924916,360.2848965066928L618.2521148209762,358.95553800048856L621.4348447454092,360.61000316449736L617.7303222517148,361.8814005010977ZM615.8962520829682,355.730899767083L616.2177065453476,355.89406859160226L615.6529168823915,356.1988090291461ZM615.3721757852873,352.73611491035217L615.7652133212337,352.39920136675937L615.9898061989184,352.2868929209785L615.6904015281759,352.9419978124156ZM613.9683915505052,356.8913672693948L614.0806879893476,356.6292731442695L614.2491326476104,356.61056753798675L614.1180938858759,357.0224103202909ZM613.6689081305078,363.81671543363063L613.9871338733975,363.3674938803306L614.3789114212514,363.31928610878003L614.008947417268,364.2015637678901ZM613.5192057951361,356.1613952537946L613.5566116916646,355.8057321173078L613.8935010081923,355.59983035362256L613.8935010081923,356.3859853237709ZM613.0137930710913,364.88353228118376L613.4443152528232,364.4530681138558L613.5253482370927,364.5465920554698L613.0705712845593,365.16993969754776ZM612.90149663225,353.91528376565293L613.3132764910897,354.08381368407254L614.3989137322372,353.8965702494379L613.949649227612,354.53302063350566ZM612.5272014191938,362.3193355926428L612.6394978580361,361.72037443822137L612.9635510458597,361.35440116118843L613.112623387183,361.6049109586543ZM611.0297843192066,361.7390651703704L611.404158281517,361.21504048991164L611.7784534945731,361.3834895549485L611.2543771968901,362.0385518546691ZM610.7962927756118,364.3875121049464L610.9362302032575,364.17226701743766L611.1046748615205,364.3969088757667L610.8117276297585,364.6134729996961ZM610.7490432221014,362.84338081476017L611.0111207455705,362.71234587027175L611.0672689649912,363.2364696204636L610.7984977547753,363.42377267914753ZM609.8850851361715,364.57069138497764L610.207563338877,364.31808612552004L610.0003740467359,365.10814928875106L609.8540579293661,364.99374150806034ZM608.1660676302218,361.8514296095673L608.3719969342703,361.70168365170866L608.4281451536909,361.8514296095673L608.2982088815386,362.0918563670739ZM607.0337320803551,366.4983451436465L607.85508681887,366.10910291516984L607.9976229719589,366.28737038068357L607.7168818748537,366.4744740667006ZM605.380155206017,364.7763058441019L605.9451023674844,364.28049849897934L606.2569494206512,364.62154288476995L605.7183045106374,364.92299558154446ZM604.622429866228,365.06857658620993L604.8667100578747,364.9845666896467L605.0028675212407,365.10814928875106L604.6410146906089,365.25505252625ZM603.924947707166,365.88341562550795L604.1052835030621,365.43212781405464L604.3103465652948,365.42638012847965L604.0649638840669,365.9825554349063ZM603.2996786157164,361.1588529516089L603.3744904087741,361.0839723386316L603.6739738287715,361.551160010466L603.2809362928241,361.3834895549485ZM602.0268543934137,359.04383115715564L602.2701895939905,359.04383115715564L602.7942658916714,359.1935284352767L602.3076742397741,359.68021410245774ZM599.7089487967244,369.07103945780773L600.0166221393305,368.9860875842278L600.3134280846294,369.08495864353245L599.9495277733465,369.39758004022224ZM599.3357560732513,362.7462935764265L600.7915148168955,363.3113251575942L601.4908869580975,361.8253293835178L604.0671688632312,363.7332419844488L601.0348500174714,363.81671543363063L603.4681232739792,366.0253276566282L601.1628175582266,366.6263191286648ZM597.590908811384,371.4532121117477L599.8764484639173,370.45132260929677L601.7756442672518,373.0137154202316L599.5375116667393,375.7019995159485ZM594.521341567608,378.77159570836966L594.5961533606646,378.7154509625002L595.0822725170262,378.78935455365263L594.7412094899408,379.04558387386896ZM593.7974784078331,377.83670539719196L594.2967486899234,378.5845181908244L594.0534134893467,378.8464913759881L593.6180876030078,378.2637382023295ZM593.0614091134044,371.7526884830331L593.3234078876171,370.2366117069755L594.8020826647121,370.1242832416615L594.521341567608,371.6217244982108L596.524092642384,370.21794565733717L595.4757825485086,373.2636611303228L597.6788717301675,375.6970334891039L597.3674184232816,377.49956004755586L595.5882364858633,378.4347198948658L593.5806817064785,374.04887354858465L594.3502981839017,372.39079611736224ZM592.9322603338096,376.5406513464036L593.4357043264584,376.6566194728184L593.4918525458801,376.88115696083514L593.2860019910888,377.0122346870821ZM591.994514195149,373.64319794239555L592.1442165305197,372.70734204792325L592.4062940539887,372.76342878619334L592.2565917186171,373.9801036736094ZM590.9837674963144,371.0227456315338L591.208360373998,370.6859059613753L592.7245197968784,371.15383223916524L591.1896968003618,372.1083537858199ZM589.7859125655798,371.0040818620023L590.066653662685,370.854328000255L590.1228018821057,371.17249557442256L589.9356149009515,371.3409048799017ZM589.2820748266512,369.925798357448L589.6189641431779,369.13975133602025L590.1242981179677,369.21453818937243L589.6002218202857,370.22534581367245ZM588.9264431872331,373.6692502595529L589.6751123625986,373.16386065014194L589.7874088014408,373.23871115531665L589.0761455226047,373.9687339445486ZM588.6994878318737,375.8873951116311L589.0169260822048,375.5662600707906L588.9264431872331,376.4207087566815L588.8141467483917,376.3645435195617ZM588.6831079866563,376.7014172575796L589.236400258259,376.64370970854543L589.3382230460728,376.73882206579447L589.2633325037599,376.96346702305436ZM588.6269597672356,374.53024210909143L588.9264431872331,374.6424937167876L589.705667073869,374.2966818535415L588.9755039736283,375.2798735634242ZM586.9610980089856,373.9687339445486L587.4103625136097,374.1184153718723L587.4412322219018,374.4231763138873L586.9747216302474,374.2678725583478ZM586.1825041163969,376.9517715555271L586.5199446777139,376.9665563882886L586.4745063570881,377.24426220358146L586.3247252724613,377.3752222144676ZM583.6461480839795,375.9221561917134L584.1722718623137,376.0088925448763L584.2471624046266,376.4581151949719L583.8915307652085,376.7014172575796ZM583.181606223721,376.454363526595L583.4797509063687,376.4581151949719L583.4610085834775,376.64525446802645L583.3113062481059,376.776336994516ZM582.1932243135471,372.79997322871577L582.3957673995936,372.86621640232215L582.6887146313558,372.05612599229016L582.8033735478739,373.1864925318414ZM581.6267809162186,369.19586917445895L582.1695207875367,368.97128441217046L582.2256690069584,369.1584205137724L581.9636702327455,369.38299874389986ZM581.6641868127481,368.4658571701193L581.8700373675392,368.3722797264136L582.0384820258022,368.48463878346774L581.5518903739057,368.82148323231695ZM579.6052875185504,374.7360904148113L580.5785495716004,375.1478776525223L579.8521664356394,375.6693340246834ZM578.5197290266581,370.71197025042784L578.6694313620297,370.5061036677371L578.7989738879022,371.187956284537L578.6506890391365,371.0862462171858ZM577.4528341084028,371.44194834800464L579.6801780608633,373.29490366179334L579.2496558791324,374.5114781293105L578.5009867037649,374.1746002011955ZM577.0671202532494,378.69239728077264L577.2800582410671,378.45567862887765L577.3030530237761,378.98491922140147L577.1133460664328,379.1017257434164ZM576.1613463124621,368.5782145927874L576.9661637072493,368.1102114474629L577.0784601460915,370.67453041229965L576.4046815130389,370.4124454462021ZM576.236236854776,374.2307845402702L576.9287578107198,373.65048377052517L577.2094989078261,374.0249200799867L576.4608297324605,374.8671014325423ZM575.880605215358,367.7171995021358L576.1426039895708,366.8561796498957L576.9475001336132,367.155649062699L576.9475001336132,367.6422847450126ZM575.6746759113095,376.776336994516L576.5754098997214,377.40170074737216L575.7843736247094,378.4277704048545L575.9367534347775,377.93676444717585ZM574.6078597423094,378.1613676368461L575.0570454976785,377.80570553057623L575.4314194599888,378.1613676368461L575.356528917675,378.4047156938386ZM573.091779068686,386.4530781830126L573.3725201657912,386.41561952373877L573.9901505794232,387.2016549050595L573.8404482440516,387.4076497435185ZM573.0356308492644,378.610550529193L574.0276352252067,377.63724457298486L574.6452656388387,381.5865889694496L573.5597071469474,381.39937262694093ZM556.011065474825,323.74488446085843L564.6671836778539,322.08565364384094L558.9079356005215,288.9831950039261L567.9818186058362,287.27504910897187L559.4570541615635,245.50787256100648L571.3526805024944,242.64577746250188L570.9346007031868,240.97636417094736L573.1933656087325,242.19570035110746L581.4567612728385,241.26197528191096L585.2561766198337,242.95903201135707L584.507507444468,239.97346690833774L591.1301623629392,248.46943045091894L591.6750284641648,247.17710088845752L594.0679033524232,249.30235754713658L602.656375944678,251.46144504315407L603.093749311669,249.8669608717596L606.1243356738003,249.47491810640986L608.4831908835293,252.35349632672796L607.7278280214161,258.0106111563673L609.1911466936217,261.00406795858953L605.5356062370654,260.26875917792177L605.4159861174292,261.6258225933816L602.3156279146152,262.53475071127696L604.7734709389493,269.85455140565364L609.0112046440044,275.02050262733155L605.7189345046836,283.63369275572495L603.4526096705765,285.7713707934313L607.3391216945415,291.83840236792867L608.2125296911737,295.62033191332375L610.4608996949462,297.389802864137L610.1229866380943,299.3389248282165L614.7726577005003,303.08291480461L618.6637371813046,300.676045769701L619.6524340885012,295.7534196846841L624.0856234465762,298.922789951539L629.5512155488431,299.2185321893753L634.8378893418217,309.51659870935964L632.7193768609444,310.8534799637555L634.4261882322371,312.7938058401478L633.62137083745,313.4863975115586L635.5239528587854,313.8762885157089L639.3511666930953,323.86169978758016L643.2105102237917,326.90548791981973L642.3997078855604,329.2087760577374L643.5596056749735,333.19479328241687L642.2610304460081,334.4517569973873L643.3729699386095,338.13680522933555L645.932950747781,337.4759666584491L640.4343627073117,342.77862527753587L636.5598993194924,342.85349798698417L636.2039526830507,345.8479109476789L633.7898154957129,346.0728623647733L633.7695769369595,348.6311431875474L629.8221129889682,354.02966756334035L627.2916631507408,354.6346608319527L627.0699839955232,356.52954617623845L623.5382373691626,357.45171253009266L623.0274696957188,354.2896533564617L620.5006423232609,354.47688532419215L620.76271984673,357.13463594243285L622.5855288718885,358.64871537646377L619.3589356119479,358.91282934633455L618.4845826242447,355.5505679311764L616.3006295117578,355.2917402740577L616.6253914428839,353.388959149795L617.8241126154313,354.60786694892704L617.6900813819757,349.6721200604393L613.8186892151346,350.0783145135215L613.6127599110862,351.91262800230834L610.7677855449947,351.23880750513945L610.093928162685,352.5302254024232L612.3961626574593,353.01686268456433L611.4229006044102,354.0463875798391L613.4817211493526,357.1159318082805L612.2551227402323,359.38194510582343L611.1608230809411,358.7630148790622L610.0550260302964,362.2048781652311L608.3345122884848,357.0224103202909L606.6313233829624,357.6400696382443L607.922732429646,360.8032452266748L605.8847804375032,361.93304742900636L603.3183421893525,360.76574765076293L603.1140666196774,358.3744104018533L602.1555306774724,357.49199618333705L600.042845641528,359.97968613904914L599.1973936307229,358.62990500203523L596.7019872113491,365.91701501864645L597.5160970183263,369.07623153854274L587.8034000495562,368.5033098623835L585.8329361696782,373.32956834259903L583.4487236995644,372.9028706654444L582.543894749848,367.436430410743L581.0352165062739,367.37808724339175L580.3767152288565,370.964766288736L578.7877127443153,369.97472981294595L578.6320254654994,367.9043720879499L575.2254901559413,365.65827305704124L575.6746759113095,367.75465655350763L573.8217059211604,369.7386845741544L574.9205730372909,374.28465040110814L573.5783707205835,376.47676316123443L571.781548949854,374.71743740782995L572.9045920875309,377.5998449809613L571.1466724491918,384.3019377308797L569.7787978750781,376.8885494624924L568.1691630855038,382.55984993888706L564.65436090108,375.558663498834L565.3667133175701,373.87269756800833L563.9156007800225,372.3075442709951L561.8819799969524,362.7742698900497L563.7458173844097,362.4342333173636L561.9730928859705,353.0815381431198L560.510325458557,353.36216006584164L554.9679528318354,323.9545942605919Z" stroke="#FFFFFF" stroke-dasharray="1, 0" stroke-width="1"></path><text x="583.3409120969154" y="313.4650879303355" title="Washington" class="hint " style="">Washington</text></a><a id="s15" rel="nofollow " title="Androscoggin" class="hint   "><path d="M367.52338286053816,420.97222188823525L380.1287762444441,404.73306609674273L384.85333784916406,387.73568570331054L384.12971093715964,379.16922769732537L389.8891165130044,375.04898931117896L395.5500855190352,374.02900431826356L397.82586026384354,385.42861566160263L395.2976941540369,386.8027552933813L399.87546714585113,394.8300922900344L399.7744318505959,404.97816124637393L406.2283271137815,407.7870293066235L403.5828246127573,413.27702496935626L405.3086145547098,413.94165099853035L403.1928582977881,427.2325875155325L401.65835029829617,428.5747871879794L403.0432347116737,430.25157240774115L396.6155629506865,437.79246828907344L389.7024020273832,433.2856715132184L380.9039839190318,423.4474062970726L377.084645010308,429.07137785091663L374.6079809138255,427.2492285047624L374.08587334754054,428.6704525245859L367.9677649112994,424.70890398020583Z" stroke="#FFFFFF" stroke-dasharray="1, 0" stroke-width="1"></path><text x="380.6270083855038" y="409.4527446517582" title="Androscoggin" class="hint " style="">Androscoggin</text></a><a id="s16" rel="nofollow " title="Oxford" class="hint   "><path d="M320.6900191677143,282.89383946024554L326.2775151180381,281.54613987428274L326.1389164277421,278.38399731930576L328.1245789139992,280.07146109006635L330.7404716948249,279.2974703976165L333.45519479174146,282.34102049880175L333.15626261653415,285.9769627710616L335.1094016601268,290.1627871477467L338.2480320012828,291.6021387501314L339.7846662306831,290.95245238042526L338.86077996105183,288.555754109952L339.97855999546954,286.27932430001556L344.327474552902,315.1273667948981L340.87888714071914,315.6385792979172L344.79532388190717,334.997408539582L345.1633191544935,346.9264750791226L357.3062969080493,339.893973167681L365.53023919497485,358.5566546660648L362.4285422548112,360.3809147476327L383.63075565209397,364.9266434374149L381.5115344279142,368.43459118628016L382.91098745362444,368.172525445877L383.61815577115823,372.0552426433037L385.9816571869837,372.24217867152765L386.9259395138796,377.14937797144466L384.12971093715964,379.16922769732537L384.85333784916406,387.73568570331054L380.1287762444441,404.73306609674273L367.52338286053816,420.97222188823525L367.9336664835158,424.07495454203854L365.6563167535912,423.0478863936619L362.8924541210234,426.9693914632362L361.33660507319587,424.8510631347431L359.86084401856783,425.5408960631835L357.3967010537649,420.813649059191L359.4952899729115,413.9879462776162L356.57400757790026,408.83649992667097L341.0230770281805,419.1428646508484L338.129593120484,417.1497236848895L337.4966853512178,418.85599095324324L338.9540190799782,422.16396939376L343.32822524542183,423.1918347042565L349.400816611781,431.7665562197503L346.8738317408108,433.5073777459311L348.2698197992629,435.428916092299L346.0527132500623,437.7756356621062L347.15961279029125,440.07223107109803L342.8823469587985,442.53512977434275L344.1927345761419,446.94962914498956L343.0122832309508,448.7287335861515L336.388368324386,448.2609226725913L332.7333003633646,450.5040798718578L327.85354272816846,450.30175836664694Z" stroke="#FFFFFF" stroke-dasharray="1, 0" stroke-width="1"></path><text x="336.91151048500933" y="372.3763003350839" title="Oxford" class="hint " style="">Oxford</text></a></g></g></svg>