<svg id="map" class="map svg-content-responsive" xmlns:xlink="http://www.w3.org/1999/xlink" preserveAspectRatio="xMinYMin meet" viewBox="0 0 960  540"><g><g id="states"><a id="s01" rel="nofollow " title="Chippewa" class="hint   "><path d="M363.9044457283071,397.63646001191864L410.2446631503217,397.62165839721547L410.1256177327009,419.28183807133337L396.38150173162285,419.3313384218218L395.9644322685124,430.84844626748054L395.65262710324896,429.32995656154435L393.60932686377305,429.16557456084684L395.36076057936,427.5426798005683L392.73337543372963,426.542626320364L393.237060700694,425.5839449848813L388.61674970659055,422.639907375707L386.56864073596057,419.3049327805088L384.7159890938656,417.7585815333182L382.41677052803925,417.96972559572623L381.0098061637334,414.8398592864478L377.2364769266194,414.22098068893274L376.2927341158995,410.95116285015547Z" stroke="#FFFFFF" stroke-dasharray="1, 0" stroke-width="1"></path><text x="382.67421973897314" y="408.3916943128123" title="Pennington" class="hint Pennington " style="">Chippewa</text></a><a id="s02" rel="nofollow " title="Hennepin" class="hint   "><path d="M496.96942581570056,414.52351126980375L497.3070925716886,403.5336366829483L498.63412644130676,403.5549809124641L500.89206029087495,398.9537017566204L504.5349673561741,396.5208874230261L503.3448063952876,394.1971682002254L504.4570307256238,392.8864274885368L506.9251999555702,393.0522355524363L510.1638803885269,390.9473239451436L510.9824202600246,391.7933806303886L511.8413065587747,389.8185132737999L516.9797876563698,392.4200195502199L523.71582307259,398.3372386154515L525.6637696918424,401.6960950355028L525.3647487142837,407.34243530581716L529.7825652123081,407.31098386696067L530.2228573283123,417.75129482591456L531.5941080673326,419.0762985019105L529.8022692814302,423.22733858687207L527.2151132769268,425.8856718321813L519.6827637100362,428.0419255984725L516.2271625875348,425.7643220698492L511.4722657641528,426.67106406513176L511.44992275720006,419.265944873061L497.0040838658547,419.3189219943047Z" stroke="#FFFFFF" stroke-dasharray="1, 0" stroke-width="1"></path><text x="505.0639307836735" y="409.78486420708913" title="Hennepin" class="hint " style="">Hennepin</text></a><a id="s03" rel="nofollow " title="Lake of the Woods" class="hint   "><path d="M404.60085477999996,91.67511448027972L419.42975015799266,91.67209269844034L419.3358626143422,73.187157517576L415.99807540514007,75.7168843185159L409.75387935718754,76.41165217410435L407.0456840709255,74.65070907508607L405.7715462440144,71.86462236080615L406.81615512286453,70.71171419356233L405.52612502591546,68.15904110541578L405.93998625785434,66.20708884096939L415.6855078800593,66.19515168831867L415.7087891760177,31.607025467769745L421.27460227272536,34.41567639346522L427.1939743954588,32.88351288431659L435.47689652398344,37.312066258629784L434.929580818246,39.704391722658784L436.54062304132776,48.37476386082744L437.99848958420193,55.292041190260534L439.3440546616855,57.21453302619511L443.2104504395704,76.45766891871745L443.13222059370537,80.36548711150317L442.0412836951905,81.77618161935516L442.62401981090034,85.52458278939503L448.76723250459645,91.24342336491054L456.81652067065966,93.50416205023976L458.10839242361703,92.74842807528375L458.20225624620707,122.29418529157738L412.32866167542556,122.41440880019354L412.26925625274134,107.03022984139307L404.61199696194467,107.00808687707377Z" stroke="#FFFFFF" stroke-dasharray="1, 0" stroke-width="1"></path><text x="421.29562461858853" y="86.24362789669584" title="Lake of the Woods" class="hint " style="">Lake of the Woods</text></a><a id="s04" rel="nofollow " title="Martin" class="hint   "><path d="M433.22359547638143,523.6234714592401L433.2354413750804,504.86649222817596L468.85060495853577,504.878933491706L468.80120541275915,533.0633670523248L433.22892664368806,533.0406098952644Z" stroke="#FFFFFF" stroke-dasharray="1, 0" stroke-width="1"></path><text x="442.0282584335473" y="518.9596860973123" title="Martin" class="hint " style="">Martin</text></a><a id="s05" rel="nofollow " title="Renville" class="hint   "><path d="M396.3001051603633,426.8428875298928L396.38150173162285,419.3313384218218L454.15424290262285,419.19707373409756L454.13406968899653,433.6747746875553L446.42749158232846,433.7166984440564L446.7376547418319,455.1776629910855L437.0054866006751,455.15548040934254L435.5555955143511,452.8421777931794L432.0993493181579,451.6084806766862L431.71711383439083,450.1828432823786L429.36992524313837,450.2025815970801L418.9918037645018,445.6554400119571L419.52287534182506,445.05388326941875L410.3701006617939,437.80431292585354L407.5183471576338,438.33290999879546L406.2833242536542,435.78181313201503L402.5431869901222,434.84808824374113L400.51009064358595,432.3867602538817L396.3841993125143,430.7578591898664Z" stroke="#FFFFFF" stroke-dasharray="1, 0" stroke-width="1"></path><text x="418.8413993722356" y="432.8674125372815" title="Renville" class="hint " style="">Renville</text></a><a id="s06" rel="nofollow " title="Scott" class="hint   "><path d="M488.5383713103738,447.8095408170675L489.69668908812287,447.76453131398694L489.0411182883329,444.40004605722515L491.47539182794253,442.88857532323254L491.64363877530786,441.6252049002169L497.6671023346298,440.4589931791761L502.4046408114041,435.69800149541834L504.9822966397235,435.306971081116L505.73603592675363,434.50616629331444L504.95016024127267,431.9509604581476L506.2943765283096,430.6176398850971L505.5252727588088,429.9025234097039L510.2463325349179,426.457247192202L516.2271625875348,425.7643220698492L519.6827637100362,428.0419255984725L522.6560842835199,427.57085775899895L523.2957628132726,440.8157343497883L525.6730352957754,440.80147839857955L525.6552078046643,447.9483517397848Z" stroke="#FFFFFF" stroke-dasharray="1, 0" stroke-width="1"></path><text x="501.64036596684423" y="439.2659663633683" title="Scott" class="hint " style="">Scott</text></a><a id="s07" rel="nofollow " title="Washington" class="hint   "><path d="M540.7310491203898,427.6848073944302L541.7094499812624,425.6048598179477L540.810275898323,419.32819292991417L542.9127469882314,419.32289525463375L542.8877064003868,400.01276702605674L540.7824790865238,399.9924873290938L540.8456963082945,385.58669907735793L556.8996452695787,385.66064500359334L555.9505072970751,386.41329370924313L556.5463208158053,392.1067520854922L555.625624728792,394.4788439498957L557.257309310005,400.67962152776045L553.5436200678253,404.84907574859517L555.9392478290049,408.2589167686001L555.5061688097319,412.5854410606594L556.6086583916317,415.4734863248873L555.2055644694763,418.7210740801338L555.7505344526996,423.75995086346757L553.4042841504529,429.44832461526585L553.563065766715,431.3117504478446L550.4713686472853,431.1533908575434L548.8728173965935,428.97367825615083L546.1711314903102,428.3697699500208L541.6351492206102,429.1737524927498Z" stroke="#FFFFFF" stroke-dasharray="1, 0" stroke-width="1"></path><text x="539.8015545395472" y="406.918645568142" title="Washington" class="hint " style="">Washington</text></a><a id="s08" rel="nofollow " title="Big Stone" class="hint   "><path d="M317.3456656109879,361.4072164101294L351.89827553835585,361.4586665923107L351.90431577383106,375.92810562782233L359.1931793436977,375.9844096664365L359.13348070569873,390.3483066324052L359.9746567994632,390.3498057276888L359.9802865334991,395.60130311843886L352.9279890792377,391.93275189966243L349.956075939263,391.77423133009324L348.90706883069765,389.5534694018479L339.49429510444565,387.9207320936348L339.4270658598691,385.2017780944534L337.376259308347,380.57018093687793L329.83118419681387,376.3102748876199L325.4438034484185,375.5378851375108Z" stroke="#FFFFFF" stroke-dasharray="1, 0" stroke-width="1"></path><text x="332.8641309231662" y="374.6985463772375" title="Big Stone" class="hint " style="">Big Stone</text></a><a id="s09" rel="nofollow " title="Blue Earth" class="hint   "><path d="M461.5432101808037,470.8918305210573L480.0968196967933,479.92638983601046L483.1408638040946,478.6782842819621L481.8226850369699,475.1865651420985L482.64667871331335,472.9327346850855L496.9460272336173,472.9438668992293L496.9618608605915,504.8781203382L461.70488910512813,504.8707206350473Z" stroke="#FFFFFF" stroke-dasharray="1, 0" stroke-width="1"></path><text x="470.3855933158231" y="489.64615234851266" title="Blue Earth" class="hint " style="">Blue Earth</text></a><a id="s10" rel="nofollow " title="Cook" class="hint   "><path d="M741.8378744035515,157.52186529960636L742.8443066484751,156.29613445141786L744.0998546244571,156.93886773515442L742.1700287116298,158.21381462300042ZM737.5812090422864,158.68649678035354L737.7572555170134,158.5481473516893L738.1566147751373,158.7556699083534L737.8390625897125,158.91922950327944ZM657.367351074779,138.84691312126097L660.6232725682178,135.3288895890455L668.2235894449716,133.12875133910666L668.8709502159604,139.06703923439727L669.7622074854128,138.3857831135074L671.2000767438494,140.61368718537142L672.2954705151417,140.22439336010257L671.1195011754701,142.58944189900603L672.0496974386672,142.71835137618518L673.8383108561104,146.62334477292552L683.9079698240673,143.72920087996818L685.1164274205676,143.92589703153453L684.5022586231621,145.21988951063076L685.2602202107175,146.18083324477402L690.4868418318026,145.0559211730615L695.9506159991217,146.62562745804507L709.9282486765371,144.76450478864444L716.5312229831104,147.17291180413167L718.3224753383834,152.1128513956387L721.7566717429379,153.23302688321064L723.9308632987329,155.68958448326111L731.7566041091466,152.58941583519436L738.3775231929571,154.28517434321066L740.7651168545251,153.04436303987677L742.4859388912946,154.96228313244546L747.7208878273068,154.14607666665097L741.976799819483,156.30428197614356L739.9780683077868,155.0665660521886L738.4639630676231,156.41755733160153L739.0530912771853,158.6684590566888L736.9088663265161,157.63397160230897L736.1143701107942,158.67931672421082L736.6429200364139,159.45023207934264L732.1760779378335,162.97463236996055L722.3923625444172,166.6757422293963L719.4222673393917,169.43242690035822L686.4174237702728,180.5528496458769L672.349070274603,188.98238530576964L657.9157809987116,201.25298987902806Z" stroke="#FFFFFF" stroke-dasharray="1, 0" stroke-width="1"></path><text x="677.4649328688563" y="163.14929185210738" title="Cook" class="hint " style="">Cook</text></a><a id="s11" rel="nofollow " title="Itasca" class="hint   "><path d="M458.7733810354689,174.09211933453207L458.7980111218726,168.0955376291272L496.4685554157538,168.04415798688342L496.49207128396324,163.45031643225684L537.2263637542687,164.0695580730162L537.1660200425779,179.04271899001878L538.3936539206368,179.0597169636203L537.909555436669,207.41924114776202L538.70504858446,239.13741115514767L496.52227246134066,238.79302157657366L496.6000918057646,223.20116230123085L494.36057187793654,220.51648805335753L496.0792241213794,218.92786045370667L496.4743610789783,217.44361775445077L495.71159076026674,216.35506287585304L496.59540036073463,215.10280053951328L493.83184602312735,215.50094681509927L489.79655822418545,213.27550087723785L488.48312954515245,215.7407345210181L484.85898825997197,212.24730743700093L481.7532516505353,211.0426518963127L480.7997740913804,208.96069378761285L481.6896239273244,206.0688623442593L477.7648196588236,200.12447332959619L464.30529844183957,205.54613960802772L459.28979184707555,203.8239893789514Z" stroke="#FFFFFF" stroke-dasharray="1, 0" stroke-width="1"></path><text x="495.91109543179414" y="197.25466774288446" title="Itasca" class="hint " style="">Itasca</text></a><a id="s12" rel="nofollow " title="Lac qui Parle" class="hint   "><path d="M339.49429510444565,387.9207320936348L349.4374953343299,389.75471085760273L349.956075939263,391.77423133009324L352.9279890792377,391.93275189966243L363.60290309904576,397.3148055218239L376.2927341158995,410.95116285015547L377.2364769266194,414.22098068893274L381.0973016135308,414.8988511409898L381.46153367699867,419.2678487485664L375.0024108036371,419.24135997746725L374.91110355475394,426.3922819910845L339.5756943735619,426.3738931040821Z" stroke="#FFFFFF" stroke-dasharray="1, 0" stroke-width="1"></path><text x="346.97974747119923" y="410.5078039440649" title="Lac qui Parle" class="hint " style="">Lac qui Parle</text></a><a id="s13" rel="nofollow " title="Lake" class="hint   "><path d="M626.7983644079673,233.69427299785184L626.9162369643298,233.61356685979854L626.9255612113259,233.89280233267982L626.8309113078587,233.86799740171773ZM613.8431148885761,246.04925074156108L613.9706635503119,245.96334959736532L614.0253188849038,246.01798291082696L613.879590873679,246.0856723422553ZM612.3484791452852,148.81989541224402L612.4599009647316,136.78920733392806L617.3460996058734,137.1171903750078L616.7800181200196,139.62157220684594L617.9098353692145,139.6111962248333L618.3287814103367,142.17210845047248L617.5188034260177,144.5381566575138L619.2277209210251,143.88768295226464L618.9475243666466,144.80297493725493L620.9626172928824,144.58875000718854L621.7300204135602,146.10022826090199L626.4744201286892,145.10422526580396L625.5244611533076,148.7890940362763L626.0063312008849,150.7696951865355L630.6161450867355,148.63367990135566L632.8631126835483,148.56865184690923L634.0763203681399,150.34083599691348L643.6505040979346,147.6991517223014L650.8847123332077,141.06430469744055L657.1870822995261,137.96797249625934L658.055761989775,164.40844332047027L657.9157809987116,201.25298987902806L650.1931933358801,208.58458126445248L644.657229558172,216.9102651557987L632.2333448314189,229.83041311998795L625.621456779289,233.67110350479606L621.6170152314162,238.08910632136167L621.9355057058463,239.05585432838598L617.9490675782724,240.9582117148202L612.7097360171313,246.57530078198351Z" stroke="#FFFFFF" stroke-dasharray="1, 0" stroke-width="1"></path><text x="624.0789930503852" y="185.84841538420878" title="Lake" class="hint " style="">Lake</text></a><a id="s14" rel="nofollow " title="Marshall" class="hint   "><path d="M297.90724956246004,119.87243573285241L299.7031347197001,118.82794706699724L298.3328809127495,117.86697969953684L300.23244700513783,117.79514405673262L298.86618092646154,116.73523599891269L299.99089622918837,115.59843328833131L298.5852220122656,115.76887038326822L299.875252109214,114.08030297267305L298.7199837707342,113.15706055533519L299.8532023175769,112.71460809779273L297.87411623194066,112.53405868825212L299.65850734885794,111.59156307744752L298.6199973485461,109.5073371060339L299.97377245483153,108.81928569885122L298.5801787088594,108.84628919153647L299.14655341002936,107.53824797845391L297.84495946344146,106.6755933172276L389.37799530566735,107.12535477208257L389.87804470273454,139.42292955694347L298.82918634920065,139.3959331783003L299.8358439709675,136.19549714700452L299.2648364678314,135.5380981231947L300.5030847402686,136.18150531526726L299.49336848382427,135.22362154588836L298.5146157645736,135.37465753637707L300.3323747842628,134.76784239444078L298.94405891394877,134.1198313208879L300.20306683064155,131.61186047153888L298.90365384363395,131.0765154907931L300.57744414398394,130.02643075621745L299.31544543108566,129.0407071547379L300.8318963937643,128.54481141683527L299.3216615957497,127.341865340185L300.6354421331589,126.12395707576661L299.10286432819316,125.96511351299705L300.02913150617746,124.65516789757203L298.24896268978614,122.39437177203035L299.5918301863785,120.99703219439607Z" stroke="#FFFFFF" stroke-dasharray="1, 0" stroke-width="1"></path><text x="335.38444744749654" y="123.14766756655197" title="Marshall" class="hint " style="">Marshall</text></a><a id="s15" rel="nofollow " title="Morrison" class="hint   "><path d="M445.0216414362178,297.0771880840243L451.6447303133557,300.9134489997655L458.3296876218167,298.4653471817196L460.4632395350445,300.9142978679629L462.78656039970974,301.60072682259033L463.4175011130958,303.7492468872306L460.2147688776772,307.25805836938434L460.1885554285757,308.89529343039794L461.9051551648183,311.48113292680455L461.37543237794034,313.3252384603006L494.46360773939386,313.36824589320713L494.46601210497124,328.0340772637419L496.8955941995516,328.0809158101947L497.18546685930346,341.5965412654714L462.6319772859922,341.5975510643066L467.40487752967533,345.5444539723685L445.577108527694,345.6502242364668Z" stroke="#FFFFFF" stroke-dasharray="1, 0" stroke-width="1"></path><text x="458.57089295496854" y="325.5392602024209" title="Morrison" class="hint " style="">Morrison</text></a><a id="s16" rel="nofollow " title="Redwood" class="hint   "><path d="M389.8177009910437,448.08427886965274L403.56463185914004,448.128956254714L403.5777092621597,435.21209600793736L406.2833242536542,435.78181313201503L407.5183471576338,438.33290999879546L410.3701006617939,437.80431292585354L419.52287534182506,445.05388326941875L418.9918037645018,445.6554400119571L429.36992524313837,450.2025815970801L431.71711383439083,450.1828432823786L432.5680833196541,451.71034854978325L432.5425735873066,469.4238226452262L418.3966353194644,469.4732986236045L418.32057526692506,476.57192541450877L389.8908288904395,476.5321739465844Z" stroke="#FFFFFF" stroke-dasharray="1, 0" stroke-width="1"></path><text x="400.7829103629553" y="459.4240361799825" title="Redwood" class="hint " style="">Redwood</text></a><a id="s17" rel="nofollow " title="Waseca" class="hint   "><path d="M496.9305454650205,488.3350002491193L496.9495458173892,476.5071450763644L518.1435005959038,476.4628943701391L518.1389850800624,504.86478460127955L496.9618608605915,504.8781203382Z" stroke="#FFFFFF" stroke-dasharray="1, 0" stroke-width="1"></path><text x="498.5443613586937" y="490.67591587005035" title="Waseca" class="hint " style="">Waseca</text></a><a id="s18" rel="nofollow " title="Wright" class="hint   "><path d="M468.00632078243916,385.5234231217778L471.91710935891433,383.7521863611896L474.15299341684477,385.0010931912848L478.06999815798395,381.53841622066557L478.29894067541704,378.6750262582941L480.2935671727125,375.0121934901663L482.93279821704186,376.6263451562704L482.7671315644425,377.7253264172673L483.5649704347493,376.8478490161233L485.840790418491,378.8274747786354L488.12059813050905,378.2911280549929L491.1075825376397,382.05462154874795L497.0112383195253,385.5763615614692L508.91179235325353,385.2274571431358L509.5930488145791,388.20461416713124L511.8038922846654,390.3365637029124L510.9824202600246,391.7933806303886L510.1638803885269,390.9473239451436L503.4503639084485,393.86587610806237L504.5349673561741,396.5208874230261L500.89206029087495,398.9537017566204L498.63412644130676,403.5549809124641L497.3070925716886,403.5336366829483L496.9849662273614,412.10347363333403L468.3256909028132,411.9790361974151Z" stroke="#FFFFFF" stroke-dasharray="1, 0" stroke-width="1"></path><text x="476.4990350524982" y="395.8135865603938" title="Wright" class="hint " style="">Wright</text></a><a id="s19" rel="nofollow " title="Brown" class="hint   "><path d="M418.32057526692506,476.57192541450877L418.3966353194644,469.4732986236045L432.5425735873066,469.4238226452262L432.5680833196541,451.71034854978325L435.5555955143511,452.8421777931794L437.77887131376497,455.9362455594983L442.5867228229172,457.4666826931293L442.61000411887494,459.5601617073521L443.659539015006,459.0866041851573L443.67660414629995,460.073232254711L451.2633158324684,462.6738563049248L452.93997964289906,462.2114345962609L452.9791532088939,463.2226013399759L454.25921398515493,462.9206762872359L456.8555769505292,465.24978987206896L459.08113982939494,470.05230997279796L461.5432101808037,470.8918305210573L461.7121608449231,483.62924061914873L418.82232531281534,483.68347133710904Z" stroke="#FFFFFF" stroke-dasharray="1, 0" stroke-width="1"></path><text x="431.6647244033424" y="472.73100238687783" title="Brown" class="hint " style="">Brown</text></a><a id="s20" rel="nofollow " title="Wilkin" class="hint   "><path d="M319.664646889001,273.4998993366826L320.0580245547135,273.07207365369004L349.57917697421726,273.04978464365104L350.4492640979752,324.781236426546L332.24473393576545,324.76133450525185L333.5385399882034,319.5110979238507L332.0478919731877,311.62019875505666L331.2998410632558,311.79110344577066L331.8182457389996,308.9816439837159L330.95015247937954,306.1631109395671L331.8173660930577,305.44012634757155L330.8463542581055,304.4478111239582L330.8847068212201,298.6309607857115L328.2099380807931,296.8929127893621L325.8781726150744,291.53043412003353L324.73199395133906,291.1670497627788L324.7364508241167,289.46730549584436L323.72227769489564,289.3057046226786L324.17259777465097,286.67419620310966L322.7725532917641,286.09336744012535L322.7748990142791,281.2565734702721L321.8179615144147,279.36949482207774L322.55000286818336,278.728299585111L320.5769570180232,273.8664657729096L319.9031482256819,274.0368883473784L320.40783042471435,273.3672861491932Z" stroke="#FFFFFF" stroke-dasharray="1, 0" stroke-width="1"></path><text x="329.61179382090796" y="296.19877781177644" title="Wilkin" class="hint " style="">Wilkin</text></a><a id="s21" rel="nofollow " title="Cass" class="hint   "><path d="M437.18317508116183,258.2368730728863L444.64163438883975,258.2563208548222L444.0392528470695,206.00525836715815L458.9244455654141,205.85976310289516L459.06213947702554,202.94073215441995L460.1221714814103,204.47294916016153L464.30529844183957,205.54613960802772L476.4228318081755,199.88395075904918L478.6565460727802,200.94824506610075L481.6896239273244,206.0688623442593L480.7997740913804,208.96069378761285L481.81904916707185,211.0945004284663L484.85898825997197,212.24730743700093L488.48312954515245,215.7407345210181L489.79655822418545,213.27550087723785L493.83184602312735,215.50094681509927L496.59540036073463,215.10280053951328L495.71159076026674,216.35506287585304L496.4743610789783,217.44361775445077L496.0792241213794,218.92786045370667L494.36057187793654,220.51648805335753L496.6000918057646,223.20116230123085L496.4772932321205,258.3270004285123L463.2333618956934,258.1009933288128L463.84248738969336,302.9450258152665L458.3296876218167,298.4653471817196L450.7263799488576,300.60512981406237L446.8167055905774,298.9469691315717L444.08786794618595,296.0510495483859L441.0386046062904,296.83403490891305L440.41827828728356,294.07545327976914L437.6526127994123,293.20689036487965Z" stroke="#FFFFFF" stroke-dasharray="1, 0" stroke-width="1"></path><text x="455.29287761978566" y="245.3724659321021" title="Cass" class="hint " style="">Cass</text></a><a id="s22" rel="nofollow " title="Mahnomen" class="hint   "><path d="M362.0910262952709,198.28778105999982L392.36040555389513,198.21104807850588L392.3763564669946,228.36780956960547L362.12339726597315,228.33676600188664Z" stroke="#FFFFFF" stroke-dasharray="1, 0" stroke-width="1"></path><text x="368.24682286109106" y="213.29947601203253" title="Mahnomen" class="hint " style="">Mahnomen</text></a><a id="s23" rel="nofollow " title="Yellow Medicine" class="hint   "><path d="M339.5598923972623,427.0250351300865L374.91110355475394,426.3922819910845L375.0024108036371,419.24135997746725L381.46153367699867,419.2678487485664L381.47859880829196,415.56734675121515L382.41677052803925,417.96972559572623L384.8771402306247,417.85082366026154L388.61674970659055,422.639907375707L393.237060700694,425.5839449848813L392.73337543372963,426.542626320364L395.52079749792347,427.7574395701522L393.6907820780957,429.26065247895986L395.65262710324896,429.32995656154435L395.9644322685124,430.84844626748054L399.6137314276632,431.8478453473108L403.5777092621597,435.21209600793736L403.56463185914004,448.128956254714L389.2594776756132,448.06436726730135L389.2791231016736,440.86789593624417L339.5639077743756,440.7521516989632Z" stroke="#FFFFFF" stroke-dasharray="1, 0" stroke-width="1"></path><text x="364.97596628148193" y="433.83117834617383" title="Yellow Medicine" class="hint " style="">Yellow Medicine</text></a><a id="s24" rel="nofollow " title="Nicollet" class="hint   "><path d="M437.2461577306817,455.4068769968562L487.53539900615897,455.1319831923738L486.27650837559304,460.3013098480369L485.34930290860257,460.54677456641866L486.1435059090106,460.95199779598397L485.6516665407453,462.7920591478155L487.29021236031235,464.30038714362036L481.87229706815447,471.4012369831735L482.83979031933563,472.0778511156632L481.8226850369699,475.1865651420985L483.1408638040946,478.6782842819621L480.0968196967933,479.92638983601046L474.97774945300694,476.6692578716006L470.7609027314288,476.06282009920005L470.19833982934506,474.79325802745916L469.3437931172473,475.3723664285085L464.5576395413559,471.9921333603734L459.22598819467703,470.17770274520217L456.8555769505292,465.24978987206896L454.25921398515493,462.9206762872359L453.903661094992,463.67204984741056L452.93997964289906,462.2114345962609L451.2633158324684,462.6738563049248L443.67660414629995,460.073232254711L443.77201640958424,459.1602389203249L442.4690261957426,459.2198354376924L442.97124538613525,458.3642343477668L442.22829642267425,458.81249573017294L442.5867228229172,457.4666826931293Z" stroke="#FFFFFF" stroke-dasharray="1, 0" stroke-width="1"></path><text x="459.8635593126444" y="463.9112248497178" title="Nicollet" class="hint " style="">Nicollet</text></a><a id="s25" rel="nofollow " title="St. Louis" class="hint   "><path d="M536.2582840724597,133.30248785518916L536.7994422565971,99.2614358572273L544.6319270192403,98.91574855376984L544.9273121269016,100.97599110983356L557.9339329693637,107.08966101696888L563.3944817682259,106.77230181083132L563.8456814939248,110.26883348634192L559.6476005524635,111.0202894340191L558.841962154796,113.84046746716558L562.157347713983,116.16611928868315L570.880034170948,115.17903147966945L573.86848465465,118.15492925002809L572.6707000955921,121.90339254262744L573.0695902092127,123.66191307297322L578.9792862265729,135.25706818068284L584.810283253566,132.7942918788649L582.950770373116,129.23795728012328L582.6658823737075,126.78414290010323L583.6812870072501,124.44236495162659L585.247877788679,123.38861259878104L588.501218987353,124.21252292981671L592.1226626916421,122.44265467940568L597.3900412414198,123.01088876432414L597.8982420242255,125.17028226304137L600.620980790077,126.35087932081888L599.8675933614247,128.46380228187445L600.243084892963,131.28107641026963L601.9832591404781,133.1126365633745L603.3010274061628,132.49160138917932L603.1036348565522,134.13726307916158L606.8760258046618,133.72258024250868L608.5818352173362,136.42200037923794L612.4599009647316,136.78920733392806L612.7097360171313,246.57530078198351L595.111113175345,259.61634830848107L599.7321278862028,266.5802330730694L595.3808126214699,262.9210752811264L593.7915856177735,262.9724267394231L592.2258158392249,264.17046519640917L592.0498280075606,265.7702172137665L589.5399049168525,265.63327619114807L588.6250731361276,266.7878670858745L590.3022647341238,268.301226685006L588.4842711421838,271.24102761819904L584.7604366501291,271.3435450526631L582.971823232685,269.9593677150983L582.9375756839704,261.6461776530168L538.3774684352857,261.4393394979156L538.3936539206368,179.0597169636203L537.1660200425779,179.04271899001878Z" stroke="#FFFFFF" stroke-dasharray="1, 0" stroke-width="1"></path><text x="563.9896116687313" y="188.73303001908565" title="St. Louis" class="hint " style="">St. Louis</text></a><a id="s26" rel="nofollow " title="Kandiyohi" class="hint   "><path d="M409.72467511187915,379.531379127061L409.73353021437197,375.9399679588896L438.6018680580403,375.911899296324L438.8801293913448,419.2166921768462L410.1256177327009,419.28183807133337Z" stroke="#FFFFFF" stroke-dasharray="1, 0" stroke-width="1"></path><text x="415.32273089416253" y="397.5690798066079" title="Kandiyohi" class="hint " style="">Kandiyohi</text></a><a id="s27" rel="nofollow " title="Polk" class="hint   "><path d="M298.82918634920065,139.3959331783003L336.68556131389914,139.3181088369197L337.78517738571895,167.95467912423237L345.37265143170316,167.9634173722493L345.4301802763764,175.5617625018167L375.6049682745959,175.50994395011958L375.6254933465991,167.885558988728L383.11298097039617,167.8527899088599L383.0853600877854,160.22548025004699L390.56023945306606,160.38644839968174L390.7546998495336,183.1121358467508L392.24698987031024,183.11797095417342L392.196791408496,198.2220720139171L316.2610552152862,198.30179705917408L316.6819434254594,196.88989239209195L314.9768963726008,195.79321064749L316.4806804337002,194.77731355923697L315.5211039960068,193.0454405828782L316.356591712673,192.46055768621318L315.13253506145065,192.50036339250892L316.1103494916945,192.263088425143L315.8920213686406,188.76319331997547L314.484587859833,187.86813675301119L314.15061561680545,183.1007268837243L311.4684578504564,179.47810856531487L312.18959159453266,178.7392726631506L311.21506117580793,174.93658539973603L307.9408430467545,171.4273298927883L308.92739529336654,170.09067946786445L307.51345240457977,168.45308186690045L307.26943861999007,166.09750651413742L306.0555272186425,165.63407795585454L306.37231704425085,161.628135329006L304.21425233074456,159.30857911857493L303.1760941888099,150.38820636710534L301.2862628448572,148.25078194469734L301.41727144730226,146.12059915525333L300.1883474218612,145.24649977171657L299.58649366765735,142.57125192164312L300.1607851823137,142.28846303415412L298.8444243501376,142.17158115701068L300.31648251422575,140.6389180330193Z" stroke="#FFFFFF" stroke-dasharray="1, 0" stroke-width="1"></path><text x="333.43508562964877" y="174.25058417961023" title="Polk" class="hint " style="">Polk</text></a><a id="s28" rel="nofollow " title="Kittson" class="hint   "><path d="M293.38551755703634,68.8954550721437L294.01710334411496,66.03684821447769L342.2821620186128,66.09852556191117L342.3105452610398,91.31586363528959L343.333983994195,91.31319714307301L343.3126965623744,106.64519239533956L297.84495946344146,106.6755933172276L299.28465782308035,105.93357883904719L297.1316364129814,105.03692488782463L298.72854565791226,104.18573509836733L297.99357215100076,103.39953698339013L298.9891554292942,103.27348427416564L298.38366580519164,102.14550039309597L299.52708824497313,101.01315264578079L298.62885245103894,100.58085356144693L300.35237206870056,100.11134403256256L299.74406757758106,98.86117791854576L301.00090570094676,98.81423776684278L300.6276426057982,97.76234759191766L301.6235777424688,96.27154680622107L301.0064181488558,96.01779313400175L302.11635539973986,94.20878198715718L300.3721934239495,92.70542303892353L300.9631982115227,92.14186638034744L298.4412532929273,88.13503015487686L298.8563875349637,87.00001995349294L298.0909196353598,86.09751711391073L298.77645704027464,85.61749605035584L297.23561056344465,84.53383281691413L297.8794527506616,83.92838004811892L296.78558369900315,84.1265566870743L298.1744859999453,83.16372395318785L296.2529287589821,82.53947232608243L297.2206565824133,80.52675736600304L296.2451878746838,78.12197876765049L296.9873158352657,77.22864631260154L295.7115360025937,76.69059910895385L296.2858861603131,75.51904743337309L295.0666968833077,74.63518556463032Z" stroke="#FFFFFF" stroke-dasharray="1, 0" stroke-width="1"></path><text x="311.1322631458331" y="85.93971594613876" title="Kittson" class="hint " style="">Kittson</text></a><a id="s29" rel="nofollow " title="Norman" class="hint   "><path d="M314.93954074155454,205.20441365135775L315.9564114516686,204.68271871443176L315.41519462446877,201.9182742835519L316.09873816524714,200.061654084584L315.1300134097469,200.03440900477972L316.2610552152862,198.30179705917408L362.0910262952709,198.28778105999982L362.12339726597315,228.33676600188664L316.80913332516275,228.45201842290362L318.0307925144632,227.20801702751214L317.18439718810396,226.22229033205758L317.87802733569424,225.53326850473968L317.0292276437583,225.46303180900713L317.6216985079036,224.9695325674329L316.52008857194596,224.7921912115521L317.54522795392495,224.03528496606077L316.4659610249198,222.35747604351945L317.44858418631907,221.22267485218526L316.36738203624077,218.75979030233702L317.1135563681603,218.39208831116048L316.3555361375418,217.98036527228805L317.3419124549646,215.07166687555718L316.3872620345528,214.17094736443596L317.45315834522285,213.10653066622854L316.4439698763449,213.0836028392655L317.3468384722455,212.19754887701674L315.72840722324213,209.69083347771584L316.9895262901962,209.30759396969142L315.93887717587086,209.15588250433984L316.9046111351647,208.42591709375256L316.04930206325025,206.37283205394624L316.66106649507833,205.85517026441812Z" stroke="#FFFFFF" stroke-dasharray="1, 0" stroke-width="1"></path><text x="330.3264231024559" y="213.24080433678225" title="Norman" class="hint " style="">Norman</text></a><a id="s30" rel="nofollow " title="Stearns" class="hint   "><path d="M416.5124337095467,359.08206958337314L416.50533789894007,345.695121226589L467.40487752967533,345.5444539723685L468.1114677941598,348.3057220801761L470.7207908764274,349.65882321597655L470.23604731876844,351.01212217286684L471.4352393113363,353.697658153319L472.63144050769733,353.5778840878352L471.76381639258057,354.33676524837165L471.3990565415477,358.61331363925774L474.8061598510578,364.1513903541845L475.01598472999603,369.1921676044685L480.56725434711325,375.07644597742274L478.29894067541704,378.6750262582941L477.9052697943905,381.7888082973045L473.84881184975416,385.2278740096581L471.91710935891433,383.7521863611896L468.52871318645884,384.6382212486542L468.04731228338323,386.6693453422963L460.8560307701275,386.76469436042726L460.84307065323424,383.09837373029086L438.5933061708622,383.15417527768295L438.6018680580403,375.911899296324L416.97454104493863,375.95024305253946Z" stroke="#FFFFFF" stroke-dasharray="1, 0" stroke-width="1"></path><text x="438.34892299337065" y="364.22044822358055" title="Stearns" class="hint " style="">Stearns</text></a><a id="s31" rel="nofollow " title="Todd" class="hint   "><path d="M415.5764904261898,295.36057037006094L440.44865539384864,295.38394211376453L441.0386046062904,296.83403490891305L444.08786794618595,296.0510495483859L445.0216414362178,297.0771880840243L445.577108527694,345.6502242364668L416.50533789894007,345.695121226589Z" stroke="#FFFFFF" stroke-dasharray="1, 0" stroke-width="1"></path><text x="421.62203778643095" y="320.5520784310248" title="Todd" class="hint " style="">Todd</text></a><a id="s32" rel="nofollow " title="Wabasha" class="hint   "><path d="M568.3182706126656,469.4923025065791L568.3321103755025,462.36180651673294L575.3753767980816,462.38067445597653L575.3960191562103,455.2359123193037L586.4365726729941,455.32357252818474L597.3162682683324,459.5547442566676L603.0024755731065,463.1096584920406L605.4008595582416,466.1216255990039L605.0497048977945,468.6502438052603L606.7049053472153,470.0530471051052L606.9212982491945,473.6214919813774L608.9330518809488,476.73884935714705L595.9876510360177,476.7404156511402L595.9671846070769,483.7688998167264L581.9233439116852,483.70797296771343L581.9224642657432,476.6526542385518L568.3240176328263,476.5823948823813Z" stroke="#FFFFFF" stroke-dasharray="1, 0" stroke-width="1"></path><text x="578.1448317153959" y="469.18670509272226" title="Wabasha" class="hint " style="">Wabasha</text></a><a id="s33" rel="nofollow " title="Mille Lacs" class="hint   "><path d="M494.4313540548171,306.0357530533033L516.731199712877,305.75728331795835L516.6230619049509,328.17602615254464L511.603919440289,328.1430289061577L512.0364706719956,363.7070094590076L497.4501230020219,363.633807374501L496.8955941995516,328.0809158101947L494.46601210497124,328.0340772637419Z" stroke="#FFFFFF" stroke-dasharray="1, 0" stroke-width="1"></path><text x="496.0314399169526" y="331.8130542747612" title="Mille Lacs" class="hint " style="">Mille Lacs</text></a><a id="s34" rel="nofollow " title="Murray" class="hint   "><path d="M362.29223064396774,500.77947690223573L362.31639158586836,476.4589682250121L397.57441891646386,476.4984749145392L397.5814560840074,504.881779527896L362.26701412693455,504.7900550068184Z" stroke="#FFFFFF" stroke-dasharray="1, 0" stroke-width="1"></path><text x="370.9447762053673" y="490.66024592233475" title="Murray" class="hint " style="">Murray</text></a><a id="s35" rel="nofollow " title="Olmsted" class="hint   "><path d="M560.2007805644878,504.82819245188057L560.8446227517056,504.83494169131336L560.8267366175305,476.5333190551846L581.9224642657432,476.6526542385518L581.9233439116852,483.70797296771343L595.9671846070769,483.7688998167264L595.978854576588,504.9493520680785L561.349715452179,506.03469339984304L560.207114015278,506.0252630579362Z" stroke="#FFFFFF" stroke-dasharray="1, 0" stroke-width="1"></path><text x="568.1045995052002" y="492.25191914547355" title="Olmsted" class="hint " style="">Olmsted</text></a><a id="s36" rel="nofollow " title="Red Lake" class="hint   "><path d="M337.75831886292485,157.792317021524L383.0723999708921,157.72794607334708L383.11298097039617,167.8527899088599L375.6254933465991,167.885558988728L375.6049682745959,175.50994395011958L345.4301802763764,175.5617625018167L345.37265143170316,167.9634173722493L337.78517738571895,167.95467912423237Z" stroke="#FFFFFF" stroke-dasharray="1, 0" stroke-width="1"></path><text x="351.4491302728423" y="165.80100984843114" title="Red Lake" class="hint " style="">Red Lake</text></a><a id="s37" rel="nofollow " title="Koochiching" class="hint   "><path d="M458.10839242361703,92.74842807528375L466.2929464146541,92.14444351188286L468.063732340986,93.1543870038472L468.67068804165933,96.71198569095895L470.1904230158582,97.31526600933739L492.6813277727392,99.17705725546284L494.67466412265185,103.693823456867L494.00085533030983,107.9083316471797L495.3965015834815,109.15013367898382L503.4776329326821,109.17580724091067L505.1071477205669,107.80525326353745L506.1772076887014,108.65079793962013L514.5698509878507,106.5250773292305L514.7572742167738,102.43712071124946L527.0402983065208,97.91376116976198L529.8232634979377,97.94127422430483L531.5416811691289,99.63921245511347L536.7994422565971,99.2614358572273L536.2979267829578,145.32957898333507L537.2263637542687,164.0695580730162L496.49207128396324,163.45031643225684L496.4685554157538,168.04415798688342L458.7980111218726,168.0955376291272Z" stroke="#FFFFFF" stroke-dasharray="1, 0" stroke-width="1"></path><text x="487.08817439801095" y="132.98146126488555" title="Koochiching" class="hint " style="">Koochiching</text></a><a id="s38" rel="nofollow " title="Lincoln" class="hint   "><path d="M339.50447470285303,476.4205245516587L339.5639077743756,440.7521516989632L360.60565615591236,440.8233155319667L361.44835696931136,476.44301822754005Z" stroke="#FFFFFF" stroke-dasharray="1, 0" stroke-width="1"></path><text x="341.2794251642816" y="458.7344999863341" title="Lincoln" class="hint " style="">Lincoln</text></a><a id="s39" rel="nofollow " title="Cottonwood" class="hint   "><path d="M397.5545389181516,499.2666352681931L397.57441891646386,476.4984749145392L418.77675965296794,476.5805954442085L418.82232531281534,483.68347133710904L432.92117320117654,483.68494143845373L432.9455100722662,504.86698012146644L397.5814560840074,504.881779527896Z" stroke="#FFFFFF" stroke-dasharray="1, 0" stroke-width="1"></path><text x="405.0543773201947" y="491.89605186451394" title="Cottonwood" class="hint " style="">Cottonwood</text></a><a id="s40" rel="nofollow " title="Faribault" class="hint   "><path d="M468.804101009682,528.398568592178L468.85060495853577,504.878933491706L503.98425035278933,504.906580629734L503.9537535373488,533.1259286952231L468.80120541275915,533.0633670523248Z" stroke="#FFFFFF" stroke-dasharray="1, 0" stroke-width="1"></path><text x="477.3997548726185" y="518.9952086595105" title="Faribault" class="hint " style="">Faribault</text></a><a id="s41" rel="nofollow " title="Sherburne" class="hint   "><path d="M474.51605261905434,366.1889249149799L474.5774519058764,363.682385543942L512.0364706719956,363.7070094590076L511.94932708057536,389.85699421071513L509.5930488145791,388.20461416713124L508.91179235325353,385.2274571431358L497.61578965462127,385.7707697689211L491.1075825376397,382.05462154874795L488.12059813050905,378.2911280549929L485.840790418491,378.8274747786354L483.5649704347493,376.8478490161233L482.7671315644425,377.7253264172673L482.93279821704186,376.6263451562704L478.60347410088525,373.762479839384L475.01598472999603,369.1921676044685Z" stroke="#FFFFFF" stroke-dasharray="1, 0" stroke-width="1"></path><text x="487.41229096161936" y="373.294344725539" title="Sherburne" class="hint " style="">Sherburne</text></a><a id="s42" rel="nofollow " title="Steele" class="hint   "><path d="M518.1442043126581,497.7827189672589L518.1435005959038,476.4628943701391L539.2934144342041,476.43516590170657L539.2901304226841,504.836568012664L518.1389850800624,504.86478460127955Z" stroke="#FFFFFF" stroke-dasharray="1, 0" stroke-width="1"></path><text x="519.7175007532647" y="490.64976007780217" title="Steele" class="hint " style="">Steele</text></a><a id="s43" rel="nofollow " title="Swift" class="hint   "><path d="M359.11752979259927,377.6935940924768L359.1931793436977,375.9844096664365L409.73353021437197,375.9399679588896L410.2446631503217,397.62165839721547L362.7559213420568,397.2822064336615L359.9802865334991,395.60130311843886L359.9746567994632,390.3498057276888L359.13348070569873,390.3483066324052Z" stroke="#FFFFFF" stroke-dasharray="1, 0" stroke-width="1"></path><text x="375.8261028830238" y="386.659152127157" title="Swift" class="hint " style="">Swift</text></a><a id="s44" rel="nofollow " title="Rice" class="hint   "><path d="M511.1855011867324,469.95066653663025L511.2375762265583,447.97624509127127L525.4764637490462,447.9483517397848L525.4667876436729,453.865592288937L539.6701961131253,453.87602913703313L539.5720276258864,476.4343479503618L511.18456289772666,476.4827704307713Z" stroke="#FFFFFF" stroke-dasharray="1, 0" stroke-width="1"></path><text x="515.5879689998002" y="463.51044637231615" title="Rice" class="hint " style="">Rice</text></a><a id="s45" rel="nofollow " title="Roseau" class="hint   "><path d="M342.2821620186128,66.09852556191117L405.93998625785434,66.20708884096939L405.6104537503188,68.79066890981085L406.828118307689,70.91887216031182L405.76409857502995,71.43931405733838L406.00764321511633,72.50152687697891L409.75387935718754,76.41165217410435L415.99807540514007,75.7168843185159L419.3358626143422,73.187157517576L419.42975015799266,91.67209269844034L404.60085477999996,91.67511448027972L404.61199696194467,107.00808687707377L343.3126965623744,106.64519239533956L343.333983994195,91.31319714307301L342.3105452610398,91.31586363528959Z" stroke="#FFFFFF" stroke-dasharray="1, 0" stroke-width="1"></path><text x="368.18008864697066" y="86.07680094594339" title="Roseau" class="hint " style="">Roseau</text></a><a id="s46" rel="nofollow " title="Lyon" class="hint   "><path d="M360.5751617632218,442.9781914345949L360.60565615591236,440.8233155319667L389.2791231016736,440.86789593624417L389.8908288904395,476.5321739465844L361.44835696931136,476.44301822754005L361.3473149719912,447.9943468843835L360.59099539019576,447.9662067946956Z" stroke="#FFFFFF" stroke-dasharray="1, 0" stroke-width="1"></path><text x="366.41140839686767" y="458.6420960719326" title="Lyon" class="hint " style="">Lyon</text></a><a id="s47" rel="nofollow " title="Meeker" class="hint   "><path d="M438.57729661469966,388.2852680433775L438.5933061708622,383.15417527768295L460.84307065323424,383.09837373029086L460.8560307701275,386.76469436042726L468.04731228338323,386.6693453422963L468.3256909028132,411.9790361974151L453.910580976411,411.9599682145472L453.8806730143483,419.2003020909938L438.8801293913448,419.2166921768462Z" stroke="#FFFFFF" stroke-dasharray="1, 0" stroke-width="1"></path><text x="443.29671868247334" y="400.0057032094452" title="Meeker" class="hint " style="">Meeker</text></a><a id="s48" rel="nofollow " title="Mower" class="hint   "><path d="M539.0814784050035,504.8385195975634L574.3000975973516,506.0042886110741L574.3011055322143,533.0562826169698L539.1009480935033,533.1249019997458Z" stroke="#FFFFFF" stroke-dasharray="1, 0" stroke-width="1"></path><text x="547.5650388279968" y="519.2527801310624" title="Mower" class="hint " style="">Mower</text></a><a id="s49" rel="nofollow " title="Pipestone" class="hint   "><path d="M339.46747093018394,490.4266098700459L339.5044571323547,476.42993257397757L362.31639158586836,476.4589682250121L362.26701412693455,504.7900550068184L339.4757623625537,504.75208725817265Z" stroke="#FFFFFF" stroke-dasharray="1, 0" stroke-width="1"></path><text x="341.88580878885386" y="490.6055870485299" title="Pipestone" class="hint " style="">Pipestone</text></a><a id="s50" rel="nofollow " title="Pope" class="hint   "><path d="M380.2140784436908,350.4890585873436L380.21835938727986,346.82866981859524L416.50891512577573,346.91617133702584L416.97454104493863,375.95024305253946L380.8696492434822,375.9576778624464Z" stroke="#FFFFFF" stroke-dasharray="1, 0" stroke-width="1"></path><text x="389.61114411184474" y="361.3965360576453" title="Pope" class="hint " style="">Pope</text></a><a id="s51" rel="nofollow " title="Douglas" class="hint   "><path d="M379.55968050515844,321.738247985184L379.55909407452964,317.52615505240783L416.14474170537073,317.58443335028824L416.50891512577573,346.91617133702584L380.21835938727986,346.82866981859524Z" stroke="#FFFFFF" stroke-dasharray="1, 0" stroke-width="1"></path><text x="389.08687095707313" y="332.1895329158819" title="Douglas" class="hint " style="">Douglas</text></a><a id="s52" rel="nofollow " title="Fillmore" class="hint   "><path d="M574.2648531165687,518.9674989175955L574.3080144108385,504.85226198566806L616.4375426328754,504.9611426073898L616.4496569491307,533.0353145956351L574.3011055322143,533.0562826169698Z" stroke="#FFFFFF" stroke-dasharray="1, 0" stroke-width="1"></path><text x="586.3479304783639" y="518.9772840199187" title="Fillmore" class="hint " style="">Fillmore</text></a><a id="s53" rel="nofollow " title="Ramsey" class="hint   "><path d="M528.6193800603405,400.6199541699111L542.8877064003868,400.01276702605674L542.9127469882314,419.32289525463375L540.810275898323,419.32819292991417L539.0387862552361,416.9477840871946L536.6530105286174,416.63836770236685L534.4425189169083,416.9355270756655L532.0797899139966,419.53893629300956L530.7214992918712,418.7863923283853L529.7825652123081,407.31098386696067L528.6779058370819,407.3170418120144Z" stroke="#FFFFFF" stroke-dasharray="1, 0" stroke-width="1"></path><text x="527.2853429795949" y="408.8905011890645" title="Ramsey" class="hint " style="">Ramsey</text></a><a id="s54" rel="nofollow " title="Aitkin" class="hint   "><path d="M494.35769836785585,283.8326279618409L494.398983084114,277.0214240942878L496.36698563086793,276.5578280155182L496.52227246134066,238.79302157657366L538.70504858446,239.13741115514767L538.8265570107205,313.23829111847L516.6618249695055,313.58784852442614L516.731199712877,305.75728331795835L495.2893607076244,306.0297327207104L494.4381566501097,305.1761233182842Z" stroke="#FFFFFF" stroke-dasharray="1, 0" stroke-width="1"></path><text x="508.69871615699503" y="274.83873264948386" title="Aitkin" class="hint " style="">Aitkin</text></a><a id="s55" rel="nofollow " title="Becker" class="hint   "><path d="M354.640425158017,228.39402397414096L414.77882748507227,228.27623044000165L415.0991358944523,265.6248081244412L355.8182124326379,265.60650336150275L355.8463024597511,243.3543686520693L354.7049325271705,243.35471245490817Z" stroke="#FFFFFF" stroke-dasharray="1, 0" stroke-width="1"></path><text x="376.16786903540924" y="246.90473147789007" title="Becker" class="hint " style="">Becker</text></a><a id="s56" rel="nofollow " title="Rock" class="hint   "><path d="M339.46729500099605,518.9211210162948L339.4757623625537,504.75208725817265L362.9883238001994,504.78753418431916L362.93891486691723,533.0760196984811L339.4759741742996,533.0587216528984Z" stroke="#FFFFFF" stroke-dasharray="1, 0" stroke-width="1"></path><text x="342.2163527147747" y="518.913605335591" title="Rock" class="hint " style="">Rock</text></a><a id="s57" rel="nofollow " title="Carver" class="hint   "><path d="M482.6177676833206,414.456642978912L482.6250980661789,412.04146258011406L496.9849662273614,412.10347363333403L497.0040838658547,419.3189219943047L511.44992275720006,419.265944873061L511.4660495994881,426.4818775332219L506.85013683510056,428.26252899036217L504.95016024127267,431.9509604581476L505.73603592675363,434.50616629331444L502.4046408114041,435.69800149541834L497.33371652223104,440.4523179348366L496.93752398950164,437.2758223171704L489.8619452392827,437.2849759518963L489.8733806365408,433.6852556611848L482.7272542816934,433.6505940858315Z" stroke="#FFFFFF" stroke-dasharray="1, 0" stroke-width="1"></path><text x="485.8849750057824" y="425.0479092768056" title="Carver" class="hint " style="">Carver</text></a><a id="s58" rel="nofollow " title="Clearwater" class="hint   "><path d="M390.5173127310477,152.8008943884888L411.2625307925032,152.85341178236195L408.3796378219613,160.67817216961885L409.69330107324527,164.35745910883543L413.3401372237563,165.75944700841274L414.77882748507227,228.27623044000165L392.3763564669946,228.36780956960547L392.24698987031024,183.11797095417342L390.7546998495336,183.1121358467508Z" stroke="#FFFFFF" stroke-dasharray="1, 0" stroke-width="1"></path><text x="393.53176993271387" y="191.18746615587787" title="Clearwater" class="hint " style="">Clearwater</text></a><a id="s59" rel="nofollow " title="Traverse" class="hint   "><path d="M315.75538303216103,359.7529690979841L317.0444748401028,356.08956216151273L327.1999286090347,348.6145205972066L331.862638537591,341.7748515358903L333.1381837980107,331.191463365441L332.24473393576545,324.76133450525185L350.4492640979752,324.781236426546L351.2183092244122,361.46570533568956L317.06312333409437,361.4151769800019Z" stroke="#FFFFFF" stroke-dasharray="1, 0" stroke-width="1"></path><text x="329.350532570724" y="345.78226747647716" title="Traverse" class="hint " style="">Traverse</text></a><a id="s60" rel="nofollow " title="Wadena" class="hint   "><path d="M415.0766756013743,266.8756041872548L415.140186038459,258.1703044932656L437.18317508116183,258.2368730728863L437.6526127994123,293.20689036487965L440.41827828728356,294.07545327976914L440.44865539384864,295.38394211376453L415.5764904261898,295.36057037006094Z" stroke="#FFFFFF" stroke-dasharray="1, 0" stroke-width="1"></path><text x="417.4246169392691" y="276.88637783418704" title="Wadena" class="hint " style="">Wadena</text></a><a id="s61" rel="nofollow " title="Winona" class="hint   "><path d="M595.9876510360177,476.7404156511402L608.9330518809488,476.73884935714705L617.1017926059696,481.9828359771468L617.7824039936042,484.0206028578832L624.5510449527776,489.94057898086885L633.6225403476751,492.5019071010097L642.6091205875421,504.9505717803713L595.978854576588,504.9493520680785Z" stroke="#FFFFFF" stroke-dasharray="1, 0" stroke-width="1"></path><text x="604.5243656743078" y="493.5157681523603" title="Winona" class="hint " style="">Winona</text></a><a id="s62" rel="nofollow " title="Isanti" class="hint   "><path d="M511.86177298771486,348.98118718888054L533.6705416373268,349.28876508665917L533.6599272429485,363.7625384272487L540.6977398606809,363.8181504929112L540.8384832115617,376.0030383027888L512.073650373854,375.75008354179045Z" stroke="#FFFFFF" stroke-dasharray="1, 0" stroke-width="1"></path><text x="515.6802363785495" y="363.4334406590909" title="Isanti" class="hint " style="">Isanti</text></a><a id="s63" rel="nofollow " title="Houston" class="hint   "><path d="M616.4198910709522,519.0352812089391L616.4375426328754,504.9611426073898L642.6091205875421,504.9505717803713L644.9655747827269,510.9656336922694L643.5288197424848,516.0973982955161L643.5116373250646,523.7559895045206L645.6745694127894,526.4708439097471L645.0108472272602,529.8303721723569L646.5048965399224,533.0457863142997L616.4496569491307,533.0353145956351Z" stroke="#FFFFFF" stroke-dasharray="1, 0" stroke-width="1"></path><text x="621.3758455582661" y="519.1643746676074" title="Houston" class="hint " style="">Houston</text></a><a id="s64" rel="nofollow " title="McLeod" class="hint   "><path d="M453.88841389864683,417.9879415072851L453.910580976411,411.9599682145472L482.6250980661789,412.04146258011406L482.7272542816934,433.6505940858315L468.44285974242143,433.6183255835981L468.40515225299805,440.8377362257693L454.14808538102216,440.8698736155343Z" stroke="#FFFFFF" stroke-dasharray="1, 0" stroke-width="1"></path><text x="458.30252736140903" y="424.87002777345265" title="McLeod" class="hint " style="">McLeod</text></a><a id="s65" rel="nofollow " title="Crow Wing" class="hint   "><path d="M460.18468498642596,308.22824709574434L464.1496011099275,302.0751498100685L463.2333618956934,258.1009933288128L496.4772932321205,258.3270004285123L496.36698563086793,276.5578280155182L494.398983084114,277.0214240942878L494.4381566501097,305.1761233182842L495.2893607076244,306.0297327207104L494.4313540548171,306.0357530533033L494.46360773939386,313.36824589320713L461.37543237794034,313.3252384603006L461.9051551648183,311.48113292680455Z" stroke="#FFFFFF" stroke-dasharray="1, 0" stroke-width="1"></path><text x="470.19085466223726" y="285.6024307735762" title="Crow Wing" class="hint " style="">Crow Wing</text></a><a id="s66" rel="nofollow " title="Carlton" class="hint   "><path d="M538.1917458551857,268.8357430371411L538.3774684352857,261.4393394979156L582.9375756839704,261.6461776530168L583.4545729262059,291.2504129227759L538.7693213813627,291.07611415827023Z" stroke="#FFFFFF" stroke-dasharray="1, 0" stroke-width="1"></path><text x="551.8096005665585" y="276.3517807014502" title="Carlton" class="hint " style="">Carlton</text></a><a id="s67" rel="nofollow " title="Goodhue" class="hint   "><path d="M539.5870988930426,471.6860913315527L539.6787580003042,450.2855638724677L544.7604139699818,450.98999180130477L546.7271263693519,450.11910441936243L546.7371543331033,448.0065244158068L554.1482886890474,448.02948062396445L554.1492269780526,440.88627184146526L557.6995366470842,440.905142092181L557.6995952901473,433.96364172134554L563.5602070638881,439.29521720284674L564.1846970403587,442.09785455671135L567.2354264568257,443.04334327070364L568.488863282545,445.98677024358994L581.3344502743748,447.377448585039L583.5633558078246,452.75882876805235L586.4365726729941,455.32357252818474L575.3960191562103,455.2359123193037L575.3753767980816,462.38067445597653L568.3321103755025,462.36180651673294L568.3240176328263,476.5823948823813L539.5720276258864,476.4343479503618Z" stroke="#FFFFFF" stroke-dasharray="1, 0" stroke-width="1"></path><text x="549.2079491045918" y="459.01610209300463" title="Goodhue" class="hint " style="">Goodhue</text></a><a id="s68" rel="nofollow " title="Kanabec" class="hint   "><path d="M511.5847431587317,335.9033700578175L511.603919440289,328.1430289061577L516.6230619049509,328.17602615254464L516.6618249695055,313.58784852442614L538.8265570107205,313.23829111847L538.7555989046514,328.1899507518169L533.6074417016823,328.20919194797625L533.6705416373268,349.28876508665917L511.86177298771486,348.98118718888054Z" stroke="#FFFFFF" stroke-dasharray="1, 0" stroke-width="1"></path><text x="515.7928639162152" y="331.22529647491183" title="Kanabec" class="hint " style="">Kanabec</text></a><a id="s69" rel="nofollow " title="Benton" class="hint   "><path d="M462.64482011676,341.6069758429462L497.18546685930346,341.5965412654714L497.4501230020219,363.633807374501L474.5774519058764,363.682385543942L471.3990565415477,358.61331363925774L471.76381639258057,354.33676524837165L472.65202422276366,353.70605145613536L471.391198371123,353.61154199996463L470.23604731876844,351.01212217286684L470.7207908764274,349.65882321597655L468.1114677941598,348.3057220801761L467.40487752967533,345.5444539723685Z" stroke="#FFFFFF" stroke-dasharray="1, 0" stroke-width="1"></path><text x="474.49256969737144" y="352.01164618925236" title="Benton" class="hint " style="">Benton</text></a><a id="s70" rel="nofollow " title="Hubbard" class="hint   "><path d="M413.95524431016815,205.77804455039495L444.0392528470695,206.00525836715815L444.64163438883975,258.2563208548222L415.140186038459,258.1703044932656L414.7517930330905,213.34350248632336L413.9848590569161,213.33268804872523Z" stroke="#FFFFFF" stroke-dasharray="1, 0" stroke-width="1"></path><text x="420.56471400417456" y="231.99366545597422" title="Hubbard" class="hint " style="">Hubbard</text></a><a id="s71" rel="nofollow " title="Beltrami" class="hint   "><path d="M389.4109527069984,107.12792329437025L412.26925625274134,107.03022984139307L412.32866167542556,122.41440880019354L458.37413906347024,122.29365566548404L458.9244455654141,205.85976310289516L413.95524431016815,205.77804455039495L413.3401372237563,165.75944700841274L409.69330107324527,164.35745910883543L408.3796378219613,160.67817216961885L411.2625307925032,152.85341178236195L389.95433932752394,152.8008067128626Z" stroke="#FFFFFF" stroke-dasharray="1, 0" stroke-width="1"></path><text x="419.25899216804544" y="156.61096033150656" title="Beltrami" class="hint " style="">Beltrami</text></a><a id="s72" rel="nofollow " title="Le Sueur" class="hint   "><path d="M481.87229706815447,471.4012369831735L487.2831165497057,464.372384005967L485.6516665407453,462.7920591478155L486.1435059090106,460.95199779598397L485.34930290860257,460.54677456641866L486.90598301240743,458.64115973650087L487.2508628651283,455.55401182960077L488.22164012782855,454.5915976024153L487.6216043085733,454.036687988169L488.7196956607586,453.85827826374316L489.9511413379032,451.19950747324356L489.89795207988277,449.38353771962284L488.5967798009897,448.01368281510213L511.2375762265583,447.97624509127127L511.18456289772666,476.4827704307713L496.9495458173892,476.5071450763644L496.9460272336173,472.9438668992293L482.22134057833955,472.9374003956159L482.83979031933563,472.0778511156632Z" stroke="#FFFFFF" stroke-dasharray="1, 0" stroke-width="1"></path><text x="490.15275386762323" y="462.12138696004155" title="Le Sueur" class="hint " style="">Le Sueur</text></a><a id="s73" rel="nofollow " title="Dodge" class="hint   "><path d="M539.3088375597388,504.7873715505639L539.2934144342041,476.43516590170657L560.8267366175305,476.5333190551846L560.8446227517056,504.83494169131336Z" stroke="#FFFFFF" stroke-dasharray="1, 0" stroke-width="1"></path><text x="541.0651979687533" y="490.6479619563631" title="Dodge" class="hint " style="">Dodge</text></a><a id="s74" rel="nofollow " title="Jackson" class="hint   "><path d="M398.0433288471486,529.3359716956693L398.16348848296275,504.8783642842668L433.2354413750804,504.86649222817596L433.22892664368806,533.0406098952644L398.0502471968516,533.0381747646443Z" stroke="#FFFFFF" stroke-dasharray="1, 0" stroke-width="1"></path><text x="406.66554351930864" y="518.9641158078897" title="Jackson" class="hint " style="">Jackson</text></a><a id="s75" rel="nofollow " title="Otter Tail" class="hint   "><path d="M349.56475078075164,273.34713339361406L355.954088409301,273.0545669690373L355.8182124326379,265.60650336150275L415.0991358944523,265.6248081244412L416.14474170537073,317.58443335028824L350.494653828634,317.42803609831026Z" stroke="#FFFFFF" stroke-dasharray="1, 0" stroke-width="1"></path><text x="374.2357711186768" y="291.87805658587894" title="Otter Tail" class="hint " style="">Otter Tail</text></a><a id="s76" rel="nofollow " title="Watonwan" class="hint   "><path d="M432.92117320117654,483.68494143845373L461.7121608449231,483.62924061914873L461.70488910512813,504.8707206350473L432.9455100722662,504.86698012146644Z" stroke="#FFFFFF" stroke-dasharray="1, 0" stroke-width="1"></path><text x="438.32764897729373" y="494.26102146856033" title="Watonwan" class="hint " style="">Watonwan</text></a><a id="s77" rel="nofollow " title="Pine" class="hint   "><path d="M533.6074417016823,328.20919194797625L538.7555989046514,328.1899507518169L538.7693213813627,291.07611415827023L583.4545729262059,291.2504129227759L583.3857846134631,320.32277668472625L581.1058009722572,321.3100259537414L580.000496523339,325.2815936136876L575.4970025104676,324.5590353091893L573.1044241885563,328.81626163452074L569.7208367472554,328.0201521999247L568.2617387000614,330.68575012343126L563.1661843244838,332.1603131444731L559.1269674403309,335.4699562034134L555.7582753369979,340.9199271141042L556.1881876308764,342.90648811241726L554.6162016876624,346.4702411797375L552.0147954188819,349.03193346988974L533.6705416373268,349.28876508665917Z" stroke="#FFFFFF" stroke-dasharray="1, 0" stroke-width="1"></path><text x="548.1802754596426" y="316.28315420001115" title="Pine" class="hint " style="">Pine</text></a><a id="s78" rel="nofollow " title="Sibley" class="hint   "><path d="M446.42749158232846,433.7166984440564L454.13406968899653,433.6747746875553L454.14808538102216,440.8698736155343L468.40515225299805,440.8377362257693L468.44285974242143,433.6183255835981L489.8733806365408,433.6852556611848L489.8619452392827,437.2849759518963L496.93752398950164,437.2758223171704L497.2022387752834,440.5217070568265L492.4649935138232,441.2207339406009L489.0411182883329,444.40004605722515L489.7290600588258,447.54367416758487L488.48758641793074,448.400796408539L489.89795207988277,449.38353771962284L489.9511413379032,451.19950747324356L487.4740583624,455.12130260115964L446.7376547418319,455.1776629910855Z" stroke="#FFFFFF" stroke-dasharray="1, 0" stroke-width="1"></path><text x="460.748022530267" y="445.02341048392947" title="Sibley" class="hint " style="">Sibley</text></a><a id="s79" rel="nofollow " title="Nobles" class="hint   "><path d="M362.9063407983108,526.032290791522L362.9883238001994,504.78753418431916L398.16348848296275,504.8783642842668L398.0502471968516,533.0381747646443L362.93891486691723,533.0760196984811Z" stroke="#FFFFFF" stroke-dasharray="1, 0" stroke-width="1"></path><text x="371.51066814608663" y="518.9422242361645" title="Nobles" class="hint " style="">Nobles</text></a><a id="s80" rel="nofollow " title="Stevens" class="hint   "><path d="M351.1578482265968,352.9361553056574L351.15990073379703,346.83808408530876L380.21835938727986,346.82866981859524L380.8696492434822,375.9576778624464L351.90431577383106,375.92810562782233Z" stroke="#FFFFFF" stroke-dasharray="1, 0" stroke-width="1"></path><text x="357.0013691603208" y="361.3726322441315" title="Stevens" class="hint " style="">Stevens</text></a><a id="s81" rel="nofollow " title="Chisago" class="hint   "><path d="M533.6601618152001,363.16022770498193L533.6705416373268,349.28876508665917L550.6261863332547,349.3363996310659L549.656640574874,350.38826892476254L548.6084544691889,356.55093658763144L548.803032151782,362.3071782481338L552.3474188714642,363.52592854288923L555.2735317793392,362.914372984736L558.0491079448341,365.1858832228736L558.014215322429,367.41671336745594L562.352570470267,372.4299228030486L562.4860420813525,377.1108504666254L559.4191271795337,380.45325828854857L559.2975014671472,383.1186425299961L556.9059988901283,385.67718643273565L540.8456963082945,385.58669907735793L540.6977398606809,363.8181504929112Z" stroke="#FFFFFF" stroke-dasharray="1, 0" stroke-width="1"></path><text x="538.4030969829023" y="368.42340956964307" title="Chisago" class="hint " style="">Chisago</text></a><a id="s82" rel="nofollow " title="Dakota" class="hint   "><path d="M522.6530934873138,428.5295528551346L522.6560842835199,427.57085775899895L529.0534560116826,424.26711774848354L531.2756175929012,419.6286608009086L534.4425189169083,416.9355270756655L539.0387862552361,416.9477840871946L541.4497198558249,421.72015330921613L541.0497155240082,428.85331576523095L548.7985166359413,428.95029991799584L550.4713686472853,431.1533908575434L553.563065766715,431.3117504478446L557.3936544311705,433.67609512644503L557.6995366470842,440.905142092181L554.1492269780526,440.88627184146526L554.1482886890474,448.02948062396445L546.7371543331033,448.0065244158068L546.7271263693519,450.11910441936243L544.7604139699818,450.98999180130477L539.6787580003042,450.2855638724677L539.6701961131253,453.87602913703313L525.4667876436729,453.865592288937L525.6730352957754,440.80147839857955L523.2957628132726,440.8157343497883Z" stroke="#FFFFFF" stroke-dasharray="1, 0" stroke-width="1"></path><text x="529.0665186047516" y="437.3536308536577" title="Dakota" class="hint " style="">Dakota</text></a><a id="s83" rel="nofollow " title="Grant" class="hint   "><path d="M350.4322576097436,328.4745942231789L350.494653828634,317.42803609831026L379.55909407452964,317.52615505240783L380.21835938727986,346.82866981859524L351.15990073379703,346.83808408530876L351.1802498766117,332.1196708565885L350.4480912367178,332.1144429847882Z" stroke="#FFFFFF" stroke-dasharray="1, 0" stroke-width="1"></path><text x="356.3410582968588" y="332.1225526212623" title="Grant" class="hint " style="">Grant</text></a><a id="s84" rel="nofollow " title="Freeborn" class="hint   "><path d="M503.9591511218823,527.2630054398951L503.96800622437513,504.86323960499794L539.0814784050035,504.8385195975634L539.1009480935033,533.1249019997458L503.9537535373488,533.1259286952231Z" stroke="#FFFFFF" stroke-dasharray="1, 0" stroke-width="1"></path><text x="512.5291113523585" y="518.9903123467626" title="Freeborn" class="hint " style="">Freeborn</text></a><a id="s85" rel="nofollow " title="Anoka" class="hint   "><path d="M511.9305026573952,389.348220954535L512.073650373854,375.75008354179045L540.8384832115617,376.0030383027888L540.7824790865238,399.9924873290938L528.6329266078626,399.9370501738608L528.6779058370819,407.3170418120144L525.3647487142837,407.34243530581716L525.6637696918424,401.6960950355028L523.71582307259,398.3372386154515L516.9022028841973,392.3649099549293L513.5163283634454,391.5229520290445Z" stroke="#FFFFFF" stroke-dasharray="1, 0" stroke-width="1"></path><text x="518.5178591681921" y="387.523568317754" title="Anoka" class="hint " style="">Anoka</text></a><a id="s86" rel="nofollow " title="Clay" class="hint   "><path d="M316.80913332516275,228.45201842290362L354.640425158017,228.39402397414096L354.7049325271705,243.35471245490817L355.8463024597511,243.3543686520693L355.954088409301,273.0545669690373L319.2628246222366,273.1908611625704L319.9702358896013,272.2397922883033L319.0632622792996,269.8249437117156L320.06048756335326,268.4112465416474L319.6659956794472,265.61129339993977L320.3588048241577,264.78741922147356L319.76434009587524,262.2139931614415L320.44102239829704,261.8641353066323L319.7567164977022,261.48437210477005L320.5679259863416,261.482745459326L319.3343105158715,260.504856474161L319.8711291133559,259.75869241198006L318.9928906038592,257.58759561141005L320.29904754309655,256.3671039578662L319.49833516270996,255.74242171782953L320.5871022678996,255.24419234144216L320.2353025337602,251.770862740972L320.9917980447449,251.75370399286157L320.5167892355216,250.37221489796775L321.8832312433858,247.89135818438717L319.6254146799431,247.5562970746073L318.86868459670745,245.92417814287592L319.4357043715679,244.38067746967363L317.8606103460231,244.04218073717993L317.89040102195963,241.09588852149955L316.8228627055287,240.83076454718412L318.39578693774774,238.11733040069066L317.36015044751593,236.1763485494207L318.15552630918137,232.01680932772751L316.93921054225666,230.908616267865L317.9708593042126,230.13685926526023Z" stroke="#FFFFFF" stroke-dasharray="1, 0" stroke-width="1"></path><text x="328.30352826830074" y="250.64838740628792" title="Clay" class="hint " style="">Clay</text></a><a id="s87" rel="nofollow " title="Pennington" class="hint   "><path d="M336.67471234726827,145.0668994213488L336.68556131389914,139.3181088369197L389.87804470273454,139.42292955694347L390.56023945306606,160.38644839968174L383.0853600877854,160.22548025004699L383.0723999708921,157.72794607334708L337.75831886292485,157.792317021524L337.7562077126622,152.70304733261992L336.68216001625274,152.70453785025438Z" stroke="#FFFFFF" stroke-dasharray="1, 0" stroke-width="1"></path><text x="354.979509303043" y="148.7445810777336" title="Pennington" class="hint " style="">Pennington</text></a></g></g></svg>