<svg id="map" class="map svg-content-responsive" xmlns:xlink="http://www.w3.org/1999/xlink" preserveAspectRatio="xMinYMin meet" viewBox="0 0 960  540"><g><g id="states"><a id="s01" rel="nofollow " title="Attala" class="hint   "><path d="M444.4021528752519,262.31084690176385L450.4323754664481,256.9990939530526L451.7249020823583,250.10939219117972L456.8507481131812,243.13913371023864L456.79716510888034,238.2895582279848L459.17320106051557,237.06921979566187L460.6813665961695,230.08463561666076L462.7496705621338,229.32988637743847L467.4089523847865,220.30678700526641L500.9620197893596,220.28625461120055L500.7219853554643,257.0975030434338L464.91363979431276,257.2770865343282L464.9256632977165,261.93174527474093Z" stroke="#FFFFFF" stroke-dasharray="1, 0" stroke-width="1"></path><text x="468.89824901764433" y="241.01364947355412" title="Scott" class="hint Scott " style="">Attala</text></a><a id="s02" rel="nofollow " title="DeSoto" class="hint   "><path d="M414.3930566623726,53.06655069475619L419.61282542268236,49.64378504929573L420.10239111562396,46.42660793213054L414.4547424624443,40.24969154678138L465.4215519416812,40.30098415169368L465.498435119287,63.97564953554229L449.05237350693324,63.95496626582553L445.4004521651141,68.78927962887701L438.80573480179146,70.79189100435178L432.11979564090575,68.14439924142744L429.29357532631866,65.06659622416419L426.4620402747189,65.38634532744663L424.0105524828839,69.26715806941729L423.79221263121644,54.62999880036932L414.8797127912551,54.607181977622076Z" stroke="#FFFFFF" stroke-dasharray="1, 0" stroke-width="1"></path><text x="433.1458062961168" y="53.03120284392842" title="DeSoto" class="hint " style="">DeSoto</text></a><a id="s03" rel="nofollow " title="Issaquena" class="hint   "><path d="M335.62847989333477,257.23597987178937L339.7883506905482,248.82278259666327L361.73952145196154,249.20034809814888L361.7653981223309,255.79526194774053L359.4881640030146,264.31814431648536L357.46943520688046,266.788541753564L357.3372637962743,284.96427897176545L378.3962557543914,285.0336190826183L381.16288131297733,287.70788793607517L378.61023926424514,288.9742846549193L378.05776799552245,294.78935471590376L366.42441856447385,294.0284219661794L366.3535844465953,307.70793502750075L359.5185712688685,306.7477563771131L357.4664728944481,310.9679831771341L357.40879492884346,293.9837565819107L350.4902331566859,293.9150465903854L353.87527895750145,290.44964961187407L353.0312812946554,287.2735425540927L350.9289978625484,287.69143739849596L349.93740733907816,290.71774090181634L343.83347544440653,293.03353226165245L341.0921166683361,289.8146601594981L341.22847016708147,286.90529523616624L349.50586811908533,279.1222149043442L339.87146969233936,275.8002882797823L341.6424097661502,266.3092410848326L345.0726804365256,264.6990145677728L348.6607378073679,260.2723951379412L346.7131916364567,252.46531878300448L344.9899099420786,251.14912420933842L342.4688078080742,252.1131264522155L342.83587316923513,257.5890136721432L341.0597054852467,260.1820104740209L337.13072080412167,259.67880795927977Z" stroke="#FFFFFF" stroke-dasharray="1, 0" stroke-width="1"></path><text x="346.3328619472461" y="276.8600029160754" title="Issaquena" class="hint " style="">Issaquena</text></a><a id="s04" rel="nofollow " title="Lauderdale" class="hint   "><path d="M535.8957861681381,298.794285165196L535.9775982673846,293.8441758692056L581.7765824103972,293.72341934146834L578.0792009109248,329.88976868238433L536.035886120842,330.2470092315575Z" stroke="#FFFFFF" stroke-dasharray="1, 0" stroke-width="1"></path><text x="548.9318885718977" y="311.66265532916117" title="Lauderdale" class="hint " style="">Lauderdale</text></a><a id="s05" rel="nofollow " title="Tunica" class="hint   "><path d="M390.13572567200345,74.71883154074385L393.49559785868087,72.1213773648501L394.5232588923634,74.47845495880938L393.1233048873439,77.90613865510068L395.034954801715,79.32338361031589L400.7981336397761,74.36403805408872L400.34995319405607,71.74115106949557L394.44371209085875,71.77114164652039L391.8997827257515,68.73966697552623L394.7544063889595,66.33523677719768L393.691110479248,62.673250658743655L395.844885871584,60.797914021165525L397.7527893319955,64.09486907077917L395.67411727251624,66.33343410817588L396.08108672468416,68.26069960694576L401.7628890976787,67.87320241944371L400.05328631659313,61.7597161403246L401.5915106107557,58.55687081010137L399.14298513135304,53.68726980781821L400.78828830727866,51.3786511966091L403.36663277270804,52.25577940153835L405.2570237390321,57.65861557080325L411.7465790109891,54.63180388329556L414.2791818873811,56.34476561381325L414.8797127912551,54.607181977622076L423.79221263121644,54.62999880036932L423.9601060446896,69.0540877159483L421.24549520735013,71.41675880350067L422.709051802839,76.11816077033109L420.15048512924,82.00571764091228L423.0124274466939,85.08044381713898L422.38389444991844,86.52001944220228L424.09672092394385,87.05596472607385L424.1049979733891,91.63936559574404L414.88863410701674,91.79447648769019L415.1034888852332,100.78508094830795L406.595814704996,100.86313729566746L391.7974086931474,90.18233182929907L394.27146233557187,87.4338362562753L390.23984224133415,80.56794358656998Z" stroke="#FFFFFF" stroke-dasharray="1, 0" stroke-width="1"></path><text x="399.68056474007017" y="76.68940932862083" title="Tunica" class="hint " style="">Tunica</text></a><a id="s06" rel="nofollow " title="Wilkinson" class="hint   "><path d="M299.8114216485583,454.94849289756667L303.8806805360605,453.0519098498421L305.4930497678804,449.99225658999694L300.1235971028757,444.28117658090196L299.88992292802686,441.8923017092934L305.43807273420043,431.5170606155757L307.749547700166,431.61956916042436L308.12863656473155,433.66288904132944L311.84023978938853,432.3457589785585L312.7002687901065,429.0770145990464L311.0452074085201,426.7311620170817L313.2340077890335,426.4205201942159L313.4627157342136,422.9573105016557L317.35205770484004,423.3881000884903L328.2547614870168,418.3535695833507L335.280669562987,417.57866631336265L336.08641854471557,419.3621561883974L341.62681406246134,420.1047795440372L343.9978837844287,422.88143078875964L345.4569969112674,422.2510144529565L347.3098362111625,426.0921281463866L349.0946294519392,426.7963068300837L349.0298112458254,455.60117444562275L298.7812339366242,455.55410947806104Z" stroke="#FFFFFF" stroke-dasharray="1, 0" stroke-width="1"></path><text x="318.13020172996534" y="439.0830751835552" title="Wilkinson" class="hint " style="">Wilkinson</text></a><a id="s07" rel="nofollow " title="Yazoo" class="hint   "><path d="M375.2079363083087,267.05618018695395L384.1855726433305,258.04666063712466L402.205057791695,257.96569957733936L402.25472008836323,249.0639317579189L409.68498381141444,248.97499510666012L411.23767116039676,247.67419793483305L444.3754049365209,262.50225927261636L441.8007197982133,267.22872559822736L439.8753909705497,267.95661595849833L437.96321829516114,276.1791303412847L432.72297472833134,281.0849582488436L429.90633836573215,280.8856482849201L429.5581795280377,282.38621723735696L427.9863242750803,281.9805058116099L424.17530933025046,284.85540359959714L417.1597693477952,285.22870003899516L412.16069286373,290.775350555909L410.8923003814639,290.10666348489303L406.1678476852894,294.07308713528164L402.7136171349423,293.03239482923846L400.87689629975466,296.8730190454462L395.7886019353605,299.8000267059165L395.90369648605997,301.4761583394343L393.1501399529127,301.01497592648093L393.1429084255021,298.5006951447276L390.17876632911634,298.5162997757966L390.17057640650773,297.03725685487643L384.4019957045982,297.0399441705704L384.2888179442973,292.5189849482881L381.2635999356935,292.5585903884589L381.2899993670794,289.53133676226525L378.66260249283687,289.51064833235523L381.16288131297733,287.70788793607517L378.3866718024026,285.89763606779616L379.35055599194243,282.41323642680436L380.66033372143147,282.36861848911394L381.79315684647804,284.8660635072729L383.57228684289885,282.56209935700554L376.6994606182368,278.0869858411879L377.2907904559297,275.2894432523062L381.24173109979256,275.15134137244013L379.0342855763199,271.43694089752717L380.91160751720554,269.2066489553722L375.2182172749872,269.30202478418323Z" stroke="#FFFFFF" stroke-dasharray="1, 0" stroke-width="1"></path><text x="397.9359784897527" y="272.66181152708674" title="Wilkinson" class="hint " style="">Wilkinson</text></a><a id="s08" rel="nofollow " title="Warren" class="hint   "><path d="M339.1451803852799,336.4197811749973L340.50766985070595,332.53621222837046L346.98276206784453,330.0138354249116L348.92569051643227,330.8171482835414L350.87741877548274,328.3762025393462L354.02278469128896,330.3640059146019L354.6977562917914,333.54892622869374L356.9417950864936,327.3284162460395L356.064253591687,323.0847682142321L358.8210338177755,324.13766773259067L361.0517422065293,322.5758998366232L365.1118527762246,314.96636557828106L361.91150982673844,318.367937899729L354.26673983281603,316.48670610972795L354.79176614811604,311.7237120610462L357.0843345906137,310.23582846578256L357.1625744895748,308.4583540722665L354.8106726715837,306.87351444597334L351.6964981631586,308.6603756609834L345.97209076723334,306.0587413163207L344.0553003695236,302.3099271235478L346.1086185196532,296.72087167149857L350.28495628891847,302.25827716112735L354.3436728292327,303.593233212579L354.7231973279802,300.90783865226194L347.27115189586334,295.96485240695756L350.4902331566859,293.9150465903854L357.40879492884346,293.9837565819107L357.4664728944481,310.9679831771341L359.5185712688685,306.7477563771131L366.3535844465953,307.70793502750075L366.42441856447385,294.0284219661794L377.81355147348677,295.00924851578384L378.66260249283687,289.51064833235523L381.2899993670794,289.53133676226525L381.2635999356935,292.5585903884589L384.2888179442973,292.5189849482881L384.4019957045982,297.0399441705704L393.1429084255021,298.5006951447276L393.0055094047218,301.2787329183425L388.77201643086937,303.7293623398218L390.3673088027815,307.4674866846008L385.97602912846423,314.7534424139385L386.68907515641195,318.3649473711871L380.000783570948,317.5578821212357L380.7722917060264,322.6768099071737L377.9538256798662,326.64298039705045L379.22631312343606,327.3453119711471L377.63128213203254,331.1958143018405L372.4826088701102,335.11926074851954L374.3422440632337,337.33708769221903L371.8500680388654,338.62351221667905L370.7217755093043,337.32072454500485L369.89912392134215,339.21155971582857L369.42663508830606,337.23880546686587L367.8814406472429,336.95414139875766L366.6366595376023,338.7109756824939L367.70823249675914,340.1102802821383L365.15776861893323,340.1879561534315L364.81718981599465,341.5441453099397L362.3866124648616,339.707590030745L360.77973222372657,343.05996898462627L361.7775958794077,344.6967879922845L359.16265814274993,345.2554584456061L359.2115362978907,344.1461057085394L357.2370679345763,344.27136176902786L357.6547539876058,342.49715658345303L355.1211927160134,343.33827713096434L351.600615404029,341.5536207734435L354.02278469128896,336.64404738812163L349.195870835674,334.6987531414011L349.64300575935795,340.5351748721041L340.0898095440057,339.66509769093545Z" stroke="#FFFFFF" stroke-dasharray="1, 0" stroke-width="1"></path><text x="358.34277316517347" y="316.542921125866" title="Warren" class="hint " style="">Warren</text></a><a id="s09" rel="nofollow " title="Washington" class="hint   "><path d="M333.72031505241443,204.11118167608038L338.3256653634221,198.05308793574932L335.4852433745241,194.83344722963284L375.0746322488312,194.84076351971316L374.857686426546,221.8700311806324L378.99586264152936,221.90410691242232L377.6755425648523,222.47441360092807L377.5993065831253,226.10976082576326L382.24342833626883,229.2296163266642L380.3641896049869,236.9920264259631L382.19080372716735,239.3471709347009L361.72836921692056,239.87405936742198L361.73952145196154,249.20034809814888L339.7883506905482,248.82278259666327L343.02894623838597,246.51351770910514L343.7166383569827,243.85136816730346L336.83605784389283,238.88463645449792L336.6955222570059,236.99233852985162L338.27408627635646,235.2683220635099L342.8049431423624,236.57827133000092L346.44658351750354,235.48017409400882L346.285485997259,227.0316238209325L348.1163693344183,226.3557806158169L350.4751541724736,221.42432553181425L347.4339048259967,220.5207588918679L345.0281586231972,224.8457059450593L341.9375083605621,218.82875310916825L341.88488375146153,213.67251528075758L347.7159343949679,207.72779126822206L349.2556398453471,203.61730250020537L346.7396781946802,202.9662388014035L344.93859223552295,208.44666124979403L340.8569613372715,210.55076093183106L336.09243029641675,207.44045693742646L342.7852524773675,205.21244571928537L343.9518808148837,203.2231195638351L343.3756239198633,200.7452738416855L339.690681507102,198.08537258706747L338.8289970964929,203.79512298865075Z" stroke="#FFFFFF" stroke-dasharray="1, 0" stroke-width="1"></path><text x="349.80245765793785" y="220.43797588671472" title="Washington" class="hint " style="">Washington</text></a><a id="s10" rel="nofollow " title="Adams" class="hint   "><path d="M297.20711338592264,429.86505516801526L298.4056301455096,428.3258087467093L305.1197112745074,428.8643997361787L309.6596293314849,426.5663100253746L309.9580387456731,423.4100265985048L306.4462173565589,420.1333447567972L306.68668742463615,416.53907103583424L304.7049004070759,417.034135324363L304.06782898034544,413.6792196391307L306.7907168671302,411.3791237325172L308.81005555111824,417.2850765166809L313.11159458408815,417.67734393811634L313.1464453185913,415.16682042352113L309.39432811507413,409.726813929145L308.7490667657348,402.2815478272232L315.59897863246215,400.1974851156915L318.7356318646423,397.44706866940896L319.08413920968087,395.36072193940026L312.0004660412694,395.72893395860456L309.26111118243307,391.51758019114914L310.9159983103473,389.6715718525302L316.2262918535307,393.0182534716437L319.33680703483265,392.23044739578654L319.60690022723793,383.12000168155055L322.4717177302887,379.143427240183L326.58171458466677,378.97873184898117L328.8494892713238,384.93820208356374L328.1155328026732,386.89589869069687L331.0111060789245,387.77535384804196L330.8115856238892,389.4788557332545L333.95015564646815,391.3049477728646L340.8722956604529,391.19463899754373L340.49686612301025,420.1904749272153L336.08641854471557,419.3621561883974L335.280669562987,417.57866631336265L331.87270336269466,418.8200732006294L330.3764742036101,417.8139806686004L317.35205770484004,423.3881000884903L313.4627157342136,422.9573105016557L313.2340077890335,426.4205201942159L311.0452074085201,426.7311620170817L312.7002687901065,429.0770145990464L311.84023978938853,432.3457589785585L308.12863656473155,433.66288904132944L307.9423593888082,431.844554267042L306.1334320143885,431.21003793623686L302.9189489821986,436.0467817435515Z" stroke="#FFFFFF" stroke-dasharray="1, 0" stroke-width="1"></path><text x="314.3792861031102" y="406.4029035674721" title="Adams" class="hint " style="">Adams</text></a><a id="s11" rel="nofollow " title="Bolivar" class="hint   "><path d="M334.0157621541716,191.9032148395022L341.01980139424063,189.26110335857948L342.9107151215819,186.82263084822034L339.96870324160477,182.9256473554542L334.5385231717287,180.26834133873945L335.79837722404204,177.17073754026524L340.2602296357293,176.24420195251787L346.5912140656942,181.44892802057984L351.53496500873416,179.27616454187773L349.05786192703863,175.43561772995372L343.33920490230594,176.06782786200165L341.5735795655057,173.9577736331912L341.6328258141625,169.932380882502L342.75911442648953,168.24691403873385L352.2472268951558,170.38817823814088L355.0409488998182,168.94178817033253L354.26665270597937,166.55599319084877L350.1941701255362,164.8975769569547L347.9147578353136,160.4832862160656L353.37700058093355,152.93617276197028L346.4558189621471,148.6961520286959L352.6301493405165,145.1834218785948L354.26656557914384,149.0420964524028L356.8151997934078,149.52112279555467L357.62617638531265,147.62198958818044L355.32602790805936,143.51357609815022L363.95088768306687,142.38349120441944L365.43491908507553,136.40332632754735L361.1352097156655,135.63469180647598L358.1118213706227,132.88122373038868L383.94640947779794,133.0136184587659L384.02107717647164,185.75155725494187L374.8841729847684,185.76285660496796L374.88068791131855,194.83700085698365L335.4852433745241,194.83344722963284Z" stroke="#FFFFFF" stroke-dasharray="1, 0" stroke-width="1"></path><text x="355.7216702074568" y="166.9686382817584" title="Bolivar" class="hint " style="">Bolivar</text></a><a id="s12" rel="nofollow " title="Copiah" class="hint   "><path d="M377.2528902821564,375.25436047911444L377.5388405587605,370.75950132691696L378.9516022087098,369.2614585646429L378.8198664322854,348.338808452595L421.3348002145158,348.1973651493081L419.81696360003866,350.15507632728577L420.98951656241934,351.54538262730057L422.8210969142674,350.81094748792793L421.1184642800836,352.3913455601132L423.4463190912661,354.54141196901855L425.0642644406066,358.23569299669134L424.12582128725535,359.27449376483173L426.44818710775303,359.9927673168286L426.5672023660843,363.11697039255114L428.84931558823155,364.4887434012944L429.90093650188373,367.85426994406725L427.5546979282508,369.1715089688132L430.31226229586537,371.2062940798778L428.27262305902946,373.8461146185691L432.0374607806409,376.1203410920907L430.24055690962405,376.9419707049292L430.67723661295645,378.75530955883914L418.8366995652816,383.6779410160593L408.28773073832076,384.05797233869225L408.3461057186148,385.59504446673736L405.363666986613,385.58623908575055L405.31505021198086,384.0322687323728L377.20566753690446,384.2334923174176Z" stroke="#FFFFFF" stroke-dasharray="1, 0" stroke-width="1"></path><text x="393.3636166629693" y="366.73615139557046" title="Copiah" class="hint " style="">Copiah</text></a><a id="s13" rel="nofollow " title="Grenada" class="hint   "><path d="M429.4849929855809,174.71998100146448L429.5107825291125,165.53157778011246L443.2077310769689,165.49561101958898L443.2962519426094,163.99620357487038L447.82458213036284,164.00732054062792L447.8415718634342,156.23225081964165L461.50332116944105,156.3183241847728L461.5247543711614,159.4461096952159L484.3255860397787,159.43194408605495L484.3674940480191,179.3323876753234L429.465476574258,179.40159294965406Z" stroke="#FFFFFF" stroke-dasharray="1, 0" stroke-width="1"></path><text x="449.70215849220546" y="169.6376141963726" title="Grenada" class="hint " style="">Grenada</text></a><a id="s14" rel="nofollow " title="Leflore" class="hint   "><path d="M401.86857395006155,221.25560404248154L402.05258582824104,165.31441185216954L425.5057361199347,165.5683832662462L426.48486750581833,167.8388115839739L425.23215785407865,170.12375780194634L415.57763312815814,171.6895206166887L414.05796685011796,174.5045036939391L416.74112489956747,177.59757997580164L420.2989492582258,173.11231411441895L422.1966588787957,174.67032844823552L429.4849929855809,174.71998100146448L429.465476574258,179.40159294965406L432.4281375144283,181.05168279847612L431.99947348003116,186.79365348499414L430.05419260686494,187.04848371252956L432.5170068874131,187.05716622481214L432.5680632134613,202.19722372485148L429.41328759933936,202.1790522908709L429.3952523442333,206.63299140900608L426.1768741396411,206.5757897267913L426.1892461503901,215.30061759528462L413.39040103069806,210.94650337506073L416.82668345277466,213.77963212764098L416.44628768566554,217.45911627472015L411.44965075301525,217.83610494871618L409.76182968099647,221.24007608913962L408.585965898837,220.72211507681914L409.47492100919226,225.08780140145882L405.39886622846257,225.52061953817883Z" stroke="#FFFFFF" stroke-dasharray="1, 0" stroke-width="1"></path><text x="406.1693073199586" y="192.59205491709804" title="Leflore" class="hint " style="">Leflore</text></a><a id="s15" rel="nofollow " title="Lowndes" class="hint   "><path d="M557.1725952169029,197.26369757792463L567.3917018417853,195.6562837029869L569.9860776450878,192.58330245208936L574.3853729883406,195.41664148715108L572.3037386164278,191.2693960808674L574.268884408262,187.10162474108074L571.5074864598512,185.8920657582562L571.3524006913101,181.63482648603622L580.2341975064453,179.77870523280035L581.415898786634,177.44825025868704L583.3908027841292,178.461989080713L586.8628072090728,175.03925922439612L587.2864178869656,172.24141814083578L593.9673606204419,172.2762390740877L589.1335950679584,219.99838444880925L557.3620089589308,220.1438815073625Z" stroke="#FFFFFF" stroke-dasharray="1, 0" stroke-width="1"></path><text x="568.000167070519" y="200.72234805878557" title="Lowndes" class="hint " style="">Lowndes</text></a><a id="s16" rel="nofollow " title="Noxubee" class="hint   "><path d="M544.7594606013317,240.72766650144513L544.8177484547891,220.19578645488264L589.1335950679584,219.99838444880925L585.3494118320646,257.364947793636L544.8413598274146,257.68720884136656Z" stroke="#FFFFFF" stroke-dasharray="1, 0" stroke-width="1"></path><text x="557.0177823918883" y="238.53193051514896" title="Noxubee" class="hint " style="">Noxubee</text></a><a id="s17" rel="nofollow " title="Rankin" class="hint   "><path d="M419.3199921260143,337.63213400868426L420.31437070824495,335.00438220775686L424.33536132845916,334.27472649073434L425.52716932165276,332.6165249805222L423.1912988415347,329.05059302106974L423.51636906761996,327.387654172564L425.3489949415025,326.36572159670504L425.9182816896232,323.43406449496433L428.2129411761907,323.3585170109127L427.22927919482026,321.792392426667L431.81180227472873,317.8534497682913L433.109730754486,313.2423116033219L435.4881191306995,312.96403543402903L435.4722620465009,308.13760869461703L437.86023437470294,307.8204656084117L439.2348344703694,304.72620473192865L443.00977890498825,301.98401105073526L444.83186243168393,302.68758292487155L453.6983249236366,293.0292927401265L459.9177870031897,292.28879436591114L464.92156833641275,316.998484921392L464.9213069559039,348.47038170923815L421.3348002145158,348.1973651493081L421.6392213804065,343.61657703310857L419.9182049837725,343.7335098983458L420.78041215539656,343.006486799944L419.51541761974363,341.7532709068182L420.39949362727,340.4409384096675Z" stroke="#FFFFFF" stroke-dasharray="1, 0" stroke-width="1"></path><text x="437.11171570007417" y="326.07436913370634" title="Rankin" class="hint " style="">Rankin</text></a><a id="s18" rel="nofollow " title="Tishomingo" class="hint   "><path d="M583.8077918224669,55.27014275829697L583.9831901367011,40.26079407750149L598.2255406866987,40.25607294231304L602.1851940141864,48.04235812189927L607.127812308355,51.249804280519584L602.0392565634522,96.69983785392515L586.9749394473376,96.66211227883014L586.8437264319318,67.32569427783528L583.8140649546779,65.74754701846996Z" stroke="#FFFFFF" stroke-dasharray="1, 0" stroke-width="1"></path><text x="585.7923281362887" y="67.28827734173586" title="Tishomingo" class="hint " style="">Tishomingo</text></a><a id="s19" rel="nofollow " title="Holmes" class="hint   "><path d="M403.79155035314557,239.93084418785702L404.8417772374187,237.94264541972552L409.2309658676663,241.1152369043525L407.96266051223574,237.46745231612022L409.2656423484973,236.9563424779999L410.55363836892275,240.21029108655512L410.59580775767176,237.22880617640294L412.5911865616881,235.9295629899584L412.5125110285471,218.48620687534594L414.35524361543594,216.6543140730846L416.44628768566554,217.45911627472015L417.03979569426474,214.66123818244978L413.39040103069806,210.94650337506073L463.3089377240851,227.99598579276244L460.6813665961695,230.08463561666076L459.17320106051557,237.06921979566187L456.79716510888034,238.2895582279848L456.8507481131812,243.13913371023864L451.7249020823583,250.10939219117972L450.4323754664481,256.9990939530526L444.3754049365209,262.50225927261636L411.48772518046167,247.72418005440068L408.89718295795524,248.62079840648494L407.9641416684524,245.05801695550235L404.08743308908356,244.0411909695972Z" stroke="#FFFFFF" stroke-dasharray="1, 0" stroke-width="1"></path><text x="424.3941964216706" y="237.00319220177596" title="Holmes" class="hint " style="">Holmes</text></a><a id="s20" rel="nofollow " title="Chickasaw" class="hint   "><path d="M511.919700605215,168.19470982760276L511.97206383380785,165.2808560491594L516.5169481204496,165.23534579077022L516.4052515163667,137.72203334195274L553.0154253516139,137.67943298354248L552.9269916128112,165.32070355126098L534.5260651753015,165.21122735747304L534.4887748893825,171.29771252670662L525.4998120656476,171.31406003651273L525.5239461992917,172.85708914695442L511.8203760118788,172.94384130361414Z" stroke="#FFFFFF" stroke-dasharray="1, 0" stroke-width="1"></path><text x="524.0729511729967" y="153.82766211004864" title="Chickasaw" class="hint " style="">Chickasaw</text></a><a id="s21" rel="nofollow " title="Madison" class="hint   "><path d="M402.0741061567969,293.67088607531605L406.1678476852894,294.07308713528164L410.8923003814639,290.10666348489303L412.03688562940556,290.8533350465523L417.1597693477952,285.22870003899516L424.17530933025046,284.85540359959714L427.9863242750803,281.9805058116099L429.5581795280377,282.38621723735696L429.90633836573215,280.8856482849201L432.72297472833134,281.0849582488436L437.96321829516114,276.1791303412847L439.8753909705497,267.95661595849833L441.8007197982133,267.22872559822736L444.3754049365209,262.50225927261636L464.9256632977165,261.93174527474093L464.9005707688732,287.9206042039482L460.0544018824439,293.143242132212L453.6983249236366,293.0292927401265L444.83186243168393,302.68758292487155L443.00977890498825,301.98401105073526L439.68510596015904,304.2255247730227L437.86023437470294,307.8204656084117L435.4722620465009,308.13760869461703L435.8165873033988,312.13390382982516L420.1644254230423,312.11213058228986L420.1751420239025,303.0852618589561L402.2075844699466,302.99632786548545Z" stroke="#FFFFFF" stroke-dasharray="1, 0" stroke-width="1"></path><text x="429.54297220120753" y="287.8285064319811" title="Madison" class="hint " style="">Madison</text></a><a id="s22" rel="nofollow " title="Pearl River" class="hint   "><path d="M454.27466894549457,489.69563428687525L455.52659445570794,488.72523952585925L455.6158123360369,482.4277935046721L457.4276148960555,481.9508637316512L456.32789996878637,481.9422473579243L456.1779546835851,477.8469873009476L458.3832220361501,476.756345042505L458.94545151053376,473.68690248745816L460.4689513693679,473.7611672428102L459.48424386596275,470.6903748788927L461.2919514646753,470.2548878915568L461.171977811146,465.82269168605535L463.66824879681803,463.5643483137642L462.63274634787354,461.236199163734L465.1821647036645,458.80832037845175L464.4443746542188,455.52371773852656L480.44861607990015,455.2998933636304L480.44826757255487,453.87235770979896L484.8494797062074,453.8656480091149L484.8446006033764,455.3462443397443L487.06250134720017,455.3562057047957L487.0553569466265,457.2326223212631L491.4713806424418,457.27825267317576L491.5174707388235,454.4666560974806L498.84544755610614,455.38974900162384L498.7805380630921,491.2365207461112L481.11243544536273,491.1708957160099L481.0882141848822,504.47993664323894L472.15231160442977,505.9082813539908L472.1619826832541,510.34105879718754L468.4313449859112,510.3020451768575L462.47591804260696,505.6386875672547L460.60861568789096,501.70001582943587L458.48672871762665,501.1937737760927L459.9725897831963,499.20011606799517L458.1288116742728,499.3068716007874L457.6153732281946,495.2864964368996L456.1424940612269,494.2814234914249L457.6104069985281,492.2026161342483Z" stroke="#FFFFFF" stroke-dasharray="1, 0" stroke-width="1"></path><text x="468.137896162104" y="479.0329271366538" title="Pearl River" class="hint " style="">Pearl River</text></a><a id="s23" rel="nofollow " title="Claiborne" class="hint   "><path d="M333.8099685669265,365.9500931852449L338.5399973806211,361.73268057862197L337.4421992437508,359.9157680514422L338.8188032566525,356.0548351784769L345.2053746081492,354.29836235522725L347.6623513906693,351.5786759369048L346.5994039883019,349.76720496967664L340.6571795017278,347.8964826768224L340.70074291985793,345.54223588390005L342.52178092452004,345.04867301374L347.10473963860795,348.4207335793494L347.17444110761517,345.3160227853741L351.600615404029,341.5536207734435L355.1211927160134,343.33827713096434L357.6547539876058,342.49715658345303L357.2370679345763,344.27136176902786L361.4245579388837,345.0147396142738L361.0951313709861,341.19284908521286L362.3142971907662,339.7480244514977L364.81718981599465,341.5441453099397L365.15776861893323,340.1879561534315L367.70823249675914,340.1102802821383L366.6366595376023,338.7109756824939L367.8814406472429,336.95414139875766L369.42663508830606,337.23880546686587L369.89912392134215,339.21155971582857L370.7217755093043,337.32072454500485L371.8500680388654,338.62351221667905L374.1285219338897,337.4695355124154L372.53976407469645,334.983691568269L376.01420805105477,333.17179674937233L377.92028184790547,330.15091843262735L379.1589640790071,355.60578449967306L378.9516022087098,369.2614585646429L377.5388405587605,370.75950132691696L377.2528902821564,375.25436047911444L367.1135047124519,375.32734000231676L367.983466172504,371.09441841536045L353.0844286647732,367.49010437859715L332.65597362066796,366.6698085394519Z" stroke="#FFFFFF" stroke-dasharray="1, 0" stroke-width="1"></path><text x="352.9968526955776" y="355.9497998412817" title="Claiborne" class="hint " style="">Claiborne</text></a><a id="s24" rel="nofollow " title="Humphreys" class="hint   "><path d="M377.543806788427,225.54697338374717L377.6755425648523,222.47441360092807L378.99586264152936,221.90410691242232L393.0290336505118,221.8518990878456L392.9995847798559,215.73828132438803L401.9140541585891,215.7066851494169L401.8645661155931,222.1885874002969L405.39886622846257,225.52061953817883L409.47492100919226,225.08780140145882L408.585965898837,220.72211507681914L409.76182968099647,221.24007608913962L412.1065870984128,217.9543277119078L412.5911865616881,235.9295629899584L410.59580775767176,237.22880617640294L410.55363836892275,240.21029108655512L409.2656423484973,236.9563424779999L407.96266051223574,237.46745231612022L409.2309658676663,241.1152369043525L404.8417772374187,237.94264541972552L403.76837461470086,240.0300607748295L404.08743308908356,244.0411909695972L407.9641416684524,245.05801695550235L408.12532631553154,247.76543328236812L409.68498381141444,248.97499510666012L402.25472008836323,249.0639317579189L402.205057791695,257.96569957733936L384.1925427902311,258.04666063712466L384.069084063251,239.96797253359L380.24717826388996,240.00634873246463L382.25031135633276,239.20904750563068L380.36349259029635,237.15535933571073L382.24342833626883,229.2296163266642Z" stroke="#FFFFFF" stroke-dasharray="1, 0" stroke-width="1"></path><text x="386.3367043925333" y="236.72672678822371" title="Humphreys" class="hint " style="">Humphreys</text></a><a id="s25" rel="nofollow " title="Tate" class="hint   "><path d="M420.15048512924,82.00571764091228L422.709051802839,76.11816077033109L421.24549520735013,71.41675880350067L424.30835200921933,69.4516028490848L426.4620402747189,65.38634532744663L430.1716395821418,65.22440420616203L432.11979564090575,68.14439924142744L438.80573480179146,70.79189100435178L445.4004521651141,68.78927962887701L449.05237350693324,63.95496626582553L465.498435119287,63.97564953554229L465.5950587806983,73.17825205172767L470.22585012789364,73.16839808342502L470.28988835254495,87.06210050759182L423.55174256314035,87.05469525350281Z" stroke="#FFFFFF" stroke-dasharray="1, 0" stroke-width="1"></path><text x="437.27380585583614" y="76.9268473042455" title="Tate" class="hint " style="">Tate</text></a><a id="s26" rel="nofollow " title="Hinds" class="hint   "><path d="M377.984842833574,330.05822540901136L379.22631312343606,327.3453119711471L377.9538256798662,326.64298039705045L380.7722917060264,322.6768099071737L380.000783570948,317.5578821212357L386.68907515641195,318.3649473711871L385.97602912846423,314.7534424139385L390.3673088027815,307.4674866846008L388.77201643086937,303.7293623398218L391.6755182492193,301.14608051423147L395.90369648605997,301.4761583394343L395.7886019353605,299.8000267059165L400.87689629975466,296.8730190454462L402.1925115272752,294.17213551581017L402.2075844699466,302.99632786548545L420.1751420239025,303.0852618589561L420.1644254230423,312.11213058228986L435.6788397752721,312.17084600070257L433.109730754486,313.2423116033219L431.81180227472873,317.8534497682913L427.22927919482026,321.792392426667L428.2129411761907,323.3585170109127L425.9182816896232,323.43406449496433L425.3489949415025,326.36572159670504L423.51636906761996,327.387654172564L423.1912988415347,329.05059302106974L425.52716932165276,332.6165249805222L420.1894308250478,335.13984815186996L419.51541761974363,341.7532709068182L420.78041215539656,343.006486799944L419.9182049837725,343.7335098983458L421.6392213804065,343.61657703310857L421.3348002145158,348.1973651493081L378.8198664322854,348.338808452595Z" stroke="#FFFFFF" stroke-dasharray="1, 0" stroke-width="1"></path><text x="393.8437141553688" y="325.8832983889899" title="Hinds" class="hint " style="">Hinds</text></a><a id="s27" rel="nofollow " title="Calhoun" class="hint   "><path d="M484.11691726693675,128.4644463156742L507.1413163973957,128.5587903930782L507.23271244863304,137.74033565560921L516.4052515163667,137.72203334195274L516.5169481204496,165.23534579077022L511.97206383380785,165.2808560491594L511.8079168742943,174.6665573570417L484.3445796900819,174.70206840311448Z" stroke="#FFFFFF" stroke-dasharray="1, 0" stroke-width="1"></path><text x="490.18109706290306" y="152.15275700110317" title="Calhoun" class="hint " style="">Calhoun</text></a><a id="s28" rel="nofollow " title="Clarke" class="hint   "><path d="M535.9984215812519,333.1567647929728L536.035886120842,330.2470092315575L578.0792009109248,329.88976868238433L574.4257127135297,364.206441466059L559.8323161473991,368.3045848727438L536.3310718420905,371.1006736432305Z" stroke="#FFFFFF" stroke-dasharray="1, 0" stroke-width="1"></path><text x="546.625227664838" y="348.9309733519082" title="Clarke" class="hint " style="">Clarke</text></a><a id="s29" rel="nofollow " title="Harrison" class="hint   "><path d="M539.7025318979897,517.7403809858884L543.3487899954521,519.1559991626877L544.3203413465819,520.2720301473983L539.4743467138271,517.7947189397237ZM537.8606705794625,532.9355866576716L538.2022949044369,532.51101946994L539.040977830271,532.190010400383L537.8088301118892,533.2254113922995ZM530.0788500721039,535.3020391636537L532.7314266020262,535.1185430785408L532.9623998449504,535.2017216695549L530.7363963053554,535.7291081187259ZM517.9609011777802,533.2742188995921L521.7760982107502,533.4094467091732L522.8042820054491,531.8671755254568L520.8290295006086,535.4568991528377L514.8735617349228,533.3789928816454ZM498.7571009441399,506.04995164585034L498.7805380630921,491.2365207461112L507.6073578445473,491.24401493453206L507.61284683523354,488.2545938042326L538.5899221989553,488.2412217052588L538.7121611502287,514.3927677389424L541.0093473150475,517.2324379473685L527.1065180531093,517.9182407217668L521.1124530989609,519.5821496581016L520.5640767915431,521.5045464871178L519.9212549936201,520.0737146379247L503.13705412974286,526.0555587598337L503.1022033952397,523.5525442396929L505.11570458119763,522.2915115894598L503.0451353174881,519.7626016828226L501.3269941064509,520.2739486588462L501.5474250021866,518.9787676526948L498.8240143543858,519.0293211812514Z" stroke="#FFFFFF" stroke-dasharray="1, 0" stroke-width="1"></path><text x="509.4785928748422" y="504.94164545425394" title="Harrison" class="hint " style="">Harrison</text></a><a id="s30" rel="nofollow " title="Wayne" class="hint   "><path d="M533.4993625368184,397.8260393242376L533.4649474364962,371.31437435530506L559.8323161473991,368.3045848727438L574.4257127135297,364.206441466059L576.4869074433477,411.09231448579567L533.4551021039988,411.3350113797087Z" stroke="#FFFFFF" stroke-dasharray="1, 0" stroke-width="1"></path><text x="546.0225245505815" y="389.9867435353984" title="Wayne" class="hint " style="">Wayne</text></a><a id="s31" rel="nofollow " title="Winston" class="hint   "><path d="M500.76215082698036,248.561365996527L500.83594725729245,238.6827448287504L509.89138785709224,238.62751249420444L509.9348641483871,229.45483193795963L519.0415353279072,229.40110555677757L519.0427551036153,220.24654462112494L544.8177484547891,220.19578645488264L544.8413598274146,257.68720884136656L500.7219853554643,257.0975030434338Z" stroke="#FFFFFF" stroke-dasharray="1, 0" stroke-width="1"></path><text x="516.501272432079" y="240.80004822652143" title="Winston" class="hint " style="">Winston</text></a><a id="s32" rel="nofollow " title="Yalobusha" class="hint   "><path d="M447.3723067233402,128.2305824049845L465.6736471870049,128.31376748162938L465.70684251161924,125.25625699111242L484.1437523325044,125.42320871649008L484.3255860397787,159.43194408605495L461.5247543711614,159.4461096952159L461.50332116944105,156.3183241847728L447.8415718634342,156.23225081964165Z" stroke="#FFFFFF" stroke-dasharray="1, 0" stroke-width="1"></path><text x="457.77608665270213" y="142.5046518733728" title="Yalobusha" class="hint " style="">Yalobusha</text></a><a id="s33" rel="nofollow " title="Pontotoc" class="hint   "><path d="M507.0700466453361,109.20200440209828L507.0669100792295,105.55824125195659L534.7242787277921,105.55644660075768L534.7676678922492,107.07089709008233L543.7798064544286,107.09781220955256L543.8184036428911,137.63451831101065L507.23271244863304,137.74033565560921Z" stroke="#FFFFFF" stroke-dasharray="1, 0" stroke-width="1"></path><text x="516.2963314582316" y="121.7936036744749" title="Pontotoc" class="hint " style="">Pontotoc</text></a><a id="s34" rel="nofollow " title="Smith" class="hint   "><path d="M464.8203269526789,336.35308692962417L464.8901155485228,330.4681276132983L500.41451475030453,330.3205442893018L500.94877651024785,373.61873370803596L471.63364554817645,375.8161448214005L471.51158085057637,351.9023547558618L470.8441892848284,348.45321561529045L464.9213069559039,348.47038170923815Z" stroke="#FFFFFF" stroke-dasharray="1, 0" stroke-width="1"></path><text x="475.479820376728" y="351.4906747593915" title="Smith" class="hint " style="">Smith</text></a><a id="s35" rel="nofollow " title="Jones" class="hint   "><path d="M493.57200866465996,374.15457711187537L533.4649474364962,371.31437435530506L533.4551021039988,411.3350113797087L493.7505315521555,411.276705157014Z" stroke="#FFFFFF" stroke-dasharray="1, 0" stroke-width="1"></path><text x="504.80925647123115" y="391.99575311520834" title="Jones" class="hint " style="">Jones</text></a><a id="s36" rel="nofollow " title="Lafayette" class="hint   "><path d="M465.6219809731026,101.21697000115L465.68148860226825,87.0719389069618L487.0003799129465,87.09933826229098L490.7161652257439,90.70673947407977L499.66626948050634,89.93285976230209L506.842297095352,92.85332351075795L507.1413163973957,128.5587903930782L484.11691726693675,128.4644463156742L484.1437523325044,125.42320871649008L465.70684251161924,125.25625699111242Z" stroke="#FFFFFF" stroke-dasharray="1, 0" stroke-width="1"></path><text x="477.23203601859575" y="107.90990505146198" title="Lafayette" class="hint " style="">Lafayette</text></a><a id="s37" rel="nofollow " title="Lincoln" class="hint   "><path d="M377.20566753690446,384.2334923174176L405.31505021198086,384.0322687323728L405.363666986613,385.58623908575055L408.3461057186148,385.59504446673736L408.28773073832076,384.05797233869225L417.01139234564357,384.09278986184927L420.04009542769927,382.28426030291894L420.1534474416735,419.8253460675087L386.2252118801664,419.92410260344286L386.2313978855409,393.1467517610454L377.16158135775686,393.1759091729573Z" stroke="#FFFFFF" stroke-dasharray="1, 0" stroke-width="1"></path><text x="392.8362000023765" y="401.1782066356011" title="Lincoln" class="hint " style="">Lincoln</text></a><a id="s38" rel="nofollow " title="Sunflower" class="hint   "><path d="M374.7957392459655,203.5806520419619L374.8841729847684,185.76285660496796L384.02107717647164,185.75155725494187L384.1603058608139,146.81912009821326L402.107562861921,147.0184519771842L401.9140541585891,215.7066851494169L392.9995847798559,215.73828132438803L393.0290336505118,221.8518990878456L374.857686426546,221.8700311806324Z" stroke="#FFFFFF" stroke-dasharray="1, 0" stroke-width="1"></path><text x="381.09508418386827" y="187.18538391869248" title="Sunflower" class="hint " style="">Sunflower</text></a><a id="s39" rel="nofollow " title="Franklin" class="hint   "><path d="M340.6149229861421,417.9487787018347L340.8702917432188,393.2839442789809L386.2313978855409,393.1467517610454L386.2252118801664,419.92410260344286L355.7569572401994,419.9888855227714L355.1617066948736,421.2548702273616L352.7066467027523,420.10814616281914L344.560984527174,422.91845282035547L340.49686612301025,420.1904749272153Z" stroke="#FFFFFF" stroke-dasharray="1, 0" stroke-width="1"></path><text x="354.2064122124371" y="406.8464922502387" title="Franklin" class="hint " style="">Franklin</text></a><a id="s40" rel="nofollow " title="Greene" class="hint   "><path d="M542.3244397815495,416.48834871970985L542.3212160886073,411.30999386706435L576.4869074433477,411.09231448579567L578.5721525806989,455.66742930470036L542.3890007672171,455.65636325988817Z" stroke="#FFFFFF" stroke-dasharray="1, 0" stroke-width="1"></path><text x="550.9617485747375" y="433.6430010408834" title="Greene" class="hint " style="">Greene</text></a><a id="s41" rel="nofollow " title="Marion" class="hint   "><path d="M437.86868567781926,422.2299012659537L437.87548157104766,415.2946128605672L456.79533544532046,415.76943053306513L456.71657278534076,411.27016993653933L471.53022599353653,411.299578393543L471.5453860630457,455.24042961572104L455.6996318045906,455.28543154517274L455.70267779178766,447.8758940809071L448.2907107043511,447.90122359621546L446.7891668082548,441.9716961034419L440.88562663697894,442.0377558132891L440.8680270160546,437.6288815421335L438.6238139676816,437.61645789744125Z" stroke="#FFFFFF" stroke-dasharray="1, 0" stroke-width="1"></path><text x="447.88206728894835" y="431.96528370729067" title="Marion" class="hint " style="">Marion</text></a><a id="s42" rel="nofollow " title="Monroe" class="hint   "><path d="M552.8885686780195,156.69000466382295L553.0390367242405,136.12054050206143L597.9014232937839,136.41361056962205L593.9673606204419,172.2762390740877L587.2864178869656,172.24141814083578L586.8628072090728,175.03925922439612L583.3908027841292,178.461989080713L581.415898786634,177.44825025868704L580.2341975064453,179.77870523280035L572.4078551857572,180.74486560295873L571.1955723860424,182.19595280911972L572.7297888457356,179.2696732077684L552.9577473860093,179.05514245181848Z" stroke="#FFFFFF" stroke-dasharray="1, 0" stroke-width="1"></path><text x="564.7797633615892" y="156.834956509112" title="Monroe" class="hint " style="">Monroe</text></a><a id="s43" rel="nofollow " title="Oktibbeha" class="hint   "><path d="M520.8056795084917,203.56718217815887L520.8395718477966,191.42382946197313L557.1485482100954,191.1001123124306L557.3620089589308,220.1438815073625L520.840268862486,220.2396657075892Z" stroke="#FFFFFF" stroke-dasharray="1, 0" stroke-width="1"></path><text x="530.0631633516881" y="205.74045306784814" title="Oktibbeha" class="hint " style="">Oktibbeha</text></a><a id="s44" rel="nofollow " title="Prentiss" class="hint   "><path d="M551.5327008521488,86.83433319826236L551.5799235974018,82.60554986449642L553.1173637500383,82.60671413640921L553.055155188948,65.62272944594952L585.3044566157332,65.77395254709654L585.3092485917277,67.30957810534846L586.8437264319318,67.32569427783528L586.9749394473376,96.66211227883014L568.4268557833857,96.48193608846805L568.4556076393519,91.83983559857734L551.4906185902364,91.86965194987215Z" stroke="#FFFFFF" stroke-dasharray="1, 0" stroke-width="1"></path><text x="561.3679556884077" y="80.3084443688542" title="Prentiss" class="hint " style="">Prentiss</text></a><a id="s45" rel="nofollow " title="Sharkey" class="hint   "><path d="M357.36235632511875,278.5994366618479L357.46943520688046,266.788541753564L359.4881640030146,264.31814431648536L361.7653981223309,255.79526194774053L361.72836921692056,239.87405936742198L384.069084063251,239.96797253359L384.1925427902311,258.04666063712466L375.2079363083087,267.05618018695395L375.2182172749872,269.30202478418323L380.91160751720554,269.2066489553722L379.0342855763199,271.43694089752717L381.24173109979256,275.15134137244013L377.2907904559297,275.2894432523062L376.6994606182368,278.0869858411879L382.90681206754834,281.47952752894207L383.2301397569081,284.1171492308158L381.2139376390255,284.61757062000015L380.02927404640445,282.06798528510035L378.3962557543914,285.0336190826183L357.3372637962743,284.96427897176545Z" stroke="#FFFFFF" stroke-dasharray="1, 0" stroke-width="1"></path><text x="361.56322830424415" y="262.40313293980546" title="Sharkey" class="hint " style="">Sharkey</text></a><a id="s46" rel="nofollow " title="Jackson" class="hint   "><path d="M571.8346477300058,534.9382699929401L576.1493429152508,536.3496158280618L579.6655206461785,535.8346626971243L576.1310462796371,536.8185749530076ZM564.7230068471554,522.6175865264681L566.0046426085344,522.21741132644L566.188828740386,523.4051696031379L565.1656983021903,523.3738774454805ZM548.5616757356977,532.1486606911917L553.0903544307976,531.1368501443476L564.5277556070982,534.3022468293657L553.3659366138866,532.0657590472665ZM538.5898350721188,482.3335244291088L579.720968053331,482.33285365734264L581.6120212950539,521.1317888632775L579.9408414487589,522.1373541508269L579.7276420804312,520.531328737165L576.7249027955827,520.5934261040738L576.7434608117062,522.5859890234433L573.8254088116998,524.536768790837L569.7462174648635,522.1051493789687L565.1679635999333,521.9278698215908L564.4090017292758,519.4479445311422L562.2472106680043,520.9410631772485L562.311945907345,518.9781617275476L552.150342994393,522.0812228817686L544.9430368453293,517.8163328381943L546.8428375099688,517.6735186321334L540.9203036883896,513.2419179066837L538.7121611502287,514.3927677389424Z" stroke="#FFFFFF" stroke-dasharray="1, 0" stroke-width="1"></path><text x="551.3632546226092" y="501.6818027761611" title="Jackson" class="hint " style="">Jackson</text></a><a id="s47" rel="nofollow " title="Panola" class="hint   "><path d="M424.09672092394385,87.05596472607385L465.68148860226825,87.0719389069618L465.6736471870049,128.31376748162938L429.600958804642,128.67587673967955L429.6859074699951,117.55674079504843L424.4927123947441,113.782047941565Z" stroke="#FFFFFF" stroke-dasharray="1, 0" stroke-width="1"></path><text x="436.72256741424366" y="107.16853538270536" title="Panola" class="hint " style="">Panola</text></a><a id="s48" rel="nofollow " title="Jefferson Davis" class="hint   "><path d="M443.5361992496671,396.12576876282355L443.61705295371644,377.76311923340427L462.73991235647304,376.43098428450776L462.69539054314464,393.3163750328322L476.00183661088454,400.5685772550787L477.39325218595127,403.1639787739564L477.4019648695762,411.31152555338986L456.71657278534076,411.27016993653933L456.79533544532046,415.76943053306513L444.9802394338342,415.7216640412694L444.9665605205405,402.2464901070225L443.48932501176023,402.24076638537963Z" stroke="#FFFFFF" stroke-dasharray="1, 0" stroke-width="1"></path><text x="447.84604257136107" y="397.40255733995986" title="Jefferson Davis" class="hint " style="">Jefferson Davis</text></a><a id="s49" rel="nofollow " title="Kemper" class="hint   "><path d="M535.9133857890611,275.222309213319L535.9865723315204,257.6221261139758L585.3494118320646,257.364947793636L581.7765824103972,293.72341934146834L535.9775982673846,293.8441758692056Z" stroke="#FFFFFF" stroke-dasharray="1, 0" stroke-width="1"></path><text x="550.7798628919979" y="275.4125917256955" title="Kemper" class="hint " style="">Kemper</text></a><a id="s50" rel="nofollow " title="George" class="hint   "><path d="M538.5459231466455,464.5584740081108L542.9513173684372,464.60569473322676L542.9631666181676,455.69976488691054L578.5721525806989,455.66742930470036L579.720968053331,482.33285365734264L538.5898350721188,482.3335244291088Z" stroke="#FFFFFF" stroke-dasharray="1, 0" stroke-width="1"></path><text x="550.5399698492935" y="469.4051313644827" title="George" class="hint " style="">George</text></a><a id="s51" rel="nofollow " title="Amite" class="hint   "><path d="M346.08718531793284,422.79657534593025L352.7066467027523,420.10814616281914L355.1617066948736,421.2548702273616L355.7569572401994,419.9888855227714L393.63996702636405,419.89676101962186L393.6908070879133,455.52287769359464L349.0298112458254,455.60117444562275L349.0946294519392,426.7963068300837L347.3098362111625,426.0921281463866Z" stroke="#FFFFFF" stroke-dasharray="1, 0" stroke-width="1"></path><text x="362.27966351180163" y="437.7310782046043" title="Amite" class="hint " style="">Amite</text></a><a id="s52" rel="nofollow " title="Pike" class="hint   "><path d="M393.6248940836904,431.1744744374555L393.63996702636405,419.89676101962186L418.715767516554,419.8253460675087L418.78861202535654,455.42795128798116L393.6908070879133,455.52287769359464Z" stroke="#FFFFFF" stroke-dasharray="1, 0" stroke-width="1"></path><text x="397.1996202047521" y="437.669518001744" title="Pike" class="hint " style="">Pike</text></a><a id="s53" rel="nofollow " title="Jefferson" class="hint   "><path d="M322.5867251541504,375.8458679331761L325.19181755831096,368.37136095599544L328.71182887003374,367.66367461683467L329.6877365629773,372.3195438518628L332.0053975343171,372.53485752180995L332.92580543256327,370.6086514558192L330.8378108016029,367.81744369743956L332.65597362066796,366.6698085394519L353.0844286647732,367.49010437859715L367.983466172504,371.09441841536045L367.1135047124519,375.32734000231676L377.2528902821564,375.25436047911444L377.16158135775686,393.1759091729573L340.8702917432188,393.2839442789809L340.8722956604529,391.19463899754373L333.95015564646815,391.3049477728646L330.8115856238892,389.4788557332545L330.75303638992295,387.5652993185463L328.1155328026732,386.89589869069687L328.8494892713238,384.93820208356374L326.58171458466677,378.97873184898117L330.2686111803198,379.41688288264413L331.35787088723737,377.2158997392694L323.3273032623563,378.131193684545Z" stroke="#FFFFFF" stroke-dasharray="1, 0" stroke-width="1"></path><text x="342.04878186349526" y="380.60423146968753" title="Jefferson" class="hint " style="">Jefferson</text></a><a id="s54" rel="nofollow " title="Simpson" class="hint   "><path d="M419.80241341838337,350.0687470423977L421.3348002145158,348.1973651493081L470.8441892848284,348.45321561529045L471.63364554817645,375.8161448214005L430.72411085086446,378.68276626677016L430.1650179425865,377.09097760343593L431.60095533098047,376.93817888947615L431.73338812209545,374.93332590276077L428.27262305902946,373.8461146185691L430.31226229586537,371.2062940798778L427.5350072632557,369.2450482118479L429.85397513713906,367.9957265330995L429.05232111671535,364.8698530277111L426.5672023660843,363.11697039255114L425.8334201511068,359.1965645729106L424.12582128725535,359.27449376483173L425.0642644406066,358.23569299669134L421.1184642800836,352.3913455601132L422.8210969142674,350.81094748792793L420.98951656241934,351.54538262730057Z" stroke="#FFFFFF" stroke-dasharray="1, 0" stroke-width="1"></path><text x="439.3120413587606" y="362.2157741234357" title="Simpson" class="hint " style="">Simpson</text></a><a id="s55" rel="nofollow " title="Carroll" class="hint   "><path d="M426.1768741396411,206.5757897267913L429.3952523442333,206.63299140900608L429.41328759933936,202.1790522908709L432.5680632134613,202.19722372485148L432.5170068874131,187.05716622481214L430.05419260686494,187.04848371252956L431.99947348003116,186.79365348499414L432.4281375144283,181.05168279847612L430.2701800339519,179.40033658027778L459.97041161229026,179.4243122656253L460.11530354098977,206.6517802039707L472.21835374631405,208.08493734011336L472.3084428950069,220.29052785439444L467.4089523847865,220.30678700526641L463.23322450337423,227.6913792417149L426.1892461503901,215.30061759528462Z" stroke="#FFFFFF" stroke-dasharray="1, 0" stroke-width="1"></path><text x="439.3671481081855" y="203.25124299630806" title="Carroll" class="hint " style="">Carroll</text></a><a id="s56" rel="nofollow " title="Tallahatchie" class="hint   "><path d="M402.06722313673276,165.27645184069752L402.11026379384566,137.84657248093026L429.58013549077555,137.8499383794492L429.600958804642,128.67587673967955L447.3723067233402,128.2305824049845L447.82458213036284,164.00732054062792L443.2962519426094,163.99620357487038L443.2077310769689,165.49561101958898L429.5107825291125,165.53157778011246L429.4849929855809,174.71998100146448L422.1966588787957,174.67032844823552L420.2989492582258,173.11231411441895L416.74112489956747,177.59757997580164L414.2418044746264,175.27944367068676L414.7792028006754,172.51761613673852L425.23215785407865,170.12375780194634L426.48486750581833,167.8388115839739L425.5057361199347,165.5683832662462Z" stroke="#FFFFFF" stroke-dasharray="1, 0" stroke-width="1"></path><text x="417.2672691223388" y="150.58327899529502" title="Tallahatchie" class="hint " style="">Tallahatchie</text></a><a id="s57" rel="nofollow " title="Union" class="hint   "><path d="M507.0736188456226,96.00479485115693L507.1303384160278,82.4872166966993L551.5799235974018,82.60554986449642L551.4726704619657,93.37662079764641L546.8749001857138,93.34765525502416L546.8459740760754,104.04342600403243L543.7658661606274,104.02220323262236L543.7798064544286,107.09781220955256L534.7676678922492,107.07089709008233L534.7242787277921,105.55644660075768L507.0669100792295,105.55824125195659Z" stroke="#FFFFFF" stroke-dasharray="1, 0" stroke-width="1"></path><text x="519.1903191637452" y="93.8593916580462" title="Union" class="hint " style="">Union</text></a><a id="s58" rel="nofollow " title="Choctaw" class="hint   "><path d="M488.96970779292224,204.88494118858443L492.03648530242094,205.1291352016474L493.1261806435193,202.97803876844955L498.8593007230718,201.10332196027503L500.6647430240416,198.2757347577317L505.74763552458717,195.96165371843608L520.8236276367602,194.43846329230155L520.840268862486,220.2396657075892L519.0427551036153,220.24654462112494L519.0415353279072,229.40110555677757L509.9348641483871,229.45483193795963L509.89138785709224,238.62751249420444L500.83594725729245,238.6827448287504L500.9620197893596,220.28625461120055L488.9907924872962,220.24602349149427Z" stroke="#FFFFFF" stroke-dasharray="1, 0" stroke-width="1"></path><text x="497.88356651777445" y="213.92862063782488" title="Choctaw" class="hint " style="">Choctaw</text></a><a id="s59" rel="nofollow " title="Lamar" class="hint   "><path d="M471.53022599353653,411.299578393543L489.1817745123774,411.276705157014L489.22908438446734,420.22230444605157L498.2214451548152,420.18996483791034L498.12673828380116,454.44063216218683L491.5174707388235,454.4666560974806L491.4713806424418,457.27825267317576L487.0553569466265,457.2326223212631L487.06250134720017,455.3562057047957L484.8446006033764,455.3462443397443L484.8494797062074,453.8656480091149L471.5453860630457,455.24042961572104Z" stroke="#FFFFFF" stroke-dasharray="1, 0" stroke-width="1"></path><text x="475.23155046734325" y="434.4529672799893" title="Lamar" class="hint " style="">Lamar</text></a><a id="s60" rel="nofollow " title="Clay" class="hint   "><path d="M525.3872441931996,183.75155846829193L525.4998120656476,171.31406003651273L534.4887748893825,171.29771252670662L534.5260651753015,165.21122735747304L552.9269916128112,165.32070355126098L552.9577473860093,179.05514245181848L572.7297888457356,179.2696732077684L570.8696308915946,182.338191366091L572.217483048531,183.08953791724798L571.5074864598512,185.8920657582562L574.268884408262,187.10162474108074L572.3037386164278,191.2693960808674L574.5425498009536,195.07477715944196L569.9860776450878,192.58330245208936L567.3917018417853,195.6562837029869L557.1725952169029,197.26369757792463L557.1485482100954,191.1001123124306L526.9079559932736,191.41598761392424L526.9143162523212,183.75291887777803Z" stroke="#FFFFFF" stroke-dasharray="1, 0" stroke-width="1"></path><text x="538.4118121092102" y="181.57079677678541" title="Clay" class="hint " style="">Clay</text></a><a id="s61" rel="nofollow " title="Webster" class="hint   "><path d="M484.3445796900819,174.70206840311448L511.8079168742943,174.6665573570417L511.8203760118788,172.94384130361414L525.5239461992917,172.85708914695442L525.3912520276667,183.94169986428005L526.9143162523212,183.75291887777803L526.9079559932736,191.41598761392424L520.8395718477966,191.42382946197313L520.8236276367602,194.43846329230155L505.74763552458717,195.96165371843608L495.64667288967325,202.0303375755925L484.4002537384524,202.10678392814452Z" stroke="#FFFFFF" stroke-dasharray="1, 0" stroke-width="1"></path><text x="494.74309489944955" y="186.12018997161076" title="Webster" class="hint " style="">Webster</text></a><a id="s62" rel="nofollow " title="Covington" class="hint   "><path d="M462.6792720784372,392.93262108521003L462.73991235647304,376.43098428450776L493.57200866465996,374.15457711187537L493.7505315521555,411.276705157014L477.4019648695762,411.31152555338986L477.39325218595127,403.1639787739564L476.00183661088454,400.5685772550787Z" stroke="#FFFFFF" stroke-dasharray="1, 0" stroke-width="1"></path><text x="471.4098051924207" y="390.868376647575" title="Covington" class="hint " style="">Covington</text></a><a id="s63" rel="nofollow " title="Forrest" class="hint   "><path d="M489.1817745123774,411.276705157014L515.8011140337428,411.2743565626706L516.5090195783507,464.6509857937758L498.83629923829926,464.64743157019984L498.2214451548152,420.18996483791034L489.22908438446734,420.22230444605157Z" stroke="#FFFFFF" stroke-dasharray="1, 0" stroke-width="1"></path><text x="497.24679001423044" y="436.2205051246975" title="Forrest" class="hint " style="">Forrest</text></a><a id="s64" rel="nofollow " title="Neshoba" class="hint   "><path d="M500.7219853554643,257.0975030434338L535.9865723315204,257.6221261139758L535.9775982673846,293.8441758692056L500.85921012257245,293.8955624945097Z" stroke="#FFFFFF" stroke-dasharray="1, 0" stroke-width="1"></path><text x="509.34013063508246" y="275.60197891513616" title="Neshoba" class="hint " style="">Neshoba</text></a><a id="s65" rel="nofollow " title="Walthall" class="hint   "><path d="M418.66357854163425,422.04243044841314L418.715767516554,419.8253460675087L431.93639365057925,419.76464294029165L434.2209464241414,422.0181548517962L437.8771369809376,421.28006581072077L438.6238139676816,437.61645789744125L440.8680270160546,437.6288815421335L440.88562663697894,442.0377558132891L446.7891668082548,441.9716961034419L448.2907107043511,447.90122359621546L455.70267779178766,447.8758940809071L455.6996318045906,455.28543154517274L418.78861202535654,455.42795128798116Z" stroke="#FFFFFF" stroke-dasharray="1, 0" stroke-width="1"></path><text x="423.16724595196433" y="440.338091822653" title="Walthall" class="hint " style="">Walthall</text></a><a id="s66" rel="nofollow " title="Newton" class="hint   "><path d="M500.41817407742747,324.2804019294613L500.42270467291314,293.8981473272934L535.9775982673846,293.8441758692056L536.035886120842,330.2470092315575L500.41451475030453,330.3205442893018Z" stroke="#FFFFFF" stroke-dasharray="1, 0" stroke-width="1"></path><text x="509.21167158075843" y="312.0830092633482" title="Newton" class="hint " style="">Newton</text></a><a id="s67" rel="nofollow " title="Lawrence" class="hint   "><path d="M420.04009542769927,382.28426030291894L429.9653232338792,378.3376657209624L443.61705295371644,377.76311923340427L443.48932501176023,402.24076638537963L444.9665605205405,402.2464901070225L444.9802394338342,415.7216640412694L437.87548157104766,415.2946128605672L437.8771369809376,421.28006581072077L436.7863961178034,422.00836299713L434.2209464241414,422.0181548517962L431.93639365057925,419.76464294029165L420.1534474416735,419.8253460675087Z" stroke="#FFFFFF" stroke-dasharray="1, 0" stroke-width="1"></path><text x="423.0812584307573" y="399.30504854244236" title="Lawrence" class="hint " style="">Lawrence</text></a><a id="s68" rel="nofollow " title="Montgomery" class="hint   "><path d="M459.97041161229026,179.4243122656253L484.3674940480191,179.3323876753234L484.4002537384524,202.10678392814452L495.326307512747,202.05446210901437L491.74452327411586,205.27111757905186L488.96970779292224,204.88494118858443L488.9907924872962,220.24602349149427L472.3084428950069,220.29052785439444L472.21835374631405,208.08493734011336L460.11530354098977,206.6517802039707Z" stroke="#FFFFFF" stroke-dasharray="1, 0" stroke-width="1"></path><text x="465.83855854122356" y="198.52441426656233" title="Montgomery" class="hint " style="">Montgomery</text></a><a id="s69" rel="nofollow " title="Perry" class="hint   "><path d="M515.8215017134262,448.8049047505383L515.8011140337428,411.2743565626706L542.3212160886073,411.30999386706435L542.9513173684372,464.60569473322676L516.5090195783507,464.6509857937758Z" stroke="#FFFFFF" stroke-dasharray="1, 0" stroke-width="1"></path><text x="520.2728309826726" y="437.9798142189744" title="Perry" class="hint " style="">Perry</text></a><a id="s70" rel="nofollow " title="Hancock" class="hint   "><path d="M468.92121288174326,510.3147789950367L472.1619826832541,510.34105879718754L472.15231160442977,505.9082813539908L481.0882141848822,504.47993664323894L481.11243544536273,491.1708957160099L498.7805380630921,491.2365207461112L498.8240143543858,519.0293211812514L496.7035214135017,521.0280967422045L499.5559669058034,522.5633760519127L500.42732239523434,524.8848727593936L491.99318326480056,530.9967498114743L491.8711185672005,533.5070596716373L488.3402164009465,539.0198262332738L487.7413936553344,537.0979035748533L482.8312736710918,538.4143014834722L481.59860319169024,536.8979087098419L478.85393359584214,538.460261381194L474.8720629251079,534.1356721971124L475.02017854674955,531.9776122564804L472.14307615978623,527.4611072418174L473.968993267277,524.949566869881L473.6635265793516,522.4228514261786L471.27067514831947,520.6834918351856L468.9622496216218,515.6985518554338Z" stroke="#FFFFFF" stroke-dasharray="1, 0" stroke-width="1"></path><text x="476.9198124866558" y="514.6198423636938" title="Hancock" class="hint " style="">Hancock</text></a><a id="s71" rel="nofollow " title="Leake" class="hint   "><path d="M464.9005707688732,287.9206042039482L464.91363979431276,257.2770865343282L500.7219853554643,257.0975030434338L500.85921012257245,293.8955624945097L464.91381404798494,293.81388140736135Z" stroke="#FFFFFF" stroke-dasharray="1, 0" stroke-width="1"></path><text x="473.87020582209044" y="275.53336934093977" title="Leake" class="hint " style="">Leake</text></a><a id="s72" rel="nofollow " title="Tippah" class="hint   "><path d="M520.8089032014327,65.58487023838279L520.8568229613754,59.41396415967483L525.4505854031604,59.41895195084135L525.4794243859621,54.80116147489571L527.0004846933823,54.80530246578792L527.0374188667506,40.32930902457383L543.9468517811758,40.3067463635507L543.909886820963,54.815283307556L550.0538099334797,54.79978114416235L550.0443131083264,65.60374683852524L553.055155188948,65.62272944594952L553.1173637500383,82.60671413640921L520.8199683096384,82.41884099176832Z" stroke="#FFFFFF" stroke-dasharray="1, 0" stroke-width="1"></path><text x="527.4646144326176" y="64.38057171431856" title="Tippah" class="hint " style="">Tippah</text></a><a id="s73" rel="nofollow " title="Benton" class="hint   "><path d="M497.78624660769833,48.5884190910424L497.8017408600133,40.416799806564086L527.0374188667506,40.32930902457383L527.0004846933823,54.80530246578792L525.4794243859621,54.80116147489571L525.4505854031604,59.41895195084135L520.8568229613754,59.41396415967483L520.8199683096384,82.41884099176832L507.1303384160278,82.4872166966993L507.12737610359454,84.00775074626108L502.53675022791526,84.04034510367592L502.45894596313474,56.32438277051142L497.7995770136465,56.32257803730408Z" stroke="#FFFFFF" stroke-dasharray="1, 0" stroke-width="1"></path><text x="503.1130592295099" y="59.180411199494614" title="Benton" class="hint " style="">Benton</text></a><a id="s74" rel="nofollow " title="Stone" class="hint   "><path d="M498.7851557854144,486.43774565418835L498.83629923829926,464.64743157019984L538.5459231466455,464.5584740081108L538.5899221989553,488.2412217052588L507.61284683523354,488.2545938042326L507.6073578445473,491.24401493453206L498.7805380630921,491.2365207461112Z" stroke="#FFFFFF" stroke-dasharray="1, 0" stroke-width="1"></path><text x="509.2759621221694" y="476.7942066971135" title="Stone" class="hint " style="">Stone</text></a><a id="s75" rel="nofollow " title="Quitman" class="hint   "><path d="M402.1141845014772,137.83489701059807L402.1458986698758,117.89493689271876L406.6379840937461,117.9874957958441L406.595814704996,100.86313729566746L415.1034888852332,100.78508094830795L414.88863410701674,91.79447648769019L424.1049979733891,91.63936559574404L424.4927123947441,113.782047941565L429.6859074699951,117.55674079504843L429.58013549077555,137.8499383794492Z" stroke="#FFFFFF" stroke-dasharray="1, 0" stroke-width="1"></path><text x="407.2232790039805" y="119.00957944673299" title="Quitman" class="hint " style="">Quitman</text></a><a id="s76" rel="nofollow " title="Itawamba" class="hint   "><path d="M568.187082729999,119.22282219412546L568.4268557833857,96.48193608846805L602.0392565634522,96.69983785392515L597.9014232937839,136.41361056962205L568.3159433208277,136.1516810477524Z" stroke="#FFFFFF" stroke-dasharray="1, 0" stroke-width="1"></path><text x="575.1542247996523" y="116.01922714407006" title="Itawamba" class="hint " style="">Itawamba</text></a><a id="s77" rel="nofollow " title="Lee" class="hint   "><path d="M543.7339777385566,109.99878194359417L543.7658661606274,104.02220323262236L546.8459740760754,104.04342600403243L546.8749001857138,93.34765525502416L551.4726704619657,93.37662079764641L551.4906185902364,91.86965194987215L568.4556076393519,91.83983559857734L568.3159433208277,136.1516810477524L543.8184036428911,137.63451831101065Z" stroke="#FFFFFF" stroke-dasharray="1, 0" stroke-width="1"></path><text x="547.4343101705284" y="115.07089575332287" title="Lee" class="hint " style="">Lee</text></a><a id="s78" rel="nofollow " title="Jasper" class="hint   "><path d="M500.41451475030453,330.3205442893018L536.035886120842,330.2470092315575L536.3310718420905,371.1006736432305L500.94877651024785,373.61873370803596Z" stroke="#FFFFFF" stroke-dasharray="1, 0" stroke-width="1"></path><text x="509.2599196019888" y="351.3068090092279" title="Jasper" class="hint " style="">Jasper</text></a><a id="s79" rel="nofollow " title="Marshall" class="hint   "><path d="M465.4215519416812,40.30098415169368L497.8017408600133,40.416799806564086L497.7995770136465,56.32257803730408L502.45894596313474,56.32438277051142L502.53675022791526,84.04034510367592L507.12737610359454,84.00775074626108L507.0848582075,93.27333811720246L499.66626948050634,89.93285976230209L490.7161652257439,90.70673947407977L487.0003799129465,87.09933826229098L470.28988835254495,87.06210050759182L470.22585012789364,73.16839808342502L465.5950587806983,73.17825205172767Z" stroke="#FFFFFF" stroke-dasharray="1, 0" stroke-width="1"></path><text x="475.69878203134203" y="64.99014609642948" title="Marshall" class="hint " style="">Marshall</text></a><a id="s80" rel="nofollow " title="Coahoma" class="hint   "><path d="M357.82055635700704,131.80504882820742L362.1165192724575,128.10369733946663L367.0425834677367,131.05128051320253L370.31794262324183,129.74927187433377L370.6232350574942,126.49678608375461L364.044287651536,126.36903370135224L360.14135389445255,122.9092261116225L359.81689355622257,120.60425703846477L362.3716266490244,119.78282090814992L363.46262889266745,121.9023378494021L367.5359827414734,123.7830484977967L369.2385282488217,116.70908541011886L374.73640587047316,115.98429686136387L376.6604277955921,113.69239828764466L374.5127512817951,108.98557157193773L375.5177593380481,106.83425161146442L382.48372415067297,106.42733746531576L381.01267464726607,111.54971248377433L383.7775576691265,112.30629916958878L384.0261305329759,105.9423937912693L391.88017918759215,100.75772409494857L390.00486116394177,94.41921124968667L391.7974086931474,90.18233182929907L406.7676288260998,100.98967372445804L406.6379840937461,117.9874957958441L402.1458986698758,117.89493689271876L402.107562861921,147.0184519771842L383.8679953251635,146.8192251768105L383.94640947779794,133.0136184587659L358.1118213706227,132.88122373038868Z" stroke="#FFFFFF" stroke-dasharray="1, 0" stroke-width="1"></path><text x="379.87439382961804" y="121.31114430797604" title="Coahoma" class="hint " style="">Coahoma</text></a><a id="s81" rel="nofollow " title="Alcorn" class="hint   "><path d="M543.9202549144788,46.782217697556916L543.9468517811758,40.3067463635507L583.9831901367011,40.26079407750149L583.8140649546779,65.74754701846996L550.0443131083264,65.60374683852524L550.0538099334797,54.79978114416235L543.909886820963,54.815283307556Z" stroke="#FFFFFF" stroke-dasharray="1, 0" stroke-width="1"></path><text x="556.1199085424246" y="52.46123931441894" title="Alcorn" class="hint " style="">Alcorn</text></a><a id="s82" rel="nofollow " title="Scott" class="hint   "><path d="M460.46145846144873,292.51691677443887L464.9005707688732,287.9206042039482L464.91381404798494,293.81388140736135L500.42270467291314,293.8981473272934L500.41451475030453,330.3205442893018L464.8901155485228,330.4681276132983L464.92156833641275,316.998484921392Z" stroke="#FFFFFF" stroke-dasharray="1, 0" stroke-width="1"></path><text x="472.7341048511063" y="311.5092295600748" title="Scott" class="hint " style="">Scott</text></a></g></g></svg>