<svg id="map" class="map svg-content-responsive" xmlns:xlink="http://www.w3.org/1999/xlink" preserveAspectRatio="xMinYMin meet" viewBox="0 0 960  540"><g><g id="states"><a id="s01" rel="nofollow " title="Hooker" class="hint   "><path d="M312.15782380961946,197.03100776534484L370.5088107132283,197.57668056192506L370.8777593544669,244.55810043548536L312.2218620342701,244.2003862046031Z" stroke="#FFFFFF" stroke-dasharray="1, 0" stroke-width="1"></path><text x="332.42194814938506" y="220.86189603043587" title="Gosper" class="hint Gosper " style="">Hooker</text></a><a id="s02" rel="nofollow " title="Stanton" class="hint   "><path d="M720.1278606718079,197.20332923404476L755.2176913205203,197.25006677251076L755.1621982278866,244.21103026904257L720.1614380140891,244.18044539040602Z" stroke="#FFFFFF" stroke-dasharray="1, 0" stroke-width="1"></path><text x="728.6663011492424" y="220.7012684311546" title="Stanton" class="hint " style="">Stanton</text></a><a id="s03" rel="nofollow " title="Keya Paha" class="hint   "><path d="M435.62683845815445,85.20971288797318L435.62442200791565,73.3532818436397L530.5214092391407,73.40857416726703L530.261561749805,100.01140385167491L514.3592721266764,104.42212637932698L502.067451577499,111.878890031413L477.8552723945063,109.47756694613417L470.4971094794919,107.28229441490294L469.427962667623,104.84611871184643L444.17679596223525,100.64346787980685L440.9574928727652,96.45915763737503L435.6177906713119,94.28107893241395Z" stroke="#FFFFFF" stroke-dasharray="1, 0" stroke-width="1"></path><text x="475.5574196748469" y="89.66584189652035" title="Keya Paha" class="hint " style="">Keya Paha</text></a><a id="s04" rel="nofollow " title="Saline" class="hint   "><path d="M720.0929764269813,420.27688317788306L720.1281622647011,383.79769794830554L765.8605024521967,383.887467939393L765.8840266979873,429.94243958893276L720.0993098777717,429.8535305156365Z" stroke="#FFFFFF" stroke-dasharray="1, 0" stroke-width="1"></path><text x="733.989836564592" y="406.87527442141516" title="Saline" class="hint " style="">Saline</text></a><a id="s05" rel="nofollow " title="Cheyenne" class="hint   "><path d="M115.54549501796964,337.3831702587413L116.87974198431948,285.2516621671275L190.50148298946442,285.0641895148774L190.50379520165643,290.93547688254966L193.24688311032378,290.95437250569194L192.07599896196052,343.3984675514612L115.52574602266395,343.4470734025963Z" stroke="#FFFFFF" stroke-dasharray="1, 0" stroke-width="1"></path><text x="145.3111554409584" y="314.3959784374731" title="Cheyenne" class="hint " style="">Cheyenne</text></a><a id="s06" rel="nofollow " title="Blaine" class="hint   "><path d="M428.6666776332372,197.85018127363855L487.04128931360265,197.8599344815184L487.0538556842166,244.5686093304921L428.8826181458753,244.6319318892247Z" stroke="#FFFFFF" stroke-dasharray="1, 0" stroke-width="1"></path><text x="448.90347589319146" y="221.21408451715342" title="Blaine" class="hint " style="">Blaine</text></a><a id="s07" rel="nofollow " title="Antelope" class="hint   "><path d="M626.4132973020223,195.5108526495942L626.4499911042158,150.2028233287856L673.2777166854239,150.09779938588053L673.392623578322,220.82905766947624L626.915751064666,221.0090092149967Z" stroke="#FFFFFF" stroke-dasharray="1, 0" stroke-width="1"></path><text x="640.9209322306868" y="185.50259420712746" title="Antelope" class="hint " style="">Antelope</text></a><a id="s08" rel="nofollow " title="Chase" class="hint   "><path d="M249.2976589518339,423.7617763662993L249.34191168079678,383.9413272587626L320.3201339129878,383.868241060909L320.5792022095734,429.8466710249904L249.32634756045172,430.0089247390206Z" stroke="#FFFFFF" stroke-dasharray="1, 0" stroke-width="1"></path><text x="275.872808960206" y="406.93235558694096" title="Chase" class="hint " style="">Chase</text></a><a id="s09" rel="nofollow " title="Thomas" class="hint   "><path d="M370.5088107132283,197.57668056192506L428.6666776332372,197.85018127363855L428.8826181458753,244.6319318892247L370.8777593544669,244.55810043548536Z" stroke="#FFFFFF" stroke-dasharray="1, 0" stroke-width="1"></path><text x="390.7133355275756" y="221.1439536562901" title="Thomas" class="hint " style="">Thomas</text></a><a id="s10" rel="nofollow " title="Cherry" class="hint   "><path d="M246.04986765317608,90.66620924214112L246.21061666607739,73.24139946776177L435.62442200791565,73.3532818436397L437.1570202751245,150.66812787387698L438.72811819481285,150.69754908858613L438.7214831511292,197.89068410613527L250.45965842916848,196.41457799392902L250.67187929610373,149.3318074762601L247.8047361767317,149.31055543131242L247.7830214883088,102.5878688616558L245.96783438580587,102.58526621325564Z" stroke="#FFFFFF" stroke-dasharray="1, 0" stroke-width="1"></path><text x="334.0297204409373" y="135.12339095601692" title="Cherry" class="hint " style="">Cherry</text></a><a id="s11" rel="nofollow " title="Clay" class="hint   "><path d="M628.6557410054129,399.2146861366891L628.6749424197124,383.8419863592553L674.247941027817,383.8093667727353L674.3148946504516,429.8338754225333L628.676249322255,429.859466609043Z" stroke="#FFFFFF" stroke-dasharray="1, 0" stroke-width="1"></path><text x="642.4741852069901" y="406.84114742599735" title="Clay" class="hint " style="">Clay</text></a><a id="s12" rel="nofollow " title="Colfax" class="hint   "><path d="M731.6957577426319,290.9559806419393L731.7873414516694,244.19688309192316L766.6216223875672,244.24026769510874L766.6228287591457,282.7327812367721L746.4639575505571,291.9226848192493L739.2227121477381,293.40630142068403L731.6773605760527,292.4153759123428Z" stroke="#FFFFFF" stroke-dasharray="1, 0" stroke-width="1"></path><text x="739.4644976528954" y="267.06383096088183" title="Colfax" class="hint " style="">Colfax</text></a><a id="s13" rel="nofollow " title="Dixon" class="hint   "><path d="M755.3755249354367,161.85042014156716L755.5729713981541,105.85985304043515L760.2923938984577,106.86225737145014L761.0266720661957,111.57580270012477L766.533657793268,109.66548775688716L776.6444590586148,113.72208484669318L777.9498536380356,118.93673932829188L788.5628070731341,120.69994429701637L786.3882217710607,127.4460420208843L793.5527620476496,134.51705407469308L794.2101340272256,138.28832567292557L785.0882558637468,138.24290188564555L784.6904548355787,173.7099830634379L755.3814562623656,173.66257372506516Z" stroke="#FFFFFF" stroke-dasharray="1, 0" stroke-width="1"></path><text x="761.4498907027291" y="142.47758361665544" title="Dixon" class="hint " style="">Dixon</text></a><a id="s14" rel="nofollow " title="Butler" class="hint   "><path d="M720.1494748292639,298.5053207314668L720.1500780150536,290.6175954319233L728.2349792754371,290.2141962821661L739.5093259287105,293.3705303809147L766.6228287591457,282.7327812367721L766.3617498432627,337.60271496331916L720.1566125277732,337.4886110546495Z" stroke="#FFFFFF" stroke-dasharray="1, 0" stroke-width="1"></path><text x="734.9448333744773" y="313.3520088792828" title="Butler" class="hint " style="">Butler</text></a><a id="s15" rel="nofollow " title="Sarpy" class="hint   "><path d="M823.5950334789491,332.0820366473936L826.4217631504252,328.491723540571L824.7810978030157,318.39902694848297L865.4137331970196,318.2591326595111L873.6503056887482,320.40279096989525L869.4077984383771,323.08693657827826L871.5090966670268,331.9613250622997L869.8101233599664,336.6418496895394L852.0393652229277,335.03435119963615L835.6846862576813,344.5025765066266L826.4012548335822,338.89041330969303Z" stroke="#FFFFFF" stroke-dasharray="1, 0" stroke-width="1"></path><text x="837.468007203943" y="328.68233374764424" title="Sarpy" class="hint " style="">Sarpy</text></a><a id="s16" rel="nofollow " title="Hamilton" class="hint   "><path d="M628.2037537871552,375.15296235474943L628.9742231022642,359.77044305287563L655.5725047375108,334.04693411363496L668.1185680969566,328.45943179614915L673.8984953937734,320.6110086358467L674.1531403279032,383.8069799689929L628.1976213982971,383.842914557109Z" stroke="#FFFFFF" stroke-dasharray="1, 0" stroke-width="1"></path><text x="645.4662671736237" y="360.5486707150458" title="Hamilton" class="hint " style="">Hamilton</text></a><a id="s17" rel="nofollow " title="Lancaster" class="hint   "><path d="M765.8165704205303,393.52216285251325L766.1171580056248,337.5993825103933L811.0616370210828,337.73707841068517L811.0854628597672,407.0533099614431L765.9465569581635,406.9723711573861Z" stroke="#FFFFFF" stroke-dasharray="1, 0" stroke-width="1"></path><text x="779.5087469431995" y="372.37811631520805" title="Lancaster" class="hint " style="">Lancaster</text></a><a id="s18" rel="nofollow " title="Madison" class="hint   "><path d="M673.2671609341073,197.36210035869408L720.1278606718079,197.20332923404476L720.1614380140891,244.18044539040602L673.4977789676232,244.3115419280375Z" stroke="#FFFFFF" stroke-dasharray="1, 0" stroke-width="1"></path><text x="687.7657588908042" y="220.74785022509997" title="Madison" class="hint " style="">Madison</text></a><a id="s19" rel="nofollow " title="Dodge" class="hint   "><path d="M766.6105639814273,259.91065055343006L766.6216223875672,244.24026769510874L813.0372715435897,244.37338431221724L813.9854796046657,277.5321725317099L818.8476597227746,281.4834644556022L818.8418289268093,283.42799065250347L820.7798648684388,283.4682287405785L820.76619265721,285.37999412225236L824.6278886124846,285.39031959960903L824.6189413566062,291.21957696246864L807.8385137549462,291.0996396154733L800.45270482458,285.8351080797729L787.9521819922415,286.84957523888534L782.651284743245,283.652919177679L775.7416909936805,284.99284692978745L766.6276542454625,283.14149008619097Z" stroke="#FFFFFF" stroke-dasharray="1, 0" stroke-width="1"></path><text x="783.0734228828612" y="266.46526015761197" title="Dodge" class="hint " style="">Dodge</text></a><a id="s20" rel="nofollow " title="Morrill" class="hint   "><path d="M116.74131084563214,244.17047496607393L117.45146158179114,209.11548120181487L186.39107342698935,208.79728738538506L186.5394571312031,238.8962612403575L187.66902305298845,244.14676147824957L190.52349927078058,244.18960739182694L190.50148298946442,285.0641895148774L116.87974198431948,285.2516621671275Z" stroke="#FFFFFF" stroke-dasharray="1, 0" stroke-width="1"></path><text x="143.84959224548788" y="247.6377479117484" title="Morrill" class="hint " style="">Morrill</text></a><a id="s21" rel="nofollow " title="Jefferson" class="hint   "><path d="M720.0560815628587,464.2618865077111L720.0993098777717,429.8535305156365L765.6029421200856,429.94125238163906L765.5675554594081,475.75787738977124L720.0479877953298,475.68516872323926Z" stroke="#FFFFFF" stroke-dasharray="1, 0" stroke-width="1"></path><text x="733.8270277974806" y="452.81098653937704" title="Jefferson" class="hint " style="">Jefferson</text></a><a id="s22" rel="nofollow " title="Phelps" class="hint   "><path d="M491.31928399458957,407.78132922190525L491.4140846945056,385.61599221673714L538.0819660414982,388.84620765708223L538.0663837419374,429.8154075102484L491.54004999354447,429.7469439866345Z" stroke="#FFFFFF" stroke-dasharray="1, 0" stroke-width="1"></path><text x="505.44701052473965" y="408.48412742940343" title="Phelps" class="hint " style="">Phelps</text></a><a id="s23" rel="nofollow " title="Pawnee" class="hint   "><path d="M811.0688752505557,465.82455417171786L811.0819442759953,441.4831836973399L856.671832086206,441.5742163024652L856.6213655418187,475.871771125353L811.0773243566027,475.8284275714468Z" stroke="#FFFFFF" stroke-dasharray="1, 0" stroke-width="1"></path><text x="824.8554001999382" y="458.6867655092232" title="Pawnee" class="hint " style="">Pawnee</text></a><a id="s24" rel="nofollow " title="Washington" class="hint   "><path d="M812.9801699555182,252.20345143588202L845.4590148383891,252.2900245579831L848.1026731678271,256.3615160973586L845.8216255739085,261.63962777623055L849.4670794236508,266.08763530804663L848.445182165292,272.3343600350636L853.6031243821794,275.9373795293204L855.3333628193291,271.05466941525356L857.698253237987,271.5862850312951L858.4153406107248,275.27607408721815L855.7622279156571,278.32388978608105L856.5128926306747,280.07966384482825L865.709063177228,283.3860087155981L863.9790258020089,291.2250712594787L824.6189413566062,291.21957696246864L824.6278886124846,285.39031959960903L820.76619265721,285.37999412225236L820.7798648684388,283.4682287405785L818.8418289268093,283.42799065250347L818.8476597227746,281.4834644556022L813.9854796046657,277.5321725317099Z" stroke="#FFFFFF" stroke-dasharray="1, 0" stroke-width="1"></path><text x="826.4936853299264" y="272.69115906346997" title="Washington" class="hint " style="">Washington</text></a><a id="s25" rel="nofollow " title="Custer" class="hint   "><path d="M430.1555412236262,260.11130866521853L430.3151843959131,244.63718629348386L534.7877673831672,244.52994192310507L535.2353312389678,337.48114626123333L431.62902357638404,337.5433971119328L431.83501152349436,291.1943835561933L430.30965519284155,290.86873882170494Z" stroke="#FFFFFF" stroke-dasharray="1, 0" stroke-width="1"></path><text x="473.99929638316655" y="290.9168595217504" title="Custer" class="hint " style="">Custer</text></a><a id="s26" rel="nofollow " title="Douglas" class="hint   "><path d="M810.3728993804507,291.2057742010338L863.9790258020089,291.2250712594787L864.853645196767,294.30655789074353L862.4106422183709,298.3512058634378L869.4480108243424,301.4569451120324L870.6141700173553,304.2539620196012L867.4976095740294,307.25059319725096L867.316653837182,303.74548016781046L864.9842349201922,303.9060565846521L866.6530489377783,312.5191948242609L865.4137331970196,318.2591326595111L824.7810978030157,318.39902694848297L821.3651561461725,314.4946362592327L822.5429769311158,308.75313716639175L821.4467872896826,306.3124755559911L816.7176096381581,301.7357502323948L815.4371467380379,295.253870233847Z" stroke="#FFFFFF" stroke-dasharray="1, 0" stroke-width="1"></path><text x="833.3125339244523" y="304.29361049572697" title="Douglas" class="hint " style="">Douglas</text></a><a id="s27" rel="nofollow " title="Dawson" class="hint   "><path d="M433.0163508922092,353.15561360735865L433.02841460800073,337.5352658695838L513.2771568203334,337.55206154220923L514.1487602861448,387.483219280035L497.44564099650324,386.63899942687567L485.80375313550076,383.6194812596568L433.12130521958125,383.58168931225373Z" stroke="#FFFFFF" stroke-dasharray="1, 0" stroke-width="1"></path><text x="464.959588052952" y="361.09456448410236" title="Dawson" class="hint " style="">Dawson</text></a><a id="s28" rel="nofollow " title="Sheridan" class="hint   "><path d="M174.78738733265482,94.49442843308407L174.8773625462536,73.15562567184679L246.21061666607739,73.24139946776177L247.8047361767317,149.31055543131242L250.67187929610373,149.3318074762601L250.45965842916848,196.41457799392902L253.8853515896085,196.4695842936435L253.64829957433813,208.30766261455483L184.35501979456876,208.85667904585898L183.89780496613685,196.956090199993L179.88802689954173,197.00472572818853L179.16802412882134,149.79130189204443L176.7618154835841,149.79293657453582L176.7615138906881,102.61868963724555L174.8222715774814,102.63238772377463Z" stroke="#FFFFFF" stroke-dasharray="1, 0" stroke-width="1"></path><text x="204.35607859300157" y="140.7308575767781" title="Sheridan" class="hint " style="">Sheridan</text></a><a id="s29" rel="nofollow " title="Furnas" class="hint   "><path d="M435.6852469487708,429.9016787145938L492.7212888312929,429.7574971652766L492.9429051114066,475.7106180701667L436.1091860278161,475.74906548484523Z" stroke="#FFFFFF" stroke-dasharray="1, 0" stroke-width="1"></path><text x="455.37545655456563" y="452.7660550563115" title="Furnas" class="hint " style="">Furnas</text></a><a id="s30" rel="nofollow " title="Garfield" class="hint   "><path d="M533.7103770321751,197.6105468973683L580.1132587556526,197.5289965353668L580.3165323667099,244.5610644840899L533.8011564934941,244.5058252295994Z" stroke="#FFFFFF" stroke-dasharray="1, 0" stroke-width="1"></path><text x="547.9966400025373" y="221.06104532948368" title="Garfield" class="hint " style="">Garfield</text></a><a id="s31" rel="nofollow " title="Holt" class="hint   "><path d="M530.261561749805,100.01140385167491L559.4214729020482,87.33715635085991L567.3170743554983,94.64058893523634L571.8888205159665,94.22732936755983L585.4187804290341,100.1415748038471L590.6006490155723,99.3639449448383L597.9469492767271,103.37602363476162L609.8184498615938,105.22900830476192L614.8095106767223,103.93237242211217L625.9559819426249,105.91353786688705L626.4141015497426,197.4836151848085L532.5144606735485,197.59984514979078L532.5712606687239,150.52823950748189L531.5129712010666,150.51257513678502L531.3911276715899,102.99757055246482Z" stroke="#FFFFFF" stroke-dasharray="1, 0" stroke-width="1"></path><text x="568.8368841394531" y="147.5497186866371" title="Holt" class="hint " style="">Holt</text></a><a id="s32" rel="nofollow " title="Thayer" class="hint   "><path d="M674.5938680780896,471.87175167703026L674.6464457727407,429.83334776843003L720.0993098777717,429.8535305156365L720.0479877953298,475.68516872323926L674.5780890945707,475.6927858355102Z" stroke="#FFFFFF" stroke-dasharray="1, 0" stroke-width="1"></path><text x="688.3431811692401" y="452.76693020958174" title="Thayer" class="hint " style="">Thayer</text></a><a id="s33" rel="nofollow " title="Cuming" class="hint   "><path d="M755.1642088471849,243.88658252192545L755.2176913205203,197.25006677251076L801.8487783343539,197.33405823172598L801.8828583314594,244.34064428154215Z" stroke="#FFFFFF" stroke-dasharray="1, 0" stroke-width="1"></path><text x="769.5590833061046" y="220.710341110575" title="Cuming" class="hint " style="">Cuming</text></a><a id="s34" rel="nofollow " title="Logan" class="hint   "><path d="M383.7067168491826,270.8709200183748L384.02198195515757,244.64473107351296L430.3151843959131,244.63718629348386L430.3278512974912,291.1978677550196L383.92577382173386,291.203496073259Z" stroke="#FFFFFF" stroke-dasharray="1, 0" stroke-width="1"></path><text x="398.0825161001007" y="267.9326771956515" title="Logan" class="hint " style="">Logan</text></a><a id="s35" rel="nofollow " title="Burt" class="hint   "><path d="M801.8750169161958,232.62401709077676L801.9136208067234,207.36405181565533L826.5659245541128,207.457145637105L826.5916604811318,203.19314592946648L833.7290573971927,203.95176594600434L835.404104334606,205.96617028841683L833.9205688853567,209.99505274029525L838.1359327752011,208.3399984611824L838.9694350053101,212.56628984841154L844.675572573879,213.34301465068347L843.1597666848925,217.416022098344L843.947929449826,220.2156810903798L841.4333484244103,222.78319525600182L846.6116984271739,229.93486471084998L846.8785076080594,233.73511080742446L851.1724867124667,237.03341864855338L846.9958272441145,244.89680378136745L850.4243352715707,249.0765565699412L845.4590148383891,252.2900245579831L812.9801699555182,252.20345143588202L813.0372715435897,244.37338431221724L801.8828583314594,244.34064428154215Z" stroke="#FFFFFF" stroke-dasharray="1, 0" stroke-width="1"></path><text x="815.6431568040917" y="229.597314325161" title="Burt" class="hint " style="">Burt</text></a><a id="s36" rel="nofollow " title="Platte" class="hint   "><path d="M673.6071566574492,255.01823947632784L673.6736076252573,244.3110029946438L731.7873414516694,244.19688309192316L731.6773605760527,292.4153759123428L728.2349792754371,290.2141962821661L720.1500780150536,290.6175954319233L697.0209189170891,299.25858323471857L697.000008476386,290.96067103762834L686.41369574699,290.98640116335446L686.4275690201493,273.2897072219748L673.7386511595573,273.3732313186001Z" stroke="#FFFFFF" stroke-dasharray="1, 0" stroke-width="1"></path><text x="695.7235267198915" y="267.2350615315129" title="Platte" class="hint " style="">Platte</text></a><a id="s37" rel="nofollow " title="Red Willow" class="hint   "><path d="M379.10933529266185,448.2609237450106L379.324773150473,429.97027295892894L435.6852469487708,429.9016787145938L436.1091860278161,475.74906548484523L379.2850634193319,475.65339329024937Z" stroke="#FFFFFF" stroke-dasharray="1, 0" stroke-width="1"></path><text x="398.56826206329845" y="452.8470740838791" title="Red Willow" class="hint " style="">Red Willow</text></a><a id="s38" rel="nofollow " title="Rock" class="hint   "><path d="M487.9737140131888,110.06198291187411L502.067451577499,111.878890031413L514.3592721266764,104.42212637932698L530.261561749805,100.01140385167491L531.3911276715899,102.99757055246482L531.5129712010666,150.51257513678502L532.5712606687239,150.52823950748189L532.5144606735485,197.59984514979078L489.51234043121076,197.86887491235575Z" stroke="#FFFFFF" stroke-dasharray="1, 0" stroke-width="1"></path><text x="501.88757145949387" y="152.14398491964283" title="Rock" class="hint " style="">Rock</text></a><a id="s39" rel="nofollow " title="Gage" class="hint   "><path d="M765.54553893912,465.03110051793647L765.9465569581635,406.9723711573861L811.0854628597672,407.0533099614431L811.0773243566027,475.8284275714468L765.5675554594081,475.75787738977124Z" stroke="#FFFFFF" stroke-dasharray="1, 0" stroke-width="1"></path><text x="779.3981627219196" y="441.45686856385237" title="Gage" class="hint " style="">Gage</text></a><a id="s40" rel="nofollow " title="Greeley" class="hint   "><path d="M581.0110002723427,244.5624117785719L627.3841248302047,244.44950777291797L627.3362720909049,291.11799884714037L581.0780544259401,291.0925371286121Z" stroke="#FFFFFF" stroke-dasharray="1, 0" stroke-width="1"></path><text x="595.2138122272636" y="267.795966468513" title="Greeley" class="hint " style="">Greeley</text></a><a id="s41" rel="nofollow " title="Johnson" class="hint   "><path d="M811.0695789673105,430.03147968428675L811.0854628597672,407.0533099614431L850.9580541643036,407.03545587701774L850.98580071062,441.5009687222191L811.0819442759953,441.4831836973399Z" stroke="#FFFFFF" stroke-dasharray="1, 0" stroke-width="1"></path><text x="822.027872316788" y="424.27080406717687" title="Johnson" class="hint " style="">Johnson</text></a><a id="s42" rel="nofollow " title="Nemaha" class="hint   "><path d="M850.9508159348306,430.02000345535544L850.9580541643036,407.03545587701774L886.9904631400582,407.2466607798824L888.4425323972887,402.5649838831032L890.6937222946272,401.812848802434L892.3102602104577,406.98136439433256L887.857241119555,409.3988917392844L888.2195547171068,413.28232315355126L892.057324302732,417.7768544220071L891.9624230718528,422.15992586549055L895.6247661237021,431.1113661644413L892.1439819944885,435.0673243178162L896.8577784083827,434.65677762527866L902.0559330112355,437.05545253325636L902.6851563206378,441.5186219710813L850.98580071062,441.5009687222191Z" stroke="#FFFFFF" stroke-dasharray="1, 0" stroke-width="1"></path><text x="863.7575890009776" y="424.9974057021009" title="Nemaha" class="hint " style="">Nemaha</text></a><a id="s43" rel="nofollow " title="Harlan" class="hint   "><path d="M492.6987698951525,443.5178238171384L492.7212888312929,429.7574971652766L538.0663837419374,429.8154075102484L538.0934265714977,475.6960456293882L492.9429051114066,475.7106180701667Z" stroke="#FFFFFF" stroke-dasharray="1, 0" stroke-width="1"></path><text x="506.42775841379216" y="452.7254404500216" title="Harlan" class="hint " style="">Harlan</text></a><a id="s44" rel="nofollow " title="Howard" class="hint   "><path d="M581.3184239630518,329.7169871978631L581.8046922403441,291.0799402508719L627.8223393062681,291.117462811726L627.7636292227598,337.5664578074393L581.3828643115626,337.52953400569186Z" stroke="#FFFFFF" stroke-dasharray="1, 0" stroke-width="1"></path><text x="595.659218185902" y="314.3612168971582" title="Howard" class="hint " style="">Howard</text></a><a id="s45" rel="nofollow " title="Thurston" class="hint   "><path d="M774.9035643391853,195.31099050553075L775.0084181355919,173.68444454127984L802.3207712146295,171.85865039638884L823.3685372149966,173.02924673417783L825.2407253746051,178.1431588045907L821.5167568412639,180.9825107589886L822.7349910741027,186.91705323123915L830.8938831246646,195.53144834865088L830.2597962155769,203.11337521404494L826.5916604811318,203.19314592946648L826.5659245541128,207.457145637105L801.9136208067234,207.36405181565533L801.8487783343539,197.33405823172598L774.8904953137458,197.2725548888393Z" stroke="#FFFFFF" stroke-dasharray="1, 0" stroke-width="1"></path><text x="793.9544343082746" y="188.31260409276905" title="Thurston" class="hint " style="">Thurston</text></a><a id="s46" rel="nofollow " title="Valley" class="hint   "><path d="M534.7592165891324,285.2547464473855L534.7877673831672,244.52994192310507L581.0110002723427,244.5624117785719L581.0780544259401,291.0925371286121L534.7426289799209,291.0723017097562Z" stroke="#FFFFFF" stroke-dasharray="1, 0" stroke-width="1"></path><text x="548.9065829614352" y="267.823013583617" title="Valley" class="hint " style="">Valley</text></a><a id="s47" rel="nofollow " title="Otoe" class="hint   "><path d="M811.0647534809946,384.01794440912454L811.0721927723985,372.47498782947423L874.3613417314186,372.49834660717534L869.3923166697791,377.27055262651174L869.2208108436344,380.81793033376835L872.5115914491585,383.31541725416355L873.4982023388329,386.59896690198184L879.1513600888911,389.2819379038265L882.8592436678464,395.95978594034386L880.3440594566414,400.3639751196579L881.1265924875379,405.92248029289567L886.8514288155811,406.9494912634409L811.0854628597672,407.0533099614431Z" stroke="#FFFFFF" stroke-dasharray="1, 0" stroke-width="1"></path><text x="835.1028901046681" y="390.4055120847417" title="Otoe" class="hint " style="">Otoe</text></a><a id="s48" rel="nofollow " title="Pierce" class="hint   "><path d="M673.2260437694567,181.63913650184713L673.2777166854239,150.09779938588053L720.2096928772471,149.94918353107278L720.1278606718079,197.20332923404476L673.2671609341073,197.36210035869408Z" stroke="#FFFFFF" stroke-dasharray="1, 0" stroke-width="1"></path><text x="687.708594511443" y="173.648412820023" title="Pierce" class="hint " style="">Pierce</text></a><a id="s49" rel="nofollow " title="Box Butte" class="hint   "><path d="M109.28553236368543,155.31841786172208L109.28884988552818,150.14275142623046L179.16802412882134,149.79130189204443L179.88802689954173,197.00472572818853L183.89780496613685,196.956090199993L184.35501979456876,208.85667904585898L113.60092456362054,209.0329575747337L113.59810969660293,197.25209883363095L109.33147501465146,197.23232008494142Z" stroke="#FFFFFF" stroke-dasharray="1, 0" stroke-width="1"></path><text x="136.33064521535718" y="179.51236217203635" title="Box Butte" class="hint " style="">Box Butte</text></a><a id="s50" rel="nofollow " title="Seward" class="hint   "><path d="M720.1263527073329,375.1738009848459L720.1566125277732,337.4886110546495L766.1171580056248,337.5993825103933L766.0994645557989,383.8838877651915L720.1281622647011,383.79769794830554Z" stroke="#FFFFFF" stroke-dasharray="1, 0" stroke-width="1"></path><text x="734.1215356412666" y="360.6936629538847" title="Seward" class="hint " style="">Seward</text></a><a id="s51" rel="nofollow " title="Sioux" class="hint   "><path d="M48.13978463544299,175.63085936699918L48.11615985868639,73.07218782619839L103.19989066142989,73.04703796119793L103.38768224502519,102.68416629094645L105.68270364306727,102.65964685013387L105.71497408280447,150.15460237925345L109.28884988552818,150.14275142623046L109.33147501465146,197.23232008494142L113.59810969660293,197.25209883363095L113.60092456362054,209.0329575747337L48.148714104073406,209.27945744230328Z" stroke="#FFFFFF" stroke-dasharray="1, 0" stroke-width="1"></path><text x="68.69242390252246" y="142.9960065582999" title="Sioux" class="hint " style="">Sioux</text></a><a id="s52" rel="nofollow " title="Lincoln" class="hint   "><path d="M327.86407805116414,319.738571545523L327.9273120280959,290.97862852922026L431.83501152349436,291.1943835561933L433.12130521958125,383.58168931225373L330.11205095762625,383.90682737475254L329.8909833657781,337.4302255366583L327.85834778616436,337.4292924316178Z" stroke="#FFFFFF" stroke-dasharray="1, 0" stroke-width="1"></path><text x="371.65503775511235" y="337.27187802963454" title="Lincoln" class="hint " style="">Lincoln</text></a><a id="s53" rel="nofollow " title="Loup" class="hint   "><path d="M487.04128931360265,197.8599344815184L533.7103770321751,197.6105468973683L533.8011564934941,244.5058252295994L487.0538556842166,244.5686093304921Z" stroke="#FFFFFF" stroke-dasharray="1, 0" stroke-width="1"></path><text x="501.4172176323784" y="221.14269066860234" title="Loup" class="hint " style="">Loup</text></a><a id="s54" rel="nofollow " title="Wayne" class="hint   "><path d="M720.1455541216324,195.25895783536453L720.1962217279502,161.78049971783275L755.3755249354367,161.85042014156716L755.3814562623656,173.66257372506516L775.0084181355919,173.68444454127984L774.8904953137458,197.2725548888393L720.1278606718079,197.20332923404476Z" stroke="#FFFFFF" stroke-dasharray="1, 0" stroke-width="1"></path><text x="736.173252686107" y="181.1275275728085" title="Wayne" class="hint " style="">Wayne</text></a><a id="s55" rel="nofollow " title="Wheeler" class="hint   "><path d="M580.1132587556526,197.5289965353668L626.932238142912,197.48090584286547L626.8998671722093,244.45381917011946L580.3165323667099,244.5610644840899Z" stroke="#FFFFFF" stroke-dasharray="1, 0" stroke-width="1"></path><text x="594.5605078128624" y="220.9864500331702" title="Wheeler" class="hint " style="">Wheeler</text></a><a id="s56" rel="nofollow " title="Merrick" class="hint   "><path d="M627.7663435588101,336.6261187773707L627.8223393062681,291.117462811726L629.0982783129684,291.12322519068493L628.9458733701572,308.4619842943994L646.3516035735879,308.5039793820897L646.4129274621882,306.54751606097125L651.2913935966108,306.56383622536305L651.2909914727506,304.6117549135588L686.2395761157586,302.4691940309731L686.41369574699,290.98640116335446L697.000008476386,290.96067103762834L697.0257444034046,301.38332729476315L690.9588012017571,303.0409162172591L681.735185701782,310.8154039164692L668.1185680969566,328.45943179614915L655.5725047375108,334.04693411363496L647.6899723095016,342.457687533999L641.928442179264,345.8377381619048L628.2250663517184,361.2198776533278Z" stroke="#FFFFFF" stroke-dasharray="1, 0" stroke-width="1"></path><text x="643.5906978027343" y="321.3280308801525" title="Merrick" class="hint " style="">Merrick</text></a><a id="s57" rel="nofollow " title="Nance" class="hint   "><path d="M627.3438119132743,279.47382497664876L646.6277621342101,279.46711556130595L646.6002166498247,277.5061341572209L652.464891550062,277.42573682837065L652.4781616374321,275.4731553532729L686.4275690201493,273.2897072219748L686.2395761157586,302.4691940309731L666.8601214781529,302.59098256162724L666.8927940417502,304.54391722314085L651.2909914727506,304.6117549135588L651.2913935966108,306.56383622536305L646.4129274621882,306.54751606097125L646.4243879921878,308.5021069939439L628.9458733701572,308.4619842943994L629.0982783129684,291.12322519068493L627.3362720909049,291.11799884714037Z" stroke="#FFFFFF" stroke-dasharray="1, 0" stroke-width="1"></path><text x="648.29406094949" y="290.68462358844704" title="Nance" class="hint " style="">Nance</text></a><a id="s58" rel="nofollow " title="Sherman" class="hint   "><path d="M535.3468200790594,327.3089940924083L535.6679159809983,291.0850326078962L581.8046922403441,291.0799402508719L581.3828643115626,337.52953400569186L535.2353312389678,337.48114626123333Z" stroke="#FFFFFF" stroke-dasharray="1, 0" stroke-width="1"></path><text x="549.5312886004884" y="314.29407769267027" title="Sherman" class="hint " style="">Sherman</text></a><a id="s59" rel="nofollow " title="Frontier" class="hint   "><path d="M376.8534204399716,404.5868573736616L377.374673493056,383.5974691274978L457.4063693521375,383.6149727551292L457.46166138283934,418.250922081279L446.0109834171062,418.2027107280828L446.0408411136864,429.7410078181447L377.42061614402064,429.97568132877404Z" stroke="#FFFFFF" stroke-dasharray="1, 0" stroke-width="1"></path><text x="406.975316115484" y="406.08801059124" title="Frontier" class="hint " style="">Frontier</text></a><a id="s60" rel="nofollow " title="Polk" class="hint   "><path d="M673.8847226515795,323.047147794412L673.8970879602643,320.33707917041374L680.1572516764791,312.3999509684263L690.9588012017571,303.0409162172591L696.2846301300519,301.9022527377492L697.0209189170891,299.25858323471857L704.6452878271966,295.39986934231456L720.1497764221585,290.7800219732844L720.1566125277732,337.4886110546495L673.9297605238617,337.5388649449942Z" stroke="#FFFFFF" stroke-dasharray="1, 0" stroke-width="1"></path><text x="691.0318063560209" y="318.5756161992501" title="Polk" class="hint " style="">Polk</text></a><a id="s61" rel="nofollow " title="Hitchcock" class="hint   "><path d="M322.4643588636559,475.59984791245734L322.5330215126942,429.83229246012615L379.324773150473,429.97027295892894L379.2850634193319,475.65339329024937Z" stroke="#FFFFFF" stroke-dasharray="1, 0" stroke-width="1"></path><text x="341.8930555090859" y="452.76587229738226" title="Hitchcock" class="hint " style="">Hitchcock</text></a><a id="s62" rel="nofollow " title="McPherson" class="hint   "><path d="M314.09696559186204,288.97908902422023L314.17759142572413,244.18138853805976L384.02198195515757,244.64473107351296L383.8679685169068,291.16932408512L314.09776983958227,290.9140349910376Z" stroke="#FFFFFF" stroke-dasharray="1, 0" stroke-width="1"></path><text x="340.01440090050903" y="267.7232831008026" title="McPherson" class="hint " style="">McPherson</text></a><a id="s63" rel="nofollow " title="Webster" class="hint   "><path d="M583.5642857192502,429.8527390362178L629.1305487527056,429.8578836511897L629.0859130042836,475.6253082545436L583.6098848855263,475.6638682292414Z" stroke="#FFFFFF" stroke-dasharray="1, 0" stroke-width="1"></path><text x="597.3440345449745" y="452.74238729281745" title="Webster" class="hint " style="">Webster</text></a><a id="s64" rel="nofollow " title="Banner" class="hint   "><path d="M48.12450392877554,258.3214948616014L48.13607947946957,250.27544882649L116.74231615528106,250.1063687557762L116.73618376642162,291.0130692863668L48.190593697068834,291.2091238812718Z" stroke="#FFFFFF" stroke-dasharray="1, 0" stroke-width="1"></path><text x="73.44192668852405" y="270.64734015885335" title="Banner" class="hint " style="">Banner</text></a><a id="s65" rel="nofollow " title="Cedar" class="hint   "><path d="M708.3048160120297,102.56417103358126L708.4142942328212,93.69612272311497L712.7011356387216,94.26435078807117L716.1155693310898,91.23217167797429L721.0160517468303,93.08616755024468L726.3333355431087,91.33230166497287L735.1651818728101,94.31590627447167L736.0397007366041,99.3262606283306L742.0075204068453,101.20753118648463L743.9610381170705,104.44527121050487L755.5729713981541,105.85985304043515L755.3755249354367,161.85042014156716L720.1962217279502,161.78049971783275L720.2096928772471,149.94918353107278L708.3763940590484,149.9760190326715Z" stroke="#FFFFFF" stroke-dasharray="1, 0" stroke-width="1"></path><text x="722.7047496383744" y="127.98281588451952" title="Cedar" class="hint " style="">Cedar</text></a><a id="s66" rel="nofollow " title="Dakota" class="hint   "><path d="M784.6472265206644,171.49368942698402L785.0882558637468,138.24290188564555L794.2101340272256,138.28832567292557L797.0276148499306,140.99680994644223L802.5243464185828,138.80283887675705L807.2965513230897,143.9568963285119L812.9074860678838,142.88251644933644L818.8891790112834,145.0819804703615L819.4219931253324,148.91125236461266L816.1143233177049,154.15478927829463L815.6944054772539,161.83654492785627L820.3184277394789,166.9058927812912L821.864989279527,172.02684438933193Z" stroke="#FFFFFF" stroke-dasharray="1, 0" stroke-width="1"></path><text x="791.9231572525448" y="156.3810794181605" title="Dakota" class="hint " style="">Dakota</text></a><a id="s67" rel="nofollow " title="Kearney" class="hint   "><path d="M538.0579391408842,406.7889335834443L538.0819660414982,388.84620765708223L565.5422001699258,389.88235702071324L583.8095812736428,384.97153098862054L583.8537143672411,429.8536624288672L538.0663837419374,429.8154075102484Z" stroke="#FFFFFF" stroke-dasharray="1, 0" stroke-width="1"></path><text x="552.2484316874435" y="409.1951760307081" title="Kearney" class="hint " style="">Kearney</text></a><a id="s68" rel="nofollow " title="Dawes" class="hint   "><path d="M103.19989066142989,73.04703796119793L174.8773625462536,73.15562567184679L174.8222715774814,102.63238772377463L176.7615138906881,102.61868963724555L176.7618154835841,149.79293657453582L105.71497408280447,150.15460237925345L105.68270364306727,102.65964685013387L103.38768224502519,102.68416629094645Z" stroke="#FFFFFF" stroke-dasharray="1, 0" stroke-width="1"></path><text x="131.36074586165884" y="111.47020678643176" title="Dawes" class="hint " style="">Dawes</text></a><a id="s69" rel="nofollow " title="Arthur" class="hint   "><path d="M255.96443247501247,244.3039968574476L314.17759142572413,244.18138853805976L314.09776983958227,290.9140349910376L256.0542066266821,291.00837891889023Z" stroke="#FFFFFF" stroke-dasharray="1, 0" stroke-width="1"></path><text x="276.0763966718695" y="267.590585362271" title="Arthur" class="hint " style="">Arthur</text></a><a id="s70" rel="nofollow " title="Deuel" class="hint   "><path d="M192.09218444731187,337.3482452150356L193.16374400233917,337.3206516661339L193.14363780935764,314.1745378599335L248.92605855939155,314.18349275532273L249.30983305313475,343.4277403053611L192.07599896196052,343.3984675514612Z" stroke="#FFFFFF" stroke-dasharray="1, 0" stroke-width="1"></path><text x="212.0264424159982" y="328.8580064937524" title="Deuel" class="hint " style="">Deuel</text></a><a id="s71" rel="nofollow " title="York" class="hint   "><path d="M674.096440863691,337.5373986551904L720.1566125277732,337.4886110546495L720.1281622647011,383.79769794830554L674.1531403279032,383.8069799689929Z" stroke="#FFFFFF" stroke-dasharray="1, 0" stroke-width="1"></path><text x="688.1368551717752" y="360.6505311236153" title="York" class="hint " style="">York</text></a><a id="s72" rel="nofollow " title="Knox" class="hint   "><path d="M625.436739508838,91.02216918785143L625.4915203338865,89.28068127242841L630.6681698610796,90.40145861383189L637.5556467983624,94.8945128165542L641.8615890875949,95.14198530118847L650.940339467129,104.6024900489765L655.3213783871529,105.76401141922452L662.9949069391055,103.92141563433415L667.8358750236175,98.23608359501577L669.1645927868972,92.55022643342181L672.1880615567106,91.31447038408714L688.1487596704574,94.78386765499363L695.6579200947722,92.59918663815824L708.4142942328212,93.69612272311497L708.3763940590484,149.9760190326715L625.925118936394,150.20050763969266Z" stroke="#FFFFFF" stroke-dasharray="1, 0" stroke-width="1"></path><text x="658.4564003127057" y="122.76545508452028" title="Knox" class="hint " style="">Knox</text></a><a id="s73" rel="nofollow " title="Hayes" class="hint   "><path d="M320.3201339129878,383.868241060909L377.374673493056,383.5974691274978L377.42061614402064,429.97568132877404L320.5792022095734,429.8466710249904Z" stroke="#FFFFFF" stroke-dasharray="1, 0" stroke-width="1"></path><text x="339.9646660697602" y="406.8074736570693" title="Hayes" class="hint " style="">Hayes</text></a><a id="s74" rel="nofollow " title="Richardson" class="hint   "><path d="M856.6261910281341,472.1015126942093L856.671832086206,441.5742163024652L902.6851563206378,441.5186219710813L910.2221638222359,444.04557413112434L910.052065429601,451.5584470423555L918.4789730326243,459.8240142825862L915.8379240533459,468.2156575684048L916.6473993828399,470.9115494135185L923.1629117499388,472.1099152711058L927.2331089264462,475.9557611833279L856.6213655418187,475.871771125353Z" stroke="#FFFFFF" stroke-dasharray="1, 0" stroke-width="1"></path><text x="877.1022516512944" y="459.52794831003854" title="Richardson" class="hint " style="">Richardson</text></a><a id="s75" rel="nofollow " title="Brown" class="hint   "><path d="M435.612965184996,99.15784394442744L435.6177906713119,94.28107893241395L449.9491834366818,102.59499189530197L469.427962667623,104.84611871184643L470.1432404829916,107.05735538996214L475.5895055072551,108.90351359010492L487.9737140131888,110.06198291187411L489.51234043121076,197.86887491235575L438.7214831511292,197.89068410613527L438.72811819481285,150.69754908858613L437.1570202751245,150.66812787387698L437.146665585738,103.2022085181643L435.6080391677151,103.2000169730718Z" stroke="#FFFFFF" stroke-dasharray="1, 0" stroke-width="1"></path><text x="453.6137290984494" y="150.79048894112947" title="Brown" class="hint " style="">Brown</text></a><a id="s76" rel="nofollow " title="Perkins" class="hint   "><path d="M249.30546242098035,343.22622522378606L329.90978265621743,343.21823245832275L330.11205095762625,383.90682737475254L249.34191168079678,383.9413272587626Z" stroke="#FFFFFF" stroke-dasharray="1, 0" stroke-width="1"></path><text x="280.66295062622856" y="363.58012796903984" title="Perkins" class="hint " style="">Perkins</text></a><a id="s77" rel="nofollow " title="Hall" class="hint   "><path d="M584.0520619610174,337.5250018315901L628.247082633035,337.56752419651366L628.1976213982971,383.842914557109L584.1068513368964,383.7608349698621Z" stroke="#FFFFFF" stroke-dasharray="1, 0" stroke-width="1"></path><text x="597.1540613805207" y="360.664969801087" title="Hall" class="hint " style="">Hall</text></a><a id="s78" rel="nofollow " title="Nuckolls" class="hint   "><path d="M629.0822938895462,467.8247593978667L629.1305487527056,429.8578836511897L674.6464457727407,429.83334776843003L674.5780890945707,475.6927858355102L629.0859130042836,475.6253082545436Z" stroke="#FFFFFF" stroke-dasharray="1, 0" stroke-width="1"></path><text x="642.8650629918353" y="452.75097275041395" title="Nuckolls" class="hint " style="">Nuckolls</text></a><a id="s79" rel="nofollow " title="Scotts Bluff" class="hint   "><path d="M48.11636092061599,224.99211005352663L48.148714104073406,209.27945744230328L117.45146158179114,209.11548120181487L116.74231615528106,250.1063687557762L48.13607947946957,250.27544882649Z" stroke="#FFFFFF" stroke-dasharray="1, 0" stroke-width="1"></path><text x="73.61211693240111" y="229.65938742068585" title="Scotts Bluff" class="hint " style="">Scotts Bluff</text></a><a id="s80" rel="nofollow " title="Adams" class="hint   "><path d="M583.807067999519,383.7624261807414L628.6749424197124,383.8419863592553L628.676249322255,429.859466609043L583.8537143672411,429.8536624288672Z" stroke="#FFFFFF" stroke-dasharray="1, 0" stroke-width="1"></path><text x="597.2470100457897" y="406.82550282363695" title="Adams" class="hint " style="">Adams</text></a><a id="s81" rel="nofollow " title="Buffalo" class="hint   "><path d="M513.1958272697166,372.1243337238666L513.2771568203334,337.55206154220923L584.0520619610174,337.5250018315901L583.7171933168856,385.038882767366L565.2971056774627,389.89746304514847L514.7159559901938,387.9146429443763L513.2203568251557,383.6458692253145Z" stroke="#FFFFFF" stroke-dasharray="1, 0" stroke-width="1"></path><text x="539.4868254172047" y="362.99709825299965" title="Buffalo" class="hint " style="">Buffalo</text></a><a id="s82" rel="nofollow " title="Boone" class="hint   "><path d="M626.8934331904561,237.11796717699326L626.915751064666,221.0090092149967L673.392623578322,220.82905766947624L673.7386511595573,273.3732313186001L668.1445050859052,273.4143216566663L668.1598863235363,275.35326925724166L652.4781616374321,275.4731553532729L652.464891550062,277.42573682837065L646.6002166498247,277.5061341572209L646.6277621342101,279.46711556130595L627.3438119132743,279.47382497664876Z" stroke="#FFFFFF" stroke-dasharray="1, 0" stroke-width="1"></path><text x="640.825469225031" y="249.05140912935178" title="Boone" class="hint " style="">Boone</text></a><a id="s83" rel="nofollow " title="Boyd" class="hint   "><path d="M530.2073755597166,86.61571637231918L530.5214092391407,73.40857416726703L606.5131927971233,73.35081477642234L611.9825799433156,82.87358892619886L614.3355071771498,82.50534033573331L625.4915203338865,89.28068127242841L625.9559819426249,105.91353786688705L614.8095106767223,103.93237242211217L609.8184498615938,105.22900830476192L597.9469492767271,103.37602363476162L590.6006490155723,99.3639449448383L585.4187804290341,100.1415748038471L571.8888205159665,94.22732936755983L567.3170743554983,94.64058893523634L559.4214729020482,87.33715635085991L530.261561749805,100.01140385167491Z" stroke="#FFFFFF" stroke-dasharray="1, 0" stroke-width="1"></path><text x="570.6185296915232" y="86.96531081016012" title="Boyd" class="hint " style="">Boyd</text></a><a id="s84" rel="nofollow " title="Keith" class="hint   "><path d="M248.92605855939155,314.18349275532273L248.95410669860257,290.94807396919805L327.9273120280959,290.97862852922026L327.85834778616436,337.4292924316178L329.8909833657781,337.4302255366583L329.90978265621743,343.21823245832275L249.30546242098035,343.22622522378606Z" stroke="#FFFFFF" stroke-dasharray="1, 0" stroke-width="1"></path><text x="279.57405539898485" y="317.13469858485246" title="Keith" class="hint " style="">Keith</text></a><a id="s85" rel="nofollow " title="Garden" class="hint   "><path d="M186.23917113900325,230.71758364938523L186.39107342698935,208.79728738538506L247.8086568843637,208.26788529766418L247.68118362085033,244.32973091044823L255.96443247501247,244.3039968574476L256.0542066266821,291.00837891889023L248.95410669860257,290.94807396919805L248.92605855939155,314.18349275532273L193.14363780935764,314.1745378599335L193.24688311032378,290.95437250569194L190.50379520165643,290.93547688254966L190.52349927078058,244.18960739182694L187.66902305298845,244.14676147824957Z" stroke="#FFFFFF" stroke-dasharray="1, 0" stroke-width="1"></path><text x="211.81020882294146" y="260.73875949734594" title="Garden" class="hint " style="">Garden</text></a><a id="s86" rel="nofollow " title="Dundy" class="hint   "><path d="M249.29058383817437,454.58166364815406L249.32634756045172,430.0089247390206L322.5330215126942,429.83229246012615L322.4643588636559,475.59984791245734L249.30717144738446,475.5515518070524Z" stroke="#FFFFFF" stroke-dasharray="1, 0" stroke-width="1"></path><text x="276.93142265766664" y="452.74567643226453" title="Dundy" class="hint " style="">Dundy</text></a><a id="s87" rel="nofollow " title="Grant" class="hint   "><path d="M247.78613794822195,226.84297092414363L247.8086568843637,208.26788529766418L253.64829957433813,208.30766261455483L253.8853515896085,196.4695842936435L312.15782380961946,197.03100776534484L312.2218620342701,244.2003862046031L247.68118362085033,244.32973091044823Z" stroke="#FFFFFF" stroke-dasharray="1, 0" stroke-width="1"></path><text x="271.5856402357787" y="220.93292540694867" title="Grant" class="hint " style="">Grant</text></a><a id="s88" rel="nofollow " title="Kimball" class="hint   "><path d="M48.07689798585534,320.9983193143371L48.190593697068834,291.2091238812718L116.01557780991197,291.01896574475813L115.52574602266395,343.4470734025963L48.09394251544063,343.5571193274609Z" stroke="#FFFFFF" stroke-dasharray="1, 0" stroke-width="1"></path><text x="72.950461670542" y="317.28326484412867" title="Kimball" class="hint " style="">Kimball</text></a><a id="s89" rel="nofollow " title="Cass" class="hint   "><path d="M811.0624412688026,341.60367784226037L822.562278876379,341.7034720297852L822.606814093836,337.7548067674088L825.6062559630359,337.74840856761057L836.1384830333072,344.48059957917576L852.0393652229277,335.03435119963615L868.8321581332752,335.9560623716616L871.7227249674715,338.69622434756093L871.0367016628925,343.5314102082857L874.7552415241289,346.63021542917795L874.0035714994606,353.767412438935L876.8183379861107,357.6603458325735L872.9162285829407,362.23229284456556L874.3613417314186,372.49834660717534L811.0721927723985,372.47498782947423Z" stroke="#FFFFFF" stroke-dasharray="1, 0" stroke-width="1"></path><text x="834.5217366303112" y="355.6832318644008" title="Cass" class="hint " style="">Cass</text></a><a id="s91" rel="nofollow " title="Saunders" class="hint   "><path d="M766.312891794314,307.98130002135986L766.6276542454625,283.14149008619097L775.7416909936805,284.99284692978745L782.651284743245,283.652919177679L787.9521819922415,286.84957523888534L801.4835493388168,286.2940866531426L815.2856465739105,295.059111652874L816.7176096381581,301.7357502323948L822.4488799479541,308.3481685669585L820.9449367128295,312.50074689017947L825.35905032031,320.1697255495601L826.4217631504252,328.491723540571L823.5339106522811,332.7478545424128L825.6062559630359,337.74840856761057L822.606814093836,337.7548067674088L822.562278876379,341.7034720297852L820.5479399323804,341.74730650116L811.0624412688026,341.60367784226037L811.0616370210828,337.73707841068517L766.3617498432627,337.60271496331916Z" stroke="#FFFFFF" stroke-dasharray="1, 0" stroke-width="1"></path><text x="784.6366548962728" y="313.6342068013449" title="Saunders" class="hint " style="">Saunders</text></a><a id="s92" rel="nofollow " title="Fillmore" class="hint   "><path d="M674.247941027817,383.8093667727353L720.1281622647011,383.79769794830554L720.0993098777717,429.8535305156365L674.3148946504516,429.8338754225333Z" stroke="#FFFFFF" stroke-dasharray="1, 0" stroke-width="1"></path><text x="688.2001728706364" y="406.81559676465537" title="Fillmore" class="hint " style="">Fillmore</text></a><a id="s93" rel="nofollow " title="Franklin" class="hint   "><path d="M538.0663837419374,429.8154075102484L583.5642857192502,429.8527390362178L583.6098848855263,475.6638682292414L538.0934265714977,475.6960456293882Z" stroke="#FFFFFF" stroke-dasharray="1, 0" stroke-width="1"></path><text x="551.8277467633214" y="452.75857726962363" title="Franklin" class="hint " style="">Franklin</text></a><a id="s94" rel="nofollow " title="Gosper" class="hint   "><path d="M446.0109834171062,418.2027107280828L457.46166138283934,418.250922081279L457.4063693521375,383.6149727551292L485.80375313550076,383.6194812596568L491.4140846945056,385.61599221673714L491.54004999354447,429.7469439866345L446.0408411136864,429.7410078181447Z" stroke="#FFFFFF" stroke-dasharray="1, 0" stroke-width="1"></path><text x="463.64387066354885" y="408.10561146968706" title="Gosper" class="hint " style="">Gosper</text></a></g></g></svg>