<svg id="map" class="map svg-content-responsive" xmlns:xlink="http://www.w3.org/1999/xlink" preserveAspectRatio="xMinYMin meet" viewBox="0 0 960  540"><g><g id="states"><a id="s02" rel="nofollow " title="Clark" class="hint   "><path d="M528.1831044514429,398.44834780281417L560.372908302159,397.6484335531022L630.2837648790446,398.3753883718482L630.6381867958526,443.081279779507L629.374542726162,444.0583928301844L627.7049445670491,448.04802928666186L626.3850685021334,448.73063512162025L626.8753429383787,449.82147462408966L624.940619492043,454.5305544875996L619.5841487256421,455.268529034357L618.0914297727486,453.1998255286953L615.728856592832,452.27484968824456L616.0966591810702,450.6714779985505L612.5998805753388,446.55554940428647L610.6401651311262,446.25708583127744L608.4606638648684,447.7384222270366L607.4898463897825,446.75958240377804L605.1612225167173,447.6123290755172L604.8016584410552,446.011058307075L601.4912139787939,445.9752454009881L599.0381830366478,447.4435841536356L598.2077520275152,446.5833476447988L591.3496602912783,450.4194262905171L592.4125389974852,452.4389974822566L592.0820585299716,453.71124671120697L593.1417855904292,454.33290097121335L591.9856845204577,455.7344366351622L592.1222005442614,457.9830911710178L593.9149893477825,462.46407328232954L596.4847417667443,465.1053537310386L594.0397281690493,466.51930744940273L594.6246625618569,467.8436881889661L593.6985763396115,469.5867086307935L594.6805075128686,472.9192648286685L594.054048805001,476.21320758277625L595.4344696435355,477.8627310456868L594.943697579015,480.08261486535184L596.932717799501,482.92323631671206L595.7089392839471,484.93860171756523L596.7537927881458,488.0017333296737L595.5444454926064,490.53798557364144L599.637990985716,500.19973927828914L601.5925089790417,511.83553428447567L601.0946042425594,515.5289911677801L597.3070448473618,517.3501227794736L599.7319321458808,519.5988377615172L597.9723185607818,521.9529244708597L598.0411571390068,524.1050616744355L530.9991828671864,458.79184444874863L531.0120106183094,444.62849306521093L528.2479067114273,444.52828639270047Z" stroke="#FFFFFF" stroke-dasharray="1, 0" stroke-width="1"></path><text x="556.0334572868906" y="441.42914731800937" title="Carson City" class="hint Carson City " style="">Clark</text></a><a id="s03" rel="nofollow " title="Lincoln" class="hint   "><path d="M528.1822197789506,398.44254424859855L528.3527404016404,314.2839064644945L577.7291320319173,314.26803784945105L577.7291320319173,270.0833872430171L630.3140096198395,270.08034173823717L630.2837648790446,398.3753883718482L560.372908302159,397.6484335531022Z" stroke="#FFFFFF" stroke-dasharray="1, 0" stroke-width="1"></path><text x="563.5879374997943" y="342.479747870206" title="Lincoln" class="hint " style="">Lincoln</text></a><a id="s04" rel="nofollow " title="White Pine" class="hint   "><path d="M592.2903436096312,270.0816874266211L577.7291320319173,270.0833872430171L527.6221115079279,235.64941460371438L527.5895997938751,214.02522057205897L528.1049215200273,214.78018155367135L529.657024113897,213.62312961099042L532.7971691215926,204.77127187615633L531.7026633738233,195.10294084538782L532.8741356283317,193.32002856697227L532.6778489193348,188.90186831515848L533.8262091050092,186.04993295671966L531.5613922353759,175.95557704898374L532.0698577497224,171.68343922701797L531.319379016988,168.47148031671622L532.2276059133183,166.9350307999748L531.6087775056894,166.28280007511694L630.4905570738747,167.07139537776902L630.3140096198395,270.08034173823717Z" stroke="#FFFFFF" stroke-dasharray="1, 0" stroke-width="1"></path><text x="562.1797751588845" y="215.37522381958118" title="White Pine" class="hint " style="">White Pine</text></a><a id="s05" rel="nofollow " title="Esmeralda" class="hint   "><path d="M388.5110668247835,325.09709267624294L392.4655528606745,325.2836795709991L428.98389333499017,284.4777565388781L453.87144456682927,312.9235916328694L453.8629848861319,314.31304560790613L455.06829586342974,314.29675579387913L458.0348238947172,317.71199393397774L458.01331529477284,389.5264188683659Z" stroke="#FFFFFF" stroke-dasharray="1, 0" stroke-width="1"></path><text x="401.2465771584363" y="332.82624234330564" title="Esmeralda" class="hint " style="">Esmeralda</text></a><a id="s06" rel="nofollow " title="Mineral" class="hint   "><path d="M410.7407301407211,263.86128640984407L428.98389333499017,284.4777565388781L392.4655528606745,325.2836795709991L388.22686578696903,325.10746268456705L347.92815388144754,288.6465444603741L361.7576307248346,288.6514136178007L362.01954907427535,257.6853423978555L355.8045036551157,257.74625954305657L355.78741841762894,251.2085249359602L360.4927702304685,241.93154259342282L419.3578272497198,241.9346763513454L401.04742894611536,247.18297374001713L401.04958533531317,252.93324418646216Z" stroke="#FFFFFF" stroke-dasharray="1, 0" stroke-width="1"></path><text x="366.859246420953" y="279.8118573877927" title="Mineral" class="hint " style="">Mineral</text></a><a id="s07" rel="nofollow " title="Humboldt" class="hint   "><path d="M338.2829014615236,99.93761520168437L338.3023642563303,85.54660068327166L339.7042936948101,85.58895121757541L339.7896645902156,80.20847440903253L339.7638985039075,72.32491048935981L338.6956564707225,72.33788668160105L338.6830498877216,29.43239174060227L466.18033527384796,29.02267756848778L466.1598772224879,128.8846251758746L453.5464380103549,128.92761794751277L450.57122913024796,137.3955433963033L450.5396573807175,126.01906521177762L431.56171839043327,125.87360282025566L431.57161566392915,113.20779979653344L368.3994753289935,113.34633215094345L368.4012999660072,105.6701973030199L338.3729721795389,105.70358513624433Z" stroke="#FFFFFF" stroke-dasharray="1, 0" stroke-width="1"></path><text x="384.66363628808773" y="72.71032169906657" title="Humboldt" class="hint " style="">Humboldt</text></a><a id="s08" rel="nofollow " title="Elko" class="hint   "><path d="M579.2863767846411,29.131303265100996L630.7745922355971,29.430755037610197L630.4905570738747,167.07139537776902L522.4342814351721,166.31649837226632L513.7569160127077,127.18253475166193L513.7391672708509,102.80926258562022L466.17342377001023,102.784206724652L466.18033527384796,29.02267756848778Z" stroke="#FFFFFF" stroke-dasharray="1, 0" stroke-width="1"></path><text x="548.8397826137569" y="91.62996168352291" title="Elko" class="hint " style="">Elko</text></a><a id="s09" rel="nofollow " title="Eureka" class="hint   "><path d="M489.3046236465625,169.8161032998355L490.03928885851565,102.77365684956112L513.7391672708509,102.80926258562022L513.7569160127077,127.18253475166193L522.4342814351721,166.31649837226632L532.227108285042,166.85021677673922L531.319379016988,168.47148031671622L532.0698577497224,171.68343922701797L531.5613922353759,175.95557704898374L533.8262091050092,186.04993295671966L532.6778489193348,188.90186831515848L532.8741356283317,193.32002856697227L531.7026633738233,195.10294084538782L532.7971691215926,204.77127187615633L529.657024113897,213.62312961099042L528.1049215200273,214.78018155367135L527.5895997938751,214.02522057205897L527.6221115079279,235.64941460371438L489.2563537037595,235.6768692461942L489.8547240600283,195.35240393083495Z" stroke="#FFFFFF" stroke-dasharray="1, 0" stroke-width="1"></path><text x="492.5842800561324" y="179.4327885398389" title="Eureka" class="hint " style="">Eureka</text></a><a id="s10" rel="nofollow " title="Lander" class="hint   "><path d="M444.78630041792894,153.87015617161933L453.5464380103549,128.92761794751277L466.1598772224879,128.8846251758746L466.17342377001023,102.784206724652L490.03928885851565,102.77365684956112L489.2563537037595,235.6768692461942L448.842800250467,235.5365994046383L424.31464721819884,240.5263538369818L422.9520304135485,239.1658090993983L423.42837125805636,237.82150394464634L422.58301140063486,236.8239824614352L423.80761929665005,236.4199416074589L423.4227314709242,235.0940141415881L427.3968461777158,231.99981842360467L427.7102414077408,229.67641794354859L425.1770923131062,223.35402362560035L425.40301555055976,220.33903840717767L428.69173024475367,219.64408164748647L429.83699407670883,217.02970564199904L431.47258763693935,216.73386966141106L431.9580516665137,214.92833871441144L430.8844463063497,213.7763348195931L433.9189835354018,212.1351682016275L434.56180868435695,210.18569677333517L439.4687552411415,209.2681692214178L440.35779580281815,208.22406085244256L440.52798467332195,204.43394822041637L441.66976510734366,202.68116139068798L440.3159950276058,201.092841627883L441.5150580054351,198.63595097061398L440.21906809778284,196.84467868446154L440.91641118901225,194.54811005838474L439.8032720268957,193.64832819705725L439.76429114525035,192.06380290698144L441.6668346297165,183.68155058186767L440.77652235133337,179.8969866329121L437.2374453421153,175.44428248392478Z" stroke="#FFFFFF" stroke-dasharray="1, 0" stroke-width="1"></path><text x="444.1416259978189" y="179.70368778306417" title="Lander" class="hint " style="">Lander</text></a><a id="s11" rel="nofollow " title="Churchill" class="hint   "><path d="M350.07392700897617,218.5290873588865L350.10350824540274,210.13401866101185L351.6256425586298,210.134090336991L352.29567138669154,195.51221186912971L353.3724283926058,194.4518333670726L346.68292205798025,200.55821392738835L346.0649230308127,202.02480171091474L346.13951198023005,198.52775575643182L347.1726988659493,198.5296955320373L347.15843352202774,190.77638946871048L345.0770203182374,189.21620926697005L344.15734797155255,175.56330539336568L437.2374453421153,175.44428248392478L441.31843954425494,181.1372014260205L441.68342223892705,185.05041590797327L440.1959560289506,188.01704282974697L439.73117121885934,192.73363776728957L440.91641118901225,194.54811005838474L440.21906809778284,196.84467868446154L441.5150580054351,198.63595097061398L440.3159950276058,201.07855212651293L441.66976510734366,202.68116139068798L440.52798467332195,204.43394822041637L440.35663467017366,208.2285064667858L434.56180868435695,210.18569677333517L433.9189835354018,212.1351682016275L430.8844463063497,213.7763348195931L431.9580516665137,214.92833871441144L431.47258763693935,216.73386966141106L429.83699407670883,217.02970564199904L428.69173024475367,219.64408164748647L425.40301555055976,220.33903840717767L425.1770923131062,223.35402362560035L427.7102414077408,229.67641794354859L427.3968461777158,231.99981842360467L422.58301140063486,236.8239824614352L423.42837125805636,237.82150394464634L422.9520304135485,239.1658090993983L424.31464721819884,240.5263538369818L419.3578272497198,241.9346763513454L370.21874901522006,241.86516344385427L370.20885174172327,239.20122569769092L368.0908905056385,239.1725788910162L368.0670043483742,237.09510721959168L365.9509230413332,236.09508827458876L365.95131008554836,234.98760528705952L364.96230153236047,234.9799740022895L363.9118635330615,233.08448820461535L362.6361658006772,233.0573047565772L362.6634247718148,230.94746222370804L359.52377739239637,228.8941423824881L358.49307864805814,226.7955463701046L357.2420964533976,226.80283294829906L357.238226011249,225.7568146426538L356.24379883905203,225.79003967890276L356.2574559706354,224.66012166346945L355.21835283763085,224.66969831261167L355.22487729725344,223.62945265035341L354.18643766861715,223.63324121266623L354.19091632310483,222.5924223216557L353.16491740137644,222.58977692570306L353.1652491535606,221.54959879117632L352.141461913061,221.54330572296385Z" stroke="#FFFFFF" stroke-dasharray="1, 0" stroke-width="1"></path><text x="372.31662100708155" y="205.59187874743108" title="Churchill" class="hint " style="">Churchill</text></a><a id="s12" rel="nofollow " title="Pershing" class="hint   "><path d="M337.8476425958279,175.52952598772117L337.891212716022,138.00152082620298L339.2993348619393,137.96449951820387L339.48948415552877,105.70475663497655L368.4012999660072,105.6701973030199L368.3994753289935,113.34633215094345L431.57161566392915,113.20779979653344L431.56171839043327,125.87360282025566L450.5396573807175,126.01906521177762L450.57122913024796,137.3955433963033L437.2374453421153,175.44428248392478Z" stroke="#FFFFFF" stroke-dasharray="1, 0" stroke-width="1"></path><text x="368.54851293083385" y="143.53578970130067" title="Pershing" class="hint " style="">Pershing</text></a><a id="s14" rel="nofollow " class="hint  inverse " title="Douglas"><path d="M301.1261592007104,239.15390849622054L314.51877370951206,239.05970033086396L315.0217653128184,241.13336779902647L339.3724862185609,241.22518643382318L339.428441753631,247.8379859292063L334.3998527292997,248.3640967107185L334.35302037929523,250.40343024961112L333.33885395213656,250.3985953115689L333.2799126474074,255.5564726813841L332.30505885408,255.56606163826746L332.28537489114933,257.65360555205416L333.2809631959908,257.6466475592033L333.2868241512451,259.73311886307965L334.2748927399107,260.7407307691733L334.1437953351142,266.11276137565756L337.26198940661925,266.4082564842902L337.3765544942362,272.1228979867042L338.40222166378135,272.1263670478834L338.44999397830816,280.16814279706205L301.25968945485783,247.2080175889255Z" stroke="#FFFFFF" stroke-dasharray="1, 0" stroke-width="1"></path><text x="238.4787655893366" y="253.41739590839808" title="Douglas" class="hint " style="">Douglas</text><line x1="322.4787655893366" y1="253.41739590839808" x2="322.4787655893366" y2="253.41739590839808"></line></a><a id="s15" rel="nofollow " title="Lyon" class="hint   "><path d="M332.28576193536446,257.5990773512608L332.30505885408,255.56606163826746L333.2799126474074,255.5564726813841L333.33885395213656,250.3985953115689L334.35302037929523,250.40343024961112L334.3998527292997,248.3640967107185L339.428441753631,247.8379859292063L339.3724862185609,241.22518643382318L326.1407715191044,241.0701836367084L324.83073743565456,236.15370033002046L325.5573300111246,233.31407900607564L320.7245300675131,233.26428052702022L318.8821443124525,232.2601434550461L317.20419705670247,229.29707668517676L330.1336302243035,223.11382397317038L342.3004204124163,200.77357994832937L346.1386825997697,200.65458760652427L346.0649230308127,202.02480171091474L353.2945772133753,194.22209912738845L352.29567138669154,195.51221186912971L351.6256425586298,210.134090336991L350.10350824540274,210.13401866101185L350.0726552922706,219.45936353784418L353.1652491535606,221.54959879117632L354.18643766861715,223.63324121266623L355.22487729725344,223.62945265035341L355.21835283763085,224.66969831261167L356.2574559706354,224.66012166346945L357.2420964533976,226.80283294829906L358.49307864805814,226.7955463701046L359.52377739239637,228.8941423824881L361.5885476949452,229.8928859036464L361.5889900311913,230.9497463151124L362.6634247718148,230.94746222370804L362.6361658006772,233.0573047565772L363.9118635330615,233.08448820461535L364.96230153236047,234.9799740022895L365.95131008554836,234.98760528705952L365.9509230413332,236.09508827458876L368.0670043483742,237.09510721959168L368.0908905056385,239.1725788910162L370.20885174172327,239.20122569769092L370.21874901522006,241.86516344385427L360.4927702304685,241.93154259342282L355.78741841762894,251.2085249359602L355.8045036551157,257.74625954305657L362.01954907427535,257.6853423978555L361.7576307248346,288.6514136178007L347.92815388144754,288.6465444603741L338.44999397830816,280.16814279706205L338.40222166378135,272.1263670478834L337.3765544942362,272.1228979867042L337.26198940661925,266.4082564842902L334.1437953351142,266.11276137565756L334.2748927399107,260.7407307691733L333.2868241512451,259.73311886307965L333.2809631959908,257.6466475592033Z" stroke="#FFFFFF" stroke-dasharray="1, 0" stroke-width="1"></path><text x="332.10163836485316" y="235.59157817551787" title="Lyon" class="hint " style="">Lyon</text></a><a id="s16" rel="nofollow " title="Washoe" class="hint   "><path d="M318.5526591014932,210.0418424992863L318.1195566249953,215.24039241543733L320.38769101646903,215.2392467744221L320.27290476072994,218.34354084458346L318.7070897432468,219.38359995092287L320.1979287670956,223.5335939201077L319.1521905904074,223.52565922246913L319.1487624845031,227.15457631845993L318.12691046507825,227.1522904949834L318.09578105179116,228.70626665958798L315.02303702952395,229.76016473842537L313.9847632769788,231.83732250669436L309.94501692974427,232.87265318156824L308.94036073186817,234.98617887957198L301.0781657180605,235.38163482129448L301.3615926674438,29.35911152955805L338.6830498877216,29.43239174060227L338.6956564707225,72.33788668160105L339.7638985039075,72.32491048935981L339.7896645902156,80.20847440903253L339.7042936948101,85.58895121757541L338.3023642563303,85.54660068327166L338.3729721795389,105.70358513624433L339.48948415552877,105.70475663497655L339.512706808423,111.76127065919536L339.2993348619393,137.96449951820387L337.891212716022,138.00152082620298L337.84742142770574,175.61931517970743L344.16232425431554,175.56424370688273L345.0770203182374,189.21620926697005L347.15843352202774,190.77638946871048L347.1726988659493,198.5296955320373L346.13951198023005,198.52775575643182L346.1386825997697,200.65458760652427L342.3004204124163,200.77357994832937L341.2973123913989,202.70793655492753L336.11633853044987,205.24761913512293L331.3145574160626,205.0955861608022L330.47395267328284,206.7489013990812L327.35409984085527,206.69682895440974L324.37518639469,208.08653165950773L322.1471387254751,210.685749772525Z" stroke="#FFFFFF" stroke-dasharray="1, 0" stroke-width="1"></path><text x="298.8340254121396" y="126.37178042951142" title="Washoe" class="hint " style="">Washoe</text></a><a id="s17" rel="nofollow " title="Nye" class="hint   "><path d="M455.22609931905754,314.46906009104305L453.8629848861319,314.31304560790613L453.87144456682927,312.9235916328694L401.04958533531317,252.93324418646216L401.04742894611536,247.18297374001713L424.31464721819884,240.5263538369818L448.842800250467,235.5365994046383L527.6221115079279,235.64941460371438L577.7291320319173,270.0833872430171L577.7291320319173,314.26803784945105L528.3527404016404,314.2839064644945L528.2479067114273,444.52828639270047L531.0120106183094,444.62849306521093L530.9991828671864,458.79184444874863L458.01331529477284,389.5264188683659L458.0586547599487,317.83541834049265Z" stroke="#FFFFFF" stroke-dasharray="1, 0" stroke-width="1"></path><text x="475.32601604106577" y="314.07047474149823" title="Nye" class="hint " style="">Nye</text></a><a id="s13" rel="nofollow " class="hint  inverse " title="Storey"><path d="M318.11336391755594,214.96636190600884L318.14427216271815,210.04220088580132L322.1471387254751,210.685749772525L326.5364412908166,207.00344604065958L330.47395267328284,206.7489013990812L331.40075769192936,205.07485077001274L336.11633853044987,205.24761913512293L341.1370207943901,202.36042246723946L330.1336302243035,223.11382397317038L317.20419705670247,229.29707668517676L318.09578105179116,228.70626665958798L318.12691046507825,227.1522904949834L319.1487624845031,227.15457631845993L319.1521905904074,223.52565922246913L320.1979287670956,223.5335939201077L318.7070897432468,219.38359995092287L320.27290476072994,218.34354084458346L320.38769101646903,215.2392467744221Z" stroke="#FFFFFF" stroke-dasharray="1, 0" stroke-width="1"></path><text x="246.46780212407248" y="215.11733754355" title="Storey" class="hint " style="">Storey</text><line x1="327.4678021240725" y1="215.11733754355" x2="327.4678021240725" y2="215.11733754355"></line></a><a id="s01" rel="nofollow " class="hint  inverse " title="Carson City"><path d="M301.0781657180605,235.38163482129448L307.9072844302091,235.38833840440702L309.94501692974427,232.87265318156824L313.9847632769788,231.83732250669436L315.02303702952395,229.76016473842537L317.20419705670247,229.29707668517676L318.8821443124525,232.2601434550461L320.7245300675131,233.26428052702022L325.5573300111246,233.31407900607564L324.83073743565456,236.15370033002046L326.29072350637216,240.71442843775594L315.0217653128184,241.13336779902647L314.51877370951206,239.05970033086396L301.1261592007104,239.15390849622054Z" stroke="#FFFFFF" stroke-dasharray="1, 0" stroke-width="1"></path><text x="222.15070550859838" y="236.34967985862153" title="Carson City" class="hint " style="">Carson City</text><line x1="315.1507055085984" y1="236.34967985862153" x2="315.1507055085984" y2="236.34967985862153"></line></a></g></g></svg>