<svg id="map" class="map svg-content-responsive" xmlns:xlink="http://www.w3.org/1999/xlink" preserveAspectRatio="xMinYMin meet" viewBox="0 0 960  540"><g><g id="states"><a id="s01" rel="nofollow " title="Cass" class="hint   "><path d="M746.4895929466093,355.1861428000211L746.504169936522,318.4149361868158L834.2431219643804,318.6770179675723L833.0010121492792,321.2087210963555L834.8511840275737,324.0849649635693L833.9967713567617,324.0463457728747L833.0938022298956,325.382518527269L834.9822764058231,325.68653228020685L833.9666120672878,326.53253098004825L835.4216972534637,326.6529367441617L834.2326170004521,327.83411701956356L835.6835804170678,329.52393421177203L833.4567190132393,331.5198369470954L835.5808377709241,334.5448066193403L833.8122970361424,335.86781862380485L835.8974097794421,337.76757815499786L834.5339083023009,344.8982168207576L836.3092851426986,348.22561428007793L833.6128436017516,352.87721567406606L835.4429092870619,353.3317139157507L835.3918395568849,358.3825005712024L838.0920007435329,358.9627806840481L837.1199668437725,361.6087818381093L838.4172184150334,364.40670000679256L842.287761095221,364.9810904807L839.9452890817397,369.23398770398126L840.7595898975505,371.602254723799L839.4627404501484,371.63166972056024L840.0658257086734,377.58594903565154L838.199367814062,378.44005653803015L839.5720176090108,379.51094037809344L837.3328914274612,381.6032117841678L838.8384431580271,385.32509201371704L837.9181827051962,386.60423040602655L840.0329520831451,388.28061152345254L838.6423072454777,388.28340005849986L839.8154030750688,388.934422690264L838.6553762709168,389.5341790127932L839.1630576437365,400.15804195028886L837.453528585359,402.5815228132633L839.0083404887332,406.7212632302708L748.9197279614973,408.2323555578896L748.9697923820249,357.0404299029751L746.5048736532767,357.02908416605806Z" stroke="#FFFFFF" stroke-dasharray="1, 0" stroke-width="1"></path><text x="783.3626441686142" y="363.23455726705936" title="Stutsman" class="hint Stutsman " style="">Cass</text></a><a id="s02" rel="nofollow " title="Grant" class="hint   "><path d="M305.14599006873595,402.809327038196L305.152625112421,395.3716125726187L343.1617744512955,395.32571615288543L343.1668009995424,408.0755643964176L385.27258715869766,408.1527159905809L385.30083635983783,445.9822938001362L410.4796207704885,445.9907444659293L410.47489581513673,458.61490620310633L412.95077241906074,459.48651636759587L405.6552402951893,460.3836283486289L406.1761917553763,462.48711125887075L403.6137579906622,464.67056908357154L405.19440635201863,466.96808592658726L395.4461197461542,473.2808149724897L396.2203087069629,478.49524010290315L394.0490409267318,477.282043129213L392.42335469309364,479.92863573409795L384.92947497544355,480.66663478915234L384.0485221298936,481.80940504345745L385.73141048256866,483.1528721895211L383.2708145853135,485.4423229229151L383.95764213761095,486.605140031842L378.7497360311613,489.7964003796942L375.3686786191447,488.7523046337692L372.08453305730563,492.2376468111588L367.62638688719016,491.30513515250004L365.2660203619548,494.0439793380656L366.514112291371,495.8695961044559L361.5029452832591,495.51759596297325L362.3462995479317,497.5425073192737L359.64583676838765,498.9309535624916L357.57851800587787,496.2252004368629L355.8515970905705,498.53798054347953L351.88183034801114,494.42674606474156L348.55294850678547,498.23618153898315L342.07986020688213,494.69060259126036L339.2777606218101,495.753326276802L340.0014830382329,493.8879999047267L335.0106232850335,496.41979155909394L332.1025640629405,494.42848389689334L330.70065975720263,495.7026477411673L328.8689855764537,492.9242489552371L330.61058401263926,492.6849588636287L329.97211185446395,489.30893114122955L315.67228581207837,493.06040356091944L315.02174993811377,458.76168434909414L310.1098069923728,458.7711397365774L309.7019528677142,408.09430337260983L305.1178413985599,408.0719044349571Z" stroke="#FFFFFF" stroke-dasharray="1, 0" stroke-width="1"></path><text x="342.05024660892735" y="447.70917028761795" title="Grant" class="hint " style="">Grant</text></a><a id="s03" rel="nofollow " title="Sioux" class="hint   "><path d="M314.9418278210064,503.8806173582343L314.9708812698668,492.1797030057651L318.58798538750443,492.787367787344L321.08165597221705,490.3045597777209L323.64167699377595,492.1318990503769L329.97211185446395,489.30893114122955L330.61058401263926,492.6849588636287L328.8689855764537,492.9242489552371L330.70065975720263,495.7026477411673L332.1025640629405,494.42848389689334L335.0106232850335,496.41979155909394L340.0014830382329,493.8879999047267L339.2777606218101,495.753326276802L342.07986020688213,494.69060259126036L348.55294850678547,498.23618153898315L351.88183034801114,494.42674606474156L355.8515970905705,498.53798054347953L357.57851800587787,496.2252004368629L359.64583676838765,498.9309535624916L362.3462995479317,497.5425073192737L361.5029452832591,495.51759596297325L366.514112291371,495.8695961044559L365.2660203619548,494.0439793380656L367.62638688719016,491.30513515250004L372.08453305730563,492.2376468111588L375.3686786191447,488.7523046337692L380.04970193847566,489.13662887231567L385.20764415536314,484.73289387020486L384.92947497544355,480.66663478915234L392.42335469309364,479.92863573409795L394.0490409267318,477.282043129213L396.2203087069629,478.49524010290315L395.4461197461542,473.2808149724897L405.19440635201863,466.96808592658726L403.6137579906622,464.67056908357154L406.1761917553763,462.48711125887075L405.6552402951893,460.3836283486289L412.95077241906074,459.48651636759587L413.5685351984639,456.5844645184652L415.63706033255085,455.7077345685775L413.61327147785005,453.5312810702044L418.07212136472026,452.6061737239106L421.2388467595374,449.10449536516626L421.49117948147386,445.24049435691086L426.96468839722866,440.49548015095024L427.14876059398784,443.24409693789767L429.737030816686,441.3450215056746L433.96958550153204,444.0515185145887L441.7158984720827,441.5855650404601L443.4565921295839,444.77375618008773L447.34171179968416,440.0377953235529L454.57571897302887,439.3584369092787L455.55086933270286,437.55003118811055L460.4769871444969,447.1415539020145L460.6780490743263,452.12239659610805L457.4207452801206,459.50018906538116L459.7128512801787,465.592387690941L452.6540695786812,480.49690249377727L454.76632568250807,491.3344000258621L463.42395185001124,501.45131198092076L464.4228281212936,508.0705686202682L314.9665327627672,507.9401776431041Z" stroke="#FFFFFF" stroke-dasharray="1, 0" stroke-width="1"></path><text x="402.35273738836725" y="483.5735999300987" title="Sioux" class="hint " style="">Sioux</text></a><a id="s04" rel="nofollow " title="Walsh" class="hint   "><path d="M684.9527797648475,142.72345696905722L684.9727854268654,122.92604566391856L801.2691326333083,123.11853570443782L803.3105990951813,124.37575869910052L802.3396710360325,126.61811506438426L804.7286888862704,126.5718233626385L802.4079315612098,127.75134006066583L804.1882344188871,131.32429886880345L801.1292782184578,132.9400056301829L804.5219972224058,133.24951890368084L802.5793368563895,134.00800883089687L804.5597968652123,135.59071011776177L802.348316699015,138.4853971073535L804.7580439280255,138.1932192303184L802.8299605519223,140.14202387702971L805.1721309725099,141.95900911900662L803.3702139573747,141.45943393781L801.9157319569872,142.08215593524255L804.264738483188,143.7295285651744L801.0667479582803,145.94006184115278L804.0739307117797,147.4479602121437L801.7718721461929,149.84339948808883L804.8235901171497,153.71904998901664L803.235703526319,155.964671044032L805.8629797634035,156.23697429449385L803.6107845564161,158.3248170334964L806.1997584958699,160.38701030775337L803.6001282741349,161.2371172870162L805.7635546391034,162.9269291752662L802.8941998385035,164.72707443453874L805.1217649590881,165.64480868724604L802.7242019768319,168.60461522702008L805.2494392845283,171.39579464171493L803.6905056115938,170.8852957853096L802.227277417257,172.0953179412545L803.9051392216866,171.8363991004171L805.6360813755914,173.47848556220833L803.5133700514134,172.3755018043703L804.4922400567898,173.50247155947272L803.284159451408,175.9162285493785L687.5779448516696,175.678702339359L687.5851830811425,149.31422101568387L684.9152817149343,149.3101351383284Z" stroke="#FFFFFF" stroke-dasharray="1, 0" stroke-width="1"></path><text x="735.9396206849425" y="149.31782580322476" title="Walsh" class="hint " style="">Walsh</text></a><a id="s05" rel="nofollow " title="Benson" class="hint   "><path d="M531.1453294623716,183.89151342067998L531.309697590008,149.0716372100269L596.2835639312448,149.16849005072618L596.3232736623859,181.68896194192712L602.9190097394858,183.4250792998173L605.4312785527081,188.86566360020515L609.3388166279847,188.83645575223454L609.3480654767563,201.75874308519542L616.3355707241312,197.1151772230287L617.9987550076812,202.41359493462096L617.2998637395935,206.52120100561478L620.8841947626684,204.3670001886403L623.5267517064217,205.51050332180694L624.6744132018898,201.9324938862046L627.1676816627437,201.09075822086652L626.6750799346596,202.5336776668919L627.1174161802855,203.88617066619463L627.760914886705,203.82606487828343L633.8732980844952,195.75247614529417L636.1353453260449,196.05316337018212L637.8446733224919,204.02125672335296L639.7950745728062,205.0579901284309L639.8150802348227,200.45924612261388L641.4919367296043,207.69337316688507L637.0736008215949,212.3241532649472L644.2890097664313,205.34344309423977L649.3860302185794,204.99789342761142L650.3914403986923,210.70500089784036L654.0207087630843,214.29247083417522L653.9302308946612,217.48814099667288L664.116933038521,217.80958557233407L664.120853746153,228.11934968547394L534.7725872074652,227.97239905280094L534.776005260273,201.83449650863076L531.1479432674596,201.83855470684284Z" stroke="#FFFFFF" stroke-dasharray="1, 0" stroke-width="1"></path><text x="570.7170309170236" y="194.56733173866817" title="Benson" class="hint " style="">Benson</text></a><a id="s06" rel="nofollow " title="Golden Valley" class="hint   "><path d="M109.1512229945588,378.7722987982561L109.21097659159477,305.05481713259996L147.27035320905043,305.1695986366358L147.2439135652794,356.8476975039848L153.01851272095382,356.8310468537593L153.05219059419915,408.2515333488145L133.78894975203684,408.28578974534594L133.78332001800118,421.27731638421847L109.23190351696394,421.2505836886867Z" stroke="#FFFFFF" stroke-dasharray="1, 0" stroke-width="1"></path><text x="120.17797937353882" y="362.46750967522155" title="Golden Valley" class="hint " style="">Golden Valley</text></a><a id="s07" rel="nofollow " title="McKenzie" class="hint   "><path d="M109.20832458263112,303.07825877512914L109.33026864307158,205.6428569350055L113.20714477404954,210.00130131487822L117.04441170485006,207.23317703803878L121.82938404190463,211.67329043784957L126.73288238659052,209.43703435582393L128.0029905973256,202.69042867127973L131.20831988267173,205.4954800673886L131.45441968478463,208.21361422367409L134.18182476292486,205.0546848219974L135.11103247163283,196.33172860910327L139.55701439499262,198.9670736092885L142.81552456077816,196.33443599746442L139.68096907473182,191.01228916406671L145.63642343628953,186.74856177612855L150.58264744106555,188.34457300761005L154.21794766335324,184.8404151321638L155.41446720777003,186.32236098899284L153.20660615630868,188.60053058775793L159.28893059558823,192.15294977503163L155.66961479672364,198.68153599962443L161.21912512195377,199.77897138158187L165.3006822974994,204.15273421752954L170.95072358764446,199.7189840687215L176.30912454857162,201.29744285897868L185.33710679082242,198.99744613218172L186.7746995891057,195.94456232779794L191.40927760264458,194.81634505592683L188.7681280924021,191.49647715832816L193.4601092869084,185.01650426227297L204.082412101744,183.01707703478587L205.36770048818016,186.30805348807098L217.5550693648097,184.27852993922352L222.3502958602853,186.74193551249118L227.6912044333185,184.44453887478812L233.75221630803617,187.16811318538112L238.64626474202214,185.67277377438768L240.69156722321532,187.96257821240306L238.65320137860044,191.02071793654886L247.702395654449,193.0451636199923L248.31101011604324,198.61567591012044L253.66860682925062,198.0910306780188L254.7409706319977,202.8637077310441L259.37645342422366,205.65081911209109L249.6972315912535,219.82539801354415L250.20973845039043,253.8960589490107L204.25693385683599,253.8206621401432L204.3242896033289,305.26452492044245L109.21097659159477,305.05481713259996Z" stroke="#FFFFFF" stroke-dasharray="1, 0" stroke-width="1"></path><text x="165.519814735693" y="243.79005716083842" title="McKenzie" class="hint " style="">McKenzie</text></a><a id="s08" rel="nofollow " title="Morton" class="hint   "><path d="M305.05631644803316,356.73674162204225L421.79428034069224,356.3981175954332L421.5886945174407,358.402094376941L424.6401108955024,361.4322130410501L424.82910910954297,368.6197402578464L433.714437912578,382.5323774938879L431.968114521042,390.76231217353416L438.0450102882164,393.47878753654913L435.6719768614016,395.68129647168644L436.5939463406353,399.1838983979642L440.6629371455638,399.0600517915782L440.97237145557256,403.2655017786574L442.7034141404415,404.4586978262705L451.38235287250745,401.1344100756269L449.2640649107866,407.4221612865322L459.48816457359453,414.3904327509699L456.87516373352673,416.4983663896337L461.18703734969085,422.78490700636576L457.25004370169427,427.3335638730914L455.7218725040225,434.63238064259167L456.57638570579866,437.6960314615244L454.294232271267,437.8563223802612L454.57571897302887,439.3584369092787L447.34171179968416,440.0377953235529L443.4565921295839,444.77375618008773L441.7158984720827,441.5855650404601L433.96958550153204,444.0515185145887L429.737030816686,441.3450215056746L427.14876059398784,443.24409693789767L426.96468839722866,440.49548015095024L421.49117948147386,445.24049435691086L421.2388467595374,449.10449536516626L418.07212136472026,452.6061737239106L413.61327147785005,453.5312810702044L415.00019666981507,456.83138664498074L410.47489581513673,458.61490620310633L410.4796207704885,445.9907444659293L385.30083635983783,445.9822938001362L385.27258715869766,408.1527159905809L343.1668009995424,408.0755643964176L343.1617744512955,395.32571615288543L305.152625112421,395.3716125726187Z" stroke="#FFFFFF" stroke-dasharray="1, 0" stroke-width="1"></path><text x="378.0548853864214" y="395.4573917452798" title="Morton" class="hint " style="">Morton</text></a><a id="s09" rel="nofollow " title="Pembina" class="hint   "><path d="M721.9134916706248,61.14612945639146L721.9574225446199,53.25484833276187L794.4888058619704,53.24766445277237L793.9527747570442,61.35737406532735L798.406598095668,69.48570062181898L797.4219978252918,71.49407492281443L799.609048967015,72.4164415576397L798.3368296060171,73.9478686234379L800.009061676411,78.07034622061292L798.3500996933858,81.52071472360603L801.5221532293444,82.25090306908533L799.2632224477079,84.24143077102053L801.1384265362653,83.90169938995496L800.0346970724645,84.93961842217504L802.6761481756016,86.79732682236045L801.500941195748,87.62022007416908L802.8131718807826,89.16736779916755L802.1015131801491,91.11309957296817L806.4248473263128,97.981961673775L805.4116962619019,98.94805880276272L808.4016882203996,101.5252455711634L806.4989386474549,104.62640753718188L807.5569265222202,105.06141383241538L805.8496091450706,107.61707232218123L806.4894887367541,109.42031262205273L804.3349090966985,109.50078145354382L805.3777167957605,111.64392336328638L802.4231117369118,112.44879684137413L803.9629445265136,113.18988098594673L802.0027917726024,115.13104855277288L803.0407739853495,117.06473520603504L801.3340597939891,117.28082556470508L802.4862451828785,118.94035493766387L799.8564556716706,120.08777625802213L803.5473495175543,121.62489731726055L724.274762974545,123.02459472817827L724.2690327095452,96.64686550916485L722.0205571482588,96.47102928560616Z" stroke="#FFFFFF" stroke-dasharray="1, 0" stroke-width="1"></path><text x="752.8613001159569" y="88.43212036349246" title="Pembina" class="hint " style="">Pembina</text></a><a id="s10" rel="nofollow " title="Ramsey" class="hint   "><path d="M596.2835639312448,149.16849005072618L619.3384306461376,149.19663767926158L619.3970401986821,122.85634687252332L684.9727854268654,122.92604566391856L684.9152817149343,149.3101351383284L687.5851830811425,149.31422101568387L687.5779448516696,175.678702339359L674.5173640137882,175.7319390072871L674.4611672044011,201.88499837946438L664.1115043664145,201.87973778327614L664.116933038521,217.80958557233407L654.0810273420338,217.60814052906244L654.0207087630843,214.29247083417522L650.3914403986923,210.70500089784036L649.3860302185794,204.99789342761142L644.2890097664313,205.34344309423977L642.9921603190287,208.01717626381833L637.0736008215949,212.3241532649472L641.4919367296043,207.69337316688507L639.8150802348227,200.45924612261388L639.7950745728062,205.0579901284309L637.8446733224919,204.02125672335296L636.1353453260449,196.05316337018212L633.8732980844952,195.75247614529417L627.760914886705,203.82606487828343L627.1676816627437,201.09075822086652L624.6744132018898,201.9324938862046L623.5267517064217,205.51050332180694L620.8841947626684,204.3670001886403L617.2998637395935,206.52120100561478L617.9987550076812,202.41359493462096L616.3355707241312,197.1151772230287L609.3480654767563,201.75874308519542L609.3388166279847,188.83645575223454L605.4312785527081,188.86566360020515L602.9190097394858,183.4250792998173L596.3232736623859,181.68896194192712Z" stroke="#FFFFFF" stroke-dasharray="1, 0" stroke-width="1"></path><text x="635.5999817054966" y="164.39512619649756" title="Ramsey" class="hint " style="">Ramsey</text></a><a id="s11" rel="nofollow " title="Barnes" class="hint   "><path d="M669.9709516564776,344.0531596168021L669.9556709498115,318.34460127743387L746.504169936522,318.4149361868158L746.5048736532767,357.02908416605806L748.9697923820249,357.0404299029751L748.9197279614973,408.2323555578896L672.8127609726935,408.05785016723803L672.7715432770779,356.86700042612483L669.9502422777064,356.8764308441732Z" stroke="#FFFFFF" stroke-dasharray="1, 0" stroke-width="1"></path><text x="700.7403608221774" y="363.2037967835136" title="Barnes" class="hint " style="">Barnes</text></a><a id="s12" rel="nofollow " title="McLean" class="hint   "><path d="M276.0524293533367,234.1230747399959L276.0664031574602,227.89854819516495L457.0627545140578,227.93899398507983L457.068283717128,253.89590964911986L448.2875071176036,253.89352085048267L448.20356376189875,305.4555605799387L440.55828441108815,305.41714617477555L440.55466529635214,330.65589507489676L418.871845190617,330.76426260511835L416.0703487913347,325.02893054710876L417.60756777584857,316.93199471558546L411.6164249217454,311.40099669089795L406.5173938502985,310.03768559198306L397.2021946412856,312.40205972513104L394.97834916640386,317.36843570195015L380.60151640489175,310.7233726706945L379.13366378617,299.86613844526164L375.69540425511696,296.12481909183407L370.8496106842904,284.35519367967663L378.20244545816513,276.17051135210113L372.3276169304695,270.58856449426094L353.89164539858984,275.53255955969144L344.22921223676167,274.11979842742767L332.5363551765481,280.65078470840217L325.6832598292667,279.0539690643245L318.56265158434553,274.17757655597416L312.18878734681266,274.1754917855751L312.65133031638607,270.94342828953086L311.14336584266266,268.9914777090771L296.3348531178085,269.6768987693931L288.15153204277294,261.41773948103946L288.5336502404134,246.3681557394566L285.54767952051134,241.95830056690465L288.4230661790061,240.94143707377498L288.59396881936163,237.83005615765887L280.3902399584481,234.9419291837321L276.047000681232,241.33025351368997Z" stroke="#FFFFFF" stroke-dasharray="1, 0" stroke-width="1"></path><text x="373.96200943111114" y="263.8254582746248" title="McLean" class="hint " style="">McLean</text></a><a id="s13" rel="nofollow " title="Traill" class="hint   "><path d="M769.8300681328265,292.984863854962L769.9569382105478,254.17375179396004L828.8584375210021,254.17350272102067L828.6843130468005,259.18858458612067L832.5725491768126,266.2800473061725L832.3913923780356,269.61834232199544L830.6918158851845,269.6639359295905L832.8135218997131,269.95686105525965L831.3812572425713,270.95951744954164L833.026245421474,273.92844255187174L830.448329888161,275.66998041744773L833.3381930056039,278.53263800721106L831.0472933771248,281.0760114901568L832.3424337981219,281.92371787518005L830.7108162375544,282.9406061728023L832.3714872469832,282.98731202389536L831.1996983199347,286.1700895078402L832.2787976973309,289.88808334705664L830.3842916635103,291.8034712812214L833.6466220059624,294.7564697802136L832.0974398366238,298.577417886333L833.8985526040387,298.8374946840795L831.7366342035461,299.4944766978351L834.5110877732659,303.7917030966364L832.8660995943646,307.17467193221273L834.5026431722131,308.71876252270613L832.8117123423453,313.7051026313875L834.1111755948341,314.4109135551689L832.8320195972578,315.04125982575715L834.2431219643804,318.6770179675723L772.0915121885869,318.55071779660557L772.0557231650764,305.8942723574246L769.8052369844913,305.86802153235203Z" stroke="#FFFFFF" stroke-dasharray="1, 0" stroke-width="1"></path><text x="792.2175717930703" y="286.5729001972813" title="Traill" class="hint " style="">Traill</text></a><a id="s14" rel="nofollow " title="Grand Forks" class="hint   "><path d="M726.6609659577643,192.03917721657035L726.6593574623262,175.72092975476426L803.284159451408,175.9162285493785L802.9816617779788,180.60674261733493L805.3161918452324,181.1197645069269L802.7926635639383,183.7471870051977L805.0492821333833,183.9475559374432L804.0647823939721,184.43233688742475L805.0965316868933,189.0184760589791L807.2032585876491,190.51693214504212L806.978672412029,194.16867406980327L810.2183832873766,197.8328302225027L811.9980829592646,213.12489779645057L815.6976224681325,217.10127987147553L815.1545541956611,223.9686100889303L817.2355451693993,224.76305904598576L817.6538545144103,228.80118822215172L820.0777566094739,231.60849839523235L818.3865241867102,233.8998991236731L823.9994695508017,239.91576570701272L825.6700931257583,246.43465815858053L824.433863850199,247.7012339908615L829.0318485925118,253.9114368224209L728.7734231235204,254.15464206584147L728.7961431215926,201.93189267907564L726.6427698531161,201.91776429816946Z" stroke="#FFFFFF" stroke-dasharray="1, 0" stroke-width="1"></path><text x="762.4707708838469" y="216.64731144590692" title="Grand Forks" class="hint " style="">Grand Forks</text></a><a id="s15" rel="nofollow " title="Wells" class="hint   "><path d="M508.906673651622,240.97269265195428L508.93220851671185,227.96580792973236L586.5423144929241,228.03920875737276L586.5308539629223,254.03147277169046L589.7084367019525,254.0366981752386L589.6511340519519,305.48997023467655L512.5426775906644,305.4902668689747L512.587212808121,253.93935579656863L508.9012449795182,253.9350261226382Z" stroke="#FFFFFF" stroke-dasharray="1, 0" stroke-width="1"></path><text x="540.9718879559248" y="266.68973538576466" title="Wells" class="hint " style="">Wells</text></a><a id="s16" rel="nofollow " title="LaMoure" class="hint   "><path d="M612.6571427178947,444.1443521689562L612.7385727994765,408.1909255152286L713.5473047704095,408.1153846678553L713.4758272543554,458.8889674704287L612.6639788235088,458.83732713485006Z" stroke="#FFFFFF" stroke-dasharray="1, 0" stroke-width="1"></path><text x="654.1203759756444" y="433.5087876052681" title="LaMoure" class="hint " style="">LaMoure</text></a><a id="s17" rel="nofollow " title="McIntosh" class="hint   "><path d="M527.9976044199216,497.27179594030895L528.1110033483451,458.88678549118504L616.1070638408792,458.8741299998155L615.8420290161953,508.6068689243293L527.9470286713918,508.3574072827287Z" stroke="#FFFFFF" stroke-dasharray="1, 0" stroke-width="1"></path><text x="563.0440028423426" y="483.6763009397799" title="McIntosh" class="hint " style="">McIntosh</text></a><a id="s18" rel="nofollow " title="Towner" class="hint   "><path d="M563.5610364443487,87.54623347558754L563.5713910625482,53.43963387306485L616.4402865205734,53.33588278310435L616.4315777956244,96.40459444586031L619.3994529418419,96.41068940927653L619.3384306461376,149.19663767926158L566.8668966946093,149.12490642304874L566.8585526245206,96.3695483121628L563.5517875955757,96.36573894014873Z" stroke="#FFFFFF" stroke-dasharray="1, 0" stroke-width="1"></path><text x="582.7196807986855" y="101.1892255367712" title="Towner" class="hint " style="">Towner</text></a><a id="s19" rel="nofollow " title="Ward" class="hint   "><path d="M291.3124266416262,109.31854648333228L291.343591240749,96.07530684326684L299.49212860192347,96.07469732047139L299.53043089955645,82.82044131256316L312.6506265996327,82.83448460417458L312.6734471286677,96.07637350803907L330.69734223536125,96.0977067722979L330.7146335613247,135.70531786014817L409.3466367958972,135.87161732942604L409.33527679686176,149.0481804795645L413.9372827777702,149.05135849239105L413.8482123428562,201.64090295435744L418.32455461762083,201.65503184011686L418.2413149786721,227.75578785352627L327.7094614271259,227.92266589523115L327.7421339907223,201.5752183280083L322.6566745995383,201.57566925411538L322.66029371427567,149.0515098263022L317.5018488425644,148.95102345498344L317.5095897268625,122.4158176660103L291.3142361989944,122.53639245785507Z" stroke="#FFFFFF" stroke-dasharray="1, 0" stroke-width="1"></path><text x="351.8092457941764" y="171.41520553790969" title="Ward" class="hint " style="">Ward</text></a><a id="s20" rel="nofollow " title="Eddy" class="hint   "><path d="M586.5246210430983,239.90021059461378L586.5423144929241,228.03920875737276L664.120853746153,228.11934968547394L664.1548332122943,254.10716613217392L666.6678057422714,254.11970697296056L666.6774567149027,266.82708902405466L589.6947644907245,266.76895834693823L589.7084367019525,254.0366981752386L586.5308539629223,254.03147277169046Z" stroke="#FFFFFF" stroke-dasharray="1, 0" stroke-width="1"></path><text x="617.262954971086" y="247.4039603358464" title="Eddy" class="hint " style="">Eddy</text></a><a id="s21" rel="nofollow " title="Billings" class="hint   "><path d="M147.25145338764696,335.41955024513845L147.27035320905043,305.1695986366358L211.0224667336779,305.26778799100066L211.01120726560794,356.7311422134071L191.07491161333837,356.77299032904375L191.01680471561804,408.25636438806487L153.05219059419915,408.2515333488145L153.01851272095382,356.8310468537593L147.2439135652794,356.8476975039848Z" stroke="#FFFFFF" stroke-dasharray="1, 0" stroke-width="1"></path><text x="167.47801857248908" y="350.2166152168524" title="Billings" class="hint " style="">Billings</text></a><a id="s22" rel="nofollow " title="Oliver" class="hint   "><path d="M338.4894973259129,319.3233104077226L389.4272303457351,318.21222186400973L389.5190151167021,314.7245375276261L395.520613191155,317.31645503273467L397.2021946412856,312.40205972513104L409.2841065357211,310.5164574244682L417.60756777584857,316.93199471558546L416.33182983107736,326.1976334943847L420.7253345907516,332.8071469625247L421.8011164463069,340.6315654555392L426.9959535273165,346.8959749072328L427.4483428694343,350.60079166621654L421.79428034069224,356.3981175954332L338.51352422652644,356.62416327354276Z" stroke="#FFFFFF" stroke-dasharray="1, 0" stroke-width="1"></path><text x="372.26498364528794" y="337.0177818181993" title="Oliver" class="hint " style="">Oliver</text></a><a id="s23" rel="nofollow " title="Stark" class="hint   "><path d="M191.00383622114396,368.9972690230079L191.07491161333837,356.77299032904375L262.00242275876417,356.6240159186291L262.0023222277987,352.3594419587016L300.27365632317196,352.3495638262402L300.2628995099258,356.6066280194882L305.10879361171783,356.6458244158466L305.1178413985599,408.0719044349571L191.01680471561804,408.25636438806487Z" stroke="#FFFFFF" stroke-dasharray="1, 0" stroke-width="1"></path><text x="239.95619972910887" y="381.66306627654603" title="Stark" class="hint " style="">Stark</text></a><a id="s24" rel="nofollow " title="Mountrail" class="hint   "><path d="M225.78202087861973,135.72047748661407L225.78101556897036,122.52864778626372L317.5095897268625,122.4158176660103L317.5018488425644,148.95102345498344L322.66029371427567,149.0515098263022L322.6566745995383,201.57566925411538L327.7421339907223,201.5752183280083L327.7094614271259,227.92266589523115L276.0664031574602,227.89854819516495L276.047000681232,241.33025351368997L273.97596227302074,242.31701231621264L252.1801453627213,234.22306012788704L249.01352049886782,227.2897387199282L249.6972315912535,219.82539801354415L259.37645342422366,205.65081911209109L254.7409706319977,202.8637077310441L253.66860682925062,198.0910306780188L248.31101011604324,198.61567591012044L247.702395654449,193.0451636199923L238.65320137860044,191.02071793654886L240.55464404900067,189.12265779832614L239.95055348082678,186.42627783317312L231.5400324250827,186.4562477940981L231.58185330648803,148.82617033983843L225.78352884309288,148.8750524670886Z" stroke="#FFFFFF" stroke-dasharray="1, 0" stroke-width="1"></path><text x="270.06164053840916" y="174.4941734806069" title="Mountrail" class="hint " style="">Mountrail</text></a><a id="s25" rel="nofollow " title="Williams" class="hint   "><path d="M108.9188959346402,114.52696613970875L108.98223044253609,109.21540991666916L225.77980919739184,109.31976342569851L225.78352884309288,148.8750524670886L231.58185330648803,148.82617033983843L231.5400324250827,186.4562477940981L227.6912044333185,184.44453887478812L222.3502958602853,186.74193551249118L217.5550693648097,184.27852993922352L205.36770048818016,186.30805348807098L204.082412101744,183.01707703478587L194.00046322332537,184.717496819414L188.84624065214166,191.20900830025676L191.45954308510272,193.34204382222833L190.48439272542873,195.91447866716408L176.80172627665434,201.2222854467036L170.95072358764446,199.7189840687215L164.38585051677364,204.27294026035452L161.21912512195377,199.77897138158187L155.51881834935102,198.4108745193089L159.28893059558823,192.15294977503163L153.20660615630868,188.60053058775793L155.41446720777003,186.32236098899284L154.21794766335324,184.8404151321638L150.58264744106555,188.34457300761005L145.63642343628953,186.74856177612855L139.68096907473182,191.01228916406671L142.81552456077816,196.33443599746442L139.55701439499262,198.9670736092885L135.11103247163283,196.33172860910327L134.18182476292486,205.0546848219974L131.72826603321073,208.08430814475832L128.0029905973256,202.69042867127973L128.24788402785816,205.78827804963476L125.31358622392372,210.66386468074597L121.82938404190463,211.67329043784957L117.04441170485006,207.23317703803878L113.20714477404954,210.00130131487822L109.33026864307158,205.6428569350055Z" stroke="#FFFFFF" stroke-dasharray="1, 0" stroke-width="1"></path><text x="157.018905619574" y="153.13589558587736" title="Williams" class="hint " style="">Williams</text></a><a id="s26" rel="nofollow " title="Slope" class="hint   "><path d="M109.1309157396463,444.16592090061295L109.23190351696394,421.2505836886867L133.78332001800118,421.27731638421847L133.78894975203684,408.28578974534594L221.53458761096635,408.2122993452067L221.88202262571212,459.07472444606265L109.19983694195935,459.26832121471307Z" stroke="#FFFFFF" stroke-dasharray="1, 0" stroke-width="1"></path><text x="159.01525443916492" y="434.84748008324016" title="Slope" class="hint " style="">Slope</text></a><a id="s27" rel="nofollow " title="Divide" class="hint   "><path d="M108.87201380823535,74.17816885609864L108.86621770902502,53.35263063936782L220.45147091638364,53.41687275425738L220.33535373049745,96.04803065081978L225.78875645326752,96.04513540681273L225.77980919739184,109.31976342569851L108.98223044253609,109.21540991666916Z" stroke="#FFFFFF" stroke-dasharray="1, 0" stroke-width="1"></path><text x="156.3187388994333" y="81.55942368351438" title="Divide" class="hint " style="">Divide</text></a><a id="s28" rel="nofollow " title="Adams" class="hint   "><path d="M214.72833969333487,470.092245765195L214.75367349649378,459.1919658526949L264.8185966789247,458.830781152923L264.8159828738367,470.04111371318686L315.03994604276386,470.12783464209406L314.9665327627672,507.9401776431041L214.73216959828096,507.85175483221155Z" stroke="#FFFFFF" stroke-dasharray="1, 0" stroke-width="1"></path><text x="252.69610268618953" y="485.86953621151366" title="Adams" class="hint " style="">Adams</text></a><a id="s29" rel="nofollow " title="Burleigh" class="hint   "><path d="M418.871845190617,330.76426260511835L440.55466529635214,330.65589507489676L440.55828441108815,305.41714617477555L504.50331685738684,305.4798846618778L504.36498624966316,356.5711153265793L508.3267105150294,356.6276997906398L507.72664118545254,407.72463960160985L449.34911410710447,407.5703273251602L451.55285338900467,402.0640679026228L450.3392435805513,400.9135911415715L441.808588021735,404.1194769735712L441.10869144399794,399.45459541733544L436.5939463406353,399.1838983979642L435.6719768614016,395.68129647168644L437.8530966761946,393.00576719086894L431.968114521042,390.76231217353416L433.6347168574016,382.28239771763856L425.0582191785843,369.1101121888132L424.6401108955024,361.4322130410501L421.5886945174407,358.402094376941L422.129048453859,355.739099956093L427.2039520937269,351.6406648921684L427.56204339075384,348.22664686510416L421.8011164463069,340.6315654555392L420.9163434240904,333.2800980075299Z" stroke="#FFFFFF" stroke-dasharray="1, 0" stroke-width="1"></path><text x="459.8051201740799" y="356.9882282758896" title="Burleigh" class="hint " style="">Burleigh</text></a><a id="s30" rel="nofollow " title="Griggs" class="hint   "><path d="M666.6674036184113,275.3719095754459L666.6678057422714,254.11970697296056L718.478549661414,254.13657735788365L718.3001071986896,305.6454050675866L720.9256744093714,305.65993984658235L720.8512814953342,318.3358648972935L669.9556709498115,318.34460127743387L669.9770840453389,305.5884522043352L666.7618021944659,305.58726568194834Z" stroke="#FFFFFF" stroke-dasharray="1, 0" stroke-width="1"></path><text x="684.105378481068" y="286.1378239229052" title="Griggs" class="hint " style="">Griggs</text></a><a id="s31" rel="nofollow " title="Emmons" class="hint   "><path d="M449.34911410710447,407.5703273251602L524.3836167621971,407.7935960135419L524.2083912903508,458.24060242021915L528.1110033483451,458.88678549118504L527.9470286713918,508.3574072827287L464.4228281212936,508.0705686202682L463.42395185001124,501.45131198092076L454.76632568250807,491.3344000258621L452.6540695786812,480.49690249377727L459.83348843807744,464.8801751681631L457.4207452801206,459.50018906538116L460.6780490743263,452.12239659610805L460.4769871444969,447.1415539020145L455.7218725040225,434.63238064259167L457.25004370169427,427.3335638730914L461.14491487539135,422.2975580762859L456.87516373352673,416.4983663896337L459.0524633716532,415.7650702965193L458.7737915369098,413.48665205613906Z" stroke="#FFFFFF" stroke-dasharray="1, 0" stroke-width="1"></path><text x="482.9455838060662" y="458.42881615120285" title="Emmons" class="hint " style="">Emmons</text></a><a id="s32" rel="nofollow " title="Mercer" class="hint   "><path d="M294.18359099959434,268.7231040629067L311.14336584266266,268.9914777090771L312.65133031638607,270.94342828953086L312.18878734681266,274.1754917855751L318.56265158434553,274.17757655597416L325.6832598292667,279.0539690643245L332.5363551765481,280.65078470840217L344.22921223676167,274.11979842742767L353.89164539858984,275.53255955969144L372.3276169304695,270.58856449426094L378.22777926132267,276.4818009970104L371.50306195623716,282.60012100861877L370.9702478421882,285.24745239595904L375.69540425511696,296.12481909183407L379.13366378617,299.86613844526164L380.60151640489175,310.7233726706945L389.1368969190612,314.1023142859458L389.4272303457351,318.21222186400973L338.5107093595093,318.2325083396281L338.51352422652644,356.62416327354276L300.2628995099258,356.6066280194882L300.3056251700159,305.35870845588033L294.15433648880344,305.3278579107073Z" stroke="#FFFFFF" stroke-dasharray="1, 0" stroke-width="1"></path><text x="322.6237648776462" y="308.09036934833154" title="Mercer" class="hint " style="">Mercer</text></a><a id="s33" rel="nofollow " title="Kidder" class="hint   "><path d="M504.31451970527723,350.15601665637496L504.50331685738684,305.4798846618778L568.0926707498161,305.50747163901633L568.0565801334119,356.7143439636211L571.5411844392911,356.68561003227023L571.2097338479671,407.9831864519856L507.72664118545254,407.72463960160985L508.3267105150294,356.6276997906398L504.36498624966316,356.5711153265793Z" stroke="#FFFFFF" stroke-dasharray="1, 0" stroke-width="1"></path><text x="528.9775006083372" y="356.62270328762327" title="Kidder" class="hint " style="">Kidder</text></a><a id="s34" rel="nofollow " title="Cavalier" class="hint   "><path d="M616.3519572714117,85.36628274385748L616.4402865205734,53.33588278310435L721.9574225446199,53.25484833276187L722.0205571482588,96.47102928560616L724.2690327095452,96.64686550916485L724.274762974545,123.02459472817827L619.3970401986821,122.85634687252332L619.3994529418419,96.41068940927653L616.4315777956244,96.40459444586031Z" stroke="#FFFFFF" stroke-dasharray="1, 0" stroke-width="1"></path><text x="661.2234837330639" y="88.06379944215398" title="Cavalier" class="hint " style="">Cavalier</text></a><a id="s35" rel="nofollow " title="Dickey" class="hint   "><path d="M615.8420290161953,508.6068689243293L616.1070638408792,458.8741299998155L716.2764188749538,458.9136965267244L716.1370170918553,509.16326530805327Z" stroke="#FFFFFF" stroke-dasharray="1, 0" stroke-width="1"></path><text x="657.176900866153" y="483.8950552115831" title="Dickey" class="hint " style="">Dickey</text></a><a id="s36" rel="nofollow " title="Sheridan" class="hint   "><path d="M448.17380659628543,261.4997747810694L448.31806853093804,253.86082409548726L457.068283717128,253.89590964911986L457.0627545140578,227.93899398507983L508.93220851671185,227.96580792973236L508.9012449795182,253.9350261226382L512.587212808121,253.93935579656863L512.5426775906644,305.4902668689747L448.20356376189875,305.4555605799387Z" stroke="#FFFFFF" stroke-dasharray="1, 0" stroke-width="1"></path><text x="472.13298776546725" y="268.5063268840085" title="Sheridan" class="hint " style="">Sheridan</text></a><a id="s37" rel="nofollow " title="Bottineau" class="hint   "><path d="M365.42131706118107,53.38889313355867L497.5218452444901,53.451738136228414L497.48896984238127,96.28574169052172L501.2629022652859,96.29092249006771L501.2263089940566,122.70768437547486L475.0349767047842,122.79181039096238L474.9955685665377,109.53576763887395L435.67499279034837,109.39688675451998L409.36453130765267,109.45271321710334L409.36091219291666,122.68855089323733L369.9914783677773,122.57587497602981L370.0038436764621,96.11675427949922L365.42646778195785,96.10761148194979Z" stroke="#FFFFFF" stroke-dasharray="1, 0" stroke-width="1"></path><text x="423.10298177031547" y="85.04380464217762" title="Bottineau" class="hint " style="">Bottineau</text></a><a id="s38" rel="nofollow " title="Bowman" class="hint   "><path d="M109.16132483459387,482.66367804450965L109.19983694195935,459.26832121471307L214.75367349649378,459.1919658526949L214.73216959828096,507.85175483221155L109.19726617648894,507.83115006950266Z" stroke="#FFFFFF" stroke-dasharray="1, 0" stroke-width="1"></path><text x="152.9789663087316" y="483.5350180956551" title="Bowman" class="hint " style="">Bowman</text></a><a id="s39" rel="nofollow " title="Burke" class="hint   "><path d="M220.3512376229528,89.43381235127163L220.45147091638364,53.41687275425738L312.7019979227025,53.48471742431684L312.6506265996327,82.83448460417458L299.53043089955645,82.82044131256316L299.49212860192347,96.07469732047139L291.343591240749,96.07530684326684L291.3142361989944,122.53639245785507L225.78101556897036,122.52864778626372L225.78875645326752,96.04513540681273L220.33535373049745,96.04803065081978Z" stroke="#FFFFFF" stroke-dasharray="1, 0" stroke-width="1"></path><text x="253.75289750252568" y="85.20246589452208" title="Burke" class="hint " style="">Burke</text></a><a id="s40" rel="nofollow " title="Pierce" class="hint   "><path d="M488.0603717049453,136.07975189340323L488.07665772126074,122.76812156999677L566.8397533340813,122.76493268467402L566.8668966946093,149.12490642304874L531.309697590008,149.0716372100269L531.1479432674596,201.83855470684284L534.776005260273,201.83449650863076L534.7725872074652,227.97239905280094L495.98482554532484,227.92101810444092L496.0288581079576,201.77347297553206L492.05446694101283,201.77212023166612L492.0303395094338,149.07950654876822L488.102695241173,149.0661892015778Z" stroke="#FFFFFF" stroke-dasharray="1, 0" stroke-width="1"></path><text x="509.74921758718904" y="167.28773603267086" title="Pierce" class="hint " style="">Pierce</text></a><a id="s41" rel="nofollow " title="Hettinger" class="hint   "><path d="M221.53458761096635,408.2122993452067L309.7019528677142,408.09430337260983L310.1098069923728,458.7711397365774L315.02174993811377,458.76168434909414L315.03994604276386,470.12783464209406L264.8159828738367,470.04111371318686L264.8185966789247,458.830781152923L221.88202262571212,459.07472444606265Z" stroke="#FFFFFF" stroke-dasharray="1, 0" stroke-width="1"></path><text x="259.50163881745635" y="436.9943395306088" title="Hettinger" class="hint " style="">Hettinger</text></a><a id="s42" rel="nofollow " title="Foster" class="hint   "><path d="M589.6485202468625,292.54661655000837L589.6947644907245,266.76895834693823L666.6774567149027,266.82708902405466L666.7618021944659,305.58726568194834L589.6511340519519,305.48997023467655Z" stroke="#FFFFFF" stroke-dasharray="1, 0" stroke-width="1"></path><text x="619.1984631062782" y="286.17392254750695" title="Foster" class="hint " style="">Foster</text></a><a id="s43" rel="nofollow " title="Rolette" class="hint   "><path d="M497.49490116931156,89.65632534142969L497.5218452444901,53.451738136228414L563.5713910625482,53.43963387306485L563.5517875955757,96.36573894014873L566.8585526245206,96.3695483121628L566.8397533340813,122.76493268467402L501.2263089940566,122.70768437547486L501.2629022652859,96.29092249006771L497.48896984238127,96.28574169052172Z" stroke="#FFFFFF" stroke-dasharray="1, 0" stroke-width="1"></path><text x="522.8725530324826" y="88.035184406871" title="Rolette" class="hint " style="">Rolette</text></a><a id="s44" rel="nofollow " title="Logan" class="hint   "><path d="M524.2208571300011,446.16602090715696L524.3836167621971,407.7935960135419L612.7385727994765,408.1909255152286L612.6639788235088,458.83732713485006L524.2579530560542,458.8344178102079Z" stroke="#FFFFFF" stroke-dasharray="1, 0" stroke-width="1"></path><text x="559.4367529808159" y="433.4179693292903" title="Logan" class="hint " style="">Logan</text></a><a id="s45" rel="nofollow " title="McHenry" class="hint   "><path d="M409.3357794516869,146.84989227783626L409.36453130765267,109.45271321710334L474.9955685665377,109.53576763887395L475.0349767047842,122.79181039096238L488.07665772126074,122.76812156999677L488.102695241173,149.0661892015778L492.0303395094338,149.07950654876822L492.05446694101283,201.77212023166612L496.0288581079576,201.77347297553206L495.98482554532484,227.92101810444092L418.2413149786721,227.75578785352627L418.32455461762083,201.65503184011686L413.8482123428562,201.64090295435744L413.9372827777702,149.05135849239105L409.33527679686176,149.0481804795645Z" stroke="#FFFFFF" stroke-dasharray="1, 0" stroke-width="1"></path><text x="442.904128782701" y="169.51488491165077" title="McHenry" class="hint " style="">McHenry</text></a><a id="s46" rel="nofollow " title="Ransom" class="hint   "><path d="M713.4416467262831,446.21308117285844L713.5473047704095,408.1153846678553L789.3390066532411,408.31726450904625L789.2766774549946,458.95806317068855L713.5901309614637,458.9094780460764Z" stroke="#FFFFFF" stroke-dasharray="1, 0" stroke-width="1"></path><text x="742.3847390600477" y="433.57294786965224" title="Ransom" class="hint " style="">Ransom</text></a><a id="s47" rel="nofollow " title="Dunn" class="hint   "><path d="M204.25693385683599,253.8206621401432L250.20973845039043,253.8960589490107L250.26000393284676,231.49844745311475L258.3327409464764,238.02424537081242L264.15368487697697,237.87478892546096L273.0711835887869,242.22729854822137L277.08257015082063,240.50758471672088L280.3902399584481,234.9419291837321L288.59396881936163,237.83005615765887L288.4230661790061,240.94143707377498L285.54767952051134,241.95830056690465L288.5336502404134,246.3681557394566L288.15153204277294,261.41773948103946L294.18359099959434,268.7231040629067L294.15433648880344,305.3278579107073L300.3056251700159,305.35870845588033L300.27365632317196,352.3495638262402L262.0023222277987,352.3594419587016L262.00242275876417,356.6240159186291L211.01120726560794,356.7311422134071L211.0224667336779,305.26778799100066L204.3242896033289,305.26452492044245Z" stroke="#FFFFFF" stroke-dasharray="1, 0" stroke-width="1"></path><text x="243.67988944117178" y="300.8707244958577" title="Dunn" class="hint " style="">Dunn</text></a><a id="s48" rel="nofollow " title="Nelson" class="hint   "><path d="M664.1033613582576,239.0136673544821L664.1115043664145,201.87973778327614L674.4611672044011,201.88499837946438L674.5173640137882,175.7319390072871L726.6593574623262,175.72092975476426L726.6427698531161,201.91776429816946L728.7961431215926,201.93189267907564L728.7734231235204,254.15464206584147L664.1548332122943,254.10716613217392Z" stroke="#FFFFFF" stroke-dasharray="1, 0" stroke-width="1"></path><text x="688.6379911721328" y="216.72909255995182" title="Nelson" class="hint " style="">Nelson</text></a><a id="s49" rel="nofollow " title="Sargent" class="hint   "><path d="M716.1394957007396,496.6440577508238L716.2764188749538,458.9136965267244L791.3944627618912,458.9388618993553L791.3893356826807,500.3870290833647L794.5041870996029,501.0114351786906L794.5321746938084,509.30121277812395L716.1370170918553,509.16326530805327Z" stroke="#FFFFFF" stroke-dasharray="1, 0" stroke-width="1"></path><text x="745.0806583594645" y="484.2339431382151" title="Sargent" class="hint " style="">Sargent</text></a><a id="s50" rel="nofollow " title="Richland" class="hint   "><path d="M789.2642116153443,446.20273668011214L789.3390066532411,408.31726450904625L839.758502548927,408.6541098489388L838.8933330648715,409.801999331542L840.0484338517422,409.5098463467384L843.4307981663023,417.8444185962271L842.1758701312706,418.9436104310271L843.8163344167524,422.17860239936L843.8123131781549,430.4702492048227L846.2123894345327,431.4659556556535L845.4404121549519,435.97711294634337L847.1789946621884,436.2541430146266L847.1713543088554,439.1679903293716L849.1362320181156,439.7909349418087L853.1335442450622,448.9837555178001L857.7188620857937,451.96326636868525L857.6531148347403,461.93500980567933L859.3177065518012,463.6361216175874L857.8310546426387,464.8755237752948L859.3192145162734,469.70729470812057L858.4305207864263,474.5235109287869L859.7128937748812,474.2305314589903L862.2682903720511,487.75778717692356L859.9125482712025,496.0301702125689L861.4622330953653,509.0199199667013L794.5321746938084,509.30121277812395L794.5041870996029,501.0114351786906L791.3893356826807,500.3870290833647L791.4125583355758,459.17523796592013L789.2766774549946,458.95806317068855Z" stroke="#FFFFFF" stroke-dasharray="1, 0" stroke-width="1"></path><text x="813.6566263295468" y="461.42879671710966" title="Richland" class="hint " style="">Richland</text></a><a id="s51" rel="nofollow " title="Steele" class="hint   "><path d="M718.299604543864,303.4863942673019L718.478549661414,254.13657735788365L769.9569382105478,254.17375179396004L769.8052369844913,305.86802153235203L772.0557231650764,305.8942723574246L772.0915121885869,318.55071779660557L720.8512814953342,318.3358648972935L720.9256744093714,305.65993984658235L718.3001071986896,305.6454050675866Z" stroke="#FFFFFF" stroke-dasharray="1, 0" stroke-width="1"></path><text x="735.605742546506" y="286.2679994037426" title="Steele" class="hint " style="">Steele</text></a><a id="s52" rel="nofollow " title="Renville" class="hint   "><path d="M312.64690695392983,80.6283034079006L312.7019979227025,53.48471742431684L365.42131706118107,53.38889313355867L365.42646778195785,96.10761148194979L370.0038436764621,96.11675427949922L369.9914783677773,122.57587497602981L409.36091219291666,122.68855089323733L409.3466367958972,135.87161732942604L330.7146335613247,135.70531786014817L330.69734223536125,96.0977067722979L312.6734471286677,96.07637350803907Z" stroke="#FFFFFF" stroke-dasharray="1, 0" stroke-width="1"></path><text x="340.200225434933" y="96.11904089097739" title="Renville" class="hint " style="">Renville</text></a><a id="s53" rel="nofollow " title="Stutsman" class="hint   "><path d="M568.0624109293772,316.0956247734657L568.0926707498161,305.50747163901633L669.9770840453389,305.5884522043352L669.9502422777064,356.8764308441732L672.7715432770779,356.86700042612483L672.8127609726935,408.05785016723803L571.2097338479671,407.9831864519856L571.5411844392911,356.68561003227023L568.0565801334119,356.7143439636211Z" stroke="#FFFFFF" stroke-dasharray="1, 0" stroke-width="1"></path><text x="611.5444974245099" y="356.73105614784987" title="Stutsman" class="hint " style="">Stutsman</text></a></g></g></svg>