<svg id="map" class="map svg-content-responsive" xmlns:xlink="http://www.w3.org/1999/xlink" preserveAspectRatio="xMinYMin meet" viewBox="0 0 960  540"><g><g id="states"><a id="s01" rel="nofollow " title="Jackson" class="hint   "><path d="M360.61093403157065,391.8851719219756L378.51278454685735,391.86004091322866L378.47890561168015,365.29938068470847L402.9730741512585,365.2425038984602L401.06087466761346,364.79836469976954L401.21820562770563,360.78322409362727L404.73136072762054,359.8585541172429L404.7203023214797,354.4707533797241L420.74523972180486,354.598954079966L424.20008686207075,352.79395372643467L426.350142608705,348.9415119359928L430.98411743645465,350.00021962491655L430.54298756240996,356.518708617893L428.88744363219166,357.4855487516493L430.4100856267928,360.71824541904107L428.12210139629315,361.53895289656793L429.56009631843654,367.039655704692L441.78878342164717,369.59956256940814L435.9351669275479,372.10308395936727L435.14811000322925,375.8869586601995L437.4468510469719,377.79302600300525L436.29104654334697,378.9264047534689L437.16345425687814,381.69017930449854L429.09916184430176,381.9839898811874L426.96891069775484,385.12439856682386L428.3159250966505,386.9755160125328L425.8473872531654,387.2381728024716L423.1916607530088,393.61064532499995L424.09955589715446,397.9734637712827L422.54293443641245,398.66108094371066L423.23629650143084,401.82425332736466L421.6298116820917,401.56538548774006L421.8175029935869,404.5632912748006L422.632306464222,406.4995616293286L424.5072089598848,405.921387139339L423.375732949768,407.9556949232533L426.01577661939837,410.08896783500586L425.58449877991325,412.2736610852635L422.47165798228843,412.6518132217393L421.1034315497973,408.2485043905035L417.88613907962736,406.7568423936723L419.24702675167873,404.49359671738785L413.38757946161604,403.8392731785161L408.36062909201246,397.76558454409815L405.812571255281,399.78933085465815L406.5467488920526,403.4596975369559L405.0079214121015,408.15045556718314L402.80257363476403,406.647084679576L401.6387266539432,408.50878595065524L395.2649629473758,403.7492242490771L388.2457904460557,402.6756432523989L385.1966862801869,408.00344146641055L375.6518743473089,407.55946307441354Z" stroke="#FFFFFF" stroke-dasharray="1, 0" stroke-width="1"></path><text x="394.8101690081798" y="381.9592737591935" title="McClain" class="hint McClain " style="">Jackson</text></a><a id="s02" rel="nofollow " title="Kingfisher" class="hint   "><path d="M524.8826524720353,187.55257859151516L578.6593799410534,187.58084549601062L578.8193247062336,242.0567239391844L525.2284789913429,242.15950580520757Z" stroke="#FFFFFF" stroke-dasharray="1, 0" stroke-width="1"></path><text x="542.8866267391088" y="214.82173481315698" title="Kingfisher" class="hint " style="">Kingfisher</text></a><a id="s03" rel="nofollow " title="Le Flore" class="hint   "><path d="M841.6048542505532,355.58201687087876L841.6589399096792,349.32901528317143L847.8619015068562,349.3217872508699L847.830736907732,338.6481663488498L854.9133444479148,338.641421200653L854.8864021493173,306.6553996282423L866.3119473738234,306.6898482635411L866.3777951558418,291.7904286837893L872.7519609862693,287.64647923212215L879.4639108588112,291.4321144833384L881.5076048445658,295.5823725232067L884.8880590707931,295.2489521908624L888.9640870432668,291.1519106984947L898.5215658777242,294.51568383708263L899.8025314326687,293.4952018183085L898.4302837615801,290.9938151112383L899.2921357237956,286.5261767562006L904.382420601295,284.0522628933318L901.8129496690367,391.81905039674484L853.9143682495555,391.8954194999469L853.8995901977132,370.64045914790813L841.6484846893263,370.6576964918936Z" stroke="#FFFFFF" stroke-dasharray="1, 0" stroke-width="1"></path><text x="868.4016502719213" y="343.74693776400517" title="Le Flore" class="hint " style="">Le Flore</text></a><a id="s04" rel="nofollow " title="Wagoner" class="hint   "><path d="M765.2294695854252,224.3705842395775L765.2611368393746,220.3463495056676L771.071726080489,220.31482611470165L771.0723292662783,187.81905628979348L785.4582098146325,187.84919022587155L786.8510663335283,191.46558331104188L790.5558334525713,191.97367336271464L792.0896343842774,196.6888627907215L789.3435305466619,197.74564815759368L790.1857789707196,198.70455562018606L826.7367266635028,198.77595059953865L826.7249645406096,203.03258768535352L824.9879905288094,203.11178363376484L824.0735608719438,209.14495510936604L819.623658240952,212.52358376207894L820.6381162079078,216.5310360602739L819.3357375574356,219.97575710386263L824.7711452374888,225.1765483939448L820.9327724660734,231.2405601802311L811.2176610786291,230.0865777536028L804.7204453471468,233.09584759649215L791.0336571288108,234.38369519356593L788.3134902801448,237.16926238915767L783.4715168859848,234.422361480983L782.2543884937604,225.8476178986989L765.2099665782325,225.95379401582022Z" stroke="#FFFFFF" stroke-dasharray="1, 0" stroke-width="1"></path><text x="786.2053066876585" y="212.90486948331167" title="Wagoner" class="hint " style="">Wagoner</text></a><a id="s05" rel="nofollow " title="Bryan" class="hint   "><path d="M683.8017002165725,471.6082706963466L688.0494350771191,467.5662215999241L688.7434003279272,462.83494905483576L687.1478733837639,460.12621857184195L689.2122767482906,458.08199205078336L686.1093885161936,455.7295453135398L684.298725307111,452.36056007635216L688.9087737652126,452.4313850980134L689.0195588885495,447.6486315413181L692.0685625234514,445.7340822781016L688.264470811072,439.65085667386074L701.485901192817,439.657292255823L701.4796682729934,434.44169077713605L751.6772923291123,435.41694809124647L753.3239895344177,438.29905221579384L753.5503852674055,460.5169109533772L759.3157355743087,463.7496135691872L763.2182471013398,468.78499594137384L771.092532377163,468.9062458130834L772.1138300627977,470.63800829280626L770.1770004927466,472.2857661426542L765.445812221923,470.6208175453494L763.4454470820483,473.4512159270648L754.1920744164572,467.47551918262434L752.711957020017,470.5254204836697L748.6938348833341,471.3906202519488L746.7683653123186,469.00802880031006L747.5272735664612,471.02394515497645L745.1404673974525,472.8550119948268L744.7073800005992,470.8576115235628L742.2014446381663,473.35100378316474L737.0481268456651,471.95870491703454L737.1220171048767,474.07691472741044L732.2251538038736,473.1899119375162L731.9542228534274,475.70851563917813L729.1193501737939,476.4870143395965L729.9830116933776,477.8385397203924L731.3922547595525,476.148712182101L729.2103306970412,482.53913387684725L724.0868706011202,484.05019094364934L717.5840251356017,481.4639570697277L715.2499977231723,489.97573369751217L712.0952355131799,491.5003271128294L704.6220651743024,480.66188548226864L696.8183490227843,481.0801024492521L694.1656384515759,475.23611237563455L689.5128643333865,475.4530769004359Z" stroke="#FFFFFF" stroke-dasharray="1, 0" stroke-width="1"></path><text x="712.072357903388" y="458.24365504722266" title="Bryan" class="hint " style="">Bryan</text></a><a id="s06" rel="nofollow " title="Cleveland" class="hint   "><path d="M579.0877423825559,288.73682862540545L579.0864354800119,285.1584182330207L632.292951316032,285.1942974804133L632.2693265392782,340.3626363125777L626.858448414665,340.35356256798104L624.6745137328548,338.38816827201936L623.4207920694002,339.90513772297163L619.0493035910436,336.0924123732498L615.2918582463835,337.2837147198934L612.247579566832,335.9688827271716L610.9725453388169,322.13978403419515L606.1587206148329,320.94643711598246L605.6554626044681,314.5836978694051L590.8062348388235,303.98305383647767L590.2121973671406,295.6426013091909L584.4718792705007,294.02442668553977Z" stroke="#FFFFFF" stroke-dasharray="1, 0" stroke-width="1"></path><text x="604.7586989412704" y="306.60720464072983" title="Cleveland" class="hint " style="">Cleveland</text></a><a id="s07" rel="nofollow " title="Harmon" class="hint   "><path d="M344.9483501025952,327.82214237969265L356.1889790088244,327.83724276094654L356.20365652970213,338.4287627542035L372.0204948326532,338.41502687525053L373.1289492518058,359.9289230585573L378.449148446065,361.72873277509643L378.51278454685735,391.86004091322866L360.6035747971864,391.90079502479057L352.09103528600053,383.3664705956294L344.94861182169234,385.344865862618Z" stroke="#FFFFFF" stroke-dasharray="1, 0" stroke-width="1"></path><text x="351.4080953280589" y="362.8948372547643" title="Harmon" class="hint " style="">Harmon</text></a><a id="s08" rel="nofollow " title="Jefferson" class="hint   "><path d="M532.0450815983604,431.55971794472316L532.0523198278347,418.34078966864035L590.0236012769615,418.4129450002124L590.1948055102107,453.178656415706L592.6129773402731,455.49470756777055L590.189175776175,455.4841597478776L590.1922192474703,465.7086854191384L586.6343003258203,463.9910472512188L587.2241154969761,459.1037317738301L579.045921501151,454.5862218414795L573.6658058518019,460.68631948991606L569.8980058177585,461.49200198608605L569.7972737909131,463.93386928786913L567.6528477783131,463.6220499912188L567.930313241478,466.59073527350256L566.3801257624914,465.74536038631413L562.703507313624,470.7844916714571L558.9724010817736,471.8340267452313L549.2882532315243,467.78673777379754L547.6030526666564,465.57373356745666L550.3560931408501,463.9080664168082L550.7340895689294,461.2437242238316L548.6452571799286,460.46977174566155L551.5046594150026,454.7718538229633L548.6452571799286,452.72535224160447L543.2669510879477,454.34529539936193L537.181711250686,452.87512187902666L535.3663230862526,449.3973576248404L537.6204283815746,448.4795985946007L533.8806764867409,443.6805631911502L537.0256871931374,437.98086898650627L535.0445234675603,434.8349390916619L532.0771706435835,436.32975244559566Z" stroke="#FFFFFF" stroke-dasharray="1, 0" stroke-width="1"></path><text x="553.5893443214331" y="440.04398850100625" title="Jefferson" class="hint " style="">Jefferson</text></a><a id="s09" rel="nofollow " title="Kiowa" class="hint   "><path d="M404.3737720854192,317.24497827826326L470.7540666258142,317.25001721264107L472.07212810681267,319.143493840455L472.4832997533149,317.55591265021167L477.1908632473833,318.4020231167174L481.8178009075905,316.4244584550711L483.61368606482984,319.59714757084384L483.7381433993942,349.33710087248437L462.99780108973846,349.2742536211831L463.0094626816672,381.2052389152291L445.40659125603815,381.21097871290795L445.4148347951618,375.8964892777012L435.14811000322925,375.8869586601995L436.08837611807894,371.80617537979333L441.16126913864855,371.0834862463321L441.70524218980245,369.41751081410575L429.56009631843654,367.039655704692L428.12210139629315,361.53895289656793L430.4100856267928,360.71824541904107L428.88744363219166,357.4855487516493L430.54298756240996,356.518708617893L430.98411743645465,350.00021962491655L426.350142608705,348.9415119359928L421.5255610714735,354.0991213230104L413.6214144860078,347.31109038832074L416.4122546030094,343.52813807718394L410.5238543950518,333.6030031374962L412.9873656902896,326.8266632043383L408.3288613070981,325.0878990843694L408.44628147412004,320.71472903297126L405.5386243758867,320.02166136889855Z" stroke="#FFFFFF" stroke-dasharray="1, 0" stroke-width="1"></path><text x="438.4616698281508" y="341.7560084191261" title="Kiowa" class="hint " style="">Kiowa</text></a><a id="s10" rel="nofollow " title="Marshall" class="hint   "><path d="M649.6357491354279,451.6534959112355L649.7550793907831,432.58652654784373L682.9120011770751,433.1350067885869L688.5765189261688,438.3311128798323L692.0685625234514,445.7340822781016L689.0195588885495,447.6486315413181L688.9087737652126,452.4313850980134L684.298725307111,452.36056007635216L689.2122767482906,458.08199205078336L687.1478733837639,460.12621857184195L688.7434003279272,462.83494905483576L687.9463993079671,466.27886803439515L683.9477717085933,466.32780445212757L680.0378208901593,463.60690701167323L676.7819245294618,473.0386212931694L671.3063044634432,474.78026634426305L667.2614410900933,469.42671700989604L663.4532276081527,468.7064126418263L661.5998387389809,472.05069949752396L659.1179302771629,470.4414025454703L656.1048161967356,459.9381380546938L653.135365587756,459.07285234894107L653.1353325550795,451.9702860653979Z" stroke="#FFFFFF" stroke-dasharray="1, 0" stroke-width="1"></path><text x="660.9166520226454" y="450.512143535842" title="Marshall" class="hint " style="">Marshall</text></a><a id="s11" rel="nofollow " title="Pottawatomie" class="hint   "><path d="M632.3007927312956,338.6231479582707L632.35568263814,274.447299324484L684.292492387287,274.6041770565216L683.7579692468344,283.2417111604491L674.8479098264293,280.86479700869995L674.2452266917644,279.25618480152843L672.4379815354896,281.49904170374157L669.0288759842606,280.9981373021942L669.1308143826845,343.8220795496404L666.8284542242054,343.088925963606L665.3336593068861,338.34254527471785L658.1006574431894,340.59867341490053L653.790794446325,335.82020352320615L644.9783505928522,342.9162023579838L637.9806917180217,339.97233528146626L632.9272011736807,340.8257542732654Z" stroke="#FFFFFF" stroke-dasharray="1, 0" stroke-width="1"></path><text x="642.7633614298245" y="306.12749202891524" title="Pottawatomie" class="hint " style="">Pottawatomie</text></a><a id="s12" rel="nofollow " title="Sequoyah" class="hint   "><path d="M834.3155550465067,263.60042996681386L834.8276597817821,252.8338273278746L900.6570446344458,252.87563755058773L904.8778371963963,283.2684716437766L899.2921357237956,286.5261767562006L898.4302837615801,290.9938151112383L899.8025314326687,293.4952018183085L898.5215658777242,294.51568383708263L888.9640870432668,291.1519106984947L884.8880590707931,295.2489521908624L881.5076048445658,295.5823725232067L879.4639108588112,291.4321144833384L872.7519609862693,287.64647923212215L866.0128677532007,291.72598729357287L864.234474983858,286.2412733882038L856.2417606182998,288.810533217159L858.4687225530938,284.8470894338998L857.510662457455,282.59487480731923L847.6184155098326,280.85764271482776L844.8537134437083,275.5805648704768L839.1936190570709,274.88929074222006L834.327719293261,266.7646621326039Z" stroke="#FFFFFF" stroke-dasharray="1, 0" stroke-width="1"></path><text x="863.2087124357324" y="270.4248360652374" title="Sequoyah" class="hint " style="">Sequoyah</text></a><a id="s13" rel="nofollow " title="Tulsa" class="hint   "><path d="M717.1638057022574,187.87770531112847L747.0047136108346,188.0003565840443L746.9930520189027,155.27284212742825L767.7829560942646,155.28608552028618L767.7950198100534,158.91983933347365L765.9915948304451,158.9386978274324L765.6687899021049,187.83399874906172L771.0723292662783,187.81905628979348L771.071726080489,220.31482611470165L765.2611368393746,220.3463495056676L765.2099665782325,225.95379401582022L743.7813892827676,225.83918329818653L744.1367662437424,198.6941075307218L717.1740598606784,198.64273759518483Z" stroke="#FFFFFF" stroke-dasharray="1, 0" stroke-width="1"></path><text x="743.9536048386243" y="193.00801336556444" title="Tulsa" class="hint " style="">Tulsa</text></a><a id="s14" rel="nofollow " title="McCurtain" class="hint   "><path d="M831.9065315342523,434.4882204804353L832.4338164452311,423.9617833258885L842.958503693133,423.94913566399737L842.9423182077817,391.8468654080957L901.8129496690367,391.81905039674484L899.1624507790557,498.4377963457514L897.4432707480464,499.4346770840066L896.2194067811733,498.05541404771793L895.155085455619,500.0200600429034L895.2974373019388,496.97568468664076L890.9180068773517,498.5714517618335L893.4995415254007,495.0373966423099L889.0508452659888,496.6434841553014L891.8398758256212,494.0404565336321L889.719275651707,493.95735374218066L889.0278236750228,491.5753548185103L888.058202518418,494.2785278571073L885.604342195812,491.9776680524278L884.1043196683167,494.1512189593018L880.7850887997229,494.09589828795833L883.3049979662783,492.9519747236759L883.3983912326839,489.65321810006253L882.6982935930178,491.2429815886617L876.4517015570677,491.3814415223892L877.6272101298164,489.44210935879846L874.9995317688717,487.97353408300523L876.1750403416218,490.10708131503634L874.1963898901668,490.86649655288556L872.3948749988917,489.22048285519804L874.2849576702556,486.6987553681188L872.4870618937189,488.1120376310755L872.832787882061,485.86735136143125L868.9339960007333,485.46359231488714L871.989031493531,483.7977387037945L871.3228127890407,482.5802474105735L867.7399897304385,485.8199648862187L866.1329017253101,485.11482371932925L865.5580656679272,481.543411023044L865.5311233693292,485.8523617855403L860.7811358080667,484.3101329475244L860.8438671301737,481.4137689466156L859.9308449068158,482.736598271566L855.4876778504745,478.78006306908446L856.2105960191757,474.80095955115803L852.8820157708451,476.75283270571435L853.2884624619956,474.21850862485644L851.2205405136974,473.2840741173609L850.7687543573693,470.39164520250233L848.7991516927568,471.5920499647109L842.9602127195371,470.1920081020594L840.7323460060579,463.52683056649903L838.6334605205652,467.97721830232695L837.5717530000989,466.1311166794558L839.3592940872509,463.02321907752184L834.9304024279259,464.8013170172644L835.4589942414486,461.8662854761037L831.9703214030951,461.1894689652363Z" stroke="#FFFFFF" stroke-dasharray="1, 0" stroke-width="1"></path><text x="861.5843087378819" y="439.3656161896731" title="McCurtain" class="hint " style="">McCurtain</text></a><a id="s15" rel="nofollow " title="Osage" class="hint   "><path d="M640.0970695914098,123.06346782478522L643.3099386991234,120.44345292205526L653.4216447431572,122.43216175533962L657.7808684437955,114.19281002153593L663.6315695399121,115.14896939148457L664.4155100043181,112.21444673332326L671.4723816174828,110.39056904550489L671.7288361089809,83.12708516640168L747.0293436972374,83.1431973743488L747.0047136108346,188.0003565840443L720.1396227947025,187.91493667260556L722.6770243491533,183.14953785247144L721.5799299290375,180.21760049192608L712.9306478316221,179.43845970700977L704.1032248643764,173.1852560141865L701.1850120148265,166.69954333018723L698.1753159872055,166.98942812306905L695.3143052566934,170.9216733632211L690.7554270597338,170.21788358228423L689.5609181346153,166.64188979249366L694.5186026693923,162.5753296171447L694.1713687165757,158.9531851224151L692.751167775225,158.18145678421797L688.1529819709817,161.4957452303952L684.038551169911,155.45512459763222L678.9046358536384,155.62665939391627L675.656480377239,153.527304659337L676.1090707812864,147.45783560189238L671.3552630433569,137.90155325203568L664.6137570671299,140.81538727799352L659.1139090385668,149.37036100143678L652.5880419820828,151.29413299259022L648.3932869400446,149.9774091766585L645.879108038489,147.0783362693428L646.0753444820025,143.00381477595693L656.5059347467459,139.26071752731013L657.8375679080068,136.36381526121158L654.5728248223973,133.13646124257593L646.148229431566,135.39873940644293L640.962038013537,134.1633667825581L642.1653936635685,133.22774893778342Z" stroke="#FFFFFF" stroke-dasharray="1, 0" stroke-width="1"></path><text x="698.0905310266255" y="129.46611320153826" title="Osage" class="hint " style="">Osage</text></a><a id="s16" rel="nofollow " title="Seminole" class="hint   "><path d="M668.9873566957517,294.1562357704652L669.0288759842606,280.9981373021942L672.4379815354896,281.49904170374157L674.2452266917644,279.25618480152843L681.5218589942324,283.3707034263034L686.8206450929661,282.71635252666374L687.8877812855376,280.9131500322801L693.1539953516381,283.47885339613686L693.1092590722506,280.99147649741326L689.848135101377,277.4601280730435L691.4527098323829,275.64054460938223L697.1876997878817,278.77638800452223L699.2827650967088,274.51592592298175L702.7474642715351,273.9862792112094L702.7363053344293,317.33383521257065L697.8069705317594,317.3231429261068L697.7715836321072,342.51938040623236L695.1628050925674,347.275310538706L692.4458552347774,346.2562666771046L690.4023623109533,341.69810418530005L683.0935600997118,343.96598271248877L678.5878627831912,339.7882766661778L675.583796489605,341.8209504802512L678.1160709648466,345.22081937970916L675.4930170282873,348.7578622434785L673.3520090684951,348.7574946957102L671.157920759229,343.84034335292654L669.1308143826845,343.8220795496404Z" stroke="#FFFFFF" stroke-dasharray="1, 0" stroke-width="1"></path><text x="676.2419183021077" y="310.79643273716704" title="Seminole" class="hint " style="">Seminole</text></a><a id="s17" rel="nofollow " title="Greer" class="hint   "><path d="M356.1889790088244,327.83724276094654L366.807260585063,327.8557811752207L366.8295784592751,317.2097056666262L404.4971235793687,317.48278863657697L405.5386243758867,320.02166136889855L408.44628147412004,320.71472903297126L408.3288613070981,325.0878990843694L412.9873656902896,326.8266632043383L410.5238543950518,333.6030031374962L416.4122546030094,343.52813807718394L413.6214144860078,347.31109038832074L419.77390953879785,351.61697830246476L420.74523972180486,354.598954079966L404.7203023214797,354.4707533797241L404.73136072762054,359.8585541172429L401.21820562770563,360.78322409362727L401.06087466761346,364.79836469976954L402.9730741512585,365.2425038984602L378.47890561168015,365.29938068470847L378.449148446065,361.72873277509643L376.6831209854058,361.7284880580146L376.67035355286225,359.9377344392806L373.1289492518058,359.9289230585573L372.0204948326532,338.41502687525053L356.20365652970213,338.4287627542035Z" stroke="#FFFFFF" stroke-dasharray="1, 0" stroke-width="1"></path><text x="380.16558995283924" y="339.49660243984033" title="Greer" class="hint " style="">Greer</text></a><a id="s18" rel="nofollow " title="Pawnee" class="hint   "><path d="M643.3509553328099,144.86356414865668L645.596113372254,144.86631573264185L648.3932869400446,149.9774091766585L653.0865750370963,151.24251238797024L659.1139090385668,149.37036100143678L664.6137570671299,140.81538727799352L671.3552630433569,137.90155325203568L676.1090707812864,147.45783560189238L675.656480377239,153.527304659337L678.9046358536384,155.62665939391627L684.038551169911,155.45512459763222L688.1529819709817,161.4957452303952L692.751167775225,158.18145678421797L694.1713687165757,158.9531851224151L694.5186026693923,162.5753296171447L689.5609181346153,166.64188979249366L690.4207594775312,169.95304485711995L695.3143052566934,170.9216733632211L698.1753159872055,166.98942812306905L700.7403635570099,166.5073635415788L704.1032248643764,173.1852560141865L713.2720509884721,179.58601770128598L721.2946230506091,179.97396991133655L722.5845358614315,183.5576540377433L720.1396227947025,187.91493667260556L664.7754108587128,188.30019198918671L664.7791305044152,177.38762092187744L654.1126945959827,177.38811953731374L654.1260652143155,166.55341216168517L643.3521617043884,166.55216423447473Z" stroke="#FFFFFF" stroke-dasharray="1, 0" stroke-width="1"></path><text x="667.8158135804133" y="168.7088970986528" title="Pawnee" class="hint " style="">Pawnee</text></a><a id="s19" rel="nofollow " title="Choctaw" class="hint   "><path d="M747.9576466272624,434.5042567783621L831.9065315342523,434.4882204804353L831.9703214030951,461.1894689652363L824.8822319537189,458.1522929262924L822.4918066699743,460.9950769631919L822.2381670454924,466.35723462798296L819.6361240806018,464.4244749882346L818.5579294818895,468.9161282216178L814.8248126307403,467.345942919394L811.1975548856472,469.7057927030787L803.3148213957074,469.72419569437716L800.9741589395926,468.88355720114123L801.2293065285476,467.2335614423864L797.1446328930915,468.71767345948774L796.296654204034,465.9160154184033L792.8325582149982,468.0453932516393L791.8995303296224,462.25824473027933L787.9437373911878,460.44565674634805L784.4022325591673,464.9478831689912L780.7417995956512,464.5714098871481L777.4829878369696,467.3410989154231L772.6551893088649,466.1042292668126L770.6759356716198,469.1688225769435L763.5068715016096,468.8833150370383L759.3157355743087,463.7496135691872L753.5503852674055,460.5169109533772L753.3239895344177,438.29905221579384L751.6772923291123,435.41694809124647Z" stroke="#FFFFFF" stroke-dasharray="1, 0" stroke-width="1"></path><text x="783.2344892162489" y="450.2420359816574" title="Choctaw" class="hint " style="">Choctaw</text></a><a id="s20" rel="nofollow " title="Tillman" class="hint   "><path d="M421.58547752656295,401.87239422005814L423.23629650143084,401.82425332736466L423.1916607530088,393.61064532499995L425.8473872531654,387.2381728024716L428.3159250966505,386.9755160125328L426.96891069775484,385.12439856682386L429.09916184430176,381.9839898811874L437.16345425687814,381.69017930449854L436.29104654334697,378.9264047534689L437.4468510469719,377.79302600300525L435.14811000322925,375.8869586601995L445.4148347951618,375.8964892777012L445.40659125603815,381.21097871290795L463.0094626816672,381.2052389152291L463.00322976184225,391.8296640284766L479.499154732795,391.81868440924745L479.4969430515671,413.02739476987335L484.7591358790705,412.9922112177019L484.7090724638124,434.47197520282134L480.8974399237959,433.5799419609548L476.6226622336849,437.40264895167365L469.9431838628111,438.41539308733627L464.321793897665,434.30853933740855L458.7763048110319,435.3786830156473L458.29315299365044,433.3195685323567L450.2917929651112,427.7209731592766L448.1184140346163,428.8252321138475L446.7952254744059,426.67872262319634L441.1476974583852,429.4764994683401L437.52214873969297,427.8585865574728L432.7939763978188,428.89354541443026L432.3876302376316,426.89938757028676L426.4661553422161,427.5189261102646L424.0569307680312,415.79774945121017L426.14083713975197,410.4181263785663L423.375732949768,407.9556949232533L424.38767764260183,405.72329453439943L422.51006081088553,406.4186727752549Z" stroke="#FFFFFF" stroke-dasharray="1, 0" stroke-width="1"></path><text x="444.1054534764757" y="408.1572913595072" title="Tillman" class="hint " style="">Tillman</text></a><a id="s21" rel="nofollow " title="Muskogee" class="hint   "><path d="M770.6047597484599,237.29427227466067L770.6183314287232,225.89140328216172L782.2543884937604,225.8476178986989L783.4715168859848,234.422361480983L788.3134902801448,237.16926238915767L791.0336571288108,234.38369519356593L804.7204453471468,233.09584759649215L811.2176610786291,230.0865777536028L834.857919602222,231.3039087574689L834.327719293261,266.7646621326039L838.91213235531,274.6300968208302L842.6219260225989,275.0746719583758L835.5711867982932,285.6620721166755L831.5753825358229,286.02379946899964L833.4371154750811,287.81954288589895L829.5946209341046,289.035341177032L830.3742385670193,293.9822966851616L827.616975792299,294.2238642411453L824.3849052702844,298.862525796465L821.8073918608329,298.8823492430538L817.3872463954567,294.4942503541838L812.9937416357811,295.516600795283L812.9555398691136,263.54692633490185L775.9674835408791,263.60117135460223L775.9550177012288,242.07690889617425L770.6083788631959,242.08396742966806Z" stroke="#FFFFFF" stroke-dasharray="1, 0" stroke-width="1"></path><text x="800.5252594906225" y="255.59128954263375" title="Muskogee" class="hint " style="">Muskogee</text></a><a id="s22" rel="nofollow " title="Ellis" class="hint   "><path d="M344.61917184966705,145.62922476300673L344.6692362701956,134.06470043752552L384.63984526552395,134.1269304704424L385.59348199870556,187.65580843224916L407.1076111453126,187.62592294528122L407.2133697204031,206.45756916224082L400.6285915184799,207.19553666699358L396.4482124044239,209.98447234660125L393.85531775733944,217.04751089773526L390.15849258452636,220.61950662177014L389.37274256274986,224.70243064561873L383.1327855704849,227.68333580517537L373.4270235627778,225.4738837309983L367.61130724245277,222.0540462968279L364.06578117183517,216.89381281268425L364.14369266964377,208.05833388019346L362.0305317871321,207.27755724154713L355.706329846269,209.89092011528282L353.8892326554319,212.79410198706182L354.1963547532464,216.9915193861134L344.9470839190126,222.84642798380992Z" stroke="#FFFFFF" stroke-dasharray="1, 0" stroke-width="1"></path><text x="360.67264863088985" y="180.74663335845145" title="Ellis" class="hint " style="">Ellis</text></a><a id="s23" rel="nofollow " title="Delaware" class="hint   "><path d="M846.4977968439262,177.01489874518393L847.7017556797464,124.37082692596778L886.0426145485985,124.71045899809906L886.0527102993315,145.8069364152234L891.5910927061655,187.9257081890537L846.5054371972592,187.93548234640048Z" stroke="#FFFFFF" stroke-dasharray="1, 0" stroke-width="1"></path><text x="858.4665083387989" y="157.2030747690775" title="Delaware" class="hint " style="">Delaware</text></a><a id="s24" rel="nofollow " title="Woods" class="hint   "><path d="M399.65535124713824,83.06628651244682L491.2936400679728,83.12605519937142L492.410547618741,158.532420310793L483.18069919894197,159.15650453321268L475.7281377078716,156.2314421516753L472.9819333392934,152.56806241526283L464.8379198715388,150.64179332296317L461.2362975224978,144.952239802657L449.5055402885123,144.86894224389516L449.5418319668456,133.34583311304732L443.2519110850171,127.90432219512786L439.76398925729563,119.27262842551863L437.024017808541,117.98263820276134L431.458120936029,110.27145022361674L420.2433891449491,110.01550921952594L416.0906560462481,107.56885149974778L413.9222031330328,101.08506599540306L407.89738240568477,98.1438583851509Z" stroke="#FFFFFF" stroke-dasharray="1, 0" stroke-width="1"></path><text x="449.9886187608357" y="112.18866777181329" title="Woods" class="hint " style="">Woods</text></a><a id="s25" rel="nofollow " title="Rogers" class="hint   "><path d="M765.677837688947,184.7117729809138L765.9915948304451,158.9386978274324L767.7950198100534,158.91983933347365L767.7829560942646,155.28608552028618L765.9422341266727,155.28858427162913L765.9654567795674,133.53053240166446L814.6303857445951,133.516257463908L814.6504919375784,144.45294400923922L803.8494450671246,144.46295018980982L803.4111300600953,198.71475493485605L790.1857789707196,198.70455562018606L789.3435305466619,197.74564815759368L792.0896343842774,196.6888627907215L790.5558334525713,191.97367336271464L786.8510663335283,191.46558331104188L785.4582098146325,187.84919022587155L765.6687899021049,187.83399874906172Z" stroke="#FFFFFF" stroke-dasharray="1, 0" stroke-width="1"></path><text x="777.8472435751816" y="161.7165784825307" title="Rogers" class="hint " style="">Rogers</text></a><a id="s26" rel="nofollow " title="Adair" class="hint   "><path d="M866.9683140437528,247.4757071822869L868.0214764321995,187.9884028221786L891.5910927061655,187.9257081890537L900.6570446344458,252.87563755058773L867.0143572256829,252.86970001494183Z" stroke="#FFFFFF" stroke-dasharray="1, 0" stroke-width="1"></path><text x="872.9090237347403" y="222.33494542587457" title="Adair" class="hint " style="">Adair</text></a><a id="s27" rel="nofollow " title="Atoka" class="hint   "><path d="M706.120479206359,432.902446972128L706.1614958400437,402.67893362800214L732.5241328935308,402.64407996578757L732.4994022761612,391.98435340358265L737.8746924391944,391.97788772761805L737.8576021751592,370.6797015692182L758.9630729493879,370.68960383840704L758.9747345413184,381.313317539149L780.087343014055,381.27374990534827L780.1150895603714,391.8993233364572L769.2853913649174,391.9289680460506L769.2903173821983,434.5205360248606L706.13033124092,434.44545689673987Z" stroke="#FFFFFF" stroke-dasharray="1, 0" stroke-width="1"></path><text x="734.2969487229645" y="408.0831952176291" title="Atoka" class="hint " style="">Atoka</text></a><a id="s28" rel="nofollow " title="Cotton" class="hint   "><path d="M479.5017685378816,404.1951962757107L495.2819130386406,402.4277652355363L495.28492896758735,398.8975910106442L516.2989165637428,398.9428198874025L516.3030383333048,397.1759403663982L521.5023993077375,397.15301719829495L521.5072247940534,391.86004091322866L532.0512139872199,391.8744363530245L532.0771706435835,436.32975244559566L529.0470471626682,439.68582733482117L509.29261202593125,434.48481883825707L504.21901528860735,443.3313513187277L497.1578208439514,445.94620733222837L489.6937988228815,438.544848081704L490.7043360822058,437.49713871980066L484.7090724638124,434.47197520282134L484.7591358790705,412.9922112177019L479.4969430515671,413.02739476987335Z" stroke="#FFFFFF" stroke-dasharray="1, 0" stroke-width="1"></path><text x="499.60468108876347" y="418.32214929228246" title="Cotton" class="hint " style="">Cotton</text></a><a id="s29" rel="nofollow " title="Canadian" class="hint   "><path d="M514.5454554736975,242.15158049460888L578.8193247062336,242.0567239391844L579.063715481941,290.23903736533794L572.4578257773842,291.73892489101627L569.2440518909862,289.0416268529666L561.9997905592195,290.4120559621656L559.8411896805692,287.04726622833005L555.9810016897668,289.20517628086736L551.7379917845692,285.15323977425624L550.057616706018,289.00588472126947L544.959490413255,287.17805823771596L544.1073899546363,285.00035072957644L515.2535955905582,285.1475681258521Z" stroke="#FFFFFF" stroke-dasharray="1, 0" stroke-width="1"></path><text x="538.7814196397084" y="264.6989781405799" title="Canadian" class="hint " style="">Canadian</text></a><a id="s30" rel="nofollow " title="Craig" class="hint   "><path d="M804.2265367165201,106.77580446533784L804.2394046800287,90.20025489833506L806.6407878389514,90.20855662570557L806.6681372183193,83.09521289265513L846.87569274104,83.0608737771222L844.2228816388674,83.72233771557421L843.848202732629,86.15884960118046L848.3067510266037,89.29897157264031L847.0656962647299,144.49672097288158L814.6504919375784,144.45294400923922L814.6303857445951,133.516257463908L804.2555901653814,133.52752715336464Z" stroke="#FFFFFF" stroke-dasharray="1, 0" stroke-width="1"></path><text x="817.7313269329428" y="112.86792013230531" title="Craig" class="hint " style="">Craig</text></a><a id="s31" rel="nofollow " title="Major" class="hint   "><path d="M449.4615077258795,170.13367987062747L449.5055402885123,144.86894224389516L461.2362975224978,144.952239802657L466.3809696520166,151.57685404353606L472.9819333392934,152.56806241526283L475.7281377078716,156.2314421516753L485.4474713958425,159.37468100740534L492.410547618741,158.532420310793L492.40381204409186,150.33104471417755L535.5506968759064,150.34666988211302L535.6032745705575,187.55419740323077L449.9564216661556,187.96511784818085Z" stroke="#FFFFFF" stroke-dasharray="1, 0" stroke-width="1"></path><text x="483.12884175515507" y="169.2739789058675" title="Major" class="hint " style="">Major</text></a><a id="s32" rel="nofollow " title="Noble" class="hint   "><path d="M600.1744138663457,134.0162433737787L646.148229431566,135.39873940644293L655.3505323669779,133.35109239586745L657.8375679080068,136.36381526121158L656.725393843154,139.07512652136575L643.3509553328099,144.86356414865668L643.3521617043884,166.55216423447473L654.1260652143155,166.55341216168517L654.1126945959827,177.38811953731374L632.4081598018261,177.39298103645478L632.4383190912995,188.25723440871025L600.2559444788917,187.60587471316103Z" stroke="#FFFFFF" stroke-dasharray="1, 0" stroke-width="1"></path><text x="614.4365594076781" y="159.81607801463025" title="Noble" class="hint " style="">Noble</text></a><a id="s33" rel="nofollow " title="Grant" class="hint   "><path d="M534.7908838430799,83.23470916592714L600.0996869959326,83.16519733595487L600.0883593603785,134.01749549734586L535.0597036432623,134.02237877771495Z" stroke="#FFFFFF" stroke-dasharray="1, 0" stroke-width="1"></path><text x="558.5165015539297" y="108.59172522953513" title="Grant" class="hint " style="">Grant</text></a><a id="s34" rel="nofollow " title="Okfuskee" class="hint   "><path d="M684.3803564506225,271.03042788304765L684.7164314663328,252.82009671320247L727.7522295819158,252.8099533639902L727.7239803807756,263.5888148842132L738.2846577141177,263.56200129045646L738.3112984198197,285.19220144546307L748.9899991059729,285.1982429567629L748.9830624693932,295.9104856730919L702.7396228562716,295.88302015911813L702.7474642715351,273.9862792112094L699.2827650967088,274.51592592298175L697.1876997878817,278.77638800452223L691.4527098323829,275.64054460938223L689.848135101377,277.4601280730435L693.3120300284836,283.40498598419026L688.2344120525622,280.9256082987172L685.6469460775857,283.05278256583597L684.409711492377,282.2517693148734Z" stroke="#FFFFFF" stroke-dasharray="1, 0" stroke-width="1"></path><text x="705.739087172899" y="274.21521385870705" title="Okfuskee" class="hint " style="">Okfuskee</text></a><a id="s35" rel="nofollow " title="Cherokee" class="hint   "><path d="M819.1996186309407,218.921490460119L820.6381162079078,216.5310360602739L819.623658240952,212.52358376207894L824.0735608719438,209.14495510936604L824.9879905288094,203.11178363376484L826.7249645406096,203.03258768535352L826.7367266635028,198.77595059953865L835.7411846599653,198.79634906935917L835.7288193512804,187.95851835347048L868.0214764321995,187.9884028221786L867.0143572256829,252.86970001494183L834.8276597817821,252.8338273278746L834.857919602222,231.3039087574689L820.9327724660734,231.2405601802311L824.7494305490659,224.9403607252343L821.3212241145043,222.8775710260138Z" stroke="#FFFFFF" stroke-dasharray="1, 0" stroke-width="1"></path><text x="838.6829844632032" y="219.68824738509355" title="Cherokee" class="hint " style="">Cherokee</text></a><a id="s36" rel="nofollow " title="Creek" class="hint   "><path d="M684.4937553790469,200.80203236183434L684.6475677553649,187.71906574452032L717.1638057022574,187.87770531112847L717.1740598606784,198.64273759518483L744.1367662437424,198.6941075307218L743.7813892827676,225.83918329818653L727.7603725900744,225.8147477235034L727.7522295819158,252.8099533639902L684.7164314663328,252.82009671320247Z" stroke="#FFFFFF" stroke-dasharray="1, 0" stroke-width="1"></path><text x="700.7443574344006" y="220.14293555882878" title="Creek" class="hint " style="">Creek</text></a><a id="s37" rel="nofollow " title="Custer" class="hint   "><path d="M407.6233349953277,254.6203763554795L407.73663339278573,231.37419916740646L482.51478208734625,231.34766986530576L483.38427440289524,274.4166887462666L408.9027925857986,274.28054458764154Z" stroke="#FFFFFF" stroke-dasharray="1, 0" stroke-width="1"></path><text x="436.471572860819" y="252.84326624847708" title="Custer" class="hint " style="">Custer</text></a><a id="s38" rel="nofollow " title="Dewey" class="hint   "><path d="M407.1006745087343,197.07563833688073L407.1076111453126,187.62592294528122L482.0207729257545,187.5520804955454L482.51478208734625,231.34766986530576L407.73663339278573,231.37419916740646Z" stroke="#FFFFFF" stroke-dasharray="1, 0" stroke-width="1"></path><text x="435.8158373932249" y="209.46443925078756" title="Dewey" class="hint " style="">Dewey</text></a><a id="s39" rel="nofollow " title="Beckham" class="hint   "><path d="M344.94782324242715,279.5822473177859L387.6301388169163,279.6697118202137L387.65245669112755,268.90574003193797L408.9104329391316,268.91413792737876L409.3040116667744,317.21486751999146L366.8295784592751,317.2097056666262L366.807260585063,327.8557811752207L344.9483501025952,327.82214237969265Z" stroke="#FFFFFF" stroke-dasharray="1, 0" stroke-width="1"></path><text x="368.02243171953774" y="298.4621090739247" title="Beckham" class="hint " style="">Beckham</text></a><a id="s40" rel="nofollow " title="Carter" class="hint   "><path d="M590.0070136677491,423.70675966247745L590.0489350801181,391.87041051174447L611.1818508077699,391.90066527991075L611.1770253214527,407.815986279983L642.9062063440265,407.91464733378825L642.2731628579577,411.9187502524155L643.6631039788695,413.12844028383415L653.2694408622756,413.12113582237134L653.2479272357841,432.594303167431L649.7550793907831,432.58652654784373L649.7900641665719,444.92643797855953L590.0424005673995,444.9175784181066Z" stroke="#FFFFFF" stroke-dasharray="1, 0" stroke-width="1"></path><text x="608.821910430267" y="423.060818254824" title="Carter" class="hint " style="">Carter</text></a><a id="s41" rel="nofollow " title="Johnston" class="hint   "><path d="M653.2608957302582,423.7172185547379L653.2694408622756,413.12113582237134L658.5424910339902,413.0826655724609L658.5616924482893,391.9903311003436L695.4514294928385,392.071334644681L695.4593714390662,402.5353747710901L706.1614958400437,402.67893362800214L706.13033124092,434.44545689673987L701.4796682729934,434.44169077713605L701.485901192817,439.657292255823L688.264470811072,439.65085667386074L684.702759255104,433.8715329151837L679.7585458696253,432.6306344839286L653.2479272357841,432.594303167431Z" stroke="#FFFFFF" stroke-dasharray="1, 0" stroke-width="1"></path><text x="671.6802516442282" y="415.0559263664235" title="Johnston" class="hint " style="">Johnston</text></a><a id="s42" rel="nofollow " title="Garfield" class="hint   "><path d="M535.5500936901171,175.65540150166044L535.564871741959,134.0236309004872L600.1744138663457,134.0162433737787L600.2559444788917,187.60587471316103L535.6032745705575,187.55419740323077Z" stroke="#FFFFFF" stroke-dasharray="1, 0" stroke-width="1"></path><text x="558.8944103536114" y="160.80466756818987" title="Garfield" class="hint " style="">Garfield</text></a><a id="s43" rel="nofollow " title="Comanche" class="hint   "><path d="M462.9844304714029,358.27542930087884L462.99780108973846,349.2742536211831L537.0454917932261,349.34004108517L537.0917360370854,370.610874418187L531.7936536551078,370.60610662307545L531.7585683483517,391.87553430945854L521.5072247940534,391.86004091322866L521.5023993077375,397.15301719829495L516.3030383333048,397.1759403663982L516.2989165637428,398.9428198874025L495.28492896758735,398.8975910106442L495.2819130386406,402.4277652355363L479.5017685378816,404.1951962757107L479.499154732795,391.81868440924745L463.00322976184225,391.8296640284766Z" stroke="#FFFFFF" stroke-dasharray="1, 0" stroke-width="1"></path><text x="489.6107462864415" y="372.9433260455706" title="Comanche" class="hint " style="">Comanche</text></a><a id="s44" rel="nofollow " title="Pittsburg" class="hint   "><path d="M737.8548878391061,357.6450476648879L738.1793012628873,325.4305184013124L740.0634526073218,324.7366714344871L740.9841151840128,320.30670829686187L744.0979612912852,316.77265909748394L746.1301947470392,317.05558624743026L746.1932276620405,313.46776784683425L756.57405509915,313.86537137560526L760.2628377947717,308.5885225979623L767.4610559446069,307.33364680117165L771.6433451469952,309.78149879234525L779.3704567032464,306.5006253655324L779.5956460646562,303.9253366674593L785.7484427103418,300.86055575497403L786.975021013267,302.1284306381767L785.0648321489216,303.93764312806434L787.0877162249385,304.4248437190977L795.8724135320936,299.1986571708453L795.460437637872,296.9825669144784L797.3394619030969,294.5564565997324L802.277140775856,295.1566961285548L801.904774081811,311.8255495076892L812.5223519412948,311.8601032989968L812.5124999067339,327.9554706037852L796.6063901069374,327.9679930974571L795.9371554734989,381.23699094678386L758.9747345413184,381.313317539149L758.9630729493879,370.68960383840704L737.8576021751592,370.6797015692182Z" stroke="#FFFFFF" stroke-dasharray="1, 0" stroke-width="1"></path><text x="763.3919494358421" y="340.9223254089272" title="Pittsburg" class="hint " style="">Pittsburg</text></a><a id="s45" rel="nofollow " title="Pushmataha" class="hint   "><path d="M769.2984603903556,432.76089152388795L769.2853913649174,391.9289680460506L780.1150895603714,391.8993233364572L780.087343014055,381.27374990534827L795.9371554734989,381.23699094678386L795.9171498114802,370.6080626418525L853.8995901977132,370.64045914790813L853.9143682495555,391.8954194999469L842.9423182077817,391.8468654080957L842.958503693133,423.94913566399737L832.4338164452311,423.9617833258885L832.4320068878615,434.48105273310284L769.2903173821983,434.5205360248606Z" stroke="#FFFFFF" stroke-dasharray="1, 0" stroke-width="1"></path><text x="800.8706858944026" y="402.89209482842756" title="Pushmataha" class="hint " style="">Pushmataha</text></a><a id="s46" rel="nofollow " title="Haskell" class="hint   "><path d="M801.8644611648806,306.6472795754812L802.277140775856,295.1566961285548L806.3081308760475,291.7838983133206L808.861818446815,291.4512133989806L812.2968609869922,295.86959528395164L817.3872463954567,294.4942503541838L823.4421258813131,299.3078666487968L827.616975792299,294.2238642411453L830.0526400102567,294.39545864755337L829.5946209341046,289.035341177032L832.9582864891909,288.9051898189459L831.3792466232721,286.29712051544584L835.5711867982932,285.6620721166755L842.6219260225989,275.0746719583758L845.1352001454693,275.7903689587979L847.2046300582429,280.67927710316735L857.510662457455,282.59487480731923L858.4687225530938,284.8470894338998L856.2417606182998,288.810533217159L863.5112552222604,285.9061840425725L866.3777951558418,291.7904286837893L866.3119473738234,306.6898482635411L854.8864021493173,306.6553996282423L854.8937409097557,324.3969759286888L812.533008223576,324.36811478954996L812.5223519412948,311.8601032989968L801.904774081811,311.8255495076892Z" stroke="#FFFFFF" stroke-dasharray="1, 0" stroke-width="1"></path><text x="826.9756413215265" y="303.82690971079245" title="Haskell" class="hint " style="">Haskell</text></a><a id="s47" rel="nofollow " title="Lincoln" class="hint   "><path d="M632.3540741427,224.3169915450685L632.4468642233178,215.26953133867755L684.6712930630852,215.32814026789265L684.292492387287,274.6041770565216L632.35568263814,274.447299324484Z" stroke="#FFFFFF" stroke-dasharray="1, 0" stroke-width="1"></path><text x="649.4292371313757" y="244.8798869174793" title="Lincoln" class="hint " style="">Lincoln</text></a><a id="s48" rel="nofollow " title="Kay" class="hint   "><path d="M600.0865498030093,133.12731990322118L600.0996869959326,83.16519733595487L671.7288361089809,83.12708516640168L671.4723816174828,110.39056904550489L664.4155100043181,112.21444673332326L663.6315695399121,115.14896939148457L657.7808684437955,114.19281002153593L653.4216447431572,122.43216175533962L643.3099386991234,120.44345292205526L641.2280429467023,121.66578889131824L640.1407000301824,125.0374742362651L641.8662135119821,133.54042467072168Z" stroke="#FFFFFF" stroke-dasharray="1, 0" stroke-width="1"></path><text x="623.238629110621" y="105.59223082673168" title="Kay" class="hint " style="">Kay</text></a><a id="s49" rel="nofollow " title="Ottawa" class="hint   "><path d="M843.8867060921916,85.99840624067838L844.2228816388674,83.72233771557421L846.87569274104,83.0608737771222L886.0481864059102,83.13753292933416L886.0426145485985,124.71045899809906L847.7017556797464,124.37082692596778L848.3067510266037,89.29897157264031Z" stroke="#FFFFFF" stroke-dasharray="1, 0" stroke-width="1"></path><text x="857.8245512686794" y="103.66563808157827" title="Ottawa" class="hint " style="">Ottawa</text></a><a id="s50" rel="nofollow " title="Beaver" class="hint   "><path d="M249.08067518343023,127.45802305564166L249.93801355142068,83.2321955392531L344.7292532562492,82.78494609760764L344.60872803716666,145.771237576595L249.06499779132764,145.78381121412758Z" stroke="#FFFFFF" stroke-dasharray="1, 0" stroke-width="1"></path><text x="288.0800839236793" y="114.4399756899541" title="Beaver" class="hint " style="">Beaver</text></a><a id="s51" rel="nofollow " title="Nowata" class="hint   "><path d="M766.2237208284346,93.47372249337423L766.229752686329,90.30666740449851L768.5580498337586,90.30540958035544L768.5477956753366,83.08655277334356L806.6681372183193,83.09521289265513L806.6407878389514,90.20855662570557L804.2394046800287,90.20025489833506L804.2555901653814,133.52752715336464L766.2501604722065,133.53554114675762Z" stroke="#FFFFFF" stroke-dasharray="1, 0" stroke-width="1"></path><text x="776.5767958073538" y="108.30523215237211" title="Nowata" class="hint " style="">Nowata</text></a><a id="s52" rel="nofollow " title="Okmulgee" class="hint   "><path d="M727.7282026813009,262.72419437927374L727.7603725900744,225.8147477235034L770.6183314287232,225.89140328216172L770.6083788631959,242.08396742966806L775.9550177012288,242.07690889617425L775.9674835408791,263.60117135460223L764.968993855332,263.61463988977266L764.8649443066452,274.4482867609204L759.6196406812455,274.4907464347457L759.6142120091417,285.21525780561205L738.3112984198197,285.19220144546307L738.2846577141177,263.56200129045646Z" stroke="#FFFFFF" stroke-dasharray="1, 0" stroke-width="1"></path><text x="741.7378969728024" y="251.81051907591967" title="Okmulgee" class="hint " style="">Okmulgee</text></a><a id="s53" rel="nofollow " title="Woodward" class="hint   "><path d="M384.65321588385814,152.04453805221874L384.63984526552395,134.1269304704424L415.83540792632766,133.8301760078134L415.8425456248365,105.68557190930687L419.7873806880971,109.8906115538066L431.458120936029,110.27145022361674L437.024017808541,117.98263820276134L439.76398925729563,119.27262842551863L443.2519110850171,127.90432219512786L449.5418319668456,133.34583311304732L449.9564216661556,187.96511784818085L385.59348199870556,187.65580843224916Z" stroke="#FFFFFF" stroke-dasharray="1, 0" stroke-width="1"></path><text x="409.99062297373615" y="155.38882970479705" title="Woodward" class="hint " style="">Woodward</text></a><a id="s54" rel="nofollow " title="Murray" class="hint   "><path d="M611.1710939945237,398.10282225042874L611.1818508077699,391.90066527991075L632.1075722167302,391.93189591391547L629.9192141724625,388.7662563587105L629.7850053343013,381.96628333340004L627.3442140371335,380.83519829667193L626.4662771205317,377.74257194471375L632.2671148580503,377.7630956597377L632.2369555685755,375.9876406282183L653.3829403216655,376.0261292230748L653.3733898799978,381.34592408435174L663.9425118143931,381.3509310726495L663.9427128763236,391.9981386989848L658.5616924482893,391.9903311003436L658.5424910339902,413.0826655724609L643.6631039788695,413.12844028383415L642.2731628579577,411.9187502524155L642.9062063440265,407.91464733378825L611.1770253214527,407.815986279983Z" stroke="#FFFFFF" stroke-dasharray="1, 0" stroke-width="1"></path><text x="630.7388774792137" y="394.8820246062167" title="Murray" class="hint " style="">Murray</text></a><a id="s55" rel="nofollow " title="Payne" class="hint   "><path d="M610.9785771967113,188.277032273631L632.4383190912995,188.25723440871025L632.4081598018261,177.39298103645478L664.7791305044152,177.38762092187744L664.7754108587128,188.30019198918671L684.6367104111546,188.1703225518404L684.6712930630852,215.32814026789265L632.4468642233178,215.26953133867755L632.4568167888438,213.16533822350402L627.523963402401,215.37321426983044L623.0262080321108,211.8405479330031L618.5759032772589,211.23671905175752L616.3749788623772,206.9114419145194L614.0459779981938,206.71209842117833L611.0049163095196,209.93577063241082Z" stroke="#FFFFFF" stroke-dasharray="1, 0" stroke-width="1"></path><text x="640.0784681919314" y="198.43376631754" title="Payne" class="hint " style="">Payne</text></a><a id="s56" rel="nofollow " title="Pontotoc" class="hint   "><path d="M653.3561990849985,360.24233425002967L653.6298443714954,335.8329615609655L658.1006574431894,340.59867341490053L665.3336593068861,338.34254527471785L666.8284542242054,343.088925963606L671.157920759229,343.84034335292654L674.4378440205405,349.11302964046627L678.0166458405465,346.1475674821136L675.5234779106568,342.1150644086474L677.5466635795683,339.7326047094293L683.0935600997118,343.96598271248877L690.4023623109533,341.69810418530005L693.9714126273611,347.54426896691893L698.2041683741354,342.22503310282764L704.4151724485077,343.36498337235025L706.0299008069705,340.05645422019825L706.2593124689051,370.7448607676597L695.6217289474034,370.7397262869431L695.6289671768768,392.0502298677334L663.9427128763236,391.9981386989848L663.9425118143931,381.3509310726495L653.3733898799978,381.34592408435174Z" stroke="#FFFFFF" stroke-dasharray="1, 0" stroke-width="1"></path><text x="669.3069462756703" y="364.8520917658994" title="Pontotoc" class="hint " style="">Pontotoc</text></a><a id="s57" rel="nofollow " title="Roger Mills" class="hint   "><path d="M344.9470839190126,222.84642798380992L354.1963547532464,216.9915193861134L353.8892326554319,212.79410198706182L355.706329846269,209.89092011528282L362.0305317871321,207.27755724154713L364.14369266964377,208.05833388019346L364.06578117183517,216.89381281268425L367.61130724245277,222.0540462968279L373.4270235627778,225.4738837309983L383.1327855704849,227.68333580517537L389.37274256274986,224.70243064561873L390.15849258452636,220.61950662177014L393.85531775733944,217.04751089773526L396.4482124044239,209.98447234660125L400.6285915184799,207.19553666699358L407.2133697204031,206.45756916224082L407.6124776511151,263.60870879397044L408.91163931071014,263.6113036488214L408.9104329391316,268.91413792737876L387.65245669112755,268.90574003193797L387.6301388169163,279.6697118202137L344.94782324242715,279.5822473177859Z" stroke="#FFFFFF" stroke-dasharray="1, 0" stroke-width="1"></path><text x="366.4656244544952" y="246.7406834613722" title="Roger Mills" class="hint " style="">Roger Mills</text></a><a id="s58" rel="nofollow " title="Washita" class="hint   "><path d="M408.87404072983327,295.7369466924624L408.9027925857986,274.28054458764154L483.38427440289524,274.4166887462666L483.9195012601017,319.06251719195734L480.4755114640475,316.3253917459965L477.87447380880485,318.29793756601885L472.4832997533149,317.55591265021167L472.07212810681267,319.143493840455L470.7540666258142,317.25001721264107L409.3040116667744,317.21486751999146Z" stroke="#FFFFFF" stroke-dasharray="1, 0" stroke-width="1"></path><text x="437.3667599099268" y="295.84567335808487" title="Washita" class="hint " style="">Washita</text></a><a id="s59" rel="nofollow " title="McIntosh" class="hint   "><path d="M748.7773761151775,308.340290871919L748.9899991059729,285.1982429567629L759.6142120091417,285.21525780561205L759.6196406812455,274.4907464347457L764.8649443066452,274.4482867609204L764.968993855332,263.61463988977266L812.9555398691136,263.54692633490185L812.9937416357811,295.516600795283L808.4093285737335,291.2787057358164L801.8141956824229,295.3687975763237L797.3394619030969,294.5564565997324L795.460437637872,296.9825669144784L795.8724135320936,299.1986571708453L787.3854889430158,304.3126137120762L785.0648321489216,303.93764312806434L786.975021013267,302.1284306381767L785.7484427103418,300.86055575497403L779.5956460646562,303.9253366674593L779.3704567032464,306.5006253655324L771.4422832171658,309.84299489246087L767.8934396247055,307.30904223049174L760.2628377947717,308.5885225979623L756.3630406037946,313.9259817811685L748.7484231972812,312.9346543382326Z" stroke="#FFFFFF" stroke-dasharray="1, 0" stroke-width="1"></path><text x="771.6455585527028" y="285.6000243454409" title="McIntosh" class="hint " style="">McIntosh</text></a><a id="s60" rel="nofollow " title="Love" class="hint   "><path d="M590.189175776175,455.4841597478776L592.6129773402731,455.49470756777055L590.1948055102107,453.178656415706L590.205662854421,444.91575795953213L649.6332358613054,444.9241320662991L649.6238864815682,451.9621602529164L653.1353325550795,451.9702860653979L653.135365587756,459.07285234894107L649.3401880985771,461.322485507957L648.6492387767184,458.85236652685535L647.15404173554,459.69733666474076L648.1912197005663,466.6177425283413L644.1772193334446,472.41358592753477L637.8087837680168,471.29571450811545L641.739645027154,475.6517654646141L637.3197006237074,477.2681161426558L637.9145423431073,484.5444378764564L633.9026531262493,487.8072306963063L630.1782824690481,486.31074288986247L627.1957298019543,482.4604130969092L626.1203500702604,475.12309057025186L629.8284347111448,472.0385949942133L628.3992865139148,466.239755647498L625.8562552254284,463.92914482334254L622.2420665057743,464.89858387743016L620.7810499926654,470.1047186253968L618.8727712166519,470.72432478279825L615.4008338123526,467.0477902425482L613.5323652984439,471.05529886580734L613.1575858612405,467.56597940494294L609.8350374708057,474.8885724364509L603.7040560445071,475.4167752890021L600.0483480363414,472.70904209258606L601.1931946647924,469.17923534068905L600.2977653602957,465.1806889283257L596.21781668019,463.27944978790174L590.2908125817044,465.94920137819463Z" stroke="#FFFFFF" stroke-dasharray="1, 0" stroke-width="1"></path><text x="613.0675507167196" y="459.5155052262516" title="Love" class="hint " style="">Love</text></a><a id="s61" rel="nofollow " title="Harper" class="hint   "><path d="M344.6050975145781,108.52504162227615L344.7292532562492,82.78494609760764L399.65535124713824,83.06628651244682L407.89738240568477,98.1438583851509L413.9222031330328,101.08506599540306L415.8425456248365,105.68557190930687L415.83540792632766,133.8301760078134L344.6692362701956,134.06470043752552Z" stroke="#FFFFFF" stroke-dasharray="1, 0" stroke-width="1"></path><text x="369.43856289963884" y="109.4944085573769" title="Harper" class="hint " style="">Harper</text></a><a id="s62" rel="nofollow " title="Texas" class="hint   "><path d="M140.70216261633686,135.66302128316784L141.0893073622251,83.86507198712025L249.93801355142068,83.2321955392531L249.06499779132764,145.78381121412758L140.67390999151348,145.657352034807Z" stroke="#FFFFFF" stroke-dasharray="1, 0" stroke-width="1"></path><text x="186.29247608875428" y="114.61416472655074" title="Texas" class="hint " style="">Texas</text></a><a id="s63" rel="nofollow " title="Oklahoma" class="hint   "><path d="M578.8171130250057,261.43620607386947L578.8193247062336,242.0567239391844L632.3977045814754,242.24606464240424L632.292951316032,285.1942974804133L579.0864354800119,285.1584182330207Z" stroke="#FFFFFF" stroke-dasharray="1, 0" stroke-width="1"></path><text x="596.6026370457955" y="263.6380252281636" title="Oklahoma" class="hint " style="">Oklahoma</text></a><a id="s64" rel="nofollow " title="Logan" class="hint   "><path d="M578.6529459592989,202.6232948019151L578.6593799410534,187.58084549601062L610.9972759561865,187.6255493761132L611.0049163095196,209.93577063241082L615.5548472506011,206.6980547428352L618.5759032772589,211.23671905175752L624.3431636724949,212.4650822831577L626.1125086549964,214.92134734746924L629.2504821938496,215.39183983001203L632.4568167888438,213.16533822350402L632.3977045814754,242.24606464240424L578.8193247062336,242.0567239391844Z" stroke="#FFFFFF" stroke-dasharray="1, 0" stroke-width="1"></path><text x="593.0033520817575" y="218.081748978583" title="Logan" class="hint " style="">Logan</text></a><a id="s65" rel="nofollow " title="Stephens" class="hint   "><path d="M531.7613832153693,387.4378460038615L531.7936536551078,370.60610662307545L590.005304641345,370.6074513860258L590.0236012769615,418.4129450002124L532.0523198278347,418.34078966864035Z" stroke="#FFFFFF" stroke-dasharray="1, 0" stroke-width="1"></path><text x="551.9449844532268" y="394.4728517959338" title="Stephens" class="hint " style="">Stephens</text></a><a id="s66" rel="nofollow " title="Hughes" class="hint   "><path d="M697.7808324808789,335.7664723787684L697.8069705317594,317.3231429261068L702.7363053344293,317.33383521257065L702.7396228562716,295.88302015911813L748.9830624693932,295.9104856730919L748.7484231972812,312.9346543382326L745.8751476890493,313.7334533414719L746.1301947470392,317.05558624743026L744.0979612912852,316.77265909748394L740.9841151840128,320.30670829686187L740.0634526073218,324.7366714344871L738.1793012628873,325.4305184013124L737.8618244756858,360.04775367086495L706.246645567327,360.0341696036671L706.0299008069705,340.05645422019825L704.4151724485077,343.36498337235025L697.7715836321072,342.51938040623236Z" stroke="#FFFFFF" stroke-dasharray="1, 0" stroke-width="1"></path><text x="712.8989778805171" y="325.5767497558326" title="Hughes" class="hint " style="">Hughes</text></a><a id="s67" rel="nofollow " title="Cimarron" class="hint   "><path d="M43.13615744969775,142.40796395817915L43.17295178285667,82.9866057041927L141.0893073622251,83.86507198712025L140.67390999151348,145.657352034807L43.149327006102794,145.68400181983907Z" stroke="#FFFFFF" stroke-dasharray="1, 0" stroke-width="1"></path><text x="82.89963987841952" y="114.52745848763938" title="Cimarron" class="hint " style="">Cimarron</text></a><a id="s68" rel="nofollow " title="Washington" class="hint   "><path d="M746.9956658239921,153.26400985950158L747.0293436972374,83.1431973743488L768.5477956753366,83.08655277334356L768.5580498337586,90.30540958035544L766.229752686329,90.30666740449851L765.9422341266727,155.28858427162913L746.9930520189027,155.27284212742825Z" stroke="#FFFFFF" stroke-dasharray="1, 0" stroke-width="1"></path><text x="747.6881138930477" y="118.72274655109962" title="Washington" class="hint " style="">Washington</text></a><a id="s69" rel="nofollow " title="Coal" class="hint   "><path d="M695.4562549791531,392.66603217214333L695.6217289474034,370.7397262869431L706.2593124689051,370.7448607676597L706.246645567327,360.0341696036671L737.8618244756858,360.04775367086495L737.8746924391944,391.97788772761805L732.4994022761612,391.98435340358265L732.5241328935308,402.64407996578757L695.4593714390662,402.5353747710901Z" stroke="#FFFFFF" stroke-dasharray="1, 0" stroke-width="1"></path><text x="708.1673494868842" y="381.8913875177161" title="Coal" class="hint " style="">Coal</text></a><a id="s70" rel="nofollow " title="Garvin" class="hint   "><path d="M579.3765678447562,369.0981481781823L579.4151717352843,349.31125146568866L653.3685643936806,349.3981101099844L653.3829403216655,376.0261292230748L632.2369555685755,375.9876406282183L632.2671148580503,377.7630956597377L626.4662771205317,377.74257194471375L627.3442140371335,380.83519829667193L629.7850053343013,381.96628333340004L629.9192141724625,388.7662563587105L632.1075722167302,391.93189591391547L589.9624784502935,391.87163046381374L590.005304641345,370.6074513860258L579.3823986407215,370.5833678770359Z" stroke="#FFFFFF" stroke-dasharray="1, 0" stroke-width="1"></path><text x="606.4716454688075" y="367.733337804865" title="Garvin" class="hint " style="">Garvin</text></a><a id="s71" rel="nofollow " title="Caddo" class="hint   "><path d="M483.3548188301752,299.3404938257331L483.4030736933346,263.62650207071965L515.0554490587115,263.66171783673144L515.2535955905582,285.1475681258521L536.396463883736,285.0841933998581L536.735152704533,349.3412661735356L483.7381433993942,349.33710087248437Z" stroke="#FFFFFF" stroke-dasharray="1, 0" stroke-width="1"></path><text x="499.2408163288152" y="310.07692796772784" title="Caddo" class="hint " style="">Caddo</text></a><a id="s72" rel="nofollow " title="Alfalfa" class="hint   "><path d="M491.2936400679728,83.12605519937142L534.7908838430799,83.23470916592714L535.5506968759064,150.34666988211302L492.40381204409186,150.33104471417755Z" stroke="#FFFFFF" stroke-dasharray="1, 0" stroke-width="1"></path><text x="504.5041564512567" y="116.71451807259257" title="Alfalfa" class="hint " style="">Alfalfa</text></a><a id="s73" rel="nofollow " title="Grady" class="hint   "><path d="M536.396463883736,285.0841933998581L544.1073899546363,285.00035072957644L544.959490413255,287.17805823771596L550.057616706018,289.00588472126947L552.0547648550164,285.1889957440985L555.9810016897668,289.20517628086736L559.5598035097714,286.98439669604204L561.9997905592195,290.4120559621656L569.2440518909862,289.0416268529666L572.4578257773842,291.73892489101627L579.063715481941,290.23903736533794L579.3823986407215,370.5833678770359L537.0917360370854,370.610874418187Z" stroke="#FFFFFF" stroke-dasharray="1, 0" stroke-width="1"></path><text x="548.7015047975026" y="329.36969369891796" title="Grady" class="hint " style="">Grady</text></a><a id="s74" rel="nofollow " title="Latimer" class="hint   "><path d="M795.9313246775341,365.3473281785673L796.6063901069374,327.9679930974571L812.5124999067339,327.9554706037852L812.533008223576,324.36811478954996L854.8937409097557,324.3969759286888L854.9133444479148,338.641421200653L847.830736907732,338.6481663488498L847.8619015068562,349.3217872508699L841.6589399096792,349.32901528317143L841.6484846893263,370.6576964918936L795.9171498114802,370.6080626418525Z" stroke="#FFFFFF" stroke-dasharray="1, 0" stroke-width="1"></path><text x="813.4669715302463" y="346.681729235341" title="Latimer" class="hint " style="">Latimer</text></a><a id="s75" rel="nofollow " title="Blaine" class="hint   "><path d="M482.0207729257545,187.5520804955454L524.8826524720353,187.55257859151516L525.2284789913429,242.15950580520757L514.5454554736975,242.15158049460888L514.5574186585236,263.63564582550407L482.50623695532795,263.6240307841931Z" stroke="#FFFFFF" stroke-dasharray="1, 0" stroke-width="1"></path><text x="493.4578490680029" y="223.50980068343287" title="Blaine" class="hint " style="">Blaine</text></a><a id="s76" rel="nofollow " title="Mayes" class="hint   "><path d="M803.4061035118489,182.43579178741493L803.8494450671246,144.46295018980982L847.0656962647299,144.49672097288158L846.5054371972592,187.93548234640048L835.7288193512804,187.95851835347048L835.7411846599653,198.79634906935917L803.4111300600953,198.71475493485605Z" stroke="#FFFFFF" stroke-dasharray="1, 0" stroke-width="1"></path><text x="815.3114842033959" y="170.46654789362324" title="Mayes" class="hint " style="">Mayes</text></a><a id="s77" rel="nofollow " title="McClain" class="hint   "><path d="M579.0703505256247,290.0450656494095L590.2121973671406,295.6426013091909L590.8062348388235,303.98305383647767L605.6554626044681,314.5836978694051L606.1587206148329,320.94643711598246L611.114293999346,322.46616682006834L610.5888186457364,327.4133053049509L613.0192552535182,336.5887237318975L619.0493035910436,336.0924123732498L623.4207920694002,339.90513772297163L624.6745137328548,338.38816827201936L626.858448414665,340.35356256798104L635.1192788636495,339.5134700273002L644.9783505928522,342.9162023579838L653.5580652625463,335.9243528002544L653.529313406581,349.3764261461856L579.1801303393122,349.3042684392103Z" stroke="#FFFFFF" stroke-dasharray="1, 0" stroke-width="1"></path><text x="592.8871198024053" y="330.3464099483937" title="McClain" class="hint " style="">McClain</text></a></g></g></svg>