<svg id="map" class="map svg-content-responsive" xmlns:xlink="http://www.w3.org/1999/xlink" preserveAspectRatio="xMinYMin meet" viewBox="0 0 960  540"><g><g id="states"><a id="s01" rel="nofollow " title="Clackamas" class="hint   "><path d="M286.40324829741985,141.57947132135632L288.19504519541806,141.5976994990333L288.2009095017047,138.1513414758365L296.80401437590353,139.82528528385774L296.8056898919849,127.75131035109916L304.7640561778635,127.82007466988944L303.7374674744742,124.82280319920301L305.36263429812607,124.38529850855593L374.2257588341872,124.36224601259528L377.8602045432708,131.40606858519277L384.50161518876484,134.8723309414254L383.96695800702673,139.87891136487815L385.99676196446217,143.9818306953648L384.5021178435891,148.412780197551L385.8445413284189,149.52895882746088L385.7013684792182,152.0980041029652L380.3176839806165,154.8323050408635L380.16864682512914,156.52019083793402L384.2714830549139,164.83755096249024L387.116341810397,165.08331661505144L388.31626265245905,168.75295012479L387.70335886969497,171.4161275475244L384.9803101333673,171.4947683900673L382.765445424684,174.8300559392601L377.6534458587639,174.8643181420266L377.37815856650377,177.47947175634818L375.4252607972294,177.92007150108748L377.0736335186166,185.15885276540666L376.19113919827214,186.69174669982658L378.8756510647163,186.15608390346188L380.28191171226626,189.38835572957396L383.0374654605839,190.42163430475648L381.37719657501566,192.8082801763203L325.5182550055197,192.80461469583588L325.6385570602015,190.63737866856627L316.54452597399995,188.80120372509919L311.45975354441,181.20897134495863L309.26876493989494,180.3614569303736L309.2213478347767,176.95730387514595L300.02971793680626,172.254085985659L293.5295532970176,164.5124617299025L294.2060429150906,160.08313968393486L296.120990245111,157.66201238825306L295.484294133983,155.15096333316797L297.2022007727692,148.46371975469992L293.36794977091813,148.46014923750863L293.36585537581595,146.75489265543092L286.3880011010733,148.44431992189948Z" stroke="#FFFFFF" stroke-dasharray="1, 0" stroke-width="1"></path><text x="331.5710816355713" y="156.86914453032298" title="Washington" class="hint Washington " style="">Clackamas</text></a><a id="s02" rel="nofollow " title="Gilliam" class="hint   "><path d="M471.9127577001673,91.36601392341345L477.1377158772639,90.24983203021293L484.284043294042,95.8297723442547L492.8210490588099,95.92561281061899L509.0070370649282,92.7219517428939L512.3832857457919,88.4003072467176L526.70491225364,82.32960594347787L526.113972485472,148.68104168263562L536.5196813363978,148.77506159954464L536.3883208755765,159.2119473362036L546.7895058330823,159.2049364683371L546.7080757514991,169.64581484189603L544.1864240482187,169.64878097385463L544.1974824543604,171.2419994800448L485.1806957252793,171.1879097422443L483.53115014263494,168.0591041290063L486.7147144740766,166.0413613501778L487.91279224844857,167.2876851869496L487.64822825911506,163.8476306031389L489.059515454911,162.2968563608856L486.7648124049256,161.26760080917302L486.3122555111995,156.3359313281644L481.27716213343865,154.3148100375447L482.72648354429384,152.86378166364193L481.01737336493807,152.87579456911953L480.0790005832632,149.54466660462276L481.95557859500514,148.52108580562162L480.12080470950605,145.87852855291385L480.9669403308735,143.34201562299768L482.75982631432544,143.62774842273484L481.3606866101227,142.26996320178114L482.4832823850038,140.75688847081256L481.14278574366926,138.15885101533877L481.88839040012135,135.27361900689266L483.72316428562226,134.27184491703974L482.0475644279031,133.92595978067948L483.22880326565337,132.36329200121418L482.3742900638772,131.68323948838315L486.20292808685554,129.27267628363097L484.26762323644016,128.35357120853314L486.14428502398914,127.48209606592718L485.0383606341202,126.12093675986853L486.2531097935089,124.6161774441498L485.12213643821724,123.92339743806224L488.59455974218054,121.55247548596526L492.31939954388326,123.32814693024284L490.9029182482345,120.02804958333309L495.8457744656853,120.35074615030226L496.4392422619012,118.60776174042894L494.78760228415285,116.94599584365187L496.67306053113134,115.75229355852662L492.5631871338028,112.87347785682596L492.2528815554324,108.38053638285146L489.4458894634017,106.9273685215303L489.75669769659635,104.69264127538918L487.4602353547243,105.50610673914798L485.7152691312149,101.23224565230157L480.8072636482666,99.54723479333552Z" stroke="#FFFFFF" stroke-dasharray="1, 0" stroke-width="1"></path><text x="499.91532854285487" y="134.18686332939959" title="Gilliam" class="hint " style="">Gilliam</text></a><a id="s03" rel="nofollow " title="Josephine" class="hint   "><path d="M188.04274691505816,482.0377144337108L190.83692130906275,478.4110458695818L190.85644107141798,469.69817230462604L198.3188545970488,469.88166944616523L202.0140377641019,467.77815577441606L204.15450955874894,459.80605921336064L206.68956539068586,456.49507290171323L205.69590057830374,454.2331809734633L215.31101716597914,436.93253481241845L215.30992808052633,441.9992584986644L216.9571279406573,442.0066728377187L216.94397513941385,440.3737336583936L218.59645287520198,441.99652089458823L226.60340912745596,441.9693729301348L228.23963435725,444.5178615969744L233.9249955264022,446.2652115466781L241.70810283011178,445.3475816834457L241.80511521125482,443.6766402346657L244.17119524633017,443.676184075573L244.20621353244223,442.0191060965353L254.44805691055626,443.73901971325677L254.45802623124473,446.2454898549954L256.09919423347856,446.22394412901303L255.97406799268174,525.4294124283656L206.46882519484643,526.3667872904425L204.20670188470012,520.7209741851311L206.4726698338818,516.0361453172181L203.410077763554,510.6247028552889L207.25924085853603,506.7221623525047L206.60009283191175,503.40691788471986L209.11412093701892,500.977083586904L208.9685185895005,499.0349292321039L207.2927511801754,498.314435094851L204.35121514676484,492.0616296244325L205.00625815899002,490.5909506163316L202.4857793169649,489.39066626417116L200.94061838622292,486.14274451348L189.30239990544032,485.2647196134353Z" stroke="#FFFFFF" stroke-dasharray="1, 0" stroke-width="1"></path><text x="219.74171388535802" y="484.40254374650226" title="Josephine" class="hint " style="">Josephine</text></a><a id="s04" rel="nofollow " title="Klamath" class="hint   "><path d="M334.8188772246167,511.5239007345094L335.4377290894736,404.4788336837537L352.7226880937187,404.475966797469L351.3930823069177,402.2861268485731L355.8474418106862,390.25857104422903L355.705358046941,387.20848133117534L361.2730142113378,382.19946941906846L358.4706297885332,379.14632909209286L358.2399949998562,372.6441598841425L354.4015552077999,368.40799340697913L354.3279162759982,366.3113155185383L351.43924277497354,362.9466926744408L346.297167695383,360.7727922470085L348.14216222898176,356.45632825574967L348.2376666456512,354.0730776764458L346.5841836002137,352.34041655844476L348.13613037108644,348.11167315106786L358.9136362405907,341.37870990128795L414.99257307164044,341.24598377566826L415.039152418718,371.2655730254064L413.69388055655054,371.2552032158296L413.59267938520316,441.20234283619266L452.661693176854,441.47955099756837L452.94661659424037,526.5756561335625L334.8376424957132,524.9594214800209Z" stroke="#FFFFFF" stroke-dasharray="1, 0" stroke-width="1"></path><text x="379.3284930489704" y="447.4665884801974" title="Klamath" class="hint " style="">Klamath</text></a><a id="s05" rel="nofollow " title="Lane" class="hint   "><path d="M178.97116774435653,307.117757848373L181.95159932545994,264.50160000380765L260.2235608449164,263.62035542132617L260.35827233790224,267.3785786520193L262.7408562063856,270.29889719517996L261.4768468741877,273.40284700030224L283.2311612511385,273.32513676604503L283.3782715631305,266.4980536224821L286.59978633382707,266.51548274861125L286.6064883981553,263.1999955476731L290.1627712820182,264.72086971348926L297.86126502359184,263.0931460817101L303.9946591930475,265.0984324906922L305.5202165856326,267.65202376894376L309.3930044573699,268.2175926074942L310.75343974007865,270.133234379804L314.25945714148565,269.33631361281823L327.3111409889716,272.3079282448598L331.6906049238787,269.7655351945032L331.7042603799473,267.23354774563086L374.2389954112332,266.1161224211228L376.73392263300775,267.64465562985333L378.0945254673261,275.09098760468805L377.20541285845957,279.4310724484603L378.17210186192096,286.13279779272943L375.68027434489704,290.6037219955324L372.97875599022154,292.1127324248928L373.48727512108326,298.05570463829645L370.8643384706493,301.222262347118L370.0538913418295,307.00042278347337L365.1255283384844,307.3118389361698L361.19644312639593,313.31078420632275L362.38622709616175,324.199544765288L360.6824785682684,326.6133421490199L361.88306961676426,331.2667999644568L360.20813996547804,336.938473985163L362.0505374491504,340.04242295382846L359.103555988474,340.12204956277446L358.1929129979553,342.0988814630455L348.13613037108644,348.11167315106786L346.5841836002137,352.34041655844476L348.2376666456512,354.0730776764458L348.14216222898176,356.45632825574967L346.297167695383,360.7727922470085L348.0502601718881,361.63138035298107L296.9736603791989,361.95743385588094L296.96285330046976,349.57158522103055L266.33190604894935,350.10796537193664L266.345058850191,342.4905244593392L263.84074873835834,342.48855762195353L263.8317009515149,322.35557654781996L246.16112192101627,322.2975602842657L246.16497560800235,318.92691069715966L235.93000184582525,318.8289305371618L235.94005494231624,316.3758408258909L231.00549252947167,316.5061398671555L231.01789134847513,312.06053666933894L226.77179849368713,312.0650686431909L226.7809300563331,309.4190534024201L223.43040054733137,309.34756000294783L223.47748254923135,305.9237312629484L216.37429967156277,303.2246371141355L206.05278550375442,303.16436603194416L201.37809563521205,307.8466094139867L197.76626939323342,308.55654961010714L197.80296319542776,312.33744644750277L196.05916983317366,312.71043792423006L178.2623284401643,312.5962147099417Z" stroke="#FFFFFF" stroke-dasharray="1, 0" stroke-width="1"></path><text x="279.06109992679336" y="303.7777656154757" title="Lane" class="hint " style="">Lane</text></a><a id="s06" rel="nofollow " title="Linn" class="hint   "><path d="M253.48773486820846,231.50840248362056L254.29047462305152,229.4935034734799L259.8057709098912,228.0030252539491L258.7457556606696,226.17253416993026L261.56062267828474,222.09425555716643L269.1119223320611,220.66881456149622L263.1059511606327,213.38813805297286L262.7334001598192,211.47766845454316L264.2400242206786,209.88016926121145L263.28514760559483,208.96520659759426L265.8669503362171,207.718361994931L270.1287092663715,209.06806787868754L272.0341061547233,211.96264639455694L273.8149284223864,211.9456674430312L273.7644116125175,214.86766517559045L275.3346215086831,216.27463927677763L278.9166235644043,212.24609431560293L280.858211600128,212.87260920483095L288.13849652765384,205.99795786323193L293.47610433400405,203.59491907202028L298.3194348961906,203.7470890554805L301.2338275690727,205.8381671551333L307.33689489744575,204.25114998417394L316.9596350832944,208.86505690978265L332.3989293475079,207.74125059063772L335.4136854336966,208.7623105304874L340.7552307028409,215.50431004138954L347.18435346075603,211.65583965522274L356.2488116881095,216.40625942443967L375.86541887194744,216.68598799694337L374.8977245588394,224.65332145755838L376.3781267930135,227.20801773377116L374.4997057135806,233.8729617617164L375.0806909149833,236.5699011453271L371.7298263027633,240.08204976161596L372.40288111286736,263.39484818391975L374.3122154640123,265.85665445544964L331.7042603799473,267.23354774563086L331.6906049238787,269.7655351945032L327.3111409889716,272.3079282448598L314.25945714148565,269.33631361281823L310.75343974007865,270.133234379804L309.3930044573699,268.2175926074942L305.5202165856326,267.65202376894376L303.9946591930475,265.0984324906922L297.86126502359184,263.0931460817101L290.1627712820182,264.72086971348926L286.6064883981553,263.1999955476731L286.59978633382707,266.51548274861125L283.3782715631305,266.4980536224821L283.2311612511385,273.32513676604503L261.4768468741877,273.40284700030224L262.7408562063856,270.29889719517996L260.35827233790224,267.3785786520193L259.1028081377235,260.89914649580624L254.75383859550675,257.95714671448513L256.987887963327,254.39602211485544L254.80326631992193,252.13617868585334L256.6022679370735,250.7677456227275L256.2303033668886,246.2598219232268L258.1376270987357,244.95170320509442L256.8196661487027,240.05527676431302L257.52338290310763,237.67969609439206L254.2469949807264,235.15276265922967L255.0524993371073,232.70365619887616Z" stroke="#FFFFFF" stroke-dasharray="1, 0" stroke-width="1"></path><text x="305.04166157298613" y="239.39926089279203" title="Linn" class="hint " style="">Linn</text></a><a id="s07" rel="nofollow " title="Multnomah" class="hint   "><path d="M281.2676239547427,99.31141699831005L281.27156141753585,93.25824151654888L295.2377419425284,92.39624486808407L294.22623288387877,98.18172642406262L295.12271776350644,100.97491239833653L302.56217671881495,105.65966109729561L322.36124760397433,112.1787697079053L327.2514088406515,110.70009219704116L334.4059462862315,114.5768004215297L343.72231835649836,110.49003999089291L350.5936098084321,109.79340961708021L365.64361029542215,101.9308552008115L365.95557900546373,109.48241624947696L367.393506906963,113.08118237091458L366.33927218822373,115.75875174452085L368.0410938726236,118.20416456495332L370.07349487998636,118.0868825284906L370.53191607999906,120.63853062888757L374.2257588341872,124.36224601259528L305.36263429812607,124.38529850855593L303.7374674744742,124.82280319920301L304.7640561778635,127.82007466988944L296.8056898919849,127.75131035109916L296.7938775036082,117.45082201200421L295.06792838762703,117.44448501634452L293.36669313385573,113.99555629891438L286.42829726284253,108.79238572874874L284.73225610892496,105.3689588879115L282.95997897328107,105.33338383497176L282.9527742541277,103.60051884724271L281.27306938200945,103.59033477235789Z" stroke="#FFFFFF" stroke-dasharray="1, 0" stroke-width="1"></path><text x="315.24981963443713" y="114.09626324925458" title="Multnomah" class="hint " style="">Multnomah</text></a><a id="s08" rel="nofollow " title="Sherman" class="hint   "><path d="M440.2733461461976,145.32986509024067L444.3302732353377,141.02926695165297L446.2575356085581,142.6992810713491L446.76848423773936,139.2081971830512L448.4357902908523,139.91156348106233L448.04187645999446,138.06396796539684L454.1334665032082,132.7710519963357L454.37549480123835,128.46136365642087L455.4980905761222,127.97204610025165L454.132461193557,126.34817396875042L456.6204350235921,123.46982681791269L456.3851925656927,119.49126335146411L457.48684438955024,118.10027262991844L451.3957570011635,114.52440797142663L450.4789146011399,112.470373999603L451.6505192214172,109.0959887335066L449.94164586335773,102.87283155424211L454.97834548751143,99.24787545314575L471.9127577001673,91.36601392341345L480.8072636482666,99.54723479333552L485.7152691312149,101.23224565230157L487.4602353547243,105.50610673914798L489.75669769659635,104.69264127538918L489.4458894634017,106.9273685215303L492.2528815554324,108.38053638285146L492.5631871338028,112.87347785682596L496.67306053113134,115.75229355852662L494.78760228415285,116.94599584365187L496.4392422619012,118.60776174042894L495.8457744656853,120.35074615030226L490.9029182482345,120.02804958333309L492.31939954388326,123.32814693024284L488.59455974218054,121.55247548596526L485.12213643821724,123.92339743806224L486.2531097935089,124.6161774441498L485.0383606341202,126.12093675986853L486.14428502398914,127.48209606592718L484.26762323644016,128.35357120853314L486.20292808685554,129.27267628363097L482.3742900638772,131.68323948838315L483.22880326565337,132.36329200121418L482.0475644279031,133.92595978067948L483.72316428562226,134.27184491703974L481.88839040012135,135.27361900689266L481.14278574366926,138.15885101533877L482.4832823850038,140.75688847081256L481.3606866101227,142.26996320178114L482.75982631432544,143.62774842273484L480.9669403308735,143.34201562299768L480.12080470950605,145.87852855291385L481.95557859500514,148.52108580562162L480.0790005832632,149.54466660462276L481.01737336493807,152.87579456911953L482.72648354429384,152.86378166364193L481.27716213343865,154.3148100375447L486.3122555111995,156.3359313281644L486.7648124049256,161.26760080917302L489.059515454911,162.2968563608856L487.64822825911506,163.8476306031389L487.91279224844857,167.2876851869496L484.20018371414335,167.09446065936572L484.4624857567678,169.38490879690744L465.5242112586893,169.35477166268356L466.0793097366295,163.80072542481957L462.07558028309086,160.0217131286363L453.7872211048798,155.66530321964365L444.1896974360634,155.80832698763606L441.3026156753158,154.03785308673832L441.39853897100784,145.46310582251317Z" stroke="#FFFFFF" stroke-dasharray="1, 0" stroke-width="1"></path><text x="459.8826539182235" y="130.84963294276508" title="Sherman" class="hint " style="">Sherman</text></a><a id="s09" rel="nofollow " title="Union" class="hint   "><path d="M635.7588233521169,138.206768832506L658.3311246802573,137.06916521151288L658.3135317613956,128.25484948039684L660.3017829200016,128.26237004988252L660.2981805604245,126.64620968063264L663.5254758616047,128.26977123705365L677.6375100615296,128.47831424990545L677.6308917730053,123.32002354109136L684.4581171519826,123.28036214743315L684.3967094875807,97.20199568130556L688.6534418694882,97.22742012336039L688.6431374455842,87.01811332736725L690.4362747564496,87.00874480496077L690.4445685610558,81.77774194163521L696.4810341251741,81.7990178767468L696.4783532994406,76.54421166422162L715.382614821056,76.48682961974555L715.3555552363327,86.99829528374084L711.9421100984532,87.01150731933922L712.0067850192149,97.08686492620836L713.7458031606334,97.0823076264951L713.7292155514228,100.60465641932387L715.4823080279298,100.54364432850343L715.497220121058,105.82782424496327L717.0666760349882,105.78530475847674L717.0658382769479,118.01622539125037L720.6890580282816,117.96242504294878L720.7054780858853,128.3397239916785L722.3511699815408,128.34223081752862L722.4144207136342,135.8102224980039L724.082061869964,135.86113798957922L724.0813078877263,139.25288969974008L729.2041983081795,139.10677386721454L729.21911040131,142.43256876968553L732.5791903519807,144.12724558488935L732.5659537749343,147.52437065980212L734.2387052553136,147.4878271983398L734.348284007071,154.38389886192363L738.0494152562169,154.35952164646005L738.0559497689346,159.52243832025215L755.705668624214,159.52243832025215L755.7057524000184,169.72981519679615L730.7840424218175,169.86316955445545L730.7382170569772,180.127379798123L712.8545123808585,180.21089508562545L711.4941608739532,176.18701512088046L709.4567333183445,176.2119065693605L707.807355287307,172.7464939354386L704.7927667527265,171.5010548735554L696.8379190506216,179.76700843622075L691.1045543457203,178.80746490781712L684.9640392329175,173.71602512319078L680.7238106844161,177.42057285052306L676.2712942483358,178.4029445008773L674.7682725470545,183.87780260465752L669.1631685982256,183.94505161132656L664.1010994115459,180.19431057127622L657.6801029066282,183.73312026642634L656.8243330677915,180.46404082241133L650.7611430221677,179.77068095617778L650.7613105737746,169.715577921771L648.3347444081414,169.7081033404129L648.4201957283203,155.91413647430363L639.2584737924108,155.9105698893436L639.24925845396,148.67830437432076L635.824168479312,148.67997056212153Z" stroke="#FFFFFF" stroke-dasharray="1, 0" stroke-width="1"></path><text x="684.4899817422063" y="142.25315092708698" title="Union" class="hint " style="">Union</text></a><a id="s10" rel="nofollow " title="Clatsop" class="hint   "><path d="M225.1610411083393,29.358524866045627L225.7912864825512,29.249972000769958L227.33535832783946,29.558058821815393L226.43200383227668,29.656066931207533ZM219.52929645380937,30.138938685890025L221.31548037293396,29.59803758241287L221.60693639538295,29.77927161374828L220.71061906736122,30.27776085010555ZM192.0137200291956,27.956651101615535L194.26720538356676,27.643885057856096L194.51978943291397,27.840441028470195L193.3770036892447,28.177190176446857ZM190.5014829894635,31.127589697975964L192.4926663012111,32.30234517112331L192.41299551151496,34.47279555401474L195.41602298513135,34.72277682830554L199.72796362193913,39.37628128864344L203.7240694773036,40.750593377332734L205.09681980321693,39.09236011269695L202.93590671237143,36.85685906328763L211.86808294505863,34.0155415653353L217.2430547600352,36.822369643757156L219.47810943750665,33.382694720123254L223.4355946471842,33.735992198049644L233.3435076701744,26.98958564444183L237.83833088732172,29.555030118029208L239.51074726448496,32.03616619548484L239.2294281143295,37.81958627062795L244.86283648855624,42.0829515114001L245.04053676543208,86.28312494598958L194.12395418019787,85.8604010278159L194.27172927698848,70.86232356216169L192.08744273679895,66.21039242686311L196.79832375271053,62.48943061768023L197.4803425738537,54.688626176425714L195.95553916350673,45.73296768524233L189.76475856824618,31.944006204385005ZM188.60907135074376,25.276516251797148L189.56478572387005,24.44024504682875L191.31704044233447,27.60619702789063L189.18645419257427,26.630475243757246Z" stroke="#FFFFFF" stroke-dasharray="1, 0" stroke-width="1"></path><text x="211.19168181872197" y="60.04840966919774" title="Clatsop" class="hint " style="">Clatsop</text></a><a id="s11" rel="nofollow " title="Deschutes" class="hint   "><path d="M358.94865452670274,341.27271434980776L362.0505374491504,340.04242295382846L360.20813996547804,336.938473985163L361.88306961676426,331.2667999644568L360.6824785682684,326.6133421490199L362.38622709616175,324.199544765288L361.19644312639593,313.31078420632275L365.1255283384844,307.3118389361698L370.0538913418295,307.00042278347337L370.8643384706493,301.222262347118L373.48727512108326,298.05570463829645L372.97875599022154,292.1127324248928L375.68027434489704,290.6037219955324L378.4420275027169,284.930588978531L377.20541285845957,279.4310724484603L378.2419708825355,277.1982457720296L377.69080986738936,270.9002536060525L376.73392263300775,267.64465562985333L372.40288111286736,263.39484818391975L372.252754871929,250.86411812760707L433.8785714679625,251.10211255354716L434.27742807126197,280.63785921977615L443.95370099592674,281.1163359799921L444.0110036459282,301.3007064887988L463.97796124249635,301.71293095781493L464.01155533993733,311.71179819810095L494.9338748381042,311.5919842940921L494.9869049220961,321.68731583301496L505.0166279642408,321.7026335211249L505.06764742893483,331.7371539495066L535.2556720042021,331.8022755935458L535.3271327650973,341.88019971364156Z" stroke="#FFFFFF" stroke-dasharray="1, 0" stroke-width="1"></path><text x="414.8548862975805" y="306.61108321594537" title="Deschutes" class="hint " style="">Deschutes</text></a><a id="s12" rel="nofollow " title="Douglas" class="hint   "><path d="M173.59192336336946,339.97598959142806L178.2623284401643,312.5962147099417L197.80296319542776,312.33744644750277L197.76626939323342,308.55654961010714L201.37809563521205,307.8466094139867L205.63558199935505,303.36879689657053L216.37429967156277,303.2246371141355L223.47748254923135,305.9237312629484L223.43040054733137,309.34756000294783L226.7809300563331,309.4190534024201L226.77179849368713,312.0650686431909L231.01789134847513,312.06053666933894L231.00549252947167,316.5061398671555L235.94005494231624,316.3758408258909L235.93000184582525,318.8289305371618L246.16497560800235,318.92691069715966L246.16112192101627,322.2975602842657L263.8317009515149,322.35557654781996L263.84074873835834,342.48855762195353L266.345058850191,342.4905244593392L266.33190604894935,350.10796537193664L296.96285330046976,349.57158522103055L296.9736603791989,361.95743385588094L348.0502601718881,361.63138035298107L351.43924277497354,362.9466926744408L356.2887727466641,371.267070885518L357.28495083316557,370.6457770605475L359.1707441833605,376.7559557434788L358.4706297885332,379.14632909209286L361.2730142113378,382.19946941906846L355.705358046941,387.20848133117534L355.8474418106862,390.25857104422903L351.3930823069177,402.2861268485731L352.7226880937187,404.475966797469L335.4377290894736,404.4788336837537L335.4255815978786,412.6412787618119L325.515322852375,412.6260446019969L322.20785410667577,417.4594606636524L320.557051886969,417.4648404733698L320.55587902571096,419.1243728870563L312.1741936017388,419.2031051259546L312.1720154308323,420.86165619060694L308.8291095200011,422.4193890205229L308.8250045055993,424.1783885017321L302.3801318965152,425.84926036201705L302.3787077078441,427.50419159699595L300.7183550464715,427.5077349304752L297.4217771553049,432.4296503849355L294.166584511363,431.82379420482266L292.528516213878,437.5991311574285L279.4240536098132,437.99266742792315L274.51763986714286,440.57487682195506L262.5822686092315,440.1537588609658L262.5998615280914,442.22020246724105L260.21317264520985,442.2151836824064L256.09919423347856,446.22394412901303L254.45802623124473,446.2454898549954L254.44805691055626,443.73901971325677L252.35743171934791,442.8693066450992L244.61931202243613,442.0205889608037L244.17119524633017,443.676184075573L241.80511521125482,443.6766402346657L241.70810283011178,445.3475816834457L237.19225188613473,446.58918661551115L229.88406961584315,445.40059745595454L226.60340912745596,441.9693729301348L218.59645287520198,441.99652089458823L216.94397513941385,440.3737336583936L216.9571279406573,442.0066728377187L215.30992808052633,441.9992584986644L215.31076583856884,436.78242781810377L209.71378814273703,435.1784239717258L207.3477918834642,436.45834564675397L206.54588988666092,412.6651035471514L211.53256084965506,412.6620109112978L211.55442633452458,402.70790731616535L216.5130324031461,402.2579078337744L216.2945451060641,382.65409326451527L211.30117207874173,382.6180879478634L211.53809005272524,363.69947375179436L206.83944030421117,362.65990856866256L206.91961374873063,352.8307205158044L201.97927080540103,352.8887136607177L201.97340649911712,342.19919507753366L173.21582217662217,341.90704779553516Z" stroke="#FFFFFF" stroke-dasharray="1, 0" stroke-width="1"></path><text x="252.24284970256673" y="379.8016002503778" title="Douglas" class="hint " style="">Douglas</text></a><a id="s13" rel="nofollow " title="Wasco" class="hint   "><path d="M375.4252607972294,177.92007150108748L377.37815856650377,177.47947175634818L377.6534458587639,174.8643181420266L382.765445424684,174.8300559392601L384.9803101333673,171.4947683900673L387.70335886969497,171.4161275475244L388.21204555216536,167.1877503391006L387.0070981618546,164.98845450432964L384.6569355295587,165.3597032764028L380.16864682512914,156.52019083793402L380.3176839806165,154.8323050408635L385.7013684792182,152.0980041029652L385.8445413284189,149.52895882746088L384.5392305248033,148.65557277112111L402.5167641015096,148.6308178492509L402.49330687636393,117.4394632419644L405.9718458140251,117.4645720763865L405.9233735080861,96.15897819275415L414.5903654361791,95.24186487234056L424.8102595536211,99.28468166678158L427.4858911848305,107.04867743513842L431.8328501077476,106.65097241001786L437.49467027594983,101.52492476696352L447.58069065844666,101.05797446643464L450.8648697306071,105.22773559726375L451.3957570011635,114.52440797142663L457.48684438955024,118.10027262991844L456.3851925656927,119.49126335146411L456.6204350235921,123.46982681791269L454.132461193557,126.34817396875042L455.4980905761222,127.97204610025165L454.37549480123835,128.46136365642087L454.03268421087887,133.0104712573475L452.85127782152176,132.61346248191512L451.17567796380354,136.30541002316477L448.04187645999446,138.06396796539684L448.4357902908523,139.91156348106233L446.76848423773936,139.2081971830512L446.2575356085581,142.6992810713491L444.3302732353377,141.02926695165297L440.2733461461976,145.32986509024067L441.42744162342024,145.7928028244287L440.8766994872958,153.35082245680587L444.1896974360634,155.80832698763606L453.7872211048798,155.66530321964365L462.07558028309086,160.0217131286363L466.0793097366295,163.80072542481957L465.5242112586893,169.35477166268356L484.4624857567678,169.38490879690744L486.2289823619294,172.60276004981824L486.72066255616755,183.1368354896913L485.6856124965652,185.04971069150452L486.98975043892096,190.15419168460994L490.12522745881415,191.8216034208599L488.160433525356,194.1602347859607L495.5453544321972,200.36572939128564L382.1441640615112,199.92280232327903L379.8046409563349,199.40306449071068L380.7198916160796,197.0121137686565L379.7888911051641,195.70221093428063L383.0374654605839,190.42163430475648L380.28191171226626,189.38835572957396L378.8756510647163,186.15608390346188L376.27633919103937,186.89979876949656L377.0736335186166,185.15885276540666Z" stroke="#FFFFFF" stroke-dasharray="1, 0" stroke-width="1"></path><text x="419.85178845371144" y="160.0604970696263" title="Wasco" class="hint " style="">Wasco</text></a><a id="s14" rel="nofollow " title="Grant" class="hint   "><path d="M554.1224857413836,179.8607163079305L654.9346860306077,179.85372676416318L657.5752993757033,181.08507856503184L657.6801029066282,183.73312026642634L664.1010994115459,180.19431057127622L669.1631685982256,183.94505161132656L673.7179752911061,184.2095421263457L675.4951114233895,186.75281383802303L674.3264389562546,190.12781353646824L675.1074807778386,195.19349790622618L669.937005700659,195.08983587044804L667.5153823074656,198.6523276474436L669.4951721098569,201.37880198365656L670.3018493274953,208.722084488355L663.4169861953005,209.16585543297515L654.791429405605,214.2612534438549L650.6982273932904,214.03894790887898L651.9552833337461,218.79112566421463L664.4890651603127,221.88751087511082L668.597933247991,227.82516240649784L663.0895065770892,234.59985692095324L663.9941177097148,241.58774501211792L658.9525735950388,243.53946673374958L657.6923341740276,249.7763902432771L660.0667080137068,253.41773086142166L657.9555577504948,253.61754892225144L654.9347698064125,257.666098354106L652.536352310954,266.95201531328803L674.7645026358705,266.70696627985035L675.143588149404,292.09898067153426L625.7791144650164,291.17055743752553L625.7756796570497,301.31455632642974L555.3828927140057,301.52555924553053L555.7809953350675,200.1850186270367L554.1807937010344,200.17982164522618Z" stroke="#FFFFFF" stroke-dasharray="1, 0" stroke-width="1"></path><text x="600.7818022919978" y="239.0332671039137" title="Grant" class="hint " style="">Grant</text></a><a id="s15" rel="nofollow " title="Curry" class="hint   "><path d="M164.4258450856487,518.355469980143L164.60344979033107,518.2813273198249L164.65991468229095,518.5376071390956L164.47627811971324,518.6402970523709ZM155.76719685333228,490.3349129516446L155.92595200209507,490.24008604979963L155.95200627716986,490.5202579498314L155.7935024558201,490.51799214764605ZM151.5913081223771,450.26290648546683L151.72074173970486,450.1052204770235L151.7837411443852,450.35245781446247L151.69418480980585,450.45374287671166ZM144.26050638498236,430.4442037095873L145.52577235423814,430.1311421696241L151.37798451805156,417.46947180988536L169.9132440297226,417.39925230013887L173.16081307549302,419.82137438194786L173.61504548529956,423.2276911946374L178.04619909133362,425.5726956901958L179.2970556222872,428.0210422803848L179.73201959715425,431.86091924036964L178.1006533639984,431.882280326196L177.74636548847684,436.2538888391491L178.15862622043096,441.9662931124594L179.94397238151487,441.96526650627175L180.42459416961265,450.31679692472153L184.03080743271858,448.17943609351505L191.87063095579924,448.15698451238404L191.87021207677844,446.51007514168396L197.76417499812942,441.9933270218248L197.78302455405083,438.02222741729884L209.71378814273703,435.1784239717258L215.31076583856884,436.78242781810377L205.69590057830374,454.2331809734633L206.68956539068586,456.49507290171323L204.15450955874894,459.80605921336064L202.0140377641019,467.77815577441606L198.3188545970488,469.88166944616523L190.85644107141798,469.69817230462604L190.83692130906275,478.4110458695818L188.04274691505816,482.0377144337108L189.30239990544032,485.2647196134353L200.94061838622292,486.14274451348L202.4857793169649,489.39066626417116L205.00625815899002,490.5909506163316L204.35121514676484,492.0616296244325L207.2927511801754,498.314435094851L208.9685185895005,499.0349292321039L209.11412093701892,500.977083586904L206.60009283191175,503.40691788471986L207.25924085853603,506.7221623525047L203.410077763554,510.6247028552889L206.4726698338818,516.0361453172181L204.21407415545946,521.0226284323712L206.79361493937085,526.0090267128558L173.83252747273036,526.0463400214535L168.90156741946157,520.7356397936805L167.15861181524997,520.9132040883128L162.14764586906767,514.5666666917846L161.31608723761474,505.46726941515954L156.8642410079683,497.3893529827383L157.05977373472706,491.13573645225506L155.27970544930122,489.2569615210191L155.10737862027509,475.8794740877056L158.88926974456808,460.7839344702379L157.35516721996828,458.5017882031407L157.95098073869758,454.8162846322016L156.64432952221523,450.89817235549117L153.79880056030106,449.2798182149413L151.86156886639037,442.7961984325293L148.52737563918527,442.76449135971507L147.62460757424833,436.27820478283775Z" stroke="#FFFFFF" stroke-dasharray="1, 0" stroke-width="1"></path><text x="169.2778616066208" y="473.71938351191625" title="Curry" class="hint " style="">Curry</text></a><a id="s16" rel="nofollow " title="Jefferson" class="hint   "><path d="M371.718767896622,241.9792607998088L371.93926581300184,239.31087508229393L375.0806909149833,236.5699011453271L374.4997057135806,233.8729617617164L376.3781267930135,227.20801773377116L374.8977245588394,224.65332145755838L376.402505552006,215.1698490772569L375.4734318845858,211.29395032425327L379.22122625661177,207.38292906785773L374.8159593740411,205.09474885933741L374.16786975355626,202.92056090743154L379.8046409563349,199.40306449071068L495.5453544321972,200.36572939128564L494.4042442046102,203.36069579130526L492.76106558307674,203.55985692607464L494.35188432705036,207.51873242783404L494.27866427427125,230.74202295105806L457.33403732287843,230.88500545728402L457.38899425036743,241.02420475356212L443.82359717216696,241.02596588907272L443.8612125082036,251.14138670223474L372.252754871929,250.86411812760707Z" stroke="#FFFFFF" stroke-dasharray="1, 0" stroke-width="1"></path><text x="419.0599748485208" y="222.927178847942" title="Jefferson" class="hint " style="">Jefferson</text></a><a id="s17" rel="nofollow " title="Marion" class="hint   "><path d="M260.17999742678694,196.1379671549812L262.81943791062713,195.70055626024714L265.99705415997596,187.5514883470869L269.21580432913925,187.80578062260247L271.8606902402453,185.42672875287099L272.0253096952947,180.77652123284952L269.9521936471401,180.49318099866832L269.0041866479942,177.56254560163688L269.5876851235198,170.12702311539306L275.63479021475723,165.27944783035764L272.6014359000601,161.8532206720256L273.0170476641788,160.10713985003895L275.274889360363,159.76233721412427L273.6165473182882,155.5642455338466L271.08626670718604,154.08030707797025L275.40733890663796,152.67882780142736L275.26969526051016,148.4857379023706L278.08121124596073,145.41416784285775L279.74927128131094,147.51710959687625L286.4628966699347,149.24442754407755L289.17840558389344,146.76274977344656L297.2022007727692,148.46371975469992L295.484294133983,155.15096333316797L296.120990245111,157.66201238825306L293.05387428136146,163.82043751401488L300.02971793680626,172.254085985659L309.2213478347767,176.95730387514595L309.26876493989494,180.3614569303736L311.45975354441,181.20897134495863L316.75128465850776,188.92424602406209L325.6385570602015,190.63737866856627L325.5182550055197,192.80461469583588L381.4556945034519,193.20827864518105L379.7888911051641,195.70221093428063L380.71762966936876,197.45192175077318L379.7547943528971,199.5224895807105L374.16786975355626,202.92056090743154L374.8159593740411,205.09474885933741L379.22122625661177,207.38292906785773L375.4734318845858,211.29395032425327L375.86541887194744,216.68598799694337L356.2488116881095,216.40625942443967L347.18435346075603,211.65583965522274L340.7552307028409,215.50431004138954L335.4136854336966,208.7623105304874L332.3989293475079,207.74125059063772L316.9596350832944,208.86505690978265L307.33689489744575,204.25114998417394L301.2338275690727,205.8381671551333L298.3194348961906,203.7470890554805L293.47610433400405,203.59491907202028L274.76209766349257,216.27676030196199L273.93941926727257,212.12394432625388L272.0341061547233,211.96264639455694L270.1287092663715,209.06806787868754L262.95088214725274,208.66652261463514L264.5503297990481,204.18705250239418L267.671983811264,201.57577738215423L260.83855902278265,199.38581796435756Z" stroke="#FFFFFF" stroke-dasharray="1, 0" stroke-width="1"></path><text x="300.88674971545896" y="190.68218093318075" title="Marion" class="hint " style="">Marion</text></a><a id="s18" rel="nofollow " title="Benton" class="hint   "><path d="M206.9152574069194,256.49030139833667L213.76082968699302,256.3548808916912L213.74767688574957,254.647603713006L215.3909392830874,254.6349486874824L215.01118356312054,246.085600408348L225.26483932961492,246.1166907675024L224.85165706381395,212.23902005156742L262.8510213887721,212.3485524171665L265.542989301779,217.44699436717565L269.16620905311447,219.75989057697097L267.3486092074545,221.6703986763896L261.0201011902591,222.47829427765555L258.7457556606696,226.17253416993026L259.8057709098912,228.0030252539491L254.29047462305152,229.4935034734799L253.48773486820846,231.50840248362056L255.0524993371073,232.70365619887616L254.2469949807264,235.15276265922967L257.52338290310763,237.67969609439206L256.8196661487027,240.05527676431302L258.1376270987357,244.95170320509442L256.2303033668886,246.2598219232268L256.6022679370735,250.7677456227275L254.80326631992193,252.13617868585334L256.987887963327,254.39602211485544L254.75383859550675,257.95714671448513L256.88031983086876,258.26973180152345L260.2235608449164,263.62035542132617L210.35936448909797,263.64118550388685L210.343363310516,259.8228427259146L206.9306721548719,259.9240058334308Z" stroke="#FFFFFF" stroke-dasharray="1, 0" stroke-width="1"></path><text x="230.364322939105" y="239.04236422399663" title="Benton" class="hint " style="">Benton</text></a><a id="s19" rel="nofollow " title="Harney" class="hint   "><path d="M531.4013985851693,440.400659563898L532.308690543528,391.7102823852897L535.2946277531073,391.70407863893206L535.2556720042021,331.8022755935458L545.300893570105,331.8304329837106L545.479000929613,301.5062398858454L625.7756796570497,301.31455632642974L625.7791144650164,291.17055743752553L675.143588149404,292.09898067153426L675.0474135263012,422.0130869609843L676.0494559190915,422.0041645246124L676.2282334850311,494.7034004645875L677.8549082731583,494.71223190544106L677.6799663046631,526.2115892954171L580.2694603430928,526.5058386548831L579.832526036128,440.93835755593864Z" stroke="#FFFFFF" stroke-dasharray="1, 0" stroke-width="1"></path><text x="604.1248206184198" y="403.8540175794989" title="Harney" class="hint " style="">Harney</text></a><a id="s20" rel="nofollow " title="Coos" class="hint   "><path d="M152.80362778344625,413.22187039937444L155.0170683034603,404.06679279438004L154.87867067509524,399.1676988331992L157.9049878222486,391.028641657962L159.51901246395664,381.2245514907095L157.8138397473922,377.11526605061044L165.16952289860546,367.60914651244457L173.21582217662217,341.90704779553516L201.97340649911712,342.19919507753366L201.97927080540103,352.8887136607177L206.91961374873063,352.8307205158044L206.83944030421117,362.65990856866256L211.53809005272524,363.69947375179436L211.30117207874173,382.6180879478634L216.2945451060641,382.65409326451527L216.5130324031461,402.2579078337744L211.55442633452458,402.70790731616535L211.53256084965506,412.6620109112978L206.54588988666092,412.6651035471514L207.34720545283471,436.3873401004439L197.78302455405083,438.02222741729884L197.76417499812942,441.9933270218248L191.87021207677844,446.51007514168396L191.87063095579924,448.15698451238404L184.03080743271858,448.17943609351505L180.42459416961265,450.31679692472153L179.94397238151487,441.96526650627175L178.15862622043096,441.9662931124594L177.74619793686816,433.077370114303L179.73201959715425,431.86091924036964L178.04619909133362,425.5726956901958L173.61504548529956,423.2276911946374L173.16081307549302,419.82137438194786L169.9132440297226,417.39925230013887L151.37798451805156,417.46947180988536Z" stroke="#FFFFFF" stroke-dasharray="1, 0" stroke-width="1"></path><text x="177.49672578052449" y="391.99200467377227" title="Coos" class="hint " style="">Coos</text></a><a id="s21" rel="nofollow " title="Hood River" class="hint   "><path d="M365.64361029542215,101.9308552008115L370.2397060753128,96.64191395352736L374.91967381951235,95.02449039774456L383.62783355204647,96.45816817544164L398.22593496733407,92.65114724669093L405.9233735080861,96.15897819275415L405.9718458140251,117.4645720763865L402.49330687636393,117.4394632419644L402.5167641015096,148.6308178492509L384.5392305248033,148.65557277112111L385.99676196446217,143.9818306953648L383.96695800702673,139.87891136487815L384.50161518876484,134.8723309414254L377.8602045432708,131.40606858519277L370.07349487998636,118.0868825284906L366.9911317198912,117.3297006655257Z" stroke="#FFFFFF" stroke-dasharray="1, 0" stroke-width="1"></path><text x="379.34067953814355" y="117.4376266200309" title="Hood River" class="hint " style="">Hood River</text></a><a id="s22" rel="nofollow " title="Morrow" class="hint   "><path d="M526.1969105315266,137.62195747932037L526.70491225364,82.32960594347787L554.3194426568134,76.99266485699627L558.2136771344003,71.1233446844899L562.5540177687958,68.73705402458563L569.5706602408322,71.04292044374688L574.2352171090279,69.60481915270248L574.0266114848805,107.46252433171503L589.6167021964679,107.58825401650483L589.644599539231,117.86127922345713L598.2793716673773,117.88124548085852L598.172138638135,169.44862347816706L596.7803712046916,169.44826753189136L596.7863192867844,179.72755833847896L544.1586942570643,179.90360114775103L544.1864240482187,169.64878097385463L546.7080757514991,169.64581484189603L546.7895058330823,159.2049364683371L536.3883208755765,159.2119473362036L536.5196813363978,148.77506159954464L526.113972485472,148.68104168263562Z" stroke="#FFFFFF" stroke-dasharray="1, 0" stroke-width="1"></path><text x="552.4968327746603" y="129.35501105308253" title="Morrow" class="hint " style="">Morrow</text></a><a id="s23" rel="nofollow " title="Umatilla" class="hint   "><path d="M574.015553078741,80.39971064432484L574.2352171090279,69.60481915270248L588.8959789538326,66.9940910310379L599.8731225644951,67.84539314364883L608.1722888214326,63.47449720409986L611.5172053515644,59.770582099967214L696.086003139359,59.665843408263754L696.4810341251741,81.7990178767468L690.4445685610558,81.77774194163521L690.4362747564496,87.00874480496077L688.6431374455842,87.01811332736725L688.6534418694882,97.22742012336039L684.3967094875807,97.20199568130556L684.4581171519826,123.28036214743315L677.6308917730053,123.32002354109136L677.6375100615296,128.47831424990545L663.5254758616047,128.26977123705365L660.2981805604245,126.64620968063264L660.3017829200016,128.26237004988252L658.3135317613956,128.25484948039684L658.3311246802573,137.06916521151288L635.7588233521169,138.206768832506L635.824168479312,148.67997056212153L639.24925845396,148.67830437432076L639.2584737924108,155.9105698893436L648.4201957283203,155.91413647430363L648.3347444081414,169.7081033404129L650.7613105737746,169.715577921771L650.7611430221677,179.77068095617778L596.7863192867844,179.72755833847896L596.7803712046916,169.44826753189136L598.172138638135,169.44862347816706L598.2793716673773,117.88124548085852L589.644599539231,117.86127922345713L589.6167021964679,107.58825401650483L574.0266114848805,107.46252433171503Z" stroke="#FFFFFF" stroke-dasharray="1, 0" stroke-width="1"></path><text x="623.5069149825842" y="108.56970554567962" title="Umatilla" class="hint " style="">Umatilla</text></a><a id="s24" rel="nofollow " title="Baker" class="hint   "><path d="M650.6982273932904,214.03894790887898L654.791429405605,214.2612534438549L663.4169861953005,209.16585543297515L670.3018493274953,208.722084488355L669.4951721098569,201.37880198365656L667.5153823074656,198.6523276474436L669.937005700659,195.08983587044804L675.1074807778386,195.19349790622618L674.3264389562546,190.12781353646824L675.4951114233895,186.75281383802303L673.741432516254,185.87699229946156L673.6782655599654,183.9384214571519L674.7682725470545,183.87780260465752L676.2712942483358,178.4029445008773L680.7238106844161,177.42057285052306L683.2944712330941,173.94581784883485L696.0805857815949,179.88038176534428L700.7747116366872,177.0214215233218L704.7927667527265,171.5010548735554L707.807355287307,172.7464939354386L709.4567333183445,176.2119065693605L711.4941608739532,176.18701512088046L712.8545123808585,180.21089508562545L730.7382170569772,180.127379798123L730.7840424218175,169.86316955445545L796.105215888002,170.003196884546L790.7291488360838,176.6038755768559L789.9734910831389,182.223006817032L792.5448218382503,181.356076280048L790.4951630152445,184.24304668051536L792.050125715064,187.40806756738039L789.9672916736372,193.39366753425202L786.5228494882408,196.52016160254698L783.4610951759537,204.8392132842573L772.7735645200501,211.53285367868375L767.5391685043464,228.4104925379106L765.5703533322903,230.6994568579239L765.4876666136493,234.01693661895297L759.1346122858531,240.33767964637082L759.972705430026,246.81436827756806L757.6307528265315,251.0582659249585L762.0924846010621,257.43172811464683L759.5547853376456,261.5511924139282L737.1905457126272,261.6784336578803L737.2131651797331,251.49531284473142L735.3307228617027,251.5073875119988L733.6429755123886,248.15626231507213L730.2664755041142,248.161422939148L728.4916850943459,244.77158120347394L696.5782978337279,244.8565383594123L696.5648937050728,246.56402436599183L691.5614675812599,248.21842411946636L691.5499902960978,251.17796421465846L689.8620753951773,251.16870261936947L689.8665992885994,253.28189813712743L686.9248957035807,254.9644404526407L686.4971364478688,258.35124284673475L681.442607083558,261.7730143993349L681.4016407153549,265.1462844891521L678.0120716816409,265.14347655712027L678.0170982298878,266.8406623717401L652.536352310954,266.95201531328803L654.9347698064125,257.666098354106L657.9555577504948,253.61754892225144L660.0667080137068,253.41773086142166L657.6923341740276,249.7763902432771L658.9525735950388,243.53946673374958L663.9941177097148,241.58774501211792L663.0895065770892,234.59985692095324L668.597933247991,227.82516240649784L664.4890651603127,221.88751087511082L651.9552833337461,218.79112566421463Z" stroke="#FFFFFF" stroke-dasharray="1, 0" stroke-width="1"></path><text x="712.3793548068601" y="213.554042399522" title="Baker" class="hint " style="">Baker</text></a><a id="s25" rel="nofollow " title="Malheur" class="hint   "><path d="M674.7608165004904,266.84896711761576L681.4016407153549,265.1462844891521L681.442607083558,261.7730143993349L686.4971364478688,258.35124284673475L686.9248957035807,254.9644404526407L689.8665992885994,253.28189813712743L689.8620753951773,251.16870261936947L691.5499902960978,251.17796421465846L691.5614675812599,248.21842411946636L696.5648937050728,246.56402436599183L696.5782978337279,244.8565383594123L728.4916850943459,244.77158120347394L730.2664755041142,248.161422939148L733.6429755123886,248.15626231507213L735.3307228617027,251.5073875119988L737.2131651797331,251.49531284473142L737.1905457126272,261.6784336578803L759.5547853376456,261.5511924139282L761.3906109143463,264.7784356288703L764.8327073772293,266.6897715807345L768.970143014104,263.96696914421136L773.5479042773059,270.01257976999295L775.3212704984048,267.7254708192477L780.0091131681907,268.4027139112741L780.3634848195143,273.7317911347018L786.7235763148547,276.7679689332854L783.5445358768325,285.0823639414375L779.8879733554668,286.7941216166255L780.2369833553307,290.98441488306435L783.2397595015336,293.3209151727915L783.3870373651343,298.27146450020973L779.9860748220631,299.68660305053254L781.4080853207852,300.65962650149504L780.3085278920275,301.5910817321337L781.446119535844,305.6761080613169L779.505285482358,306.9284392368281L779.419750386377,312.1325830820206L776.2249600971863,313.14882248037156L777.2363853800343,315.0820079752966L775.2359029540307,316.5103205445007L776.1851665902409,317.7438586135231L775.7958604286077,525.8851361179809L677.6799663046631,526.2115892954171L677.8549082731583,494.71223190544106L676.2282334850311,494.7034004645875L676.0494559190915,422.0041645246124L675.0474135263012,422.0130869609843Z" stroke="#FFFFFF" stroke-dasharray="1, 0" stroke-width="1"></path><text x="716.8370010926823" y="388.7294097201293" title="Malheur" class="hint " style="">Malheur</text></a><a id="s26" rel="nofollow " title="Columbia" class="hint   "><path d="M244.630537980187,52.701263418248345L244.86283648855624,42.0829515114001L251.86457866385445,42.26210569389332L261.3942439313487,36.92390114256341L265.625759796224,37.372242805164205L283.3682184666395,49.64712165226683L285.5486513198384,55.97953932764631L290.91817770755006,64.45676713702778L291.12661190813924,70.27017235292078L293.34533030381226,75.689565247686L292.45906607228335,82.62788528716828L294.64335261247015,86.1625210126158L295.25847424001586,92.40683748416723L281.27156141753585,93.25824151654888L281.29208648953954,91.55334185544052L272.66854031914136,89.66479671860361L272.7493001942894,86.33357614637498L245.04053676543208,86.28312494598958Z" stroke="#FFFFFF" stroke-dasharray="1, 0" stroke-width="1"></path><text x="258.72979280884203" y="66.3906066212748" title="Columbia" class="hint " style="">Columbia</text></a><a id="s27" rel="nofollow " title="Tillamook" class="hint   "><path d="M190.23197622768748,171.60543337023682L192.43712294309353,168.13090096371434L194.03455997559104,158.78700432672758L194.56167733496295,141.61747642045248L193.8303145652062,139.25050610632115L190.91014136184185,139.2596829363638L193.78851043896339,137.11673311607956L194.43107085637712,133.36618462501337L194.74045490090248,126.5677616552839L193.3485199158522,121.35411410756569L194.73542835265653,120.12067703300727L195.7956111534886,114.35574457221901L196.55755209174004,100.36000537598193L196.32499045956956,92.59234294410362L193.33561844202177,87.08381272533188L194.12395418019787,85.8604010278159L245.04053676543208,86.28312494598958L245.09029959306372,94.79235259095458L234.72740017803153,94.78419463038972L234.69405740799994,98.3240572862378L238.16002997504893,100.01740700525443L239.87567466712608,103.4869355845185L250.25005136731943,106.95215739174091L248.52770461091586,110.37178549026339L245.081670685242,110.36041475554885L245.08033027237525,113.81587363374092L241.65364855744974,113.79601493534119L239.98500209147005,117.22376253720358L238.24640282907149,117.25879643694861L236.47353926279902,126.08379952453834L234.66750047810365,126.09860667828161L234.61396773928573,127.76265173672891L236.3900147861159,127.74677379150216L236.5041174312937,153.60568721081927L209.61024124887444,153.60782789136374L209.65413977022126,170.1940526224862L214.65170158774617,170.17981632242936L214.6264850707139,174.01601097852654L190.81591750047573,173.94881709782385Z" stroke="#FFFFFF" stroke-dasharray="1, 0" stroke-width="1"></path><text x="206.7035655834952" y="123.88466396353685" title="Tillamook" class="hint " style="">Tillamook</text></a><a id="s28" rel="nofollow " title="Lake" class="hint   "><path d="M413.4568788067627,421.39947155729806L414.99257307164044,341.24598377566826L535.3271327650973,341.88019971364156L535.2946277531073,391.70407863893206L532.308690543528,391.7102823852897L531.373082363386,441.23348651712604L579.832526036128,440.93835755593864L580.2694603430928,526.5058386548831L452.94661659424037,526.5756561335625L452.661693176854,441.47955099756837L413.59267938520316,441.20234283619266Z" stroke="#FFFFFF" stroke-dasharray="1, 0" stroke-width="1"></path><text x="485.12424394643756" y="435.3666744508183" title="Lake" class="hint " style="">Lake</text></a><a id="s29" rel="nofollow " title="Jackson" class="hint   "><path d="M255.98341607221846,525.3168352794441L256.09785382061455,445.3864599554536L262.5998615280914,442.22020246724105L262.5822686092315,440.1537588609658L274.51763986714286,440.57487682195506L279.4240536098132,437.99266742792315L292.528516213878,437.5991311574285L294.166584511363,431.82379420482266L297.4217771553049,432.4296503849355L300.7183550464715,427.5077349304752L302.3787077078441,427.50419159699595L302.3801318965152,425.84926036201705L308.8250045055993,424.1783885017321L308.8291095200011,422.4193890205229L312.1720154308323,420.86165619060694L312.1741936017388,419.2031051259546L320.55587902571096,419.1243728870563L320.557051886969,417.4648404733698L322.20785410667577,417.4594606636524L325.515322852375,412.6260446019969L335.4255815978786,412.6412787618119L334.8376424957132,524.9594214800209Z" stroke="#FFFFFF" stroke-dasharray="1, 0" stroke-width="1"></path><text x="289.0668122904973" y="476.7897918452931" title="Jackson" class="hint " style="">Jackson</text></a><a id="s30" rel="nofollow " title="Lincoln" class="hint   "><path d="M182.0090192093112,262.9044626098266L186.6773688599069,219.57910415158494L184.9207577996267,217.4194257149311L186.70920366546125,210.5870964281703L185.35496779225377,203.15987597175354L188.85428312933163,191.0239035354325L190.81591750047573,173.94881709782385L214.6264850707139,174.01601097852654L214.59816884892825,210.12914713214013L216.30912209597682,210.13693122978293L216.31842121023237,212.23902005156742L224.85165706381395,212.23902005156742L225.26483932961492,246.1166907675024L215.01118356312054,246.085600408348L215.3909392830874,254.6349486874824L213.74767688574957,254.647603713006L213.76082968699302,256.3548808916912L206.9152574069194,256.49030139833667L206.9306721548719,259.9240058334308L210.343363310516,259.8228427259146L210.35936448909797,263.64118550388685L186.256646771737,264.6303077247712L181.95159932545994,264.50160000380765Z" stroke="#FFFFFF" stroke-dasharray="1, 0" stroke-width="1"></path><text x="193.44314160406415" y="221.56790378296077" title="Lincoln" class="hint " style="">Lincoln</text></a><a id="s31" rel="nofollow " title="Polk" class="hint   "><path d="M214.6264850707139,174.01601097852654L214.65119893292194,170.24518442032695L269.58307745429556,170.4072376399272L269.0041866479942,177.56254560163688L269.9521936471401,180.49318099866832L272.0253096952947,180.77652123284952L272.1442713371098,184.4257205480617L269.21580432913925,187.80578062260247L265.99705415997596,187.5514883470869L262.81943791062713,195.70055626024714L260.21149712912575,195.99472734252504L260.83855902278265,199.38581796435756L267.671983811264,201.57577738215423L263.12019304732985,206.45016650528578L264.2400242206786,209.88016926121145L262.8510213887721,212.3485524171665L216.31842121023237,212.23902005156742L216.30912209597682,210.13693122978293L214.59816884892825,210.12914713214013Z" stroke="#FFFFFF" stroke-dasharray="1, 0" stroke-width="1"></path><text x="231.69288307093544" y="190.6767122978745" title="Polk" class="hint " style="">Polk</text></a><a id="s32" rel="nofollow " title="Wallowa" class="hint   "><path d="M696.086003139359,59.665843408263754L785.0286242463899,60.3062644236943L788.3804103924567,65.24898609946558L789.7363217817442,70.92770019684667L795.0765266380236,76.79947760247796L796.197028017803,80.77962023433884L802.1328788412025,80.67250234006133L806.0266106639629,85.99254265824948L812.086952332249,86.40781079310909L815.9708823859296,89.71858416145733L816.9131088545937,96.8269739673824L820.8926271007504,101.85809839803551L822.9249443323083,107.486473024519L817.4859678030016,113.6751866509021L815.0540399859065,119.39850770683915L815.285093653602,124.21234314236972L812.4898301741437,126.6020305397642L805.3187888951584,141.0831217628529L805.2601458322915,146.46191086799718L802.8210970718483,150.81687534133198L800.6429261653584,162.42679394810511L796.8529087880697,166.76710579549308L796.105215888002,170.003196884546L755.7057524000184,169.72981519679615L755.705668624214,159.52243832025215L738.0559497689346,159.52243832025215L738.0494152562169,154.35952164646005L734.348284007071,154.38389886192363L734.2387052553136,147.4878271983398L732.5659537749343,147.52437065980212L732.5791903519807,144.12724558488935L729.21911040131,142.43256876968553L729.2041983081795,139.10677386721454L724.0813078877263,139.25288969974008L724.082061869964,135.86113798957922L722.4144207136342,135.8102224980039L722.3511699815408,128.34223081752862L720.7054780858853,128.3397239916785L720.6890580282816,117.96242504294878L717.0658382769479,118.01622539125037L717.0666760349882,105.78530475847674L715.497220121058,105.82782424496327L715.4823080279298,100.54364432850343L713.7292155514228,100.60465641932387L713.7458031606334,97.0823076264951L712.0067850192149,97.08686492620836L711.9421100984532,87.01150731933922L715.3555552363327,86.99829528374084L715.382614821056,76.48682961974555L696.0880418281608,76.54336958327258Z" stroke="#FFFFFF" stroke-dasharray="1, 0" stroke-width="1"></path><text x="753.7381982501121" y="110.05982865259124" title="Wallowa" class="hint " style="">Wallowa</text></a><a id="s33" rel="nofollow " title="Yamhill" class="hint   "><path d="M209.54389081203044,159.47692905154236L209.61024124887444,153.60782789136374L236.5041174312937,153.60568721081927L236.3900147861159,127.74677379150216L263.99020477286376,127.73161210962917L265.7315686367974,131.2019117420432L272.64139695861377,131.1328239524446L276.0565176125756,136.3650256217752L277.8238519757797,136.40389470833998L277.82980005787067,138.11057525841443L282.97639903088475,138.14263993548138L282.97045094879195,141.56386414972167L286.40324829741985,141.57947132135632L286.3880011010733,148.44431992189948L287.9083643938029,148.44408188679517L283.7622160733017,148.79838785742322L278.08121124596073,145.41416784285775L275.6669601235317,147.8353987017581L275.40733890663796,152.67882780142736L271.0557723144939,154.33680913738044L273.6165473182882,155.5642455338466L275.274889360363,159.76233721412427L273.0170476641788,160.10713985003895L272.6014359000601,161.8532206720256L275.60035835927465,165.4245242887373L269.58307745429556,170.4072376399272L209.65413977022126,170.1940526224862Z" stroke="#FFFFFF" stroke-dasharray="1, 0" stroke-width="1"></path><text x="240.5345687353214" y="151.63498566413807" title="Yamhill" class="hint " style="">Yamhill</text></a><a id="s34" rel="nofollow " title="Crook" class="hint   "><path d="M433.81146704888124,266.15753344484983L433.8785714679625,251.10211255354716L443.8612125082036,251.14138670223474L443.82359717216696,241.02596588907272L457.38899425036743,241.02420475356212L457.33403732287843,230.88500545728402L494.27866427427125,230.74202295105806L494.31946309086743,245.76776672497635L524.8518062209678,245.44980097345524L524.9282935301062,251.2091487347334L535.1007705424308,251.22227901657334L535.1243115433808,260.94058895720536L555.5224632036293,260.8908345596119L555.3828927140057,301.52555924553053L545.479000929613,301.5062398858454L545.300893570105,331.8304329837106L505.06764742893483,331.7371539495066L505.0166279642408,321.7026335211249L494.9869049220961,321.68731583301496L494.9338748381042,311.5919842940921L464.01155533993733,311.71179819810095L463.97796124249635,301.71293095781493L444.0110036459282,301.3007064887988L443.95370099592674,281.1163359799921L434.27742807126197,280.63785921977615Z" stroke="#FFFFFF" stroke-dasharray="1, 0" stroke-width="1"></path><text x="487.7454286137098" y="280.0190379842457" title="Crook" class="hint " style="">Crook</text></a><a id="s35" rel="nofollow " title="Wheeler" class="hint   "><path d="M485.1806957252793,171.1879097422443L544.1974824543604,171.2419994800448L544.1586942570643,179.90360114775103L554.1224857413836,179.8607163079305L554.1807937010344,200.17982164522618L555.7809953350675,200.1850186270367L555.5224632036293,260.8908345596119L535.1243115433808,260.94058895720536L535.1007705424308,251.22227901657334L524.9282935301062,251.2091487347334L524.8518062209678,245.44980097345524L494.31946309086743,245.76776672497635L494.35188432705036,207.51873242783404L492.76106558307674,203.55985692607464L494.4042442046102,203.36069579130526L495.5453544321972,200.36572939128564L488.160433525356,194.1602347859607L490.12522745881415,191.8216034208599L486.98975043892096,190.15419168460994L485.6856124965652,185.04971069150452L486.6879899925689,181.4291537948675Z" stroke="#FFFFFF" stroke-dasharray="1, 0" stroke-width="1"></path><text x="515.3050630872302" y="211.4606521504608" title="Wheeler" class="hint " style="">Wheeler</text></a><a id="s36" rel="nofollow " title="Washington" class="hint   "><path d="M234.66750047810365,126.09860667828161L236.47353926279902,126.08379952453834L238.24640282907149,117.25879643694861L239.98500209147005,117.22376253720358L241.65364855744974,113.79601493534119L245.08033027237525,113.81587363374092L245.081670685242,110.36041475554885L250.26513101205637,108.65602329026297L250.25005136731943,106.95215739174091L246.82412363462936,106.92724876831198L246.81013307534522,105.16113562734881L239.87567466712608,103.4869355845185L238.16002997504893,100.01740700525443L234.69405740799994,98.3240572862378L234.72740017803153,94.78419463038972L245.09029959306372,94.79235259095458L245.04053676543208,86.28312494598958L272.7493001942894,86.33357614637498L272.66854031914136,89.66479671860361L281.29208648953954,91.55334185544052L281.27306938200945,103.59033477235789L282.9527742541277,103.60051884724271L282.95997897328107,105.33338383497176L284.73225610892496,105.3689588879115L286.42829726284253,108.79238572874874L293.36669313385573,113.99555629891438L295.06792838762703,117.44448501634452L296.7938775036082,117.45082201200421L296.80401437590353,139.82528528385774L288.2009095017047,138.1513414758365L288.19504519541806,141.5976994990333L282.97045094879195,141.56386414972167L282.97639903088475,138.14263993548138L277.82980005787067,138.11057525841443L277.8238519757797,136.40389470833998L276.0565176125756,136.3650256217752L272.64139695861377,131.1328239524446L265.7315686367974,131.2019117420432L263.99020477286376,127.73161210962917L234.61396773928573,127.76265173672891Z" stroke="#FFFFFF" stroke-dasharray="1, 0" stroke-width="1"></path><text x="258.0548925212915" y="112.55107596640403" title="Washington" class="hint " style="">Washington</text></a></g></g></svg>