<svg id="map" class="map svg-content-responsive" xmlns:xlink="http://www.w3.org/1999/xlink" preserveAspectRatio="xMinYMin meet" viewBox="0 0 960  540"><g><g id="states"><a id="s01" rel="nofollow " title="Cambria County" class="hint   "><path d="M260.8308935367104,413.4183179403708L279.07924077773623,377.32066793779086L297.79396792016223,327.9759921848081L369.9488281059116,328.2089160691439L360.36018467233043,344.8083497407133L355.432952642343,344.66464987339623L355.19562416692133,353.95721238141687L348.0514162779864,366.50416742525795L339.47480131304246,373.768918940038L335.61562700947024,402.11623643288567L329.5243553143141,405.80036032911175L324.26651882862257,414.87808504525765L320.60169601297093,428.76576380820916L284.5562598996812,428.41167421871796L282.73514984782923,422.8230558714322L277.75332112631327,419.9822198241618L257.3182410916186,419.972204113933Z" stroke="#FFFFFF" stroke-dasharray="1, 0" stroke-width="1"></path><text x="292.6618273281475" y="371.1282448436452" title="Jefferson County" class="hint Jefferson " style="">Cambria</text></a><a id="s02" rel="nofollow " title="Allegheny County" class="hint   "><path d="M101.78659258746825,419.396497482815L77.9058723733815,410.07278730092L49.61364397931652,379.7581032089729L78.38275776061437,352.1386528902394L83.9988949828421,351.2838022571086L83.38973597851987,338.5072458706045L155.9874183095601,339.4824973367795L155.79752369441667,346.7115520795551L143.13507061033988,358.14210569491934L144.39509221426192,364.6174768467836L154.5489626204958,369.7289892843073L154.4682613884113,377.22669463520924L153.68655773797377,391.2861907389897L143.49305299882144,401.1112700713411L140.82354537889273,417.3419993608941L142.88166555811176,419.68007610337736L139.51815917705176,420.90029639059685L140.88243976917215,424.61935576578253L137.77122422214575,429.9336960130104L141.7932335561386,431.93966152407484L121.52703716492215,438.37784285720136L111.68594372328107,431.6846834846674L120.72209410642768,426.7668554137308Z" stroke="#FFFFFF" stroke-dasharray="1, 0" stroke-width="1"></path><text x="85.81936575197352" y="381.3609723333048" title="Allegheny" class="hint " style="">Allegheny</text></a><a id="s03" rel="nofollow " title="Adams County" class="hint   "><path d="M510.4087654414784,508.4435842201283L509.59283937506825,490.9495429176868L520.3047739227047,480.4880219820152L554.9870436620711,473.21586914036016L562.7028454847731,464.79311832657095L581.6090589826204,476.4359276062187L589.957100043671,492.79410018214367L587.1435399285951,501.4336545680326L591.7509913367721,509.0478233438016L584.8356756997872,514.1757729867495L584.6624943575603,537.3728676329383L511.843400953877,537.4032879509159Z" stroke="#FFFFFF" stroke-dasharray="1, 0" stroke-width="1"></path><text x="536.0130591339423" y="506.02242946282917" title="Adams" class="hint " style="">Adams</text></a><a id="s04" rel="nofollow " title="Huntingdon County" class="hint   "><path d="M401.4904351031132,443.00185987908844L387.7901673578997,432.59678730142514L384.4470352523956,417.3023463767968L404.7905902211164,378.04585278998456L404.08815523651583,375.4086374667595L400.9064255951828,376.697167390962L404.92747988500923,360.82552334871616L398.9411038741591,368.4825425492627L394.03281355347553,362.81789857081276L398.9213662947152,350.34565006834146L394.01944293514566,345.93461193020266L391.1046481384012,336.2565837168331L406.90601305033647,324.85897529730664L434.2772605196549,334.90156213010323L453.33739530236835,323.954975475428L462.2442963749595,329.0414454579404L470.1826234884975,327.38095800356587L471.52239128033557,330.0566273765562L476.1266592079544,326.879790609004L476.87843814117014,329.67442024633965L471.8254586292337,335.12597368930983L475.9079540937821,336.7572052745627L453.79995502710085,358.52500349109414L450.58034196715994,364.57956029082015L454.69196627879205,375.11390835617294L439.3444065200631,394.26535227117984L446.0499307884302,397.5918597744112L448.37323489793334,403.31207383402216L464.8593664773862,400.4581079405252L472.68436168314497,424.3990809129873L462.279951357182,436.855271948436L447.7901804341693,465.77858879063933L437.25222309889773,457.7126876424318L412.9095798561864,451.61537916905854Z" stroke="#FFFFFF" stroke-dasharray="1, 0" stroke-width="1"></path><text x="409.611382646988" y="412.27824453272615" title="Huntingdon" class="hint " style="">Huntingdon</text></a><a id="s05" rel="nofollow " title="Crawford County" class="hint   "><path d="M144.9335779502469,89.37867241366166L168.80331515641956,89.54385345319042L168.67693097836127,139.24217677056185L134.29374923719706,138.1777821940941L134.17054853969285,142.45444904865144L124.08878396804357,148.37333224857593L107.29051212011154,166.24666859921763L24.409391724223042,166.47764924184503L24.387584882415695,89.64920073219128Z" stroke="#FFFFFF" stroke-dasharray="1, 0" stroke-width="1"></path><text x="71.19128504541597" y="124.41733098791799" title="Crawford" class="hint " style="">Crawford</text></a><a id="s06" rel="nofollow " title="Delaware County" class="hint   "><path d="M833.516761132034,482.4614923672689L830.6968340558501,480.66628755694273L838.565283771193,473.6472064969639L836.8696028532308,470.64877666724806L845.6117588070683,465.57288945131313L858.7297679586578,485.31536109796343L863.5331625950314,486.9106104623779L865.5605621868884,492.4428534894105L861.1377526509395,504.96010358542026L869.2659743796229,506.9422064084565L848.5251210375591,511.2804240380283L836.8583014972581,520.4333703436423L823.6018109414997,513.9135636556039L807.8410354066494,512.772845043718L807.7530121692863,505.39504087238765L815.9501562519984,498.07856750362316L816.536235022292,494.45700669121834L819.377491418198,495.47964633275024L819.5474892798688,490.9397849154393Z" stroke="#FFFFFF" stroke-dasharray="1, 0" stroke-width="1"></path><text x="820.0678534463815" y="524.6087653076106" title="Delaware" class="hint " style="">Delaware</text></a><a id="s07" rel="nofollow " title="Clinton County" class="hint   "><path d="M416.8752415843444,212.14887260350042L427.1882860183598,192.28398202482822L427.1233430150253,169.49279173854393L489.3707341895474,168.69524868432654L489.50555459107704,176.66435508564155L491.5128982554354,176.61233296011324L499.03116510965856,192.84602081312642L508.7672036929655,198.41808635271718L509.5595720032619,203.76263700341315L525.6689386589559,220.83904640678247L538.0342138331632,228.35779726348028L558.4285453167466,255.5013951450983L561.6386079350235,255.47352623521328L561.7021183721084,260.48143116891697L530.4701048589418,272.7063145066413L503.62206241894364,277.81446321851763L492.26404049253733,260.0876022082375L494.10265968744784,256.06277286244585L478.9956118846967,247.02476673682213L466.4937653946531,247.2989754864866L458.89941335515095,239.99193150196788L457.46732462719683,231.57222258266847L442.4788614751442,232.35281959570784L441.6080203691488,216.59002293475714L435.28658302981944,222.4981229411378L435.4169465585737,225.56749331776518L429.89981558162503,226.49779816746013L430.05469191065754,233.1060931301181L425.2834504278935,235.86274194644193L424.8352163656614,239.41510693297823L419.3223830874633,237.559763049323L410.5394785825147,224.17202460692897Z" stroke="#FFFFFF" stroke-dasharray="1, 0" stroke-width="1"></path><text x="463.98669762311584" y="220.5480847869284" title="Clinton" class="hint " style="">Clinton</text></a><a id="s08" rel="nofollow " title="Lawrence County" class="hint   "><path d="M65.99233309001715,245.2304458030976L83.63056628255435,245.97900564570045L91.6374974020664,255.26999704553327L80.74537785498114,269.90087304871395L81.82075758667497,300.51501315710993L24.43485956866766,301.31868274645785L24.43804304922378,243.5918397570831L65.956359759738,242.98515776587556Z" stroke="#FFFFFF" stroke-dasharray="1, 0" stroke-width="1"></path><text x="29.84531800990807" y="266.7946539342432" title="Lawrence" class="hint " style="">Lawrence</text></a><a id="s10" rel="nofollow " title="Tioga County" class="hint   "><path d="M549.6157160945739,57.513959333417006L596.1836696624421,57.106565740162296L603.9438810388905,144.88577311185963L596.9499334321844,146.91598109153165L590.8941575452222,153.21899352853234L489.18784323162595,155.15609940443392L487.47688160699886,57.60049142040134Z" stroke="#FFFFFF" stroke-dasharray="1, 0" stroke-width="1"></path><text x="529.8798342464881" y="105.95703569716797" title="Tioga" class="hint " style="">Tioga</text></a><a id="s11" rel="nofollow " title="Bedford County" class="hint   "><path d="M322.26601964745964,422.99078418018325L326.6544475934054,411.21909261726796L344.9090026215149,419.5091784120641L354.1100572974476,428.4608886153628L356.2759382934778,416.3802787028126L379.4395795124069,428.9380091254061L384.4470352523956,417.3023463767968L387.7901673578997,432.59678730142514L403.9597017960941,444.9380679705946L400.20812913530267,453.918440193509L392.47115716690905,461.3981490063461L396.5151325167358,467.1287675530057L392.8555624440014,470.7103191455235L393.4077371463793,476.63523459324824L377.80979664194774,515.5468522320862L364.8218326710578,536.8579887411524L296.72909367430293,536.7934206239552L304.8702084992349,515.964678708051L303.9207354235143,467.4843847318343L305.701892794395,463.7589038042497L307.638881538473,464.870910171212Z" stroke="#FFFFFF" stroke-dasharray="1, 0" stroke-width="1"></path><text x="328.49946940487956" y="477.8842378668065" title="Bedford" class="hint " style="">Bedford</text></a><a id="s12" rel="nofollow " title="Monroe County" class="hint   "><path d="M880.8909311506178,223.81144393545765L878.0135422504021,238.25567823090387L890.6990755685073,240.20435077219372L898.4753635217646,253.14500786230292L907.8402082722846,251.6805100728734L900.8763445568266,255.96417977318833L898.8223629023282,261.6020730597129L882.6790921787184,271.2750892038921L882.5017723117688,278.5096285391792L868.1952106947327,285.2034018015256L864.543758497417,289.0871171588369L865.9171120091203,291.1255447169069L857.7137601393244,298.22454267206103L827.4461820604884,309.01674893496784L811.465587193271,280.2625640521901L823.9597933299832,272.6616107146683L799.5744914478255,243.67805364354263L803.4142465200065,242.3995819818274L816.3339248329792,222.7808593542677L820.6847877083696,223.6766469881286L822.010070663681,220.7821106672909L882.2771777585696,216.7278530148542Z" stroke="#FFFFFF" stroke-dasharray="1, 0" stroke-width="1"></path><text x="834.7605065657001" y="257.5153367599829" title="Monroe" class="hint " style="">Monroe</text></a><a id="s13" rel="nofollow " title="Wyoming County" class="hint   "><path d="M746.1488432410306,133.34385173645478L788.5569427668463,134.99006668798302L775.1879161734465,159.13090595915492L780.0217130491272,162.89541954425295L769.341454133019,180.14578144207826L742.9443517137258,188.65711487400586L698.6891967695282,190.3614242046351L708.1177111311615,158.9255276312515L712.2352248818225,132.69033761695482Z" stroke="#FFFFFF" stroke-dasharray="1, 0" stroke-width="1"></path><text x="722.1051911570295" y="160.27667389737636" title="Wyoming" class="hint " style="">Wyoming</text></a><a id="s14" rel="nofollow " title="McKean County" class="hint   "><path d="M279.63571317886067,91.50108614069268L279.14545717329406,57.86800917517485L392.51731763496605,57.5518707361789L393.0238093913681,139.00818311794228L358.6617977958995,139.28582391692726L358.69060829492855,142.40783187306715L348.54835759271987,142.3724963742934L348.4571508748029,136.508098484308L273.2240241657785,137.79322567600138L274.3966592284469,93.72635007110966Z" stroke="#FFFFFF" stroke-dasharray="1, 0" stroke-width="1"></path><text x="320.8687915121527" y="98.47331273074867" title="McKean" class="hint " style="">McKean</text></a><a id="s15" rel="nofollow " title="York County" class="hint   "><path d="M661.5155351473187,475.68127900718173L667.7097924384518,489.7521652250998L681.6018648871434,497.6593853397135L683.6372231803906,507.0127166466291L699.5958520317744,525.4524236467114L705.5806363023446,537.1195694062917L584.6624943575603,537.3728676329383L584.8356756997872,514.1757729867495L591.7509913367721,509.0478233438016L587.1435399285951,501.4336545680326L589.957100043671,492.79410018214367L581.6090589826204,476.4359276062187L562.7028454847731,464.79311832657095L579.984688029107,448.58208615029525L599.5595916176673,444.8572503859432L595.9649645482676,440.81911564692746L599.1330052232099,439.64770740014774L595.4790062414498,437.84394055801476L600.4982408594966,435.17558544214535L600.0353627867073,432.58761443629373L602.3706049482946,434.867930437792L607.0172131673048,432.2279917325259L623.9998085394081,442.81749487880643L625.3995849397223,452.11919929296437L638.0520100600476,466.16210921027323L658.6828741489145,468.6659679045806Z" stroke="#FFFFFF" stroke-dasharray="1, 0" stroke-width="1"></path><text x="614.2664085368453" y="495.94052294286286" title="York" class="hint " style="">York</text></a><a id="s16" rel="nofollow " title="Erie County" class="hint   "><path d="M24.385038097973393,89.25601405017915L24.492662525636888,65.92951013040147L83.62393181824018,35.20855681027297L84.55105403561765,28.902259897501608L90.70377420550562,23.616352592010116L92.2208832884944,27.652015827919968L88.13311714822476,33.447633052365745L144.53977120194577,4.930303742173237L145.04802407622287,57.72043597899392L168.99957673267522,57.67802713068886L168.80331515641956,89.54385345319042Z" stroke="#FFFFFF" stroke-dasharray="1, 0" stroke-width="1"></path><text x="88.23758833455604" y="60.71642368239688" title="Erie" class="hint " style="">Erie</text></a><a id="s17" rel="nofollow " title="Fayette County" class="hint   "><path d="M121.34335033686261,474.76986934787874L126.75845076200062,472.3188532957756L124.26244283235383,469.3916714969055L126.20309257907093,465.82808929809926L122.80552295606685,463.285452977123L132.6314948650695,460.7689917925136L126.92383257686788,452.4510445669348L147.73949771198727,452.67754427517775L153.5144906139417,456.9370621582484L157.17230977236954,455.70683756489143L163.9805012886568,461.9467662647894L167.2297207177669,459.6778870231565L171.83573955969223,462.2740124782749L173.27180763833826,457.89373711177814L189.22979979361253,449.4756092675998L209.6226987109444,463.8749758888298L211.8904510847526,470.40697035628546L219.49737787244862,470.93756659010705L202.7637306797942,499.9674316026794L199.7648919963849,509.685211826014L207.4770328164434,515.718668274033L207.80333957339667,522.2237691540649L210.31828921234955,523.6116810141857L203.36222502425335,524.2745165981878L205.95676167709985,527.2776041231382L200.97445543349886,534.2959417165839L203.7600009196815,537.0692817234822L120.38130251294797,537.2350441554472L122.43480664536105,532.6399593097749L118.07327911011157,529.555386549051L117.49531821523465,524.709485697952L121.60742004895178,522.1823368714231L116.83219921549562,511.5304501917808L120.528060966564,504.3272740821012L119.30067003833665,495.74261077753L114.4336057908497,489.4020891429882L107.66138760484364,489.76420802101984L105.34397293436541,485.46801932650305L108.92841286598718,476.86010105368496L115.53413501893533,480.52895262094535Z" stroke="#FFFFFF" stroke-dasharray="1, 0" stroke-width="1"></path><text x="144.06941913746095" y="495.8088513504807" title="Fayette" class="hint " style="">Fayette</text></a><a id="s18" rel="nofollow " title="Perry County" class="hint   "><path d="M579.9296138154933,398.7164030574968L583.2735417911355,404.6565384282494L595.0910991357466,405.10480402585654L598.1119038349917,410.9144642909241L534.8776336882199,423.59179424656213L531.8573065110601,421.78138504917024L532.5852093401052,418.40465779993156L517.4899404154118,426.08422122730644L526.316776952028,414.0282947817295L488.2057394802125,440.76598557119905L486.7330613751735,438.0044051180939L488.6404437500844,431.83771255785723L482.2553367996413,433.93491941026787L481.7989848619927,426.034164258961L477.7468916367475,425.71337830557786L480.0929576322262,423.03834856155663L477.65043217591096,418.9839523992114L480.61345670306946,415.0851497328704L499.8545723553739,400.98862165583523L498.600917712562,396.1371973552523L508.43166484239896,389.28195759276696L557.905976983536,362.5947682963315L555.4820748884739,357.8375823573542L592.6293136220704,348.20343319159565L591.1701653093959,355.5577436265812L585.6194486125839,360.98288707644406L587.0189066648433,371.9058172645373L592.045304114138,377.02032789355326L592.6356805831826,381.5255913822475L581.9875748206858,390.7118194727709L582.6398699865352,395.0444296074729Z" stroke="#FFFFFF" stroke-dasharray="1, 0" stroke-width="1"></path><text x="528.9586767456381" y="396.2015802574763" title="Perry" class="hint " style="">Perry</text></a><a id="s19" rel="nofollow " title="Mercer County" class="hint   "><path d="M24.48070168866775,230.32732147511615L24.409391724223042,166.47764924184503L107.09043036718822,166.25750586413142L107.09043036718822,233.7058066114596L91.6374974020664,255.26999704553327L83.63056628255435,245.97900564570045L65.99233309001715,245.24101001081908L65.956359759738,242.98515776587556L24.43804304922378,243.5918397570831Z" stroke="#FFFFFF" stroke-dasharray="1, 0" stroke-width="1"></path><text x="52.07090753306397" y="205.61893218417526" title="Mercer" class="hint " style="">Mercer</text></a><a id="s20" rel="nofollow " title="Clearfield County" class="hint   "><path d="M401.56970376895015,223.03353955410057L410.5394785825147,224.17202460692897L419.3223830874633,237.559763049323L414.2020729617766,244.25258788962674L407.5377747666039,245.8898482242421L410.9940796058588,257.3925499983052L415.8741961236251,259.04725752391187L416.2422064758557,262.2165938435055L412.61272029437373,263.50611278209544L416.50213766322463,268.98697362135226L411.6605412601823,271.2082374484062L410.03441939236245,275.65750119059794L412.97102103091197,279.182628457188L406.16808225753994,282.28057969469955L404.1685381205457,276.98983153655445L402.4370430463325,280.8389590687293L398.6416975279021,278.25142230978963L400.6358297479528,282.2955409150218L389.6857708547527,289.1884243026125L390.2974766435193,293.30137754240513L385.9661921735485,295.3787670418942L387.8990423929017,296.5942762946934L385.7339572670137,300.4674523108297L379.1552946987881,301.96974951635L365.4714218784345,321.69923773145547L369.6239539152082,327.91550275043755L297.06542839500344,326.8831513890136L297.3427095514023,242.09294257315196L303.4159945814167,227.1705746383468L322.26697469162605,224.0600847818714L322.470876621215,216.37279485901036Z" stroke="#FFFFFF" stroke-dasharray="1, 0" stroke-width="1"></path><text x="325.8997074109006" y="269.61780402184087" title="Clearfield" class="hint " style="">Clearfield</text></a><a id="s21" rel="nofollow " title="Columbia County" class="hint   "><path d="M649.4367732231216,236.672906760783L678.8188661854051,204.79930181515465L694.3862452765031,204.4218987125496L692.9372841016024,226.0422803156198L699.5584461352476,242.17367117993126L707.3044910232222,240.7657137925844L706.8798147170997,259.42802976570874L710.6707033627548,280.596180604618L698.4486848135506,294.530542339995L694.8578779208186,311.73736281326L683.2410390252423,317.26612250157814L678.5430175952598,305.0458077553885L663.9555138191896,306.898479345904L663.5036187543182,295.0970838500816L659.7020654487999,294.75644589660715L659.4854295969908,282.6185729186418L661.7913837374659,278.6670792918876L653.7809507893411,270.0396505825902L653.0356979912701,258.65676516831445L645.2272568843993,256.54622776935867L641.7578997748673,237.11898459844178Z" stroke="#FFFFFF" stroke-dasharray="1, 0" stroke-width="1"></path><text x="660.1211000266153" y="259.63697260352717" title="Columbia" class="hint " style="">Columbia</text></a><a id="s22" rel="nofollow " title="Greene County" class="hint   "><path d="M60.29692720195453,537.1501972085834L24.389494970750548,537.1054971507701L24.438998093390182,486.89316566334946L31.403498504957724,489.29100151270904L34.8617134325475,484.8702543343052L57.302545391320336,478.64996915794654L59.0808376297,475.06169309102916L63.54423654273387,478.8405176885617L79.0531987656318,477.64315717264344L86.44062456901725,481.7431052912398L93.34814067864045,481.3469173353833L97.53967035221922,477.35637412016877L100.85351443661102,480.0348682880549L99.36842075740469,483.7953356102789L107.25167365733114,482.60649494882637L105.84807708035123,488.33561202133296L113.86057929083518,489.03996103185L119.25992148722344,495.6263839986668L120.528060966564,504.3272740821012L116.83219921549562,511.5304501917808L121.60742004895178,522.1823368714231L117.49531821523465,524.709485697952L118.07327911011157,529.555386549051L122.43480664536105,532.6399593097749L120.38130251294797,537.2350441554472Z" stroke="#FFFFFF" stroke-dasharray="1, 0" stroke-width="1"></path><text x="57.624065862808735" y="509.6345979040501" title="Greene" class="hint " style="">Greene</text></a><a id="s23" rel="nofollow " title="Forest County" class="hint   "><path d="M233.24905882863618,178.81598802121425L202.51685176270644,177.70709186201293L202.48979217798183,188.22686758358213L190.17242838613583,188.2480832477413L190.1181500426644,176.8601263855462L183.20426697192897,176.77094674569344L184.72103628266382,137.64502161764085L273.2262526021682,137.8913886902683L272.76226031118404,177.51260652485598L269.94488001944455,177.53341403920695L269.944720845416,174.3911234819352L256.1185464442276,174.08403326904227L255.85845608283034,180.45655757778422L251.33250177688205,180.4370281362335L251.09246734298563,197.96588252658603L248.4180253281943,201.28170007759854L244.23795618461486,197.72758444389547L241.14409060661842,200.48938492485377L239.78760954186214,197.25860858943906L238.68676196572164,201.2132380423118L237.53848052930107,198.25208920028035L235.67550770814273,201.43897071245647L232.98132811390747,199.83078340055818Z" stroke="#FFFFFF" stroke-dasharray="1, 0" stroke-width="1"></path><text x="214.43345122749238" y="161.50655237948126" title="Forest" class="hint " style="">Forest</text></a><a id="s24" rel="nofollow " title="Bucks County" class="hint   "><path d="M872.4868608317892,357.1061124892385L874.0749401069686,361.0849315858841L884.3984900268186,359.75452302949725L892.009077817154,366.223913458517L893.6017731391391,392.17122438876595L908.2502405678499,396.36104959429576L912.5218347774035,408.9261799004662L923.903255285893,417.86102577096517L928.025862605443,427.18605527888576L939.4230413426804,434.608627926832L946.7986882680123,448.8790311129278L937.280240580683,454.2785523409866L931.1738473528865,452.95316954458576L924.7710720853588,462.0888582067537L907.0669408453205,469.2332259176128L905.3300338541637,467.42573970629746L909.9667732834489,459.5844609110427L908.537868036051,454.67549771566064L825.8760894504466,392.11728346366726L837.7065398913082,377.5722370252961L860.526842732313,358.80813574921467L871.5994656269038,352.30995222615Z" stroke="#FFFFFF" stroke-dasharray="1, 0" stroke-width="1"></path><text x="871.9163171095676" y="408.7399798552836" title="Bucks" class="hint " style="">Bucks</text></a><a id="s25" rel="nofollow " title="Berks County" class="hint   "><path d="M795.6328649978623,367.01271563486625L818.6118643445652,386.14821565441616L792.1474313115234,428.88545992937725L763.9067753024613,450.8165168509149L711.0366444526244,404.1944715368527L673.6859813115243,375.9045136097229L716.4332806905438,367.7398991755008L736.5878960882835,357.50601535838905L740.9986083981198,359.50808289163433L744.8318373351642,345.7810646610742L761.0260437476632,337.90048637572636Z" stroke="#FFFFFF" stroke-dasharray="1, 0" stroke-width="1"></path><text x="741.969528820448" y="392.3403451996854" title="Berks" class="hint " style="">Berks</text></a><a id="s26" rel="nofollow " title="Elk County" class="hint   "><path d="M272.682195775207,191.4283665776211L251.09246734298563,197.96588252658603L251.33250177688205,180.4370281362335L255.85845608283034,180.45655757778422L256.1185464442276,174.08403326904227L269.944720845416,174.3911234819352L269.94488001944455,177.53341403920695L272.76226031118404,177.51260652485598L273.2240241657785,137.79322567600138L348.4571508748029,136.508098484308L348.54835759271987,142.3724963742934L358.69060829492855,142.40783187306715L358.5457599296453,184.3084113149862L384.97963154935564,184.37738169667227L384.91230093560307,201.58521807861507L388.0491435011022,201.62146175165344L387.7081927335921,221.30574131424055L322.470876621215,216.37279485901036L322.26697469162605,224.0600847818714L312.35027358678735,227.3609771378924L312.3803574780377,221.3548438995158L307.8988127258399,221.26404630977595L308.3658293233516,214.43812882991097Z" stroke="#FFFFFF" stroke-dasharray="1, 0" stroke-width="1"></path><text x="308.1177920002664" y="179.78432129983753" title="Elk" class="hint " style="">Elk</text></a><a id="s27" rel="nofollow " title="Schuylkill County" class="hint   "><path d="M652.896420716959,331.87574810863407L694.8578779208186,311.73736281326L698.4486848135506,294.530542339995L710.6707033627548,280.596180604618L739.2706151525197,290.6565580013439L744.1734935562574,288.340033199328L761.8913137626864,308.6968521610943L782.3021993451578,325.69170423680134L744.8318373351642,345.7810646610742L740.9986083981198,359.50808289163433L736.5878960882835,357.50601535838905L716.4332806905438,367.7398991755008L677.1211160050836,375.9750526093967L673.6859813115243,375.9045136097229L632.0710459661451,341.92714795816937Z" stroke="#FFFFFF" stroke-dasharray="1, 0" stroke-width="1"></path><text x="685.2269667803084" y="331.9445781706869" title="Schuylkill" class="hint " style="">Schuylkill</text></a><a id="s28" rel="nofollow " title="Fulton County" class="hint   "><path d="M443.02673847876895,471.029670418141L424.973538595802,515.3190736078413L409.5809325872128,536.9614626787197L364.8218326710578,536.8579887411524L377.80979664194774,515.5468522320862L393.4077371463793,476.63523459324824L392.8555624440014,470.7103191455235L396.5151325167358,467.1287675530057L392.47115716690905,461.3981490063461L400.20812913530267,453.918440193509L403.9366215620678,444.9805595050757L412.9095798561864,451.61537916905854L437.25222309889773,457.7126876424318L446.9731401495644,466.53542849886253Z" stroke="#FFFFFF" stroke-dasharray="1, 0" stroke-width="1"></path><text x="393.78830002970074" y="494.7334715943228" title="Fulton" class="hint " style="">Fulton</text></a><a id="s29" rel="nofollow " title="Chester County" class="hint   "><path d="M810.4206097008841,512.4525650707355L810.616234581026,512.7771983141038L808.519435113057,513.0133094137336L809.4695448848854,511.64924217358475ZM754.2040040909607,469.44718941077645L752.8247611402306,456.6119819043397L796.622609102611,428.312619298501L805.4515149015865,432.92242015372085L807.8935628358166,430.0354502154669L812.0075747578687,438.89401259082206L814.0886159970897,435.98804591761836L819.2086077747219,448.4211168854936L822.7328799238392,446.10633037022853L822.3712365327206,451.6728405523436L829.4508197663718,453.3734669278829L827.8584427924434,456.0735643200014L830.2887118486176,461.0883591489646L836.0525625686278,459.1227312746987L840.4285749404061,466.6589648608124L845.4568824780358,465.7145290536864L836.8696028532308,470.64877666724806L838.565283771193,473.6472064969639L830.6968340558501,480.66628755694273L833.5548037246725,482.4384330809553L819.5474892798688,490.9397849154393L819.5969924025084,495.2953400173137L816.536235022292,494.45700669121834L815.9501562519984,498.07856750362316L807.7530121692863,505.39504087238765L808.2359461695764,513.0543537883186L790.510485609814,520.9018127772351L779.7587575552307,536.940561003802L722.1858300545794,537.1584749817039L724.7749547904782,533.9693144051043L728.4996270405775,535.3525650348001L727.7804787830565,532.0719130645821L733.1368439919438,529.1222217648583L737.1647427649657,521.5295553570613L735.8174937938207,520.2949686585562L739.0366293316825,518.193294009935L737.7606903249804,515.253164281663L741.1181480929848,514.352580189302L740.2140396151831,510.31033903327625L745.7369008571303,505.8386756498094L744.1631472444533,494.2735173854353L746.7810824793812,493.1496974737065L744.6062877377965,489.21541989933394Z" stroke="#FFFFFF" stroke-dasharray="1, 0" stroke-width="1"></path><text x="764.7015926624086" y="485.23124326312325" title="Chester" class="hint " style="">Chester</text></a><a id="s30" rel="nofollow " title="Venango County" class="hint   "><path d="M190.13613670780387,183.02061788017L190.12181104530373,199.01527799444193L170.0625408902015,202.03158089849694L169.99107175172844,211.43999458333292L166.3378686401063,211.41648471045391L165.4920178564721,216.41069357016022L162.70344806375965,216.38740387169673L162.82537536904078,223.9644379381034L159.56278532159672,231.32562007174602L107.09043036718822,233.7058066114596L107.2652034496914,163.94026200646567L119.23524951291893,156.15899958336195L124.08878396804357,148.37333224857593L130.9227616768303,145.62851502141893L134.29374923719706,138.1777821940941L184.72103628266382,137.64502161764085L183.20426697192897,176.77094674569344L190.1181500426644,176.8601263855462Z" stroke="#FFFFFF" stroke-dasharray="1, 0" stroke-width="1"></path><text x="126.58840599963344" y="184.63119903522033" title="Venango" class="hint " style="">Venango</text></a><a id="s31" rel="nofollow " title="Sullivan County" class="hint   "><path d="M620.805026627798,170.15900433610204L614.2265232336009,144.99473948113973L708.7109527327033,155.36578729553094L694.3862452765031,204.4218987125496L678.8188661854051,204.79930181515465L672.5055467214921,211.74561929255742L649.4356590049247,205.6651073730709L624.4509077341415,184.19678467395897Z" stroke="#FFFFFF" stroke-dasharray="1, 0" stroke-width="1"></path><text x="643.0359998259722" y="175.518710490729" title="Sullivan" class="hint " style="">Sullivan</text></a><a id="s32" rel="nofollow " title="Potter County" class="hint   "><path d="M392.5247988142712,62.79869131025134L392.51731763496605,57.5518707361789L487.47688160699886,57.60049142040134L489.3707341895474,168.69524868432654L417.37425216143924,169.35682602378165L393.0238093913681,139.00818311794228Z" stroke="#FFFFFF" stroke-dasharray="1, 0" stroke-width="1"></path><text x="427.98800619980994" y="111.82693081533175" title="Potter" class="hint " style="">Potter</text></a><a id="s33" rel="nofollow " title="Lycoming County" class="hint   "><path d="M648.0605545789192,236.76444902360527L635.7078541529056,237.44581734979784L618.2173344581488,232.88087667209766L603.0168515010887,236.77480827160707L601.1132893028456,240.63805642800344L590.907846511611,238.58121586362086L588.0888744795914,251.4524272942299L558.4285453167466,255.5013951450983L538.0342138331632,228.35779726348028L525.6689386589559,220.83904640678247L509.5595720032619,203.76263700341315L508.7672036929655,198.41808635271718L498.95603496854415,192.74485552052283L491.5128982554354,176.61233296011324L489.50555459107704,176.66435508564155L489.18784323162595,155.15609940443392L590.8941575452222,153.21899352853234L604.5196134973779,143.52936743340524L614.2265232336009,144.99473948113973L624.4509077341415,184.19678467395897L649.4356590049247,205.6651073730709L672.5055467214921,211.74561929255742Z" stroke="#FFFFFF" stroke-dasharray="1, 0" stroke-width="1"></path><text x="555.1164723053832" y="197.2583288781683" title="Lycoming" class="hint " style="">Lycoming</text></a><a id="s34" rel="nofollow " title="Bradford County" class="hint   "><path d="M701.6824643619675,57.81253554864543L720.5885186857885,57.713153660890384L725.4189729068846,131.83782555175185L712.2352248818225,132.69033761695482L708.7109527327033,155.36578729553094L604.5269355026564,143.58300472176325L596.1836696624421,57.106565740162296Z" stroke="#FFFFFF" stroke-dasharray="1, 0" stroke-width="1"></path><text x="642.6596834814974" y="102.49466075081914" title="Bradford" class="hint " style="">Bradford</text></a><a id="s35" rel="nofollow " title="Beaver County" class="hint   "><path d="M42.030752469815525,301.1034073754181L81.82075758667497,300.51501315710993L83.9988949828421,351.2838022571086L78.38275776061437,352.1386528902394L49.61364397931652,379.7581032089729L24.437883875197258,379.7949325067566L24.436928831030855,301.3184723127224Z" stroke="#FFFFFF" stroke-dasharray="1, 0" stroke-width="1"></path><text x="32.426383066357374" y="336.73481336938676" title="Beaver" class="hint " style="">Beaver</text></a><a id="s36" rel="nofollow " title="Blair County" class="hint   "><path d="M338.81024974705383,377.32799322449046L340.93999823877425,371.1078676694415L349.9409711617859,363.57441996415673L355.19562416692133,353.95721238141687L355.0339033546934,345.43599668995375L360.36018467233043,344.8083497407133L369.9488281059116,328.2089160691439L368.1146657837826,326.28449970103975L406.85619157964015,324.91170506444996L390.07144952407043,338.4736659567943L398.91547685568617,350.3047591274999L394.03281355347553,362.81789857081276L395.8614047846347,365.9059503860535L398.9411038741591,368.4825425492627L403.8032337267857,360.4697197551259L404.92747988500923,360.82552334871616L400.9064255951828,376.697167390962L404.08815523651583,375.4086374667595L404.7905902211164,378.04585278998456L379.4395795124069,428.9380091254061L356.2759382934778,416.3802787028126L354.1100572974476,428.4608886153628L344.9090026215149,419.5091784120641L326.6544475934054,411.21909261726796L335.61562700947024,402.11623643288567Z" stroke="#FFFFFF" stroke-dasharray="1, 0" stroke-width="1"></path><text x="356.1832810890551" y="378.99883037137687" title="Blair" class="hint " style="">Blair</text></a><a id="s37" rel="nofollow " title="Lehigh County" class="hint   "><path d="M778.8807536179852,353.1234382328812L761.0260437476632,337.90048637572636L792.3597694645837,318.38535732628316L805.977585063408,314.7410514791054L808.6055482620874,325.5419259253749L814.3550733195951,328.7633811159121L818.8770482748495,325.7772010946237L826.2880318343467,342.41770537349566L834.4162535630301,338.55488723505914L842.7377125614393,350.8887543213059L838.5535048931372,358.0591116901651L849.8386251148166,367.2979804904098L825.8760894504466,392.11728346366726Z" stroke="#FFFFFF" stroke-dasharray="1, 0" stroke-width="1"></path><text x="794.6671234830417" y="351.41693539333664" title="Lehigh" class="hint " style="">Lehigh</text></a><a id="s38" rel="nofollow " title="Carbon County" class="hint   "><path d="M780.3215969174673,258.401778287709L780.8066001801208,250.33856920106518L792.3549942437515,242.4158541799825L796.7606129846969,241.71761177796452L798.3810045875182,245.46771596926465L804.174302502667,246.93202464638853L823.9766657769259,272.7033623738698L811.465587193271,280.2625640521901L827.4461820604884,309.01674893496784L793.3969474296107,317.97971074905126L782.3021993451578,325.69170423680134L761.8913137626864,308.6968521610943L744.1734935562574,288.340033199328L786.4211456620685,268.2662309556863Z" stroke="#FFFFFF" stroke-dasharray="1, 0" stroke-width="1"></path><text x="776.1898769381982" y="287.1412628479818" title="Carbon" class="hint " style="">Carbon</text></a><a id="s39" rel="nofollow " title="Mifflin County" class="hint   "><path d="M459.1905426519629,351.575677652947L475.2120452443221,338.00962527155843L471.8254586292337,335.12597368930983L476.87843814117014,329.67442024633965L476.1266592079544,326.879790609004L526.0410875359091,302.2533980586477L527.7342216694269,302.76092096309185L528.2142905372158,332.7790259150479L538.744607519154,334.4737216990188L506.1769647388678,351.35194899636554L505.3873023870442,357.93629642811084L487.0818116700434,372.08713456909754L487.0897703714336,376.95795682120115L463.329385722348,402.51047287750407L448.37323489793334,403.31207383402216L446.0499307884302,397.5918597744112L439.3444065200631,394.26535227117984L454.69196627879205,375.11390835617294L450.58034196715994,364.57956029082015Z" stroke="#FFFFFF" stroke-dasharray="1, 0" stroke-width="1"></path><text x="462.63610446381773" y="370.0833460213226" title="Mifflin" class="hint " style="">Mifflin</text></a><a id="s40" rel="nofollow " title="Union County" class="hint   "><path d="M575.3312353269034,251.93984408523738L588.0888744795914,251.4524272942299L590.907846511611,238.58121586362086L601.1132893028456,240.63805642800344L602.1038292777324,248.701200213196L607.339222225507,255.9462344889016L604.2797382375098,280.31187995286837L607.7806118045459,287.84041028486627L616.5272246311587,295.5880257567487L593.7978101600204,293.59488786488146L581.4140707985881,299.9316450183451L572.789226103228,297.74190265811103L527.8114210729005,310.57553609808474L526.6093388150896,302.24477085126455L561.6874743615514,260.97000838319855L561.6386079350235,255.47352623521328Z" stroke="#FFFFFF" stroke-dasharray="1, 0" stroke-width="1"></path><text x="560.4849667867317" y="278.0546984406923" title="Union" class="hint " style="">Union</text></a><a id="s41" rel="nofollow " title="Warren County" class="hint   "><path d="M219.7170380307873,137.37011588849145L168.67581676016653,137.79429035453995L168.99957673267522,57.67802713068886L279.14545717329406,57.86800917517485L279.63571317886067,91.50108614069268L274.3966592284469,93.72635007110966L273.2262526021682,137.8913886902683Z" stroke="#FFFFFF" stroke-dasharray="1, 0" stroke-width="1"></path><text x="208.5730696238955" y="97.18390121348146" title="Warren" class="hint " style="">Warren</text></a><a id="s42" rel="nofollow " title="Lebanon County" class="hint   "><path d="M689.4696779063746,388.79115399329567L719.6818634235443,413.52687153349325L694.792934917484,426.2354339076401L674.4454005980692,429.7483263289769L653.114966657103,438.64332774767354L635.8250062373526,380.34861588168224L658.5273611237703,363.50654211464644Z" stroke="#FFFFFF" stroke-dasharray="1, 0" stroke-width="1"></path><text x="651.7217613205858" y="402.7917904168214" title="Lebanon" class="hint " style="">Lebanon</text></a><a id="s43" rel="nofollow " title="Washington County" class="hint   "><path d="M124.78708042792368,451.7981721802216L130.73143449543522,455.388597624039L132.5449041939562,461.06526507354647L122.80552295606685,463.285452977123L126.25148148351559,465.9445603982085L124.26244283235383,469.3916714969055L126.60723543560744,472.74418932018307L116.06147857297401,480.35941174416166L109.41628126113596,476.6117501824583L108.27802778846853,482.5499898210064L100.72362842994175,484.7148894716638L98.96268616058819,481.6651982029307L100.85351443661102,480.0348682880549L97.53967035221922,477.35637412016877L93.34814067864045,481.3469173353833L86.44062456901725,481.7431052912398L79.0531987656318,477.64315717264344L63.54423654273387,478.8405176885617L59.0808376297,475.06169309102916L57.302545391320336,478.64996915794654L34.8617134325475,484.8702543343052L31.403498504957724,489.29100151270904L24.42944765172183,487.18640158014296L24.437883875197258,379.7949325067566L49.61364397931652,379.7581032089729L77.9058723733815,410.07278730092L120.72209410642768,426.7668554137308L111.69231068439103,431.73868167122237L120.9692913715744,438.18112242119514L130.22207760653419,439.53810429386795L129.4249340754036,445.39463698920827L122.33436783383263,446.26107780440725Z" stroke="#FFFFFF" stroke-dasharray="1, 0" stroke-width="1"></path><text x="33.56693139870599" y="439.92231981662457" title="Washington" class="hint " style="">Washington</text></a><a id="s44" rel="nofollow " title="Lackawanna County" class="hint   "><path d="M793.53399626753,198.27159343915537L784.8916424291135,196.37128473788562L770.3921618904043,185.39322240713682L770.0636266970656,179.59638681441902L780.0217130491272,162.89541954425295L775.1879161734465,159.13090595915492L786.8598292826365,135.25309347968596L829.3215704558141,134.0186341829767L832.8269008956274,215.4513372534784L823.9660011170669,218.6655858483964L820.6847877083696,223.6766469881286L816.3528665422851,222.76160129388336L807.2533648960798,235.94202686760673L802.4114501449806,234.2490366468901L799.6957820569949,230.45253575434072L798.9971672490601,215.41237721519155L794.9972831049292,214.09169403950636L793.176173053077,209.1580797166771Z" stroke="#FFFFFF" stroke-dasharray="1, 0" stroke-width="1"></path><text x="776.976737087112" y="180.78621019684087" title="Lackawanna" class="hint " style="">Lackawanna</text></a><a id="s45" rel="nofollow " title="Dauphin County" class="hint   "><path d="M615.4378375850193,437.58698507088684L598.7904627154237,423.6821208634701L596.5965670905066,418.6517373691413L598.4943990237513,411.60785477598256L595.1789631990813,405.18772950874427L581.2405711083064,402.96611873706934L581.9231093394325,390.80716630848747L592.7039662411017,381.0838971113835L587.0189066648433,371.9058172645373L585.6205628307787,360.96067605812095L591.1701653093959,355.5577436265812L592.6293136220704,348.20343319159565L597.522641584142,353.38215043069886L615.8738152471165,344.20542975304943L632.0710459661451,341.92714795816937L658.5273611237703,363.50654211464644L635.8250062373526,380.34861588168224L653.5993332236447,438.53934328668583L646.9589111326387,439.9240034736904L635.9572798544378,448.3638505345052L632.7510374128287,446.7490522311691L628.8882021066172,454.3632710350348L625.322544710275,451.95702113662264L623.9998085394081,442.81749487880643Z" stroke="#FFFFFF" stroke-dasharray="1, 0" stroke-width="1"></path><text x="600.7239878545853" y="382.31511816234604" title="Dauphin" class="hint " style="">Dauphin</text></a><a id="s46" rel="nofollow " title="Northumberland County" class="hint   "><path d="M620.8144178954358,266.56283481875744L617.5457792349365,281.26149308290314L638.4819391090873,276.74825072748536L655.0893612977097,282.94012244422356L653.322847937386,287.81997844351463L655.0312627775704,293.4133922544743L663.4676454240368,295.02782007047426L663.9555138191896,306.898479345904L678.5430175952598,305.0458077553885L683.2410390252423,317.26612250157814L631.87335182364,342.46973953994984L615.8738152471165,344.20542975304943L597.522641584142,353.38215043069886L594.6204215355955,351.45343460291315L592.6293136220704,348.20343319159565L606.6732380932689,330.6937560372853L608.5099471998426,310.22307868237385L616.6160437386618,295.6408662431477L607.7806118045459,287.84041028486627L603.3202371980417,276.58656210053505L607.4716550166207,259.43309540144037L601.1855543114588,244.8144209045804L603.0168515010887,236.77480827160707L627.129010751574,233.6679552234982L626.7492215212853,250.7818844512367Z" stroke="#FFFFFF" stroke-dasharray="1, 0" stroke-width="1"></path><text x="612.0815269131857" y="311.4954642055651" title="Northumberland" class="hint " style="">Northumberland</text></a><a id="s47" rel="nofollow " title="Luzerne County" class="hint   "><path d="M708.4610495090858,269.04118073329937L707.3044910232222,240.7657137925844L699.5584461352476,242.17367117993126L692.8225196275714,225.3730459923163L694.24219278136,204.73933334180037L698.6891967695282,190.3614242046351L742.9443517137258,188.65711487400586L770.0636266970656,179.59638681441902L771.899858281556,187.6372712229013L784.8916424291135,196.37128473788562L793.53399626753,198.27159343915537L792.449861964308,205.77465354889682L794.9972831049292,214.09169403950636L798.9971672490601,215.41237721519155L800.4101550936797,232.6211859198529L807.3372496087204,235.93039844089435L801.9388624564987,244.01191608796944L792.6704771668152,242.2892686544319L780.8066001801208,250.33856920106518L780.3301923149671,259.4043901078867L786.4211456620685,268.2662309556863L739.2706151525197,290.6565580013439L710.6707033627548,280.596180604618Z" stroke="#FFFFFF" stroke-dasharray="1, 0" stroke-width="1"></path><text x="726.5414905575205" y="232.53760020870843" title="Luzerne" class="hint " style="">Luzerne</text></a><a id="s48" rel="nofollow " title="Philadelphia County" class="hint   "><path d="M906.7229657712846,464.8894220713282L905.3300338541637,467.5195300386313L907.0669408453205,469.2332259176128L902.8271814413216,473.3694891056939L881.94991595745,488.20001252077145L882.4656398074633,498.21054507182544L880.0447620189289,503.21005697511555L869.2659743796229,506.9422064084565L861.1377526509395,504.96010358542026L865.551330093275,492.34881256424524L863.4855695607248,486.83833901259095L858.3143237461468,484.5354284764953L870.0900183214477,476.856568059231L860.8348444760717,468.08974526361453L867.3324874641579,460.01621339827216L872.9272953666616,464.2096658760138L874.8410447026826,461.73393774661145L885.5107981329581,469.8060752481524L900.5272759138998,450.63225369851716L908.6699824791119,454.8663689006589L909.5858698349674,461.81736357814316Z" stroke="#FFFFFF" stroke-dasharray="1, 0" stroke-width="1"></path><text x="887.6270127292748" y="488.0237229635357" title="Philadelphia" class="hint " style="">Philadelphia</text></a><a id="s49" rel="nofollow " title="Montgomery County" class="hint   "><path d="M852.4675433576624,413.0239691029001L900.5272759138998,450.63225369851716L885.5107981329581,469.8060752481524L874.8410447026826,461.73393774661145L872.9272953666616,464.2096658760138L867.3324874641579,460.01621339827216L860.8348444760717,468.08974526361453L870.0900183214477,476.856568059231L858.9166382672714,484.1210393860074L844.5583450912081,464.2918290829266L840.4285749404061,466.6589648608124L836.0525625686278,459.1227312746987L830.2887118486176,461.0883591489646L827.8584427924434,456.0735643200014L829.4508197663718,453.3734669278829L822.3712365327206,451.6728405523436L822.7328799238392,446.10633037022853L819.2086077747219,448.4211168854936L814.1957401177852,436.1316493874983L811.664873076052,438.6945903466476L807.8935628358166,430.0354502154669L805.4515149015865,432.92242015372085L799.2913208524017,428.94426496904634L792.0157943905477,428.9888899066009L818.6118643445652,386.14821565441616Z" stroke="#FFFFFF" stroke-dasharray="1, 0" stroke-width="1"></path><text x="820.631264106931" y="435.48138079334154" title="Montgomery" class="hint " style="">Montgomery</text></a><a id="s50" rel="nofollow " title="Cumberland County" class="hint   "><path d="M502.1762847245989,471.5641934621681L494.7016315539902,454.01689951162734L490.2129239705423,451.204190359289L484.68735677012205,440.07777677666763L486.73863246614565,438.0181591384453L489.12003509578994,440.20300285102167L526.316776952028,414.0282947817295L517.4899404154118,426.08422122730644L532.5852093401052,418.40465779993156L531.8573065110601,421.78138504917024L534.8776336882199,423.59179424656213L598.1119038349917,410.9144642909241L596.821957513846,419.5527898634173L607.0792910381382,432.252800781258L602.3706049482946,434.867930437792L600.0353627867073,432.58761443629373L600.4982408594966,435.17558544214535L595.4790062414498,437.84394055801476L599.1330052232099,439.64770740014774L595.9649645482676,440.81911564692746L599.5595916176673,444.8572503859432L579.6039437546518,448.79990192849164L554.9870436620711,473.21586914036016L520.3047739227047,480.4880219820152L509.59283937506825,490.9495429176868L512.2949776706936,485.0613424753283Z" stroke="#FFFFFF" stroke-dasharray="1, 0" stroke-width="1"></path><text x="508.9719398540776" y="445.14186533225217" title="Cumberland" class="hint " style="">Cumberland</text></a><a id="s51" rel="nofollow " title="Somerset County" class="hint   "><path d="M235.73121861786603,456.4600532336608L257.3182410916186,419.972204113933L277.75332112631327,419.9822198241618L282.73514984782923,422.8230558714322L284.5562598996812,428.41167421871796L320.60169601297093,428.76576380820916L307.638881538473,464.870910171212L305.701892794395,463.7589038042497L303.9207354235143,467.4843847318343L304.8702084992349,515.964678708051L296.72909367430293,536.7934206239552L203.7600009196815,537.0692817234822L200.97445543349886,534.2959417165839L205.95676167709985,527.2776041231382L203.36222502425335,524.2745165981878L210.31828921234955,523.6116810141857L207.80333957339667,522.2237691540649L207.4770328164434,515.718668274033L199.7648919963849,509.685211826014L202.7637306797942,499.9674316026794L225.45892273496383,460.96643864975795L232.1993061154153,454.79601537191047Z" stroke="#FFFFFF" stroke-dasharray="1, 0" stroke-width="1"></path><text x="227.69763795534254" y="484.84828760729516" title="Somerset" class="hint " style="">Somerset</text></a><a id="s52" rel="nofollow " title="Cameron County" class="hint   "><path d="M384.97963154935564,184.37738169667227L358.5457599296453,184.3084113149862L358.6617977958995,139.28582391692726L393.0238093913681,139.00818311794228L417.37425216143924,169.35682602378165L427.1233430150253,169.49279173854393L427.1882860183598,192.28398202482822L410.5394785825147,224.17202460692897L387.70596429720445,221.36669622157933L388.0491435011022,201.62146175165344L384.91230093560307,201.58521807861507Z" stroke="#FFFFFF" stroke-dasharray="1, 0" stroke-width="1"></path><text x="373.9355777088772" y="177.5309444882415" title="Cameron" class="hint " style="">Cameron</text></a><a id="s53" rel="nofollow " title="Franklin County" class="hint   "><path d="M509.6116219103478,490.90864231024625L511.4480126688668,537.3985283136044L409.5809325872128,536.9614626787197L428.1710264658848,508.84005424023326L438.3597559842033,478.36881708829696L447.7901804341693,465.77858879063933L462.279951357182,436.855271948436L477.64263264855117,418.9714318741644L480.0929576322262,423.03834856155663L478.2950869884289,426.8746806479994L481.89576267088387,426.21937415503726L482.2553367996413,433.93491941026787L488.6404437500844,431.83771255785723L488.27354761604624,436.5668277663817L484.68735677012205,440.07777677666763L490.2129239705423,451.204190359289L494.982892061081,454.5264623726607L499.816370588705,469.20328324694674L512.2949776706936,485.0613424753283Z" stroke="#FFFFFF" stroke-dasharray="1, 0" stroke-width="1"></path><text x="450.58965782068896" y="494.5842784187095" title="Franklin" class="hint " style="">Franklin</text></a><a id="s54" rel="nofollow " title="Juniata County" class="hint   "><path d="M505.3645405010725,354.757186405689L512.5098626082004,347.2952776179218L538.744607519154,334.4737216990188L560.6190982870792,337.9416234441187L567.1323403298869,334.8971536349809L569.6775330341185,338.141640221379L578.5535543453193,337.42320358728284L579.1003171307513,341.53980946939373L582.914763532514,341.18708291841995L585.0088570420141,346.6203099924451L594.2129360244746,345.49326387793735L580.8679447092699,353.2156862419397L555.4820748884739,357.8375823573542L557.905976983536,362.5947682963315L538.4818111992857,371.19308775077207L498.600917712562,396.1371973552523L499.8545723553739,400.98862165583523L489.16555886773745,406.8062452661907L472.6732195012007,424.46040777989765L464.8593664773862,400.4581079405252L487.0897703714336,376.95795682120115L487.0818116700434,372.08713456909754L505.3873023870442,357.93629642811084Z" stroke="#FFFFFF" stroke-dasharray="1, 0" stroke-width="1"></path><text x="501.4075849514012" y="368.84012875717605" title="Juniata" class="hint " style="">Juniata</text></a><a id="s55" rel="nofollow " title="Centre County" class="hint   "><path d="M406.90601305033647,324.85897529730664L367.98462060308293,326.29311206500824L365.3958142152387,322.12957050961813L379.27722200406924,301.8376026762435L385.7339572670137,300.4674523108297L387.8990423929017,296.5942762946934L385.9661921735485,295.3787670418942L390.2974766435193,293.30137754240513L390.2245749387964,288.57404097190465L400.60240320211824,282.3459032145356L398.628645257623,278.2609075213695L402.4370430463325,280.8389590687293L404.1685381205457,276.98983153655445L406.16808225753994,282.28057969469955L412.97102103091197,279.182628457188L410.03441939236245,275.65750119059794L411.6605412601823,271.2082374484062L415.65724192375706,270.9024445633286L416.4572505873889,268.2428172660275L412.61272029437373,263.50611278209544L416.35203655502414,261.76667950689443L410.9940796058588,257.3925499983052L407.5377747666039,245.8898482242421L414.2020729617766,244.25258788962674L419.4069044962157,237.51473452677874L424.6571006285717,239.5700423831904L425.2834504278935,235.86274194644193L430.05469191065754,233.1060931301181L429.89981558162503,226.49779816746013L435.4169465585737,225.56749331776518L435.28658302981944,222.4981229411378L441.6080203691488,216.59002293475714L442.4788614751442,232.35281959570784L457.46732462719683,231.57222258266847L458.89941335515095,239.99193150196788L466.4937653946531,247.2989754864866L478.9956118846967,247.02476673682213L494.10265968744784,256.06277286244585L492.26404049253733,260.0876022082375L503.62206241894364,277.81446321851763L530.4701048589418,272.7063145066413L561.6308084076617,260.6456287981109L540.1302174309961,289.0298288012391L526.6093388150896,302.24477085126455L471.52239128033557,330.0566273765562L470.1826234884975,327.38095800356587L462.2442963749595,329.0414454579404L453.33739530236835,323.954975475428L434.2772605196549,334.90156213010323Z" stroke="#FFFFFF" stroke-dasharray="1, 0" stroke-width="1"></path><text x="440.14469882423555" y="287.20305992325837" title="Centre" class="hint " style="">Centre</text></a><a id="s56" rel="nofollow " title="Armstrong County" class="hint   "><path d="M178.471704777917,274.1213682858179L187.65174848218248,274.6600672039731L188.56922757831808,270.9315478999297L198.00172129064345,273.06330708504174L200.59880472793452,268.21328643002744L201.93093216644138,272.47794409879225L206.0470133508527,271.19220985042466L206.37045497530448,276.6679336653224L208.31747168313177,269.39890018709593L221.18207578249098,267.9656468075136L232.77137757126343,259.6424733949161L231.97264229985285,317.17552886666545L194.57295355819429,368.7447411439207L187.10514487078103,369.7522334592868L176.9762647869063,361.7608791346911L175.4023520001988,357.39199809289676L178.6087536158384,353.3236575720839L173.5761483794579,353.4242902958031L173.31382958167296,346.4319508839617L169.47582542379632,348.7977922792088L164.35647034227577,340.06736377362085L159.8461150910491,337.31720849836984L155.93282161803154,339.47997902155566L156.28602878568086,233.9532125777405L158.0920173048928,250.72633881919228L161.8864077791568,255.5602997023334L160.18674751050253,259.5035919735201L170.53703866701835,262.2208143592843L169.21939606504043,268.4775851800541L173.62596985015398,270.4256051325783L167.0422137130397,274.91264761285856Z" stroke="#FFFFFF" stroke-dasharray="1, 0" stroke-width="1"></path><text x="168.20345090652236" y="309.43956859762494" title="Armstrong" class="hint " style="">Armstrong</text></a><a id="s57" rel="nofollow " title="Lancaster County" class="hint   "><path d="M675.3810255333728,429.5879764613128L694.792934917484,426.2354339076401L719.6818634235443,413.52687153349325L763.9067753024613,450.8165168509149L752.8247611402306,456.6119819043397L753.9591944362322,471.54714558597607L744.6062877377965,489.21541989933394L746.7810824793812,493.1496974737065L744.1631472444533,494.2735173854353L745.851983679218,505.56262403187793L740.2140396151831,510.31033903327625L741.1181480929848,514.352580189302L737.7606903249804,515.253164281663L739.0366293316825,518.193294009935L735.8174937938207,520.2949686585562L737.1647427649657,521.5295553570613L733.1368439919438,529.1222217648583L727.7804787830565,532.0719130645821L727.5133847644396,536.5419746912039L725.627013361196,533.8453265410799L722.1858300545794,537.1584749817039L705.5806363023446,537.1195694062917L699.5958520317744,525.4524236467114L683.6372231803906,507.0127166466291L681.6018648871434,497.6593853397135L667.7097924384518,489.7521652250998L658.7583226380817,468.73666845552907L638.087665042272,466.1903944701007L628.8882021066172,454.3632710350348L632.7510374128287,446.7490522311691L635.9572798544378,448.3638505345052L647.2092918783394,439.8016920773116Z" stroke="#FFFFFF" stroke-dasharray="1, 0" stroke-width="1"></path><text x="680.3221344515558" y="470.35214343972456" title="Lancaster" class="hint " style="">Lancaster</text></a><a id="s58" rel="nofollow " title="Wayne County" class="hint   "><path d="M891.6402715947831,140.80487109010846L873.2814575784773,176.28639394841684L863.0940014523802,181.43363116451928L861.2069933530271,190.6755762445282L847.1285281178031,192.17835859554998L848.1227290953271,198.6502246175396L853.5171368968548,200.88385248439045L847.8785561367102,217.63017208408473L822.4458891517497,220.86888995359823L832.8269008956274,215.4513372534784L826.0206194676749,57.633476279238494L848.3449360381104,58.79839033013741L848.4554028133924,63.274426545904134L858.5008757067056,70.54220557573535L861.4562598805329,86.60662391797905L873.4377664737575,87.43374526854768L875.4627784551985,84.8028127994121L877.0032646960733,89.4314536355323L884.2856356411206,90.52528255593188L884.8855625518313,95.37071049263614L891.2918396479679,97.11183379311751L886.269421549367,105.74305487846686L894.4530358397149,110.5532276576123L894.9886564432026,118.7337471769224L891.9694434842355,119.83142037616653L894.531190287359,124.04560067624152L895.8860796118373,139.04629518578804Z" stroke="#FFFFFF" stroke-dasharray="1, 0" stroke-width="1"></path><text x="840.7283910858566" y="132.1341906605977" title="Wayne" class="hint " style="">Wayne</text></a><a id="s59" rel="nofollow " title="Susquehanna County" class="hint   "><path d="M723.0971013636291,94.63741596201362L720.5885186857885,57.713153660890384L826.0206194676749,57.633476279238494L829.349107562622,134.01948616004302L725.5698698852232,133.6356651359456Z" stroke="#FFFFFF" stroke-dasharray="1, 0" stroke-width="1"></path><text x="741.4512568234205" y="95.6488362504567" title="Susquehanna" class="hint " style="">Susquehanna</text></a><a id="s60" rel="nofollow " title="Westmoreland County" class="hint   "><path d="M127.64154826813524,445.60625339568924L130.87150763988643,442.44500774540484L127.65475971244064,438.25447612432436L141.7932335561386,431.93966152407484L137.77122422214575,429.9336960130104L140.88243976917215,424.61935576578253L139.51815917705176,420.90029639059685L142.88166555811176,419.68007610337736L140.82354537889273,417.3419993608941L143.49305299882144,401.1112700713411L154.053135523955,390.28149610644414L154.5489626204958,369.7289892843073L144.39509221426192,364.6174768467836L143.30156664340007,357.5070633069008L151.4218296706931,352.43868743564326L156.53975218596406,345.14965723675505L155.9874183095601,339.4824973367795L159.8461150910491,337.31720849836984L168.96885614531334,345.29754757560204L169.47582542379632,348.7977922792088L173.31382958167296,346.4319508839617L173.7187683083514,353.5785924019319L178.53999043583804,353.2196696650162L175.392164862423,357.4490068415553L177.12907185357767,361.9486132806014L187.10514487078103,369.7522334592868L194.07903654998836,368.10242965785073L194.00167797248423,378.3537049378101L197.8598972318921,377.4454065842865L203.79263159537823,384.5162349386628L207.1478609269932,384.4597543876607L208.59936888633433,379.51975672602566L209.2607369717689,385.02956998584887L212.06554251531043,381.2157163719312L213.9199199389709,384.98606065195054L218.31646576033518,383.2085473847437L218.27269290269624,388.61256164108363L222.74245877683825,387.70848147419656L222.79769216447812,392.1256464113367L226.93367010236398,389.24306198022805L234.27827809227506,393.69591079753627L241.43171807481963,393.5150811319081L241.92372499469275,396.13448017268L247.76604851039974,397.3295718436075L245.7472443160425,399.0975696132791L246.86830699371012,402.12313096474736L250.37729843616285,402.465555132836L253.02340747400808,398.15173933023743L256.856795585079,400.0872170414632L261.7983532775668,391.8824916783624L270.32530594584273,396.9767816425019L246.05492771174454,441.19956282442126L243.41868746362206,441.90625899041333L243.94093744877387,445.23717233252955L240.56039944674103,445.8682701093039L238.49336552196542,454.2521166741726L236.4597581430246,456.5528756015856L232.0891576881902,454.8882242156187L219.53000854814331,470.9481699958242L211.8904510847526,470.40697035628546L209.63845693969233,463.8895368358926L189.7175090147348,449.5499455156478L173.27180763833826,457.89373711177814L171.89033625122056,462.2498801486008L167.2297207177669,459.6778870231565L164.51803198047537,462.10674962402663L157.0957470650053,455.6635456977883L153.5144906139417,456.9370621582484L147.73949771198727,452.67754427517775L125.28115661015795,452.4010809079182L122.2681514382748,446.42103030383896Z" stroke="#FFFFFF" stroke-dasharray="1, 0" stroke-width="1"></path><text x="157.9175722917481" y="414.5695819376942" title="Westmoreland" class="hint " style="">Westmoreland</text></a><a id="s61" rel="nofollow " title="Pike County" class="hint   "><path d="M939.43386517657,201.11637322066872L928.7454883850451,211.24153611239672L921.6858019048643,231.80782328179794L915.1548915449717,240.83334635703523L898.5950623906581,253.14479669856246L890.6990755685073,240.20435077219372L878.0135422504021,238.25567823090387L882.2771777585696,216.7278530148542L845.7526278216554,219.45770655767956L853.5171368968548,200.88385248439045L848.1227290953271,198.6502246175396L847.4505371760033,191.62477679807216L861.2069933530271,190.6755762445282L863.0940014523802,181.43363116451928L873.2814575784773,176.28639394841684L872.988577367359,173.13213753675882L891.8534056179833,142.47467106191561L899.9768521258305,153.12902249362833L898.9847204106677,156.68126130284145L902.4238344549211,162.42100597563604L905.41296352264,162.73770860454533L905.7088680402861,168.32492995864231L916.7749647997363,169.26356126503651L920.0167030495435,177.1822299445048L925.4361011734325,175.94855586488302L929.8781707667422,178.90494212800877L933.553339894198,176.28405820128773L936.2855620810716,180.7821857112349L944.8376642457395,179.17541003821862L944.5408046839269,185.12648392957362L952.3081788916256,193.5340099666946L941.7807270421868,196.98595074690365Z" stroke="#FFFFFF" stroke-dasharray="1, 0" stroke-width="1"></path><text x="883.1610450651847" y="199.73008662679058" title="Pike" class="hint " style="">Pike</text></a><a id="s62" rel="nofollow " title="Indiana County" class="hint   "><path d="M194.1910950655465,377.35896868031887L193.16123910579586,370.77431087682635L231.97264229985285,317.17552886666545L231.95752076721442,288.68525120814866L297.2416340437601,289.8154169872332L298.22485201336644,329.49318321341525L270.26450146723073,396.8162675336371L261.7983532775668,391.8824916783624L256.856795585079,400.0872170414632L253.02340747400808,398.15173933023743L250.37729843616285,402.465555132836L246.86830699371012,402.12313096474736L245.7472443160425,399.0975696132791L247.76604851039974,397.3295718436075L241.92372499469275,396.13448017268L241.6367342226033,393.6043464712184L234.27827809227506,393.69591079753627L226.93367010236398,389.24306198022805L223.50490236991277,392.45451538634006L222.74245877683825,387.70848147419656L218.27269290269624,388.61256164108363L218.31646576033518,383.2085473847437L213.9199199389709,384.98606065195054L212.06554251531043,381.2157163719312L209.2607369717689,385.02956998584887L208.59936888633433,379.51975672602566L204.71440839026081,384.8023995757194L197.8598972318921,377.4454065842865Z" stroke="#FFFFFF" stroke-dasharray="1, 0" stroke-width="1"></path><text x="233.55569538282109" y="342.9552038427502" title="Indiana" class="hint " style="">Indiana</text></a><a id="s63" rel="nofollow " title="Clarion County" class="hint   "><path d="M166.28597790704885,262.42149840444563L160.1822906377231,259.4921943483905L161.8864077791568,255.5602997023334L158.2465752858684,251.25855398480508L158.046334358919,236.242036903167L154.72898844591828,231.73718579085744L159.56278532159672,231.32562007174602L162.82537536904078,223.9644379381034L162.70344806375965,216.38740387169673L165.4920178564721,216.41069357016022L166.3378686401063,211.41648471045391L169.99107175172844,211.43999458333292L170.0625408902015,202.03158089849694L190.12181104530373,199.01527799444193L190.17242838613583,188.2480832477413L202.48979217798183,188.22686758358213L202.51685176270644,177.70709186201293L233.24905882863618,178.81598802121425L231.9728014738812,259.3419136756338L221.18207578249098,267.9656468075136L208.26701351632596,269.43222499765216L206.16989570030023,276.6921763969913L206.0470133508527,271.19220985042466L201.93093216644138,272.47794409879225L200.59880472793452,268.21328643002744L198.00172129064345,273.06330708504174L188.56922757831808,270.9315478999297L187.65174848218248,274.6600672039731L175.4438964214521,273.02830408333466L170.53114922799136,276.4767308139408L166.9857069331763,273.2560328777363L173.62596985015398,270.4256051325783L169.21939606504043,268.4775851800541L170.71595027424792,262.3839363115976Z" stroke="#FFFFFF" stroke-dasharray="1, 0" stroke-width="1"></path><text x="180.27836000358855" y="229.1472757699404" title="Clarion" class="hint " style="">Clarion</text></a><a id="s64" rel="nofollow " title="Northampton County" class="hint   "><path d="M806.8847178477354,320.7958739991582L805.9907965077115,314.76964291788954L809.7159462798919,312.79732703365516L841.919398884611,305.59004372713207L857.7137601393244,298.22454267206103L865.9171120091203,291.1255447169069L864.543758497417,289.0871171588369L868.1952106947327,285.2034018015256L883.7439664245776,276.66772285877414L894.8331434180603,297.79789228244863L892.68604495731,301.9499696550156L887.6790667394042,302.21425995308346L889.5660748387575,306.9712601034853L885.6542139319916,313.9902950247242L881.5324024825777,317.63206435814664L875.6131979114517,316.79654262498025L871.642124266352,322.28463834975264L873.9423481418265,326.5092596568302L870.4664648971539,334.9139478946845L874.7829461825413,338.22685111738065L871.0186395995296,343.7866850749915L871.5994656269038,352.30995222615L849.9128002117606,367.3587189545542L838.5535048931372,358.0591116901651L842.7377125614393,350.8887543213059L834.4162535630301,338.55488723505914L826.2880318343467,342.41770537349566L818.8770482748495,325.7772010946237L813.8839181973609,328.6692916269758L808.7201535620899,325.67973043363054Z" stroke="#FFFFFF" stroke-dasharray="1, 0" stroke-width="1"></path><text x="820.240144302134" y="321.5558382480149" title="Northampton" class="hint " style="">Northampton</text></a><a id="s65" rel="nofollow " title="Butler County" class="hint   "><path d="M141.0083464251452,233.47277575463977L156.28602878568086,233.9532125777405L155.93282161803154,339.47997902155566L83.42570930880129,338.5259246627829L80.74537785498114,269.90087304871395L107.09043036718822,233.7058066114596Z" stroke="#FFFFFF" stroke-dasharray="1, 0" stroke-width="1"></path><text x="106.82431888927256" y="288.53394745340375" title="Butler" class="hint " style="">Butler</text></a><a id="s66" rel="nofollow " title="Snyder County" class="hint   "><path d="M580.8579167455184,300.03140017488204L593.7978101600204,293.59488786488146L616.5136948387984,295.24297877014124L608.5099471998426,310.22307868237385L606.3211451438144,331.5227778165763L594.9330393261599,345.62604733577064L593.2967303205602,343.5529714270024L585.0088570420141,346.6203099924451L582.914763532514,341.18708291841995L579.1003171307513,341.53980946939373L578.5535543453193,337.42320358728284L569.6775330341185,338.141640221379L567.1323403298869,334.8971536349809L560.5816923905504,337.9403641479021L528.2142905372158,332.7790259150479L527.8114210729005,310.57553609808474L572.789226103228,297.74190265811103Z" stroke="#FFFFFF" stroke-dasharray="1, 0" stroke-width="1"></path><text x="559.1591143006664" y="318.63675173137557" title="Snyder" class="hint " style="">Snyder</text></a><a id="s09" rel="nofollow " title="Montour County" class="hint   "><path d="M654.8152636218709,282.853519731525L638.4819391090873,276.74825072748536L617.5457792349365,281.26149308290314L626.7492215212853,250.7818844512367L627.129010751574,233.6679552234982L641.7578997748673,237.11898459844178L645.2272568843993,256.54622776935867L653.0356979912701,258.65676516831445L653.7809507893411,270.0396505825902L661.7975915245497,278.6868922456579L659.4854295969908,282.6185729186418L659.7020654487999,294.75644589660715L655.0312627775704,293.4133922544743L653.322847937386,287.81997844351463Z" stroke="#FFFFFF" stroke-dasharray="1, 0" stroke-width="1"></path><text x="624.6680034068386" y="273.51809552232356" title="Montour" class="hint " style="">Montour</text></a><a id="s67" rel="nofollow " title="Jefferson County" class="hint   "><path d="M282.624205550464,289.61449596887905L231.95752076721442,288.68525120814866L232.98132811390747,199.83078340055818L235.67550770814273,201.43897071245647L237.53848052930107,198.25208920028035L238.68676196572164,201.2132380423118L239.78760954186214,197.25860858943906L241.14409060661842,200.48938492485377L244.23795618461486,197.72758444389547L248.50588939153113,201.26643921987306L253.63495408874633,195.22223751879483L263.4556732548317,195.9656622721668L270.7514148182129,190.363757568236L308.3658293233516,214.43812882991097L307.8988127258399,221.26404630977595L312.3803574780377,221.3548438995158L312.35027358678735,227.3609771378924L303.4159945814167,227.1705746383468L297.3427095514023,242.09294257315196L297.2416340437601,289.8154169872332Z" stroke="#FFFFFF" stroke-dasharray="1, 0" stroke-width="1"></path><text x="242.33579171673415" y="242.72401791653712" title="Jefferson" class="hint " style="">Jefferson</text></a></g></g></svg>