<svg id="map" class="map svg-content-responsive" xmlns:xlink="http://www.w3.org/1999/xlink" preserveAspectRatio="xMinYMin meet" viewBox="0 0 960  540"><g><g id="states"><a id="s01" rel="nofollow " title="Grant" class="hint   "><path d="M638.3131476189965,181.01344001940924L638.270824082766,337.1094388178044L599.4638610063257,336.93195892151107L599.4141987096609,371.34765301317293L590.9400415531263,371.2197346043522L584.5942254548045,364.097293880518L573.1891885471405,376.4388273171826L565.0434660529845,375.64864062639845L552.6057750737145,379.06201584422615L546.0917706710898,377.7888156879844L538.7054590859007,364.84684019079396L538.9687496830129,360.25282801315825L543.4340335516345,351.47001394514336L539.5533372439913,345.10690005753986L539.4497903501288,332.4600900801397L535.8569141950366,324.8953596823794L535.1182126648428,318.7790729422486L531.7060911846665,313.7463567706709L535.9724242737257,304.1457890883785L535.5225482057303,276.7396636814683L544.147300747707,270.14048833731067L544.1666026929706,265.83922629137123L548.479481618785,263.6327468822301L548.4857145386086,259.2959502411195L582.8824847151991,258.72014500328714L582.9546659480066,245.86868581139606L585.0859224042033,245.8869984454068L585.0456094872716,243.74174599042453L587.2195916035571,243.74472446864002L587.2566875296088,241.58190119839765L591.5208089374382,239.50892485354598L591.5089462835776,237.35640380884888L593.616075308194,237.37682306099214L595.7927717605298,233.22137288566137L602.1685460863973,233.25820664004095L602.1968958185025,231.11648962324034L604.3262421863665,231.1091805287433L604.3423271407519,224.6274932016613L606.4847425340522,224.6019646785444L606.5032402315956,215.94954588500514L610.8126005736367,213.8290769362775L610.8046586274104,209.4665918726305L612.9857784422029,209.42261511706783L613.003471892026,205.11976825025795L615.1729301148898,205.12635346377283L615.1915283433982,192.09272722984224L623.8694617658157,187.65502024443867L623.9019332674834,183.22843220592677L626.0749100741186,183.24494170014532L626.0842594538562,180.98611643196728Z" stroke="#FFFFFF" stroke-dasharray="1, 0" stroke-width="1"></path><text x="582.0335818295409" y="293.53602475468796" title="Clark" class="hint Clark " style="">Grant</text></a><a id="s02" rel="nofollow " title="Lincoln" class="hint   "><path d="M653.3802259856111,183.89313670654246L655.2944360885549,187.14590058966223L663.1232849813023,190.0977000156763L665.3990044340799,189.58124238623532L667.4275182441334,183.79618854787896L671.8460552140696,186.39341037867325L679.6600255240091,185.45209481462098L683.2764259248925,187.84161908454098L682.9374355111995,193.57119954147038L690.4979672585869,193.045079739627L692.1304895978383,198.25733925167333L698.1277648408013,200.8054042854892L700.7814807216591,199.43374959712673L702.7450515283772,191.092728819488L711.6542061700993,183.89418722175014L715.7126412237112,183.42504299108987L729.1979653883573,205.22109012277906L732.3532302531739,206.37804140599474L738.1577876363954,200.0380622876637L743.633307171448,201.7472564427062L749.1453194467667,198.08132671510157L754.3183413083898,200.24233480984367L754.788424100333,285.59925252085213L638.5625649429494,285.3758701559236L639.1231256033161,183.7086940457175L651.414242435736,181.56079226665133Z" stroke="#FFFFFF" stroke-dasharray="1, 0" stroke-width="1"></path><text x="685.7434030696279" y="238.52218156241398" title="Lincoln" class="hint " style="">Lincoln</text></a><a id="s03" rel="nofollow " title="Whitman" class="hint   "><path d="M833.5796683833305,285.73967796531997L833.5909278513991,408.2289797016665L816.4061647088511,408.3895552360582L816.9001738704419,405.0783596107776L813.6942413993074,401.868250859603L814.2616381652879,396.8193776125099L812.0274380010205,390.8258889678673L807.2917258367752,386.0878008507798L802.5070550926166,384.5980650712372L798.7620755876051,380.0310158052034L798.7659962952375,375.5191807331221L794.0849729759093,374.09102740078106L790.5964479623972,368.14306252860206L785.873804823591,371.47864635525275L777.2216073281916,372.1816362380023L771.4468071105875,367.85970762130637L763.1084672876523,368.9436722153732L758.1724974412973,378.2532053654695L750.392808190396,379.6116670718884L748.1029138715639,384.90832178130313L733.7998708382993,384.9064201977053L720.7510521233153,389.34844600416L715.4089371787022,384.38653939276537L717.1519430483968,379.5955659800911L713.8484955412932,374.4938246415586L715.1962136569427,371.19526429523285L711.9999321584401,363.1237015674278L720.7165700023488,361.31304096529675L727.4889389848058,356.55050478684734L732.5902822684448,358.00472392136453L735.8015428807203,354.86652325958585L735.0833496673677,351.3956847511927L737.8564963345461,348.71481250705347L736.603981042671,346.39874775662156L739.9824246496019,343.6001633595233L741.1457689755944,336.59862145616717L740.9854220865554,285.5477033090601Z" stroke="#FFFFFF" stroke-dasharray="1, 0" stroke-width="1"></path><text x="776.0555123618667" y="338.36124742259864" title="Whitman" class="hint " style="">Whitman</text></a><a id="s04" rel="nofollow " title="Cowlitz" class="hint   "><path d="M225.04070554333794,413.74852599647784L310.8584610880953,414.1290582897109L310.21767671772704,462.30509699081904L305.27627819926784,462.9592628207074L301.8269602620712,468.669498956192L303.10732263122736,471.48026064548867L300.2950694186984,475.9701935776329L285.0254211577776,471.6413046851394L273.10687208133186,479.37700981038324L262.6217940336037,479.74488766833383L259.5845525215964,485.06328127971665L261.2301438862896,485.24774194086694L262.5764545684269,489.23868038645105L255.95910433387053,491.6895040572963L253.0797969677451,475.7528357367855L244.02597826751116,457.9492426626093L222.24614578063483,443.09547697944436L212.96774090478084,445.02943603012955L212.49212890976742,414.1002020167107Z" stroke="#FFFFFF" stroke-dasharray="1, 0" stroke-width="1"></path><text x="257.4627598478207" y="441.99939288910633" title="Cowlitz" class="hint " style="">Cowlitz</text></a><a id="s05" rel="nofollow " title="Island" class="hint   "><path d="M276.3004392437815,113.3151685740686L280.7475270077566,123.68358857380645L290.71567483389117,131.8133421569337L295.3981055867316,139.35691463361218L293.1492279015847,145.70493984864697L293.31791886071187,151.88410105603361L300.71528885204407,166.76719505443452L299.54862700420654,173.12553701169963L301.8567174276859,180.10945859867752L301.3396866751309,185.4950071252997L291.71374625356566,201.11612329673426L284.78857020443775,186.20062552685704L276.79515212212937,182.35863234440149L272.45311921649136,177.23211139338946L268.9548426993824,156.51508266267228L264.2337075250507,155.0248539632039L251.52981055068722,144.26029247536826L247.79327564673167,136.75639043230967L248.18454216218015,119.43269066976154L257.94670204120393,119.33674685130336L261.1719364576038,112.93638225881023Z" stroke="#FFFFFF" stroke-dasharray="1, 0" stroke-width="1"></path><text x="267.9167981464056" y="150.25717235226102" title="Island" class="hint " style="">Island</text></a><a id="s06" rel="nofollow " title="Chelan" class="hint   "><path d="M451.68696169620125,92.03564397347054L456.78418321027857,98.67494999841256L470.5188241679116,94.2558104980717L469.92679731553017,98.64308482322122L472.8209832644643,100.22313497813866L470.2945395851875,102.66752210006507L472.4194625905948,104.48828667539146L468.7588285651482,107.37451433150636L471.4897522270621,113.22490371399545L470.65735583756486,115.19080259305247L479.3775122652469,119.32191631220758L477.00256875009745,126.96433600246655L484.6961029640688,128.32848378544168L488.83425907286164,134.72243155732122L500.2527671298212,142.35444699352956L501.18348280300233,145.1355897809899L499.5770985146273,150.4479937351507L500.95286476948877,153.53237946390436L503.865045761142,156.52396834834053L506.7372154287614,155.74771249230162L514.5766200728231,163.3553955553307L521.5773954075639,165.43448701962006L522.7589358382093,167.03446114210692L521.0157289065837,167.38849554476292L521.2789189727337,169.62768150868033L526.9306692892806,172.53460498999812L529.5833798604908,178.02423926309166L528.9764744252989,180.02432487437818L549.004956972396,181.17918103630564L549.7911091180276,182.8158335250764L544.5010692132419,190.1440355623572L544.1764547275325,195.78800577884977L540.0046207454961,198.35530535324142L536.4387874199656,208.07103133820874L527.1610862608659,210.76618721893283L522.6855482338206,208.76562663679942L514.9524048196745,212.89825584876235L513.5986548461324,216.80259291308903L515.963444733823,222.7539850097446L512.1683002773207,230.38047416192148L512.0429381640724,237.12821130430984L505.5917656145202,246.83428370151705L504.00116468763736,255.9939327794982L506.58139243314145,264.86631922766173L522.8709273331224,269.85773942611104L527.3187188138518,273.88249871036896L526.4996930426905,285.31187615742783L496.86939750561123,285.4931911302865L483.2502666266637,274.7661760097535L482.8384917943713,277.2908640337464L479.2527533377879,278.48536912481813L477.8253141669629,274.18379387848745L469.20619135902143,273.2822474012655L463.49351927773205,269.3131407016135L462.1684206291884,265.7937840809618L457.2459219321345,264.92260885880387L455.23620741251943,261.44213821501035L451.2211012047828,263.14342301544457L443.7219938769613,260.5102935917603L435.816439857982,247.24633106984857L427.92083840453324,242.41665725477105L424.04205218522384,235.51889946808387L422.0240941264865,228.3031753247742L422.51398151851754,223.73932015030095L428.8292362035054,218.1499716911403L423.33099667038096,207.83345144691884L428.37584155173954,201.0378083024343L420.0320730566982,198.44593038708535L419.6793099008137,192.91481836332423L417.30657806689396,190.5533958529286L418.8949673125471,181.74318439365015L423.6299757600382,175.4209074697019L420.0475548252971,169.14805005615653L433.8621179000402,163.9947240974061L440.78287058670685,158.19504882148067L438.9616516263113,155.08736679826507L439.9317754377389,152.37263925427578L444.7723413983904,150.6847761470044L443.580546809324,146.5830894998344L439.00658896762707,143.42472318041018L439.5013018459749,140.94403283583415L434.24896105303014,133.07164506509525L435.15162858700114,130.19215699482356L428.2678712954212,127.34530580905084L428.4778804811276,124.14548175042091L431.3923736849747,122.7075326967215L428.78661107438165,115.88727248375471L431.7319672844569,109.9063298738829L429.10097140167,105.81351777604687L431.8221435599862,100.46556065547702L440.29539593783556,99.87268134890928L440.44076371310166,95.2629572662945L449.2161116405232,95.18811655968966Z" stroke="#FFFFFF" stroke-dasharray="1, 0" stroke-width="1"></path><text x="464.79080267903" y="194.61190377897557" title="Chelan" class="hint " style="">Chelan</text></a><a id="s07" rel="nofollow " title="Pacific" class="hint   "><path d="M142.39771787059271,354.5574362395655L197.11079074682766,354.63349772979655L198.37918993115727,414.33221514840534L161.36097431344933,414.208922580392L161.26094600335728,431.73315290163555L146.7441741386856,436.04635380031687L140.94926772809868,435.4893989391767L131.72635594487747,427.67543084382305L130.19738049948865,427.8875535233374L130.31610756905138,431.8067334067291L117.97934967855872,433.86685726471296L120.8039681997725,407.3968810493079L119.26835771069818,372.4764104211463L116.27132858465484,354.45215300744167Z" stroke="#FFFFFF" stroke-dasharray="1, 0" stroke-width="1"></path><text x="146.93823191730124" y="390.0265647046312" title="Pacific" class="hint " style="">Pacific</text></a><a id="s08" rel="nofollow " title="Columbia" class="hint   "><path d="M751.8881057625385,384.3416296877931L750.795535235844,401.695428293885L763.4668601775738,401.5805517550825L763.454896992751,405.87948063912336L765.545438408154,405.90836675852097L765.5632323889449,412.35245349308843L769.836200521685,414.44020387771616L769.7356695567714,421.08765113952813L776.0734431778992,420.9672298292944L776.9258452294116,470.25445454679084L737.3622861110225,470.0214563656309L737.9141005774427,439.9872388309668L725.3333540350977,439.93668600746787L725.3843232343115,427.22948923854256L712.7420517414421,427.28637909973986L712.6994266123183,388.57285008859253L714.1353103841966,388.5846929337249L714.07278012402,383.7658266978142L720.7510521233153,389.34844600416L733.7998708382993,384.9064201977053L748.1029138715639,384.90832178130313L751.92761443175,379.18673366103394Z" stroke="#FFFFFF" stroke-dasharray="1, 0" stroke-width="1"></path><text x="737.3237399231496" y="426.90843463892264" title="Columbia" class="hint " style="">Columbia</text></a><a id="s09" rel="nofollow " title="San Juan" class="hint   "><path d="M246.64742370863132,55.55456581735325L255.28765801920508,60.247978776887976L264.1290547905746,74.30246906396133L258.0875459230492,84.4777756956255L260.5316547420589,97.66855364860749L258.94226018675545,102.71392987999207L261.16057645856745,112.36036720065113L259.8738806386218,117.41111067670317L209.42714085144416,132.45120606171895L222.8279184745952,111.45134808797866L218.33056522816332,106.80278189804994L212.3937090951158,92.35881595206865L207.47291942446373,70.26359425041574L233.5497469446973,59.121376588195744L233.54984747566232,49.33552391536705Z" stroke="#FFFFFF" stroke-dasharray="1, 0" stroke-width="1"></path><text x="227.53719284427802" y="90.50759831301582" title="San Juan" class="hint " style="">San Juan</text></a><a id="s10" rel="nofollow " title="Skamania" class="hint   "><path d="M323.50002886421044,413.70757141700506L382.9550468245152,413.66151548146627L382.95534841740846,463.7314167623508L373.91650883094735,463.7188160862206L373.8714709586666,472.2718484781981L374.2166942921858,501.51473291623097L383.75366480979756,501.5731152487069L381.34393758079113,503.30104026186837L382.81852577416066,509.81201513639826L364.35963318228096,514.1447015829799L353.91537070630875,512.4353722549458L348.3022242802872,514.3526751997233L344.16919525070807,519.9397569458197L336.6431456242872,524.4928224910309L309.8797921446467,535.1571344505128L310.7068603930029,414.06420439812246Z" stroke="#FFFFFF" stroke-dasharray="1, 0" stroke-width="1"></path><text x="334.5377295279808" y="466.607542454773" title="Skamania" class="hint " style="">Skamania</text></a><a id="s11" rel="nofollow " title="Franklin" class="hint   "><path d="M715.3233853275615,362.6028288792322L711.9851541065982,363.20584113016776L715.1962136569427,371.19526429523285L713.8484955412932,374.4938246415586L717.1519430483968,379.5955659800911L715.4089371787022,384.38653939276537L705.408921036691,381.8170611596224L697.5368438290334,385.6989022247053L689.4725514164556,383.2667928731762L675.1524181191571,396.81076029009546L673.2056359835797,410.26765441464886L667.3936393089562,414.9270822274475L666.6091961897246,417.8284983793001L662.0613763989049,417.8596718588269L659.2329377010274,424.0057457709363L659.6718558938446,427.47275966163306L654.1773360064217,428.78850277434503L650.152176702195,433.6730663320941L638.9660962361168,435.6270424983286L632.3423120198058,442.16070734561254L616.0046227876301,435.93211727339985L609.8001532259796,430.352301847508L611.3737644197909,424.3850603056144L609.4295960893032,416.18516266681854L610.5461935166131,398.9510742936727L609.4796605098318,394.61245334925025L599.5955565703653,385.3319247308882L595.8451483932504,380.60840733208533L595.0027994382308,375.090219880517L590.5302773401318,371.97080443255254L599.4141987096609,371.34765301317293L599.3876585349235,362.6371538462254Z" stroke="#FFFFFF" stroke-dasharray="1, 0" stroke-width="1"></path><text x="637.7968730178685" y="392.3293821104746" title="Franklin" class="hint " style="">Franklin</text></a><a id="s12" rel="nofollow " title="Mason" class="hint   "><path d="M194.35041151219502,234.41726259874304L239.3669712294968,234.16482882949094L230.5420615363737,246.98820856407838L254.40730835944578,246.96290197687722L254.07696360873615,275.71056360427247L249.19648685501397,285.7103488080684L252.44052056185046,295.369560677409L244.9049204937628,300.85197154387333L240.19785965451683,296.1367665175312L238.3009408775397,299.77472186564955L233.71612569163153,302.20593849030774L232.25561183334685,306.62411054724L226.99834502312478,308.3748507543705L226.8601149463675,311.5428294355452L185.24894113459231,311.8592175644062L185.06175247791998,285.89728327550984L183.63260428068952,285.84884664228775L183.54252853612797,234.41726259874304Z" stroke="#FFFFFF" stroke-dasharray="1, 0" stroke-width="1"></path><text x="206.98744694275598" y="272.2023185251558" title="Mason" class="hint " style="">Mason</text></a><a id="s13" rel="nofollow " title="Kittitas" class="hint   "><path d="M423.9319707786417,235.52426638014367L427.92083840453324,242.41665725477105L435.816439857982,247.24633106984857L443.7219938769613,260.5102935917603L451.2211012047828,263.14342301544457L455.23620741251943,261.44213821501035L457.2459219321345,264.92260885880387L462.1684206291884,265.7937840809618L463.49351927773205,269.3131407016135L469.20619135902143,273.2822474012655L477.8253141669629,274.18379387848745L479.2527533377879,278.48536912481813L482.89690028498717,277.2342183814126L482.68065817945717,274.6095334172069L496.86939750561123,285.4931911302865L526.4996930426905,285.31187615742783L528.3585105839666,290.68170399441715L534.7987252583434,290.953488783337L535.885666051001,304.877265547344L531.7060911846665,313.7463567706709L535.1182126648428,318.7790729422486L535.8569141950366,324.8953596823794L539.4497903501288,332.4600900801397L539.5533372439913,345.10690005753986L543.4604731954096,351.7103304266575L541.9954354437032,356.6815965782307L538.7066654574792,362.703896411188L484.72495535099824,362.58537296281156L484.86519604705427,349.82550071554215L472.26102578988684,349.69120963541445L472.2026172992728,336.9931796354522L432.78864825667824,337.1141480143897L426.421318531864,328.576023680921L426.4115670282672,325.37672288043177L413.46438511881206,314.3694974615628L407.2145760919848,310.9580020060466L399.0835311187029,313.59240891626087L394.99845535938766,309.5901835123832L394.4400058492856,306.62322414734354L395.8587993571291,304.4568596199624L404.96821168096085,303.54356292322063L403.51212118513195,298.42048365179744L404.6845132979697,295.7043533167598L403.5960645408377,292.75863512480737L398.7600224736061,290.89886612569353L402.08799953614925,286.0240762261701L401.1633157208644,282.48184157634114L392.4885992893214,281.32381240788345L390.6946242204185,278.2390989015812L392.1850963062461,274.5903978858032L388.6279086436962,269.6018465697416L391.4553420319262,269.04654217778625L392.50619220818226,261.7776404810038L396.74276813162396,259.74984632496944L398.8792521979967,255.2312616675381L404.10243901111335,253.09199517867273L406.11476733581276,247.98328788563686L411.07235133962604,244.64193930525198L412.45324467369755,240.23186227058522L417.3843890337357,240.32453407127468L418.1541546320914,236.56135283637923Z" stroke="#FFFFFF" stroke-dasharray="1, 0" stroke-width="1"></path><text x="458.61981789337864" y="305.56431627595697" title="Kittitas" class="hint " style="">Kittitas</text></a><a id="s14" rel="nofollow " title="Garfield" class="hint   "><path d="M789.874434572378,368.1141851259463L794.0849729759093,374.09102740078106L798.7659962952375,375.5191807331221L798.7620755876051,380.0310158052034L802.8042246249051,384.9084680569458L807.2917258367752,386.0878008507798L812.1012277292657,390.94632929878117L814.3321103716926,397.3273449419712L814.5875595535408,410.35543110220715L801.8014282498798,410.22697352822615L801.8233440002305,412.3470599627899L795.4325905605901,414.4613351040216L795.4177119777833,452.4335335512669L789.3349854146454,452.42802202830626L789.338604529381,470.4172598111427L776.9258452294116,470.25445454679084L776.0734431778992,420.9672298292944L769.7356695567714,421.08765113952813L769.836200521685,414.44020387771616L765.5632323889449,412.35245349308843L765.545438408154,405.90836675852097L763.454896992751,405.87948063912336L763.4668601775738,401.5805517550825L750.795535235844,401.695428293885L751.92761443175,379.18673366103394L757.9382602930455,378.4745568184444L763.1084672876523,368.9436722153732L771.4468071105875,367.85970762130637L777.4920356238126,372.1734316306065L785.873804823591,371.47864635525275Z" stroke="#FFFFFF" stroke-dasharray="1, 0" stroke-width="1"></path><text x="773.8016265073113" y="407.25473774441235" title="Garfield" class="hint " style="">Garfield</text></a><a id="s15" rel="nofollow " title="Wahkiakum" class="hint   "><path d="M194.26023523666754,414.33265235269573L212.49212890976742,414.1002020167107L212.96774090478084,445.02943603012955L202.845780702326,449.4782316255869L195.14098702028514,448.3496131964066L191.32895336167712,444.043349685453L190.9490468452659,435.3391074826286L187.60337633289691,431.9791941426638L165.22598779056807,433.8251337333377L161.26094600335728,431.73315290163555L161.36097431344933,414.208922580392Z" stroke="#FFFFFF" stroke-dasharray="1, 0" stroke-width="1"></path><text x="181.68605979187484" y="427.8044549061502" title="Wahkiakum" class="hint " style="">Wahkiakum</text></a><a id="s16" rel="nofollow " title="Jefferson" class="hint   "><path d="M269.5256575181702,157.59770573454625L271.2692665736513,173.91207396950267L273.92197714486156,179.323850550506L270.9151965152232,185.20947074768355L275.0473207661171,193.12737262438714L262.7186053528185,206.45480623950698L258.1984315773507,216.71546923537608L257.89905036383516,223.15192669066255L248.7196684884193,225.64483380014917L239.3669712294968,234.16482882949094L183.54252853612797,234.41726259874304L183.54252853612797,247.36333188722256L90.54625891065825,245.0975807261102L87.48669952443743,231.38319230326397L82.2299353690396,231.60916646135684L78.11480085121366,228.47895328379764L76.9158685636412,223.13341128100637L79.55480639265716,217.72532673410205L61.77580471649617,193.3980785841959L183.54252853612797,193.08630123900366L183.54252853612797,195.21198474359153L239.51314325248313,195.22322385606094L239.51173581897365,165.4496805820936L244.70757820963263,165.34633368269715L243.54875777706093,163.58230379798806L244.71200157209114,160.8332267521164L243.68447457969523,158.89427465193876L239.2204976136145,158.90692156579098L239.23748734668607,122.6651781796918L248.18454216218015,119.43269066976154L247.79327564673167,136.75639043230967L249.22473605615414,141.08935647711678L264.2337075250507,155.0248539632039Z" stroke="#FFFFFF" stroke-dasharray="1, 0" stroke-width="1"></path><text x="167.78755750356842" y="208.66709117979576" title="Jefferson" class="hint " style="">Jefferson</text></a><a id="s17" rel="nofollow " title="Walla Walla" class="hint   "><path d="M705.6565288032753,381.8309627529243L714.07278012402,383.7658266978142L714.1353103841966,388.5846929337249L712.6994266123183,388.57285008859253L712.7420517414421,427.28637909973986L725.3843232343115,427.22948923854256L725.3333540350977,439.93668600746787L737.9141005774427,439.9872388309668L737.3622861110225,470.0214563656309L637.807275803545,470.1236290735178L642.4386368262085,466.10636229665215L642.3545929395368,459.54559720331326L639.1176969312091,449.96108882381213L632.3423120198058,442.16070734561254L634.025501965375,438.85684188513915L639.1591156887544,435.54288689800615L650.152176702195,433.6730663320941L654.1773360064217,428.78850277434503L659.6718558938446,427.47275966163306L659.2329377010274,424.0057457709363L662.0613763989049,417.8596718588269L666.6091961897246,417.8284983793001L667.3936393089562,414.9270822274475L673.2056359835797,410.26765441464886L675.0050397245896,397.08621786619096L683.9202262242052,387.58222853653115L690.0023496015565,383.0190930624867L697.5368438290334,385.6989022247053Z" stroke="#FFFFFF" stroke-dasharray="1, 0" stroke-width="1"></path><text x="679.8876928259116" y="436.7007024751816" title="Walla Walla" class="hint " style="">Walla Walla</text></a><a id="s18" rel="nofollow " title="Clallam" class="hint   "><path d="M170.6102252094779,139.8480566191938L179.99388600559723,141.42933973495292L239.23748734668607,122.6651781796918L239.2204976136145,158.90692156579098L243.68447457969523,158.89427465193876L244.71200157209114,160.8332267521164L243.54875777706093,163.58230379798806L244.70757820963263,165.34633368269715L239.51173581897365,165.4496805820936L239.51314325248313,195.22322385606094L183.54252853612797,195.21198474359153L183.54252853612797,193.08630123900366L61.77580471649617,193.3980785841959L53.4266075493515,178.96075021247998L55.65125727195209,166.25113634524223L47.33463213743744,147.56924886896468L49.15193039020414,142.48646680462844L53.9319767099787,139.9238231302479L53.84039300093991,134.98627695157757L56.79268584759393,131.0658774433623L56.02040697511802,126.25798028260033L51.51320169412429,118.04381008550718L51.96689793878613,111.62222339331583L60.76124621857434,100.74681341196629L132.65998701604258,130.5388161395149Z" stroke="#FFFFFF" stroke-dasharray="1, 0" stroke-width="1"></path><text x="131.38565968343596" y="158.60016458648255" title="Clallam" class="hint " style="">Clallam</text></a><a id="s19" rel="nofollow " title="Douglas" class="hint   "><path d="M627.0076363665976,154.58107362636474L630.6542965879198,154.5554643437481L633.4825342238719,157.9175392287043L635.9238281758635,168.39170563797416L641.4746454036394,172.40249576267252L640.1540706485166,177.35587732072509L638.3127454951355,180.94347943288085L626.0842594538562,180.98611643196728L626.0749100741186,183.24494170014532L623.9019332674834,183.22843220592677L623.8694617658157,187.65502024443867L615.1915283433982,192.09272722984224L615.1729301148898,205.12635346377283L613.003471892026,205.11976825025795L612.9857784422029,209.42261511706783L610.8046586274104,209.4665918726305L610.8126005736367,213.8290769362775L606.5032402315956,215.94954588500514L606.4847425340522,224.6019646785444L604.3423271407519,224.6274932016613L604.3262421863665,231.1091805287433L602.1968958185025,231.11648962324034L602.1685460863973,233.25820664004095L595.7927717605298,233.22137288566137L593.616075308194,237.37682306099214L591.5089462835776,237.35640380884888L591.5208089374382,239.50892485354598L587.2566875296088,241.58190119839765L587.2195916035571,243.74472446864002L585.0456094872716,243.74174599042453L585.0859224042033,245.8869984454068L582.9546659480066,245.86868581139606L582.8824847151991,258.72014500328714L548.4857145386086,259.2959502411195L548.479481618785,263.6327468822301L544.1666026929706,265.83922629137123L544.147300747707,270.14048833731067L535.5225482057303,276.7396636814683L535.2845914117779,291.53507068706585L528.670759760992,290.846611574324L526.9190076973509,288.70624442479766L527.615285160352,274.4957579036709L524.0981088218405,270.8607469082608L506.4705067788418,264.64843443724203L504.1624163553588,254.30269204185515L506.5205711993676,244.44612444763425L511.98633923082434,237.28128434832888L512.1683002773207,230.38047416192148L515.9370050900507,222.8919603375798L514.0495362237725,214.59864704452866L522.6034144354853,208.78716812259972L527.1610862608659,210.76618721893283L536.6246691740917,207.87983096303833L540.0046207454961,198.35530535324142L544.4910161167518,195.19250357677993L544.7702911372844,189.59938796665756L550.0438439638256,184.0769747021659L547.6638739004311,179.3032783223789L549.3598312785443,174.09825244354852L546.5501918711034,168.0110996282101L547.3277988847194,166.56384405248446L558.1572960182439,162.09644558637046L558.7734503022057,159.5285521264741L564.1705556846273,162.90125815436204L567.7340767979658,161.21689502064964L569.1852412765102,164.70365650043914L566.9539565102241,171.2279922984817L574.0309343163726,175.74721681218216L586.1613021358953,162.84603154410888L592.2194991435972,163.41212323952732L596.0898407618542,167.66160533397033L601.9920137120043,167.809886681036L603.6007102125741,160.70483135782797L606.5096742133501,157.87010713026484L610.9524391458344,159.86516628811387L622.9238675098268,152.55828170399855Z" stroke="#FFFFFF" stroke-dasharray="1, 0" stroke-width="1"></path><text x="558.2505946382134" y="214.47368545949405" title="Douglas" class="hint " style="">Douglas</text></a><a id="s20" rel="nofollow " title="Klickitat" class="hint   "><path d="M382.95534841740846,463.7314167623508L549.4850928608275,464.24875152874665L549.2344691652934,493.7729385013472L539.4367213246924,495.4785941891396L521.7726265414285,502.85684276002485L514.8064338586164,509.6703122255658L487.47799582519383,514.2064465601725L479.7700856832389,507.88441117637376L472.1534576574295,506.8190187893206L466.67612856500637,511.1373349351152L450.0000521049287,517.4697645613605L445.9378974056126,521.6129833500227L441.0927070205771,519.6759781551855L428.98455654429836,520.2370370824219L422.2114838450898,526.3812461138123L416.9988527832875,526.8559054446041L413.77341730495937,517.5418425093549L401.5142693193802,512.7048586351466L395.07747269780884,514.4243492910537L388.9395546349315,513.2168866861157L382.81852577416066,509.81201513639826L381.34393758079113,503.30104026186837L383.75366480979756,501.5731152487069L374.2166942921858,501.51473291623097L373.91650883094735,463.7188160862206Z" stroke="#FFFFFF" stroke-dasharray="1, 0" stroke-width="1"></path><text x="447.59061870041535" y="488.27878911358624" title="Klickitat" class="hint " style="">Klickitat</text></a><a id="s21" rel="nofollow " title="Benton" class="hint   "><path d="M595.5970379718419,376.8772327106599L596.0085112112383,380.88603791417154L608.9898736487639,393.8462845519125L610.4035400774001,397.9158920959717L609.4295960893032,416.18516266681854L611.3737644197909,424.3850603056144L609.8001532259796,430.352301847508L615.9157534146461,435.88415488509236L625.1428874983931,437.9733035936324L634.9889907331208,444.4382634317999L639.7387772324537,451.14576441954796L642.3268463932209,459.3251844583201L642.4386368262085,466.10636229665215L633.7907621622999,474.5713645437281L623.8274398224812,479.82409845200254L610.6830161598637,478.80022429125984L587.4592574239123,483.64248868275536L579.0630117651881,480.88007110364015L573.832787784525,483.7520005109627L569.1735796845796,490.7840654312122L549.2344691652934,493.7729385013472L548.6287701016827,378.6423230463706L565.1392720625463,375.63882869501776L573.4223198547788,376.353603412148L584.8366056112127,364.0789612966819Z" stroke="#FFFFFF" stroke-dasharray="1, 0" stroke-width="1"></path><text x="575.9879349592331" y="435.07739432827105" title="Benton" class="hint " style="">Benton</text></a><a id="s22" rel="nofollow " title="Yakima" class="hint   "><path d="M407.81906878401605,311.33051892626554L426.4115670282672,325.37672288043177L426.421318531864,328.576023680921L432.78864825667824,337.1141480143897L472.2026172992728,336.9931796354522L472.26102578988684,349.69120963541445L484.86519604705427,349.82550071554215L484.72495535099824,362.58537296281156L538.7066654574792,362.703896411188L541.4629229225511,371.9022352693637L548.6287701016827,378.6423230463706L549.4850928608275,464.24875152874665L382.95534841740846,463.7314167623508L382.9550468245152,413.66151548146627L395.87981032879543,413.45557222946263L396.60554336451787,410.4051513542008L391.5724606060521,400.67155263761197L392.93093553494873,398.47285411869234L389.6245726298639,394.9692138131568L390.0990787842611,392.4614703642728L393.5789581347899,390.3642815461635L392.78235076880264,387.14119765238956L396.58865416241133,379.69158655245155L395.7303207839668,376.04301162779757L393.6162551227717,375.2705063600888L393.9236788134822,371.6862678279049L399.9593568850405,366.3514379475055L392.2029908180002,362.26030448914116L392.81140421766577,359.8443161144387L389.7204791703907,356.3257499711608L390.9789257891962,354.50853918068333L385.46620979712316,344.2397676395849L382.8800507246888,342.7815412986092L385.5021998825641,337.550472311731L389.5776246692476,335.30840644208L390.60012511339755,327.0015854343028L394.5397325664808,324.4211896453471L395.27230170781695,319.1167050999402L397.8410689233215,315.7277790209946L397.08226120014115,311.342625799246L399.35044083055345,313.61676328366866Z" stroke="#FFFFFF" stroke-dasharray="1, 0" stroke-width="1"></path><text x="452.8202378398597" y="403.45846763139565" title="Yakima" class="hint " style="">Yakima</text></a><a id="s23" rel="nofollow " title="Stevens" class="hint   "><path d="M794.3500731303866,26.399140086070474L794.3224271150384,35.28021751155029L787.4280135411727,35.281594500206666L787.4743583160007,48.46773231791212L780.9032523253036,48.502708574766984L780.9081783425863,62.80208463426334L774.3123417345223,62.85193543113837L774.3288288127669,76.07031110088974L787.3256730188914,76.01932867982578L787.1120447184467,154.94682518546142L793.5935776194037,154.97845856861295L793.6574147821239,168.14373490064645L783.5967784682689,168.03726595024273L783.9238056971362,205.95125701260713L778.6253211912999,205.9992938733003L775.3456995228808,201.07194954420265L772.0492891833201,199.95224825550395L769.7094309749273,191.8841924630742L767.7803422891757,193.0975434281272L767.4407486896935,196.8031313853753L758.123036206558,203.53062309147026L749.0760536119406,198.08237531223222L743.633307171448,201.7472564427062L738.0555476450763,200.08029502361296L732.2168097337853,206.3834284365812L725.1097731691289,200.27513173066745L722.7161308945051,192.7103530620916L720.9138117555112,192.48339626907364L715.8844486427497,183.46451463206813L711.6542061700993,183.89418722175014L702.7450515283772,191.092728819488L701.2132612159694,185.7032635001242L701.9200944302847,179.38256368973816L696.7256594731325,171.1060826486164L701.2335684708805,167.77620029562786L709.4052279539874,169.19120306720652L710.3712299958524,166.51796901279977L713.1917267475064,166.53722152156388L713.7936056344506,161.70740277841924L711.4198684908797,155.81684670339473L717.3370205548053,153.4596088838307L717.4987748773538,143.34446515291256L721.6484920471084,139.38981940610574L722.9496643260027,135.33302283855392L719.3365814469616,126.99290939075945L715.5623474311624,106.61633822565909L719.4836582486332,96.5190490284258L722.8833138891596,95.51965687240772L724.1570412146311,83.20602961806162L726.5577206567978,76.94639488086523L724.3255311118264,65.28294968406135L725.2612733332553,63.92890785810141L723.5871311745286,60.53619882590465L724.7503749695588,57.10613433261551L721.0083108625313,55.23502786064546L715.5606384047596,42.23054359129583L717.3556187833137,36.74840549456803L714.7819255505301,33.14512760905109L716.2388202940765,29.2031385211385L714.76865546316,28.056332815660426L716.3765477160096,25.404192162948675L714.9544366863229,23.948684462183337L794.3635442796867,23.44409474270651Z" stroke="#FFFFFF" stroke-dasharray="1, 0" stroke-width="1"></path><text x="742.5988414268036" y="114.69218511708212" title="Stevens" class="hint " style="">Stevens</text></a><a id="s24" rel="nofollow " title="Thurston" class="hint   "><path d="M256.21887634721224,300.15723190689187L264.7432989862036,306.93316255316495L265.32929398069155,309.596829000855L263.7466350000386,312.6028198148597L267.33699788100785,321.77860963565126L271.5689493800637,324.29604644427036L271.68797804252245,328.25647617677623L276.5709680703676,327.35772538097444L275.9060562684217,328.9435830460634L278.3216142933952,329.0914858648921L278.31940261216914,333.587202395217L285.2598593679604,338.0103158098418L285.62337933709205,343.6183964750717L293.88441084800615,347.22654812641485L301.9916299826036,346.9627255770811L304.4150294228393,349.3470966869081L303.5259335691335,354.1496578135175L306.2351425426241,357.31632608290147L314.5144706891533,358.9004320466029L218.22742045816267,358.7149291431133L218.46929795974756,324.6971167452066L213.98481267682473,324.49739483729627L214.10655567533468,311.5029662859888L226.8601149463675,311.5428294355452L226.99834502312478,308.3748507543705L232.25561183334685,306.62411054724L233.71612569163153,302.20593849030774L240.62008970716033,295.9472650664038L244.10197967698787,300.7954957489992L252.44052056185046,295.369560677409Z" stroke="#FFFFFF" stroke-dasharray="1, 0" stroke-width="1"></path><text x="242.19131222089194" y="334.19387384383293" title="Thurston" class="hint " style="">Thurston</text></a><a id="s25" rel="nofollow " title="Lewis" class="hint   "><path d="M203.36391729549723,354.46272544557087L218.2581829334249,354.4492162165616L218.22742045816267,358.7149291431133L314.5144706891533,358.9004320466029L330.8324558522072,361.9383033666836L339.5339135204131,360.0807097320476L350.5085773672754,363.98465781408686L359.2026962750415,355.8575758852521L389.7012777560931,355.85669500476706L391.026476935599,359.6004314934089L392.81140421766577,359.8443161144387L392.3017122255451,362.37927288577794L399.9593568850405,366.3514379475055L393.9236788134822,371.6862678279049L393.6162551227717,375.2705063600888L395.7303207839668,376.04301162779757L396.58865416241133,379.69158655245155L392.78235076880264,387.14119765238956L393.5789581347899,390.3642815461635L390.0990787842611,392.4614703642728L389.6245726298639,394.9692138131568L392.93093553494873,398.47285411869234L391.62926060122845,400.92570916449677L396.61036885083195,410.4846156276353L395.58093177010323,413.73365994574215L390.4777789290938,414.2438993895603L388.59905625676674,412.6243118364382L198.37918993115727,414.33221514840534L197.11079074682766,354.63349772979655Z" stroke="#FFFFFF" stroke-dasharray="1, 0" stroke-width="1"></path><text x="286.0666238106685" y="385.8097178416648" title="Lewis" class="hint " style="">Lewis</text></a><a id="s26" rel="nofollow " title="Adams" class="hint   "><path d="M740.9854220865554,285.5477033090601L741.1457689755944,336.59862145616717L739.9824246496019,343.6001633595233L736.5845785664433,346.4404926088946L737.3065919564615,350.16606676203173L735.0833496673677,351.3956847511927L735.5568505121191,355.5654118070888L732.3804741446666,358.122875731965L727.4889389848058,356.55050478684734L715.9216450997692,362.4551124710042L599.3876585349235,362.6371538462254L599.4638610063257,336.93195892151107L638.270824082766,337.1094388178044L638.5625649429494,285.3758701559236Z" stroke="#FFFFFF" stroke-dasharray="1, 0" stroke-width="1"></path><text x="671.7500059532124" y="326.3050805581055" title="Adams" class="hint " style="">Adams</text></a><a id="s27" rel="nofollow " title="King" class="hint   "><path d="M323.8465591002714,208.83249480413542L423.48380373705186,208.2327550598211L428.8352680614007,218.79600918234974L422.51398151851754,223.73932015030095L423.4537449785412,236.37353368909044L418.1541546320914,236.56135283637923L417.3749391230349,240.32825879910615L412.45324467369755,240.23186227058522L411.07235133962604,244.64193930525198L406.11476733581276,247.98328788563686L404.10243901111335,253.09199517867273L398.8792521979967,255.2312616675381L396.74276813162396,259.74984632496944L392.50619220818226,261.7776404810038L391.4553420319262,269.04654217778625L388.63162828939767,269.5924953382755L392.1850963062461,274.5903978858032L390.6946242204185,278.2390989015812L392.4885992893214,281.32381240788345L401.1633157208644,282.48184157634114L402.08799953614925,286.0240762261701L398.7578107923773,290.88968829766964L404.1798478540968,293.3813705306229L403.51915835267846,298.51202556516455L405.55179393229173,302.10527488624393L403.7438450592608,304.2969664713446L395.8587993571291,304.4568596199624L394.9595498759654,309.507040593021L397.5878314226993,310.965236945799L391.0546256057769,311.599966264238L384.21912317735496,305.97272740174503L376.58279108242095,306.43412321665255L372.1772226069561,301.4023675205535L363.1693465576891,301.7441465279235L357.2955233396433,298.4518357681136L350.99102546790164,302.91128662553365L344.8322974952862,301.0602779678038L340.609393783071,303.3919276633178L335.5438395229421,298.5720670161536L330.1601047588565,298.77023012401787L325.4071012686454,295.25771337964125L320.4605756709734,286.02007694711756L301.26459004433946,286.02200252617513L290.97645215688135,274.7046170311796L286.27039662728475,277.13516164916746L281.51618676549606,275.2736112327739L280.6711234744207,265.3784062875993L282.73391834350787,255.70754950509763L286.67734597326034,246.76431685200987L290.2122157615977,243.54918496243135L288.71973305647134,223.79799733834625L291.96185667497684,213.71501024472218L290.89190561538544,208.55005889952736Z" stroke="#FFFFFF" stroke-dasharray="1, 0" stroke-width="1"></path><text x="342.39946671594356" y="251.29109125669873" title="King" class="hint " style="">King</text></a><a id="s28" rel="nofollow " title="Asotin" class="hint   "><path d="M817.4965235543195,409.061866263939L833.8453717235998,408.62669355453363L831.2979170726567,418.88585212278304L839.0194994258381,427.22512427077345L838.5077968144215,430.04119559129776L842.0601589906537,436.5944047648036L841.0780719944005,440.70627449090534L845.3973849019667,445.6747107686624L842.0774503166185,455.3378674300666L839.337880991724,456.9911319856574L843.2611018975276,461.1256961145373L846.1102499741801,470.78164217691483L789.338604529381,470.4172598111427L789.3349854146454,452.42802202830626L795.4177119777833,452.4335335512669L795.4325905605901,414.4613351040216L801.8233440002305,412.3470599627899L801.8014282498798,410.22697352822615L814.5875595535408,410.35543110220715L814.6555184858234,402.9246638376144L816.8257809564075,404.8758416362625L816.0260571305071,407.574976447323Z" stroke="#FFFFFF" stroke-dasharray="1, 0" stroke-width="1"></path><text x="808.1733022027923" y="442.517300977837" title="Asotin" class="hint " style="">Asotin</text></a><a id="s29" rel="nofollow " title="Spokane" class="hint   "><path d="M833.3502567213955,207.1763287120266L833.5796683833305,285.73967796531997L754.788424100333,285.59925252085213L755.0580481482348,201.37187690190422L757.9328316209394,203.580171846751L759.3616782252766,201.03556216284687L762.9284163294897,200.66404174191575L769.7094309749273,191.8841924630742L772.0492891833201,199.95224825550395L775.3456995228808,201.07194954420265L778.6253211912999,205.9992938733003L783.9238056971362,205.95125701260713L783.5967784682689,168.03726595024273L833.3760931793759,168.41877291524816Z" stroke="#FFFFFF" stroke-dasharray="1, 0" stroke-width="1"></path><text x="787.9511016168461" y="231.7821745572467" title="Spokane" class="hint " style="">Spokane</text></a><a id="s30" rel="nofollow " title="Whatcom" class="hint   "><path d="M261.8107102086715,23.19446909171893L450.3895090630085,23.469838360144422L447.45340170170584,28.622789687436125L452.37569933683244,32.968209568008206L455.7475079000769,29.724496103674028L459.9715174529065,32.25865971647727L458.3806149331258,34.76949060339575L458.56448606795584,41.60287591906945L462.53606236788255,45.881337273671306L462.0625615231338,56.16369579169441L470.0618104014102,65.64001472798645L467.81614970714145,66.63294299456084L467.6375061824874,70.21744688302624L465.2790497455853,69.81855756741788L463.88156880230326,74.75013766698339L444.6777417604053,75.89514321563729L444.67764122944027,78.34530408424871L284.7931946288272,77.6615532665337L273.83330883380677,80.60076295652561L263.17732814572537,77.70948171130658L263.9586548050429,73.81321549013865L253.50504294933307,58.57227525282269L233.54984747566232,49.33552391536705L202.0079556407254,23.1987598409969Z" stroke="#FFFFFF" stroke-dasharray="1, 0" stroke-width="1"></path><text x="338.5453547752075" y="49.52174310868156" title="Whatcom" class="hint " style="">Whatcom</text></a><a id="s31" rel="nofollow " title="Okanogan" class="hint   "><path d="M652.9521651370042,23.503856578572595L652.9125559368276,76.37193747874699L649.632632675517,76.37863338892566L649.5974468377935,80.58205512477616L649.6438921435865,102.5393684433584L652.2208023672474,102.52223057358606L652.0322062770683,180.7732293604322L640.8444167845873,184.1207950344924L638.3085231946097,182.99129195742262L638.2929408950486,179.87867947515497L641.4295070003909,172.28721772523022L635.9238281758635,168.39170563797416L633.6255897869432,158.22425977854982L631.0050491245083,154.79257293022056L623.360875614313,152.49228270730782L611.137315590312,159.8121761210641L605.6340495089426,158.42767941631882L603.6007102125741,160.70483135782797L602.1443181238519,167.77604990965028L596.0898407618542,167.66160533397033L592.2194991435972,163.41212323952732L586.1613021358953,162.84603154410888L574.0309343163726,175.74721681218216L566.9539565102241,171.2279922984817L569.1852412765102,164.70365650043914L567.8659734239345,161.32842467617502L564.1705556846273,162.90125815436204L558.7734503022057,159.5285521264741L558.1572960182439,162.09644558637046L546.5163129359262,167.7178503170535L549.1797803203808,172.6292893986647L547.6573393877088,179.19486027675794L549.004956972396,181.17918103630564L528.9764744252989,180.02432487437818L529.5833798604908,178.02423926309166L526.9306692892806,172.53460498999812L521.2789189727337,169.62768150868033L521.0157289065837,167.38849554476292L522.7589358382093,167.03446114210692L521.5773954075639,165.43448701962006L514.5766200728231,163.3553955553307L506.6970030427956,155.7255713398108L503.1523817508614,155.86173089308613L499.67511620542064,151.53056218347774L501.18348280300233,145.1355897809899L500.2527671298212,142.35444699352956L488.83425907286164,134.72243155732122L484.6961029640688,128.32848378544168L477.00256875009745,126.96433600246655L479.3775122652469,119.32191631220758L470.65735583756486,115.19080259305247L471.4897522270621,113.22490371399545L468.7588285651482,107.37451433150636L472.4194625905948,104.48828667539146L470.31364046852286,102.06540885734285L472.8213853883253,100.15395578647804L469.92679731553017,98.64308482322122L470.7518549445849,94.76653572167743L465.4160734507659,94.95812483829741L466.7786701492205,88.25786725101534L463.6926711192282,85.10786950660076L459.54617094035075,87.18567262409215L456.74648409843485,80.74662164209894L460.61964058370995,75.54981792109265L463.88156880230326,74.75013766698339L465.2790497455853,69.81855756741788L467.6375061824874,70.21744688302624L467.81614970714145,66.63294299456084L470.04944509272536,65.55543616350496L462.0625615231338,56.16369579169441L462.53606236788255,45.881337273671306L458.56448606795584,41.60287591906945L458.3806149331258,34.76949060339575L459.8515840117625,32.04299615130367L455.7475079000769,29.724496103674028L452.2603903200743,32.93071343621796L446.96150369037696,27.31339745221976L450.3895090630085,23.469838360144422Z" stroke="#FFFFFF" stroke-dasharray="1, 0" stroke-width="1"></path><text x="553.0393420065874" y="91.97086611863361" title="Okanogan" class="hint " style="">Okanogan</text></a><a id="s32" rel="nofollow " title="Ferry" class="hint   "><path d="M717.2194998568211,23.513050665630544L714.9255842993934,24.015337457631176L716.3765477160096,25.404192162948675L714.76865546316,28.056332815660426L716.2388202940765,29.2031385211385L714.7819255505301,33.14512760905109L717.3556187833137,36.74840549456803L715.5606384047596,42.23054359129583L721.0083108625313,55.23502786064546L724.7503749695588,57.10613433261551L723.5871311745286,60.53619882590465L725.2612733332553,63.92890785810141L724.3255311118264,65.28294968406135L726.5730013634638,77.20903313029066L724.1570412146311,83.20602961806162L722.8833138891596,95.51965687240772L719.4836582486332,96.5190490284258L715.5623474311624,106.61633822565909L719.3365814469616,126.99290939075945L722.9496643260027,135.33302283855392L721.6484920471084,139.38981940610574L717.4987748773538,143.34446515291256L717.3370205548053,153.4596088838307L711.4198684908797,155.81684670339473L713.7936056344506,161.70740277841924L713.1917267475064,166.53722152156388L710.3712299958524,166.51796901279977L709.4052279539874,169.19120306720652L701.2335684708805,167.77620029562786L696.7256594731325,171.1060826486164L701.9380894730048,179.48016766885303L701.2132612159694,185.7032635001242L702.8704136416254,190.53870124166406L701.0188343298232,198.88900417822606L697.2660134095504,200.6397822333538L691.8772520972188,197.9899484215848L690.4979672585869,193.045079739627L683.1763976148004,193.73442433783748L683.2764259248925,187.84161908454098L679.6600255240091,185.45209481462098L671.8460552140696,186.39341037867325L667.4275182441334,183.79618854787896L665.3990044340799,189.58124238623532L663.5334513181551,190.10369816028106L654.6204764997665,186.6479990659136L651.414242435736,181.56079226665133L652.2208023672474,102.52223057358606L649.6438921435865,102.5393684433584L649.632632675517,76.37863338892566L652.9125559368276,76.37193747874699L652.9521651370042,23.503856578572595Z" stroke="#FFFFFF" stroke-dasharray="1, 0" stroke-width="1"></path><text x="676.0001740969043" y="103.95422329809335" title="Ferry" class="hint " style="">Ferry</text></a><a id="s33" rel="nofollow " title="Pend Oreille" class="hint   "><path d="M834.1322870974682,77.48307423441838L833.3760931793759,168.41877291524816L793.6574147821239,168.14373490064645L793.5935776194037,154.97845856861295L787.1120447184467,154.94682518546142L787.3256730188914,76.01932867982578L774.3288288127669,76.07031110088974L774.3123417345223,62.85193543113837L780.9081783425863,62.80208463426334L780.9032523253036,48.502708574766984L787.4743583160007,48.46773231791212L787.4280135411727,35.281594500206666L794.3224271150384,35.28021751155029L794.3635442796867,23.44409474270651L834.3292272577346,23.63916177525516Z" stroke="#FFFFFF" stroke-dasharray="1, 0" stroke-width="1"></path><text x="800.9887158622224" y="94.50103636762775" title="Pend Oreille" class="hint " style="">Pend Oreille</text></a><a id="s34" rel="nofollow " title="Pierce" class="hint   "><path d="M271.10731118917556,264.38464759468025L280.9493931853058,264.3680120903009L281.8108430236598,268.5807151714198L280.4977075599427,272.74782776805114L281.84753682585597,275.69884659798754L286.64537712641595,277.09808919679926L290.97645215688135,274.7046170311796L301.26459004433946,286.02200252617513L321.13704853388754,286.3469742500738L325.4071012686454,295.25771337964125L330.1601047588565,298.77023012401787L335.5438395229421,298.5720670161536L340.609393783071,303.3919276633178L344.8322974952862,301.0602779678038L350.99102546790164,302.91128662553365L357.2955233396433,298.4518357681136L363.1693465576891,301.7441465279235L372.1772226069561,301.4023675205535L376.58279108242095,306.43412321665255L384.21912317735496,305.97272740174503L391.0546256057769,311.599966264238L397.19485588084626,311.11790738769196L397.8410689233215,315.7277790209946L395.27230170781695,319.1167050999402L394.5397325664808,324.4211896453471L390.60012511339755,327.0015854343028L389.5776246692476,335.30840644208L385.5021998825641,337.550472311731L382.8800507246888,342.7815412986092L385.46620979712316,344.2397676395849L390.97802101051093,354.555233675851L359.2026962750415,355.8575758852521L351.751642748447,363.8041141069134L348.26060446081465,363.87671341218174L339.5339135204131,360.0807097320476L330.8324558522072,361.9383033666836L317.0510679958852,360.0506289999448L310.8242805600221,357.02025254289583L308.23078272714883,358.55657314187283L303.88100893721275,355.0155561490146L304.4150294228393,349.3470966869081L301.9916299826036,346.9627255770811L293.88441084800615,347.22654812641485L285.62337933709205,343.6183964750717L285.2598593679604,338.0103158098418L278.31940261216914,333.587202395217L278.3216142933952,329.0914858648921L270.7963689146918,327.32825640593273L271.5689493800637,324.29604644427036L268.59725405717836,323.5769872544806L264.2307921270667,314.463215204707L264.7432989862036,306.93316255316495L258.9752343432474,303.59972338804255L252.44052056185046,295.369560677409L249.28113392747127,286.78553142405417L253.88947335917055,276.6380796163048L254.38850906900643,264.33488950752053Z" stroke="#FFFFFF" stroke-dasharray="1, 0" stroke-width="1"></path><text x="311.89657535639554" y="318.3869296707178" title="Pierce" class="hint " style="">Pierce</text></a><a id="s35" rel="nofollow " title="Kitsap" class="hint   "><path d="M288.7930201298923,223.03082914145944L290.19492443563286,243.6415195360505L286.39595980246395,247.27312530489598L280.9493931853058,264.3680120903009L254.38850906900643,264.33488950752053L254.40730835944578,246.96290197687722L230.5420615363737,246.98820856407838L241.25253000743942,231.18585109733704L248.86352829921634,225.5603465937511L258.4344782829703,222.42367050859957L258.1984315773507,216.71546923537608L262.7186053528185,206.45480623950698L274.9829809485709,193.43195363797895L270.81989316048293,184.4853045761365L273.92197714486156,179.323850550506L284.78857020443775,186.20062552685704L291.5633519300518,199.2264602682717L290.40634105484787,206.76335431981988L291.96185667497684,213.71501024472218Z" stroke="#FFFFFF" stroke-dasharray="1, 0" stroke-width="1"></path><text x="260.7106119105322" y="229.1018197487101" title="Kitsap" class="hint " style="">Kitsap</text></a><a id="s36" rel="nofollow " title="Grays Harbor" class="hint   "><path d="M120.55867264537937,245.0073479678431L129.19679580568936,244.98813986984078L129.17307049797,247.2429073554149L183.54252853612797,247.36333188722256L185.24894113459231,311.8592175644062L214.10655567533468,311.5029662859888L213.98481267682473,324.49739483729627L218.46929795974756,324.6971167452066L218.2581829334249,354.4492162165616L116.27132858465484,354.45215300744167L113.94182506564721,344.03436474222053L108.46811508796236,336.20168866727454L109.12890512034846,315.25084289113875L103.92984573880949,287.6267342423298L96.34558868370277,281.3355210069767L95.37636965095862,276.3764760480972L85.67764481079575,257.23361641998054L87.39571900119063,252.72622074786796L91.42117989831331,250.2391254142285L90.54625891065825,245.0975807261102Z" stroke="#FFFFFF" stroke-dasharray="1, 0" stroke-width="1"></path><text x="141.67782021652272" y="302.1624289506182" title="Grays Harbor" class="hint " style="">Grays Harbor</text></a><a id="s37" rel="nofollow " title="Skagit" class="hint   "><path d="M275.3317228658634,80.65779874751934L284.7931946288272,77.6615532665337L444.67764122944027,78.34530408424871L444.6777417604053,75.89514321563729L460.406112814233,75.89529540493731L456.74648409843485,80.74662164209894L457.2137520233591,84.28212446824546L461.1876405354815,87.78105087467975L463.84537765493405,85.16927998634128L467.0217540223839,89.65699596156082L464.7518653655716,93.40751261101923L465.2665839059355,95.745685088139L459.026526382705,98.40591272758866L455.38730545278577,98.16615358992476L453.1634599779045,92.91734901271775L451.08176528741296,92.0787748542225L449.2161116405232,95.18811655968966L440.44076371310166,95.2629572662945L440.29539593783556,99.87268134890928L430.46688562196687,101.96712494203712L429.10097140167,105.81351777604687L431.7319672844569,109.9063298738829L428.78661107438165,115.88727248375471L431.3923736849747,122.7075326967215L428.4778804811276,124.14548175042091L428.2678712954212,127.34530580905084L435.29810220288346,130.6393050892757L288.830719241736,130.38316901708004L280.7475270077566,123.68358857380645L276.0178467014057,112.99545052329086L261.1719364576038,112.93638225881023L258.95221275228323,103.16070418544223L260.5316547420589,97.66855364860749L258.3964775782333,83.42056126898206L263.17732814572537,77.70948171130658Z" stroke="#FFFFFF" stroke-dasharray="1, 0" stroke-width="1"></path><text x="346.1730556978846" y="102.43484997902952" title="Skagit" class="hint " style="">Skagit</text></a><a id="s38" rel="nofollow " title="Snohomish" class="hint   "><path d="M316.47653353139594,130.44678826889867L435.29810220288346,130.6393050892757L434.24896105303014,133.07164506509525L439.5013018459749,140.94403283583415L439.00658896762707,143.42472318041018L443.580546809324,146.5830894998344L444.7723413983904,150.6847761470044L439.9317754377389,152.37263925427578L438.9616516263113,155.08736679826507L440.78287058670685,158.19504882148067L433.8621179000402,163.9947240974061L420.0475548252971,169.14805005615653L423.6299757600382,175.4209074697019L418.8949673125471,181.74318439365015L417.30657806689396,190.5533958529286L419.6793099008137,192.91481836332423L420.0320730566982,198.44593038708535L428.37584155173954,201.0378083024343L423.48380373705186,208.2327550598211L290.89190561538544,208.55005889952736L291.862632612605,200.65131299686527L299.1529371263023,190.94774084800883L301.90446963602335,180.75716500718954L299.5716485951707,173.35291059827068L300.1860938527325,164.6025563573612L292.989584729301,150.09273115381257L295.4135873553287,139.4092905127918L288.830719241736,130.38316901708004Z" stroke="#FFFFFF" stroke-dasharray="1, 0" stroke-width="1"></path><text x="354.0286900738981" y="168.13213711480788" title="Snohomish" class="hint " style="">Snohomish</text></a><a id="s39" rel="nofollow " title="Clark" class="hint   "><path d="M309.3525072336688,461.9765453458658L309.8797921446467,535.1571344505128L301.6100144397842,535.1785238868024L296.7230031733443,531.2618761489584L290.80836438354163,533.0329815092127L267.25054125117913,525.26339416054L258.12936680445546,519.5507017779964L257.0680614078474,516.191964327898L258.38049315481294,504.8565469199457L254.917603537353,495.36477005046163L255.95910433387053,491.6895040572963L262.5764545684269,489.23868038645105L261.2301438862896,485.24774194086694L259.5845525215964,485.06328127971665L262.5580574018495,479.78203588879023L273.10687208133186,479.37700981038324L285.0254211577776,471.6413046851394L300.2950694186984,475.9701935776329L303.10732263122736,471.48026064548867L301.8269602620712,468.669498956192L305.27627819926784,462.9592628207074Z" stroke="#FFFFFF" stroke-dasharray="1, 0" stroke-width="1"></path><text x="277.1906497047026" y="502.2518906623086" title="Clark" class="hint " style="">Clark</text></a></g></g></svg>