<svg id="map" class="map svg-content-responsive" xmlns:xlink="http://www.w3.org/1999/xlink" preserveAspectRatio="xMinYMin meet" viewBox="0 0 960  540"><g><g id="states"><a id="s01" rel="nofollow " title="Barbour" class="hint   "><path d="M461.5611298252999,252.66912049644998L461.77099659214,245.95800350340596L468.08682095259473,235.98830785204973L483.71585065792465,235.18040196588663L490.4524976375129,232.23847464854134L492.46186029874923,228.3675942631926L496.280738440551,229.34238720830945L496.8533795718671,227.41620918031458L501.2664627369586,229.9656018606329L502.5081290622031,235.38502146367136L506.9780624879544,236.90160479557198L503.84084293133867,251.62446352811367L505.3656714744269,255.02140582970605L502.0220702244201,257.6035312141548L497.52403839397493,273.72643964469535L476.9438084011059,277.3915454535618L480.47364326361674,273.4800244833841L480.19647101576606,264.8781339895768L472.26520620251245,264.7025875749223L467.9295570131452,257.7185885119043L463.3948230029274,256.3470745845252Z" stroke="#FFFFFF" stroke-dasharray="1, 0" stroke-width="1"></path><text x="476.7925132454884" y="251.30929976833113" title="Pocahontas" class="hint Pocahontas " style="">Barbour</text></a><a id="s02" rel="nofollow " title="Boone" class="hint   "><path d="M270.61624255830634,410.33818717504255L278.68451432157667,405.09428130838296L271.42902703206187,402.2137262540891L274.31869746515576,390.39793014781935L276.2794869151767,388.0675983021674L281.5926992073771,390.18497110019416L281.6566285234817,388.47698241701164L280.5813744554928,388.2361458011874L280.5269201828314,386.2185154234112L285.9711494550543,384.136887895922L284.5346457422256,383.5902960140493L285.97234744905336,380.12342446649563L289.94990534139265,384.4804843722686L288.9447883765929,380.37180056075795L291.3045098281391,380.1364532751986L292.2255493959469,377.20246747223973L297.0330993122045,381.73900703331674L300.4287588468744,377.7291644925144L307.1762966809954,378.60850282083084L307.38725253329017,384.7642197431951L311.73106986355583,384.78403104596146L313.98602129449705,389.289330862779L317.7831177272351,390.0114712370723L317.79531548430987,392.5921993145812L321.11147178089436,393.588732259127L318.5291412627075,398.2474216993387L325.2276702514325,400.8501169592746L327.8839496718949,410.1729094719931L318.56116037503216,413.1988886373392L315.059750642851,419.13754590268854L316.98220428491845,423.7617372454297L315.479266359441,427.45982374189225L316.5466790121675,432.19054636151395L321.0230380420919,434.2310334427748L321.29541831394727,437.9801668111104L314.5101981231435,441.8246307642776L305.6118254274104,432.05278943100893L297.68306551070054,434.60367907116506L292.1067301729979,427.50162494610595L294.8512255151727,423.9692995553414L292.19363919216676,418.21297958870946L283.52800405779226,416.3077981273764L277.93696606647063,412.550382646712L273.76565987199797,413.0477492770451Z" stroke="#FFFFFF" stroke-dasharray="1, 0" stroke-width="1"></path><text x="291.04394284619053" y="405.9705745590047" title="Boone" class="hint " style="">Boone</text></a><a id="s03" rel="nofollow " title="Gilmer" class="hint   "><path d="M371.12260251951625,298.92151393137374L375.98536906825416,294.8936272917754L376.99680272868136,291.5545009316511L375.7868287901267,281.2348952219845L376.9198043871372,275.4653207039146L373.1681228178004,268.99318949935514L386.9247968119123,263.51784836848674L397.0319454522021,257.1552159339153L397.6684069910773,254.65676665322826L406.8868619015209,256.5825495671306L408.1405081667515,268.81855689468466L420.23109923448897,283.4208709527338L409.80604655039815,286.93606690158595L378.9383153661811,309.45508045048064L377.36142853842694,304.90443259121275L373.2457746106177,303.25631049102776Z" stroke="#FFFFFF" stroke-dasharray="1, 0" stroke-width="1"></path><text x="383.84027335367574" y="280.658059289685" title="Gilmer" class="hint " style="">Gilmer</text></a><a id="s04" rel="nofollow " title="Kanawha" class="hint   "><path d="M278.7869972627277,356.77675456494035L279.3513613445982,353.85721374615423L298.55117552548086,344.3078962436448L295.1746838947877,336.48972197580406L295.00228166753914,328.4384933179217L301.46099403945914,322.2148357248034L308.3800628324668,332.20915665741813L320.43090228116307,324.1218678166488L325.9320907225915,333.3737774666588L339.2536750781326,334.0748798843042L347.4308553867272,336.7856723768309L356.1586773004826,335.9777043518343L346.3831551807061,343.71573516818717L352.09410148043025,372.6518184990937L342.99729741511396,384.18385600753754L341.43979630842955,383.9376520016767L335.19193088025713,413.695947175971L327.2958435271439,412.0520244487734L325.63193877167646,401.47419951167467L318.5291412627075,398.2474216993387L321.11147178089436,393.588732259127L317.79531548430987,392.5921993145812L317.7831177272351,390.0114712370723L313.98602129449705,389.289330862779L311.73106986355583,384.78403104596146L307.38725253329017,384.7642197431951L307.1762966809954,378.60850282083084L300.4287588468744,377.7291644925144L297.0330993122045,381.73900703331674L291.9273577988488,377.2436448296976L291.3045098281391,380.1364532751986L288.9447883765929,380.37180056075795L289.94990534139265,384.4804843722686L288.1537856119023,383.6070613761449L286.20454046768464,378.90681995854266L290.0129633891354,378.37242124794193L287.90307814056473,375.567021969533L289.8455709549721,374.66772586973093L288.9098287335439,366.4165265592601L286.8361011220213,364.4911434055157L277.62646780374916,364.0648192353274Z" stroke="#FFFFFF" stroke-dasharray="1, 0" stroke-width="1"></path><text x="310.66308944344456" y="362.3199136826986" title="Kanawha" class="hint " style="">Kanawha</text></a><a id="s05" rel="nofollow " title="Logan" class="hint   "><path d="M246.94725731148992,414.0779114078159L266.98893454772974,406.0873719165793L275.74126088418325,405.6600355181163L270.8141293851604,411.55571437214894L292.19363919216676,418.21297958870946L294.8512255151727,423.9692995553414L292.1067301729979,427.50162494610595L297.68306551070054,434.60367907116506L305.6118254274104,432.05278943100893L311.13381540099454,438.3249752952852L294.3177914601745,442.7478797276426L300.87441261434174,450.3487626029246L297.0407229103755,452.9362235723247L288.59998392209695,456.6923799881188L282.6751412393553,453.2941499033168L279.0265960624397,455.8808645163399L275.9883743735247,453.0185160889041L270.5749662196272,454.9729748047748L269.08291914868255,458.70087521660025L263.897783305787,450.3239858694815L259.3896229806255,450.32728943741677L258.46161326591687,444.7311632695182L255.64404028982722,443.98783871604155L257.46052591729335,441.3235726966441L257.2747279389696,437.06323916349265L253.85630651832685,435.33583353509584L252.4708809132551,431.5489058487774L256.1040699852788,429.4407083958404L254.36229561990422,426.0329614123948L255.30413671987117,424.0262956443621L250.9832990926684,421.9355857633809Z" stroke="#FFFFFF" stroke-dasharray="1, 0" stroke-width="1"></path><text x="266.65551276213887" y="432.53790874840337" title="Logan" class="hint " style="">Logan</text></a><a id="s06" rel="nofollow " title="McDowell" class="hint   "><path d="M268.7633814767007,481.23219237994545L285.4198543986229,471.30472438649576L288.2189129220062,477.12740557587585L300.21017939640865,478.67919584821357L303.29240013763547,475.534599404602L308.2588476215208,476.6603398941488L310.0558386193743,475.13625618597416L312.40281777111704,479.3085484224184L323.04568754585625,481.62892650886715L326.5647404623803,480.1345407864128L330.2885414441148,485.06125054933545L333.9244532297698,482.90987089507325L343.4067935455348,488.39272838138913L331.92108053852803,509.1200645659028L325.0074571727873,512.1433046883794L322.96760011885885,511.19864596240313L322.04721400232256,514.5129170757045L316.73313044176166,518.1217642592546L303.43637723455436,518.932613569571L296.2709573120228,513.3189445623184L294.78675165634195,509.0120801870198L284.34024398882184,507.13715955891803L283.60881419842235,503.3016660873982L275.6459659070258,495.9555557241347L276.7242694142833,490.19318839554944L275.4021196740432,486.487983475934L269.8058540725476,484.2271488530496Z" stroke="#FFFFFF" stroke-dasharray="1, 0" stroke-width="1"></path><text x="297.2846108883162" y="494.909856689899" title="McDowell" class="hint " style="">McDowell</text></a><a id="s07" rel="nofollow " title="Monroe" class="hint   "><path d="M392.7127013422405,487.8727295015424L413.15226160549196,450.82212430560867L413.9635213596125,446.17895487320857L437.12804222448653,452.7643429153859L443.23661362318967,448.2137509360573L445.09078160733736,452.49241052016623L447.90541405270267,449.3369970525973L449.5801007541568,452.25377561811274L453.9558282882026,451.67367962324624L457.07965209374436,457.95801733328517L462.1407411035153,460.4804335611543L450.4308943102327,469.2021152870411L452.1855198839537,471.6853596867286L450.23464111155795,473.05819408187836L455.45364751204875,473.4327213492388L453.558203189222,476.89936705431046L435.58491704578364,488.1685058111725L432.3125419844207,486.9443150835896L430.5129371814787,480.5505313540525L402.3392766829527,495.5414222285417L400.8030127426073,492.4953427882483Z" stroke="#FFFFFF" stroke-dasharray="1, 0" stroke-width="1"></path><text x="417.3535691529463" y="469.6406434456004" title="Monroe" class="hint " style="">Monroe</text></a><a id="s08" rel="nofollow " title="Nicholas" class="hint   "><path d="M352.09410148043025,372.6518184990937L386.9579050096902,351.67131011902165L397.18332833020304,342.8081599514626L396.32643589558984,340.61038588620613L390.23409187014204,338.8435805371864L400.68245098293164,331.8069459575863L404.436201814631,336.2536235712314L410.27772946019695,334.6301571561253L415.33163050597864,336.12304317243616L412.336100966829,339.3380557922919L416.4273593804876,350.3706329250854L414.1464877157564,351.9918316016292L418.0833138121468,360.06654369524404L419.47353139321103,358.3177444804405L438.6676823297379,372.14996338445326L408.66915024575565,398.22293265561166L390.130084209356,394.8564393351862L390.068224155611,390.62556151438275L387.84638092244904,392.1588934775091L387.2894226216579,389.3711714160063L383.7521819780661,387.7127668478506L383.3901699734074,382.35858923035994L379.0992821961697,378.3616082191211L376.46423994204497,378.5246341926395L375.52359683607733,380.96166927894683L373.1322919063882,375.95445033465967L369.17433755220736,382.0272539863636L362.76790128204334,376.6032277729737L356.4103649487279,377.53604082461334L356.357762121336,374.6417927796856Z" stroke="#FFFFFF" stroke-dasharray="1, 0" stroke-width="1"></path><text x="390.2235119612222" y="368.6818271592671" title="Nicholas" class="hint " style="">Nicholas</text></a><a id="s09" rel="nofollow " title="Roane" class="hint   "><path d="M318.6296638500419,312.1816262933471L320.4967919510832,294.50752425570863L319.87067672401326,283.7708791227424L328.4920949889872,278.1744488298955L339.8443950279707,284.61513038261455L347.83686644369755,281.99426069138735L351.3498204816815,286.6053371756261L350.4930369556155,290.668464953088L352.4534996800003,290.6786738346973L353.8787858126618,293.66998425329257L352.5754772507639,299.0803877856797L358.58668440994575,306.396738907255L358.3491548725933,314.61766507360335L360.0005351453474,319.69586945554965L363.81233423170397,321.58260935304315L366.18000600705705,320.46471853140065L368.2968614025283,323.545238412672L356.1586773004826,335.9777043518343L347.4308553867272,336.7856723768309L339.2536750781326,334.0748798843042L325.9320907225915,333.3737774666588L318.7430376457239,319.47025108254Z" stroke="#FFFFFF" stroke-dasharray="1, 0" stroke-width="1"></path><text x="330.2734661060583" y="309.82649041221265" title="Roane" class="hint " style="">Roane</text></a><a id="s10" rel="nofollow " title="Wood" class="hint   "><path d="M294.98452363702154,244.66912876370043L298.1256698388979,239.814590724377L301.8915095191262,238.21550727602153L301.45750896600885,233.91363543499392L303.42319930057056,231.56166216031488L315.1944705134181,232.4169900900497L316.57760903903863,222.41021293095764L327.62137116911845,212.47768716258634L332.3520316523766,214.5433514974493L337.6959561543565,224.98286306365753L341.5731003679059,224.75170121613792L341.9847746692335,228.05868565857782L348.3483009725405,228.50044309481473L351.21815005038593,232.32513030203881L348.11218724627724,233.4995487785336L344.4632064351815,241.5557857975L345.13321180601747,243.77400127939472L331.02334739941875,250.96779359120956L313.97469480578434,266.3306191720303L295.9170371406299,256.62472551794417Z" stroke="#FFFFFF" stroke-dasharray="1, 0" stroke-width="1"></path><text x="312.05946973156585" y="240.44642368428208" title="Wood" class="hint " style="">Wood</text></a><a id="s11" rel="nofollow " title="Calhoun" class="hint   "><path d="M346.9777958381776,281.9232957231334L347.60097053452455,278.9175267974724L360.4442285589994,264.3273677160696L364.662147610871,264.0448217087551L369.126744517901,268.6004720511628L373.50726402794044,268.33360592093413L373.55235216570577,271.831168839195L376.9198043871372,275.4653207039146L375.7868287901267,281.2348952219845L376.99680272868136,291.5545009316511L375.98536906825416,294.8936272917754L371.12260251951625,298.92151393137374L373.2457746106177,303.25631049102776L377.36142853842694,304.90443259121275L378.9383153661811,309.45508045048064L368.1825074299386,324.2283531480916L366.18000600705705,320.46471853140065L363.81233423170397,321.58260935304315L360.0005351453474,319.69586945554965L358.3491548725933,314.61766507360335L358.58668440994575,306.396738907255L352.5754772507639,299.0803877856797L353.8787858126618,293.66998425329257L352.4534996800003,290.6786738346973L350.4930369556155,290.668464953088L351.66598198875863,289.2532447411977L349.0307219175427,285.11761684959856L350.1931028217907,284.48849026930566Z" stroke="#FFFFFF" stroke-dasharray="1, 0" stroke-width="1"></path><text x="355.38708258437987" y="291.7476117376256" title="Calhoun" class="hint " style="">Calhoun</text></a><a id="s12" rel="nofollow " title="Doddridge" class="hint   "><path d="M386.6828020242019,231.6753350164754L395.8741387068578,221.7829993755413L406.34144790653545,214.42398437733118L408.52070789847767,209.52050593569493L422.7041944817174,206.53577718373708L423.10770064214375,208.86384471334077L427.6229400227503,210.60770055257217L426.5879821165313,214.25754445067741L428.10191980508694,220.12098590499136L420.3942442353846,229.83220994197927L423.2843503026602,230.3803997925088L422.3685383450261,233.50292455527506L426.6274070099396,237.04249388618246L424.5218781031813,238.936286677339L428.43441759396364,240.18315150341368L428.6551752153364,242.47784262793448L423.56587889232287,245.40688529234467L421.7594128510261,244.36384890054705L420.88433268934523,247.59474028262866L414.01274802209855,250.66338272497887L409.8288084363696,257.333842891082L397.6684069910773,254.65676665322826Z" stroke="#FFFFFF" stroke-dasharray="1, 0" stroke-width="1"></path><text x="400.16503898793724" y="232.18202398059543" title="Doddridge" class="hint " style="">Doddridge</text></a><a id="s13" rel="nofollow " title="Fayette" class="hint   "><path d="M335.82370935168274,413.43346793690944L341.43979630842955,383.9376520016767L342.99729741511396,384.18385600753754L352.072101954275,372.6798373127049L356.357762121336,374.6417927796856L356.4103649487279,377.53604082461334L362.76790128204334,376.6032277729737L369.17433755220736,382.0272539863636L373.5629162946011,375.9513997757658L375.52359683607733,380.96166927894683L376.46423994204497,378.5246341926395L379.0992821961697,378.3616082191211L383.0327321276527,381.9023941776204L382.7547975199859,385.87636334565286L387.2894226216579,389.3711714160063L387.84638092244904,392.1588934775091L390.068224155611,390.62556151438275L390.7671991995028,393.971040399334L388.8565076803327,398.15582960494703L390.58630210572005,400.12916518871043L394.703916387346,401.86990213743684L399.0706045121301,400.40775854961794L396.0039576928839,404.7851217166535L399.2517194230045,405.5306282515703L400.2913603966715,410.221138779164L402.36280092874426,411.2006001038617L397.8975505704411,416.1916472727771L404.66175141199733,427.79243516706174L398.3930844516676,427.2657149076276L383.27940998281383,434.13301007293467L371.3327960119934,432.0936064937787L371.8759229275265,428.8249649772688L366.383664986814,429.222223063608L369.3850755874107,428.38975644564016L369.32179972257654,426.3068429029008L345.15139953308653,424.4436131990642L344.87411837669015,416.7483582491168L339.4720367115069,412.3834830447104Z" stroke="#FFFFFF" stroke-dasharray="1, 0" stroke-width="1"></path><text x="359.5026567308147" y="405.0849076583701" title="Fayette" class="hint " style="">Fayette</text></a><a id="s14" rel="nofollow " title="Grant" class="hint   "><path d="M542.09170222019,241.09465481228472L548.7619149871309,238.3164504912129L557.4327777316823,228.71871096187078L563.5071518471542,227.9639705107702L565.5181635661017,223.88181816971155L580.4729250377959,226.10917151338617L597.3056119860515,236.64344351610998L585.3521367768764,264.6441181504424L590.1007671701133,280.0274895709035L585.7987707212513,284.7861269583573L586.1144965941469,288.2138338010809L580.4903504050475,296.1239687086636L556.1634486359269,274.9724305575446L559.1257610687513,272.4367197678821L562.024470911107,263.4164609790787L562.643724899822,259.7351012870622L556.4434525059547,257.87770213189106L560.0297019949451,246.97544737859062L563.5912292441445,243.53358400839898L562.8725417535472,242.2548198586137L557.6881682704679,239.93575905890975L544.2044190909404,244.91038897884573Z" stroke="#FFFFFF" stroke-dasharray="1, 0" stroke-width="1"></path><text x="564.9273844173463" y="255.21441451970875" title="Grant" class="hint " style="">Grant</text></a><a id="s15" rel="nofollow " title="Hampshire" class="hint   "><path d="M597.4587374007776,236.44939627689473L607.7969899742454,223.86247996684324L611.3738733283368,223.49175967624342L619.7886920828296,207.74162371750845L624.5387382871558,204.8727353710783L632.4265961693629,194.73001976045634L652.9860859600836,197.310876320651L666.224137461359,204.47675166611953L664.8267319163027,212.512362785189L666.6459402574015,215.3622526070667L664.0699264348422,219.52081190051467L667.0739508405259,221.02575544174124L658.3462378353161,233.85160793648538L660.4975083311086,235.76457587605728L656.2520354172733,242.20661704791928L660.0588247105434,246.50571963981656L648.6849607795835,257.57167975020366L642.8945112417744,251.5617047840542L638.4257758100209,250.30953543612668L636.1144097526015,253.37831805356018L632.4855770223901,252.3726237816445L628.725618403609,249.42935557651435L606.0582650481422,242.06242880995796Z" stroke="#FFFFFF" stroke-dasharray="1, 0" stroke-width="1"></path><text x="628.0911295797989" y="225.31676350448143" title="Hampshire" class="hint " style="">Hampshire</text></a><a id="s16" rel="nofollow " title="Harrison" class="hint   "><path d="M420.58439855552183,229.47001644818374L428.10191980508694,220.12098590499136L426.90479707488043,209.67983519627523L429.72498385605695,208.85115381288688L432.3977084668645,203.97071005371163L455.41106427082764,208.73834508826803L464.72165581061427,214.74515896401863L464.15609373474456,230.85764908425517L468.08682095259473,235.98830785204973L461.77099659214,245.95800350340596L461.4667061165044,254.1808066897629L453.51246160018775,255.434871868375L421.2845715934129,246.5593798594473L421.7594128510261,244.36384890054705L425.0699059032552,244.8999923546471L428.96066368496986,240.66273783080123L424.56849096058,239.01979077668693L426.6274070099396,237.04249388618246L422.3685383450261,233.50292455527506L423.2843503026602,230.3803997925088Z" stroke="#FFFFFF" stroke-dasharray="1, 0" stroke-width="1"></path><text x="435.89473728290335" y="230.1347034147541" title="Harrison" class="hint " style="">Harrison</text></a><a id="s17" rel="nofollow " title="Jefferson" class="hint   "><path d="M700.1636341664522,230.93292066873346L705.2814645283397,225.08492731696606L706.0252009843596,220.92533914078194L707.5996918241153,221.45416803760781L707.6013254522948,218.4295310558682L720.6726379706814,207.2209418329394L723.0295798901548,200.49122520025958L729.5102396981243,200.2842977581413L726.1665295395718,202.4329565718017L728.2227228752971,205.0534408317917L725.9734346887114,205.23033429080988L727.3770480208536,207.38877026549562L725.4527429335168,208.54952858668275L730.9154866584446,210.50576794987046L732.7870800098452,215.24134532524567L730.8829230033926,216.30818099475528L731.9191878121537,219.4282683189249L730.0414955822157,222.27179002631328L734.5716554335311,224.86854984407455L729.0432398557722,234.06244357981996L722.7400488865737,251.4381517301208Z" stroke="#FFFFFF" stroke-dasharray="1, 0" stroke-width="1"></path><text x="710.1697649695197" y="226.3107199173605" title="Jefferson" class="hint " style="">Jefferson</text></a><a id="s18" rel="nofollow " title="Lincoln" class="hint   "><path d="M235.02209832409767,416.95136854479097L247.44605844907665,402.7620780466077L242.75863465831162,398.6327358551971L239.1399304228164,393.23464832035006L240.2957768143442,390.66197651879247L237.22063512856357,388.54276485309765L240.0764350040622,375.0761285687968L245.7829160534268,369.186178128366L244.3745107452894,366.1170066057366L246.89116941064776,366.096880988106L249.04385571752982,362.0951086547793L255.70557361793635,361.45053371624726L257.43253642114655,358.48026187372307L261.5539625018587,356.9584683574649L263.25805451055044,357.2829887930302L263.07029617841135,368.9579236985646L268.673205201173,372.2510854557813L277.62646780374916,364.0648192353274L288.77565340570436,366.03456071691016L289.8455709549721,374.66772586973093L287.90307814056473,375.567021969533L289.9548062259321,378.5566568420754L286.42606044887475,378.3556471854572L284.5346457422256,383.5902960140493L285.9711494550543,384.136887895922L280.5269201828314,386.2185154234112L281.5926992073771,390.18497110019416L275.7481221225396,388.40095123614446L271.7736136694689,398.41676804054623L271.5483907977384,402.5431557853881L278.68451432157667,405.09428130838296L266.98893454772974,406.0873719165793Z" stroke="#FFFFFF" stroke-dasharray="1, 0" stroke-width="1"></path><text x="251.59588877646115" y="384.9437786577251" title="Lincoln" class="hint " style="">Lincoln</text></a><a id="s19" rel="nofollow " title="Morgan" class="hint   "><path d="M653.6112210102459,196.73895571455068L655.1639301409351,194.0391417002129L653.9025513689879,192.45392535175415L656.2840545295978,194.20959650893656L656.3886067331084,192.13074928532296L658.5778863112213,192.6772326570308L654.2333066211381,187.34019375831576L660.9714783203615,187.78731910086026L657.1669761065426,182.26394589752363L663.2133607258662,184.3358411658055L662.3687749568749,181.56741911756035L665.2784845623073,181.8442824314434L665.3386020793272,179.81952090374398L675.1545292694182,182.8317637671489L679.6732537234764,176.91683903664762L678.805579342875,175.0372249517004L684.120860897435,172.103823748811L695.066060793996,175.4922704457067L701.5851237309091,182.7856061901175L693.8848387114073,188.01327638668863L688.8934511706439,186.43330320615314L679.1103054526936,215.02038272202117Z" stroke="#FFFFFF" stroke-dasharray="1, 0" stroke-width="1"></path><text x="667.1635726164546" y="191.3340862160619" title="Morgan" class="hint " style="">Morgan</text></a><a id="s20" rel="nofollow " title="Pendleton" class="hint   "><path d="M524.3393915152157,326.8437173840257L527.6829927652211,322.99715179286613L526.0310679497397,320.8372697486884L527.8210888006912,317.76149363387776L526.9145340694105,316.67595381363117L530.2768675892123,317.07988938952894L530.024417581151,313.6813555317449L539.5650239686622,300.6833768202732L539.8046227683769,297.86103240988723L536.4064583371644,292.19968012997106L539.2817528422742,288.59150880016114L538.5411747340673,285.12209447611804L546.709642359039,284.1985413026978L545.5115394519232,279.8174909942227L554.3008946937865,281.06341756519123L557.0128263809107,275.95286428072905L588.8809914624782,303.37922027993227L585.6135172856549,309.14575689983303L584.9927385773049,317.6008249998031L580.9846862922761,318.2284221836153L572.1811729395201,340.81020343675027L564.2983724289348,351.2155293022097L561.1068075082035,352.0799523673668L543.2063811815871,345.774446799679L536.6466016796053,332.735849975209Z" stroke="#FFFFFF" stroke-dasharray="1, 0" stroke-width="1"></path><text x="547.9266611877473" y="314.67995751266955" title="Pendleton" class="hint " style="">Pendleton</text></a><a id="s21" rel="nofollow " title="Raleigh" class="hint   "><path d="M315.059750642851,419.13754590268854L322.01367017036296,410.79475973565604L327.2958435271439,410.6289367283389L329.5394684693724,413.58556857622443L339.4720367115069,412.3834830447104L345.1028263218725,417.09361143435217L345.15139953308653,424.4436131990642L369.32179972257654,426.3068429029008L369.3850755874107,428.38975644564016L366.383664986814,429.222223063608L371.60125557621836,428.72302715352L371.3327960119934,432.0936064937787L380.747613029655,432.3488473176076L384.31741732830005,434.5759689335455L388.7744995457033,440.2715047716674L385.61800317656525,444.54220392970456L388.52705933072593,446.7279684688683L390.61559850441176,452.52420056177925L388.76807394152866,454.33111590164117L387.20599867594046,450.4598442183478L379.83201888911253,448.4951591725894L380.0620337368382,451.1220417436425L369.8753818584603,458.6715800482998L370.29990736813556,462.77799844414767L367.09233289123927,465.8469376543553L362.55106436830124,464.5844760692298L355.6407082589194,467.6607060804663L353.4690718651509,476.82852443363845L343.4009124840861,470.84206379985244L343.19747132142084,466.1653804922389L327.41618746972654,438.94482945432355L321.29541831394727,437.9801668111104L321.0230380420919,434.2310334427748L317.20013028411245,433.3901524948724L315.479266359441,427.45982374189225L316.98220428491845,423.7617372454297Z" stroke="#FFFFFF" stroke-dasharray="1, 0" stroke-width="1"></path><text x="341.29410733465835" y="440.6129688476125" title="Raleigh" class="hint " style="">Raleigh</text></a><a id="s22" rel="nofollow " title="Tucker" class="hint   "><path d="M503.84084293133867,251.62446352811367L506.9299249109205,237.64146097381854L520.2653406517185,231.89325122037553L539.8265133859878,239.65054723305366L544.2044190909404,244.91038897884573L558.5159821234796,239.86547598339803L563.6021200986758,243.3649652474005L560.0297019949451,246.97544737859062L556.4434525059547,257.87770213189106L562.643724899822,259.7351012870622L560.2884686986351,269.74746610339844L556.457392799756,274.9582835906158L540.276414586723,274.20790516042507L509.54852197470245,264.75685025727034L510.21242846699977,258.1646333670087Z" stroke="#FFFFFF" stroke-dasharray="1, 0" stroke-width="1"></path><text x="524.5795469295612" y="254.27431539906573" title="Tucker" class="hint " style="">Tucker</text></a><a id="s23" rel="nofollow " title="Tyler" class="hint   "><path d="M364.069887578866,205.64127071633357L369.6109519104132,197.42353411225668L383.4218623600975,184.57742769138167L389.71013285858567,188.33913180957097L394.0283566806986,185.40222616453593L396.5539458467731,191.99091018363288L400.9508016386121,192.94530769786252L408.21598178866043,203.13378666587687L412.9957600258599,202.83819400697485L413.11860886498675,204.73039750253974L415.4670038278173,203.96365604148104L418.8338025979772,206.68246116300452L408.3924136320866,209.60524686409917L406.34144790653545,214.42398437733118L389.41597087766377,228.6711455846953L390.09817400557586,219.6468782405782L387.7067601673425,216.86797330768513L384.11658997072163,215.6781827991481L381.9045485066374,222.22729150719806L376.5988509040649,221.6069668351147L374.1041917648645,204.28333878527246L370.6265240955638,203.00666174940488L371.07947473556897,204.85467874882306Z" stroke="#FFFFFF" stroke-dasharray="1, 0" stroke-width="1"></path><text x="380.7666599028303" y="204.79262820607474" title="Tyler" class="hint " style="">Tyler</text></a><a id="s24" rel="nofollow " title="Wyoming" class="hint   "><path d="M283.8732441464697,470.57679380182526L286.44359472467204,468.48846261666586L288.07722290453853,462.78459752776416L290.00501306532715,462.1934127198065L289.88510475692465,455.6881218354938L300.87441261434174,450.3487626029246L294.3177914601745,442.7478797276426L311.41697761883825,438.26985082208284L314.5101981231435,441.8246307642776L322.06856007720603,437.6907501978194L327.41618746972654,438.94482945432355L330.7176411126925,443.76043696042507L343.19747132142084,466.1653804922389L343.4009124840861,470.84206379985244L353.108366763036,476.60487271424336L343.8120422426864,483.64145370501865L346.52179575890364,489.038900841585L345.39785957115623,489.94651798024097L336.51310044358706,485.8057113663144L335.32861110463955,483.34783896449244L330.89091460830286,483.348250579822L330.2885414441148,485.06125054933545L327.13346088606454,480.31255003324713L323.04568754585625,481.62892650886715L312.40281777111704,479.3085484224184L310.0558386193743,475.13625618597416L308.2588476215208,476.6603398941488L303.29240013763547,475.534599404602L300.21017939640865,478.67919584821357L288.2189129220062,477.12740557587585L287.489225668332,473.3926186075123Z" stroke="#FFFFFF" stroke-dasharray="1, 0" stroke-width="1"></path><text x="308.60120780453326" y="463.0566241734848" title="Wyoming" class="hint " style="">Wyoming</text></a><a id="s25" rel="nofollow " title="Greenbrier" class="hint   "><path d="M388.9055165257271,397.82348999765236L390.130084209356,394.8564393351862L408.66915024575565,398.22293265561166L438.6676823297379,372.14996338445326L446.9954831565159,377.90343012682206L446.64185710985,393.3513395889113L457.3848138377433,402.72031307852285L467.78383737950264,404.17299659939L474.5664437652181,401.4439091591994L490.58111862954115,400.3578225678857L485.9347533603651,410.16461787744356L468.5426032147785,426.40935684718534L461.47552770867446,436.9223780880866L462.72078801591374,439.87219753691625L458.93697842570657,441.478976350033L457.59043317131557,445.2645551028809L458.73811142194336,446.7896566369054L454.93938136102736,451.0378069880744L449.5801007541568,452.25377561811274L447.90541405270267,449.3369970525973L445.09078160733736,452.49241052016623L443.23661362318967,448.2137509360573L437.12804222448653,452.7643429153859L413.9635213596125,446.17895487320857L413.43204765842984,441.87202128846275L398.3930844516676,427.2657149076276L404.66175141199733,427.79243516706174L397.8975505704411,416.1916472727771L402.36280092874426,411.2006001038617L400.2913603966715,410.221138779164L399.2517194230045,405.5306282515703L396.0039576928839,404.7851217166535L399.0706045121301,400.40775854961794L392.4471135111339,401.327587830855Z" stroke="#FFFFFF" stroke-dasharray="1, 0" stroke-width="1"></path><text x="427.7654427957363" y="416.338179433952" title="Greenbrier" class="hint " style="">Greenbrier</text></a><a id="s26" rel="nofollow " title="Randolph" class="hint   "><path d="M458.8300302341977,308.1648195503285L460.4480844920836,305.84324178477436L472.47387497535465,305.55461240346085L475.4926020346571,292.32020962034494L474.2949347617231,284.3766818002605L476.9438084011059,277.3915454535618L497.52403839397493,273.72643964469535L501.1072384436952,259.80622521227633L505.6816151644126,253.40723516463186L510.68073521189547,259.2589646510005L509.54852197470245,264.75685025727034L540.276414586723,274.20790516042507L547.8789934101861,273.34175473944197L557.0673895621193,275.8268139423981L554.3008946937865,281.06341756519123L546.8294417588943,279.4394823648727L545.3481766339377,280.5594660918514L546.709642359039,284.1985413026978L538.5411747340673,285.12209447611804L539.2817528422742,288.59150880016114L536.4064583371644,292.19968012997106L539.7283867866505,300.1664469741627L530.024417581151,313.6813555317449L530.2768675892123,317.07988938952894L525.9184565138751,317.3780882524243L526.8223974400674,314.8952902735509L523.0868343354385,313.332815559771L521.0283539202608,316.9179544716344L517.77177059797,313.94658936618544L514.6350955840803,314.8115849959804L515.5499273648052,310.2766396699826L510.550698408778,306.39590114471594L504.67421112016166,320.8523276645583L502.9271002360658,321.72885446587406L501.0680313673786,332.77303219520854L483.1143487620984,345.5049091073579L473.4741999641593,343.4480897036374L459.46877885252525,355.3344584675415L466.1761294334233,336.29065352381076L455.7069687884747,312.6693281374464Z" stroke="#FFFFFF" stroke-dasharray="1, 0" stroke-width="1"></path><text x="490.4788958087884" y="301.57333448193117" title="Randolph" class="hint " style="">Randolph</text></a><a id="s27" rel="nofollow " title="Mingo" class="hint   "><path d="M222.58463353950174,430.17075191267213L225.4322652740991,430.9203264247262L224.41963361967282,428.0963422723253L235.02209832409767,416.95136854479097L247.62641100013343,412.6502724024931L246.91730746152507,414.3193772159493L250.9832990926684,421.9355857633809L255.30413671987117,424.0262956443621L254.36229561990422,426.0329614123948L256.1040699852788,429.4407083958404L252.4708809132551,431.5489058487774L253.85630651832685,435.33583353509584L257.2747279389696,437.06323916349265L257.46052591729335,441.3235726966441L255.64404028982722,443.98783871604155L258.46161326591687,444.7311632695182L259.3896229806255,450.32728943741677L263.897783305787,450.3239858694815L269.08291914868255,458.70087521660025L270.5749662196272,454.9729748047748L275.9883743735247,453.0185160889041L279.26619486215463,455.9221365661497L282.43554243964195,453.2941499033168L284.78709575028824,455.44818582107746L286.4325949615936,454.40871899361537L290.2010484469117,456.5273032378518L290.2446118650405,461.478445886024L284.0801703825855,471.31846102020245L276.81716840344393,476.39920218413226L274.5042776263881,476.2667086351903L274.4884858873161,473.7833389755451L271.92118474838367,473.52913209267444L271.64194323817196,471.64895887148396L267.38939126888886,473.4703518613469L263.726687981082,471.3938748109249L263.3097860695789,474.1638821669949L260.2192882789079,470.368666749112L253.87895949575523,470.7796964328354L252.6372931705107,468.65252194811L254.5243515353477,466.13060927040897L251.32276702844433,465.2890546831404L250.50889346923532,461.5220327954339L248.631419056386,461.2951588355527L249.30294914685715,457.7017662857279L247.6157379626925,458.0915734365253L247.99234371242255,460.5948427849162L245.14492979491524,460.83067025728906L242.20799305315063,455.8314754108451L235.28761735759963,453.87869464392134L236.0847190008301,450.2119392236773L232.01143049714915,444.59095908006384L234.54442544430572,441.9097682343281L232.0158957475071,441.58078650098105L233.13743594725906,440.2101904957635L226.28817753180465,434.2583309219972L224.64736138794729,435.37787808769826L224.86212903932574,432.6420009462172Z" stroke="#FFFFFF" stroke-dasharray="1, 0" stroke-width="1"></path><text x="244.9379035580867" y="447.0920172295127" title="Mingo" class="hint " style="">Mingo</text></a><a id="s28" rel="nofollow " title="Braxton" class="hint   "><path d="M378.9383153661811,309.45508045048064L409.80604655039815,286.93606690158595L413.24897239373877,285.01533051938077L416.3955580852519,286.12880960135954L419.85220640530497,283.33438162834136L422.65311637395916,289.75172060803925L429.14058060184493,289.20485041123084L434.6058292233181,293.3436726736518L433.32963888920494,297.94585831797303L438.05278468283643,301.9540719732222L430.8109109614868,319.54820015699806L414.4453327641279,336.28480669829423L410.27772946019695,334.6301571561253L404.436201814631,336.2536235712314L400.68245098293164,331.8069459575863L390.23409187014204,338.8435805371864L389.1159278352959,334.68585026899837L386.25762306325464,333.58543619910506L385.3212273905549,328.7770335178857L380.5366571773616,326.81166878280237L379.91729428010217,322.4003834381547L373.8493457688048,316.4400847053812Z" stroke="#FFFFFF" stroke-dasharray="1, 0" stroke-width="1"></path><text x="398.75231600919176" y="311.9367489125769" title="Braxton" class="hint " style="">Braxton</text></a><a id="s29" rel="nofollow " title="Wayne" class="hint   "><path d="M198.34092660868782,385.76861821556486L201.81021961031774,385.42808502157095L203.21579329627502,379.07510463713425L201.71035047425516,376.48343102112267L205.8057474126358,372.6300414465877L204.89091563191096,368.0577598992859L206.12158219407706,365.23116374039637L203.2656734100342,361.38346333518257L203.45060011999476,351.27307642011783L208.51288712376618,353.2854891152856L213.1002239613772,352.23200751723925L230.90742457319584,366.87494971113665L234.1486517905962,363.26418055338036L237.17249755152966,364.62760219443953L238.30884931344463,367.0809071767135L235.40796130018362,367.761480587551L234.2581048786476,372.04245938354507L235.81146746060995,375.9580555394323L239.54637711396708,377.43843779368217L237.27628739522402,389.111799668136L240.2957768143442,390.66197651879247L239.1399304228164,393.23464832035006L247.44605844907665,402.7620780466077L224.41963361967282,428.0963422723253L225.7923169249425,430.27681282086814L224.7644380741699,430.8843315609038L222.1400688574879,428.2338769095586L224.00904840380008,427.48893284946644L222.6568399050518,425.0643137549823L217.97900006627583,420.9289986802969L216.72372017286602,422.98251269901175L216.07778359054623,419.40981849771106L213.69704278975405,418.41347513363235L217.82914190791007,411.457333765944L211.84614206196648,409.00870321950333L208.5367380951909,399.6824868390804L199.07411022613292,390.09385981168Z" stroke="#FFFFFF" stroke-dasharray="1, 0" stroke-width="1"></path><text x="212.74016686745628" y="388.7091190430001" title="Wayne" class="hint " style="">Wayne</text></a><a id="s30" rel="nofollow " title="Hardy" class="hint   "><path d="M580.712414928965,295.75049327304623L586.1144965941469,288.2138338010809L585.7987707212513,284.7861269583573L590.1007671701133,280.0274895709035L585.3521367768764,264.6441181504424L597.3056119860515,236.64344351610998L606.0582650481422,242.06242880995796L628.725618403609,249.42935557651435L632.4855770223901,252.3726237816445L636.1144097526015,253.37831805356018L638.4257758100209,250.30953543612668L642.8945112417744,251.5617047840542L648.6849607795835,257.57167975020366L641.7399717527902,265.5152347848398L644.0743175132739,267.46806365013435L638.4995068952061,274.959264074123L635.8838503621498,272.4416234306145L629.9174046150931,280.4610525836715L625.7580783606078,283.36573059665716L625.9291736853128,278.960930800994L618.420038393739,285.79693368540575L609.3532930869321,303.15881960324987L595.7701104055222,290.9843760379099L592.1482478222127,299.090448313822L589.1313722081799,299.9846768891339L588.8809914624782,303.37922027993227Z" stroke="#FFFFFF" stroke-dasharray="1, 0" stroke-width="1"></path><text x="601.6904722744213" y="268.853918902056" title="Hardy" class="hint " style="">Hardy</text></a><a id="s31" rel="nofollow " title="Mineral" class="hint   "><path d="M565.5181635661017,223.88181816971155L567.465432926971,222.62875662658007L567.2022009729216,219.81139590649127L571.7794093158175,218.93032101654262L575.6610187797247,214.25951750610784L577.4674848210216,215.4307378903868L577.674846691319,211.47598811535136L579.4606201090054,213.05165164147638L582.8935263661767,209.4313932225341L584.1735284993761,202.92595562055794L588.789508284407,203.79971936943093L589.992185350425,202.03038345726418L599.8265180846764,208.10842555878207L599.5582763375417,205.05781383450994L604.2115028450739,201.57981499257312L606.7350227487873,196.32725387950177L608.7577811610975,196.48891526892476L612.6992903249344,190.1773411411914L615.0722986190087,190.9697417413654L614.0654391174851,187.13527804000114L617.3492495761079,184.5762968145691L616.708431695418,181.67036001848828L619.5945081465172,179.09665390282044L620.7054842173711,179.04007821851792L619.3467412059026,182.48706153019612L624.134687584002,183.36067004596134L619.4181852116367,184.98722057265059L620.438658281327,187.32493121813786L624.0882925436932,187.44773746427563L625.0650932867088,190.64736434916722L632.4265961693629,194.73001976045634L624.5387382871558,204.8727353710783L619.7886920828296,207.74162371750845L611.3738733283368,223.49175967624342L607.7969899742454,223.86247996684324L597.3056119860515,236.64344351610998L580.4729250377959,226.10917151338617Z" stroke="#FFFFFF" stroke-dasharray="1, 0" stroke-width="1"></path><text x="592.3365265243069" y="211.62580300911594" title="Mineral" class="hint " style="">Mineral</text></a><a id="s32" rel="nofollow " title="Ritchie" class="hint   "><path d="M341.49163677600404,248.5938985832745L343.47562374617905,247.84137913292852L345.5714597924025,238.54827856242173L349.0113361964759,232.53402919250948L351.96330231749516,231.7415966830713L353.19396887966127,226.74624384423987L362.50575841344585,226.39407152434342L368.50988651718285,223.47908763834585L370.7503531115981,224.64850723874952L373.51728361410983,220.6640829541784L381.9045485066374,222.22729150719806L384.6897756447638,215.3182864947794L390.09817400557586,219.6468782405782L389.41597087766377,228.6711455846953L386.6828020242019,231.6753350164754L398.11340730727284,255.37213729837913L377.0127033762992,268.65667560918155L370.7938076211826,268.89508167313215L363.2789001767046,263.68023430729136L359.60650402836563,265.7096937908991L354.3477460088279,263.66635167565437L350.0446604745139,265.08354177971796L349.6622825718796,262.13213087636086L347.46494376141413,261.7032357935732L349.289052987054,259.89039487780883L348.61697835385553,254.9978267975075Z" stroke="#FFFFFF" stroke-dasharray="1, 0" stroke-width="1"></path><text x="361.4081676392588" y="244.93395220168102" title="Ritchie" class="hint " style="">Ritchie</text></a><a id="s33" rel="nofollow " title="Berkeley" class="hint   "><path d="M679.0842763103607,214.9262466352975L688.8934511706439,186.43330320615314L693.8848387114073,188.01327638668863L701.2506503573355,182.58730637794815L703.2914875881717,185.36745457296365L709.2411614192445,184.65771961078462L709.886117824658,187.70267209603753L710.3481078739234,182.90019377570025L716.1706854326043,185.9319829431588L716.5358557850759,183.32645671146656L722.3418792448686,185.40024729678498L721.8499393456368,190.30872952066966L716.1197162333918,191.78072402221915L718.6893044517767,194.2621304506083L718.8712906310143,197.55891939526828L723.2187019432746,196.02354916270724L720.5667788646246,199.38537923161766L723.065249802914,200.65391864398316L720.6726379706814,207.2209418329394L707.6013254522948,218.4295310558682L707.5996918241153,221.45416803760781L706.0252009843596,220.92533914078194L700.4105735700795,232.84648226707486Z" stroke="#FFFFFF" stroke-dasharray="1, 0" stroke-width="1"></path><text x="691.9792907093855" y="204.57562520227793" title="Berkeley" class="hint " style="">Berkeley</text></a><a id="s34" rel="nofollow " title="Lewis" class="hint   "><path d="M406.8868619015209,256.5825495671306L410.03725939212177,257.2006798172715L414.01274802209855,250.66338272497887L417.5836414061969,250.45332252875687L422.27890661222455,246.31453517942828L453.51246160018775,255.434871868375L451.57683002413535,268.116211237043L449.7796212091903,270.47842338815735L451.62061125935566,275.77219163192603L448.2691685940864,278.41864715939937L448.27613874098836,281.8401526893649L444.0613780369313,287.5288066506291L441.60527252277427,302.4134995831173L443.2341087266457,308.3182413329141L436.4004242331747,306.4855413371906L438.05278468283643,301.9540719732222L433.32963888920494,297.94585831797303L434.6058292233181,293.3436726736518L429.14058060184493,289.20485041123084L422.30558920582916,289.3177235259127L421.18404900607857,284.5639147963375L408.1405081667515,268.81855689468466Z" stroke="#FFFFFF" stroke-dasharray="1, 0" stroke-width="1"></path><text x="422.4775449824306" y="270.4050857586101" title="Lewis" class="hint " style="">Lewis</text></a><a id="s35" rel="nofollow " title="Cabell" class="hint   "><path d="M213.1002239613772,352.23200751723925L232.41439211484953,347.54448141973717L235.25821205036345,340.3377871364155L236.4291967296915,329.32814689123825L241.6025704496924,326.1096393154039L262.3868950565002,343.3654575923565L263.25805451055044,357.2829887930302L257.7828952114537,358.25870973409747L255.70557361793635,361.45053371624726L248.9276502996704,362.1639793639288L246.89116941064776,366.096880988106L244.3745107452894,366.1170066057366L245.7829160534268,369.186178128366L238.39869886333804,377.59302170279716L234.2581048786476,372.04245938354507L235.40796130018362,367.761480587551L238.30884931344463,367.0809071767135L237.17249755152966,364.62760219443953L234.1486517905962,363.26418055338036L230.90742457319584,366.87494971113665Z" stroke="#FFFFFF" stroke-dasharray="1, 0" stroke-width="1"></path><text x="233.1916331524969" y="351.1372048936744" title="Cabell" class="hint " style="">Cabell</text></a><a id="s36" rel="nofollow " title="Marion" class="hint   "><path d="M431.9535794190308,190.73862563391594L434.06553392996375,185.93339634339281L437.0883995139883,186.169713992982L438.9587948713897,182.69122625726868L437.9191538977228,181.38019964785872L440.4721880172194,179.60285027406826L446.1621149676944,180.8113076290665L448.3452956672671,183.8813483049007L469.4868403027409,184.08265661131918L481.93672066150566,198.6471571854736L492.8644951908137,206.38768055884975L483.48496454183703,213.58104496067972L476.69636818612855,215.72750193995853L474.18700639330655,212.35237464477177L464.83056435593846,214.81364854546882L455.41106427082764,208.73834508826803L432.3977084668645,203.97071005371163L435.2759435026985,199.17718647815673Z" stroke="#FFFFFF" stroke-dasharray="1, 0" stroke-width="1"></path><text x="450.81031282563185" y="198.2469364086056" title="Marion" class="hint " style="">Marion</text></a><a id="s37" rel="nofollow " title="Pleasants" class="hint   "><path d="M336.8646898700292,221.94725081697015L347.8159560029958,215.76991620323133L353.6317812318648,215.53374674956467L357.44445158658345,209.05759042457612L365.6662843987617,204.82265637612363L371.07947473556897,204.85467874882306L370.6265240955638,203.00666174940488L374.5298063599919,204.80445859355223L376.4458343978845,220.6992930872011L373.29881307218966,220.7902754876086L370.7503531115981,224.64850723874952L368.50988651718285,223.47908763834585L362.50575841344585,226.39407152434342L353.19396887966127,226.74624384423987L351.21815005038593,232.32513030203881L348.3483009725405,228.50044309481473L341.9847746692335,228.05868565857782L341.5731003679059,224.75170121613792L337.6959561543565,224.98286306365753Z" stroke="#FFFFFF" stroke-dasharray="1, 0" stroke-width="1"></path><text x="350.6013062810211" y="217.83928762328765" title="Pleasants" class="hint " style="">Pleasants</text></a><a id="s38" rel="nofollow " title="Clay" class="hint   "><path d="M346.3831551807061,343.71573516818717L363.03461830954166,330.6599717869076L373.8493457688048,316.4400847053812L379.91729428010217,322.4003834381547L380.5366571773616,326.81166878280237L385.3212273905549,328.7770335178857L386.25762306325464,333.58543619910506L389.1159278352959,334.68585026899837L390.5072345018136,339.2633224255669L396.32643589558984,340.61038588620613L397.18332833020304,342.8081599514626L386.9579050096902,351.67131011902165L352.09410148043025,372.6518184990937Z" stroke="#FFFFFF" stroke-dasharray="1, 0" stroke-width="1"></path><text x="359.99642454489566" y="345.0753826302852" title="Clay" class="hint " style="">Clay</text></a><a id="s39" rel="nofollow " title="Monongalia" class="hint   "><path d="M440.31503298631696,168.41190392213502L511.9348171113062,168.4703818760554L511.9349260198519,171.85513476615415L509.1573224798966,182.19452168123735L497.1269578377231,202.2287794218919L497.67716380870104,208.76781649258282L484.9114486684963,201.41527402930296L469.4868403027409,184.08265661131918L448.3452956672671,183.8813483049007L446.1621149676944,180.8113076290665L443.73977110258704,180.85458022027615L442.075648530031,169.28889488118512Z" stroke="#FFFFFF" stroke-dasharray="1, 0" stroke-width="1"></path><text x="472.3023703104391" y="181.2830457376783" title="Monongalia" class="hint " style="">Monongalia</text></a><a id="s40" rel="nofollow " title="Ohio" class="hint   "><path d="M405.76749987267726,118.08963468063303L408.9805197768378,114.4168799060335L409.3190075357061,107.27821490452425L411.93128790385913,102.44613473735171L429.6729255713924,106.12671026980752L429.67118303466737,126.52060214992252L406.34870289515516,124.11030640832087Z" stroke="#FFFFFF" stroke-dasharray="1, 0" stroke-width="1"></path><text x="409.7566421128616" y="115.18613924549004" title="Ohio" class="hint " style="">Ohio</text></a><a id="s41" rel="nofollow " title="Mercer" class="hint   "><path d="M338.7178450351362,498.4653521249884L343.4067935455348,488.39272838138913L346.52179575890364,489.038900841585L343.8120422426864,483.64145370501865L349.14257099359247,478.1951789053137L353.9939021450691,476.90636891464965L355.6407082589194,467.6607060804663L362.55106436830124,464.5844760692298L367.0948377877819,465.9340740556145L392.59401885171474,487.70026484922073L390.014532242767,493.9557204922321L393.6953143490973,499.02910541545134L382.9738126046318,506.01858730524236L366.97253349138396,507.8299262238452L352.783492572333,514.3660035353723L342.4370718579655,505.54612481072763L337.85735861852686,500.29240338824Z" stroke="#FFFFFF" stroke-dasharray="1, 0" stroke-width="1"></path><text x="356.05683786420377" y="491.03497495054216" title="Mercer" class="hint " style="">Mercer</text></a><a id="s42" rel="nofollow " title="Jackson" class="hint   "><path d="M278.3400365927155,287.0179082192708L283.75540510042947,285.37675616443994L287.1933211506848,277.5789101716673L294.69145667918315,280.0930082179475L292.1523628534892,274.9127610354126L294.0655592692033,267.8585832531053L289.1971294761097,262.2643861427705L289.01198494905907,258.32261738121906L292.83478379849134,259.0100850621666L295.9170371406299,256.62472551794417L319.33288632720155,269.18463711871937L319.6096229408706,273.1872321678384L317.4071654287741,275.58913467119964L322.55875743971114,281.49567556759393L319.56006955274734,284.7333730094615L320.4967919510832,294.50752425570863L317.76645471979964,315.8056793565247L320.43090228116307,324.1218678166488L308.3800628324668,332.20915665741813L295.87017386522916,314.1668913337735L293.13003486486673,314.6260357955134L288.7021401376094,309.89294671456173L291.1237216428992,307.33233610491425Z" stroke="#FFFFFF" stroke-dasharray="1, 0" stroke-width="1"></path><text x="294.78249831352855" y="292.9238373676168" title="Jackson" class="hint " style="">Jackson</text></a><a id="s43" rel="nofollow " title="Webster" class="hint   "><path d="M412.336100966829,339.3380557922919L430.8109109614868,319.54820015699806L436.4004242331747,306.4855413371906L441.9764328452402,308.77067526962765L447.71863589747124,307.6682416950316L451.5480781681696,314.1442893290987L455.7069687884747,312.6693281374464L466.1761294334233,336.29065352381076L459.46877885252525,355.3344584675415L450.23888854482436,362.6541141391708L447.8533557680382,361.32402999435453L446.9954831565159,377.90343012682206L419.47353139321103,358.3177444804405L418.0833138121468,360.06654369524404L414.1464877157564,351.9918316016292L416.4273593804876,350.3706329250854Z" stroke="#FFFFFF" stroke-dasharray="1, 0" stroke-width="1"></path><text x="431.28753903723793" y="340.46569607396617" title="Webster" class="hint " style="">Webster</text></a><a id="s44" rel="nofollow " title="Upshur" class="hint   "><path d="M442.6514480091615,296.05729766160675L444.3568469203967,286.13706438383633L446.2253908325273,285.7749668025044L449.1694066297383,279.71291004658633L448.2691685940864,278.41864715939937L451.62061125935566,275.77219163192603L449.7796212091903,270.47842338815735L451.57683002413535,268.116211237043L453.51246160018775,255.434871868375L459.11449935458484,255.86263524507194L461.2986602310666,253.95608274662118L467.9295570131452,257.7185885119043L472.26520620251245,264.7025875749223L480.19647101576606,264.8781339895768L480.47364326361674,273.4800244833841L478.3355507018065,274.4044349943588L479.2497290312597,275.8560857747998L476.95513488981874,277.19745540210806L474.2949347617231,284.3766818002605L475.4926020346571,292.32020962034494L472.47387497535465,305.55461240346085L460.4480844920836,305.84324178477436L455.7069687884747,312.6693281374464L451.5480781681696,314.1442893290987L449.85847099600664,309.1322167960625L443.3998675326309,308.10479036705783L441.60527252277427,302.4134995831173Z" stroke="#FFFFFF" stroke-dasharray="1, 0" stroke-width="1"></path><text x="451.7074158343378" y="284.2733382762823" title="Upshur" class="hint " style="">Upshur</text></a><a id="s45" rel="nofollow " title="Summers" class="hint   "><path d="M367.09233289123927,465.8469376543553L370.29990736813556,462.77799844414767L369.8753818584603,458.6715800482998L380.0620337368382,451.1220417436425L379.83201888911253,448.4951591725894L387.20599867594046,450.4598442183478L388.76807394152866,454.33111590164117L390.4181473117392,452.9285172157306L388.52705933072593,446.7279684688683L385.61800317656525,444.54220392970456L388.7744995457033,440.2715047716674L383.27940998281383,434.13301007293467L398.3930844516676,427.2657149076276L413.43204765842984,441.87202128846275L414.23121856402145,448.6562357360144L392.7127013422405,487.8727295015424Z" stroke="#FFFFFF" stroke-dasharray="1, 0" stroke-width="1"></path><text x="383.66688192651213" y="456.8000717567608" title="Summers" class="hint " style="">Summers</text></a><a id="s46" rel="nofollow " title="Putnam" class="hint   "><path d="M261.35934293136484,324.7854313522066L273.2054343148495,317.90235550127L295.87017386522916,314.1668913337735L301.46099403945914,322.2148357248034L295.00228166753914,328.4384933179217L295.1746838947877,336.48972197580406L298.55117552548086,344.3078962436448L279.2573732699843,353.92892022698015L277.62646780374916,364.0648192353274L269.2865781284395,371.90707206787465L266.59762614437955,371.5090838602373L263.0377325233594,368.76823963750303Z" stroke="#FFFFFF" stroke-dasharray="1, 0" stroke-width="1"></path><text x="269.0413695561606" y="338.84967754954147" title="Putnam" class="hint " style="">Putnam</text></a><a id="s47" rel="nofollow " title="Marshall" class="hint   "><path d="M391.46464952376095,162.41130835871627L396.24072487042145,157.44711508882938L396.43708697764055,150.55904151482355L400.0871568741884,147.70439899667326L398.4255391981751,140.62838163454853L403.8258783266317,141.08276405557444L402.94949126240726,135.9242758496748L405.60174106669183,133.00536423697395L406.34870289515516,124.11030640832087L429.67118303466737,126.52060214992252L429.6470053376054,168.38160285911545L395.43656921350157,168.46523491810876Z" stroke="#FFFFFF" stroke-dasharray="1, 0" stroke-width="1"></path><text x="405.0297043969395" y="148.70186627720352" title="Marshall" class="hint " style="">Marshall</text></a><a id="s48" rel="nofollow " title="Preston" class="hint   "><path d="M497.3447749283715,201.93047842327087L509.1573224798966,182.19452168123735L511.9348171113062,168.4703818760554L543.2037673764972,168.42762079162185L542.0588118395035,242.64830338962383L539.8265133859878,239.65054723305366L520.2653406517185,231.89325122037553L506.9299249109205,237.64146097381854L502.5081290622031,235.38502146367136L501.2664627369586,229.9656018606329L497.5848093622651,227.9272382396075Z" stroke="#FFFFFF" stroke-dasharray="1, 0" stroke-width="1"></path><text x="513.3163023380703" y="204.04356933927951" title="Preston" class="hint " style="">Preston</text></a><a id="s49" rel="nofollow " title="Mason" class="hint   "><path d="M244.2602656812453,299.77873198563793L252.6134421990846,292.32985750947773L252.79858672613523,284.2728485284615L258.4184854819682,273.67404716648707L262.77504511203597,270.7878307924593L264.4740184190978,266.4288925740402L267.6215842875188,265.85409851438544L270.4427512456043,270.7916142471677L274.72601542466987,270.93958823241246L277.2978907225058,274.6802425727774L279.4481810413922,279.8604710643458L276.2321116979615,284.914722281168L291.1237216428992,307.33233610491425L288.7021401376094,309.89294671456173L293.13003486486673,314.6260357955134L273.2054343148495,317.90235550127L261.35934293136484,324.7854313522066L262.3868950565002,343.3654575923565L244.54331899054182,327.0571863169089L248.57293516754703,325.98408260288306L249.65123867480452,322.2765924084779L247.08753151786823,304.6322549546521Z" stroke="#FFFFFF" stroke-dasharray="1, 0" stroke-width="1"></path><text x="256.51480181973966" y="302.1804724589749" title="Mason" class="hint " style="">Mason</text></a><a id="s50" rel="nofollow " title="Hancock" class="hint   "><path d="M413.4615618742116,45.68373941303162L417.9035058038146,40.313313517398456L423.3963082872542,41.13284221482081L429.68523223701436,37.60616126422883L429.7945407548632,71.86911749906358L417.62814420455175,72.53228150792438L419.5345201785942,71.43678458382692L421.35340179405716,61.048293823992026Z" stroke="#FFFFFF" stroke-dasharray="1, 0" stroke-width="1"></path><text x="414.75827727887685" y="54.539512387401956" title="Hancock" class="hint " style="">Hancock</text></a><a id="s51" rel="nofollow " title="Brooke" class="hint   "><path d="M412.1935396810011,102.32125310006995L415.18874249451324,93.96377557930373L418.76105168969957,91.08114472759189L420.8740952860844,83.58527268803937L419.8067915419051,75.39739549591832L417.356240363561,72.72385079496235L429.7945407548632,71.86911749906358L429.6729255713924,106.12671026980752Z" stroke="#FFFFFF" stroke-dasharray="1, 0" stroke-width="1"></path><text x="414.51173694025834" y="90.19480621349497" title="Brooke" class="hint " style="">Brooke</text></a><a id="s52" rel="nofollow " title="Wirt" class="hint   "><path d="M317.013352128881,263.091677790605L331.02334739941875,250.96779359120956L344.8426438070917,243.9598956010659L341.45428114495826,248.94682423053746L348.87400252082193,255.54153375879469L349.289052987054,259.89039487780883L347.46494376141413,261.7032357935732L349.6622825718796,262.13213087636086L350.0446604745139,265.08354177971796L354.3477460088279,263.66635167565437L359.60650402836563,265.7096937908991L347.60097053452455,278.9175267974724L347.440112613079,281.4820978012185L339.8443950279707,284.61513038261455L328.4920949889872,278.1744488298955L321.43678160577906,281.37445485219996L317.4071654287741,275.58913467119964L319.6096229408706,273.1872321678384L319.33288632720155,269.18463711871937L313.97469480578434,266.3306191720303Z" stroke="#FFFFFF" stroke-dasharray="1, 0" stroke-width="1"></path><text x="327.0985499651584" y="266.6255931989268" title="Wirt" class="hint " style="">Wirt</text></a><a id="s53" rel="nofollow " title="Wetzel" class="hint   "><path d="M383.4218623600975,184.57742769138167L390.32906012166495,182.62929862532837L392.14369430386,172.583066506867L395.3909114912533,170.9166554598669L395.43656921350157,168.46523491810876L440.31503298631696,168.41190392213502L442.075648530031,169.28889488118512L443.76569133637565,179.30725401097334L442.2440211411018,181.06189004458884L439.0681390508955,180.00111321745226L437.0883995139883,186.169713992982L434.06553392996375,185.93339634339281L431.9535794190308,190.73862563391594L434.8266957532351,201.6080378651568L430.2230226338261,205.6320709147367L429.72498385605695,208.85115381288688L426.90479707488043,209.67983519627523L423.10770064214375,208.86384471334077L422.7041944817174,206.53577718373708L420.9955283141205,208.01083870922866L415.4670038278173,203.96365604148104L413.11860886498675,204.73039750253974L412.9957600258599,202.83819400697485L408.21598178866043,203.13378666587687L400.9508016386121,192.94530769786252L396.5539458467731,191.99091018363288L394.0283566806986,185.40222616453593L389.71013285858567,188.33913180957097Z" stroke="#FFFFFF" stroke-dasharray="1, 0" stroke-width="1"></path><text x="407.66416861209944" y="184.8055770221553" title="Wetzel" class="hint " style="">Wetzel</text></a><a id="s54" rel="nofollow " title="Taylor" class="hint   "><path d="M464.052630616686,216.2602738045398L474.18700639330655,212.35237464477177L476.69636818612855,215.72750193995853L483.48496454183703,213.58104496067972L492.8644951908137,206.38768055884975L497.67716380870104,208.76781649258282L497.61116523023395,227.8965575403372L492.46186029874923,228.3675942631926L490.4524976375129,232.23847464854134L483.71585065792465,235.18040196588663L468.30561822015204,236.07830545579236L464.15609373474456,230.85764908425517Z" stroke="#FFFFFF" stroke-dasharray="1, 0" stroke-width="1"></path><text x="472.16921198393743" y="222.8018714575901" title="Taylor" class="hint " style="">Taylor</text></a><a id="s55" rel="nofollow " title="Pocahontas" class="hint   "><path d="M446.8983367340876,382.6638625554251L447.8533557680382,361.32402999435453L450.23888854482436,362.6541141391708L473.4741999641593,343.4480897036374L483.1143487620984,345.5049091073579L501.0680313673786,332.77303219520854L502.9271002360658,321.72885446587406L504.67421112016166,320.8523276645583L510.11506422747993,306.6472267495956L515.5499273648052,310.2766396699826L514.6350955840803,314.8115849959804L517.77177059797,313.94658936618544L521.0283539202608,316.9179544716344L523.0868343354385,313.332815559771L526.8223974400674,314.8952902735509L525.8313296776147,317.23861374653643L527.8210888006912,317.76149363387776L526.0310679497397,320.8372697486884L527.6829927652211,322.99715179286613L522.9235804259973,330.020060471702L521.8237130267662,335.82693397923504L523.0108161708022,337.6644237219398L519.1447806288755,341.6019204573149L520.0048314113031,349.36050061047536L516.0106105115285,355.5271748788682L516.0926186461579,358.75597981792725L511.86315528848206,359.77183448873075L507.04079381006125,366.30910013108405L509.19348011694456,371.9600619921266L494.7902160892412,384.2047768364646L495.0661903430928,387.74933085245175L492.2148557179536,390.9627068237178L494.231079617546,394.3451679327063L490.58111862954115,400.3578225678857L474.5664437652181,401.4439091591994L467.78383737950264,404.17299659939L457.3848138377433,402.72031307852285L446.64185710985,393.3513395889113Z" stroke="#FFFFFF" stroke-dasharray="1, 0" stroke-width="1"></path><text x="476.4033722760508" y="363.17485172606376" title="Pocahontas" class="hint " style="">Pocahontas</text></a></g></g></svg>