<svg id="map" class="map svg-content-responsive" xmlns:xlink="http://www.w3.org/1999/xlink" preserveAspectRatio="xMinYMin meet" viewBox="0 0 960  540"><g><g id="states"><a id="s01" rel="nofollow " title="Kenosha" class="hint   "><path d="M653.5111005467709,499.2674330695768L652.4554986069068,504.6675961274673L653.7818605945761,517.5368232274695L615.0603220300568,517.3557807076904L614.9595866521797,505.2129169013956L624.0425727363668,505.1469404343393L624.0272350621531,499.06942588951097ZM653.6594674958249,517.5712123773487L653.6641689939495,517.5864731579491L653.5875576966203,517.5818740223413L653.5992729050652,517.5670313353535Z" stroke="#FFFFFF" stroke-dasharray="1, 0" stroke-width="1"></path><text x="626.2874034383981" y="508.8543427291588" title="Bayfield" class="hint Bayfield " style="">Kenosha</text></a><a id="s02" rel="nofollow " title="Racine" class="hint   "><path d="M652.0366028312683,481.1794995782161L657.2302167855396,487.32666061405735L655.6351757410384,489.30982572857283L655.6502051202929,493.87632365325544L653.5251279674083,499.23378590009816L624.0272350621531,499.06942588951097L624.0425727363668,505.1469404343393L614.9595866521797,505.2129169013956L614.9321484008226,480.9244942312189Z" stroke="#FFFFFF" stroke-dasharray="1, 0" stroke-width="1"></path><text x="624.9067633376437" y="490.96394847509083" title="Racine" class="hint " style="">Racine</text></a><a id="s03" rel="nofollow " title="Iowa" class="hint   "><path d="M457.4214020824238,442.1809185453026L464.36898313259667,443.4776658821329L470.3185363265136,447.7522101891286L477.6706003629904,447.1953819316773L479.8038473322904,448.98054930721037L484.3901202171892,443.7861653904156L491.65578459138555,444.4873707100028L496.86542988352835,442.5704776728903L496.84153702420076,483.90646370876766L451.4893446274348,483.9952449878929L451.31161258352904,443.11099957615625Z" stroke="#FFFFFF" stroke-dasharray="1, 0" stroke-width="1"></path><text x="464.95216795420896" y="464.3160567863313" title="Iowa" class="hint " style="">Iowa</text></a><a id="s04" rel="nofollow " title="Milwaukee" class="hint   "><path d="M647.428595151754,447.2000311709862L646.2081324825263,451.0242700572376L649.0544656921618,456.82649720496283L646.6335795260457,459.85089170187166L646.4572348094571,462.2024908744779L650.4797132879521,468.31256991975897L650.2533477142536,475.80955381324156L651.9386421080219,480.9504577231428L633.1471394676887,480.8094967881848L633.656442740077,444.04348371694505L646.813700855884,444.0506724135498ZM650.6584472904751,474.35333903626315L650.7093930324611,474.2905211752982L650.7240370430172,474.21349744013696L650.732746375611,474.2749481441383Z" stroke="#FFFFFF" stroke-dasharray="1, 0" stroke-width="1"></path><text x="632.1131242842906" y="463.59899775059273" title="Milwaukee" class="hint " style="">Milwaukee</text></a><a id="s05" rel="nofollow " title="Grant" class="hint   "><path d="M442.5383858594698,441.9939556463369L451.31161258352904,443.11099957615625L451.4979768862886,516.0523774459502L434.9937916210529,515.9644500461714L434.6932811096974,512.2888418867828L429.7181712076688,502.54766964744704L411.2871424482314,497.3929894992925L403.3146348066216,491.93956870341526L401.3536476457032,485.14267327246034L401.16867067025987,478.1071013712258L396.06122515704874,473.8678263822221L395.81859702425845,465.03797167908033L402.64578889291533,465.05830870942054L409.67491395976276,460.8355822145477L412.1460522042064,457.6237657828974L419.07097357488806,456.2229679960451L427.21766786837316,451.2462415125892L431.1713194972547,446.10197805001326Z" stroke="#FFFFFF" stroke-dasharray="1, 0" stroke-width="1"></path><text x="421.05635303169623" y="478.16124702084664" title="Grant" class="hint " style="">Grant</text></a><a id="s06" rel="nofollow " title="Crawford" class="hint   "><path d="M391.6746503318891,419.60752644548165L432.8775008745006,419.5873639569163L433.0109925917791,446.19709157041325L431.1713194972547,446.10197805001326L427.21766786837316,451.2462415125892L419.07097357488806,456.2229679960451L412.1460522042064,457.6237657828974L409.67491395976276,460.8355822145477L402.9081479030847,464.9262749333702L397.12653838812275,464.34310233348106L395.23406978185835,465.56745126645L393.498908678459,457.26549766123526L393.6235369156643,450.658665809648L402.8727710565315,437.34447117263016L399.04559743460845,431.17503271430587L391.4500574542044,427.1337957633523Z" stroke="#FFFFFF" stroke-dasharray="1, 0" stroke-width="1"></path><text x="403.6062351171926" y="439.06788246192247" title="Crawford" class="hint " style="">Crawford</text></a><a id="s07" rel="nofollow " title="Richland" class="hint   "><path d="M469.58186552181087,407.15745444089634L469.556739482646,447.01268530869584L464.36898313259667,443.4776658821329L458.45103017198517,442.18461967920894L450.4794474152534,443.2533125605728L442.4178425304726,441.9887739050946L433.0109925917791,446.19709157041325L432.6262404828574,405.7839167503962L469.595892942448,405.56770954661715Z" stroke="#FFFFFF" stroke-dasharray="1, 0" stroke-width="1"></path><text x="442.22140623940646" y="424.5390886437693" title="Richland" class="hint " style="">Richland</text></a><a id="s08" rel="nofollow " title="Polk" class="hint   "><path d="M291.0054017237428,170.0784850220507L318.34892945500064,170.39734533331148L318.19154487839455,227.12614717228462L271.8215937479911,227.11553541987087L271.4773053524468,218.46925711185168L275.6276491652177,214.7614648688932L276.07090024262425,210.80729899541257L280.1301428949887,206.39345736958012L280.42086504139434,201.6742858980042L274.27269282009524,193.74505689516536L274.2279129772894,190.6828535760119L270.8520061017091,187.8595840962471L266.9506875421291,188.5846214058165L262.16517903992826,186.99715679439896L261.729018746581,179.615636993728L289.46693280423256,179.60880204397745L289.52681910003184,170.05949420634352Z" stroke="#FFFFFF" stroke-dasharray="1, 0" stroke-width="1"></path><text x="287.24611875797495" y="199.48678404467054" title="Polk" class="hint " style="">Polk</text></a><a id="s09" rel="nofollow " title="Marinette" class="hint   "><path d="M639.4746622814284,162.9648724377398L639.456704100063,165.46033868370841L648.0496553468047,167.2290984100655L655.4184443848105,175.34518570540013L652.0494741458083,178.53716474771045L655.4388689258485,182.65621903105693L655.7298222934733,185.5283422890111L654.6030812918043,188.28332181015276L651.3685276549577,188.4787223804692L653.7023204951347,191.0140767647331L654.527626100572,195.25865640116444L652.9358221531413,199.24054917230887L649.1790939293662,202.52434680181705L650.1680270843301,205.84350967414002L647.1658507728844,211.1317448729078L648.5570317756979,209.9517905617813L650.1279487396512,212.78069443224695L651.4982427589873,211.46472848288977L657.423209429918,211.82072479792896L662.2706852188901,207.31179424468746L664.9798271717382,209.75366523830917L665.6530662886121,212.9157844810943L661.8267404778269,219.1529324510925L658.4431262282685,228.45586439676526L658.8799801852736,231.2026750741784L662.9573351664847,234.33631431964932L664.6918026062244,238.24093749698295L669.8765530804237,239.65268066190265L669.7886119433476,239.97606231665304L670.0218370798864,239.93741461512082L669.9058411015346,240.00204566493358L670.3811548546851,240.52845808369602L671.0766682823516,241.91621842476388L670.2519021930939,240.59384714967427L669.2783837860836,240.96302597373597L667.7150971223671,243.93236319382595L667.18251758057,251.42292529119277L667.0538044351574,251.8211032275999L666.9112950903266,252.00928632121077L665.8279466041461,251.63836297443686L665.3018412564898,252.24769428358513L665.423309470365,252.70356425176078L666.532631806846,252.47933791275818L667.0228207917717,252.53980790743708L665.0366305179473,253.2004725677548L663.8778268405347,252.75749504239184L659.9220942206789,252.88670914389377L656.8329016570349,253.7444007822678L657.0261255226326,251.0343122791237L642.820587472241,250.761309712379L642.9363522293725,247.77733840805467L629.2072840382255,247.43811342145636L629.3787731092098,237.97862313107635L623.9522423133592,237.79820734322539L624.1794556981956,228.38345703521827L614.7366123230304,227.99668683035543L614.9673710998966,209.03933033893827L605.5461083718674,208.78017024113888L605.7554406490767,170.7463283232969L633.9614235283391,171.78995779322486L634.0523705412661,164.31650616330808ZM677.1843767902724,243.3275663551267L677.4787984761865,243.4449733222741L677.8492148695127,244.03459348946353L676.5916026577167,243.5086951377698ZM666.3231453821568,252.11476226403556L666.5680086533994,252.2129361023949L665.5884014209469,252.41788672396797L666.1490358040196,252.1055005015337ZM670.2020354834638,241.22608802743662L670.2824233940421,241.40607720503522L669.9779050482175,240.97306838033728L670.0173668029788,240.97394163232184ZM670.1579493043166,240.93966640017243L670.048889962545,240.97143103253802L669.9817587352063,240.91150380729323L670.1431511462806,240.76413932876903ZM658.6610907643326,253.53677024358467L658.7182794792411,253.54287071455155L658.1762969411916,253.57293723445719L658.2737181482582,253.534046817123ZM665.4784942680385,251.9859680521604L665.4127503680152,251.94870222653162L665.6162250410034,251.80432229428015L665.556261671464,251.94848429707463ZM670.4080535898636,241.66224447528657L670.3688230563223,241.68636535070664L670.4145277840041,241.72783994102656L670.812228281208,241.78273877721222ZM657.5730407800272,253.63481280571432L657.5802857115657,253.5899312904071L657.7380556568701,253.59777468525863L657.7207140654225,253.61509548067943ZM665.6839728582588,252.55462569072597L665.5539494592717,252.64124364724648L665.5286692726268,252.59962359663496L665.536762015302,252.56443155740362ZM670.3343710946451,241.4093516719795L670.3382247816342,241.44820854848285L670.2532895204092,241.51260564780432L670.2557558800827,241.43249118939138ZM658.058451193087,253.57380872562817L657.9715890883681,253.5911295874812L657.9225701898758,253.57359085284816L657.9806837896595,253.54744606387067ZM660.8563050204068,253.04697013905434L660.9003911995549,253.05328897917207L660.830177022626,253.06320300854895L660.8109085876833,253.03117301080374ZM657.4289899604009,253.66814692642083L657.3973897270955,253.66095722915088L657.492729943189,253.643091884971L657.47901081751,253.6568177027284ZM670.3637361894971,241.52799536462362L670.3232724761199,241.5384734479626L670.3736787019275,241.49808907160195L670.4035833129581,241.5045287599528ZM659.7561544589571,253.18500265709963L659.7758853363384,253.20995059268716L659.6938788772254,253.22956025379608L659.7002759976249,253.21343675915705ZM658.7178170368027,253.46650546111823L658.7188189954197,253.44144961114762L658.7961239564067,253.4206422854645L658.7824819044679,253.43807251064254ZM659.0885417250861,253.31954602060614L659.1177526724589,253.3265182293162L659.1261537100936,253.33479771705333L659.0617971373877,253.3424235513162ZM665.7690622669638,251.84812697351663L665.7444757439775,251.81903285514454L665.7649773587557,251.78013151887262L665.7782340419963,251.7866695755156ZM658.9031023072052,253.38414759402394L658.8780533417796,253.38785154257312L658.9488841086261,253.36715297840328L658.9364752365243,253.38392971462736ZM661.0859076911759,252.9875945189101L661.0667934037133,252.9859603195505L661.1489540103064,252.97288670929493L661.1430964060844,252.9836724397287ZM665.7024705558035,252.08250947880015L665.6719493548565,252.05581363533747L665.6610048838093,252.018875116873L665.7000812698711,252.06518443419964ZM670.3438511646368,241.58966299786653L670.3682064664038,241.5854063135739L670.3766845777784,241.5949019899358L670.3199583053095,241.5898812892906ZM665.4944485321707,252.65834918975133L665.4717888526775,252.64592860940593L665.5187267601975,252.62599025774216L665.5134857458922,252.64451222586786ZM659.2369086741398,253.3257556443673L659.2140948471695,253.3008081711514L659.2252705394349,253.28043614316084L659.2450784905552,253.29590581754292ZM658.8317320241792,253.40669807031463L658.8066830587557,253.4002706481665L658.8517711965187,253.38207773946488L658.8506150904225,253.3868710858187ZM665.7158043127843,252.5949385997551L665.7090988974235,252.57598066952778L665.7358434851237,252.55669581941766L665.7411615731671,252.57249414736452ZM659.0363628032637,253.36050763536787L658.9963615323247,253.36279537720975L658.9916600341978,253.3524460621952L659.0195607279943,253.34394871705263ZM665.7944195273476,252.58622231713935L665.7746886499674,252.58273580068862L665.7757676823237,252.5635599254324L665.7960380758823,252.559855488204ZM665.5847018814391,252.50439762120868L665.573834484132,252.48358717474366L665.5970336798007,252.4637572607403L665.5988063758155,252.4697498238056ZM661.261019227929,252.97866089052923L661.2419049404664,252.97702668883494L661.222096989346,252.9598130716813L661.25431381257,252.95959517748815ZM669.9661127660333,240.9952271116049L669.9446091926393,240.98638545980157L669.9587136870157,240.95822307790604L669.9689644944053,240.96717392625123ZM665.5940278039507,252.5569137276616L665.5837769965622,252.53490495669848L665.596185868664,252.52052294567102L665.6069761922308,252.53588554715498ZM659.1707023316801,253.31072180780575L659.1450367763359,253.312029099377L659.1421079742258,253.30908769295547L659.1813385077669,253.2963415824629ZM670.2323254631926,241.50376472947892L670.2227683194619,241.49721589300816L670.2230766144212,241.46501734701042L670.2417284594453,241.47560468386928ZM670.7286803472987,241.56532345616915L670.7160402539778,241.5706716147315L670.745790717528,241.5389100343882L670.7434014315947,241.55266249109263ZM661.0534596467346,252.96035780712782L661.0392780786171,252.9664588408873L661.0260984691165,252.95872360064686L661.0641728965616,252.94597677541378ZM660.9203532981544,253.00655120023157L660.896614586306,253.01385059666973L660.8864408526567,253.0098195877522L660.9131083666159,252.9917344887058ZM670.4257805500106,241.61673107618162L670.4101345808376,241.61203782908706L670.4100575070986,241.57973072999312L670.4177648810744,241.58442400139893ZM669.9379037772785,240.97328669334593L669.9330481316736,240.95003631512554L669.9591761294541,240.94326858310887L669.9390598833756,240.96728308285628ZM670.3555663730817,241.3548861482609L670.3514043911337,241.35608679619418L670.3309027763555,241.34790055569238L670.3494004739005,241.32978163849793ZM670.4117531293732,241.56597833297337L670.3991130360505,241.5607393166074L670.4044311240948,241.54393077606255L670.4133716779079,241.5510252954573ZM669.9523165666153,241.02131536917614L669.9473838472702,241.02251608133474L669.9301193295614,240.99577289217177L669.9506980180806,241.011927975258ZM670.4191522083909,241.71223243019404L670.4008857320662,241.70743011131117L670.3940261692262,241.6938962836548L670.3981881511734,241.69269570075176ZM670.7215124895013,241.88784196037022L670.7089494699185,241.88555000953284L670.7054040778887,241.87780102665965L670.7125719356873,241.87179828683247ZM670.2421138281438,241.44100476381573L670.2340210854675,241.45137384517284L670.2253117528746,241.43991328056563L670.2301673984796,241.43445586144298ZM670.3748348080235,241.47822422835907L670.3676669502252,241.47549553615772L670.3669732865676,241.46763689594718L670.3783031263131,241.46643626948753ZM670.3286676379032,241.14411427888172L670.324428582215,241.14487835341515L670.3201895265277,241.13581860647037L670.3345252421252,241.1357094528148ZM670.4102887283168,241.634740014817L670.4019647644222,241.6359406088759L670.3982652249126,241.6245895285242L670.4096721383992,241.62993763626537ZM670.2807277717673,241.02251608133474L670.2764116423409,241.02251608133474L670.2735599139689,241.01422024717021L670.2849668274537,241.01301953341545ZM670.4093638434399,241.4734217292862L670.4046623453141,241.47756934233894L670.3974944875158,241.46927411347542L670.4063579675887,241.46687286095357ZM670.347858999105,241.56193992491535L670.3415389524446,241.56379541002298L670.3379935604148,241.55746492914614L670.3463945980495,241.55342651557567ZM670.3342169471659,241.3250881754616L670.3285905641633,241.32596137815563L670.3267407944093,241.32094046100065L670.3338315784677,241.31613784081082ZM670.3816943708625,241.57285453527265L670.3762992090801,241.5713264909714L670.3766075040394,241.56379541002298L670.3818485183438,241.56586918684388ZM670.3639674107164,241.56805210906805L670.3574932165759,241.56597833297337L670.3584181014537,241.56063017038923L670.3654318117729,241.56204907111078ZM670.4781136193133,241.73329710342978L670.4713311302132,241.7310050958008L670.4717164989127,241.72751251112913L670.4777282506147,241.72631193469715Z" stroke="#FFFFFF" stroke-dasharray="1, 0" stroke-width="1"></path><text x="626.9475363693615" y="207.92050783859867" title="Marinette" class="hint " style="">Marinette</text></a><a id="s10" rel="nofollow " title="Florence" class="hint   "><path d="M597.4810351687959,137.68323716313535L599.4852606977256,138.0291972485552L600.8178656583143,140.99319926833778L603.1864187551269,140.09156709788294L606.4854831121597,142.78497629378217L609.2273043306691,140.9523751783281L613.3163745203242,145.02778746341255L619.5150300411719,144.07940235796377L620.3050358737942,145.78658967861838L623.7953201791906,145.29883860454902L630.7150776093083,148.80003270794123L630.7427470818845,153.10541151419102L633.168720114825,154.124248625782L628.0606580116951,160.20166088592305L631.2628406778397,163.77031781780806L634.0523705412661,164.31650616330808L633.9614235283391,171.78995779322486L586.4458483300223,170.697200308241L585.8764275406168,138.4648106180939L586.7990772793808,141.28938766213832L589.508373379708,141.6923806101695L591.2174064853239,141.24190973513078L592.1813677486032,138.06626720769964L593.18294099689,139.47032128743876Z" stroke="#FFFFFF" stroke-dasharray="1, 0" stroke-width="1"></path><text x="598.8446687792225" y="156.92514691008526" title="Florence" class="hint " style="">Florence</text></a><a id="s11" rel="nofollow " title="Forest" class="hint   "><path d="M566.8110048291483,131.95702359306006L575.6372582861686,137.7817994821262L577.1680198317019,136.30131111423725L578.5054033641584,136.5627564518577L578.3866327311748,138.35338532581954L581.5079650443026,137.00180413232147L585.8764275406168,138.4648106180939L586.4458483300223,170.697200308241L605.7554406490767,170.7463283232969L605.5461083718674,208.78017024113888L567.1662376957397,208.5915536941211L567.3904452047241,199.09252305795962L557.8747671454794,199.13637080571698L557.7995431754653,141.98653878004188L566.5935798092617,141.98764794707722Z" stroke="#FFFFFF" stroke-dasharray="1, 0" stroke-width="1"></path><text x="570.1241729082077" y="176.84242453246068" title="Forest" class="hint " style="">Forest</text></a><a id="s12" rel="nofollow " title="Burnett" class="hint   "><path d="M308.70877730603047,122.52086235420711L326.4325774293552,122.51808061889551L327.8377087790668,179.86113896412326L318.29782956553527,179.8785563353631L318.34892945500064,170.39734533331148L289.52681910003184,170.05949420634352L289.46693280423256,179.60880204397745L261.8884072404212,179.3822522517321L263.2658691175575,171.29808081618103L269.9027659227247,166.01245390834356L271.8743892597322,161.46887641679132L271.3156817201525,158.78142826377098L275.31257171704624,152.0665841012824L281.1059735141923,147.31067311220977L287.7306926684769,145.39262284056258L289.5576485959393,141.95248725455804L294.05389935279004,143.00544609658755L297.1511075853691,137.39708668670164L303.23631056127783,138.2515026606152L304.65693373268255,132.9860394634693L307.5692420635594,131.78559674201097L307.645005549751,122.5161890381587Z" stroke="#FFFFFF" stroke-dasharray="1, 0" stroke-width="1"></path><text x="292.7798416831448" y="155.16562620061134" title="Burnett" class="hint " style="">Burnett</text></a><a id="s13" rel="nofollow " title="Iron" class="hint   "><path d="M445.2363521200516,74.21894223989557L452.15086853586376,76.89815616020678L454.08526525656316,80.67187839864982L458.810425020524,78.32619918493174L460.549131515952,80.1247872658555L459.98526003580923,82.41086006753812L463.0547217220719,81.57100427206706L463.39346080835253,83.80054556825553L467.6993394279755,84.10701984759862L475.24254633907685,100.01354073678749L475.06851383467983,102.52381110111264L489.8592727911314,106.66960412180424L489.90428385515634,142.0255813391109L461.08579596595723,142.0810390928882L461.0059475715575,122.81605292259974L451.54214013917476,122.91574467556893L451.585224359706,113.2612549222822L441.8266098727115,113.20475564158187L441.99979456596975,74.92928329167489Z" stroke="#FFFFFF" stroke-dasharray="1, 0" stroke-width="1"></path><text x="456.6292746395416" y="110.69032082377252" title="Iron" class="hint " style="">Iron</text></a><a id="s14" rel="nofollow " title="Ozaukee" class="hint   "><path d="M654.5852001841781,406.8503826067149L654.677996966858,412.1682599936521L648.5363760134396,423.378603131448L645.4713846040834,437.14742001420154L646.813700855884,444.0506724135498L633.656442740077,444.04348371694505L633.730818898953,425.49937217414845L635.4617409466653,425.5014925931514L635.4141093754874,406.90025088215407Z" stroke="#FFFFFF" stroke-dasharray="1, 0" stroke-width="1"></path><text x="633.2836222862136" y="423.755158656122" title="Ozaukee" class="hint " style="">Ozaukee</text></a><a id="s15" rel="nofollow " title="Dodge" class="hint   "><path d="M607.636271120637,399.0284883692807L606.3244760697849,443.7690386625877L560.7785973649807,443.44869704178655L560.944151758003,397.2589971859925L607.6236310273152,397.4809158023968Z" stroke="#FFFFFF" stroke-dasharray="1, 0" stroke-width="1"></path><text x="574.9420967504286" y="420.3906385758428" title="Dodge" class="hint " style="">Dodge</text></a><a id="s16" rel="nofollow " title="Sauk" class="hint   "><path d="M472.66011361440746,396.3094734386068L500.9255974207708,396.4113974416464L502.303752961564,400.07532324810063L506.1414856858348,400.9986398537558L505.2401082992476,403.9600179744125L514.7326642365626,404.7522673135036L515.1624274095095,424.14555395928073L509.1279389543679,426.23903792909414L505.73746514197046,430.95099218090036L505.76444095088914,436.17403435451615L499.14735209684227,439.2373157903721L495.9796984661141,443.3000446686324L484.3901202171892,443.7861653904156L480.63732275414213,446.72875033512537L479.8836186529509,448.9769577040897L477.6706003629904,447.1953819316773L470.26643447843026,447.7321356215816L469.595892942448,405.56770954661715L460.4196476331417,405.67150693052463L460.2974857556096,396.4088413736408Z" stroke="#FFFFFF" stroke-dasharray="1, 0" stroke-width="1"></path><text x="479.3470148065785" y="418.9477792976169" title="Sauk" class="hint " style="">Sauk</text></a><a id="s17" rel="nofollow " title="Columbia" class="hint   "><path d="M551.6839731460886,396.2253343235443L551.6664774071617,397.391574252184L560.944151758003,397.2589971859925L560.7606391836152,434.230633314824L533.4825470574203,434.60627478061315L533.4801577714879,433.2563832176079L505.4475137329639,432.6461974028107L509.1279389543679,426.23903792909414L515.1624274095095,424.14555395928073L515.2455899747185,405.23514246709783L505.1922455068516,403.93108327652135L506.1414856858348,400.9986398537558L502.303752961564,400.07532324810063L500.9255974207708,396.4113974416464Z" stroke="#FFFFFF" stroke-dasharray="1, 0" stroke-width="1"></path><text x="526.8267340520226" y="414.8539855556891" title="Columbia" class="hint " style="">Columbia</text></a><a id="s18" rel="nofollow " title="Sheboygan" class="hint   "><path d="M659.2344423144682,369.5807568956202L659.6179612435537,378.26474233009185L662.0062452177465,383.27228706435244L660.9010077894725,385.9324184724501L661.4351288060652,391.54812189134236L654.5831191932048,406.83868636654506L626.140134564155,406.85165855889727L626.0370099003455,369.6751942466931Z" stroke="#FFFFFF" stroke-dasharray="1, 0" stroke-width="1"></path><text x="633.8221619790104" y="387.8805020234891" title="Sheboygan" class="hint " style="">Sheboygan</text></a><a id="s19" rel="nofollow " title="La Crosse" class="hint   "><path d="M392.9055179559846,348.3393402630227L395.6155847937098,350.45727184085763L414.0326632062497,350.4022403117474L414.2121679461684,387.417730356834L387.45455478462804,387.3832814330535L388.4879594874385,382.1320743717429L385.42296807808134,374.3555219766167L374.5357628196641,359.74593809880844L382.496786474047,359.72355065564125L380.75746338870044,356.2828741485564L383.53219509409155,351.1792885193745L386.7306782207254,350.31352376243467L390.25687888885545,352.37042049682714Z" stroke="#FFFFFF" stroke-dasharray="1, 0" stroke-width="1"></path><text x="389.40663863077134" y="367.9888137446785" title="La Crosse" class="hint " style="">La Crosse</text></a><a id="s20" rel="nofollow " title="Juneau" class="hint   "><path d="M491.9080469416467,331.44031223436286L492.45974077090614,333.52151804021923L490.14167097364225,335.04654100121525L491.62017652361214,336.5492649947819L490.08401981629527,337.1091471058762L491.8476982034081,338.87382801924514L490.25157812655084,338.966358632405L489.8782329311148,341.7149011488882L486.62942065241145,340.1745060493904L485.40001742937056,343.94908732401063L486.2804307587403,344.67764287390855L483.4945233610838,345.1886019150047L482.38905471159046,350.69755986875816L484.5362520277897,355.7020655603651L483.91326498924514,357.2411619418399L487.4811625505879,360.50203038778045L488.11224233180883,366.5054837385096L485.7824573260989,367.39023026363293L487.29025089718266,372.5085192205888L495.8610049068716,382.8212640607958L500.9255974207708,396.4113974416464L460.2974857556096,396.4088413736408L460.29301547870205,331.3558489816555Z" stroke="#FFFFFF" stroke-dasharray="1, 0" stroke-width="1"></path><text x="466.5899601795075" y="366.1808155106711" title="Juneau" class="hint " style="">Juneau</text></a><a id="s21" rel="nofollow " title="Adams" class="hint   "><path d="M493.785640316137,331.2822520564323L515.3811626829713,331.68680937120325L515.2473626707333,396.2423752463237L500.7139529313672,396.2989294835602L500.73591894720175,393.6385284238554L497.9916313690196,390.39904501706997L495.8610049068716,382.8212640607958L487.29025089718266,372.5085192205888L485.7824573260989,367.39023026363293L488.11224233180883,366.5054837385096L487.4811625505879,360.50203038778045L483.87310957082514,357.15232653069916L484.5362520277897,355.7020655603651L482.1796453606403,348.3404133556178L483.8900657935735,346.936653119069L483.5713658796333,345.09541052126315L486.2442831747903,344.7624655681916L485.40001742937056,343.94908732401063L486.6810600580552,340.12798111013126L490.0289891661009,341.5804081361025L490.2051026614713,339.0429828445044L492.0192643481316,338.2349967691139L490.13951290892805,337.43862448937125L491.6452254890378,336.32349207785L490.17381072312514,334.8444804360065L492.48455851511153,333.4707493223955L491.91560016814356,331.28106847315803Z" stroke="#FFFFFF" stroke-dasharray="1, 0" stroke-width="1"></path><text x="493.03990755335536" y="361.2392021418146" title="Adams" class="hint " style="">Adams</text></a><a id="s22" rel="nofollow " title="Manitowoc" class="hint   "><path d="M673.7175229017648,322.8981130543275L676.4209613978692,333.2500297403453L676.1102771528642,337.3367194487769L673.57971505506,341.36319374667755L665.6913719372783,346.9688529344812L665.1157081749502,352.36591636668027L662.9494736450285,355.88888614570624L659.2371398953601,369.5740189563535L635.3205418554087,369.64995404987076L635.2077829741283,332.1894573278555L647.1722478932859,332.2487353094971L647.2125574591842,322.8697770526019Z" stroke="#FFFFFF" stroke-dasharray="1, 0" stroke-width="1"></path><text x="644.297189660807" y="345.1169734909899" title="Manitowoc" class="hint " style="">Manitowoc</text></a><a id="s23" rel="nofollow " title="Trempealeau" class="hint   "><path d="M367.3211983349329,293.8622738802105L394.55720819921567,293.78228508228676L395.6051798388412,349.5278937389917L391.9161994323224,348.7183452826798L390.25687888885545,352.37042049682714L386.7306782207254,350.31352376243467L383.598016067853,351.1254431320144L380.75746338870044,356.2828741485564L382.496786474047,359.72355065564125L374.5357628196641,359.74593809880844L373.4153418646547,357.93069254594593L363.294943243189,353.9513873245819L366.1474423520058,347.7200282583999L364.08186612622126,342.513958547127L360.08682589908244,339.5042130856432L361.350064493882,338.3186159630268L360.9942921111119,335.4277393605885L366.5080703803799,331.58255226010215Z" stroke="#FFFFFF" stroke-dasharray="1, 0" stroke-width="1"></path><text x="370.91872626884964" y="325.3267647108736" title="Trempealeau" class="hint " style="">Trempealeau</text></a><a id="s24" rel="nofollow " title="Buffalo" class="hint   "><path d="M330.74308047336376,293.80739669537934L366.55238778074727,293.8601091088158L366.5080703803799,331.58255226010215L360.9942921111119,335.4277393605885L361.350064493882,338.3186159630268L360.08682589908244,339.5042130856432L364.08186612622126,342.513958547127L366.1474423520058,347.7200282583999L363.32477078047964,353.2637837348184L364.2318516238097,355.34416500300813L357.4036577965369,351.20138430317184L352.76404988371837,346.8803030489007L351.80224668515234,344.15032090699424L339.8742376449072,336.5464697602488L338.23056307061324,328.52239512333017L336.1027112630959,326.8226609743074L336.91915338845934,324.66062122044696L336.0263311869858,322.28298855108915L332.5484557536911,318.7426767969291L323.80235898602973,314.26203362526303L327.96187457383303,295.01144583475616Z" stroke="#FFFFFF" stroke-dasharray="1, 0" stroke-width="1"></path><text x="340.1493514294283" y="317.0988120078192" title="Buffalo" class="hint " style="">Buffalo</text></a><a id="s25" rel="nofollow " title="Brown" class="hint   "><path d="M638.9936450715361,285.14194287152714L637.5785712093941,288.76022046499656L637.4115524153174,295.06046875050333L635.2090932277047,297.00300543178855L640.8208322202179,301.00337150004134L644.0812055598869,300.31041920001417L646.3218933224248,296.2065005163331L645.1621647601339,295.86588328565904L649.5332477636007,291.3466315807741L656.8503973959619,288.53533078371265L656.5686928771097,322.92073866790224L647.2125574591842,322.8697770526019L647.1722478932859,332.2487353094971L623.7092288118706,332.08445540246703L623.8573645397041,294.88039152862666L619.6522212979582,295.1005092591786L619.0711623738468,284.80430258954175ZM639.4575519112,285.0343118407791L640.1899836602163,287.2569031903222L640.0413854899432,287.5305952500421L639.0920682372198,285.48520091720457ZM640.1064357263078,294.1112176212514L640.1363403373375,294.8399167319849L639.9879733882835,295.0406648371536L639.6278848760871,293.6333451783112ZM639.2105305752432,292.80675119956913L638.8505191367867,292.79625028908595L638.0820168775595,291.6155979686014L638.2679958116196,291.57586010028444ZM639.6094642522833,293.5383075532445L639.2597806949555,292.9932747596895L639.2845984391608,292.93319377584794L639.7715503270151,293.4039751575883ZM638.1222493697176,289.0830249196506L637.9674082265251,289.20629285010864L638.0374682559739,288.6598010671132L638.1438300168536,288.97806112923126ZM637.3662330563338,295.7706629727836L637.3377928463588,295.76828244650005L637.3160580517447,295.5669083030857L637.3603754521109,295.61203138774954ZM637.2723572412958,295.48315380608346L637.2658059734151,295.46594828686557L637.3410299434302,295.2818787500423L637.3333225694523,295.36271418340493ZM639.1016253809516,285.4080318134306L639.0767305630061,285.40705635521L639.1548833351312,285.3169883932301L639.1540355239933,285.35904194656587ZM638.2965901690739,292.2312321476297L638.2734680471433,292.2330726800201L638.2652211569878,292.218131872105L638.3042975430508,292.199185144344ZM639.0844379369821,285.32869404975736L639.0600826352161,285.32002319516323L639.0764222680468,285.2818712927515L639.0895248038073,285.29520280772067ZM639.0085973770515,285.33985775741803L638.9955719150312,285.3406164552762L638.9883269834927,285.32695987979787L639.0109095892449,285.3227328385092ZM639.0828964621876,285.37139783397697L639.0721832123595,285.36435281343074L639.0738788346343,285.35015436339654L639.0893706563281,285.3570910147505ZM639.0898330987666,285.25390753527927L639.0785032590211,285.24686238294817L639.0807383974743,285.230821083544L639.0939180069738,285.23851657688465ZM638.2508854413911,287.9302769235537L638.2402492653032,287.9350439139739L638.241944887578,287.9041667527781L638.249652261555,287.9113172667644ZM639.062780216108,285.36857982670654L639.0509879339238,285.37464937925506L639.0467488782365,285.36337734842346L639.0543791784733,285.359150331647Z" stroke="#FFFFFF" stroke-dasharray="1, 0" stroke-width="1"></path><text x="629.1977302783455" y="309.1671519686483" title="Brown" class="hint " style="">Brown</text></a><a id="s26" rel="nofollow " title="Kewaunee" class="hint   "><path d="M686.7043709789455,285.2657216960665L679.5202506214234,298.6558479846076L673.7276195616741,322.87063898608767L656.5686928771097,322.92073866790224L656.8503973959619,288.53533078371265L657.9456152380665,286.08593864215027Z" stroke="#FFFFFF" stroke-dasharray="1, 0" stroke-width="1"></path><text x="659.1551606088109" y="302.6800894262468" title="Kewaunee" class="hint " style="">Kewaunee</text></a><a id="s27" rel="nofollow " title="Pierce" class="hint   "><path d="M271.5721831261019,265.0224486372731L319.7376440981425,265.4820637705225L319.810324634743,299.9899205387742L305.8723866088251,299.82469083383876L302.68615820681293,297.9367850121389L288.0352880880405,296.9499947889558L286.4004769938208,293.087887613819L282.2999998906789,291.74866927379435L281.5347347285219,288.1337375251478L267.95233786415406,277.0632967732395Z" stroke="#FFFFFF" stroke-dasharray="1, 0" stroke-width="1"></path><text x="288.6230703090939" y="280.5541363735377" title="Pierce" class="hint " style="">Pierce</text></a><a id="s28" rel="nofollow " title="Dunn" class="hint   "><path d="M319.8014611546698,227.13730590272462L356.0186426929056,227.2933072348451L355.9494304745929,236.82079157199314L357.10029555681035,236.81893467472855L357.1950191829844,284.3946658197365L319.8197276309945,284.30696820947924L319.7480490530113,236.7434567941923L318.1385181454334,236.73242449484678L318.19154487839455,227.12614717228462Z" stroke="#FFFFFF" stroke-dasharray="1, 0" stroke-width="1"></path><text x="329.2263200863256" y="255.73571469288746" title="Dunn" class="hint " style="">Dunn</text></a><a id="s29" rel="nofollow " title="Door" class="hint   "><path d="M714.6772057954095,217.66071202936155L717.9102179574604,219.40859302631907L716.7627441197933,221.42623376661686L717.2453798782212,225.39466050708825L715.4060150786561,226.89771699849734L713.891207797255,224.53273116566652L712.4772900412092,224.96765051257034L712.126065009086,232.70935773447036L713.3852957694176,234.03744605004067L712.0233257139748,235.28571330967634L711.2890441952045,233.86391010547777L710.585052656163,232.8951672458038L710.2618824653164,232.7718777888649L709.1369912334014,234.19786414706414L711.6885944621633,237.30815335948955L711.948178817702,240.39986122582604L710.519385829881,241.45093725262223L708.3563883970296,239.927807239711L709.4943050909651,242.3466517298889L708.6172059324056,244.4504800494251L708.0121000014865,242.35549145353343L706.1015190663754,242.69619323092456L704.9089570909441,248.582746723298L702.9468908976685,249.54011743376532L701.0187371498896,253.4449356484647L702.36783589079,257.526840344407L698.9459159925675,260.22617213770855L699.8585461451614,263.52822163717065L695.0220148272356,266.66459942987103L691.4730003321349,272.3959231216222L688.9260215277598,268.77677842791445L686.5697231555707,268.4655340994723L686.0207269072021,262.31724458920417L684.4214468070156,259.52804941865907L690.8265828767005,245.82657020450642L692.3410047894031,244.12754850492183L693.8874123041105,244.70772234030483L695.6974890825627,236.88611031186792L697.3882557118557,235.55655340987414L697.264398212048,231.69375614903356L698.495728278582,230.90343771763764L702.3415537455292,233.44611450924276L702.7237624210402,229.98781546336886L706.3937826875754,229.11241415192944L706.5903977977246,223.6995797910704L707.4513114709337,221.7591040027969L709.8399808138247,222.25377756906664L710.340574753619,217.7372982493348L712.297245785111,218.8852114753031ZM682.918817176497,262.02613136444006L681.6824773168769,262.3069100840148L681.4742240720238,263.4937436308928L683.1108078622585,263.36115924417663L685.5649128102136,268.3705493354487L691.4380088542812,272.43795475872366L686.7065290436587,285.2607359061535L658.8442950437611,285.1108352001852L660.1832971247522,283.2116747404584L660.1091521870953,279.8657429773739L668.5935065345038,267.5893156493735L673.1589695096654,266.1271207908012L671.8533403579954,268.49585501948695L672.8293251246771,267.8486508246724L672.4585233626538,269.0096581860262L672.9342995582415,269.0696426104573L674.4547332226462,265.8100911264896L675.7156596052525,266.41478196581465L676.803863737038,265.7606217440607L675.9308494866846,264.16445359312L678.0215517516331,265.874455100497L681.7611696051795,261.7738440391495ZM721.0582948582878,205.8641473146472L725.1668647041029,204.74862828460982L728.0969770688671,206.77883077686147L726.0435784939648,210.25313516957704L725.8414140745531,213.45370319843414L723.0847946980093,213.47530230415487L721.6899912294261,211.25732873436164L720.6773193626138,212.28943311008788L720.2322955891937,212.0903954149485L720.4810896211641,212.93398632465778L720.3428193320206,213.04736287169771L720.3691014772805,213.19900350814441L720.499587318709,213.27827620619746L720.1866679352509,213.52200874286928L719.1717609299844,212.8945123794315L719.986584506812,210.1604406253532L719.0839739403887,207.9901149973116L720.513306444388,203.94027032378244ZM689.6515937139363,226.88721426012125L689.549779303703,231.2984454832299L690.3662985028056,232.84150165626625L686.5260994188611,230.41743335911087L686.639320742581,228.35403446784812ZM728.8513748337168,203.13345429456103L730.2819405175508,203.79773716724685L730.6301596738231,205.46598241826132L728.3753674169079,205.99357010071162ZM721.0027246919149,213.56016303770866L721.8818277677085,213.24077804364015L723.4900484217089,217.74628255089647L722.9688757933977,217.55695208239968L722.7657094153699,215.88362472132894L721.4968444375675,214.73888367775817L720.8805628143818,213.58329670575176L720.9322792937658,212.90416158921835ZM719.0122953624032,215.60852908043762L719.6368238757443,215.82805857582116L719.8860032764142,217.02114188511177L718.94061678442,216.7645064011358ZM695.3878838699138,232.4546803980611L695.2840655424466,232.85505472048408L694.9495655118533,232.80433987726474L694.9887960453964,232.58704833064257ZM699.4909044064673,230.30918425266873L699.6081335646552,230.6526226578103L699.2664656762636,230.64726512042125L699.2226107183355,230.3874736937828ZM675.9121976416616,263.9469456700049L675.8401336949778,264.1312841232739L675.4621640751552,264.134437949278L675.7253708964633,263.86070168585593ZM674.7123136609518,265.5680679646689L674.5778199850563,265.62721554907694L674.5670296614892,265.80998240300005L674.3987776875749,265.6862538490773ZM717.6677439721493,227.09529646045758L717.5386454580394,227.09781265899392L717.2917782695617,227.4321298160262L717.3462694035775,227.1421194665395L717.6061620540754,226.95832620485362ZM720.8209077398019,211.70206162810518L720.9101591304523,211.7055711074545L721.0273112149,211.87632681513696L720.7126191354271,211.8866356156691ZM695.0159260017942,231.93884490442315L695.0768913299505,231.98322658236248L694.736225400175,231.81662968356522L694.8980031799485,231.69288159561347ZM695.1301492841301,231.1692206800235L695.0644824578478,231.18966505336493L694.9928809536036,231.36141700427606L695.0464472027415,231.01626839893424ZM708.1530678715217,244.02630166024164L708.0946459767779,243.89395821022663L708.1695616518325,243.70160241976464L708.1923754788029,243.87115513935942ZM691.2213545717925,238.9116345269772L691.113374262377,238.91523788174845L691.0463971825195,238.7221824866274L691.0983448831237,238.71617670820115ZM719.0799661059195,211.1198992771042L719.1841698020871,211.15916514682203L718.9919478951053,211.13328041144678L719.0280954790564,210.98389266835602ZM721.8139258029739,219.01085773939167L721.7617468811495,218.95685316123354L721.8489172808277,218.788263842147L721.8634071439046,218.90722987953313ZM708.1945335435162,243.64650224923662L708.1216988594356,243.5086951377698L708.1835890724699,243.4481376058684L708.2200449513803,243.5799449586725ZM674.6454136548334,265.810852190858L674.5857585802523,265.7572512883985L674.662524025061,265.687341105368L674.6639884261165,265.7745384450036ZM720.8062637292458,211.96647340604295L720.8602153470831,211.9639510739762L720.9100049829731,212.01077854998402L720.761329738961,212.00628225028686ZM727.1105102735746,210.9717177378825L727.0391399905495,210.95131644949652L727.0624933336994,210.8496380606357L727.1200674173065,210.8988870244184ZM717.5772594016628,225.65411330989855L717.5497440765646,225.67753028057814L717.5018812841697,225.6036680408729L717.5700915438636,225.56208594973623ZM719.1767707230695,210.93661870555343L719.1383109269252,210.8806792125165L719.1903357012684,210.81848706663095L719.2161554040899,210.84985743327616ZM712.6513996193455,224.97596774777958L712.6107046847478,225.02291614322758L712.5411070977377,224.98100185842168L712.6142500767764,224.94291761584782ZM711.6445853567552,239.18133441605914L711.6361843191207,239.2220613610407L711.5604208329282,239.29881946440855L711.5854697983527,239.19214400648025ZM720.6654500066888,212.4086333465375L720.6084925130006,212.3545713334115L720.630535602575,212.30577256029346L720.6743905605028,212.34601786832263ZM723.6215362217536,218.10695865990783L723.5537884044973,218.10104251352504L723.665082884723,218.03289686574226L723.6549862248128,218.08044551551347ZM719.1666740631592,210.9818086729424L719.2129183070206,211.0401602800298L719.2129183070206,211.05759984559245L719.1037048177686,210.97829878434686ZM718.5427621397369,222.24961713213816L718.5535524633049,222.28268158035144L718.4645322938727,222.33151153660356L718.4877314895425,222.26122255451946ZM720.5421320230605,212.4154321870742L720.5048283330125,212.38845609853206L720.4951170418026,212.3271563395524L720.550378913216,212.35709350676643ZM711.6677845524259,239.4474195933003L711.6565317864195,239.49120190948224L711.6094397314203,239.46008483357855L711.6564547126784,239.3941379558587ZM721.5064786550383,211.69844247545052L721.4472089491567,211.68473354473508L721.4267073343788,211.5824091295085L721.4350312982733,211.5799963147947ZM692.6211678334607,244.15318726199894L692.5842495121121,244.1807897209992L692.4960000800768,244.13354907453368L692.5770816543127,244.12089332096912ZM723.8064361234578,217.9997002424916L723.8005014454957,218.0302674367058L723.7218091571913,218.00583560536006L723.7835452227464,217.95576648490578ZM720.7645668360312,212.9502144293383L720.7447588849109,212.93343807713518L720.7237177539544,212.86962173494703L720.7992500189266,212.91644237998435ZM723.6662389908192,217.9408661873531L723.6201488944382,217.92169295778103L723.6057361051014,217.86351553907252L723.6841971721856,217.92760927493282ZM723.9047051416612,218.0614918346796L723.892604564518,217.96464090985455L723.8571506442247,217.9111750467141L723.9135686217353,217.95861506713436ZM720.4137271726072,213.17246940525138L720.3879845435249,213.16293025790583L720.3849015939336,213.13036547206684L720.4316853539726,213.1218130757493ZM695.7391859757772,230.70018426720344L695.7176824023823,230.65480940644375L695.7347156988708,230.63523797887683L695.7452748012186,230.64442234360786ZM720.7256445974483,211.6519416596384L720.7415988615808,211.6837465005542L720.7115401030699,211.70798387335662L720.7049117614501,211.69734576210658ZM716.2196054756475,226.53383054200913L716.2320914214904,226.48514297678366L716.2547511009816,226.50560274161444L716.2243840475135,226.53087647587745ZM672.2617541050254,268.5987711695466L672.2445666610568,268.6244184368761L672.2207508754693,268.5992058698671L672.245799840894,268.57671008863326ZM723.9080963862118,217.89002960912921L723.8895216149278,217.88159332638406L723.8948397029712,217.8413838732954L723.9087129761294,217.85036802435206ZM722.7829739330766,213.16457493952976L722.7721836095095,213.15613223591208L722.8464826946465,213.12959794980134L722.8189673695483,213.15722869157526ZM694.7174194076717,234.0236770017964L694.7002319637031,234.01143782224835L694.7030066183361,233.98750578561658L694.7231228644146,233.9979965527209ZM719.2842885900445,211.45365125214676L719.2734982664786,211.44948357605654L719.2657138187615,211.43018061872408L719.2872944658957,211.42710968815982ZM672.1453727579762,268.6061610709021L672.1341199919698,268.59659766748837L672.1389756375756,268.5781228695432L672.152001099596,268.5847520680127ZM720.2745319985859,212.2757254844587L720.2643582649364,212.28066023317115L720.2481727795848,212.25653475773197L720.2730675975304,212.26344342618813ZM720.2391551520325,212.24030483967954L720.2259755425321,212.23855025140483L720.2265150587095,212.21804346415183L720.2379219721963,212.2222106242657ZM720.3395051612104,212.14884626496905L720.3256318880522,212.14818828472926L720.321624053584,212.14095049749176L720.3375012439762,212.14051184344999ZM719.4348906775526,211.14567438719587L719.4325013916191,211.14556470610205L719.4188593396811,211.14030001136916L719.4222505842297,211.1324029608977ZM717.509896953105,220.49191194992636L717.500108588155,220.49684017601066L717.495330016289,220.48424581269273L717.5064286348154,220.48271258411478ZM717.5724037560569,220.37593323477859L717.5641568659014,220.38097107094973L717.5583763354196,220.37812359883173L717.5668544467942,220.36958117465156ZM720.3385802763332,212.20159412060184L720.3357285479615,212.20422601849805L720.3304104599179,212.19885255910594L720.3392739399901,212.19150516832815ZM724.471274202697,213.49130971474142L724.4661873358718,213.49207719229435L724.4640292711586,213.4859373692143L724.4695015066823,213.48352529420163Z" stroke="#FFFFFF" stroke-dasharray="1, 0" stroke-width="1"></path><text x="682.1891582551134" y="255.98709570754457" title="Door" class="hint " style="">Door</text></a><a id="s30" rel="nofollow " title="Oconto" class="hint   "><path d="M611.73281746305,208.97141432358194L614.9673710998966,209.03933033893827L614.7366123230304,227.99668683035543L624.1794556981956,228.38345703521827L623.9522423133592,237.79820734322539L629.3787731092098,237.97862313107635L629.2072840382255,247.43811342145636L642.9363522293725,247.77733840805467L642.820587472241,250.761309712379L657.0261255226326,251.0343122791237L656.8305123711016,253.7420042466738L652.9163995707204,254.97261326995294L650.7274282875667,257.79116509161713L650.8868167814067,260.2630621919252L652.3224693320676,261.00669317496295L651.6986344823845,261.34126564126564L648.852301272749,267.34192640472065L645.4103422021869,269.67836509440895L643.4799533159567,276.27272587972266L639.7972158823575,280.4473855745846L639.4577060586801,285.0332279338063L619.833652881372,284.8232716259495L619.4067414367971,266.03079591697406L600.842914623739,265.7332231486803L601.2660494550669,237.24698947124534L589.1018864761711,237.2031913896085L589.3462102312351,227.62706693625614L586.1233718028334,227.61186162289323L586.2945525788584,208.5966010993102ZM651.561443225597,262.63521265512645L651.4610161426792,262.568857328115L651.6429101685324,262.4111246282828L651.5845653475276,262.4971710284308ZM651.8795265496206,262.3668499765349L651.737402573488,262.5186008580922L651.6511570586867,262.37413845426L651.8645742441051,262.34302638564395ZM646.3595823811702,269.7411681539097L646.4291799681814,269.77702428963994L646.1503271777001,269.6565251286047L646.2734910138502,269.6884701274489ZM639.4947014537679,283.7075780807959L639.4703461520019,283.70768649438423L639.4664153912738,283.6514195903105L639.4925433890546,283.65174483398096Z" stroke="#FFFFFF" stroke-dasharray="1, 0" stroke-width="1"></path><text x="608.7843535458064" y="246.96612070560218" title="Oconto" class="hint " style="">Oconto</text></a><a id="s31" rel="nofollow " title="Lincoln" class="hint   "><path d="M522.1446916425789,189.14997263344412L528.4627343863258,189.167804132931L528.6362273745433,237.00036184630335L481.01714214371987,236.8866564522923L481.04165159296485,189.1876168498502Z" stroke="#FFFFFF" stroke-dasharray="1, 0" stroke-width="1"></path><text x="495.8017469325946" y="213.07207726958467" title="Lincoln" class="hint " style="">Lincoln</text></a><a id="s32" rel="nofollow " title="Jefferson" class="hint   "><path d="M595.7063352368971,443.575038293483L597.2337055378807,443.6219795172501L596.7993950142863,480.8427138090319L560.4224396135123,480.3771344329143L560.7785973649807,443.44869704178655Z" stroke="#FFFFFF" stroke-dasharray="1, 0" stroke-width="1"></path><text x="569.8356548177202" y="462.0565616829589" title="Jefferson" class="hint " style="">Jefferson</text></a><a id="s33" rel="nofollow " title="Fond du Lac" class="hint   "><path d="M626.0757779914491,364.9532156303626L626.140134564155,406.85165855889727L607.6813592584012,406.7855213695234L607.6236310273152,397.4809158023968L570.248956065243,397.21001219358186L570.2766255378194,369.2849225628647L607.4843587795547,369.5288852746485L607.4698689164779,364.7317685261496Z" stroke="#FFFFFF" stroke-dasharray="1, 0" stroke-width="1"></path><text x="591.8497541928675" y="384.41963259485306" title="Fond du Lac" class="hint " style="">Fond du Lac</text></a><a id="s34" rel="nofollow " title="Rock" class="hint   "><path d="M560.4224396135123,480.3771344329143L578.6490688150855,480.86815204556024L578.692615478054,517.6411399084077L533.2729835589919,516.7948515534777L533.0183319227972,480.6213338743396Z" stroke="#FFFFFF" stroke-dasharray="1, 0" stroke-width="1"></path><text x="546.9782807396816" y="498.86946572114476" title="Rock" class="hint " style="">Rock</text></a><a id="s35" rel="nofollow " title="Waukesha" class="hint   "><path d="M633.6011808686635,447.1747773080715L633.1471394676887,480.8094967881848L596.7993950142863,480.8427138090319L597.2337055378807,443.6219795172501L633.656442740077,444.04348371694505Z" stroke="#FFFFFF" stroke-dasharray="1, 0" stroke-width="1"></path><text x="606.1690526124769" y="462.323183450911" title="Waukesha" class="hint " style="">Waukesha</text></a><a id="s36" rel="nofollow " title="Lafayette" class="hint   "><path d="M468.5057619671686,483.80097526290774L496.84153702420076,483.90646370876766L496.902194057398,516.2099328597128L451.4979768862886,516.0523774459502L451.4893446274348,483.9952449878929Z" stroke="#FFFFFF" stroke-dasharray="1, 0" stroke-width="1"></path><text x="465.2068899657236" y="500.00383694188054" title="Lafayette" class="hint " style="">Lafayette</text></a><a id="s37" rel="nofollow " title="Winnebago" class="hint   "><path d="M607.4075933347451,333.40933153695914L607.4843587795547,369.5288852746485L570.2766255378194,369.2849225628647L570.1979332495168,332.00936074403444L607.3944907989837,331.85529556122174Z" stroke="#FFFFFF" stroke-dasharray="1, 0" stroke-width="1"></path><text x="579.873636390422" y="350.66979030511146" title="Winnebago" class="hint " style="">Winnebago</text></a><a id="s38" rel="nofollow " title="Washington" class="hint   "><path d="M635.417654767517,408.4774406287743L635.4617409466653,425.5014925931514L633.730818898953,425.49937217414845L633.656442740077,444.04348371694505L606.3244760697849,443.7690386625877L607.6813592584012,406.7855213695234L635.4141093754874,406.90025088215407Z" stroke="#FFFFFF" stroke-dasharray="1, 0" stroke-width="1"></path><text x="611.8060349798868" y="425.23331166021205" title="Washington" class="hint " style="">Washington</text></a><a id="s39" rel="nofollow " title="Walworth" class="hint   "><path d="M614.9022437897929,482.4431314288745L615.0603220300568,517.3557807076904L578.692615478054,517.6411399084077L578.6490688150855,480.86815204556024L614.9321484008226,480.9244942312189Z" stroke="#FFFFFF" stroke-dasharray="1, 0" stroke-width="1"></path><text x="587.7965445409267" y="499.2073740675036" title="Walworth" class="hint " style="">Walworth</text></a><a id="s40" rel="nofollow " title="Green" class="hint   "><path d="M533.0183319227972,480.6213338743396L533.2729835589919,516.7948515534777L496.902194057398,516.2099328597128L496.87583483839694,479.33274443480195L533.0214148723885,479.4231653512684Z" stroke="#FFFFFF" stroke-dasharray="1, 0" stroke-width="1"></path><text x="506.0554621291071" y="497.9604845308049" title="Green" class="hint " style="">Green</text></a><a id="s41" rel="nofollow " title="Dane" class="hint   "><path d="M533.4825470574203,434.60627478061315L560.7606391836152,434.230633314824L560.4224396135123,480.3771344329143L496.87583483839694,479.33274443480195L496.86542988352835,442.5704776728903L499.02973756995584,439.35316027244335L505.0031065494602,437.0829696434316L506.43020391500636,434.90969408536967L505.9400149300818,433.37201760834614L533.4801577714879,433.2563832176079Z" stroke="#FFFFFF" stroke-dasharray="1, 0" stroke-width="1"></path><text x="520.1516767552596" y="457.14835898463247" title="Dane" class="hint " style="">Dane</text></a><a id="s42" rel="nofollow " title="Marquette" class="hint   "><path d="M548.4701523452402,360.37982351606024L548.5106931323576,371.2843711896576L546.1923150401344,371.2888619441014L546.1923921138734,378.1007933935184L548.5232561519394,378.37517852192786L548.552158804353,383.13151922560655L542.7037263570128,383.37612670291537L542.5606774960024,396.1992403225827L515.2473626707333,396.2423752463237L515.3742260463921,359.96509522213955Z" stroke="#FFFFFF" stroke-dasharray="1, 0" stroke-width="1"></path><text x="521.7035621579946" y="377.46393234694125" title="Marquette" class="hint " style="">Marquette</text></a><a id="s43" rel="nofollow " title="Calumet" class="hint   "><path d="M635.1986882728361,333.0198364033745L635.3205418554087,369.64995404987076L626.0370099003455,369.6751942466931L626.0830999967266,364.7334810514417L607.4698689164779,364.7317685261496L607.3944907989837,331.85529556122174Z" stroke="#FFFFFF" stroke-dasharray="1, 0" stroke-width="1"></path><text x="612.7135950330073" y="349.4859895374045" title="Calumet" class="hint " style="">Calumet</text></a><a id="s44" rel="nofollow " title="Vernon" class="hint   "><path d="M388.0160369788375,387.3978929187665L460.33810361646624,386.767862237597L460.4196476331417,405.67150693052463L432.6262404828574,405.7839167503962L432.8775008745006,419.5873639569163L391.50385492456235,419.6067836180773L389.3645962035605,416.3569404913151L390.7357380340345,413.044052891255L390.5379668177902,409.96688285764185L388.5350515424366,406.8026405466958L389.46055300957164,402.74166900196633L386.5947972175154,399.06095836459735L386.63287164496023,389.08939981188587Z" stroke="#FFFFFF" stroke-dasharray="1, 0" stroke-width="1"></path><text x="411.22436955102637" y="401.2897445075876" title="Vernon" class="hint " style="">Vernon</text></a><a id="s45" rel="nofollow " title="Green Lake" class="hint   "><path d="M570.2494955814216,360.2531157522235L570.248956065243,397.21001219358186L542.5606774960024,396.1992403225827L542.7037263570128,383.37612670291537L548.552158804353,383.13151922560655L548.5232561519394,378.37517852192786L546.1923921138734,378.1007933935184L546.1923150401344,371.2888619441014L548.5106931323576,371.2843711896576L548.4686879441838,359.8896871718084Z" stroke="#FFFFFF" stroke-dasharray="1, 0" stroke-width="1"></path><text x="548.9935802765135" y="379.3501409022797" title="Green Lake" class="hint " style="">Green Lake</text></a><a id="s46" rel="nofollow " title="Monroe" class="hint   "><path d="M414.59476199037704,341.0745298728025L460.3021872537345,341.4226007953639L460.33810361646624,386.767862237597L414.2121679461684,387.417730356834L414.0326632062497,350.4022403117474L409.3914367448956,350.4633864257585L408.9847186201396,344.41296730165914Z" stroke="#FFFFFF" stroke-dasharray="1, 0" stroke-width="1"></path><text x="427.6964051863291" y="363.8574417881371" title="Monroe" class="hint " style="">Monroe</text></a><a id="s47" rel="nofollow " title="Menominee" class="hint   "><path d="M601.2340638530623,238.8262453286834L600.842914623739,265.7332231486803L581.7983788957479,265.63700094115666L581.8208073540209,256.19818885582254L562.8984335035627,256.2273714836783L562.8388555027209,237.11930792015391L601.2660494550669,237.24698947124534Z" stroke="#FFFFFF" stroke-dasharray="1, 0" stroke-width="1"></path><text x="574.8442558832306" y="249.5230714107744" title="Menominee" class="hint " style="">Menominee</text></a><a id="s48" rel="nofollow " title="Waushara" class="hint   "><path d="M570.2026347476426,333.57239391047233L570.2444857883365,359.8530539610001L515.3742260463921,359.96509522213955L515.3811626829713,331.68680937120325L570.1979332495168,332.00936074403444Z" stroke="#FFFFFF" stroke-dasharray="1, 0" stroke-width="1"></path><text x="533.7291738749768" y="345.8806608338772" title="Waushara" class="hint " style="">Waushara</text></a><a id="s49" rel="nofollow " title="Outagamie" class="hint   "><path d="M623.8622201853091,295.0386086895728L623.7092288118706,332.08445540246703L581.5187553678697,331.93609417991684L581.7551405277386,294.46697359694235Z" stroke="#FFFFFF" stroke-dasharray="1, 0" stroke-width="1"></path><text x="593.6713360485816" y="313.38717139958453" title="Outagamie" class="hint " style="">Outagamie</text></a><a id="s50" rel="nofollow " title="Wood" class="hint   "><path d="M467.56345842476344,284.2031170451478L496.34048064196827,284.25179071700586L496.3755491935631,303.02502869528007L505.4572250241738,303.05583173412015L505.5959577557567,331.47581874291336L459.8846017316712,331.35853891154056L460.01624367919476,284.23010984072516Z" stroke="#FFFFFF" stroke-dasharray="1, 0" stroke-width="1"></path><text x="472.1590219778834" y="309.07598966511546" title="Wood" class="hint " style="">Wood</text></a><a id="s51" rel="nofollow " title="Waupaca" class="hint   "><path d="M591.8898748648007,286.62907834100406L591.8269826931496,294.47335905430555L581.7551405277386,294.46697359694235L581.5187553678697,331.93609417991684L544.1416911198642,331.93405001985866L544.2159902050021,284.63509624986636L591.8978905337372,284.972203669578Z" stroke="#FFFFFF" stroke-dasharray="1, 0" stroke-width="1"></path><text x="555.1382505597887" y="307.3680062065123" title="Waupaca" class="hint " style="">Waupaca</text></a><a id="s52" rel="nofollow " title="Jackson" class="hint   "><path d="M395.3559233644321,293.7914854694113L413.30369977552186,293.84138380514923L413.2619258085681,303.1830412849704L422.6157490143014,303.2241109397287L422.5779828818147,312.6369134866218L460.0332769756842,312.4154650738101L460.3021872537345,341.4226007953639L414.5930663681031,341.0746373050483L409.02009546669274,344.2234463637242L409.3914367448956,350.4633864257585L395.6155847937098,350.45727184085763L394.5016380328418,326.0406815262854L394.55720819921567,293.78228508228676Z" stroke="#FFFFFF" stroke-dasharray="1, 0" stroke-width="1"></path><text x="413.4136564146214" y="323.8387570535723" title="Jackson" class="hint " style="">Jackson</text></a><a id="s53" rel="nofollow " title="Portage" class="hint   "><path d="M527.0744051118832,284.27759086224205L544.2159902050021,284.63509624986636L544.1416911198642,331.93405001985866L505.5959577557567,331.47581874291336L505.4572250241738,303.05583173412015L496.3755491935631,303.02502869528007L496.34048064196827,284.25179071700586Z" stroke="#FFFFFF" stroke-dasharray="1, 0" stroke-width="1"></path><text x="513.8029815281441" y="306.77928955358703" title="Portage" class="hint " style="">Portage</text></a><a id="s54" rel="nofollow " title="Eau Claire" class="hint   "><path d="M357.9568160268518,265.6552669654543L413.31109885454043,265.48826133096645L413.30369977552186,293.84138380514923L357.194556740546,293.8077214138584L357.18353519575953,265.66918390057936Z" stroke="#FFFFFF" stroke-dasharray="1, 0" stroke-width="1"></path><text x="376.2818994595199" y="279.6979671474076" title="Eau Claire" class="hint " style="">Eau Claire</text></a><a id="s55" rel="nofollow " title="Pepin" class="hint   "><path d="M320.5977870339527,284.3152068504505L357.1950191829844,284.3946658197365L357.194556740546,293.8077214138584L328.5143391404913,294.4688134751518L323.80235898602973,314.26203362526303L312.2780621946888,310.1142941399844L307.65533343088055,305.5790077937145L305.8723866088251,299.82469083383876L319.810324634743,299.9899205387742L319.8197276309945,284.30696820947924Z" stroke="#FFFFFF" stroke-dasharray="1, 0" stroke-width="1"></path><text x="321.24945066803804" y="295.2581893036972" title="Pepin" class="hint " style="">Pepin</text></a><a id="s56" rel="nofollow " title="Shawano" class="hint   "><path d="M559.7431887449372,246.79439668940267L562.8790109211409,246.85819336588838L562.8984335035627,256.2273714836783L581.8208073540209,256.19818885582254L581.7983788957479,265.63700094115666L619.4067414367971,266.03079591697406L619.6522212979582,295.1005092591786L591.8269826931496,294.47335905430555L591.8978905337372,284.972203669578L544.2159902050021,284.63509624986636L544.2146799514258,246.79984942227793Z" stroke="#FFFFFF" stroke-dasharray="1, 0" stroke-width="1"></path><text x="570.5701812757538" y="272.93781184806824" title="Shawano" class="hint " style="">Shawano</text></a><a id="s57" rel="nofollow " title="Clark" class="hint   "><path d="M416.4218720653196,246.57726499492355L460.11528343479813,246.31606442496422L460.0332769756842,312.4154650738101L422.5779828818147,312.6369134866218L422.6157490143014,303.2241109397287L413.2619258085681,303.1830412849704L413.24597154443586,246.6122726748731Z" stroke="#FFFFFF" stroke-dasharray="1, 0" stroke-width="1"></path><text x="428.21569434720175" y="278.6580790462377" title="Clark" class="hint " style="">Clark</text></a><a id="s58" rel="nofollow " title="Marathon" class="hint   "><path d="M544.180613358448,238.89885897963813L544.2159902050021,284.63509624986636L460.01624367919476,284.23010984072516L460.11528343479813,246.31606442496422L469.17291225860026,246.33307823957603L469.1475549982174,236.84536810127702L544.184544119176,237.0575960531728Z" stroke="#FFFFFF" stroke-dasharray="1, 0" stroke-width="1"></path><text x="493.9853451011083" y="261.11240180234597" title="Marathon" class="hint " style="">Marathon</text></a><a id="s59" rel="nofollow " title="Langlade" class="hint   "><path d="M536.6033398543686,198.6131447297903L567.3904452047241,199.09252305795962L567.1662376957397,208.5915536941211L586.2945525788584,208.5966010993102L586.1233718028334,227.61186162289323L589.3462102312351,227.62706693625614L589.1018864761711,237.2031913896085L562.8388555027209,237.11930792015391L562.8790109211409,246.85819336588838L545.7606250236927,246.80857378497103L544.2146799514258,246.79984942227793L544.184544119176,237.0575960531728L528.6362273745433,237.00036184630335L528.694418048068,198.85349792330317Z" stroke="#FFFFFF" stroke-dasharray="1, 0" stroke-width="1"></path><text x="546.9097365285994" y="221.29075016728171" title="Langlade" class="hint " style="">Langlade</text></a><a id="s60" rel="nofollow " title="Saint Croix" class="hint   "><path d="M272.16904216686476,227.10820564217192L318.19154487839455,227.12614717228462L318.1385181454334,236.73242449484678L319.7480490530113,236.7434567941923L319.7376440981425,265.4820637705225L270.94819412893844,265.02929907504995L270.53222715541074,261.03944398522935L272.3840779008176,256.88927965322864L270.85562856747765,252.21380778328466L271.5232413013489,247.4927439557673L268.3390168165706,243.0410229743734L273.23158074330786,237.44751740571292L271.0627257062347,229.1821883156108Z" stroke="#FFFFFF" stroke-dasharray="1, 0" stroke-width="1"></path><text x="286.33775408149535" y="246.35602974307315" title="Saint Croix" class="hint " style="">Saint Croix</text></a><a id="s61" rel="nofollow " title="Chippewa" class="hint   "><path d="M367.238344064682,218.0886624112036L413.08288351108695,218.07945948729957L413.31109885454043,265.48826133096645L357.18353519575953,265.66918390057936L357.10029555681035,236.81893467472855L355.9494304745929,236.82079157199314L356.0186426929056,227.2933072348451L365.52345335484233,227.45214889255976L365.6225701841847,218.0765014017229Z" stroke="#FFFFFF" stroke-dasharray="1, 0" stroke-width="1"></path><text x="376.749439250668" y="242.38172712907138" title="Chippewa" class="hint " style="">Chippewa</text></a><a id="s62" rel="nofollow " title="Taylor" class="hint   "><path d="M413.7686085738035,208.51606157871083L481.15101922969575,208.25633096140837L481.01714214371987,236.8866564522923L469.1475549982174,236.84536810127702L469.17291225860026,246.33307823957603L413.24597154443586,246.6122726748731Z" stroke="#FFFFFF" stroke-dasharray="1, 0" stroke-width="1"></path><text x="437.01079312590684" y="226.78825652511063" title="Taylor" class="hint " style="">Taylor</text></a><a id="s63" rel="nofollow " title="Rusk" class="hint   "><path d="M366.3472945592234,180.11853625390586L432.07639642335266,180.03012948623655L432.0772442344896,208.67527425371918L413.0736346623155,208.50706391066706L413.08288351108695,218.07945948729957L365.6225701841847,218.0765014017229Z" stroke="#FFFFFF" stroke-dasharray="1, 0" stroke-width="1"></path><text x="388.2265210009709" y="198.01141986934982" title="Rusk" class="hint " style="">Rusk</text></a><a id="s64" rel="nofollow " title="Barron" class="hint   "><path d="M321.4852911473829,179.84471367662627L365.668660280566,180.1091665192739L365.52345335484233,227.45214889255976L318.19154487839455,227.12614717228462L318.29782956553527,179.8785563353631Z" stroke="#FFFFFF" stroke-dasharray="1, 0" stroke-width="1"></path><text x="332.9248218932527" y="203.62597042138142" title="Barron" class="hint " style="">Barron</text></a><a id="s65" rel="nofollow " title="Oneida" class="hint   "><path d="M538.3088275679577,151.21951426116948L538.2755317123776,155.46731031099398L547.9537582887938,155.9283598240445L547.7330190980979,151.19459541858032L557.802163682617,151.64267616654934L557.8747671454794,199.13637080571698L528.694418048068,198.85349792330317L528.4627343863258,189.167804132931L481.04165159296485,189.1876168498502L481.06207613400375,151.4350303487431Z" stroke="#FFFFFF" stroke-dasharray="1, 0" stroke-width="1"></path><text x="512.310164382643" y="172.6567290716782" title="Oneida" class="hint " style="">Oneida</text></a><a id="s66" rel="nofollow " title="Price" class="hint   "><path d="M433.75937860492786,142.09124326502615L480.9825360345633,142.04621168201766L481.15101922969575,208.25633096140837L432.0772442344896,208.67527425371918L432.0271463036404,146.06802660212134L432.2033368727498,142.08514294676525Z" stroke="#FFFFFF" stroke-dasharray="1, 0" stroke-width="1"></path><text x="447.5384763231265" y="175.28428593778733" title="Price" class="hint " style="">Price</text></a><a id="s67" rel="nofollow " title="Sawyer" class="hint   "><path d="M368.0439187927384,122.62445327738169L413.13459999047177,122.84898698481175L413.10985932000654,142.13727274382245L432.2033368727498,142.08514294676525L432.07639642335266,180.03012948623655L365.668660280566,180.1091665192739L364.8277087059573,122.59596872992597Z" stroke="#FFFFFF" stroke-dasharray="1, 0" stroke-width="1"></path><text x="387.12732255935526" y="153.34593837580934" title="Sawyer" class="hint " style="">Sawyer</text></a><a id="s68" rel="nofollow " title="Washburn" class="hint   "><path d="M328.09158967786266,122.5136298397656L364.8277087059573,122.59596872992597L365.668660280566,180.1091665192739L327.8377087790668,179.86113896412326L327.6636762746707,141.82936778551857L326.3497231591043,141.81694478307054L326.3376225819609,130.553804414978L326.4325774293552,122.51808061889551Z" stroke="#FFFFFF" stroke-dasharray="1, 0" stroke-width="1"></path><text x="337.2695923351295" y="151.13190094457124" title="Washburn" class="hint " style="">Washburn</text></a><a id="s69" rel="nofollow " title="Vilas" class="hint   "><path d="M489.87692267753937,106.67607449239131L554.4096088792467,124.66364706019067L566.6577822344884,131.8710330173717L566.5935798092617,141.98764794707722L557.7995431754653,141.98653878004188L557.802163682617,151.64267616654934L547.7330190980979,151.19459541858032L547.9537582887938,155.9283598240445L538.2755317123776,155.46731031099398L538.3102919690123,150.95226825259442L481.06207613400375,151.4350303487431L480.9825360345633,142.04621168201766L489.90428385515634,142.0255813391109Z" stroke="#FFFFFF" stroke-dasharray="1, 0" stroke-width="1"></path><text x="512.7799189676346" y="134.1080019962393" title="Vilas" class="hint " style="">Vilas</text></a><a id="s70" rel="nofollow " title="Ashland" class="hint   "><path d="M427.8628521439714,62.969370912683644L441.99979456596975,74.92928329167489L441.8266098727115,113.20475564158187L451.585224359706,113.2612549222822L451.54214013917476,122.91574467556893L461.0059475715575,122.81605292259974L461.08579596595723,142.0810390928882L413.10985932000654,142.13727274382245L412.89852312556127,74.71968860444031L424.28570573385514,69.60340451257161L427.2471100369644,67.0333716465957L425.5318339584262,66.36579121830982L426.2711252702816,65.34749144847001L429.94415141266904,65.85177726724942L425.8641759243062,61.40329510494894ZM437.1500836385444,42.27920243647986L440.53300422444386,45.30770627646689L432.4626900070691,48.39281419937561L433.72215198861886,51.90198218190699L429.0759157341806,52.281096112929845L425.684131668208,55.5998067034875L423.63820924606443,55.8929703927688L423.4755836551542,52.175513915550255L427.92921263391213,50.56453813310554ZM443.78042917583275,31.681599173251925L445.24575511630314,32.94451863758968L442.3964931045566,35.85806275779032L442.8066024738623,38.22338118137759L440.6091530793358,36.540072648215755L435.5889550395409,38.586656169873095L433.937341870052,37.26872135077065L435.4517637827546,34.50182736455099ZM452.35187684917946,19.40081432007537L454.07339590063793,19.489655190172925L453.26196356836067,25.286268001679673L448.208623820467,29.434840454904588L449.7674402072769,20.617650678887912ZM428.27326980823636,32.772538604695L429.3987005563299,32.897317776474665L431.2338263002066,37.34725714831984L427.6139810382597,37.77557524049644L425.4588451268655,34.205932329894495ZM428.01977427813995,42.38371715388621L428.5344727123106,44.10958374334405L425.54046621728,47.0362318195057L426.5035025956813,43.811340478589955ZM426.0382084287023,24.264991460873716L427.4195239928256,26.342754572618105L426.7309472017382,28.101346582549922L424.6999770851089,26.370450235139288ZM448.501966474023,41.30928287990173L446.614815955802,42.573124339009155L444.54037624994544,42.051000058554564L449.6981509152249,39.44511686030455ZM441.0288195923722,23.510343412172006L442.3322906793301,26.803390400449643L440.88446047778643,28.586369699845818L440.0280170814842,24.284215489454255ZM435.224396250439,30.18276082799275L433.87699313181315,32.950616329597324L432.10106002007706,33.00188186720425L433.93356525680406,30.70568517809079ZM430.9461871033923,27.12180203338812L432.7517165311997,28.095243993197073L429.6515794965087,29.763846445996023L430.1942556982158,27.586334144644752ZM434.54329561210807,21.889447942307015L432.0783232668457,25.863429916445057L431.0184822712954,25.449981826608564L431.3522886382309,23.1153963089846ZM432.5570282645465,39.96160105261697L432.1480750013361,41.37592613168181L430.1989571963418,41.121076568488206L430.8553942379465,40.35984691110207ZM437.35301879535405,27.137852157442467L437.95450226050343,28.14734182609118L436.7698018065282,29.214513922889637L436.0485457497791,27.733824091283168ZM434.92195889558934,23.46476521202203L435.3005451053298,23.9993543494802L434.7725129141786,25.22374352519728L434.1419726491363,24.20155173206149ZM428.1897218743268,18.92546513650359L428.780260868431,19.743721538120553L428.70642422573246,20.94464845058519L428.0822040073517,20.553267367919034ZM422.805119192911,58.39103640617577L424.13340802407424,58.6661870071207L424.92171823442186,59.565877188630566L425.4053559514666,60.57907752721803L421.89796127584077,58.64459819998592ZM438.96339751406776,21.395174820329885L438.8716026900029,20.423027672799435L439.1701863578653,19.492824012321762L439.4177472099998,20.229190495110743ZM431.22326719785883,19.169256041249355L431.0351301990854,19.814450799424776L430.51611563548727,19.42390175485525L430.7561232611249,19.267493972716693ZM425.73392130409684,61.13332644330694L425.8640217768261,61.189861258175824L425.8514587572431,61.310796787256095L425.68297556211087,61.14501559335804ZM450.32822873782766,38.59365069153591L450.1962784953457,38.59545572806928L450.13338632369437,38.62185432584374L450.26780292585,38.5013674807542ZM425.5343773918387,60.836706724268424L425.48520434586635,60.836594322990095L425.433102497783,60.78781197172293L425.5927992865825,60.7979281597527ZM425.3955675865168,60.71115319865248L425.3373769129903,60.73082379732659L425.46239051889506,60.63730358186376L425.45799731572765,60.652028615260406ZM425.3136382011428,60.89369390408774L425.2929824388848,60.819509304503754L425.322578754955,60.74566100670245L425.3287446541374,60.7542036259415ZM425.103689334014,60.57356962824997L425.05336018194566,60.554348145745735L425.08365016167454,60.47229083957882L425.10446007141286,60.50814889483581ZM425.18322943345447,60.72868813541436L425.13898910682815,60.72913774851304L425.0966756236958,60.656299992305776L425.14769843942213,60.65821087053564ZM425.59441783511716,60.91212751236844L425.563048823032,60.90099991407078L425.6227809713523,60.867167393877025L425.62339756127085,60.87211302322339ZM425.6341108110978,60.98012905851965L425.60528523242533,60.98563658839521L425.66871692025416,60.924603886192926L425.6625510210729,60.9462969795909ZM425.22631365398456,60.674397109057736L425.2582992559892,60.674509513341036L425.2674710310207,60.68001732066432L425.2446572040503,60.71947105958998ZM425.42308291161294,60.6248266172006L425.39972956846304,60.636516747014866L425.3892475398552,60.630896495105844L425.4489796881753,60.59402751348898ZM425.11340062522504,60.6248266172006L425.0889682497191,60.62662510017526L425.07039347843397,60.616733437210314L425.0974463610926,60.60875265192408ZM444.466693754727,34.11527559136539L444.4407969781646,34.12148500040348L444.42846517980297,34.11256602905996L444.4574449059546,34.10217936229947ZM444.13388934640943,34.493247628534846L444.1208638843882,34.48929643021893L444.11970777829083,34.47608811996179L444.1363557060811,34.48218426674339Z" stroke="#FFFFFF" stroke-dasharray="1, 0" stroke-width="1"></path><text x="423.0450211157909" y="105.1232254194246" title="Ashland" class="hint " style="">Ashland</text></a><a id="s71" rel="nofollow " title="Douglas" class="hint   "><path d="M323.3053875120063,56.29995618813291L327.5809761518992,60.806695509066685L334.6227413120705,64.11557753417446L345.9276862400311,62.5931720184667L364.7475520165983,55.58788186349784L364.8277087059573,122.59596872992597L307.645005549751,122.5161890381587L307.72547053406834,65.51439335250689L309.39989753053055,67.41928836752186L314.29014924507464,67.2671478113125L316.6864488882036,63.368466826960685L314.3896514431153,61.93634116324165L315.481940483108,60.00488024907645L318.7861687807051,60.138429806999284L319.6067728880157,57.38770480233097Z" stroke="#FFFFFF" stroke-dasharray="1, 0" stroke-width="1"></path><text x="327.6899431148219" y="91.85181717675026" title="Douglas" class="hint " style="">Douglas</text></a><a id="s72" rel="nofollow " title="Bayfield" class="hint   "><path d="M417.9053874083754,32.27836518927052L420.1014494755866,33.01260918237767L420.86910392367713,35.65219193192752L423.037573592052,35.21932113572893L426.5454307101154,40.383079929702944L424.8995209973682,41.17418990728493L421.7791135691182,49.704274987630924L416.1728468121287,55.520494826901995L418.5908041761329,62.60530783068543L414.14850503712137,65.98093059450684L413.3860916033341,69.92114503368566L411.04513090535875,73.01193471186889L412.92896725277046,75.21018939746682L413.13459999047177,122.84898698481175L364.8277087059573,122.59596872992597L364.7475520165983,55.58788186349784L378.8205232345904,51.34047176640752L383.1371151040403,47.517598211240056L387.49401653938935,46.495789639393024L392.90104767907815,40.890011202486676L391.5317556183579,43.905346177723914L392.9899137010311,45.3913214396016L394.38718352928686,45.55674534058653L396.58964271689933,42.353727139193325L396.8775131349321,43.948178026435926L399.0183133307305,44.19231377597498L400.28579098121645,41.28267047949339L403.4798038309448,41.248389926779055L409.51806889933437,34.51006841531125L413.482664999264,35.787521186582126ZM412.1601566985837,27.665108916897225L413.20527660983817,29.336993869299477L412.408642435596,32.30241981282052L408.6396594871974,30.744092181319502ZM423.5493432241117,30.22636782913014L423.5346221398165,31.44475120259267L422.29835935393544,31.38466240091111L422.9480909801814,30.32487782301905ZM417.3843689275434,29.689618294593856L418.4213960961224,29.55663803137668L418.7870339175827,29.75480805929419L418.18539630495206,30.776060177195177L416.92107867779737,29.71131063409939L416.715600087575,29.065930210570514ZM404.6100131509031,34.15095138176275L404.4952503523898,34.7087533610711L404.32753789465323,34.62070061146733L404.3942837532925,34.28112107139623ZM404.4675038060723,34.732346764523754L404.4592569159179,34.73505604897673L404.4538617541334,34.72794417469777L404.4656540363185,34.724331790905126Z" stroke="#FFFFFF" stroke-dasharray="1, 0" stroke-width="1"></path><text x="382.8067532818003" y="81.56576672674545" title="Bayfield" class="hint " style="">Bayfield</text></a></g></g></svg>