<svg id="map" class="map svg-content-responsive" xmlns:xlink="http://www.w3.org/1999/xlink" preserveAspectRatio="xMinYMin meet" viewBox="0 0 960  540"><g><g id="states"><a id="s01" rel="nofollow " title="Park" class="hint   "><path d="M145.4530147438977,35.48805877638915L255.5310204754701,34.70660118890919L365.60767312974076,35.578160866712096L365.68465140605167,52.03650712228682L368.2330510480647,52.04123087296921L368.2151364301171,96.65552601341733L369.94091129242497,96.67062691172941L369.9068011360291,141.24793538581253L372.0090544088471,141.24957517629173L371.9913207466361,152.47392451236556L350.13919644288853,152.447097600907L350.18425442136186,163.5931098221572L338.9463602959672,163.6181360352848L339.2360704306593,174.4381998649451L322.9414587169499,174.47336151584113L322.8758622623427,185.3724095544494L303.02990373514695,185.91484530652815L301.8669916923013,182.84754737769435L298.16138011315206,182.1879730882829L297.50423935479375,177.86656180132832L291.3209818267387,171.21267070433714L288.6037504822493,170.993691218986L288.27314435102926,168.90056170788466L284.9955835673927,170.12022209719999L282.27581884258507,167.32737569508754L278.47755792617136,170.27678060468133L276.56358909754226,169.01027143680676L275.8174181166555,171.58390353481082L273.0351331847678,172.42881346490412L270.50012426728154,179.040207762685L271.0962829423229,181.84712426266924L266.1896681377234,182.88505280349636L260.0890169035397,187.41342389930742L255.18538786859745,185.15860935481214L253.8331056471402,181.96504942575575L257.71533002545266,179.83521031581586L256.08229497827824,178.629559304316L257.49872600844583,177.29831091989126L253.5994917908729,174.93986562393002L254.27011375162647,171.69508135206252L252.26005742673306,170.9993448148034L253.64663076032002,167.75020906874215L247.9190197776452,169.24614818099508L244.5894342196657,166.92274548139267L241.4215326125577,168.80982690022938L238.0093407607078,162.34559137415727L236.05547119210405,161.45878193333283L236.03936613152428,145.76733947662433L230.0462026050277,145.77364253243195L229.30184118150737,142.4221851100765L231.30755456871793,139.1044202106823L230.25556839255842,139.6588085225767L229.70265813862534,138.0611396243139L231.01187289470954,137.89229308493577L229.6912579272025,136.79393983909722L230.9375000868663,135.99294707751415L228.8280085845745,134.0006934211351L227.76643175436266,126.763439670548L224.3896167490666,123.44664055493377L222.42380410183205,123.92899458169268L220.17895770837913,115.21295963275952L214.05876325461622,108.13232262336169L215.84932027071454,97.32361608689735L213.8975316930846,95.51652482567079L214.15068876893292,93.3195018104143L206.07789143672426,91.20767252356018L206.90757349016758,88.77270740389577L180.43691591487914,88.80116293840547L180.43981120666967,78.18637338927783L145.5385772597083,78.18942950429664Z" stroke="#FFFFFF" stroke-dasharray="1, 0" stroke-width="1"></path><text x="268.8321133793543" y="96.13517086349772" title="Laramie" class="hint Laramie " style="">Park</text></a><a id="s02" rel="nofollow " title="Big Horn" class="hint   "><path d="M365.5600633812337,36.10504224635315L431.7359382575719,36.6510971196094L432.5115145456971,44.12391951224163L435.43802119985,47.67007970472878L434.0356142392884,51.7609923016289L438.4455055462445,58.922171230348795L436.98184506875987,62.36328816657897L444.0451808229668,64.90576051018616L445.0332896240202,71.93333384063862L450.5195961316085,73.11875417306328L451.70684672106063,76.49585740773637L456.57609416600053,73.73169612003858L462.6126870693415,76.5957443798834L465.27626503785723,78.89938595780677L463.8895107485323,80.45340001278691L464.5140794742597,82.19374113423783L467.5265401034162,81.27224820575157L469.8236827048172,85.05476017906858L477.60486986709657,87.20519702881847L478.6928662348869,92.08399241723782L482.41720673279906,93.75202729082412L482.7094502478062,96.50464223488234L485.68571972959444,99.22134783439014L485.10476133644806,104.49990589860226L490.359082589398,107.12624230833808L494.00117870491385,106.10836552969704L494.25379291355193,112.07359905762951L496.1109416408108,111.56983043869877L497.69710915214046,115.95633098781764L495.20191049676123,118.54584048522338L499.1812176278904,121.60303858632142L499.01772411964885,141.60136494758626L369.9068011360291,141.24793538581253L368.2330510480647,52.04123087296921L365.68465140605167,52.03650712228682Z" stroke="#FFFFFF" stroke-dasharray="1, 0" stroke-width="1"></path><text x="413.3698018868478" y="96.1635572732771" title="Big Horn" class="hint " style="">Big Horn</text></a><a id="s03" rel="nofollow " title="Fremont" class="hint   "><path d="M236.05547119210405,161.45878193333283L238.0093407607078,162.34559137415727L241.4215326125577,168.80982690022938L244.5894342196657,166.92274548139267L247.9190197776452,169.24614818099508L253.64663076032002,167.75020906874215L252.40364580392088,171.52523615547034L254.27011375162647,171.69508135206252L253.5994917908729,174.93986562393002L257.3716046033114,177.13474407073772L256.08229497827824,178.629559304316L257.71533002545266,179.83521031581586L253.97126535222424,181.52984616750473L253.85228695524665,184.02430031189215L260.0890169035397,187.41342389930742L266.1896681377234,182.88505280349636L271.0962829423229,181.84712426266924L270.50012426728154,179.040207762685L272.1393118095075,174.1415796418196L275.8174181166555,171.58390353481082L276.56358909754226,169.01027143680676L278.47755792617136,170.27678060468133L282.27581884258507,167.32737569508754L284.9955835673927,170.12022209719999L288.27314435102926,168.90056170788466L288.6037504822493,170.993691218986L291.3209818267387,171.21267070433714L297.50423935479375,177.86656180132832L298.16138011315206,182.1879730882829L302.1725354539667,183.14620577547612L303.2913847748905,186.82571292966895L306.49991094492,187.97338630624108L315.8326125949243,200.2070236974223L315.81542179992357,210.1413183784489L348.148773815441,211.9544465866602L348.148773815441,215.66456636362454L358.97028879035315,215.63958851336338L358.9340976429835,221.07031919498968L369.69236858786644,221.0327544993197L369.69236858786644,224.68850565315097L380.47778289327516,224.7009795806507L380.4767876367223,228.30221157492178L391.2620209863958,228.32939166771212L391.25378750036907,230.11159330377268L458.4538718472613,228.55156654797156L458.4567671390496,224.92039258723798L463.9042586410851,224.92475832977834L463.89204412884783,228.49172210703182L465.5207362383371,228.50418973809246L465.5481510324694,271.3581160067215L466.85112281563534,271.3457188599068L466.9327338529524,314.193490959904L463.1235251144599,314.20581847970516L463.2593323949641,356.8633575514623L464.9876406375861,356.8633575514623L465.00582668913967,377.9933896394623L327.3761409598542,377.7576800392908L327.381841065564,356.95064133935557L325.05873131592534,356.9711136572796L324.7534589878651,325.0271256347378L319.17866512495766,324.93172208388114L319.72641814039343,323.1960313054442L317.96246161761064,320.8346472395124L319.37328301993557,319.61235206804486L313.6784250256319,315.7861649092665L309.98339935708873,315.79590161983197L311.9695695247183,311.92797112819517L308.9090651474303,311.1482301362048L306.1112180221744,306.23179442220317L302.3857917898399,304.48505698128884L297.8085164263007,293.9161181908039L295.35665666989644,294.72320787513854L285.8881477393884,285.904478380844L281.3486921248509,285.6536653357689L281.6991129092544,282.6618309028745L279.70443782199254,281.0989847707606L281.31032950863846,278.25497808956425L279.7388194119926,274.8666857925464L275.1912207892974,271.65043485532533L274.307975837748,266.96552998503375L272.4029643180943,266.51226249088904L270.1930423818526,260.492795067692L270.3511072179881,256.43624817067575L268.6693950776021,254.34627659415128L270.534324901545,248.91347551051877L267.9711773669792,245.64873503192848L268.5419117609945,241.87046613555867L263.0827486139324,241.80213978246957L263.0596767574839,229.68340970885583L236.20105008239716,229.48607557163814Z" stroke="#FFFFFF" stroke-dasharray="1, 0" stroke-width="1"></path><text x="355.4882467449177" y="281.6694356311684" title="Fremont" class="hint " style="">Fremont</text></a><a id="s04" rel="nofollow " title="Platte" class="hint   "><path d="M667.3334313140676,335.8139608404081L724.4133851220672,335.36624701042456L724.6215746973085,452.05989545308057L668.0821356752708,451.6181397228338Z" stroke="#FFFFFF" stroke-dasharray="1, 0" stroke-width="1"></path><text x="687.1484715390666" y="393.62176394863434" title="Platte" class="hint " style="">Platte</text></a><a id="s05" rel="nofollow " title="Sublette" class="hint   "><path d="M184.46001433432548,314.4712251521569L187.6965886435678,314.473320755671L188.53640421827322,251.03925707309827L209.7463166119519,251.09830148120182L209.7228828440293,240.30689481842637L235.68170711764697,240.32556698045846L235.6639734554351,229.48944138987918L263.0596767574839,229.68340970885583L263.0827486139324,241.80213978246957L268.5419117609945,241.87046613555867L267.9711773669792,245.64873503192848L270.534324901545,248.91347551051877L268.6693950776021,254.34627659415128L270.3511072179881,256.43624817067575L270.1930423818526,260.492795067692L272.4029643180943,266.51226249088904L274.307975837748,266.96552998503375L275.1912207892974,271.65043485532533L279.7388194119926,274.8666857925464L281.31032950863846,278.25497808956425L279.70443782199254,281.0989847707606L281.6991129092544,282.6618309028745L281.3486921248509,285.6536653357689L285.8881477393884,285.904478380844L295.35665666989644,294.72320787513854L297.8085164263007,293.9161181908039L302.3857917898399,304.48505698128884L306.1112180221744,306.23179442220317L308.9090651474303,311.1482301362048L311.9695695247183,311.92797112819517L309.98339935708873,315.79590161983197L313.6784250256319,315.7861649092665L319.37328301993557,319.61235206804486L317.96246161761064,320.8346472395124L319.72641814039343,323.1960313054442L319.17866512495766,324.93172208388114L324.7534589878651,325.0271256347378L325.05873131592534,356.9711136572796L327.381841065564,356.95064133935557L327.3761409598542,377.7576800392908L191.86110397135826,376.06948053227734L191.70774398438107,355.1248305902536L187.47328926429736,355.1299805459266L187.47835602492978,322.98670730400136L184.4561237859839,322.9751327507729Z" stroke="#FFFFFF" stroke-dasharray="1, 0" stroke-width="1"></path><text x="239.52844422060474" y="315.6023292365308" title="Sublette" class="hint " style="">Sublette</text></a><a id="s06" rel="nofollow " title="Sheridan" class="hint   "><path d="M429.82836785170866,35.52419053047015L600.5332409977386,36.44546222571444L601.9030035956707,91.19040158988719L478.8580788226286,91.71663897112012L477.60486986709657,87.20519702881847L469.8236827048172,85.05476017906858L467.5265401034162,81.27224820575157L464.5140794742597,82.19374113423783L463.8895107485323,80.45340001278691L465.27626503785723,78.89938595780677L462.6126870693415,76.5957443798834L456.57609416600053,73.73169612003858L451.70684672106063,76.49585740773637L450.5195961316085,73.11875417306328L445.0332896240202,71.93333384063862L444.0451808229668,64.90576051018616L436.98184506875987,62.36328816657897L438.4455055462445,58.922171230348795L434.0356142392884,51.7609923016289L435.1367298980017,46.38191498425931L432.5115145456971,44.12391951224163L432.52970059724885,37.47048695707417Z" stroke="#FFFFFF" stroke-dasharray="1, 0" stroke-width="1"></path><text x="514.1919995943562" y="62.25060191090358" title="Sheridan" class="hint " style="">Sheridan</text></a><a id="s07" rel="nofollow " title="Teton" class="hint   "><path d="M145.5385772597083,78.18942950429664L180.43981120666967,78.18637338927783L180.43691591487914,88.80116293840547L206.90757349016758,88.77270740389577L206.07789143672426,91.20767252356018L214.50816682707364,93.72917656332629L213.8975316930846,95.51652482567079L215.84932027071454,97.32361608689735L214.05876325461622,108.13232262336169L220.17895770837913,115.21295963275952L222.42380410183205,123.92899458169268L224.3896167490666,123.44664055493377L227.76643175436266,126.763439670548L228.8280085845745,134.0006934211351L230.9375000868663,135.99294707751415L229.6912579272025,136.79393983909722L231.01187289470954,137.89229308493577L229.70265813862534,138.0611396243139L230.25556839255842,139.6588085225767L231.30755456871793,139.1044202106823L229.30184118150737,142.4221851100765L230.0462026050277,145.77364253243195L236.03936613152428,145.76733947662433L235.68170711764697,240.32556698045846L209.7228828440293,240.30689481842637L209.7463166119519,251.09830148120182L188.53640421827322,251.03925707309827L188.51143232658887,258.04877046767524L167.21864220543375,258.05448317622813L167.21837077182863,248.2667582787608L146.3522742781588,248.04541184726713Z" stroke="#FFFFFF" stroke-dasharray="1, 0" stroke-width="1"></path><text x="178.36396649013588" y="170.19182953472705" title="Teton" class="hint " style="">Teton</text></a><a id="s08" rel="nofollow " title="Uinta" class="hint   "><path d="M146.17142265853772,512.0081337146194L146.24349509471585,460.9142013508672L236.52405607266837,461.1355391588768L236.4803994690733,531.0304685478914L146.16172788725862,530.9819935621645Z" stroke="#FFFFFF" stroke-dasharray="1, 0" stroke-width="1"></path><text x="182.3307088529639" y="496.0183387186494" title="Uinta" class="hint " style="">Uinta</text></a><a id="s09" rel="nofollow " title="Weston" class="hint   "><path d="M685.9478050962857,166.71595953810902L686.0831599874473,140.2748451990792L778.7723735289296,139.74501381795744L778.7709555823039,224.68001895918223L686.03647340734,225.2886028919711Z" stroke="#FFFFFF" stroke-dasharray="1, 0" stroke-width="1"></path><text x="723.3783819894531" y="182.49731384469607" title="Weston" class="hint " style="">Weston</text></a><a id="s10" rel="nofollow " title="Albany" class="hint   "><path d="M573.5645209046506,483.2231461875808L596.5892383831651,483.2367751371403L596.1371204746533,357.0006574450581L642.946840960044,357.32587677887113L641.173474738946,363.85297339625686L637.6435711802769,363.8380309596705L637.7151391741986,372.7714909632714L645.6288764137194,374.6792230029132L659.2781866883347,374.5226687913446L658.9939957036163,370.9896907072716L660.8116960802422,370.9594664095421L661.4082166667577,360.5080829876724L663.1599586773032,357.26176565129117L667.5687642498374,357.22548072252266L668.2066339531921,530.9563099578277L573.7201428383396,530.8424512661145Z" stroke="#FFFFFF" stroke-dasharray="1, 0" stroke-width="1"></path><text x="618.73353463008" y="451.49659290803146" title="Albany" class="hint " style="">Albany</text></a><a id="s11" rel="nofollow " title="Campbell" class="hint   "><path d="M600.4948060515289,38.22327264116029L600.5332409977386,36.44546222571444L610.6365608009737,35.57980348705769L686.32564409416,35.59589028015489L686.03647340734,225.2886028919711L601.2072287874948,225.72214994264232L602.0114865599098,96.63636432493877Z" stroke="#FFFFFF" stroke-dasharray="1, 0" stroke-width="1"></path><text x="634.8262839594577" y="130.4615412285978" title="Campbell" class="hint " style="">Campbell</text></a><a id="s12" rel="nofollow " title="Goshen" class="hint   "><path d="M724.4133851220672,335.36624701042456L778.9593908388956,335.083693527642L778.9804970903429,462.79735257144785L724.6528800397832,462.7078672216503Z" stroke="#FFFFFF" stroke-dasharray="1, 0" stroke-width="1"></path><text x="742.7647149651594" y="398.94605807342845" title="Goshen" class="hint " style="">Goshen</text></a><a id="s13" rel="nofollow " title="Johnson" class="hint   "><path d="M478.8524691947873,91.90723838980102L601.9030035956707,91.19040158988719L601.2072287874948,225.72214994264232L502.2647938616283,226.0472938537987L502.01733689149023,185.5638840819238L500.7536325032197,185.58031028681307L500.66659279379655,141.59808552132563L499.01772411964885,141.60136494758626L499.1812176278904,121.60303858632142L495.20191049676123,118.54584048522338L497.69710915214046,115.95633098781764L496.1109416408108,111.56983043869877L494.25379291355193,112.07359905762951L494.00117870491385,106.10836552969704L490.359082589398,107.12624230833808L485.10476133644806,104.49990589860226L485.68571972959444,99.22134783439014L482.7094502478062,96.50464223488234L482.41720673279906,93.75202729082412Z" stroke="#FFFFFF" stroke-dasharray="1, 0" stroke-width="1"></path><text x="540.9320670647301" y="157.05930188628483" title="Johnson" class="hint " style="">Johnson</text></a><a id="s14" rel="nofollow " title="Sweetwater" class="hint   "><path d="M235.94644536065334,408.58499683849095L236.00760839970735,376.89449103178777L350.5148810595406,376.5933795113633L465.00582668913967,377.9933896394623L465.04210831437695,399.2118403438135L466.71594888021036,399.2118403438135L466.18221993438056,451.5216234217605L428.1800675506638,451.26198016655144L429.20382463187525,530.493225080309L236.4803994690733,531.0304685478914Z" stroke="#FFFFFF" stroke-dasharray="1, 0" stroke-width="1"></path><text x="333.0866319969291" y="450.49081479055684" title="Sweetwater" class="hint " style="">Sweetwater</text></a><a id="s15" rel="nofollow " title="Crook" class="hint   "><path d="M685.5337783703803,83.99379804021464L686.32564409416,35.59589028015489L778.4974357508304,35.916702735979015L778.7723735289296,139.74501381795744L685.820774169018,140.27572827872518Z" stroke="#FFFFFF" stroke-dasharray="1, 0" stroke-width="1"></path><text x="723.1509289890267" y="87.95247932739629" title="Crook" class="hint " style="">Crook</text></a><a id="s16" rel="nofollow " title="Hot Springs" class="hint   "><path d="M303.02990373514695,185.91484530652815L322.8758622623427,185.3724095544494L322.9414587169499,174.47336151584113L339.2360704306593,174.4381998649451L338.9463602959672,163.6181360352848L350.18425442136186,163.5931098221572L350.13919644288853,152.447097600907L377.4655936977251,152.4289610426731L377.54005698343735,163.49086618024194L383.1828902033981,163.46722292467075L382.95678601020836,174.61388089095362L393.8324972283049,174.62643834729533L393.80227762025197,181.73509363649646L405.0510290898578,181.5312262120733L403.56863969360757,184.28967756272414L405.994713257513,185.20325083919943L425.7632227293384,185.24112065380723L425.75155108431136,195.91978865879446L447.5296644916898,195.9326860851561L447.4987210606887,206.89086366785432L458.4520622898922,206.80821512966122L458.4538718472613,228.55156654797156L391.25378750036907,230.11159330377268L391.2620209863958,228.32939166771212L380.4767876367223,228.30221157492178L380.47778289327516,224.7009795806507L369.69236858786644,224.68850565315097L369.69236858786644,221.0327544993197L358.9340976429835,221.07031919498968L358.97028879035315,215.63958851336338L348.148773815441,215.66456636362454L348.148773815441,211.9544465866602L315.81542179992357,210.1413183784489L315.8326125949243,200.2070236974223L306.49991094492,187.97338630624108Z" stroke="#FFFFFF" stroke-dasharray="1, 0" stroke-width="1"></path><text x="372.9179466328878" y="197.7868942930748" title="Hot Springs" class="hint " style="">Hot Springs</text></a><a id="s17" rel="nofollow " title="Lincoln" class="hint   "><path d="M146.1269843857849,391.76951507130525L146.3522742781588,248.04541184726713L167.21837077182863,248.2667582787608L167.21864220543375,258.05448317622813L188.51143232658887,258.04877046767524L187.6965886435678,314.473320755671L184.46001433432548,314.4712251521569L184.4561237859839,322.9751327507729L187.47835602492978,322.98670730400136L187.47328926429736,355.1299805459266L191.70774398438107,355.1248305902536L191.86110397135826,376.06948053227734L236.00760839970735,376.89449103178777L236.52405607266837,461.1355391588768L146.24349509471585,460.9142013508672Z" stroke="#FFFFFF" stroke-dasharray="1, 0" stroke-width="1"></path><text x="172.36772890003064" y="376.86105399755" title="Lincoln" class="hint " style="">Lincoln</text></a><a id="s18" rel="nofollow " title="Niobrara" class="hint   "><path d="M702.3094609104974,225.13954973751697L778.7709555823039,224.68001895918223L778.9593908388956,335.083693527642L702.9884068351453,335.4312790077238Z" stroke="#FFFFFF" stroke-dasharray="1, 0" stroke-width="1"></path><text x="731.7631144302004" y="280.024369039075" title="Niobrara" class="hint " style="">Niobrara</text></a><a id="s19" rel="nofollow " title="Carbon" class="hint   "><path d="M428.1771722588742,451.9172479003628L466.18221993438056,451.5216234217605L466.71594888021036,399.2118403438135L465.04210831437695,399.2118403438135L464.9876406375861,356.8633575514623L596.1371204746533,357.0006574450581L596.5892383831651,483.2367751371403L573.5645209046506,483.2231461875808L573.7201428383396,530.8424512661145L429.20382463187525,530.493225080309Z" stroke="#FFFFFF" stroke-dasharray="1, 0" stroke-width="1"></path><text x="509.72137883109644" y="446.63019896877836" title="Carbon" class="hint " style="">Carbon</text></a><a id="s20" rel="nofollow " title="Converse" class="hint   "><path d="M595.7150412184587,225.78426137155293L702.3094609104974,225.13954973751697L702.9884068351453,335.4312790077238L667.3334313140676,335.8139608404081L667.718233688473,357.23455197077783L663.1599586773032,357.26176565129117L661.4082166667577,360.5080829876724L660.8116960802422,370.9594664095421L658.9939957036163,370.9896907072716L659.2781866883347,374.5226687913446L645.6288764137194,374.6792230029132L637.7151391741986,372.7714909632714L637.6435711802769,363.8380309596705L641.173474738946,363.85297339625686L642.946840960044,357.32587677887113L595.9155401748844,357.0028640304581Z" stroke="#FFFFFF" stroke-dasharray="1, 0" stroke-width="1"></path><text x="638.3239684748671" y="290.31142970132476" title="Converse" class="hint " style="">Converse</text></a><a id="s21" rel="nofollow " title="Washakie" class="hint   "><path d="M372.0090544088471,141.24957517629173L500.66659279379655,141.59808552132563L502.2816227451549,225.0589724942056L458.4567671390496,224.92039258723798L458.4520622898922,206.80821512966122L447.4987210606887,206.89086366785432L447.5296644916898,195.9326860851561L425.75155108431136,195.91978865879446L425.7632227293384,185.24112065380723L405.994713257513,185.20325083919943L403.56863969360757,184.28967756272414L405.0510290898578,181.5312262120733L393.80227762025197,181.73509363649646L393.8324972283049,174.62643834729533L382.95678601020836,174.61388089095362L383.1828902033981,163.46722292467075L377.54005698343735,163.49086618024194L377.4655936977251,152.4289610426731L371.9913207466361,152.47392451236556Z" stroke="#FFFFFF" stroke-dasharray="1, 0" stroke-width="1"></path><text x="441.55991774022846" y="174.3431993990581" title="Washakie" class="hint " style="">Washakie</text></a><a id="s22" rel="nofollow " title="Natrona" class="hint   "><path d="M463.1235251144599,314.20581847970516L466.9327338529524,314.193490959904L465.5207362383371,228.50418973809246L463.89204412884783,228.49172210703182L463.9042586410851,224.92475832977834L595.7150412184587,225.78426137155293L595.9155401748844,357.0028640304581L463.2593323949641,356.8633575514623Z" stroke="#FFFFFF" stroke-dasharray="1, 0" stroke-width="1"></path><text x="521.4314201306908" y="291.4168277407628" title="Natrona" class="hint " style="">Natrona</text></a><a id="s23" rel="nofollow " title="Laramie" class="hint   "><path d="M667.9043466638195,483.1945614996048L668.0821356752708,451.6181397228338L724.6215746973085,452.05989545308057L724.6528800397832,462.7078672216503L778.9804970903429,462.79735257144785L778.9163482816302,530.568754193775L668.2066339531921,530.9563099578277Z" stroke="#FFFFFF" stroke-dasharray="1, 0" stroke-width="1"></path><text x="712.3680056480213" y="493.7566051021962" title="Laramie" class="hint " style="">Laramie</text></a></g></g></svg>